<svg id="_01" data-name="01" xmlns="http://www.w3.org/2000/svg" width="144.407" height="143.004" viewBox="0 0 144.407 143.004">
  <g id="Group_17146" data-name="Group 17146" transform="translate(16.023 11.157)">
    <path id="Path_17518" data-name="Path 17518" d="M287.66,164.069a6.7,6.7,0,0,0-3.159-2.933,3.923,3.923,0,0,0-3.846.852,4.277,4.277,0,0,0-1.236,3.324,4.329,4.329,0,0,0,.555,1.878,4.088,4.088,0,0,0,1.394,1.384,4.227,4.227,0,0,0,2.01.565,4.614,4.614,0,0,0,2.107-.478l-.4.171a5.307,5.307,0,0,0,1.1-.49,3.28,3.28,0,0,0,1.152-1.207,4.564,4.564,0,0,0,.484-1.726,2.151,2.151,0,0,0,0-.432,4.362,4.362,0,0,0-.152-.91Z" transform="translate(-205.266 -120.175)" fill="#75757c"/>
    <path id="Path_17519" data-name="Path 17519" d="M159,170.2a3.791,3.791,0,0,0-1.93-2.53,5.2,5.2,0,0,0-.5-.207,2.478,2.478,0,0,0-1.759-.2,2.355,2.355,0,0,0-.729.319,2.823,2.823,0,0,0-.726.49,2.908,2.908,0,0,0-.82,1.455,3.266,3.266,0,0,0-.068.771c-.026.129-.048.258-.068.39a6.029,6.029,0,0,0-.087,1.523,4.566,4.566,0,0,0,.507,1.772,3.71,3.71,0,0,0,1.107,1.187,2.918,2.918,0,0,0,1.275.523,3.421,3.421,0,0,0,1.242,0,3.037,3.037,0,0,0,.839-.316l-.41.174a3.33,3.33,0,0,0,1.359-.887,3.534,3.534,0,0,0,.771-1.526,6.461,6.461,0,0,0-.006-2.94Z" transform="translate(-119.177 -124.396)" fill="#75757c"/>
    <path id="Path_17520" data-name="Path 17520" d="M163.587,100.421q-7.14,5.184-14.26,10.4c1.91-1.6,3.8-3.233,5.634-4.934,1.781-1.649,3.563-3.3,5.311-4.979s3.817-3.375,5.037-5.5a.7.7,0,0,0-.949-.949c-2.156,1.023-3.979,2.924-5.744,4.492-.029.026-.058.055-.087.081.432-.984-.694-2.349-1.762-1.946.442-.358.887-.71,1.329-1.068,1.258-1.029,2.52-2.072,3.746-3.143a16.232,16.232,0,0,0,3.456-3.659.632.632,0,0,0-.707-.92c-3.043,1.029-5.689,3.543-8.209,5.5q-4.017,3.112-7.925,6.357-1.825,1.51-3.627,3.049,2-1.738,3.995-3.472Q155.415,94,162,88.278c1.313-1.142-.461-3.508-1.885-2.443q-1.384,1.036-2.769,2.075c.326-.265.655-.526.981-.791,1.326-1.071-.432-3.379-1.836-2.381L108.207,119.1c11.436-10.078,23.431-19.529,35.573-28.736a.137.137,0,0,1,.023-.016q-5.92,4.71-11.691,9.607c-.6.51.184,1.526.839,1.087q7.885-5.247,15.55-10.826,3.751-2.74,7.435-5.576,1.854-1.438,3.7-2.875c1.165-.907,2.662-1.881,3.324-3.237a.883.883,0,0,0-.984-1.278,6.284,6.284,0,0,0-2.378,1.113c.933-1.246-.413-3.324-1.855-2.272q-1.515,1.108-3.033,2.214c.207-.181.413-.358.62-.539,1.113-.978,2.236-1.943,3.324-2.949a12.339,12.339,0,0,0,2.8-3.056c.255-.487-.171-1.184-.758-.987a11.583,11.583,0,0,0-3.285,2.136c-1.107.871-2.185,1.775-3.269,2.675-2.281,1.9-4.553,3.808-6.776,5.77-4.172,3.685-8.216,7.509-12.3,11.281L111.1,110.111c10.22-9.458,21-18.326,31.891-26.98q6.718-5.339,13.492-10.617c1.2-.939-.384-3.014-1.639-2.127q-1.258.891-2.517,1.778c1.907-1.475,3.8-2.972,5.6-4.569a1.118,1.118,0,0,0-1.349-1.749c-3.54,2.317-6.864,4.989-10.252,7.522q-5,3.742-9.955,7.567c-.329.255-.658.516-.987.771q8.446-7.759,16.88-15.531c1.4-1.294-.616-3.143-2.039-2.039q-5.165,4.008-10.329,8.022,3.127-2.7,6.247-5.408c1.3-1.133.032-2.795-1.349-2.7,2.256-1.83,4.514-3.656,6.751-5.508,1.178-.975-.381-3.014-1.646-2.13q-2.377,1.66-4.727,3.372,1.157-.929,2.31-1.862c1.136-.913-.352-2.836-1.562-2.026q-4.719,3.156-9.435,6.322a.8.8,0,0,0-.01-.087c.207-.148.41-.3.616-.449,3.775-2.707,7.7-5.231,11.423-8a1.2,1.2,0,0,0-1.21-2.068c-3.546,2.085-6.922,4.518-10.3,6.86q-2.241,1.549-4.456,3.13c-2.049,1.317-4.095,2.63-6.121,3.963q-3.291,2.164-6.586,4.324c5.17-4.792,10.3-9.626,15.315-14.573,2.791-1.82,5.889-3.446,8.387-5.65.845-.745-.048-2.4-1.142-1.959-3.127,1.249-5.986,3.353-8.816,5.16-2.849,1.817-5.663,3.7-8.451,5.612A156.941,156.941,0,0,0,109.3,70.772c-.571.358-1.149.71-1.717,1.071.171-.145.339-.3.51-.442q8.8-7.5,17.858-14.692c3.479-2.759,6.922-5.56,10.449-8.258,1.417-1.081.126-3.5-1.439-2.465q-7.633,5.073-15.283,10.116a1.4,1.4,0,0,0-1.478-.055c-.307.177-.61.361-.916.539,4.408-3.595,8.926-7.054,13.263-10.736.862-.733-.216-1.868-1.117-1.439a.216.216,0,0,0-.023-.035q-5.116,3.412-10.074,7.18L113.179,55.9q-.958.678-1.917,1.352c5.1-4.818,10.213-9.629,15.376-14.379,1.042-.958-.355-2.849-1.542-2-.907.652-1.82,1.288-2.736,1.923a1.207,1.207,0,0,0-1.626-.39q-6.583,3.621-12.869,7.693,4.719-3.882,9.448-7.761c1.326-1.084-.458-3.437-1.849-2.4q-12.28,9.192-24.544,18.406,4.516-3.8,9.035-7.6,6.777-5.687,13.553-11.372c1.2-1.01-.342-2.9-1.649-2.136Q96.544,46.165,81.991,56.293q6.065-4.99,12.188-9.907t12.327-9.752c1.136-.884-.31-2.549-1.484-1.923-7.209,3.843-14.153,8.135-20.946,12.662q4.865-4.206,9.729-8.413c1.32-1.146-.436-3.469-1.885-2.443q-14.773,10.445-29.458,21c-1.381,1-.081,3.308,1.355,2.317,1.872-1.288,3.737-2.588,5.608-3.882q-6.118,5.315-12.236,10.629c-1.268,1.1.452,3.395,1.823,2.362,10.094-7.615,20.207-15.237,30.778-22.185C80.355,54.247,70.987,61.8,61.965,69.8Q56.084,75.006,50.39,80.414c-1.242,1.184.587,2.943,1.862,1.862A413.144,413.144,0,0,1,97.8,48.984Q80.721,63.278,63.63,77.565,56.839,83.233,50.08,88.94c-1.21,1.023.426,3.191,1.713,2.22Q63.832,82.074,75.95,73.089q-5.4,4.792-10.671,9.713Q58.444,89.211,51.894,95.91c-1.481,1.52.694,3.537,2.275,2.275C61.581,92.273,68.783,86.1,76.305,80.333q6.249-4.792,12.617-9.426C80.92,77.6,73,84.39,65.279,91.4q-6.331,5.746-12.472,11.7c-1.42,1.378.649,3.291,2.12,2.12q5.508-4.39,11.026-8.768-2.817,2.507-5.6,5.06c-1.542,1.423-3.085,2.843-4.589,4.308-1.488,1.449-3.359,2.943-4.311,4.821a.662.662,0,0,0,.9.9,18.086,18.086,0,0,0,4.311-3.233c1.478-1.275,2.943-2.562,4.411-3.85q4.23-3.708,8.5-7.37,3.717-3.19,7.5-6.305-3.248,2.924-6.454,5.9-6.38,5.944-12.524,12.14a1.318,1.318,0,0,0,.019,2c-1.175,1.21-2.346,2.423-3.485,3.663a1.329,1.329,0,0,0,1.878,1.878c6.37-5.986,12.691-12.017,19.223-17.832.51-.455,1.029-.9,1.539-1.352,6.941-5.447,13.972-10.775,21.2-15.822-9.122,7.557-18.055,15.337-26.5,23.66l-.123.123c-.823.626-1.636,1.262-2.462,1.885-4.627,3.5-9.293,6.944-13.6,10.836-.532.481.148,1.31.752.975,1.872-1.049,3.682-2.181,5.47-3.353-.636.71-1.275,1.417-1.9,2.13-1.1,1.252.374,3.582,1.9,2.469q4.148-3.025,8.3-6.047-5.988,5.257-11.836,10.671c-1.452,1.349.7,3.459,2.162,2.162q9.323-8.243,19.01-16.06-5.111,4.506-10.055,9.2a71.785,71.785,0,0,0-9.529,10.229c-.507.713.5,1.707,1.21,1.21A103.029,103.029,0,0,0,71.891,122.3q2.2-2.028,4.437-4.017Q70.907,124.1,65.85,130.244c-.936,1.142.3,3.253,1.723,2.233l17.59-12.6c-1.3,1.152-2.6,2.3-3.885,3.469q-6.147,5.615-11.952,11.588c-1.407,1.455.665,3.391,2.175,2.175,7.645-6.163,15.3-12.327,23.043-18.368q-4.134,3.8-8.145,7.741-5.276,5.213-10.252,10.717a1.53,1.53,0,0,0,1.846,2.391q5.988-3.18,11.623-6.928a1.624,1.624,0,0,0,.316,1.478q-1.4,1.06-2.811,2.12c-1.2.9-2.4,1.82-3.566,2.775-.92.752-2.423,1.691-2.627,2.943-.039.242.061.584.355.626a4.2,4.2,0,0,0,2.791-1.016c-.687.607-1.384,1.2-2.049,1.83a.829.829,0,0,0,1,1.3c2.514-1.517,4.94-3.191,7.325-4.927a1.366,1.366,0,0,0,1.981.5q17.846-13.442,35.786-26.761-5.939,5.15-11.881,10.3c-3.03,2.139-6,4.379-8.974,6.631q-4.4,3.335-8.79,6.7-2.183,1.68-4.334,3.4a16.33,16.33,0,0,0-3.714,3.708.543.543,0,0,0,.542.8c-.716.723-1.436,1.439-2.123,2.185-.933,1.01.313,2.888,1.546,2,2.491-1.788,5.108-3.424,7.751-5.018a22.309,22.309,0,0,0-3.8,3.7c-.626.82.532,1.539,1.242,1.242,2.53-1.068,4.744-3.011,6.935-4.643.4-.3.791-.6,1.188-.9-.632.639-1.275,1.262-1.9,1.907a1.476,1.476,0,0,0,.933,2.417,2.038,2.038,0,0,0-.355,1.039.694.694,0,0,0,.5.655c1.394.429,3.175-1.207,4.289-1.923,1.568-1.01,3.1-2.081,4.621-3.156.387-.274.774-.552,1.165-.826-.678.655-1.365,1.3-2.039,1.962-1.165,1.142.384,3.3,1.788,2.317l12.63-8.848q-3.383,3.093-6.7,6.263a1.466,1.466,0,0,0,1.768,2.294q5.634-3.495,11.13-7.186c-.336.345-.678.687-1.013,1.036a1.42,1.42,0,0,0,1.713,2.22,117.09,117.09,0,0,0,21.446-13.827c1.317-1.062-.552-2.907-1.855-1.855a106.391,106.391,0,0,1-11.9,8.29c4.656-4.318,9.49-8.448,14.5-12.33l-.026-.026a1.426,1.426,0,0,0,.252-1.739,1.465,1.465,0,0,0-1.991-.523c-.1.074-.194.152-.294.229h0q-9.081,7.081-18.629,13.559,10.068-8.785,20.749-16.835c1.484-1.117.087-3.653-1.491-2.549q-12.125,8.495-24.253,16.993c8.087-7.141,16.4-14.027,24.786-20.817q5.929-4.8,11.891-9.568c1.333-1.068-.442-3.4-1.839-2.385ZM121.4,64.48l-1.307,1.2a1.961,1.961,0,0,0-.21-.19c.507-.336,1.01-.671,1.517-1.01Zm2.791,13.63a4.227,4.227,0,0,1,2.1-1.739A2.509,2.509,0,0,1,128,75.825a5.651,5.651,0,0,1,3.517,1.323,4.051,4.051,0,0,1,1.278,2.92,4.863,4.863,0,0,1-2.53,4.137,4.675,4.675,0,0,1-5.637-.61,4.62,4.62,0,0,1-.436-5.483Zm2.369,8.032q-1.51,1.409-3.024,2.807-3.79,2.711-7.583,5.424,5.305-4.114,10.6-8.232ZM75.531,77.687C81,72.753,86.564,67.932,92.175,63.166a1.525,1.525,0,0,0,1.765.316q1.907-1,3.792-2.043c-7.538,5.224-14.889,10.707-22.2,16.247Zm14.415,6.021a4.514,4.514,0,0,1-2.762,2.11A4.607,4.607,0,0,1,82.1,83.373a5.287,5.287,0,0,1,.591-6,4.051,4.051,0,0,1,3.969-1.41,3.547,3.547,0,0,1,.452.171q4.671-3.969,9.381-7.893A1.62,1.62,0,0,0,97.28,69.3c-3.32,2.278-6.6,4.624-9.855,6.993a4.405,4.405,0,0,1,1.914,2.494,3.99,3.99,0,0,1,.542.8,4.441,4.441,0,0,1,.065,4.121Zm6.957-10.1a.661.661,0,0,0-.042-.394q1.1-.77,2.207-1.536l.055.065q-1.108.934-2.22,1.865Zm-22.83,33.8-.094.068c.578-.578,1.168-1.142,1.752-1.717q3.137-2.294,6.254-4.624,8.529-6.384,16.9-12.962c-.6.561-1.191,1.126-1.762,1.707a1.311,1.311,0,0,0-.413,1.029l-22.637,16.5Zm11.472,24.3c3.056-3.1,6.192-6.118,9.377-9.084a1.447,1.447,0,0,0,1.61,1.488Q91.222,128.169,85.544,131.709Zm-6.025-11.275q-1.864,1.331-3.724,2.665c3.372-3.714,6.857-7.322,10.41-10.862.061.81.791,1.575,1.617.939q4.114-3.156,8.193-6.357a1.441,1.441,0,0,0,.829,1.22Q88.18,114.235,79.519,120.434Zm11.594-13c5.77-5.541,11.707-10.913,17.712-16.193a1.349,1.349,0,0,0,1.565-.21c.829-.7,1.688-1.371,2.533-2.056-.042.048-.084.1-.126.148a.669.669,0,0,0-.152.581Q105.822,95.266,99,100.84q-3.974,3.267-7.893,6.593ZM110.233,122c-.426.239-.842.494-1.258.742.465-.4.936-.8,1.394-1.21a.566.566,0,0,0,.194-.468q3.5-2.488,7.009-4.979L110.233,122Zm22.582-8.367a.613.613,0,0,0,.045.632q-2.27,1.631-4.534,3.269,2.246-1.951,4.489-3.9Zm-14.844,20.1c9.016-8.316,18.368-16.267,27.819-24.082q5.441-4.5,10.913-8.958c-1.21,1.1-2.423,2.2-3.627,3.3-3.679,3.395-7.09,7.028-10.571,10.617a.664.664,0,0,0,.142,1.075q-12.338,9.018-24.673,18.045Z" transform="translate(-49.656 -34.574)" fill="#eac485"/>
  </g>
  <g id="Group_17147" data-name="Group 17147">
    <path id="Path_17521" data-name="Path 17521" d="M98.009,169.322c-14.376-.261-27.119-5.176-38.687-13.427a24.469,24.469,0,0,1-4.04-3.572C25.749,119.27,38.6,78.333,65.436,60.388c1.249-.836,2.795-2.523,4.192-.671,1.378,1.83-.532,2.83-1.778,3.814-.565.449-1.155.858-1.739,1.284-15.373,11.175-22.585,26.7-23.756,45.261-.232,3.708.62,7.509,1.188,11.236a43.151,43.151,0,0,0,1.617,5.708c9.132,30.456,37.432,39.475,57.923,38.161,3.659-.236,5.076.274,4.718,1.82-.565,2.44-2.753,1.843-4.414,2.036-1.784.21-3.595.2-5.379.287Z" transform="translate(-25.988 -39.881)" fill="#262c54"/>
    <path id="Path_17522" data-name="Path 17522" d="M98.741,0c12.63-.077,24.715,2.385,35.819,8.5,4.218,2.32,7.987,5.466,11.891,8.332a9.141,9.141,0,0,1,2.5,2.775,2.542,2.542,0,0,1-.132,2.365c-.374.426-1.578.358-2.314.148a4.733,4.733,0,0,1-1.659-1.329C135.87,12.122,124.96,7.256,112.837,5.21c-21.869-3.688-42.224.449-60.675,12.9-3.546,2.394-6.58,5.547-9.842,8.361a25.223,25.223,0,0,1-2.833,2.446,2.028,2.028,0,0,1-1.888-.232A2,2,0,0,1,37.1,26.85a22.325,22.325,0,0,1,2.969-3.792C50.286,12.58,62.839,6.275,76.844,2.619A83.081,83.081,0,0,1,98.741,0Z" transform="translate(-25.075 0.002)" fill="#262c54"/>
    <path id="Path_17523" data-name="Path 17523" d="M158.411,376.432c-7.1.006-14.014-.984-20.384-4.279a33.976,33.976,0,0,1-6.076-4.379,2.353,2.353,0,0,1-.236-2.314,2.66,2.66,0,0,1,2.3-.5,7.278,7.278,0,0,1,2.227,1.462,29.327,29.327,0,0,0,16.093,5.615c24.386,1.207,45.17-6.757,61.834-24.867a14.212,14.212,0,0,1,2.262-2.272c.468-.316,1.655-.355,1.9-.042a3.126,3.126,0,0,1,.59,2.307,5.486,5.486,0,0,1-1.43,2.243c-1.923,2.136-3.792,4.347-5.9,6.289-13.414,12.369-34.873,20.688-53.179,20.733Z" transform="translate(-89.075 -233.428)" fill="#262c54"/>
    <path id="Path_17524" data-name="Path 17524" d="M321.043,174.559c-1.8,24.77-13.075,43.528-35.357,55.274a40.128,40.128,0,0,1-3.969,1.672c-1.388.555-2.927,1.075-3.646-.794-.6-1.562.752-2.191,1.9-2.733s2.317-.978,3.456-1.513c21.511-10.081,35.335-33.992,33.166-57.542a79.639,79.639,0,0,0-1.649-8.438,16.723,16.723,0,0,1-.623-3.143,1.682,1.682,0,0,1,2.949-1.133,9.265,9.265,0,0,1,1.391,2.872,47.485,47.485,0,0,1,2.385,15.476Z" transform="translate(-188.24 -105.441)" fill="#262c54"/>
    <path id="Path_17525" data-name="Path 17525" d="M171,277.047c-6.564-.1-12.546-1.849-17.558-5.973-1.846-1.52-3.088-3.834-4.376-5.925-.242-.394.442-1.623,1-2.136.274-.252,1.455.052,1.862.461,1.375,1.4,2.385,3.208,3.9,4.4a22.132,22.132,0,0,0,14.434,5.069c9.213-.2,17.825-2.1,24.231-9.539a3.437,3.437,0,0,1,1.723-1.184,2.764,2.764,0,0,1,1.9.549,1.482,1.482,0,0,1,.294,1.413,15.741,15.741,0,0,1-2.068,3.088c-4.64,5.208-10.8,7.544-17.406,8.884-2.623.532-5.341.613-7.935.887Z" transform="translate(-100.929 -177.59)" fill="#262c54"/>
    <path id="Path_17526" data-name="Path 17526" d="M207.87,42.578c-.549.265-1.294.936-1.962.868a9.034,9.034,0,0,1-2.985-1.136c-12.027-6.128-24.547-6.309-37.335-3.1-3.362.845-5.131.726-5.108-.649.039-2.41,2.156-2.691,3.814-3.1,13.853-3.443,27.451-3.424,40.469,3.34,1.394.726,3.062,1.3,3.111,3.779Z" transform="translate(-108.694 -22.484)" fill="#262c54"/>
    <path id="Path_17527" data-name="Path 17527" d="M275.68,150.97c5.347-.026,8.477,2.456,8.551,6.78.084,4.992-2.465,8.419-6.286,8.448-4.253.029-8.467-3.937-8.538-8.032-.071-4.15,2.569-7.177,6.273-7.193Zm-1.317,5.4a2.258,2.258,0,0,0-.865,1.213c-.332,2.01,1.555,4.021,3.827,4.34,1.662.232,2.92-1.233,2.824-3.646a2.429,2.429,0,0,0-1.355-1.82c-1.123-.294-2.378-.084-4.431-.084Z" transform="translate(-182.471 -102.252)" fill="#262c54"/>
    <path id="Path_17528" data-name="Path 17528" d="M145.037,170.334a15.044,15.044,0,0,1-3.856-2.594c-2.749-3.111-2.152-8.939.891-11.756,1.775-1.643,3.575-1.875,5.873-.755,4.792,2.336,6.231,5.547,4.673,10.449-.952,2.991-3.275,4.679-7.58,4.66Zm4.018-7.512a2.529,2.529,0,0,0-2.83-2.966c-1.759,0-2.54.965-2.6,2.636-.081,2.143,1.191,3.853,2.8,3.763,1.481-.084,2.543-1.468,2.636-3.437Z" transform="translate(-94.43 -104.669)" fill="#262c54"/>
    <path id="Path_17529" data-name="Path 17529" d="M.049,246.748c-.013-.177-.032-.358-.035-.536C0,244.776-.2,243.053,1.737,242.84c1.991-.219,2.239,1.488,2.256,2.936.09,8.626,3.608,15.951,8.419,22.837,2.094,3,2.291,4.537.894,5.021-2.346.813-3.088-1.278-4.059-2.64C4.063,263.724.149,255.954.049,246.748Z" transform="translate(-0.001 -164.464)" fill="#262c54"/>
    <path id="Path_17530" data-name="Path 17530" d="M416.268,122.146a8.382,8.382,0,0,1-.607,2.381,2.448,2.448,0,0,1-1.613,1.113,2.059,2.059,0,0,1-1.617-1.026,13.081,13.081,0,0,1-.5-3.162c-.774-6.938-2.924-13.266-7.751-18.542a16.085,16.085,0,0,1-2.714-4.589,2.417,2.417,0,0,1,.661-2.269,2.375,2.375,0,0,1,2.31.426c3.208,4.724,7.554,8.774,9.219,14.424,1.11,3.769,1.8,7.664,2.614,11.249Z" transform="translate(-271.861 -64.961)" fill="#262c54"/>
    <path id="Path_17531" data-name="Path 17531" d="M331.351,70.52a9.839,9.839,0,0,1,1.93.881c4.192,3.146,8.145,6.541,10.758,11.194a10.3,10.3,0,0,1,1.039,3,1.516,1.516,0,0,1-.639,1.317,3.243,3.243,0,0,1-1.981.032,2.283,2.283,0,0,1-1.107-1.11c-2.423-4.566-6.183-7.89-10.133-11.059a4.4,4.4,0,0,1-1.43-1.559,2.717,2.717,0,0,1,.129-1.933c.165-.361.868-.481,1.43-.762Z" transform="translate(-223.285 -47.763)" fill="#262c54"/>
    <path id="Path_17532" data-name="Path 17532" d="M436.153,220.74c-.29,1.388-.726,4.008-1.449,6.544-.177.616-1.3.965-1.985,1.436-.507-.8-1.481-1.63-1.433-2.394a58.121,58.121,0,0,1,1.181-8.4,3.04,3.04,0,0,1,1.923-2.017c1.594-.184,1.888,1.22,1.933,2.54C436.336,218.8,436.275,219.152,436.153,220.74Z" transform="translate(-292.113 -146.223)" fill="#262c54"/>
  </g>
</svg>
