<svg id="_10" data-name="10" xmlns="http://www.w3.org/2000/svg" width="141.358" height="141.811" viewBox="0 0 141.358 141.811">
  <g id="Group_17150" data-name="Group 17150" transform="translate(14.008 10.602)">
    <g id="Group_17148" data-name="Group 17148" transform="translate(70.295 59.663)">
      <path id="Path_17533" data-name="Path 17533" d="M267.348,219.9c.036-.068.055-.129.087-.2C267.487,219.568,267.335,219.933,267.348,219.9Z" transform="translate(-265.38 -219.048)" fill="#75757c"/>
      <path id="Path_17534" data-name="Path 17534" d="M266.982,220.411c.023-1.814-2.814-3.93-3.788-1.71-.594.152-1.494.481-1.262,1.268-1.9,1.775.532,6.789,2.888,4.379,2.062.3,2.488-2.42,2.159-3.937Z" transform="translate(-261.251 -217.748)" fill="#75757c"/>
    </g>
    <path id="Path_17535" data-name="Path 17535" d="M169.308,220.667c-.749-1.749-3.73-1.152-4.785-.129a12.286,12.286,0,0,0-.933,5.015C165.5,229.1,169.963,222.981,169.308,220.667Z" transform="translate(-124.809 -159.309)" fill="#75757c"/>
    <path id="Path_17536" data-name="Path 17536" d="M194.261,294.81a.092.092,0,0,0-.013-.019.246.246,0,0,1-.035.026c.258-.494.513-.987.774-1.475.455-.852-.549-2.143-1.455-1.455-.652.494-1.32.968-1.991,1.436.629-1.007,1.252-2.017,1.885-3.02.545-.871-.6-2.152-1.484-1.484-1.055.791-2.136,1.549-3.227,2.3.494-.733.994-1.462,1.523-2.172.623-.833-.587-1.965-1.413-1.413q-.876.586-1.755,1.171c.436-.578.871-1.155,1.31-1.723a.874.874,0,0,0-1.236-1.236c-1.142.907-2.327,1.739-3.53,2.549.771-1.071,1.539-2.146,2.336-3.2.758-1-.807-2.007-1.649-1.271q-1.375,1.205-2.743,2.433c.307-.4.613-.791.916-1.187a1.078,1.078,0,0,0-1.523-1.523q-1.825,1.462-3.643,2.933c.219-.252.429-.513.655-.762a.849.849,0,0,0-1.2-1.2l-6.509,5.444c-.313.261-.636.507-.955.758q2.144-3.214,4.285-6.428c.745-1.12-.891-2.288-1.817-1.4l-5.837,5.566a.722.722,0,0,0-1.162-.261c-2.394,2.63-4.682,5.331-6.993,8.035a1.091,1.091,0,0,0,1.542,1.542q3.267-3.078,6.541-6.154-1.273,1.888-2.546,3.779c-.807,1.2.9,2.259,1.875,1.446.691-.574,1.352-1.178,2.007-1.788a1.217,1.217,0,0,0,2.049.875c1.865-1.6,3.759-3.169,5.663-4.727-.629.774-1.242,1.565-1.8,2.388-.771,1.136.926,2.372,1.865,1.439.829-.82,1.678-1.623,2.536-2.417a1.277,1.277,0,0,0,2.11,1.268c.123-.1.242-.2.361-.307-.687.949.7,2.288,1.642,1.62.923-.652,1.836-1.313,2.756-1.968-.468.613-.926,1.233-1.365,1.865-.681.981.7,2.414,1.684,1.684,1.065-.787,2.127-1.588,3.188-2.388-.6.875-1.184,1.755-1.746,2.656-.61.984.674,2.443,1.681,1.681.813-.616,1.626-1.242,2.44-1.862-.387.639-.765,1.284-1.117,1.939a1.27,1.27,0,0,0,1.985,1.533c.455-.368.916-.723,1.375-1.078a1.5,1.5,0,0,1-.023.168c-.287,1.262,1.642,2.249,2.21.933a6.476,6.476,0,0,0,.432-1.01,4.313,4.313,0,0,0-.032-.958,2.059,2.059,0,0,1,.71-1.575c1.165-1.026-.329-2.64-1.552-2.007Z" transform="translate(-120.675 -201.993)" fill="#ba8b54"/>
    <g id="Group_17149" data-name="Group 17149">
      <path id="Path_17537" data-name="Path 17537" d="M159.932,329.54a58.469,58.469,0,0,0-6.392,1.016q-5.421,7.048-10.691,14.2c-.845,1.146,1.075,2.643,1.985,1.533,4.74-5.792,9.752-11.355,14.976-16.709C159.852,329.572,159.89,329.55,159.932,329.54Z" transform="translate(-110.619 -233.803)" fill="#eac485"/>
      <path id="Path_17538" data-name="Path 17538" d="M156.836,80c.177-.494-.442-.9-.855-.658a14.363,14.363,0,0,0-3.13,2.82q-1.622,1.733-3.195,3.511c-2.049,2.317-4.114,4.621-6.173,6.928-4.13,4.621-8.141,9.345-12.307,13.931a.614.614,0,0,0,.361,1.026q-5.837,6.428-11.71,12.824l-.077-.048q10.111-12.241,20.21-24.5,5.363-6.525,10.729-13.05a1.5,1.5,0,0,0-2.127-2.127q-2.662,2.314-5.25,4.711c2.8-3.291,5.621-6.573,8.354-9.923,1.223-1.5-.755-3.6-2.168-2.168q-1.592,1.612-3.182,3.227a4.049,4.049,0,0,0,.316-.942.642.642,0,0,0-.781-.781c-.019.006-.039.016-.061.023.442-.452.891-.9,1.329-1.355,1.329-1.381,3.124-2.859,3.876-4.644a.965.965,0,0,0-1.181-1.181,6.611,6.611,0,0,0-1.2.674c-.039-.9-1.087-1.814-1.952-1.158a1.3,1.3,0,0,0-.81-.132c.891-1.562,1.723-3.153,2.478-4.789a1.533,1.533,0,0,0-2.394-1.849l-.307.239a8.918,8.918,0,0,0,1.117-2.32.665.665,0,0,0-.965-.742c-1.843.926-3.3,2.888-4.627,4.424q-2.193,2.541-4.353,5.115-4.313,5.16-8.519,10.4c-.155.194-.307.39-.461.581-.523.594-1.039,1.191-1.571,1.778q-5.412,5.978-10.82,11.952a4.5,4.5,0,0,1,3.046-.871,3.008,3.008,0,0,1,2.949,2.949,3.135,3.135,0,0,1-1.672,2.669,2.965,2.965,0,0,1,1.065,3.114,2.517,2.517,0,0,1-.158.4q1.873-2.275,3.769-4.534,3.921-3.509,7.709-7.17c-.216.239-.436.478-.652.72-4.608,5.118-9.129,10.336-13.317,15.8a.556.556,0,0,0-.116.3q-2.4,2.435-4.8,4.869l-2.594,2.633q.474-.629.952-1.252,3.959-5.15,8.064-10.181a2.879,2.879,0,0,1-2.491.474,5.689,5.689,0,0,1-1.981-9.758c.645-.807,1.3-1.61,1.936-2.42a1.324,1.324,0,0,0,.074-1.559q11.249-12.348,22.262-24.905a1.306,1.306,0,0,0,.071-1.736c.774-.852,1.549-1.713,2.291-2.591a11.871,11.871,0,0,0,2-2.746.892.892,0,0,0-1.21-1.21,11.658,11.658,0,0,0-2.607,2.143c-.8.768-1.578,1.562-2.352,2.356q-2.469,2.512-4.844,5.128c-1.584,1.743-3.156,3.511-4.685,5.311-1.643,1.507-3.285,3.014-4.915,4.537.074-.094.148-.184.223-.278a1.3,1.3,0,0,0,.294-.723c.5-.561,1.01-1.117,1.507-1.684a125.774,125.774,0,0,0,11.433-15.1c.8-1.255-.962-2.485-1.994-1.539q-2.27,2.072-4.547,4.134,3.64-3.814,7.283-7.622c.991-1.036-.568-2.6-1.575-1.575q-1.171,1.191-2.346,2.381a1.317,1.317,0,0,0-2.152-.742q-8.688,7.343-17.044,15.07c1.881-1.755,3.753-3.521,5.6-5.318,2.014-1.965,3.992-3.972,5.97-5.973,2.02-2.039,4.169-4.063,5.983-6.292a1.215,1.215,0,0,0-1.717-1.717c-2.143,1.794-4.079,3.914-6.038,5.9-.436.442-.868.887-1.3,1.329.933-1.171,1.865-2.349,2.8-3.521a1.336,1.336,0,0,0-1.888-1.888q-11.181,9.448-21.807,19.529,5.276-5.431,10.6-10.82,8.011-8.083,16.154-16.038c1.01-.984-.371-2.917-1.555-2.014-.087.068-.171.136-.258.2h0s0,0-.006.006C107.9,54.464,91.256,71.6,75.289,89.231c-.7.778-1.4,1.562-2.1,2.343,2.8-3.972,5.712-7.864,8.677-11.717A29.239,29.239,0,0,0,85.7,76.381q2.081-1.955,4.134-3.943c2.736-2.649,5.405-5.37,8.038-8.122,5.218-5.457,10.22-11.123,15.06-16.915a84.977,84.977,0,0,0,7.754-10.074.518.518,0,0,0-.81-.626c-2.707,2.533-5.04,5.512-7.528,8.258-2.556,2.82-5.111,5.637-7.732,8.4q-4.255,4.492-8.651,8.842,1.805-2.207,3.608-4.418c1.513-1.375,3.024-2.749,4.566-4.092a.583.583,0,0,0-.413-1c3.666-4.511,7.315-9.042,10.988-13.55a1.3,1.3,0,0,0-1.836-1.836A306.4,306.4,0,0,0,79.965,69.469c5.647-7.19,11.462-14.25,17.367-21.233,3.724-4.4,7.39-8.861,11.152-13.237a1.265,1.265,0,0,0-1.788-1.788c-8.913,7.925-17.316,16.38-25.444,25.1q4.322-5.131,8.722-10.2,4.971-5.736,9.952-11.465c.878-1.016-.307-2.92-1.546-2-.087.065-.171.136-.258.2h0A224.046,224.046,0,0,0,79.262,50.7c.278-.326.549-.658.829-.981Q85.125,43.865,90.253,38.1c.884-.994-.323-2.878-1.52-1.968-.084.065-.165.136-.252.2v0l-.016.019c-3.214,2.456-6.3,5.053-9.287,7.754,1.775-1.914,3.563-3.814,5.386-5.686.962-.991-.355-2.9-1.536-1.991-.087.065-.171.136-.255.2h0l-.01.01q-6.375,4.889-12.469,10.22a.575.575,0,0,0-.42.155c-4.466,3.972-8.732,8.148-12.84,12.478-.962,1-1.907,2.02-2.846,3.04-.374.41-.755.81-1.123,1.223C51.42,65.574,49.8,67.413,48.235,69.3c-.991,1.178.665,2.882,1.71,1.71,6.1-6.838,12.459-13.382,19.161-19.562Q58,64.162,48.138,77.9c-.916,1.284,1.188,2.927,2.2,1.7,4.753-5.763,9.374-11.6,14.334-17.2,3.592-4.05,7.293-8.009,11.159-11.8C68,59.624,60.346,68.8,52.985,78.2q-4.729,6.036-9.316,12.178c-.955,1.288.971,2.5,2.068,1.588l.026.026q4.327-5.518,8.677-11.01a281.911,281.911,0,0,1,31.992-33.5c.8-.7,1.6-1.384,2.407-2.072q-4.264,4.894-8.448,9.849a1.144,1.144,0,0,0-1.846-.158A315.394,315.394,0,0,0,44.76,98.327c-.958,1.446,1.113,2.849,2.307,1.778C52.4,95.31,57.451,90.086,62.4,84.894c-.339.5-.684.987-1.02,1.484q-6.53,9.661-12.517,19.681c-.707,1.187,1.013,2.6,1.959,1.51,1.788-2.065,3.6-4.1,5.424-6.128-1.707,2.517-3.362,5.073-4.927,7.693-.707,1.181,1.029,2.617,1.956,1.51q6.017-7.178,12.023-14.363-6.515,9.2-13.014,18.413c-.794,1.129,1,2.507,1.914,1.478.139-.155.274-.31.413-.461-.407.968.345,2.294,1.552,1.894a16.692,16.692,0,0,0,3.085-1.4c-.245.316-.5.623-.742.942-1.339,1.736-2.975,3.611-3.711,5.7a.477.477,0,0,0,.694.532c1.868-1.2,3.337-3.217,4.763-4.889q2.328-2.735,4.66-5.47c.642-.755,1.3-1.5,1.949-2.249-2.107,3.275-4.163,6.589-5.976,10.032a1.073,1.073,0,0,0,.587,1.594q-1.4,1.786-2.759,3.611c-.833,1.126.852,2.194,1.81,1.391l.023.023c3.34-3.976,6.509-8.1,9.771-12.146q3.485-4.09,7.1-8.077c-3.262,4.134-6.5,8.28-9.787,12.395a1.316,1.316,0,0,0,.213,1.836c-.42.513-.829,1.033-1.249,1.549-2.068,2.511-4.118,5.037-6.115,7.6-.984,1.262.771,3.062,1.784,1.784q7.043-8.887,14.36-17.554a84.013,84.013,0,0,0-5.089,10.549c-.013.029-.023.058-.032.087q-2.251,3-4.5,6c-.6.794.6,1.817,1.323,1.32-.352.639-.7,1.278-1.042,1.926a1.153,1.153,0,0,0,1.8,1.391c1.317-1.329,2.623-2.665,3.94-3.995a2.466,2.466,0,0,0,1.039.155q-1.544,2.106-3.088,4.208c-.713.971.855,2.156,1.659,1.281q4.216-4.579,8.429-9.155a2.822,2.822,0,0,1-.774-3.7c3.911-7.167,12.388-10.665,20.284-10.723A20.926,20.926,0,0,1,111.9,117.1c4.23,2.694,6.183,6.925,8.3,11.284a2.967,2.967,0,0,1-1.8,4.272c-.084.116-.168.229-.252.342a102.52,102.52,0,0,1-8.267,8.061q1.37-1.617,2.785-3.195c1.8-1.684,3.572-3.4,5.337-5.128a3.181,3.181,0,0,1-1.839-.316,40.189,40.189,0,0,0-7.654-2.794q-2.319,2.841-4.64,5.679-1.152,1.167-2.307,2.327,2.193-2.793,4.46-5.528c.716-.862,1.452-1.7,2.181-2.556a41.51,41.51,0,0,0-5.489-.968q-.5.6-1,1.191a1.543,1.543,0,0,0-.213.329c-.629.61-1.262,1.213-1.891,1.823.926-1.136,1.885-2.246,2.827-3.369a47.276,47.276,0,0,0-8.335-.094q-6.225,8.03-12.111,16.309c-.813,1.146,1.052,2.6,1.959,1.513q4.008-4.792,8.212-9.426-3.088,4.042-6.06,8.164c-.9,1.258,1.042,2.646,2.1,1.617q5.794-5.649,11.636-11.246c-1.007,1.291-2,2.585-2.978,3.9-2.294,3.091-4.3,6.318-6.376,9.555-.716,1.117.9,2.33,1.82,1.4q3.316-3.335,6.625-6.676-1.1,1.491-2.181,2.991a1.222,1.222,0,0,0,1.046,1.823,7.841,7.841,0,0,0,4.247-1.217c-.116.158-.236.316-.352.478-.681.945.681,2.317,1.626,1.626,1.872-1.365,3.7-2.8,5.489-4.282-.155.194-.307.387-.461.578a1.1,1.1,0,0,0,1.326,1.72,54.586,54.586,0,0,0,5.305-3.3,26.418,26.418,0,0,0-1.058,2.582c-.4,1.146,1.075,1.707,1.849,1.078q2.478-2.023,4.921-4.092a1.344,1.344,0,0,0,2.3.894q5.794-5.847,11.565-11.717l-2.536,3.379c-.949,1.265.839,2.688,2.036,2.036q.649-.353,1.294-.707a1.333,1.333,0,0,0,.639-1.7c4.269-5.725,8.548-11.443,12.743-17.219.926-1.278-1.091-2.769-2.159-1.665-.8.826-1.607,1.639-2.411,2.462q3.006-3.6,5.989-7.225c1.133-1.378-.687-3.311-2-2q-3.412,3.427-6.86,6.825c.571-.584,1.146-1.165,1.72-1.749q6.66-6.583,13.292-13.192a1.45,1.45,0,0,0-2.049-2.049c-10.174,9.99-20.265,20.071-30.378,30.126,1.662-2.117,3.379-4.189,5.131-6.231,5.192-6.054,10.549-11.972,15.841-17.938q4.627-5.218,9.252-10.436c1.22-1.375-.7-3.34-2.03-2.03q-14.957,14.72-29.8,29.562c1.326-1.575,2.675-3.133,4.011-4.7a.643.643,0,0,0,.736-.148c2.63-2.436,5.157-5.05,7.664-7.615,2.572-2.633,5.137-5.27,7.645-7.967q3.684-3.959,7.315-7.961c2.381-2.63,5.115-5.247,6.783-8.4.3-.565-.326-1.3-.92-.92a21.36,21.36,0,0,0-3.117,2.472,1.573,1.573,0,0,0-.523-.768c.852-1.013,1.691-2.043,2.5-3.088a14.612,14.612,0,0,0,2.481-3.892ZM101.679,50.763c.287-.274.578-.542.865-.813q-4.7,5.75-9.4,11.514C89.02,65.013,84.944,68.617,81,72.37c-.126.119-.248.242-.374.361,6.747-7.577,13.7-14.963,21.046-21.969ZM69.842,78.088c1.51-2.152,3.014-4.331,4.6-6.434.758-.923,1.5-1.855,2.227-2.8.016-.019.032-.042.048-.061a.067.067,0,0,0,.013-.019c.055-.074.113-.145.168-.216l-.019-.01a1.208,1.208,0,0,0-.2-1.381q6.418-7.13,13.059-14.047C82.9,61.269,76.209,69.543,69.836,78.088ZM91.169,94.106q3.558-4.419,7.106-8.842,4.342-4.337,8.78-8.58Q99.006,85.3,91.169,94.106Zm3.153.778q-7.4,9.913-14.8,19.823c.026-.045.048-.09.074-.132a112.97,112.97,0,0,1,7.8-11.526c1.4-1.833,2.856-3.624,4.334-5.392q1.292-1.389,2.591-2.772ZM96.681,70.2c-1.513,1.562-3.011,3.133-4.518,4.7l-.458.368Q94.178,72.723,96.681,70.2ZM73.227,105.572c.636-.942,1.265-1.891,1.92-2.827,1.82-2.6,3.692-5.17,5.583-7.719.3-.326.594-.655.891-.981A2.968,2.968,0,0,1,83.7,91.712c.016-.006.032,0,.048-.01,2.843-3.133,5.557-6.351,8.283-9.577q6.312-6.389,12.833-12.559c-6.948,7.1-13.588,14.5-20.039,22.059a2.965,2.965,0,0,1,2.507,2.149,7.721,7.721,0,0,1-1.3,6.105A3.026,3.026,0,0,1,82,100.938,2.969,2.969,0,0,1,80.943,96.9a8.254,8.254,0,0,0,.494-.787c.032-.055.058-.113.087-.171.006-.019.013-.035.023-.068a3.082,3.082,0,0,0,.1-.348v-.132q-4.245,5.053-8.409,10.178Zm13.689,9.145q-6.568,6.66-13.133,13.324,2.018-3.132,4.243-6.121a1.251,1.251,0,0,0,1.055-.374q5.426-5.489,10.862-10.965Q88.428,112.647,86.916,114.717Zm11.885-20c-2.565,2.533-5.1,5.1-7.567,7.709q4.458-5.9,8.916-11.794,1.041-1.38,2.081-2.756a1.478,1.478,0,0,0,.484-.3q12.294-11.293,24.654-22.527c-3.366,4.185-6.98,8.158-10.717,12.023Q107.494,85.653,98.8,94.713ZM110.059,90.6q4.918-4.8,9.89-9.539-9.206,10.208-18.581,20.259l8.687-10.72Zm-2.094,16.648a1.4,1.4,0,0,0,.129-.419q.508-.615,1.016-1.226a1.251,1.251,0,0,0,.2.113l-1.349,1.533Zm17.877-22.043q1.985-2.425,3.963-4.85,4.874-5.566,9.807-11.084a1.6,1.6,0,0,0,.374-.729q1.21-.91,2.423-1.8a101.7,101.7,0,0,1-5.779,8.545Q131.078,80.066,125.842,85.207Zm7.867,13.6-12.537,15.325a1.559,1.559,0,0,0-.758-1.107C124.755,108.2,129.166,103.439,133.709,98.811Zm-16.577,10.813,9.574-9.477q-4.492,5.3-8.974,10.61a1.472,1.472,0,0,0-.6-1.133Zm-16.318,35.509q1.6-2.106,3.24-4.172a1.4,1.4,0,0,0,.161,1.491A20.54,20.54,0,0,1,100.814,145.133Zm25.3-22.246c-.632.745-1.252,1.5-1.875,2.252a1.536,1.536,0,0,0-.171-.239q1.026-1.007,2.046-2.017Zm3.037,9.839-2.933,3.524c-.052.042-.1.084-.152.126-1.181.991-2.378,1.968-3.569,2.949q3.325-3.3,6.654-6.6Z" transform="translate(-43.411 -32.855)" fill="#eac485"/>
      <path id="Path_17539" data-name="Path 17539" d="M145.713,341q4.313-4.874,8.671-9.71c-.158.035-.313.061-.471.1a2.917,2.917,0,0,1-2.44-.426,3.078,3.078,0,0,1-1.746-.361c-.7.862-1.4,1.726-2.1,2.585a1.414,1.414,0,0,0,.2,2c-1.236,1.526-2.456,3.069-3.643,4.634-.668.878.8,2,1.53,1.181Z" transform="translate(-111.55 -234.52)" fill="#eac485"/>
    </g>
  </g>
  <g id="Group_17151" data-name="Group 17151">
    <path id="Path_17540" data-name="Path 17540" d="M36.073,171.087c.545-3.282,1.152-7.177,1.872-11.052a6.984,6.984,0,0,1,1.171-2.972,2.854,2.854,0,0,1,2.236-.765c.42.042,1.013,1.02,1.055,1.61a9.364,9.364,0,0,1-.5,2.62,58.129,58.129,0,0,0,19.326,56.829c8.167,6.751,17.074,11.82,27.629,13.947,8.445,1.7,16.535,1.1,24.208-2.649,4.5-2.2,8.667-5.069,12.943-7.7,1.375-.845,2.591-1.943,3.93-2.849,1.081-.732,2.452-1.394,3.227.1a2.994,2.994,0,0,1-.7,2.759c-9.513,8.016-19.92,14.44-32.692,15.228-9.71.6-18.952-1.994-27.532-6.467a73.921,73.921,0,0,1-20.023-15.4c-8.493-9.148-12.895-20.226-14.9-32.366-.555-3.362-.8-6.78-1.262-10.868Z" transform="translate(-24.431 -105.855)" fill="#262c54"/>
    <path id="Path_17541" data-name="Path 17541" d="M271.679,87.491c.281-12.7-4.989-23.392-13.046-32.727A108.224,108.224,0,0,0,244.78,42.018c-6.941-5.65-15.118-8.122-24.063-8.074a16.579,16.579,0,0,1-3.74-.226,2.067,2.067,0,0,1-1.2-1.536,2.06,2.06,0,0,1,1-1.672,11.567,11.567,0,0,1,3.669-.6c7.315-.048,14.382,1.284,20.726,5.011,11.672,6.864,21.259,15.893,27.942,27.832a50.423,50.423,0,0,1,5.931,33.831,82.978,82.978,0,0,1-7.232,22.5,37.459,37.459,0,0,1-2.746,4.634c-.794,1.181-1.736,2.607-3.437,1.439-1.41-.971-.613-2.23,0-3.337.436-.787.965-1.52,1.388-2.31,5.3-9.987,8.655-20.507,8.661-32.014Z" transform="translate(-146.146 -20.256)" fill="#262c54"/>
    <path id="Path_17542" data-name="Path 17542" d="M168.451,276.551c.487.294,2.711.929,2.833,1.846.313,2.333-1.936,1.862-3.456,2a22.55,22.55,0,0,0-17.138,9.949,5.9,5.9,0,0,0-.494,2,5.725,5.725,0,0,0,1.975.207,46.082,46.082,0,0,1,22.466-.339c3.659.845,7.19,2.246,10.778,3.395,1.271.407,1.71-.239,1.488-1.349-.636-3.127-2.507-5.547-4.7-7.722-1.275-1.262-2.84-2.252-4.011-3.595-.581-.665-.571-1.843-.829-2.788.965-.123,2.217-.694,2.853-.294,5.35,3.366,9.377,7.854,10.829,14.192.445,1.939.478,3.992-1.242,5.515-1.83,1.62-3.763.884-5.547-.01-6.431-3.227-13.288-4.376-20.4-4.408a31.833,31.833,0,0,0-13.692,2.543c-1.359.626-2.659,1.22-3.988.032a4.106,4.106,0,0,1-1.11-4.45,19.68,19.68,0,0,1,.8-2.575c3.095-7.425,13.492-14.253,22.585-14.153Z" transform="translate(-98.108 -187.308)" fill="#262c54"/>
    <path id="Path_17543" data-name="Path 17543" d="M0,138.725a73.546,73.546,0,0,1,6.712-28.081,12.5,12.5,0,0,1,1.981-3.153,2.032,2.032,0,0,1,1.92-.187A2.036,2.036,0,0,1,11.5,109a17.874,17.874,0,0,1-1.258,3.53c-10,23.676-7.883,46.258,6.079,67.791a15.113,15.113,0,0,1,1.755,3.291,2.056,2.056,0,0,1-.726,1.807,2,2,0,0,1-1.92-.084,19.689,19.689,0,0,1-2.74-3.282C4.676,170.439.023,155.321,0,138.725Z" transform="translate(0 -72.574)" fill="#262c54"/>
    <path id="Path_17544" data-name="Path 17544" d="M366.638,221.668c-1.507,21.885-11.562,38.965-29.155,51.8-1.242.907-2.472,2.4-4.25,1.01-1.149-.9-.581-2.088,1.878-4.227,3.253-2.83,6.609-5.557,9.694-8.561a52.1,52.1,0,0,0,15.683-29.449c.639-3.9,1.455-7.764,2.181-11.649.236-1.252.4-2.723,2.056-2.652,1.985.087,1.949,1.726,1.949,3.2,0,.181-.019.358-.032.539Z" transform="translate(-225.316 -147.608)" fill="#262c54"/>
    <path id="Path_17545" data-name="Path 17545" d="M120.452,212.8c-.632-.41-1.972-.82-2.152-1.523a3.141,3.141,0,0,1,1.265-2.552c2.659-1.839,5.589-3.291,8.216-5.176,3.356-2.407,3.521-4.069.607-6.973-1.617-1.613-3.792-2.653-5.589-4.108-.581-.474-.755-1.452-1.113-2.2a17.056,17.056,0,0,1,2.665-1.146,2.48,2.48,0,0,1,1.51.5c4.363,2.507,8.922,4.75,13.008,7.657,4.017,2.859,3.734,6.86-.139,9.874a9.1,9.1,0,0,1-1.352.884c-5.182,2.74-10.875,3.666-16.928,4.763Zm16.835-11.346c-.436-.339-1.078-.836-1.72-1.336-.82,1.488-1.649,2.969-2.427,4.479-.042.084.358.568.574.584,1.475.11,3.614-1.914,3.572-3.73Z" transform="translate(-80.106 -128.082)" fill="#262c54"/>
    <path id="Path_17546" data-name="Path 17546" d="M267.565,214.006c-4.866-1.423-9.639-2.446-14.108-4.237-4.376-1.752-5.337-6.589-1.7-9.577,3.83-3.146,8.445-5.357,12.8-7.822a2.406,2.406,0,0,1,2.22.774,2.613,2.613,0,0,1-.294,2.365c-.978,1.262-2.407,2.175-3.388,3.433-2.11,2.711-1.781,4.84,1.02,6.867,1.449,1.049,3.108,1.8,4.624,2.762,1.329.839,3.3,1.646,2.385,3.563-.449.939-2.252,1.229-3.566,1.872Zm-11.426-12.42c-.642.681-1.6,1.313-1.939,2.188a2.381,2.381,0,0,0,.794,2.152,7.623,7.623,0,0,0,2.914.678,1.3,1.3,0,0,0,.326-.865,35.725,35.725,0,0,0-1.023-3.553c-.077-.223-.539-.313-1.068-.6Z" transform="translate(-169.003 -130.242)" fill="#262c54"/>
    <path id="Path_17547" data-name="Path 17547" d="M330.839,35.351c-.381.555-.6,1.233-.981,1.346a2.453,2.453,0,0,1-1.965-.106,15.227,15.227,0,0,1-2.336-2.917c-6.851-10.229-15.654-18.155-27.064-23.021a3.651,3.651,0,0,1-1.4-.771c-.413-.5-.994-1.439-.8-1.733.423-.642,1.346-1.465,1.952-1.381a14.786,14.786,0,0,1,4.56,1.4,63.947,63.947,0,0,1,22.014,17.761c1.655,2.12,3.224,4.311,4.727,6.541A17.83,17.83,0,0,1,330.839,35.351Z" transform="translate(-200.656 -4.58)" fill="#262c54"/>
    <path id="Path_17548" data-name="Path 17548" d="M61.153,84.862c-.72-1.133-1.539-1.836-1.488-2.469a9.931,9.931,0,0,1,1.117-3.521c4.25-8.451,11.007-14.444,19.026-19.165a4.734,4.734,0,0,1,2.017-.632,1.673,1.673,0,0,1,1.371.6c.252.578.41,1.568.09,1.949A11.715,11.715,0,0,1,80.443,64,43.2,43.2,0,0,0,63.725,81.741a20.057,20.057,0,0,1-2.572,3.117Z" transform="translate(-40.41 -40.011)" fill="#262c54"/>
    <path id="Path_17549" data-name="Path 17549" d="M75.48,16.574a23.007,23.007,0,0,1-2.736,2.146c-2.82,1.552-5.734,2.936-8.538,4.514a39.24,39.24,0,0,0-11.488,9.623,4.636,4.636,0,0,1-1.526,1.465,2.278,2.278,0,0,1-1.943-.084,2.127,2.127,0,0,1-.587-1.875A7.974,7.974,0,0,1,50.249,29.6,53.444,53.444,0,0,1,70.8,15.283a4.845,4.845,0,0,1,2.575-.478C74.053,14.948,74.589,15.787,75.48,16.574Z" transform="translate(-32.927 -9.998)" fill="#262c54"/>
    <path id="Path_17550" data-name="Path 17550" d="M89.587,152.739c-1.4,0-1.943.052-2.475-.01-2.391-.268-3.772-1.3-3.362-2.578.594-1.862,2.249-1.375,3.614-1.43,7.406-.307,14.027-2.427,19.3-7.967a3.073,3.073,0,0,1,2.736-.723c1.478.726.987,2.127.187,3.191a14.519,14.519,0,0,1-2.533,2.743,33.221,33.221,0,0,1-17.47,6.776Z" transform="translate(-56.676 -94.771)" fill="#262c54"/>
    <path id="Path_17551" data-name="Path 17551" d="M287.374,147.541a31.308,31.308,0,0,1-17.635-9.119,9.768,9.768,0,0,1-1.859-3.775,2,2,0,0,1,.9-1.7,2.611,2.611,0,0,1,1.936.268c.439.207.71.787,1.026,1.223,3.356,4.608,8.216,6.857,13.437,8.5a42.523,42.523,0,0,1,4.182,1.02c.8.349,1.317,1.355,1.959,2.068-.845.507-1.672,1.052-2.549,1.5-.287.145-.707.023-1.4.023Z" transform="translate(-181.422 -89.973)" fill="#262c54"/>
    <path id="Path_17552" data-name="Path 17552" d="M258.47,417.611c-.816-.587-1.768-.942-1.807-1.381a3.523,3.523,0,0,1,.758-2.256,4.49,4.49,0,0,1,1.862-1.01c3.65-1.471,7.29-2.975,10.988-4.321.694-.252,1.63.165,2.456.274a17.371,17.371,0,0,1-.542,2.827,2.187,2.187,0,0,1-1.213,1.01c-4.147,1.643-8.316,3.237-12.5,4.853Z" transform="translate(-173.834 -276.724)" fill="#262c54"/>
    <path id="Path_17553" data-name="Path 17553" d="M161.883,39.434c-.623.8-.926,1.6-1.465,1.817a70.5,70.5,0,0,1-7.557,2.591c-.565.152-1.6-.552-2.036-1.146a1.936,1.936,0,0,1,.474-1.817,86.013,86.013,0,0,1,8.487-3c.455-.132,1.246.9,2.1,1.555Z" transform="translate(-102.098 -25.646)" fill="#262c54"/>
    <path id="Path_17554" data-name="Path 17554" d="M199.719,426.258a46.513,46.513,0,0,1,5.1.771c.51.132,1,.975,1.162,1.581a1.553,1.553,0,0,1-.807,1.265,10.342,10.342,0,0,1-7.822-.281,2.031,2.031,0,0,1-.813-1.762,2.465,2.465,0,0,1,1.394-1.413A4.84,4.84,0,0,1,199.719,426.258Z" transform="translate(-133.109 -288.701)" fill="#262c54"/>
    <path id="Path_17555" data-name="Path 17555" d="M153.624,0c.855.723,1.843,1.226,2.22,2.02.181.374-.671,1.7-1.288,1.91a28.354,28.354,0,0,1-5.641,1.2c-.4.048-1.084-.807-1.326-1.378a1.493,1.493,0,0,1,.5-1.388c1.73-.842,3.53-1.526,5.534-2.362Z" transform="translate(-99.938)" fill="#262c54"/>
  </g>
</svg>
