<svg id="_11" data-name="11" xmlns="http://www.w3.org/2000/svg" width="142.891" height="137.286" viewBox="0 0 142.891 137.286">
  <g id="Group_17152" data-name="Group 17152" transform="translate(15.032 13.101)">
    <path id="Path_17556" data-name="Path 17556" d="M276.017,217.924a2.681,2.681,0,0,0-1.049-.607c-.155-.039-.313-.068-.468-.1l-.8-.174c-.578-.126-1.158-.252-1.736-.374-.991-.216-1.981-.432-2.982-.61a1.492,1.492,0,0,0-.771-.168l-.119.01a2.009,2.009,0,0,0-1.949,1.723,1.976,1.976,0,0,0,1.249,2.107.1.1,0,0,1,.026.026,5.7,5.7,0,0,0,.994.691,10.39,10.39,0,0,0,2.036.765,9.139,9.139,0,0,0,3.879.045h.035a1.206,1.206,0,0,0,.152.013h.019a1.958,1.958,0,0,0,.513-.058c.036-.006.071,0,.107-.013,0-.006-.006-.01-.01-.016a2.429,2.429,0,0,0,.245-.084,1.86,1.86,0,0,0,.939-.8,2.351,2.351,0,0,0,.268-.991,1.951,1.951,0,0,0-.574-1.388Z" transform="translate(-195.278 -159.325)" fill="#75757c"/>
    <path id="Path_17557" data-name="Path 17557" d="M155.685,206.325a2.078,2.078,0,0,0-2.74.165,10.561,10.561,0,0,1-2.391,2.152,10.768,10.768,0,0,1-3.04,1.359,10.331,10.331,0,0,1-3.166.478c-1.249.016-2.927-.532-4.027.219a1.818,1.818,0,0,0-.826,1.584,2.634,2.634,0,0,0-.31.142.945.945,0,0,0-.423,1.042c.445,1.891,2.836,2.252,4.469,2.414a13.561,13.561,0,0,0,12.992-6.864,2.1,2.1,0,0,0-.536-2.691Z" transform="translate(-108.997 -152.553)" fill="#75757c"/>
    <path id="Path_17558" data-name="Path 17558" d="M204.282,290.086c-.11-.991-.4-2.349-1.759-2.343a1.729,1.729,0,0,0-1.029-1.036,1.539,1.539,0,0,0-2.414-1.094,1.776,1.776,0,0,0-.587-.5,1.8,1.8,0,0,0-3.033-1.255c-.632-.765-1.907-.419-2.714.187-.791-1.049-2.1-.2-2.949.481-1.136-1.362-3.011.081-4.224.626-4.4-2.346-9.122,6.3-13.169,8.3-1.933,6.238,8.558.516,10.733-1.239,1.565.878,3.275-1.362,4.886-.865,1.284,2.423,4.2-.432,6.154-.461.261.813,1.313.975,2.146.8.616,1.388,2.72.929,4.047,1.155.487,1.71,3.1,1.533,4.392.858,1.739-.91,2-3.892-.471-3.621Z" transform="translate(-131.64 -205.041)" fill="#ba8b54"/>
    <path id="Path_17559" data-name="Path 17559" d="M337.445,80.279c-.1.074-.2.145-.3.223l.026-.026c.92-.936-.281-2.617-1.436-1.862l-3.337,2.178c1.655-1.623,3.3-3.253,4.96-4.873.933-.91-.3-2.617-1.423-1.846-1.184.813-2.359,1.639-3.533,2.465l2.949-3.046c.9-.936-.326-2.72-1.449-1.878q-3.059,2.294-6.134,4.563c1.968-2.13,3.917-4.276,5.818-6.463.8-.923-.284-2.662-1.407-1.823q-3.9,2.919-7.825,5.8c2.856-2.875,5.747-5.715,8.461-8.722a1.26,1.26,0,0,0-1.781-1.781c-1.859,1.462-3.756,2.882-5.666,4.282,1.536-1.526,3.075-3.043,4.6-4.579.9-.9-.416-2.127-1.365-1.365-1.985,1.588-3.988,3.146-5.989,4.708,2.11-2.123,4.324-4.124,6.463-6.215,1.062-1.036-.384-3.059-1.633-2.117-.255.19-.507.381-.762.574.474-.51.958-1.01,1.426-1.526.752-.826-.223-2.272-1.242-1.61l-2.136,1.381q.716-.939,1.413-1.91c.436-.61-.478-1.2-.984-.758a49.754,49.754,0,0,0-5.931,6.018c-.652.8.194,2.239,1.2,1.552.113-.077.232-.152.349-.226-.116.116-.236.232-.352.345-2.11,2.081-4.34,3.95-6.583,5.879-.962.829.329,2.54,1.371,1.778.9-.655,1.791-1.32,2.691-1.978-1.6,1.772-3.14,3.592-4.56,5.512-.684.926.339,1.807,1.252,1.675-.858.82-1.726,1.623-2.578,2.449-.975.942.342,2.772,1.488,1.926,2.569-1.888,5.124-3.8,7.693-5.705-2.959,3.072-5.918,6.147-8.826,9.271-.823.884.287,2.549,1.359,1.762q4.429-3.253,8.855-6.522-3.112,3.345-6.183,6.718c-.91,1,.332,2.891,1.53,1.981,1.539-1.171,3.088-2.327,4.634-3.492q-2.052,2.072-4.108,4.14c-1.226,1.229.591,2.969,1.878,1.878.226-.19.458-.378.684-.571a1.366,1.366,0,0,0,1.972,1.539c1.352-.858,2.662-1.778,3.976-2.694a1.4,1.4,0,0,0,1.926,1.823c.381-.213.752-.445,1.129-.665-.358.51-.71,1.026-1.052,1.562-.545.849.736,1.865,1.413,1.091,2.7-3.082,5.292-6.4,8.442-9.035.978-.816-.339-2.556-1.375-1.781Z" transform="translate(-226.131 -49.608)" fill="#84b9eb"/>
    <path id="Path_17560" data-name="Path 17560" d="M159.8,102.993c-1.31.933-2.569,1.926-3.814,2.943.674-.755,1.32-1.53,1.949-2.317.532-.539,1.071-1.075,1.62-1.594a1.085,1.085,0,0,0,.371-.874c.019-.026.039-.048.061-.074.755-.9-.449-2.168-1.313-1.313-.077.074-.152.148-.229.223a1.188,1.188,0,0,0-.61.316c-3.091,2.93-6.325,5.725-9.439,8.632-.426.4-.858.791-1.288,1.187,1.123-1.229,2.252-2.456,3.356-3.7a1.419,1.419,0,0,0,.213-1.72l4.508-3.714c.9-.745,1.82-1.475,2.72-2.227a5.494,5.494,0,0,0,1.939-2.23.667.667,0,0,0-.639-.839,5.427,5.427,0,0,0-2.7,1.249c-.971.655-1.92,1.346-2.875,2.023q-2.866,2.038-5.666,4.172c-1.191.9-2.362,1.83-3.53,2.762q2.1-1.776,4.2-3.543a1.481,1.481,0,0,0,.278-.3c1-.852,2.007-1.694,3-2.549q1.864-1.6,3.714-3.22c.584-.513,1.181-1.023,1.733-1.568a6.964,6.964,0,0,0,1.339-2.13.478.478,0,0,0-.532-.694,6.678,6.678,0,0,0-2.085.787c-.665.445-1.288.984-1.914,1.488-1.22.978-2.414,1.991-3.617,2.985-1.062.878-2.12,1.768-3.175,2.656a1.591,1.591,0,0,0-.913.368q-2.367,1.941-4.7,3.93-6.505,5.431-13.011,10.862,3.364-3.446,6.731-6.883,3.195-2.7,6.389-5.392c4.3-3.633,8.661-7.209,12.859-10.962a1.574,1.574,0,0,0-1.9-2.462c-.8.526-1.588,1.062-2.381,1.591a91.925,91.925,0,0,0,7.412-7.422c.62-.716-.2-2.02-1.081-1.4-1.962,1.378-3.821,2.878-5.641,4.431a1.4,1.4,0,0,0-1.068-.61,1.048,1.048,0,0,0-.029-1.317c-.661-.778-1.849-.1-2.53.287-.971.558-1.9,1.213-2.814,1.852-.42.294-.829.6-1.246.9a1.3,1.3,0,0,0-1.442.09c-.236.174-.468.355-.7.532a1.6,1.6,0,0,0-2.375-1.133c-3.049,2.056-6.015,4.218-8.939,6.425q4-4.085,7.974-8.187a1.025,1.025,0,0,0-1.449-1.449Q128.9,90.942,121.36,98.117c2,.707,4.014,1.384,6.1.616,3.575-1.317,5.1,4.389,1.568,5.692-3.672,1.352-7.154.016-10.678-1.11a2.9,2.9,0,0,1-1.481-1.026c-.594.413-1.187.826-1.765,1.255a1.468,1.468,0,0,0,.4-.984c.339-.307.674-.62,1.013-.929-.787-2.03.749-4.856,3.4-4.008.236.074.471.158.7.239q2.7-2.507,5.347-5.057c3.33-3.211,6.964-6.334,9.787-10.007.539-.7-.513-1.7-1.21-1.21a49.514,49.514,0,0,0-4.75,3.895,1.532,1.532,0,0,0-1.271.31q-5.019,3.95-10.045,7.893c.39-.374.774-.755,1.165-1.129,1.752-1.675,3.54-3.32,5.311-4.979,2.481-2.081,4.986-4.137,7.541-6.128a1.69,1.69,0,0,0,0-2.378,1.574,1.574,0,0,0-.361-.274,8.131,8.131,0,0,0,1.391-1.675.626.626,0,0,0-.7-.91c-1.936.5-3.759,2.133-5.366,3.279-1.672,1.188-3.3,2.427-4.934,3.675-1.5,1.152-2.975,2.336-4.44,3.53.765-.745,1.52-1.5,2.288-2.239q5.242-5.073,10.526-10.1a1.327,1.327,0,0,0-1.258-2.191c.284-.29.571-.574.855-.868,1.242-1.288-.571-2.936-1.907-1.907Q121.21,75.1,113.87,80.85l11.165-10.178,10.416-9.487c1.252-1.139-.555-2.827-1.82-1.82q-12.837,10.2-25.676,20.4,7.265-6.7,14.531-13.411l11.275-10.407c1.349-1.246-.6-3.056-1.968-1.968q-5.46,4.322-10.9,8.671l2.307-2.036q6.254-5.513,12.5-11.03c1.117-.984-.361-2.946-1.607-2.085-5.547,3.834-10.981,7.828-16.338,11.933q4.777-4,9.539-8.025c.978-.826-.31-2.514-1.378-1.784-4.082,2.785-8.167,5.57-12.207,8.413,2.972-2.494,5.934-5,8.919-7.48,1.2-.994-.381-3.056-1.672-2.168q-3.955,2.72-7.841,5.528c1.478-1.359,2.959-2.711,4.434-4.072a1.378,1.378,0,0,0-1.662-2.156c-.833.516-1.642,1.062-2.465,1.591l1.639-1.436c1.091-.955-.332-2.8-1.552-2.01-1.7,1.1-3.382,2.22-5.06,3.343a1.075,1.075,0,0,0,.081-.529l3.249-2.759c1.178-1-.387-3.062-1.665-2.159A239.886,239.886,0,0,0,89.259,60.44,226.287,226.287,0,0,0,55.889,87.823q-4.6,4.647-8.948,9.532c-.891,1,.545,2.465,1.481,1.481,6.192-6.515,12.708-12.759,19.523-18.652a1.047,1.047,0,0,0,.09.649l-.507.516q-5.4,4.986-10.807,9.968-4.913,4.531-9.813,9.081c-.942.871.3,2.533,1.388,1.8,2.327-1.565,4.566-3.23,6.747-4.96a1.346,1.346,0,0,0,1.352-.323q2.8-2.546,5.586-5.1a1.448,1.448,0,0,0,2.294.581Q76.691,81.458,89.142,70.566q6.505-5.407,13.324-10.449-5.252,4.9-10.52,9.784C80.2,79,68.758,88.469,57.761,98.462q-5.223,4.748-10.223,9.716c-1.091,1.081.532,2.659,1.668,1.668.155-.136.31-.268.465-.4-.552.536-1.1,1.075-1.659,1.61-1.1,1.068.5,2.543,1.642,1.643L74.16,93.419q-6.288,5.867-12.582,11.733c-3.488,3.253-6.993,6.489-10.436,9.787a1.086,1.086,0,0,0,.019,1.672c-.684.681-1.365,1.365-2.03,2.062-.507.536.155,1.488.813,1.055,2.549-1.672,5.011-3.479,7.432-5.353-.3.536.449,1.258.968.874.942-.7,1.852-1.436,2.749-2.191q-4.293,4.221-8.587,8.438c-1.252,1.229.584,2.953,1.888,1.888q4.927-4.017,9.855-8.038c-.213.219-.429.432-.639.652q-5.1,5.31-9.855,10.933a1.379,1.379,0,0,0,1.949,1.949q1.66-1.341,3.324-2.678c-1.1,1.162-2.207,2.317-3.291,3.495a1.34,1.34,0,0,0,1.894,1.894c5.382-4.7,10.829-9.326,16.286-13.943-.1.11-.194.219-.294.326-2.953,3.24-6.176,6.283-9.022,9.61a1.623,1.623,0,0,0,.936,2.653c-1.459,1.31-2.907,2.633-4.3,4-1.436,1.413.765,3.614,2.21,2.21.81-.681,1.6-1.388,2.391-2.1a1.559,1.559,0,0,0,1.788-.174c.174-.155.352-.31.529-.465a1.434,1.434,0,0,0-.229,1.139c-.274.361-.552.72-.816,1.087-.887,1.233-2.736,3.124-2.565,4.737a.6.6,0,0,0,.739.561c1.5-.248,2.733-2.265,3.679-3.337.658-.745,1.3-1.5,1.949-2.256q2.41-2.057,4.837-4.095-3.529,3.9-6.973,7.88a.655.655,0,0,0-.174.484c-.287.3-.571.6-.855.9a1.489,1.489,0,0,0,2.1,2.1q3.688-3.214,7.37-6.428c-1.72,1.826-3.456,3.64-5.182,5.46a1.542,1.542,0,0,0,1.023,2.6,1.5,1.5,0,0,0,2.4,1.649c2.811-2.372,5.579-4.76,8.248-7.283q-2.575,2.672-5.147,5.337a1.345,1.345,0,0,0,1.9,1.9q4.424-4.182,8.732-8.477a1.552,1.552,0,0,0,.794-.445c1.352-1.359,2.724-2.7,4.1-4.034a1.616,1.616,0,0,0,.048,2.043q-2.386,2.077-4.769,4.15c-1.768,1.546-3.546,3.078-5.273,4.669-1.846,1.7-3.582,3.485-5.376,5.228-.7.681.252,2.007,1.071,1.391,1.707-1.278,3.453-2.478,5.134-3.8s3.311-2.649,4.94-4.008,3.233-2.724,4.85-4.085c-.626.681-1.268,1.342-1.885,2.036a.647.647,0,0,0,.119,1.02c-.148.139-.3.284-.449.419-1.5,1.2-2.995,2.414-4.4,3.717-.968.762.319,2.456,1.329,1.723,2.891-2.1,5.637-4.427,8.374-6.757-4.127,4.182-8.254,8.364-12.427,12.5-1.213,1.2.6,2.982,1.862,1.862q5.5-4.889,10.962-9.819c.732-.616,1.459-1.236,2.172-1.872q4.042-3.6,8.087-7.183-3.248,3.582-6.425,7.235a1.358,1.358,0,0,0,.016,1.917q-1.66,1.321-3.317,2.643a94.312,94.312,0,0,0-7.448,6.134l.016.016c-.962,1.046.248,2.956,1.6,2.081a60.119,60.119,0,0,0,5.573-4.24,1.713,1.713,0,0,0,2.5,1.71c1.258-.81,2.507-1.642,3.753-2.481-.449.481-.9.962-1.336,1.455-.794.891.281,2.569,1.362,1.762s2.139-1.617,3.211-2.42a1.788,1.788,0,0,0,2.375,1.065,42.924,42.924,0,0,0,7.525-4.582,1.327,1.327,0,0,0,.674.894.473.473,0,0,1-.042.032c-1.31.987-.023,3.23,1.3,2.23q3.408-2.517,6.76-5.1c1.084-.813,2.181-1.61,3.272-2.417-.361.426-.72.855-1.081,1.288-.474.568.142,1.578.849,1.1,1.643-1.1,3.288-2.175,4.821-3.427,1.652-1.349,3.246-2.736,4.831-4.166l9.284-8.374a1.423,1.423,0,0,0,.081-1.952q3.151-2.706,6.263-5.45c1.055-.933-.307-2.659-1.494-1.936-2.139,1.3-4.247,2.649-6.341,4.021,1.694-1.442,3.382-2.895,5.082-4.331a1.23,1.23,0,0,0,.487-1.123q1.844-1.694,3.685-3.388c1.31-1.2-.623-3.1-1.939-1.939q-5.4,4.763-10.807,9.526-4.2,3.374-8.4,6.747a1.452,1.452,0,0,0-.616-.952l3.33-2.749c.5-.394,1.007-.781,1.5-1.175q5.324-4.216,10.478-8.651a1.291,1.291,0,0,0-.11-2.091c.132-.119.265-.236.4-.355a148.983,148.983,0,0,0,10.965-10.294c.784-.855-.261-2.436-1.3-1.691ZM86.826,69.085q3.906-3.582,7.816-7.157c.8-.587,1.6-1.181,2.41-1.762q-5.111,4.463-10.226,8.922ZM110.84,90.134q-4.836,4.8-9.545,9.713c.607-.745,1.2-1.5,1.762-2.278.348-.474.691-.962,1.02-1.455,2.265-1.981,4.527-3.969,6.764-5.983Zm-5.1-5.37-1.63,1.484a1.236,1.236,0,0,0-.336.174c-.671.5-1.333,1.01-1.994,1.517.026-.026.052-.048.077-.077a.152.152,0,0,0,.019-.029Zm-2.6-4.469q1.128-.9,2.259-1.8c-.649.6-1.294,1.2-1.943,1.8A1.476,1.476,0,0,0,103.141,80.295Zm3.785-9.051q-4.855,4.245-9.707,8.493a1.466,1.466,0,0,0-.261-.248Q101.915,75.33,106.926,71.243Zm-9.035,37.368c.474-.381.936-.781,1.391-1.188q-.973,1.041-1.946,2.091c-.165.168-.329.332-.494.5-.536.374-1.052.778-1.572,1.181q1.312-1.292,2.62-2.582ZM68.719,94.551q2.836-2.6,5.7-5.176a1.2,1.2,0,0,0,.161.507Q71.649,92.215,68.719,94.551Zm11.436,11.433a3.24,3.24,0,0,1-3.5-4.272c-.416.339-.829.681-1.246,1.02q.75-.736,1.5-1.475a2.191,2.191,0,0,1,.549-.542l1.162-1.142a1.531,1.531,0,0,0,.7-.313q5.649-4.511,11.31-9-6.167,5.058-12.34,10.113a2.656,2.656,0,0,1,.3-.077c1.972-.313,4-.323,5.954-.7,2.114-.4,3.217-1.688,4.279-3.5,1.92-3.279,7.019-.307,5.1,2.978A12.284,12.284,0,0,1,87.5,104.9c-2.356.829-4.918.691-7.354,1.081Zm7.438.032c1.888-1.613,3.779-3.22,5.654-4.847q-2.2,2.028-4.369,4.092-1.142,1-2.288,2C86.926,106.849,87.261,106.436,87.593,106.017ZM121.2,128.689c0,2.11-2.556,3.846-4.44,2.549-.429-.294-.878-.574-1.342-.836-5.631-2.294-12.314-1.223-18.158-.42a3.071,3.071,0,0,1-1.675-.226,13.221,13.221,0,0,0-3.243,2.575c-2.552,2.827-6.712-1.362-4.172-4.172,7.228-8.006,21.052-8.145,30.062-2.953.507.216,1.01.452,1.507.713a2.943,2.943,0,0,1,1.462,2.549v.223Zm1.572,1.623a1.657,1.657,0,0,0-.4-.174q2.744-2.319,5.492-4.634C126.181,127.124,124.471,128.711,122.773,130.312Zm-11.765-9.632q2.759-2.527,5.547-5.008,10.567-9.39,21.8-18.016c.4-.307.807-.607,1.207-.913q-2.565,2.309-5.134,4.618c-1.6,1.442-3.214,2.875-4.818,4.318a1.612,1.612,0,0,0-1.323.374q-8.674,7.261-17.277,14.628Z" transform="translate(-46.575 -42.57)" fill="#eac485"/>
    <path id="Path_17561" data-name="Path 17561" d="M100.821,40.885c-4.124,3.595-8.3,7.128-12.475,10.658q3.524-3.4,7.041-6.806c.965-.939-.445-2.259-1.449-1.449-3.766,3.053-7.69,5.918-11.507,8.909L72.786,59.76C78.036,55,83.328,50.292,88.711,45.681c1.01-.865-.339-2.653-1.439-1.862Q80.234,48.877,73.451,54.29c1.191-1.2,2.381-2.4,3.563-3.614,1.049-1.078-.329-3.037-1.655-2.146A153.574,153.574,0,0,0,54.105,65.684c-1.1,1.068.542,2.672,1.668,1.668,2.714-2.417,5.5-4.747,8.319-7.022-.584.607-1.155,1.226-1.743,1.83-4.3,4.421-8.677,8.755-12.933,13.211a1.308,1.308,0,0,0,.219,2.017c-.665.645-1.339,1.281-2,1.93-1.2,1.178.558,2.83,1.81,1.81C56.961,75.013,64.6,69.056,72.218,63.064c.581-.458,1.162-.913,1.743-1.371Q62.736,72.124,51.588,82.629a1.342,1.342,0,0,0,.574,2.281q-2.135,1.96-4.269,3.917c-1.355,1.246.639,3.191,2.007,2.007,6.747-5.85,13.34-11.878,20.1-17.719L90.114,55.742c1.759-1.52,3.492-3.069,5.228-4.614q3.151-2.711,6.273-5.447c.875-.726.019-1.859-.9-1.788.536-.5,1.062-1.016,1.6-1.517,1.007-.936-.478-2.385-1.5-1.5Z" transform="translate(-47.021 -40.602)" fill="#eac485"/>
  </g>
  <g id="Group_17153" data-name="Group 17153">
    <path id="Path_17562" data-name="Path 17562" d="M90.855,158.013c-14.821-.1-28.719-7.206-39.888-19.726C40.812,126.9,35.123,113.475,34.7,98.112c-.449-16.37,5.434-30.259,17.3-41.5A56.845,56.845,0,0,1,71.777,44.755a14.359,14.359,0,0,1,3.643-.739,1.5,1.5,0,0,1,1.2.852,2.407,2.407,0,0,1-.29,1.943,11.4,11.4,0,0,1-2.811,1.53c-2.288,1.042-4.653,1.933-6.889,3.078-20.336,10.4-30.585,30.7-27.264,53.318A58.233,58.233,0,0,0,58.424,140.11c12.882,11.749,28.058,16.477,45.4,12.637,4.553-1.01,9.006-2.469,13.508-3.724a22.213,22.213,0,0,1,3.624-.949,2.067,2.067,0,0,1,1.623,1.049,2.018,2.018,0,0,1-.352,1.875,10.274,10.274,0,0,1-2.807,1.513c-7.4,3.02-18,5.2-28.568,5.515Z" transform="translate(-23.483 -29.813)" fill="#262c54"/>
    <path id="Path_17563" data-name="Path 17563" d="M303.776,65.792c.665-2.394,1.226-4.827,2.081-7.154.174-.471,1.491-.784,2.22-.691.42.052.968,1.049,1.01,1.649a21.138,21.138,0,0,1-.455,2.64,32.365,32.365,0,0,0-.19,5.905c.723,6.225,5.266,9.513,11.394,8.425a22.369,22.369,0,0,0,2.623-.642c7.086-2.168,10.068-7.328,8.345-14.557a16.722,16.722,0,0,0-1.484-4.04c-2.911-5.379-5.908-10.707-8.9-16.041-.7-1.239-1.623-1.446-2.346-.065-1.417,2.711-2.7,5.486-4.088,8.212a19,19,0,0,1-2.168,3.7,2.4,2.4,0,0,1-2.243.578c-.552-.336-.678-1.462-.865-2.272-.068-.294.187-.681.342-1,2.372-4.85,4.66-9.742,7.167-14.518,1.465-2.791,3.4-2.843,5.434-.407a11.8,11.8,0,0,1,1.184,1.8c3.175,5.644,6.4,11.262,9.487,16.954,2.956,5.45,4.05,11.191,1.675,17.138-.839,2.1-.126,3.869.39,5.747a58.807,58.807,0,0,1,.277,31.453c-3.059,11.423-10.081,20.136-18.723,27.774-.268.239-.549.591-.858.632-.974.132-1.965.139-2.949.194.084-.962-.126-2.1.326-2.843.636-1.036,1.823-1.713,2.665-2.646,3.011-3.333,6.305-6.473,8.9-10.11,9.084-12.743,10.242-26.932,6.87-41.776-.584-2.569-.929-2.6-3.314-1.694a38.718,38.718,0,0,1-6.089,2.123c-10.262,2.026-17.345-3.9-17.722-14.473Z" transform="translate(-205.743 -22.863)" fill="#262c54"/>
    <path id="Path_17564" data-name="Path 17564" d="M180.856,285.588c4.553.752,9.148,1.53,13.753,2.236a1.8,1.8,0,0,0,1.194-.587c.1-.1-.1-.726-.329-.942-4.731-4.443-10.174-6.715-16.722-5.108-5.592,1.375-10.065,4.631-13.927,8.79a15.515,15.515,0,0,1-2.107,2.42,2.517,2.517,0,0,1-2.307.229,2.62,2.62,0,0,1-.5-2.314,7.8,7.8,0,0,1,1.684-2.717,32.364,32.364,0,0,1,15.06-10.032,21.945,21.945,0,0,1,23.166,7.593,11,11,0,0,1,2.085,3.73,5.614,5.614,0,0,1-.378,3.93c-.345.558-2.262.39-3.395.174-4.224-.813-8.383-2.194-12.637-2.578-4.059-.368-8.209.239-12.317.432a9.645,9.645,0,0,0-1.049.245c-1.284.206-2.7.378-3.088-1.242-.381-1.578.907-2.323,2.139-2.582,3.149-.655,6.341-1.113,9.674-1.675Z" transform="translate(-108.254 -187.423)" fill="#262c54"/>
    <path id="Path_17565" data-name="Path 17565" d="M205.775,349.936c-2.485,0-3.75.065-5-.016-1.442-.094-3.127-.2-3.046-2.191.065-1.63,1.526-1.762,2.811-1.83,1.078-.055,2.162-.032,3.24-.061A83.222,83.222,0,0,0,246.2,333.124c6.96-4.327,13.014-9.645,17.077-16.932a4.415,4.415,0,0,1,1.22-1.733,3.356,3.356,0,0,1,2.346-.384,2,2,0,0,1,.762,1.784,14.062,14.062,0,0,1-1.517,3.43A43.7,43.7,0,0,1,255.444,331.4c-12.065,9.778-26.006,15.212-41.23,17.587-3.2.5-6.434.736-8.442.958Z" transform="translate(-133.915 -212.675)" fill="#262c54"/>
    <path id="Path_17566" data-name="Path 17566" d="M-.007,78.542c.416-2.659.626-5.373,1.284-7.97C5.737,52.956,15.3,38.832,30.433,28.628a29.593,29.593,0,0,1,5.754-2.9,2.423,2.423,0,0,1,2.217.794,2.5,2.5,0,0,1-.51,2.265,12.253,12.253,0,0,1-2.73,1.684C18.851,40.3,9.048,54.779,4.859,73.176c-.591,2.594-.439,5.36-.632,8.045-.094,1.32-.378,2.685-1.978,2.7S.3,82.588.209,81.262c-.058-.894-.01-1.8-.01-2.694l-.21-.029Z" transform="translate(0.01 -17.387)" fill="#262c54"/>
    <path id="Path_17567" data-name="Path 17567" d="M134.2,212.636c-5.034.019-9.9-3.037-11.656-7.319-1.32-3.22-.2-4.869,3.22-4.685,1.255.068,2.5.345,3.753.407,4.631.226,8.977-.442,12.375-4.053.865-.92,1.936-1.936,3.159-.591a2.224,2.224,0,0,1-.455,3.35,25.49,25.49,0,0,1-6.2,4.085c-2.275.9-4.9.891-7.361,1.371a17.544,17.544,0,0,0-2.585.926,8.15,8.15,0,0,0,2.007,1.636,9.739,9.739,0,0,0,10.923-2.217c1.078-1.042,1.975-2.991,3.927-1.462,1.184.926.636,2.54-1.365,4.589a14.048,14.048,0,0,1-9.742,3.963Z" transform="translate(-82.635 -132.581)" fill="#262c54"/>
    <path id="Path_17568" data-name="Path 17568" d="M267.26,214.726c-4.027.155-6.615-.855-8.6-3.211-1.065-1.265-1.888-2.588-1.146-4.4a5.559,5.559,0,0,0,.274-2.446c-.242-3.191.39-3.892,2.933-2.536a19.445,19.445,0,0,0,13.566,1.733c1.365-.278,2.972-.9,3.937.629,1.023,1.623.123,3.166-.884,4.437-2.807,3.553-6.47,5.6-10.081,5.8Zm-1.952-3.775a8.273,8.273,0,0,0,1.691-.184c1.1-.468,2.175-1,3.259-1.5a26.708,26.708,0,0,0-3.1-1.065,34.965,34.965,0,0,0-4.182-.591,4.813,4.813,0,0,0-1.384.284c.184.468.236,1.142.581,1.362,1.149.736,2.4,1.313,3.14,1.7Z" transform="translate(-174.219 -136.465)" fill="#262c54"/>
    <path id="Path_17569" data-name="Path 17569" d="M428.034,177.456c-.565,4.624-.913,7.825-1.375,11.01a5.268,5.268,0,0,1-.971,2.436,2.416,2.416,0,0,1-1.83.587,1.5,1.5,0,0,1-1.029-1.039,25.962,25.962,0,0,1,.177-4.779,42.327,42.327,0,0,0-1.233-18.584,15.9,15.9,0,0,1-.765-3.659,2.058,2.058,0,0,1,1.139-1.559,2.275,2.275,0,0,1,1.872.471,3.562,3.562,0,0,1,1.013,1.836c1.136,4.853,2.207,9.723,3.007,13.275Z" transform="translate(-285.15 -109.596)" fill="#262c54"/>
    <path id="Path_17570" data-name="Path 17570" d="M201.1,32.39c4.143.613,8.051,1.107,11.923,1.81a8.962,8.962,0,0,1,3.333,1.549,1.521,1.521,0,0,1-.681,2.54,10.576,10.576,0,0,1-3.172-.106c-6.877-1.217-13.734-2.675-20.755-1.1-.174.039-.4.113-.526.039-.845-.487-1.668-1.013-2.5-1.526a10.388,10.388,0,0,1,1.965-2.259,5.6,5.6,0,0,1,2.594-.552c2.669-.177,5.344-.274,7.816-.394Z" transform="translate(-127.819 -21.939)" fill="#262c54"/>
    <path id="Path_17571" data-name="Path 17571" d="M115.581,394.819c-7.812-1.223-14.679-3.55-20.1-9.035a4.908,4.908,0,0,1-1.3-2.272,2.465,2.465,0,0,1,.758-1.8,1.649,1.649,0,0,1,1.481-.123,5.793,5.793,0,0,1,1.7,1.258c4.23,4.2,9.471,6.341,15.2,7.509a7.427,7.427,0,0,1,2.588.6,9.579,9.579,0,0,1,1.846,2.262c-.781.578-1.565,1.155-2.175,1.607Z" transform="translate(-63.773 -258.377)" fill="#262c54"/>
    <path id="Path_17572" data-name="Path 17572" d="M174.256,3.133c-4.6.549-9.2,1.162-13.818,1.584-.858.077-1.791-.62-2.688-.958.468-.845.736-2.1,1.449-2.456A11.328,11.328,0,0,1,163.81.067C169.9-.055,175.985.035,182.071.055c.355,0,.829-.032,1.039.168.574.545,1.488,1.258,1.43,1.817a2.606,2.606,0,0,1-1.672,1.626,11.881,11.881,0,0,1-3.188.129c-1.791.01-3.582,0-5.373,0-.019-.223-.039-.442-.055-.665Z" transform="translate(-106.842 -0.004)" fill="#262c54"/>
    <path id="Path_17573" data-name="Path 17573" d="M45.672,331.273c1.01.545,1.791.716,2.152,1.2,1.917,2.572,3.8,5.176,5.518,7.88a2.44,2.44,0,0,1-.132,2.323c-.426.439-2,.561-2.285.2a99.777,99.777,0,0,1-6.131-8.651c-.323-.52.487-1.746.874-2.959Z" transform="translate(-30.286 -224.374)" fill="#262c54"/>
    <path id="Path_17574" data-name="Path 17574" d="M292.227,49.11c1.933,1.026,3.821,1.93,5.573,3.043a2,2,0,0,1,.4,1.862c-.2.494-1.187,1.152-1.565,1.013a41.072,41.072,0,0,1-5.705-2.591c-.39-.216-.59-1.317-.413-1.859.171-.52.942-.845,1.71-1.468Z" transform="translate(-196.72 -33.264)" fill="#262c54"/>
    <path id="Path_17575" data-name="Path 17575" d="M279.856,9.874a13.306,13.306,0,0,1,1.5.006c1.739.394,3.456.923,3.995,2.862a1.988,1.988,0,0,1-.787,1.694c-1.249.733-3.93-.342-4.992-1.914a2.052,2.052,0,0,1-.245-1.459,3.793,3.793,0,0,1,.529-1.191Z" transform="translate(-189.161 -6.68)" fill="#262c54"/>
  </g>
</svg>
