<svg id="_12" data-name="12" xmlns="http://www.w3.org/2000/svg" width="139.305" height="138.815" viewBox="0 0 139.305 138.815">
  <g id="Group_17154" data-name="Group 17154" transform="translate(13.818 13.051)">
    <path id="Path_17576" data-name="Path 17576" d="M269.819,218.908c-.584-3.624-6.405-2.233-6.292,1.039C263.53,224.839,271,223.436,269.819,218.908Z" transform="translate(-192.303 -159.867)" fill="#75757c"/>
    <path id="Path_17577" data-name="Path 17577" d="M162.724,217.89a.1.1,0,0,0,0,.026c-.816-5.028-9.013-3.082-7.732,1.784C156.076,224.753,164.011,222.891,162.724,217.89Z" transform="translate(-118.703 -158.651)" fill="#75757c"/>
    <path id="Path_17578" data-name="Path 17578" d="M214.9,316.716a21.735,21.735,0,0,0-8.735-2.846,18.513,18.513,0,0,0-4.331.058,14.131,14.131,0,0,0-4.7,1.217,1.717,1.717,0,0,0-.707,2.156,1.751,1.751,0,0,0,2.036,1c1.223-.236,2.381-.668,3.634-.791a19.14,19.14,0,0,1,3.94.013A16.144,16.144,0,0,1,212.982,320c2.065,1.317,4.034-2.039,1.92-3.285Z" transform="translate(-146.763 -225.57)" fill="#ba8b54"/>
    <path id="Path_17579" data-name="Path 17579" d="M335.362,244.495q-3.959,2.483-8.093,4.676c.3-.3.6-.6.907-.9q2.285-2.275,4.566-4.553a1.3,1.3,0,0,0-1.572-2.036l-.481.287,2.594-2.323a1.409,1.409,0,0,0-1.7-2.2q-1.873,1.21-3.746,2.423c1.707-1.391,3.446-2.746,5.2-4.088,1.329-1.02.081-3.317-1.349-2.307-2.917,2.056-5.815,4.137-8.716,6.212,2.614-2.3,5.27-4.55,7.948-6.783,1.046-.871-.307-2.572-1.442-1.872-.878.539-1.759,1.075-2.633,1.613q2.464-2.023,4.934-4.05c1.11-.916-.339-2.778-1.536-1.991q-5.566,3.645-11.136,7.293c2.895-2.646,5.905-5.173,8.893-7.722.82-.7.132-1.975-.752-2.088.274-.236.549-.468.823-.7,1.013-.878-.31-2.591-1.436-1.859-1.849,1.2-3.688,2.443-5.531,3.675l4.127-3.769a1.172,1.172,0,0,0-.478-1.939c.261-.219.526-.436.787-.652,1.126-.939-.316-2.327-1.43-1.855-.365.155-.713.336-1.075.5A1.11,1.11,0,0,0,321.19,217a38.052,38.052,0,0,1-4.324,3.927q-1.205.8-2.365,1.672c-.936.7-.226,2.2.749,1.885-1.6,1.355-3.2,2.714-4.808,4.056-.949.791.319,2.465,1.333,1.73.039-.026.077-.052.113-.081-.823.755-1.639,1.52-2.414,2.317-.894.923.313,2.669,1.43,1.852q1.259-.92,2.552-1.794c-1.2,1.02-2.388,2.059-3.511,3.156-1.007.981.281,2.3,1.375,1.775l.016.026c.077-.058.152-.119.229-.177h0c.474-.374.965-.732,1.455-1.091-1.3,1.336-2.565,2.707-3.772,4.13-.874,1.029.252,2.833,1.536,1.991l1.968-1.288-.791.655c-1.065.884.313,2.617,1.468,1.9q1.96-1.21,3.927-2.414c-1.746,1.578-3.456,3.2-5.092,4.886a1.293,1.293,0,0,0,1.249,2.143,8.111,8.111,0,0,0,1.962-.655c-.187.226-.387.442-.571.674-.968,1.217.268,3.362,1.81,2.346l1.568-1.036a1.357,1.357,0,0,0,1.846,1.817l3.391-2.052c-1.129,1.268-2.094,2.878-.194,3.737a3.038,3.038,0,0,0,2.672-.41c1.171-.584,2.323-1.21,3.469-1.846,1.016-.565,2.014-1.162,3-1.765a1.119,1.119,0,0,0,1.175-.178q1.559-1.292,3.12-2.582c1.013-.836-.3-2.5-1.4-1.81Z" transform="translate(-223.064 -159.797)" fill="#84b9eb"/>
    <path id="Path_17580" data-name="Path 17580" d="M155.2,96.343c-.607.442-1.223.868-1.836,1.3,1.091-1.162,2.185-2.323,3.3-3.469a26.918,26.918,0,0,1-.474-3.166,1.737,1.737,0,0,0-.261.1c-2.288,1.133-4.543,2.34-6.783,3.582q3.35-3,6.818-5.863a17.8,17.8,0,0,0-.691-3.469q-3.872,2.5-7.641,5.137c.978-.987,1.968-1.959,2.943-2.949a1.413,1.413,0,0,0-.026-2c.529-.513,1.062-1.023,1.581-1.549a10.53,10.53,0,0,0,2.01-2.391,1.054,1.054,0,0,0-1.43-1.43,11.274,11.274,0,0,0-2.3,1.865c-.61.558-1.22,1.12-1.833,1.675a1.451,1.451,0,0,0-.923-1.384q1.752-1.413,3.508-2.824c1.281-1.013-.526-2.791-1.794-1.794q-5.3,4.168-10.594,8.329c2.488-2.133,4.911-4.327,7.357-6.515.513-.458-.152-1.313-.733-.949q-1.675,1.05-3.317,2.133,2.928-2.711,5.828-5.45c1.336-1.265-.61-3.1-1.981-1.981-7.483,6.079-15.144,11.949-22.734,17.9l-1.859,1.462,2.5-2.246a1.113,1.113,0,0,0,.371-.72l13.847-12.5q5.082-4.584,10.162-9.171c1.029-.929-.342-2.765-1.5-1.946q-2.043,1.442-4.063,2.914a.89.89,0,0,0-1.365-.39c-6.964,4.556-13.7,9.481-20.252,14.634q5.61-4.792,11.217-9.581,5.189-4.434,10.378-8.864c1.365-1.168-.59-3.04-1.952-1.952q-.736.591-1.471,1.178c.126-.119.255-.239.381-.355,1.01-.933-.339-2.762-1.5-1.939q-8.049,5.731-16.08,11.5c.281-.271.565-.539.845-.807a1.367,1.367,0,0,0,.426-1.446q5.963-5,12.036-9.878c1.242-.994-.426-3.188-1.717-2.227l-9.648,7.183q5.537-4.7,11.075-9.39c1.1-.933-.339-2.8-1.546-2-1.83,1.2-3.65,2.417-5.476,3.624a1.679,1.679,0,0,0-.636-.513q2.856-2.343,5.725-4.669c1.484-1.2-.613-3.22-2.081-2.081q-7.275,5.654-14.463,11.417,6.331-5.62,12.669-11.239c1.249-1.107-.542-2.769-1.794-1.794q-11.912,9.289-23.84,18.561,8.635-7.7,17.261-15.421c1.181-1.058-.513-2.62-1.7-1.7C108,59.44,96.785,67.959,85.578,76.491q9.555-8.224,19.339-16.18,6.128-5.01,12.275-9.991c1.262-1.026-.529-2.782-1.781-1.781q-8.79,7.023-17.58,14.05,2.948-2.57,5.892-5.144,6.554-5.721,13.1-11.449c1.184-1.036-.516-2.649-1.7-1.7q-6.559,5.242-13.117,10.481l9.377-8.451c1.039-.936-.481-2.414-1.523-1.523-.9.768-1.8,1.523-2.7,2.288.032-.813-.929-1.7-1.71-1.1L74.252,70.024Q85.046,60.135,95.846,50.25q4.787-4.39,9.577-8.78a23.51,23.51,0,0,1-3.314-.584Q87.685,52.623,73.242,64.345,79.389,59,85.639,53.78c.236-.2.471-.39.707-.584.336-.268.671-.529,1.007-.8q5.136-4.124,10.168-8.377c1.042-.881-.449-2.32-1.484-1.484Q90.218,47.218,84.5,52.031q-11.234,9.022-22.93,17.445,4.879-4.5,9.874-8.864C78.437,54.525,85.565,48.6,92.693,42.686c1.113-.926-.378-2.891-1.562-2.026q-9.066,6.607-17.916,13.5,5.329-4.826,10.768-9.526c1.068-.916-.336-2.753-1.513-1.959C71.263,50.24,59.96,57.913,50.685,67.849c-1,1.075.6,2.691,1.617,1.617A115.1,115.1,0,0,1,65.8,57.442Q55.492,66.929,45.651,76.9c-1.252,1.275.62,3.091,1.943,1.943q2.415-2.1,4.85-4.182c-1.029,1.039-2.065,2.068-3.075,3.127-.868.91.29,2.6,1.4,1.814q5.712-4.056,11.388-8.151-3.625,3.243-7.228,6.509c-3.795,3.443-7.59,6.9-11.288,10.445-1.168,1.12.539,2.724,1.743,1.743L75.717,65.442q-5.891,5.392-11.778,10.791-5.9,5.416-11.794,10.829a1.046,1.046,0,0,0,.19,1.746c-2.056,1.936-4.053,3.934-5.97,6a.89.89,0,0,0,.181,1.362c-1.155,1.094-2.307,2.191-3.443,3.308-.833.82.3,2.407,1.288,1.668,4.369-3.259,8.79-6.444,13.234-9.6q-6.288,5.842-12.514,11.746c-1.113,1.062.381,3.117,1.681,2.178q5.044-3.645,10.091-7.286a1.3,1.3,0,0,0,.423-.223c.361-.29.726-.578,1.087-.865l3.237-2.336a.5.5,0,0,1-.042.039,1.176,1.176,0,0,0-.284,1.239q-7.023,6.447-14.056,12.882c-.962.878.323,2.607,1.413,1.83L74.206,92.512q-12.14,10.813-24.279,21.627c-1.133,1.01.5,2.556,1.639,1.639q5.634-4.516,11.3-9c-.749.733-1.507,1.455-2.246,2.2Q55.3,114.3,50.295,119.928a1.183,1.183,0,0,0,1.672,1.672q13.413-10.852,26.9-21.614c.016-.074.026-.152.048-.226a5.343,5.343,0,0,1,5.16-3.724,2.993,2.993,0,0,1,2.949,2.949,2.859,2.859,0,0,1-.019.29,4.8,4.8,0,0,1,.361,3.043q2.478-2.241,4.953-4.485-2.59,2.57-5.173,5.153a4.02,4.02,0,0,1-2.214,2.2q-2.052,2.047-4.111,4.095-6.989,6.065-14.011,12.085c-1.152.984-2.33,1.955-3.54,2.878,4.179-4.121,8.661-7.961,12.995-11.885l7.664-6.938a3.758,3.758,0,0,1-1.349-.077,5.252,5.252,0,0,1-2.849-1.92l-.939.774c.294-.284.584-.571.878-.855a4.366,4.366,0,0,1-.881-2.785q-6.68,6.534-13.359,13.072-5.048,4.937-10.1,9.878c-1.191,1.162.555,2.811,1.794,1.794q4.506-3.7,9.019-7.4c-.171.158-.345.313-.516.468A105.73,105.73,0,0,0,55.2,128.98c-.755.913-.074,2.807,1.313,2.256,5.092-2.02,9.448-5.46,13.588-9.1-.62.6-1.239,1.2-1.855,1.794-3.659,3.533-7.332,7.054-10.975,10.6-1.052,1.023.5,2.5,1.584,1.584q7.057-5.9,14.144-11.762a131.147,131.147,0,0,0-8.848,9.845c-.494.616-.445,1.8.52,1.968a7.242,7.242,0,0,0,2.517,0c-.571.568-1.149,1.129-1.717,1.7-1.233,1.239.636,3.091,1.914,1.914l.642-.594a1.393,1.393,0,0,0,1.591-.142q2.338-2.106,4.682-4.2c-.574.578-1.133,1.171-1.665,1.8a.518.518,0,0,0,.626.81,39.233,39.233,0,0,0,4.247-2.617q-3.654,3.074-7.267,6.2c-1.423,1.233.632,3.243,2.056,2.056q7.357-6.065,14.715-12.133a1.918,1.918,0,0,0,.545.71c-4.637,3.972-9.255,7.974-13.8,12.056-1.149,1.033.5,2.565,1.659,1.659,1.294-1.01,2.565-2.046,3.85-3.069a1.669,1.669,0,0,0,2.217.678c1.075-.565,2.117-1.184,3.149-1.823-1.142.939-2.281,1.885-3.391,2.859-1.049.92-3.308,2.327-3.166,3.917a.5.5,0,0,0,.352.461c1.526.5,3.362-1.365,4.5-2.191.494-.358.981-.729,1.471-1.1a1.573,1.573,0,0,0,1.772-.307Q91.16,140.3,96.3,135.953c-.2.187-.394.368-.587.555q-5.116,4.879-10.158,9.836c-1.546,1.517.742,3.717,2.349,2.349,1.01-.862,2-1.746,3-2.623,2.265-1.526,4.556-3.03,6.751-4.66.355-.265.707-.536,1.058-.807q-3.95,4.056-7.9,8.112c-1.307,1.339.6,3.069,1.991,1.991q2.953-2.285,5.912-4.556c-.561,1.307.755,3.12,2.185,2.107q3.369-2.386,6.738-4.766-3.543,3.1-7.08,6.2c-1.355,1.184.468,3.614,1.949,2.527,1.113-.816,2.217-1.649,3.324-2.475a1.677,1.677,0,0,0,2.343,1.2q3.78-1.791,7.432-3.808c-.8.7-1.6,1.41-2.4,2.114-1.31,1.149.368,3.175,1.82,2.362q4.061-2.28,8.029-4.766a1.582,1.582,0,0,0,2.582,1.01q7.783-6.718,15.492-13.518a11.057,11.057,0,0,1-2.875-1.613q-4.787,3.688-9.778,7.109,4.134-3.625,8.261-7.254a1.234,1.234,0,0,0,.426-.807c-.184-.177-.371-.355-.545-.542a7.752,7.752,0,0,1-1.965-.849c-4.321,3.324-8.609,6.689-13.124,9.755q-1.4.949-2.827,1.872c.449-.39.9-.784,1.349-1.171,3.846-3.288,7.716-6.551,11.491-9.92,1.113-.994-.006-2.869-1.249-2.743.4-.355.794-.72,1.194-1.078a13.183,13.183,0,0,1-1.362-3.253,1.361,1.361,0,0,1-.129-.11c-4.727,3.466-9.581,6.78-14.363,10.168-.478.339-.955.674-1.43,1.013,3.763-3.346,7.657-6.551,11.623-9.665q1.675-1.292,3.353-2.582a3.2,3.2,0,0,1-.284-.945,21.018,21.018,0,0,1-.152-2.662c-.09.068-.181.139-.274.207l.271-.242c.019-7.4,3.566-16.283,9.435-20.381.048-.161.106-.316.152-.478.978-3.492,6.192-2.22,5.776,1.084a11.955,11.955,0,0,1,1.462.781c.92-.594,1.846-1.178,2.785-1.739-.123.123-.252.242-.374.368l-1.784,1.794a15.207,15.207,0,0,1,4.047,4.421c2.33-2,4.576-4.088,6.7-6.315,1.075-1.126-.374-3.253-1.739-2.256ZM115.52,97.608a4.674,4.674,0,0,1,4.7-.055,2.921,2.921,0,0,1,1.21,3.672,2.767,2.767,0,0,1-.833,1.852,7.808,7.808,0,0,1-3.524,1.649,2.985,2.985,0,0,1-3.737-2.846,5.11,5.11,0,0,1,2.185-4.269Zm-3.369-14.047Q110.4,85.1,108.66,86.633a1.442,1.442,0,0,0-.381-.258C109.57,85.439,110.861,84.5,112.152,83.561Zm-42.1-.4Q73.7,80.232,77.366,77.3q-4.313,3.771-8.622,7.545-2.265,1.985-4.534,3.966,2.919-2.827,5.841-5.654ZM63.49,97.288l5.2-4.724q12.106-9.284,24.2-18.581-6.539,5.794-13.056,11.61Q71.657,91.441,63.49,97.285Zm1.81,10.494c5.318-5.15,10.82-10.11,16.412-14.966a1.453,1.453,0,0,0,1.572.345Q74.29,100.47,65.3,107.782ZM91.27,81.2q-3.78,3.011-7.561,6.025,3.848-3.422,7.7-6.838c2.017-1.568,4.03-3.146,6.05-4.715-2.068,1.833-4.124,3.685-6.186,5.524ZM86.8,109.341a1.491,1.491,0,0,0,.319-.19q3.316-2.657,6.641-5.308a.36.36,0,0,0,.016.042Q88.642,108.2,83.5,112.516q1.651-1.588,3.3-3.172ZM76.7,126.524c-.242.265-.474.536-.713.8a.32.32,0,0,0-.035.032c-1.63,1.494-3.23,3.046-4.96,4.427a10.751,10.751,0,0,1-3.369,1.959,194.431,194.431,0,0,1,17.725-17.664q5.615-5.039,11.281-10.029a1.8,1.8,0,0,0,.658.561A256.308,256.308,0,0,0,76.7,126.527Zm32.579,9.526c-4.676-1.7-10.294-3-15.092-1.11-3.54,1.4-5.063-4.314-1.568-5.692,5.689-2.243,12.669-.91,18.232,1.11,3.55,1.288,2.007,6.989-1.568,5.692Zm.455-18.6c-.574.471-1.146.949-1.717,1.42,1.02-.91,2.036-1.823,3.046-2.749a1.8,1.8,0,0,0,.284-.336c4.514-3.63,9.039-7.286,13.637-10.852q-7.614,6.268-15.247,12.514Zm15.621.52q-3.775,3.427-7.519,6.889a1.317,1.317,0,0,0-.284-.936q4.361-3.514,8.835-6.88c-.342.31-.687.616-1.029.926Zm6.66-16.409a1.924,1.924,0,0,0-1.7-.674c1.9-1.417,3.824-2.814,5.77-4.172.745-.4,1.478-.836,2.2-1.3-2.1,2.039-4.179,4.1-6.27,6.147Z" transform="translate(-42.813 -40.444)" fill="#eac485"/>
  </g>
  <g id="Group_17155" data-name="Group 17155">
    <path id="Path_17581" data-name="Path 17581" d="M169.37,134.235c-.726,3.663-1.523,7.315-2.139,11a15.653,15.653,0,0,0,.148,3.63c.194,2.678.758,5.382.542,8.022a14.242,14.242,0,0,1-9.452,12.72,23.68,23.68,0,0,0-6.68,4.372c-11.317,9.7-24.531,15.663-39.352,15.767-22.379.158-40.611-8.551-52.308-28.571-.09-.155-.207-.3-.281-.461-.632-1.4-2.223-3.007-.319-4.269,1.962-1.3,2.753.755,3.633,2.033.92,1.336,1.814,2.688,2.665,4.066,13.15,21.265,42.269,26.767,59,21.31,7.961-2.594,15.476-5.87,22.111-11.007,2.068-1.6,2.046-2.072-.384-3.237-7.183-3.446-10.239-9.271-9.987-17.019a8.338,8.338,0,0,1,.836-3.63c.436-.794,1.639-1.762,2.381-1.672,1.526.184,1.655,1.617,1.417,2.972a27.893,27.893,0,0,0-.6,3.721A12.172,12.172,0,0,0,150.9,166.578a11.333,11.333,0,0,0,13.179-10.429c.461-4.508-.987-8.532-3.421-12.24-2.469-3.763-5.008-7.477-7.483-11.23-.836-1.268-1.575-1.278-2.362.006-1.22,1.991-2.359,4.043-3.7,5.947-.745,1.052-2.039,1.936-3.149.678a3.231,3.231,0,0,1-.142-2.878c2.227-4.508,4.6-8.945,7.031-13.343.378-.681,1.639-1.6,1.972-1.426a3.568,3.568,0,0,1,1.83,2.207c.671,5.844,3.924,10.365,7.325,14.821a8.708,8.708,0,0,0,2,1.468,6.2,6.2,0,0,0,.668-1.991c-.126-4.485.116-9.048-.636-13.437-1.875-10.952-5.289-21.333-13.369-29.539a3.106,3.106,0,0,1-.949-1.278,2.618,2.618,0,0,1,.155-1.943,2.072,2.072,0,0,1,1.872-.52,6.765,6.765,0,0,1,2.6,1.839,56.74,56.74,0,0,1,5.492,7.315c5.963,10.352,8.877,21.578,9.568,33.628Z" transform="translate(-39.703 -61.897)" fill="#262c54"/>
    <path id="Path_17582" data-name="Path 17582" d="M69.962,298.376c-23.7-2.585-43.234-12.853-56.8-33.282a52.7,52.7,0,0,1-8.464-24.2c-.39-3.856.307-5.65,1.978-5.257,2.743.645,1.891,3.114,2.062,4.918,1.058,11.343,5.725,21.11,13.137,29.558,12.553,14.308,28.523,22.072,47.377,24.066a19.11,19.11,0,0,1,3.73.4,2.509,2.509,0,0,1,1.536,1.768c0,.607-.884,1.446-1.572,1.749a10.243,10.243,0,0,1-2.982.281Z" transform="translate(-3.107 -159.564)" fill="#262c54"/>
    <path id="Path_17583" data-name="Path 17583" d="M215.137,4.127c-1.791-.087-3.6-.077-5.363-.339-.432-.065-.907-.987-1.036-1.588a1.493,1.493,0,0,1,.691-1.294A23.212,23.212,0,0,1,214.695,0a56.227,56.227,0,0,1,20.087,3.627c16.128,6.089,28.516,16.554,36.845,31.7A20.826,20.826,0,0,1,273.4,39.8a1.988,1.988,0,0,1-.9,1.694,2.042,2.042,0,0,1-1.926-.239,35.332,35.332,0,0,1-2.5-4.134c-9.042-16.009-22.4-26.561-40.143-31.362-4.134-1.12-8.48-1.446-12.73-2.136-.023.168-.048.332-.071.5Z" transform="translate(-141.37 0)" fill="#262c54"/>
    <path id="Path_17584" data-name="Path 17584" d="M64.231,61.166c.3,1.139.949,2.194.662,2.817a6.7,6.7,0,0,1-2.314,2.143C49.923,75.2,43.779,88,41.491,103a55.881,55.881,0,0,0,.975,21.43c.381,1.62,1.468,3.562-.578,4.866-1.268.81-2.627-.574-3.3-3.95-4.363-21.7.074-41.078,15.547-57.394a49.056,49.056,0,0,1,6.709-5.4,17,17,0,0,1,3.395-1.394Z" transform="translate(-25.053 -41.424)" fill="#262c54"/>
    <path id="Path_17585" data-name="Path 17585" d="M202.217,313.7c-.032,2.159-1.1,3.2-2.724,3.111a2.667,2.667,0,0,1-1.046-.194c-7.841-4.034-16.431-2.556-24.715-3.291-.781-.071-1.617,1.107-2.517,1.5-.723.319-1.894.723-2.3.394a2.671,2.671,0,0,1-.629-2.346,9.415,9.415,0,0,1,1.791-3.24c5.518-6.722,16.777-9.077,24.544-5.2a13.955,13.955,0,0,1,6.476,6.212A23.6,23.6,0,0,1,202.217,313.7Zm-19.3-4.272c.023-.145.048-.29.071-.436,3.672.623,7.344,1.258,11.023,1.846a5.308,5.308,0,0,0,1.452-.177c-.229-.452-.349-1.039-.707-1.333-4-3.262-11.23-3.824-15.676-1.246a1.265,1.265,0,0,0-.558.791c-.026.142.413.516.655.526,1.246.055,2.494.026,3.74.026Z" transform="translate(-113.936 -204.934)" fill="#262c54"/>
    <path id="Path_17586" data-name="Path 17586" d="M189.7,41.23c-.694.539-1.213,1.271-1.755,1.291a9.309,9.309,0,0,1-3.1-.561c-12.34-4-24.666-4.36-36.993.026-.168.061-.329.142-.5.2-1.233.4-2.569.833-3.2-.784-.6-1.549.539-2.423,1.743-2.833a64.208,64.208,0,0,1,8.748-2.594,61.4,61.4,0,0,1,29.3,1.494,23.7,23.7,0,0,1,4.414,1.926c.539.294.807,1.078,1.339,1.839Z" transform="translate(-97.521 -23.617)" fill="#262c54"/>
    <path id="Path_17587" data-name="Path 17587" d="M151.767,217.284c-4.011.077-7.041-2.562-7.238-6.3a7.541,7.541,0,0,1,7.064-7.887c2.907-.113,6.838,4.111,7.015,7.545C158.8,214.3,155.807,217.207,151.767,217.284Zm2.582-5.892a3.215,3.215,0,0,0-3.679-3c-1.613.145-2.072,1.281-1.846,2.62A2.376,2.376,0,0,0,151.973,213,7.532,7.532,0,0,0,154.348,211.392Z" transform="translate(-97.88 -137.557)" fill="#262c54"/>
    <path id="Path_17588" data-name="Path 17588" d="M259.579,219.076a6.422,6.422,0,0,1-6.783-6.68c.081-3.663,2.481-6.434,5.7-6.576,4.469-.2,8.112,2.8,8.138,6.7.023,3.611-3.082,6.5-7.051,6.557ZM262.3,212.8c.177-1.352-1.01-2.523-2.7-2.63-1.455-.094-2.423.513-2.552,2.039a2.206,2.206,0,0,0,2.039,2.614,2.662,2.662,0,0,0,3.22-2.02Z" transform="translate(-171.217 -139.397)" fill="#262c54"/>
    <path id="Path_17589" data-name="Path 17589" d="M90.821,138.72c-.523-.378-1.791-.81-2.043-1.578-.51-1.552.839-2.178,2.133-2.436,5.466-1.091,9.965-3.988,14.076-7.557,1.888-1.639,3.727-3.32,4.331-6.005a2.881,2.881,0,0,1,2.139-1.775c1.513.087,1.888,1.51,1.659,2.84a7.243,7.243,0,0,1-1.068,3,35.191,35.191,0,0,1-19.674,13.321,13.6,13.6,0,0,1-1.546.187Z" transform="translate(-60.052 -80.848)" fill="#262c54"/>
    <path id="Path_17590" data-name="Path 17590" d="M273.27,114.96c.845.784,1.717,1.236,2.033,1.939,3.7,8.164,10.287,12.6,18.713,14.734.174.045.352.071.523.129,1.236.413,2.536.942,2.114,2.54-.407,1.533-1.82,1.62-3.091,1.326-8.958-2.075-16.2-6.631-20.743-14.834a10.254,10.254,0,0,1-.9-4.082C271.882,116.241,272.666,115.705,273.27,114.96Z" transform="translate(-184.168 -77.863)" fill="#262c54"/>
    <path id="Path_17591" data-name="Path 17591" d="M-.007,139.253c1.175-4.714,2.036-9.135,3.414-13.388a79.264,79.264,0,0,1,4.185-9.339c.581-1.223,1.633-2.262,2.949-1.317.578.416.774,1.926.545,2.782a26.745,26.745,0,0,1-1.952,4.427A50.67,50.67,0,0,0,4.6,137.878c-.068.536-.1,1.075-.187,1.607-.207,1.317-.694,2.778-2.23,2.362-.887-.242-1.452-1.665-2.194-2.594Z" transform="translate(0.01 -77.783)" fill="#262c54"/>
    <path id="Path_17592" data-name="Path 17592" d="M321.15,374.4c-.5-.394-1.149-.649-1.255-1.049a2.525,2.525,0,0,1,.155-1.946,6.807,6.807,0,0,1,2.165-1.53c5.718-3.069,11.2-6.444,15.609-11.323a3.2,3.2,0,0,1,1.275-.933,1.822,1.822,0,0,1,1.5.064c.445.432.978,1.3.81,1.739a9.227,9.227,0,0,1-1.9,3.146,57.759,57.759,0,0,1-16.331,11.226,12.676,12.676,0,0,1-2.023.6Z" transform="translate(-216.585 -242.133)" fill="#262c54"/>
    <path id="Path_17593" data-name="Path 17593" d="M417.939,177.766q-.6-4.231-1.207-8.464c-.165-1.136-.139-2.427,1.194-2.507a3.477,3.477,0,0,1,2.485,1.43,5.883,5.883,0,0,1,.891,3.053q.242,5.624.2,11.262c-.01,1.284-.536,2.743-2.149,2.394-.707-.152-1.5-1.426-1.652-2.294a29.022,29.022,0,0,1-.074-4.831c.106-.016.21-.032.316-.045Z" transform="translate(-282.206 -112.97)" fill="#262c54"/>
    <path id="Path_17594" data-name="Path 17594" d="M61.075,58.163a7.8,7.8,0,0,1-.858,1.814c-1.849,1.939-3.7,3.876-5.676,5.686a2.008,2.008,0,0,1-1.9.2c-.507-.549-1.026-1.694-.774-2.233A13.161,13.161,0,0,1,58.555,57c.545-.239,1.62.72,2.517,1.158Z" transform="translate(-35.079 -38.582)" fill="#262c54"/>
    <path id="Path_17595" data-name="Path 17595" d="M304.176,59.953c2.052.194,6.6,3.685,7.035,5.073a1.732,1.732,0,0,1-1.755,2.088c-1.823-.152-6.28-3.382-6.444-4.992-.074-.733.813-1.562,1.165-2.172Z" transform="translate(-205.226 -40.605)" fill="#262c54"/>
  </g>
</svg>
