<svg id="_15" data-name="15" xmlns="http://www.w3.org/2000/svg" width="140.503" height="141.379" viewBox="0 0 140.503 141.379">
  <g id="Group_17161" data-name="Group 17161" transform="translate(14.125 11.11)">
    <path id="Path_17638" data-name="Path 17638" d="M207.773,291.038A32.1,32.1,0,0,0,202,288.77a29.779,29.779,0,0,0-6.092-1.084,37.1,37.1,0,0,0-12.33,1.31,1.781,1.781,0,0,0-1.291,1.533,28.6,28.6,0,0,1-3.249.671c-1.955.274-1.165,3.382.833,3.017,1.736-.319,3.479-.584,5.2-1q1.283-.31,2.552-.687c.323-.1.7-.258,1.091-.4.048-.006.1-.013.148-.023a2.117,2.117,0,0,0,.336.194c1.275.51,2.959.307,4.327.39q2.164.131,4.321.374c2.853.323,5.692.816,8.506,1.368,1.959.384,3.4-2.346,1.433-3.395Z" transform="translate(-134.624 -205.899)" fill="#ba8b54"/>
    <path id="Path_17639" data-name="Path 17639" d="M151.491,204.212a5.274,5.274,0,0,0-2.685-.561,1.41,1.41,0,0,0-.4-.2,3.526,3.526,0,0,0-1.091-.11,4.574,4.574,0,0,0-2.094.616,4.479,4.479,0,0,0-2.259,3.592,4.311,4.311,0,0,0,.926,2.849A5.176,5.176,0,0,0,145,212.815a3.273,3.273,0,0,0,1.943,1.081.718.718,0,0,0,.871-.871c-.026-.094-.042-.19-.065-.287a4.692,4.692,0,0,0,6.238-4.321,4.614,4.614,0,0,0-2.5-4.208Z" transform="translate(-110.949 -148.832)" fill="#75757c"/>
    <path id="Path_17640" data-name="Path 17640" d="M270.968,209.618a4.321,4.321,0,0,0-3.069-1.007,3.537,3.537,0,0,0-.549-.119,2.3,2.3,0,0,0-.949-.252,1.406,1.406,0,0,0-.168.019c-.01,0-.716.1-.3.039s-.3.039-.31.042c-.071.019-.142.052-.21.077a4.852,4.852,0,0,0-1.672,1.062,4.506,4.506,0,0,0-1.423,3.175,4.223,4.223,0,0,0,4.389,4.076h.016a4.088,4.088,0,0,0,2.2.074,4.362,4.362,0,0,0,2.381-1.617c.058-.065.129-.116.181-.184a3.818,3.818,0,0,0-.516-5.376Z" transform="translate(-191.797 -152.153)" fill="#75757c"/>
    <path id="Path_17641" data-name="Path 17641" d="M275.27,147.8a5.139,5.139,0,0,1,2.953,1.236c5.686-6.121,11.733-11.923,17.848-17.59q4.874-4.521,9.755-9.035c.842-.778-.384-1.949-1.242-1.242C294.4,129.6,284.325,138.182,275.27,147.8Z" transform="translate(-200.568 -93.034)" fill="#eac485"/>
    <path id="Path_17642" data-name="Path 17642" d="M159.835,86.583c1.126-1.036-.4-3.1-1.668-2.159q-10.809,8.04-20.933,16.9c2.469-2.562,4.953-5.1,7.48-7.616q5.232-5.2,10.6-10.278c1.016-.955-.371-2.859-1.526-1.978-.084.065-.168.132-.255.2h0c-.006,0-.01.01-.016.013-5.734,4.4-11.278,9.029-16.7,13.8q3-3.287,6.005-6.564l9.739-10.581a1.363,1.363,0,0,0-1.926-1.926q-12.507,11.849-25.1,23.6c4.376-4.547,8.868-8.984,13.411-13.359q4.869-4.69,9.787-9.332c1.149-1.087-.374-3.166-1.723-2.233-4.337,3-8.535,6.183-12.64,9.474q2.42-2.348,4.85-4.689,6.249-6.012,12.53-11.991c1.2-1.136-.552-2.8-1.784-1.784-7.686,6.331-15.041,13.082-22.508,19.668l-5.689,5.021a1.87,1.87,0,0,1,.155.165,5.19,5.19,0,0,1,2.44,5.5,4.23,4.23,0,0,1-.145.526c.9-.8,1.784-1.62,2.688-2.414q-1.457,1.471-2.895,2.956a5.931,5.931,0,0,1-2.694,2.8c-2.882,3.02-5.718,6.086-8.474,9.222-.639.726-1.255,1.475-1.885,2.207a1.06,1.06,0,0,0-1.417-.039c-1.3.949-2.572,1.93-3.837,2.917,3.972,1.036,7.364,3.14,11.5,4.118,3.7.871,2.123,6.56-1.568,5.692-4.095-.965-7.5-3.592-11.7-4.269a21.517,21.517,0,0,0-13.521,2.472c-3.359,1.772-6.341-3.324-2.978-5.1.329-.174.665-.329,1-.494,1.465-1.83,2.94-3.646,4.443-5.431.507-.516,1.007-1.036,1.5-1.533,1.5-1.491,3.007-2.969,4.5-4.463q2.454-2.454,4.937-4.876c-2.288,2.614-4.556,5.247-6.767,7.929-1.258,1.526-2.491,3.069-3.714,4.621q-1.7,1.52-3.385,3.059a27.043,27.043,0,0,1,12.2-2.307,17.92,17.92,0,0,1,3.462.558c4.744-4.682,9.532-9.316,14.421-13.84a5.694,5.694,0,0,1-6.034-2.662,6.049,6.049,0,0,1-.752-3.107c-.068.081-.139.155-.207.232-.419.494-.829.994-1.242,1.491a1.738,1.738,0,0,0-.2-.523c.561-.632,1.133-1.255,1.7-1.888a6.252,6.252,0,0,1,1.023-2.833,4.87,4.87,0,0,1,3.324-2.233c.087-.013.168-.013.252-.019,4.356-4.782,8.745-9.529,13.085-14.3q6.578-7.227,13.175-14.44a1.338,1.338,0,0,0-1.891-1.891q-12.7,10.32-24.757,21.394,3.979-4.3,7.983-8.571,6.859-7.309,13.769-14.566A1.37,1.37,0,0,0,137.33,54.9c-14.715,12.649-28.545,26.27-42.066,40.181q3.6-4.337,7.315-8.571c2.056-1.807,4.1-3.621,6.057-5.547q4.482-4.424,8.9-8.919c2.895-2.94,5.812-5.85,8.726-8.771,1.455-1.459,2.914-2.917,4.356-4.392a26.607,26.607,0,0,0,4.03-4.579.534.534,0,0,0-.726-.726,12.457,12.457,0,0,0-1.933,1.281c.378-.39.749-.787,1.126-1.178a1.36,1.36,0,0,0-1.92-1.923c-9.871,8.89-19.532,18.006-29.1,27.216q8.166-9.39,16.335-18.774l10.481-12.03a1.322,1.322,0,0,0-1.868-1.868c-11.459,10.949-22.8,22.02-34.179,33.053q9.7-11.791,20.368-22.737,5-5.116,10.2-10.032c1.288-1.213-.591-2.988-1.91-1.91-8.7,7.122-17.051,14.676-25.221,22.417q4.836-5.5,9.677-11.007,5.271-5.988,10.542-11.972a1.336,1.336,0,0,0-1.888-1.888Q107.117,49.07,99.84,56.163q1.946-2.057,3.911-4.1,5.2-5.373,10.568-10.575c1.258-1.22-.6-2.995-1.9-1.9C99.4,50.58,87.236,62.51,75.383,74.734c5.476-6.473,11.255-12.695,17.164-18.8q5.068-5.242,10.2-10.416a1.47,1.47,0,0,0-2.078-2.078Q85,59.2,69.33,74.966c6.338-7.457,13.011-14.634,19.8-21.678q5.344-5.542,10.752-11.013a1.411,1.411,0,0,0-1.994-1.994L69.681,68.232c6.025-6.844,12.23-13.534,18.49-20.158Q93.54,42.4,98.946,36.753a1.365,1.365,0,0,0-1.93-1.93Q85.559,45.743,74.106,56.66q7.12-7.595,14.418-15.024a1.416,1.416,0,0,0-2-2q-8.809,8.108-17.616,16.218,5-5.252,10.426-10.1c1.265-1.126-.571-2.9-1.839-1.839A202.747,202.747,0,0,0,52.8,68.254a1.233,1.233,0,0,0,.11,1.72c-.591.774-1.184,1.539-1.759,2.323a1.236,1.236,0,0,0-.026,1.53c-2.256,3.4-4.214,7.015-6.112,10.6a1.457,1.457,0,0,0,2.278,1.759c.139-.142.271-.29.407-.436-1.21,1.936-2.427,3.872-3.672,5.783-.978,1.5,1.178,3.043,2.417,1.865,1.1-1.042,2.181-2.114,3.259-3.185a1.457,1.457,0,0,0,1.907-.048q1.583-1.563,3.159-3.133c-.245.361-.484.726-.733,1.084-2.678,3.85-5.624,7.48-8.419,11.239-.945,1.271,1.146,2.869,2.194,1.694.571-.639,1.155-1.262,1.726-1.9a24.226,24.226,0,0,0-2.068,3.291l.016.01a.862.862,0,0,0,1.346,1.042,43.821,43.821,0,0,0,4.318-5.305c1.333-1.743,2.646-3.5,3.966-5.253q2.091-2.774,4.179-5.547c.568-.574,1.139-1.149,1.707-1.726-1.92,2.6-3.782,5.237-5.547,7.941a1.492,1.492,0,0,0,1.229,2.223c-3.93,4.737-7.444,9.871-10.917,14.815-1.078,1.536,1.384,2.878,2.475,1.449.039-.052.077-.1.116-.152a.805.805,0,0,0,1.236.129c-.755,1.062-1.51,2.123-2.239,3.2-.833,1.229,1.046,2.662,2.049,1.581q6.273-6.728,12.436-13.563,1.864-2.077,3.682-4.189a.552.552,0,0,0,.1,0q-1.709,1.873-3.337,3.795c-2.178,2.562-4.282,5.189-6.347,7.841-1.01,1.3-1.994,2.617-2.982,3.937-.671.9-1.536,1.855-2.181,2.872a.556.556,0,0,0-.355.355c-.126.374-.248.749-.374,1.123a.9.9,0,0,0,1.31,1.007,10.756,10.756,0,0,0,2.536-2.714c-.571.778-1.152,1.549-1.71,2.333-.939,1.317,1.12,2.927,2.223,1.81a42.026,42.026,0,0,0-3.5,5.879c-.513,1.084.9,2.452,1.794,1.384,2.578-3.066,4.611-6.589,6.88-9.887q3.446-5.015,7.125-9.865c3.017-3.979,6.186-7.819,9.429-11.594a5.412,5.412,0,0,1-.665-4.327,2.123,2.123,0,0,1,.113-.6c.077-.213.174-.426.274-.636.058-.139.106-.281.174-.416a4.316,4.316,0,0,1,.945-1.252,6.21,6.21,0,0,1,1.891-1.468,1.418,1.418,0,0,0-2.023-.184c-.516.41-1.026.829-1.533,1.252,6.05-6.063,12.13-12.094,18.3-18.029q-4.54,5.257-8.884,10.684c-1.549,1.939-3.066,3.9-4.569,5.876a3.884,3.884,0,0,1,2.575.5,4.6,4.6,0,0,1,1.846,5.663,3.126,3.126,0,0,1-.106,2.772A4.67,4.67,0,0,1,79.44,98.8a5.736,5.736,0,0,1-.649-.6q-9.124,11.917-18.251,23.834c-1.039,1.359,1.168,2.959,2.33,1.8q5.441-5.45,10.878-10.91-6.767,8.611-13.537,17.219c-1.107,1.407.729,3.4,2.027,2.026.094-.1.19-.2.284-.3a.97.97,0,0,0,.784-.284q2.938-2.841,5.86-5.705-3.582,4.584-7.173,9.161c-.006.006-.01.016-.016.023-.071.09-.142.177-.213.271l.035.019c-.665,1.407,1.162,3.095,2.243,1.736.662-.836,1.333-1.662,2-2.488-.123.184-.255.361-.378.545-.887,1.323,1.084,2.778,2.175,1.678.481-.484.965-.965,1.446-1.449a1.382,1.382,0,0,0,.639,1.62c-.652.794-1.3,1.591-1.965,2.378a1.384,1.384,0,0,0,.965,2.33c2.388.071,4.382-1.262,6.044-2.856l.106-.106c-.058.077-.119.155-.177.232a1.48,1.48,0,0,0,1.078,2.369c-.678.826-1.349,1.655-2.026,2.478-1.042,1.268.632,3.046,1.839,1.839q2.8-2.807,5.621-5.612c-1.749,2.078-3.391,4.256-5.2,6.28-1.184,1.326.729,3.279,1.968,1.968,2-2.127,4.1-4.163,6.134-6.263a1.383,1.383,0,0,0,1.584.774q-3.151,3.383-6.3,6.767c-1.075,1.155.4,3.369,1.781,2.307,7.293-5.6,14.544-11.265,21.991-16.651-3.327,3.185-6.6,6.422-9.774,9.758-1.339,1.41.758,3.521,2.139,2.139.632-.632,1.278-1.255,1.917-1.881q-2.047,2.285-4.1,4.573a1.393,1.393,0,0,0,1.968,1.968q5-4.569,10.01-9.142a1.285,1.285,0,0,0,.636.252c-1.371,1.291-2.727,2.6-4.043,3.947a1.4,1.4,0,0,0-.374,1.239c-.523.5-1.055.987-1.575,1.491-1.162,1.126.387,3.272,1.772,2.3,3.017-2.127,6.012-4.289,9-6.454-.816.936-1.639,1.868-2.449,2.811-1.1,1.275.642,3.078,1.868,1.868q3.684-3.645,7.37-7.286,1.176-.992,2.317-2.026a1.567,1.567,0,0,0,1.062-.387c.245-.2.49-.407.739-.61-1.591,2.043-3.13,4.127-4.576,6.289-.71,1.062.662,2.262,1.688,1.688s2.068-1.194,3.095-1.814a1.261,1.261,0,0,0,1.342-.09,196.77,196.77,0,0,0,22.688-17.99c1.346-1.233-.655-3.22-2-2-2.11,1.9-4.272,3.73-6.457,5.531,4.563-4.66,9.013-9.4,13.434-14.192a.906.906,0,0,0-.187-1.41l.129-.139a1.532,1.532,0,0,0-2.165-2.165q-5.455,4.535-10.907,9.068c6.915-6.841,14.05-13.469,21.188-20.078,1.31-1.213-.6-3.043-1.933-1.933q-12.483,10.416-25.044,20.739c7.622-8.171,15.689-15.925,23.769-23.644,1.2-1.142-.365-3.24-1.788-2.317a170.072,170.072,0,0,0-13.837,10.052q4.313-4.332,8.7-8.587,5.353-5.184,10.836-10.226ZM127.711,74.476q-2.193,2.386-4.389,4.773c-2.643,2.117-5.282,4.234-7.812,6.483-1.223,1.087-2.423,2.2-3.614,3.324q7.769-7.44,15.815-14.582ZM81.853,72.207q-2.836,3.311-5.615,6.667c-1.12,1.359-2.217,2.733-3.317,4.1a1.216,1.216,0,0,0-1.1.381c-.248.248-.487.5-.733.755-.729.5-1.442,1.029-2.139,1.568Q75.354,78.9,81.853,72.207ZM54.815,73l4.676-4.347q-3.112,3.5-6.189,7.028Q54.067,74.343,54.815,73ZM59.2,76.15c-2.21,2.649-4.366,5.337-6.5,8.048-.284.239-.571.478-.858.716,1.784-2.791,3.559-5.586,5.289-8.406q4.8-4.56,9.6-9.119Q62.913,71.726,59.2,76.15Zm17.7,8.474q-5.305,5.954-10.584,11.93a1.583,1.583,0,0,0-.336.642q-2.028,2.256-4.05,4.521c-.29.323-.587.639-.878.962.407-.6.807-1.2,1.22-1.8q2.667-3.848,5.4-7.648a1.214,1.214,0,0,0,1.149-.461Q79.123,81.08,89.988,69.913q-6.549,7.352-13.1,14.708Zm30.081,23.321a.279.279,0,0,0,.045-.023c-.248.258-.5.513-.745.771-1.362,1.43-2.7,2.878-4.047,4.324a.744.744,0,0,0-.019-.09q2.391-2.488,4.766-4.982Zm-3.114-17.387q-5.586,6.084-11.068,12.269a1.686,1.686,0,0,0-.316-.478q5.663-5.92,11.385-11.788Zm-1.023-8.709q-5.876,6.568-11.491,13.363A1.557,1.557,0,0,0,91,93.285q5.9-5.736,11.833-11.433ZM88.9,87.222q8.267-8.045,16.519-16.105-7.691,8.819-15.383,17.635c-.955,1.094-1.907,2.194-2.862,3.288l2.188-2.865a1.459,1.459,0,0,0-.465-1.952Zm-9.539,15.054a1.474,1.474,0,0,0,.4.49q-1.641,1.641-3.275,3.279,1.438-1.883,2.878-3.769Zm-.739,9.439c-.3.268-.591.545-.887.816q2.014-2.556,4.027-5.108Q80.167,109.552,78.62,111.714Zm6.054-.494a1.167,1.167,0,0,0-.587-.071l1.3-1.368c.139-.113.281-.223.42-.336C85.429,110.036,85.051,110.63,84.674,111.22Zm9.684,11.972a1.637,1.637,0,0,0,.474.523c-1.213,1.084-2.423,2.175-3.617,3.279Q92.788,125.1,94.358,123.192Zm-1.717,16.444q1.055-1.157,2.114-2.314a1.258,1.258,0,0,0,.423.442q-1.268.934-2.533,1.872Zm35.706-32.96q-3.466,3.621-6.877,7.29a.559.559,0,0,0-.474.1c-.471.323-.929.658-1.391.994q4.332-4.23,8.742-8.387Zm3.779,2.682q-5.116,5.237-10.084,10.613c-.3.168-.591.342-.884.513a1.42,1.42,0,0,0-.691-.1q5.716-5.629,11.662-11.03Zm-15.654,3.817c-.778.836-1.549,1.672-2.327,2.507a1.4,1.4,0,0,0-.229-.616q3.408-3.229,6.806-6.463-2.125,2.285-4.25,4.576Zm-14.547,16.986c.674-.92,1.365-1.83,2.091-2.72.616-.762,1.246-1.51,1.881-2.256l.461-.5a1.541,1.541,0,0,0,.507,1.178q-2.464,2.159-4.94,4.3Zm2.533.952c1.71-1.465,3.424-2.927,5.121-4.4.61-.532,1.223-1.062,1.833-1.591-.891,1.023-1.788,2.043-2.665,3.078Q106.588,129.635,104.458,131.114Zm14.208,1.191c-2.64,2.039-5.237,4.137-7.757,6.322l6.98-7.241a1.308,1.308,0,0,0,.358-.661c1.175-1.246,2.356-2.485,3.53-3.73a.3.3,0,0,0-.023.045c-.868,1.607-1.778,3.191-2.685,4.776-.132.165-.271.326-.4.49Zm1.152,3.249q3.616-3.093,7.312-6.089-1.922,2.014-3.811,4.056-1.757,1.007-3.5,2.03Zm12.759-4.621q-3.533,3.785-7.07,7.57a1.465,1.465,0,0,0-.355,1.484l-2.4,2.391c-.142.094-.281.184-.419.278a55.284,55.284,0,0,1,9.4-11.007c.035-.032.061-.065.094-.1l.749-.62Zm-6.844-6.98a10.406,10.406,0,0,0,.252-1.4c1.307-1.378,2.6-2.762,3.914-4.134a1.141,1.141,0,0,0,.126-.19c2.227-2.052,4.482-4.079,6.776-6.057q-5.687,5.75-11.068,11.788Z" transform="translate(-43.774 -34.43)" fill="#eac485"/>
  </g>
  <g id="Group_17162" data-name="Group 17162">
    <path id="Path_17643" data-name="Path 17643" d="M96.87,168.9c-28.661-.1-53.047-22.137-55.745-50.64A101.842,101.842,0,0,1,41.09,101.6,45.854,45.854,0,0,1,48.922,79.45,75.915,75.915,0,0,1,69.461,58.281c1.407-.965,3.269-2.762,4.708-.852,1.6,2.123-1.039,2.9-2.272,4.017-4.653,4.214-9.629,8.132-13.885,12.714C46.76,86.278,43.2,100.876,44.83,117.1c1.22,12.159,6.37,22.44,14.44,31.285,11.588,12.7,26.215,17.838,43.247,16.331a52.547,52.547,0,0,0,24.315-8.132c3.546-2.291,5.147-2.436,5.531-.913.745,2.962-2.123,3.346-3.737,4.414-9.613,6.37-20.346,8.845-31.759,8.813Z" transform="translate(-27.611 -38.326)" fill="#262c54"/>
    <path id="Path_17644" data-name="Path 17644" d="M336.771,110.646c-.613,15.131-4.456,29.242-15.428,40.682-2.2,2.294-3.485,2.914-4.327,1.755-1.317-1.814.239-2.969,1.162-4.208.749-1.01,1.607-1.936,2.4-2.911,10.658-13.117,14.208-28.3,11.023-44.535-2.856-14.55-10.852-26.444-22.985-35.306-.432-.316-.939-.539-1.368-.862-1.129-.842-2.769-1.691-1.555-3.359,1.094-1.51,2.714-.736,3.83.142,3.514,2.765,7.27,5.347,10.287,8.6a72.274,72.274,0,0,1,13.582,21.878c2.365,5.731,3.146,11.775,3.382,18.126Z" transform="translate(-206.759 -41.348)" fill="#262c54"/>
    <path id="Path_17645" data-name="Path 17645" d="M122.056,0c11.346.245,22.237,2.149,32.4,7.306a31.418,31.418,0,0,1,5.376,3.546,2.61,2.61,0,0,1,.51,2.356c-.478,1.3-1.649,1.081-2.707.568-.323-.155-.629-.345-.942-.52-23.74-13.169-47.6-11.178-71.431-.394-3.391,1.536-6.3,4.124-9.516,6.086-.6.368-1.613.061-2.436.068a10.671,10.671,0,0,1,.126-2.865c.184-.591.952-1.039,1.526-1.465,1.446-1.068,2.878-2.162,4.4-3.117a72.36,72.36,0,0,1,27.174-9.916C111.662.82,116.88.536,122.056,0Z" transform="translate(-49.631 0)" fill="#262c54"/>
    <path id="Path_17646" data-name="Path 17646" d="M160.956,284.3c-3.249.184-4.882,2.569-6.751,4.753a3.055,3.055,0,0,1-2.643.91c-1.517-.626-1.2-2.088-.413-3.169a17.065,17.065,0,0,1,3.5-4.008c7.38-5.25,15.512-8.277,24.721-7.173,6.454.774,11.556,3.746,14.26,9.978a10.365,10.365,0,0,1,.881,3.069,2.186,2.186,0,0,1-3.075,2.43,28.1,28.1,0,0,1-2.93-1.342c-7.806-3.495-15.818-4.46-24.1-1.92a14.179,14.179,0,0,1-1.523.526c-2.265.423-2.83-.371-2.269-3.127.071-.345.171-.684.255-1.026a24.093,24.093,0,0,0,3.146-.487,36.6,36.6,0,0,1,19.658.029c.868.226,1.72.529,2.6.671a4.249,4.249,0,0,0,1.365-.236c-.265-.436-.426-1.02-.807-1.281a16.064,16.064,0,0,0-3.682-2.159c-8-2.694-15.431-1.565-22.2,3.566Z" transform="translate(-101.929 -186.524)" fill="#262c54"/>
    <path id="Path_17647" data-name="Path 17647" d="M212.044,350.5a40.626,40.626,0,0,1-5.36-.081,2.368,2.368,0,0,1-1.584-1.7c.006-.6.913-1.513,1.6-1.717a24.76,24.76,0,0,1,3.734-.371c5.508-.768,11.11-1.155,16.493-2.446,17.525-4.211,30.378-14.912,40.046-29.794a52.065,52.065,0,0,1,3.3-4.9,1.747,1.747,0,0,1,3.066,1.639,17.468,17.468,0,0,1-1.975,3.8c-12.291,19.9-31,34.27-59.32,35.57Z" transform="translate(-138.916 -209.173)" fill="#262c54"/>
    <path id="Path_17648" data-name="Path 17648" d="M274.449,182.9c-2.785.645-5.437,1.1-7.974,1.923-1.249.4-2.278,1.488-3.4,2.262.916.5,1.878.926,2.743,1.5,4.176,2.778,4.26,7.761.155,10.665a10.447,10.447,0,0,1-8.726,1.552,6.208,6.208,0,0,1-4.957-6.718,10.477,10.477,0,0,1,3.385-7.109c5.96-5.944,13.356-8.145,21.559-7.712,1.633.087,3.256,1.258,4.76,2.139.365.213.52,1.375.284,1.868a2.046,2.046,0,0,1-1.649.981c-2.094-.326-4.15-.891-6.18-1.355Zm-13.84,14.3a15.5,15.5,0,0,0,3.2-1.517c.558-.4,1.016-2.081.8-2.252a26.166,26.166,0,0,0-5.586-3.579c-.968-.41-2.927,3.153-2.74,4.773.174,1.5,1.713,2.607,4.331,2.575Z" transform="translate(-170.872 -121.378)" fill="#262c54"/>
    <path id="Path_17649" data-name="Path 17649" d="M116.911,187.081c-3.769-2.988-8.332-2.885-12.766-3.279-1.607-.142-3.23-.139-4.821-.365a1.542,1.542,0,0,1-.965-1.162,2.365,2.365,0,0,1,.771-1.788,6.938,6.938,0,0,1,3.062-.768,39.144,39.144,0,0,1,17.309,3.521,16.26,16.26,0,0,1,4.021,2.682c5.137,4.815,3.327,12.449-3.382,14.566a6.822,6.822,0,0,1-6.505-11.843A17.267,17.267,0,0,1,117,186.99c1.136,2.017.578,3.569-1.065,5.108a2.49,2.49,0,0,0-.129,3.8c1.165,1.191,2.575,1.026,3.934.371,2.7-1.3,3.592-4.456,1.578-6.635-1.1-1.191-2.914-1.723-4.4-2.552Z" transform="translate(-66.62 -121.726)" fill="#262c54"/>
    <path id="Path_17650" data-name="Path 17650" d="M0,221.124c.255-3.385.316-6.1.739-8.745a3.006,3.006,0,0,1,1.92-2.078c1.642-.139,1.823,1.346,1.852,2.656.1,5.018-.016,10.052.384,15.044.226,2.82,1.391,5.557,1.943,8.371.142.72-.442,1.581-.691,2.378-.92-.316-2.256-.361-2.672-1a12.237,12.237,0,0,1-1.736-4.476C1.007,229.027.5,224.748,0,221.124Z" transform="translate(0 -142.433)" fill="#262c54"/>
    <path id="Path_17651" data-name="Path 17651" d="M380.7,80.088c-.332.436-.642,1.226-1.168,1.413a2.218,2.218,0,0,1-1.93-.358,19.42,19.42,0,0,1-1.826-2.64q-4.753-6.52-9.548-13.011c-.823-1.11-2.391-2.165-1.02-3.643,1.329-1.433,2.649-.313,3.717.684,4.8,4.492,8.164,10.016,11.214,15.757A11.506,11.506,0,0,1,380.7,80.088Z" transform="translate(-246.989 -41.43)" fill="#262c54"/>
    <path id="Path_17652" data-name="Path 17652" d="M123.305,412.006a45.89,45.89,0,0,1-16.567-7.138,3.693,3.693,0,0,1-1.139-1.72,1.632,1.632,0,0,1,1.8-2.007,17.577,17.577,0,0,1,2.43,1.075q6.113,2.686,12.233,5.363c.655.284,1.523.3,1.985.749a12.155,12.155,0,0,1,1.539,2.414l-2.272,1.265Z" transform="translate(-71.475 -271.671)" fill="#262c54"/>
    <path id="Path_17653" data-name="Path 17653" d="M180.061,32.993c1.955.21,3.917.361,5.857.681a1.51,1.51,0,0,1,.92,1.168,2.439,2.439,0,0,1-.894,1.736,5.212,5.212,0,0,1-2.582.529,41.421,41.421,0,0,0-14.9,2.056,2.9,2.9,0,0,1-2.633-.813c-.845-1.423.339-2.491,1.565-2.817,4.14-1.094,8.338-1.985,12.511-2.953C179.958,32.719,180.01,32.854,180.061,32.993Z" transform="translate(-112.125 -22.067)" fill="#262c54"/>
    <path id="Path_17654" data-name="Path 17654" d="M248.71,38.18c4.376.326,7.79,1.255,10.775,3.333a2.391,2.391,0,0,1,.755,2.175,2.458,2.458,0,0,1-2.139.981,94.22,94.22,0,0,1-9.184-2.562c-.839-.284-1.43-1.307-2.136-1.988.758-.758,1.517-1.52,1.933-1.936Z" transform="translate(-167.146 -25.86)" fill="#262c54"/>
    <path id="Path_17655" data-name="Path 17655" d="M423.064,150.109a6.426,6.426,0,0,1-1.888.787c-.62.055-1.71-.155-1.852-.526a59.893,59.893,0,0,1-2.136-6.983c-.084-.345.752-1.094,1.3-1.349a1.491,1.491,0,0,1,1.4.416C420.908,144.691,421.792,146.985,423.064,150.109Z" transform="translate(-282.561 -96.171)" fill="#262c54"/>
    <path id="Path_17656" data-name="Path 17656" d="M13.442,169.022c-1.107,1.3-2.014,2.433-3.033,3.462-.106.106-1.026-.294-1.265-.658a3.193,3.193,0,0,1,.571-4.272,2.136,2.136,0,0,1,1.794-.623C12.17,167.231,12.593,168.051,13.442,169.022Z" transform="translate(-5.8 -113.029)" fill="#262c54"/>
  </g>
</svg>
