<svg id="_16" data-name="16" xmlns="http://www.w3.org/2000/svg" width="150.368" height="147.252" viewBox="0 0 150.368 147.252">
  <g id="Group_17163" data-name="Group 17163" transform="translate(12.516 14.45)">
    <path id="Path_17657" data-name="Path 17657" d="M332.232,141q-13.219,6.593-26.422,13.227c4.082.39,8.842,1.51,10.413,5.766a7.6,7.6,0,0,1,.368,1.413c1.436-.826,2.869-1.662,4.308-2.481,5.353-3.04,10.733-6.041,16.1-9.055,1.572-.881.49-3.724-1.265-3l-.39.165h0c-.342.142-.684.29-1.026.432a1.574,1.574,0,0,0-2.146-1.933q-5.189,2.241-10.323,4.585,5.954-3.258,11.917-6.509c1.726-.942.2-3.485-1.53-2.62Z" transform="translate(-219.644 -109.817)" fill="#abd0f2"/>
    <path id="Path_17658" data-name="Path 17658" d="M160.619,94.606c-.132.055-.265.113-.4.171h0a.3.3,0,0,0-.045.023q-2.924,1.225-5.834,2.488c.39-1.075-.52-2.559-1.855-2.11q-5.891,1.985-11.672,4.237l2.8-1.481,16.448-8.684c1.71-.9.207-3.4-1.5-2.572-7.577,3.672-15.16,7.341-22.711,11.072.019,2.285-.687,4.569-.833,6.854-.2,3.111.923,6.047.3,9.181-.858,4.318-2.936,8.758-4.585,12.82-.887,2.188-1.655,4.46-3.6,5.941-.187.145-.4.271-.6.4q5-2.062,10.042-3.992-16.089,8.04-32.153,16.131a1.375,1.375,0,0,0-1.855-.858q-3.059,1.21-6.121,2.423c2.336-1.175,4.666-2.369,7-3.553,4.185-2.123,8.584-3.917,12.882-5.8q3.262-1.433,6.551-2.817c-4.873,1.265-11.184.732-15.208.242-.723-.087-1.468-.174-2.23-.265q-2.6,1.365-5.2,2.749l-.368.2a1.3,1.3,0,0,0,.01-.891q2.231-1.1,4.466-2.2c-4-.516-8.267-1.317-11.378-3.672a8.81,8.81,0,0,1-2.239-2.53c-1.446.678-2.888,1.362-4.331,2.039,1.394-.758,2.782-1.53,4.172-2.3-1.8-3.217-1.891-7.457-1.865-11.02.035-5.211-.158-11.233,1.062-16.309a15.261,15.261,0,0,1,1.675-4.137,2.482,2.482,0,0,1,.726-3.32A14.386,14.386,0,0,0,97.529,83.4c-2.927,1.743-5.841,3.508-8.722,5.331q-1.955,1.239-3.882,2.52a1.333,1.333,0,0,0-.652-.036q1.331-.736,2.665-1.468a1.236,1.236,0,0,0,.716-1.22q4.618-2.488,9.258-4.937c.21-.11.423-.219.636-.329.348-2.136.49-4.408.755-6.8.361-3.269,1.72-6.931,4.7-8.635-1.317.716-2.64,1.426-3.947,2.159-2.02,1.133-3.956,2.407-5.873,3.7q-8.146,4.376-16.16,8.987c10.9-6.87,22.14-13.224,33.266-19.681q9.085-5.271,18.206-10.475c1.333-.758.429-3.156-1.078-2.552-20.875,8.361-39.672,20.723-58.81,32.356q3.688-2.459,7.444-4.827c10.01-6.3,20.291-12.159,30.656-17.858,5.828-3.2,11.685-6.351,17.538-9.506,1.688-.91.2-3.388-1.494-2.556C113,52.359,103.5,57.616,94.16,63.13c-.51.287-1.02.571-1.526.858q3.746-2.275,7.509-4.5,8.713-5.174,17.509-10.21c1.4-.8.171-2.727-1.236-2.114C95.658,56.183,75.922,67.322,56.509,78.916q3.988-2.807,8.112-5.428c8.851-5.641,17.88-11.013,26.861-16.444q7.943-4.8,15.886-9.6c1.649-1,.21-3.3-1.481-2.536-5.363,2.423-10.636,5.034-15.847,7.751q2.938-1.965,5.87-3.934c1.536-1.026.161-3.459-1.462-2.5q-6.205,3.654-12.417,7.306c2.256-1.572,4.479-3.2,6.718-4.792A1.36,1.36,0,0,0,87.378,46.4l-26.3,14.179c-1.068.574-.126,2.156.945,1.617q5.15-2.594,10.3-5.186c-1.626,1.223-3.269,2.427-4.95,3.553q-10.16,6.81-20.342,13.592a1.454,1.454,0,0,0,1.433,2.527l-6.341,4.2c-1.723,1.142-.148,3.9,1.633,2.795l9-5.624c-.248.181-.5.355-.749.536A111.7,111.7,0,0,0,39.239,89.375a1.451,1.451,0,0,0,1.752,2.269c14.876-9.129,29.775-18.261,45.08-26.657-10.546,6.431-20.907,13.153-30.84,20.533q-8.079,6-15.718,12.566c-1.262,1.087.394,3.246,1.788,2.317s2.795-1.875,4.192-2.814a1.4,1.4,0,0,0,1.539.132q6.079-3.369,12.078-6.87a128.2,128.2,0,0,0-10.468,8.342,1.374,1.374,0,0,0-.287.368c-.881.436-1.759.871-2.63,1.323a32.569,32.569,0,0,0-5.563,3.679c-.7.568.068,1.623.836,1.433.126-.032.252-.071.378-.106-.11.09-.226.174-.336.268a1.43,1.43,0,0,0-.026,2.078,27.788,27.788,0,0,0-1.988,2.056c-.678.787.194,2.156,1.175,1.52,2.659-1.72,5.05-3.843,7.554-5.779.229-.177.465-.348.7-.523.119-.048.239-.094.358-.142a1.557,1.557,0,0,0,1.294,1.823c-2.7,1.646-5.382,3.317-8.035,5.04a1.64,1.64,0,0,0,1.655,2.83c2.033-1.02,4.059-2.059,6.086-3.091-1.591.968-3.188,1.933-4.779,2.9a1.535,1.535,0,0,0,1.549,2.649q8.848-4.332,17.7-8.661Q53.758,115.287,43.233,121.7c-1.746,1.062-.223,3.475,1.565,2.678q7.178-3.2,14.347-6.425c-5.75,3.511-11.307,7.373-16.786,11.246-1.391.984-.116,3.275,1.359,2.323,6.567-4.25,13.124-8.561,19.926-12.437q-6.443,4.381-12.882,8.764a1.444,1.444,0,0,0-.432,2.046,1.418,1.418,0,0,0,1.659,2.262c2.956-1.552,5.9-3.133,8.838-4.718q-2.609,2.052-5.218,4.1a1.216,1.216,0,0,0,.071,1.985c-1.381,1.01-2.746,2.049-4.082,3.13-1.359,1.1.371,2.972,1.765,2.288l14.666-7.2c-3.13-3.45-3.13-9.577-2.762-14.886-1.052-3.143-.652-6.389-.352-9.716a3.151,3.151,0,0,1,1.12-2.194c.458-5.066,1.743-10.849,5.928-10.92a4.131,4.131,0,0,1,3.35-1.6c5.647.045,6.425,8.861,6.154,12.827a93.449,93.449,0,0,0-.371,11.12q1.917-1.05,3.83-2.1c-1.278.849-2.543,1.717-3.814,2.578v.094c.229,3.682.691,7.632-.168,11.272-1.129,4.792-5.315,7.438-10.058,5.512a8.047,8.047,0,0,1-1.572-.858q-6.428,4.322-12.853,8.645a1.678,1.678,0,0,0,.058,2.691,1.576,1.576,0,0,0,1.83,2.53q11.52-5.479,23.043-10.959a1.12,1.12,0,0,0-.058.106Q72.35,141.433,63.373,147c-1.481.92-.545,3.43,1.217,2.888.478-.145.945-.319,1.423-.474-1.181.768-2.362,1.536-3.537,2.317a1.494,1.494,0,0,0,1.507,2.578c4.808-2.456,9.606-4.95,14.492-7.257q-3.742,2.546-7.386,5.228a1.629,1.629,0,0,0-.655,2,1.579,1.579,0,0,0,1.891.926l.132-.055q-2.12,1.317-4.221,2.669c-1.449.939-.542,3.659,1.246,2.953l17.009-6.718q-4.879,3.025-9.765,6.047c-1.433.884-.513,3.5,1.2,2.843q3.34-1.283,6.689-2.546c-1.1.7-2.188,1.4-3.266,2.13a1.424,1.424,0,0,0,1.091,2.591q5.75-1.626,11.507-3.224a1.572,1.572,0,0,0,2.088,1.32c1.016-.426,2.033-.858,3.049-1.288q-2.178,1.07-4.36,2.139c-1.7.833-.481,3.837,1.307,3.1q8.2-3.388,16.4-6.8a2.055,2.055,0,0,0,.758,1.394,40.963,40.963,0,0,1-5.05,1.581c-2.068.49-1.194,3.682.878,3.188a67.872,67.872,0,0,0,14.482-5.576l15.012-7.412c1.391-.687.826-2.756-.426-3.095,2.588-1.284,5.179-2.559,7.757-3.859a1.775,1.775,0,0,0,.629-2.4,1.8,1.8,0,0,0-2.4-.629l-.945.4c1.665-.836,3.337-1.662,5-2.5,1.823-.92.223-3.45-1.568-2.685-1.994.855-4,1.684-6,2.527.975-.487,1.952-.965,2.927-1.455q6.617-3.311,13.237-6.625c1.575-.787.478-3.369-1.2-2.843-10.081,3.159-19.968,6.812-29.742,10.762q8.311-4.177,16.693-8.219,7.619-3.674,15.263-7.306c1.788-.852.229-3.45-1.546-2.643q-2.372,1.079-4.753,2.149,3.592-1.839,7.186-3.675c1.588-.813.487-3.391-1.213-2.875-3.295,1-6.557,2.088-9.807,3.211,4.592-2.065,9.187-4.124,13.769-6.215,1.5-.684.429-3.272-1.133-2.688q-9.066,3.388-18.006,7.041c.261-.123.523-.248.784-.374q8.093-3.829,16.206-7.609c1.694-.794.494-3.495-1.258-2.988-.7.2-1.391.413-2.085.623a1.177,1.177,0,0,0-.745-1.107c1.223-.532,2.443-1.071,3.669-1.6,1.733-.745.5-3.695-1.291-3.062-.287.1-.571.21-.858.31q2.26-1.234,4.524-2.465A1.527,1.527,0,0,0,160,98.862c-.623.171-1.242.355-1.865.532,1.252-.584,2.5-1.175,3.753-1.755,1.694-.784.465-3.782-1.284-3.049ZM79.685,140.57q1.965-1.225,3.93-2.449a1.88,1.88,0,0,0,.242.429q-2.072,1.036-4.169,2.02Zm7.5,9.745c.571-.313,1.142-.629,1.717-.939a1.727,1.727,0,0,0,.274.148C88.51,149.786,87.849,150.05,87.184,150.315Zm43.218-7.767q-11.215,5.465-22.408,10.978-3.4,1.68-6.806,3.362-4.845,1.38-9.694,2.746c.248-.142.5-.284.749-.423,12.546-5.9,25.244-11.575,38.155-16.664Z" transform="translate(-38.785 -44.76)" fill="#abd0f2"/>
    <path id="Path_17659" data-name="Path 17659" d="M238.49,81.834a6.913,6.913,0,0,1,1.3-.529c7.322-2.159,7.586,5.292,6.809,12.011q9.08-5.228,18.313-10.2,7.88-4.25,15.812-8.416c1.413-.742.419-3.256-1.11-2.63-.536.219-1.065.452-1.6.674.132-.813-.591-1.855-1.507-1.471-5.737,2.388-11.468,4.785-17.174,7.248l11.4-6.631a1.361,1.361,0,0,0,.449-2q1.331-.842,2.662-1.681c1.239-.781.455-3.053-1.046-2.481a269.475,269.475,0,0,0-26.031,11.752c-2.782,1.41-5.534,2.872-8.274,4.356Z" transform="translate(-174.047 -58.901)" fill="#abd0f2"/>
    <path id="Path_17660" data-name="Path 17660" d="M295.072,100.309c-11.01,5.479-22.036,10.984-32.827,16.9-.168,1.359-.371,2.675-.565,3.863q3.093-1.728,6.212-3.417,6.53-3.374,13.069-6.735,7.812-4.013,15.618-8.029C298.292,102,296.785,99.457,295.072,100.309Z" transform="translate(-189.754 -82.267)" fill="#abd0f2"/>
    <path id="Path_17661" data-name="Path 17661" d="M295.2,117.663c1.907-.884.245-3.621-1.639-2.8-11.31,4.921-22.369,10.375-33.289,16.1a43.087,43.087,0,0,0-.6,4.366,4.112,4.112,0,0,1-.065.549c1.71,1.462,6.7,1.036,10.51.752q7.149-4.032,14.369-7.929,8.3-4.492,16.631-8.906c1.5-.8.455-3.446-1.181-2.8a384.317,384.317,0,0,0-38.3,18.187c5.812-3.382,11.7-6.644,17.683-9.739q7.851-4.056,15.873-7.774Z" transform="translate(-188.352 -92.138)" fill="#abd0f2"/>
  </g>
  <path id="Path_17662" data-name="Path 17662" d="M457.283,221.577a9.656,9.656,0,0,1-.5,1.926,1.788,1.788,0,0,1-2.149,1.029,1.6,1.6,0,0,1-1.394-1.6,12.811,12.811,0,0,1,.132-2.859,2.133,2.133,0,0,1,2.385-1.978c1.058.139,1.542.855,1.578,2.336,0,.19-.016.384-.052,1.142Z" transform="translate(-306.971 -147.7)" fill="#262c54"/>
  <g id="Group_17164" data-name="Group 17164">
    <path id="Path_17663" data-name="Path 17663" d="M32.811,98.482a72.218,72.218,0,0,1,3.1-19.287,39.261,39.261,0,0,1,2.269-4.986A80.56,80.56,0,0,1,50.056,56.1c5.831-6.673,13.2-11.22,21.133-14.934a53.507,53.507,0,0,1,18.009-5.1,40.306,40.306,0,0,1,5.789-.09c6.16.345,12.343.558,18.345,2.214,8.122,2.243,16.022,5.028,23.192,9.571a35.2,35.2,0,0,1,12.243,13.272A103.611,103.611,0,0,1,159.39,91.8a5.716,5.716,0,0,1,.223,1.133,2.2,2.2,0,0,1-1.475,2.262,1.956,1.956,0,0,1-2.42-1.51c-.478-1.659-.645-3.408-1.087-5.079-2.653-9.994-5.528-19.916-11.385-28.626A30.415,30.415,0,0,0,132.5,50.056a76.934,76.934,0,0,0-27.838-9.316c-6.864-.8-13.85-1.546-20.723.287C72.431,44.1,62.041,49.272,53.87,58.084a59.832,59.832,0,0,0-13.689,22.6,61.8,61.8,0,0,0-3.33,20.355,51.535,51.535,0,0,0,4.634,20.733c.123.261.29.5.394.774.545,1.459.268,2.572-.739,3.02s-2.114.068-2.9-1.242a19.358,19.358,0,0,1-1.772-3.64,62,62,0,0,1-3.653-22.2Z" transform="translate(-22.218 -24.318)" fill="#262c54"/>
    <path id="Path_17664" data-name="Path 17664" d="M212.371,128.125c1.223.116,2.065.242,2.914.265,1.062.029,2.123-.052,3.185-.042,1.9.013,2.72.571,2.74,1.814.016,1.184-.855,2.143-2.585,2.168a42.925,42.925,0,0,1-7.757-.465c-2.611-.442-3.388-2.143-2.594-4.744.339-1.1.758-2.185,1.152-3.272,1.294-3.582,1.026-7.2.284-10.839-.387-1.907-1.643-2.678-3.4-3.027-2.007-.4-3.93-.368-5.276,1.375a5.1,5.1,0,0,0-.629,2.44c-.378,3.253-.61,6.522-1.062,9.761a14.606,14.606,0,0,1-4.679,9.1c-4.543,4.014-5.579,9.377-5.221,14.731.387,5.783.194,11.539.352,17.3.068,2.494.752,4.534,2.888,5.96a4.759,4.759,0,0,1,1.094.933,1.775,1.775,0,0,1,.274,2.365,1.935,1.935,0,0,1-2.3.762,5.892,5.892,0,0,1-1.768-.949,9.779,9.779,0,0,1-4.163-7.6c-.058-1.542,0-3.088-.055-4.631-.142-3.75-.274-7.5-.5-11.249a35.711,35.711,0,0,1,1.652-13.4,15.711,15.711,0,0,1,3.763-5.734,17.356,17.356,0,0,0,5.134-12.2c.058-2.114.416-4.221.545-6.334.248-4.1,2.549-6.341,6.87-6.783a17.711,17.711,0,0,1,6.509.955c2.5.729,3.44,3.014,3.947,5.321a23.925,23.925,0,0,1-.652,13.956c-.2.526-.345,1.071-.665,2.065Z" transform="translate(-125.438 -71.642)" fill="#262c54"/>
    <path id="Path_17665" data-name="Path 17665" d="M162.367,350.419c-4.792-.4-9.613-.616-14.369-1.268-4.573-.626-9.077-1.736-13.624-2.585-4.621-.862-8.732-3.014-12.917-4.986a3.5,3.5,0,0,1-2.336-3.056,2.718,2.718,0,0,1,.945-1.907,1.915,1.915,0,0,1,1.814.048c5.712,4.366,12.459,6.018,19.307,7.2,5.689.978,11.449,1.62,17.2,2.12a30.965,30.965,0,0,0,15.538-2.572c2.9-1.294,5.986-2.159,8.964-3.279a10.875,10.875,0,0,0,2.817-1.43c3.133-2.4,6.28-4.8,9.261-7.4a42.469,42.469,0,0,0,7.954-8.745c2-3.069,4.066-6.089,6.109-9.126.213-.316.423-.768.729-.865a4.222,4.222,0,0,1,2.127-.294,1.539,1.539,0,0,1,1.049,2.088,16.875,16.875,0,0,1-1.788,3.611c-3.479,5.215-7.028,10.391-11.559,14.783-1.107,1.071-2.32,2.039-3.524,3-2.478,1.991-4.95,3.992-7.5,5.9a14.961,14.961,0,0,1-3.488,2q-6.472,2.512-13.024,4.815a39.7,39.7,0,0,1-9.687,1.943Z" transform="translate(-80.681 -211.465)" fill="#262c54"/>
    <path id="Path_17666" data-name="Path 17666" d="M118.886,227.51c1.178.187,2.407.465,3.646.565a5.423,5.423,0,0,0,6.263-5.518c.071-2.214-.216-4.437-.229-6.657-.026-3.753.119-7.506.039-11.255-.09-4.143-.329-8.283-.568-12.42a1.867,1.867,0,0,0-1.51-1.9,30.567,30.567,0,0,0-5.4-.826c-2.123,0-4.363,2.782-4.553,5.305-.226,2.978-.39,5.963-.536,8.948-.1,2.062-.468,2.762-1.684,2.869-1.307.113-2.243-.842-2.343-2.717a49.245,49.245,0,0,1,.113-5.208c.077-1.442.29-2.875.39-4.318.271-4.017,3.091-7.79,6.954-8.677a15.346,15.346,0,0,1,10.1,1.417c1.736.823,2.281,2.652,2.475,4.372a75.158,75.158,0,0,1,.487,15.005c-.339,3.911.106,7.893.216,11.843.035,1.255.1,2.507.161,3.763a10.147,10.147,0,0,1-3.295,7.761,6.9,6.9,0,0,1-5.967,2.356c-1.914-.239-3.837-.41-5.744-.684a3.3,3.3,0,0,1-2.749-1.9,53.21,53.21,0,0,1-1.888-5.46,1.786,1.786,0,0,1,1.133-2.12,1.638,1.638,0,0,1,2.272.671c.794,1.41,1.381,2.94,2.217,4.779Z" transform="translate(-75.842 -125.546)" fill="#262c54"/>
    <path id="Path_17667" data-name="Path 17667" d="M.033,249.1a17.235,17.235,0,0,1,.019-2.31,1.645,1.645,0,0,1,1.814-1.517,2.875,2.875,0,0,1,1.743,1.217,4,4,0,0,1,.4,1.943c.526,8.748,3.443,16.77,7.486,24.434a80.788,80.788,0,0,0,13.618,18.655c6.915,7.112,14.67,13.124,23.866,17.1a16.123,16.123,0,0,1,2.552,1.336,1.825,1.825,0,0,1,.662,2.317,1.739,1.739,0,0,1-2.146,1.042,10.6,10.6,0,0,1-2.185-.729,75.464,75.464,0,0,1-19.268-12.175A87.973,87.973,0,0,1,7.4,273.87C3.363,266.1.568,257.92.033,249.1Z" transform="translate(0 -166.114)" fill="#262c54"/>
    <path id="Path_17668" data-name="Path 17668" d="M208.7-.014A83.54,83.54,0,0,1,242.02,7.712c7.861,3.646,15.131,8.177,21.059,14.6a63.82,63.82,0,0,1,4.276,5.46,9.3,9.3,0,0,1,1,2.068,1.562,1.562,0,0,1-.858,2.175,3.127,3.127,0,0,1-2.12-.2c-.468-.194-.8-.807-1.107-1.291-4.363-7.022-10.72-11.843-17.725-15.889A78.81,78.81,0,0,0,217.7,4.72c-5.854-.807-11.736-.933-17.525.684a4.227,4.227,0,0,1-1.978.265,2.974,2.974,0,0,1-1.778-1.149,1.626,1.626,0,0,1,.72-2.252,8.36,8.36,0,0,1,2.688-1.01C203.243.7,206.683.264,208.7-.02Z" transform="translate(-132.89 0.02)" fill="#262c54"/>
    <path id="Path_17669" data-name="Path 17669" d="M297.875,185.847a24.61,24.61,0,0,1-.958,3.524,3.07,3.07,0,0,0,.048,2.743,23.915,23.915,0,0,1,.978,2.72,7.1,7.1,0,0,1-.568,6.4,8.059,8.059,0,0,0-1.336,5.473,6.485,6.485,0,0,1-2.381,6.2,3.868,3.868,0,0,0-1.329,3.337,15.134,15.134,0,0,1-.545,3.979,5.679,5.679,0,0,1-4.3,4.285c-2.817.6-5.666,1.046-8.519,1.452a5.385,5.385,0,0,1-2.265-.313c-1.417-.442-1.994-1.4-1.7-2.581a1.947,1.947,0,0,1,2.5-1.378c2.569.51,4.96-.261,7.425-.662,2.581-.416,3.066-1.707,3.356-3.995a10.065,10.065,0,0,0,0-1.736,5.116,5.116,0,0,1,1.859-4.64,4.534,4.534,0,0,0,1.6-5.418,3.67,3.67,0,0,1,.591-3.521c.219-.316.41-.655.639-.965a5.168,5.168,0,0,0,.245-6.438,5.6,5.6,0,0,1-.232-6.273,5.461,5.461,0,0,0,.626-2.472c.11-3.353-.994-4.553-4.3-4.876a15.659,15.659,0,0,1-2.556-.345,1.482,1.482,0,0,1-1.171-1.755,5.548,5.548,0,0,1,.974-1.642c.042-.065.174-.071.261-.11,3.427-1.588,9.429,1.233,10.355,4.911.3,1.207.426,2.459.7,4.088Z" transform="translate(-186.209 -119.463)" fill="#262c54"/>
    <path id="Path_17670" data-name="Path 17670" d="M356.256,389.974a18.757,18.757,0,0,1-1.271,2.349,36.462,36.462,0,0,1-8.584,7.7c-3,2.1-6.118,4.04-9.21,6.005a11.686,11.686,0,0,1-2.1.933,1.784,1.784,0,0,1-2.236-.845,1.877,1.877,0,0,1,.536-2.565c1.584-1.094,3.243-2.085,4.879-3.1a63.4,63.4,0,0,0,11.823-8.774,35.577,35.577,0,0,1,2.772-2.924,2.662,2.662,0,0,1,2.107-.31C355.462,388.573,355.772,389.358,356.256,389.974Z" transform="translate(-225.244 -263.024)" fill="#262c54"/>
    <path id="Path_17671" data-name="Path 17671" d="M.1,169.581a14.986,14.986,0,0,1,.2-1.655c.9-4.04,1.8-8.077,2.746-12.1a7.782,7.782,0,0,1,.842-2.136,1.74,1.74,0,0,1,2.207-.9,1.956,1.956,0,0,1,1.375,2,9.075,9.075,0,0,1-.355,1.681c-.858,3.753-1.739,7.5-2.559,11.259a29.9,29.9,0,0,0-.387,3.14c-.113,1.058-.526,1.862-1.694,2.007a2.083,2.083,0,0,1-2.262-1.784,10.315,10.315,0,0,1-.11-1.5Z" transform="translate(-0.068 -103.394)" fill="#262c54"/>
    <path id="Path_17672" data-name="Path 17672" d="M82.648,345.011c-.394.526-.678,1.246-1.194,1.5a2.8,2.8,0,0,1-1.862-.035,2.505,2.505,0,0,1-1.042-.962c-2.7-3.63-5.4-7.264-8.051-10.93a4.038,4.038,0,0,1-.949-2.059,3.59,3.59,0,0,1,.9-2.233c.574-.623,1.891-.226,2.556.552.184.216.29.5.458.732q2.943,4.1,5.9,8.2c.791,1.094,1.63,2.152,2.378,3.272a14.2,14.2,0,0,1,.91,1.955Z" transform="translate(-47.107 -223.498)" fill="#262c54"/>
    <path id="Path_17673" data-name="Path 17673" d="M415.34,238.679c-.529,2.93-.949,5.392-1.423,7.845-.384,1.981-.826,3.953-1.265,5.921a8.313,8.313,0,0,1-.523,1.649,2.259,2.259,0,0,1-2.756,1.5c-.942-.336-1.394-1.223-1.1-2.665.645-3.2,1.407-6.383,2.078-9.581.355-1.691.536-3.424.955-5.1.381-1.517,1.743-2.281,2.8-1.533.665.468.949,1.475,1.233,1.955Z" transform="translate(-276.467 -160.13)" fill="#262c54"/>
    <path id="Path_17674" data-name="Path 17674" d="M430.08,125.958c.113-1.149.461-2.017,1.61-2.227a1.872,1.872,0,0,1,2.249,1.365c1.339,3.811,2.665,7.625,3.93,11.462a3.19,3.19,0,0,1-.006,1.949,1.857,1.857,0,0,1-3.259.39,2.736,2.736,0,0,1-.42-.752q-1.922-5.441-3.817-10.894a10.2,10.2,0,0,1-.287-1.3Z" transform="translate(-291.297 -83.77)" fill="#262c54"/>
    <path id="Path_17675" data-name="Path 17675" d="M23.9,101.722a12.527,12.527,0,0,1,.645-2.275q1.747-3.316,3.637-6.551a4.087,4.087,0,0,1,1.407-1.41,1.777,1.777,0,0,1,2.736,1.723,4.321,4.321,0,0,1-.529,1.613c-1.246,2.378-2.53,4.737-3.8,7.106-.09.171-.171.345-.271.51-.571.923-1.446,1.475-2.42.975-.639-.329-1-1.187-1.4-1.691Z" transform="translate(-16.188 -61.766)" fill="#262c54"/>
    <path id="Path_17676" data-name="Path 17676" d="M236.027,314.244c1.149,0,2.307-.084,3.446.023a2.146,2.146,0,0,1,2.085,1.988,2.1,2.1,0,0,1-2.11,1.946c-2,.113-4.021.065-6.031.071a3.035,3.035,0,0,1-.852-.119,2.123,2.123,0,0,1-1.788-1.972,2.064,2.064,0,0,1,2.094-1.939,16.191,16.191,0,0,1,1.723.029c.478.006.958,0,1.436,0v-.026Z" transform="translate(-156.307 -212.813)" fill="#262c54"/>
    <path id="Path_17677" data-name="Path 17677" d="M416.765,362.208c-1.336.019-2.494-.958-2.207-1.943a12.977,12.977,0,0,1,1.833-3.779,2.314,2.314,0,0,1,2.033-.4,1.969,1.969,0,0,1,1.042,1.488,5.835,5.835,0,0,1-1.891,4.3,1.806,1.806,0,0,1-.813.339Z" transform="translate(-280.754 -241.125)" fill="#262c54"/>
    <path id="Path_17678" data-name="Path 17678" d="M114.63,274.426a2.308,2.308,0,0,1,2.01-2.527,2.261,2.261,0,0,1,2.159,2.256,7.41,7.41,0,0,1-.339,2.511,1.847,1.847,0,0,1-3.608-.4c-.077-.568-.136-1.136-.219-1.839Z" transform="translate(-77.64 -184.153)" fill="#262c54"/>
  </g>
</svg>
