<svg id="_17" data-name="17" xmlns="http://www.w3.org/2000/svg" width="151.94" height="151.962" viewBox="0 0 151.94 151.962">
  <g id="Group_17165" data-name="Group 17165" transform="translate(13.792 16.496)">
    <path id="Path_17679" data-name="Path 17679" d="M328.3,189.406c-6.867,2.7-13.711,5.466-20.5,8.354q10.383-5.944,20.765-11.885c2.13-1.22.248-4.389-1.914-3.275q-9.589,4.942-19.184,9.868c-1.181,10-8.138,20.407-14.244,26.851-1.5,1.581-3.14,3.269-4.892,4.915q10.523-5.47,21.285-10.475c5.211-2.44,10.442-4.834,15.676-7.228,1.965-.9.571-4.243-1.481-3.511-6.935,2.475-13.782,5.166-20.575,8q5.455-2.715,10.913-5.431c6.431-3.2,12.869-6.393,19.336-9.523a11.334,11.334,0,0,1-.523-3.924q-7.628,2.328-15.1,5.076,5.779-2.585,11.552-5.179c1.471-.662.413-3.23-1.11-2.633Z" transform="translate(-209.077 -140.018)" fill="#eb8486"/>
    <path id="Path_17680" data-name="Path 17680" d="M238.047,166.536a32.3,32.3,0,0,0,3.279-3.036q-3.354,1.8-6.705,3.6c.868.642,1.81.684,3.43-.565Z" transform="translate(-172.699 -127.239)" fill="#eb8486"/>
    <path id="Path_17681" data-name="Path 17681" d="M186.883,94.564a17.03,17.03,0,0,1,8.154,3.708,2.8,2.8,0,0,1,.936,1.313,28.36,28.36,0,0,1,3.8,3.191c.736.739,1.3,1.462,1.833,2.023,7.551-5.076,15.312-9.845,23.163-14.457q6.927-4.071,13.908-8.045c2.03-1.158.248-4.043-1.8-3.085-8.306,3.879-16.489,7.993-24.6,12.253q5.1-2.919,10.242-5.779c5.586-3.1,11.2-6.157,16.806-9.213,2.1-1.142.255-4.124-1.843-3.153q-16.956,7.841-33.434,16.638,3.693-2.348,7.4-4.673,7.4-4.632,14.818-9.219c2.13-1.32.213-4.64-1.972-3.372Q205.562,83.581,186.88,94.564Z" transform="translate(-140.364 -65.544)" fill="#eb8486"/>
    <path id="Path_17682" data-name="Path 17682" d="M315.712,131.839a18.871,18.871,0,0,1,4.414,14.334c.223-.123.445-.248.671-.371q7.667-4.192,15.373-8.319c1.791-.965.532-4.185-1.417-3.362-.145.061-.29.129-.439.19v0a.384.384,0,0,1-.052.026c-3.6,1.523-7.177,3.107-10.736,4.721q8.8-4.463,17.661-8.826c1.83-.907.552-3.863-1.384-3.282-5.812,1.749-11.527,3.756-17.174,5.944,1.739-.781,3.482-1.559,5.218-2.346a53.121,53.121,0,0,0,7.738-3.869.95.95,0,0,0-.729-1.726,38.572,38.572,0,0,0-7.173,2.185c-2.236.836-4.45,1.726-6.66,2.63q7.125-3.906,14.279-7.751c2.085-1.126.248-4.192-1.846-3.156-3.1,1.53-6.186,3.1-9.258,4.7,2.6-1.568,5.2-3.149,7.8-4.708,1.665-1,.571-4.011-1.375-3.256-8.106,3.149-16,6.754-23.747,10.652a18.413,18.413,0,0,1,8.829,5.6Z" transform="translate(-221.641 -94.706)" fill="#eb8486"/>
    <path id="Path_17683" data-name="Path 17683" d="M163.835,116.645c-14.253,6.5-28.487,13.04-42.747,19.523-3.895,3.55-8.309,6.789-12.985,8.193-7.467,2.243-13.172-4.308-18-8.871-5.941-5.615-12.52-10.2-16.509-17.561a43.718,43.718,0,0,1-2.672-5.947q-3.369,1.96-6.641,4.072,3.233-2.28,6.467-4.553A33.307,33.307,0,0,1,68.913,96.4c1.329-10.284,10.465-17.4,19.716-16.335q11.06-7.643,22.5-14.728,7.527-4.652,15.212-9.045c1.959-1.12.226-4.043-1.762-3.014q-3.558,1.844-7.083,3.74a1.814,1.814,0,0,0-2.456-2.4c-17.7,8.383-34.476,18.484-51,28.965C73.2,76.361,82.9,69.81,92.721,63.524c4.679-2.995,9.39-5.938,14.1-8.877a1.911,1.911,0,0,0-1.926-3.3c-3.614,1.743-7.16,3.608-10.662,5.547.784-.507,1.562-1.026,2.352-1.523,2.2-1.388.229-4.8-2.046-3.5q-8.006,4.6-16.015,9.2,3.1-2.256,6.273-4.418c2.207-1.5.271-4.934-2.114-3.614A176.278,176.278,0,0,0,58.8,69.087a1.479,1.479,0,0,0-.029,2.359q-1.738,1.505-3.446,3.043c-1.784,1.607.5,4.443,2.527,3.275l4.2-2.43q-2.633,2.149-5.221,4.347c-3.414,2.9-6.78,5.87-10.058,8.926-1.388,1.294.084,3.688,1.691,3.356-1.772,1.662-3.521,3.35-5.224,5.082-1.449,1.475.445,4.13,2.265,2.936C55.983,93.1,66.451,86.212,77.1,79.623q-6.956,4.986-13.766,10.168Q56.31,95.149,49.461,100.73a1.729,1.729,0,0,0-.352.4c-1.833,1.117-3.656,2.246-5.453,3.4a1.765,1.765,0,0,0,1.781,3.046q1.07-.513,2.136-1.023a31.277,31.277,0,0,0-3.421,2.962,1.076,1.076,0,0,0,1.3,1.681,91.164,91.164,0,0,0,9.061-5.7q2.469-1.612,4.982-3.156c-5.089,4.266-10.074,8.674-14.815,13.314a1.862,1.862,0,0,0,1.3,3.146,18.7,18.7,0,0,0,1.962-.181c-.119.081-.239.158-.358.242-1.956,1.355-.187,4.524,1.891,3.237.236-.145.471-.287.707-.432-.142.1-.29.2-.432.307-1.291.936-1,3.327.881,3.25.465-.019.92-.074,1.375-.136a1.672,1.672,0,0,0-.555.887,3.588,3.588,0,0,0-1.878,1.968c-.065.039-.129.081-.194.119a.505.505,0,0,0,.51.871c.055-.026.11-.048.165-.074.871.368,2.078-.132,3.133-.684a1.828,1.828,0,0,0,1.117-.171c3.285-1.652,6.583-3.279,9.881-4.9l-.323.252c-1.985,1.168-3.972,2.323-5.95,3.5a1.626,1.626,0,0,0-.771,2.02c-2.12,1.826-4.211,3.688-6.244,5.6a1.816,1.816,0,0,0,2.191,2.84q4.5-2.793,9.019-5.534,2.391-1.176,4.782-2.359-5.242,3.117-10.487,6.231a1.767,1.767,0,0,0,.613,3.249c-.436.248-.871.49-1.307.739-1.91,1.091-.2,4.008,1.723,2.946.1-.058.207-.113.31-.168a1.659,1.659,0,0,0,2.414,1.894q9.637-4.656,19.268-9.332-10.688,6.394-21.369,12.808c.945.807,1.843,1.665,2.707,2.559q6.2-3.229,12.395-6.457c-1.123.923-2.236,1.862-3.327,2.833a1.443,1.443,0,0,0-.3,2c-2.21,1.3-4.4,2.64-6.57,4,.787.891,1.568,1.8,2.362,2.717Q77.283,148.406,89.7,142.17c-.445.313-.894.623-1.336.939-5.144,2.949-10.245,5.976-15.25,9.152a2,2,0,0,0,.7,3.659q-1.312.905-2.6,1.852a1.739,1.739,0,0,0-.7,2.139,1.694,1.694,0,0,0,2.023.994l.41-.174h0q7.348-3.093,14.689-6.2a1.883,1.883,0,0,0,1.462.165,166.569,166.569,0,0,0-13.421,9.919,30.777,30.777,0,0,0,3.659,1.8l10.981-4.7a.826.826,0,0,0,.045.113,2.027,2.027,0,0,0,.136.19q-1.878,1.1-3.759,2.207c-1.581.933-.526,3.817,1.3,3.078q4.2-1.7,8.4-3.408a2.019,2.019,0,0,0-.116,1.036c-.1.11-.2.216-.29.329a1.658,1.658,0,0,0,1.6,2.746,53.388,53.388,0,0,0,5.676-1.271c-.274,1.3.829,2.946,2.317,2.336l14.327-5.847q-4.729,2.58-9.461,5.16c-1.9,1.036-.594,4.4,1.51,3.579.407-.158.81-.319,1.213-.478-.136.084-.274.161-.41.245a1.738,1.738,0,0,0-.874,1.349,26.647,26.647,0,0,0,7.738-.59c1.675-.8,3.343-1.617,4.986-2.478,3.256-1.71,6.486-3.669,9.836-5.163a.577.577,0,0,0,.332-.762q7.382-3.679,14.928-7.022c1.978-.874.552-4.327-1.488-3.527q-4.7,1.844-9.41,3.685l11.639-6.415a1.98,1.98,0,0,0,.055-3.237q3.461-1.515,6.941-2.991c1.956-.829.552-4.208-1.459-3.459l-5.463,2.033c.136-.068.271-.126.4-.2a12.479,12.479,0,0,0,1.613-1.2.855.855,0,0,0-.655-1.555,13.516,13.516,0,0,0-1.73.281c-.552.174-1.094.423-1.633.636-.933.371-1.855.762-2.785,1.142-1.907.781-3.821,1.549-5.715,2.356q-4.216,1.8-8.413,3.653,6.743-3.756,13.482-7.515l13.137-7.319c1.936-1.078.552-3.627-1.323-3.343l1.281-.649c2.181-1.1.268-4.2-1.891-3.237q-8.664,3.872-17.332,7.735l9.387-4.947,17.325-9.135c2.156-1.139.265-4.2-1.885-3.224ZM59.858,107.258c-.729.481-1.452.971-2.175,1.459.978-.874,1.952-1.749,2.936-2.614a1.8,1.8,0,0,0,.755.187C60.871,106.616,60.358,106.926,59.858,107.258Zm22.972,33.65q2.328-1.641,4.718-3.191a1.858,1.858,0,0,0,.068,1.094l-4.789,2.1Zm27.525,14.841c-.307.168-.61.339-.916.507a1.363,1.363,0,0,0-1.039-.642q5.649-2.522,11.3-5.04Q115.03,153.163,110.356,155.749Z" transform="translate(-42.729 -51.129)" fill="#eb8486"/>
    <path id="Path_17684" data-name="Path 17684" d="M292.615,117.569q3.108-1.66,6.215-3.324l15.254-8.161c2.068-1.107.236-4.227-1.836-3.14-8.784,4.608-17.587,9.232-26.257,14.076A17.4,17.4,0,0,1,292.615,117.569Z" transform="translate(-207.492 -86.071)" fill="#eb8486"/>
  </g>
  <g id="Group_17166" data-name="Group 17166">
    <path id="Path_17685" data-name="Path 17685" d="M163.5,134.2a94.47,94.47,0,0,1-5.75,30.788,72.334,72.334,0,0,1-8.161,15.266,23.238,23.238,0,0,1-2.4,2.888c-1.194,1.265-2.53,2.394-3.692,3.685-7,7.745-16.1,11.414-26.035,13.459a43.1,43.1,0,0,1-13.553.248c-2.588-.287-5.186-.487-7.777-.755a73.358,73.358,0,0,1-21.8-5.492,28.45,28.45,0,0,1-4.114-2.117c-3.485-2.256-6.948-4.55-10.323-6.967a26.878,26.878,0,0,1-3.775-3.553,96.065,96.065,0,0,1-7.373-8.158,53.563,53.563,0,0,1-8.351-15.137,134.023,134.023,0,0,1-4.337-15.292c-1.41-6.96-.674-13.831.484-20.7a10.1,10.1,0,0,1,1.016-2.7,1.814,1.814,0,0,1,2.436-.968,1.867,1.867,0,0,1,1.165,2.356c-.226,1.033-.578,2.043-.791,3.078-2.036,9.929-.658,19.529,2.5,29.045a66.229,66.229,0,0,0,6.986,14.876,26.616,26.616,0,0,0,2.743,3.724c4.427,4.815,8.687,9.7,14.34,13.343,5.082,3.279,10.136,6.36,15.973,7.954a91.8,91.8,0,0,0,19.374,3.227c2.795.148,5.586.558,8.374.5a41.537,41.537,0,0,0,25.318-8.69,53.049,53.049,0,0,0,17.261-22.795,86.145,86.145,0,0,0,5.889-24.957c.774-10.639-.378-20.952-6.212-30.394A71.039,71.039,0,0,0,142.852,96.6a41.148,41.148,0,0,1-2.778-3.33,1.962,1.962,0,0,1-.116-2.646,2.11,2.11,0,0,1,2.882-.252,3.686,3.686,0,0,1,.878.749c3.414,4.179,7.141,8.151,10.142,12.608,4.1,6.089,7.645,12.569,8.606,20.049.49,3.824.768,7.67,1.036,10.429Z" transform="translate(-23.895 -60.914)" fill="#262c54"/>
    <path id="Path_17686" data-name="Path 17686" d="M153.921,143.022a17.389,17.389,0,0,1,7.912-6.718c5.786-2.472,11.649-2.281,17.532-.368.549.177,1.065.461,1.607.658,6.36,2.285,9.435,7.131,10.226,13.534,1.333,10.8-2.046,20.368-8.035,29.174a17.914,17.914,0,0,1-2.343,2.562c-2.2,2.168-4.34,4.414-6.676,6.428a90.473,90.473,0,0,1-7.335,5.625c-3.243,2.262-6.573,4.4-9.907,6.528a7.339,7.339,0,0,1-8.216,0c-1.73-1.039-3.343-2.272-4.992-3.443-1.181-.839-2.349-1.7-3.485-2.594a7.771,7.771,0,0,1-1.646-1.588,2.165,2.165,0,0,1,.407-2.875,1.971,1.971,0,0,1,2.643.161c1.8,1.459,3.569,2.956,5.418,4.347,1.229.926,2.572,1.7,3.869,2.533a3.487,3.487,0,0,0,3.843,0c1.755-1.01,3.492-2.062,5.173-3.195,2.562-1.726,5.1-3.492,7.59-5.324a49.273,49.273,0,0,0,4.214-3.511c2.056-1.9,4.024-3.895,6.041-5.837a29.662,29.662,0,0,0,6.857-10.959c2.043-5.266,3.275-10.733,2.6-16.425a26.044,26.044,0,0,0-1.565-6.125,8.652,8.652,0,0,0-4.414-4.427,21.119,21.119,0,0,0-14.586-2.159c-4.5.981-7.97,3.337-9.978,7.6a6.8,6.8,0,0,1-.836,1.51,2.49,2.49,0,0,1-3.995-.045,20.907,20.907,0,0,1-1.6-2.749,21.136,21.136,0,0,0-6.128-7.225,11.691,11.691,0,0,0-6.98-2.449c-.965,0-1.936.029-2.9-.055-4.611-.4-7.932,1.868-10.778,5.147-6.47,7.451-6.257,15.789-3.22,24.489.445,1.275,1.1,2.481,1.462,3.772a3.439,3.439,0,0,1-.181,2.172,1.543,1.543,0,0,1-2.456.487,3.615,3.615,0,0,1-1.113-1.3c-3.808-8.561-5.625-17.283-1.546-26.28a23.84,23.84,0,0,1,10.462-11.255,4.1,4.1,0,0,1,1.055-.471c8.738-1.91,16.283-1.265,22.443,5.944,1.236,1.446,2.3,3.04,3.543,4.7Z" transform="translate(-77.276 -89.039)" fill="#262c54"/>
    <path id="Path_17687" data-name="Path 17687" d="M-.007,72.169c1.033-9.739,2.778-18.7,6.944-27.032.129-.258.232-.532.378-.784C14.292,32.307,22.3,21.2,34.189,13.368c8.122-5.35,16.57-9.942,26.135-12.04A79.645,79.645,0,0,1,70.085.318c1.439-.132,2.882-.187,4.324-.3,1.352-.1,2.21.384,2.423,1.465a1.8,1.8,0,0,1-1.288,2.281,13.974,13.974,0,0,1-3.679.558A58.747,58.747,0,0,0,61.5,5.191c-4.918.878-9.41,2.933-13.827,5.066-11.117,5.366-20.849,12.62-28.1,22.7-4.5,6.251-8.893,12.624-11.533,20a77.314,77.314,0,0,0-3.14,13.2c-.323,1.9-.5,3.824-.762,5.734a3.627,3.627,0,0,1-.407,1.665C3.3,74.115,2.588,74.783,2,74.776A2.672,2.672,0,0,1,.3,73.534,2.737,2.737,0,0,1-.01,72.169Z" transform="translate(0.01 -0.008)" fill="#262c54"/>
    <path id="Path_17688" data-name="Path 17688" d="M398.354,211.185c-.481,4.5-.833,9.019-1.475,13.5-.82,5.718-1.659,11.449-2.866,17.093a57.313,57.313,0,0,1-12.133,24.689,48.566,48.566,0,0,1-13.224,11.565c-.336.19-.655.413-1,.587-1.62.833-2.833.6-3.472-.658-.581-1.139-.126-2.2,1.375-3.007a45.611,45.611,0,0,0,16.6-15.773,57.748,57.748,0,0,0,8.971-23.6q1.51-10.581,2.888-21.181c.187-1.43.094-2.891.2-4.337a19.653,19.653,0,0,1,.4-2.849,1.768,1.768,0,0,1,2.1-1.526,1.923,1.923,0,0,1,1.707,2.03,28.269,28.269,0,0,1-.219,3.453C398.257,211.175,398.306,211.178,398.354,211.185Z" transform="translate(-246.499 -139.302)" fill="#262c54"/>
    <path id="Path_17689" data-name="Path 17689" d="M108.751,40.914a2.2,2.2,0,0,1,2.43,1.494,1.856,1.856,0,0,1-1.1,2.146,11.733,11.733,0,0,1-2.452.826A91.637,91.637,0,0,0,91.99,50.563c-6.534,2.92-11.627,7.557-16.064,12.985-2.433,2.975-5.069,5.841-6.58,9.487A1.81,1.81,0,0,1,67,74.2a2.057,2.057,0,0,1-1.346-2.562,10.936,10.936,0,0,1,1.436-3.13,75.453,75.453,0,0,1,13.417-15.5c6.412-5.453,14.047-8.338,22.014-10.526,2.139-.587,4.3-1.087,6.231-1.572Z" transform="translate(-44.406 -27.713)" fill="#262c54"/>
    <path id="Path_17690" data-name="Path 17690" d="M35.289,343.117c-.019-1.449.694-2.436,1.723-2.546a2.005,2.005,0,0,1,2.168,1.539c.4,1.081.662,2.217,1.052,3.3a23.611,23.611,0,0,0,5.715,8.274c3.011,3.114,6.183,6.073,9.287,9.1.139.135.307.239.436.378.945,1.01,1.158,2.049.587,2.856a2.019,2.019,0,0,1-3.069.265,50.661,50.661,0,0,1-5.744-4.837c-2.617-2.691-5.076-5.55-7.474-8.448a20.437,20.437,0,0,1-4.372-8.709c-.1-.468-.242-.926-.307-1.175Z" transform="translate(-23.898 -230.665)" fill="#262c54"/>
    <path id="Path_17691" data-name="Path 17691" d="M290.118,4.824c.187.048.371.1.558.152,7.712,2.21,15.208,4.94,22.011,9.306.161.1.329.2.481.323,1.271,1,1.578,1.968.929,2.943-.665,1-1.549,1.152-3.056.468a13.686,13.686,0,0,1-1.778-.962c-5.66-3.621-11.917-5.825-18.3-7.741a10.244,10.244,0,0,1-2.156-.791,1.889,1.889,0,0,1-1-2.43,1.982,1.982,0,0,1,2.317-1.268Z" transform="translate(-194.837 -3.255)" fill="#262c54"/>
    <path id="Path_17692" data-name="Path 17692" d="M282.208,451.533a2.849,2.849,0,0,1-1.258-.174,2.628,2.628,0,0,1-1.217-1.4,2.688,2.688,0,0,1,.678-1.743,2.335,2.335,0,0,1,1.265-.629q6.288-1.559,12.588-3.062a1.894,1.894,0,0,1,2.436.978,1.915,1.915,0,0,1-.749,2.523,4.938,4.938,0,0,1-1.765.936c-3.55.855-7.115,1.642-10.678,2.44A11.748,11.748,0,0,1,282.208,451.533Z" transform="translate(-189.454 -301.017)" fill="#262c54"/>
    <path id="Path_17693" data-name="Path 17693" d="M289.937,47.013a15.735,15.735,0,0,1,1.994.658c3.088,1.565,6.18,3.137,9.226,4.779a3.706,3.706,0,0,1,1.626,1.555,2.411,2.411,0,0,1-.155,2.072,2.637,2.637,0,0,1-1.994.649c-.61-.039-1.187-.587-1.784-.9q-4.23-2.193-8.461-4.382a11.605,11.605,0,0,1-1.513-.826,1.7,1.7,0,0,1-.668-2.278c.381-.626,1.226-.968,1.726-1.333Z" transform="translate(-195.053 -31.843)" fill="#262c54"/>
    <path id="Path_17694" data-name="Path 17694" d="M150.967,281.178a8.829,8.829,0,0,1-1.594-.771c-2.133-1.639-4.272-3.279-6.318-5.024a9.416,9.416,0,0,1-1.946-2.465,1.771,1.771,0,0,1,.4-2.362,1.789,1.789,0,0,1,2.4-.016c2.733,2.269,5.473,4.537,8.106,6.918,1.129,1.023,1.1,2.168.2,3.02a5.737,5.737,0,0,1-1.246.7Z" transform="translate(-95.38 -182.934)" fill="#262c54"/>
    <path id="Path_17695" data-name="Path 17695" d="M394.156,64.44a15.423,15.423,0,0,1,2.285,1.4c1.868,1.659,3.672,3.391,5.479,5.118a1.811,1.811,0,0,1,.484,2.556,2.18,2.18,0,0,1-2.83.565,3.788,3.788,0,0,1-.975-.61c-1.885-1.784-3.763-3.575-5.618-5.4a1.844,1.844,0,0,1-.42-2.365c.307-.5.965-.784,1.588-1.262Z" transform="translate(-265.702 -43.648)" fill="#262c54"/>
    <path id="Path_17696" data-name="Path 17696" d="M208.227,460.377a32.1,32.1,0,0,1-3.356-1.478,1.828,1.828,0,0,1-.739-2.5,1.785,1.785,0,0,1,2.178-.978,14.137,14.137,0,0,1,2.911,1.146,1.689,1.689,0,0,1,.9,2.4C209.769,459.587,208.888,459.906,208.227,460.377Z" transform="translate(-138.109 -308.415)" fill="#262c54"/>
    <path id="Path_17697" data-name="Path 17697" d="M240.041,41.244A10.618,10.618,0,0,1,237.35,39.9,2.378,2.378,0,0,1,237,37.84a1.99,1.99,0,0,1,1.52-1.007,10.911,10.911,0,0,1,3.1.4,1.8,1.8,0,0,1,1.471,2.139c-.158,1.152-1,1.539-2.059,1.591-.287.013-.574,0-.862,0-.042.09-.087.184-.129.274Z" transform="translate(-160.459 -24.945)" fill="#262c54"/>
  </g>
</svg>
