<svg id="_18" data-name="18" xmlns="http://www.w3.org/2000/svg" width="148.429" height="132.006" viewBox="0 0 148.429 132.006">
  <g id="Group_17167" data-name="Group 17167" transform="translate(12.19 1.872)">
    <path id="Path_17698" data-name="Path 17698" d="M203.261,284.682c-2,.794-3.985,1.62-5.967,2.462q1.341-.939,2.682-1.875c1.336-.933.555-3.569-1.2-2.856q-1.423.576-2.849,1.168a1.333,1.333,0,0,0-1.885-.884c-3.3,1.53-6.589,3.1-9.894,4.634,1.565-1.1,3.13-2.2,4.7-3.288a1.427,1.427,0,0,0-1.439-2.462c-1.752.878-3.514,1.736-5.273,2.6.426-.323.849-.652,1.278-.971a1.412,1.412,0,0,0-1.423-2.436q-2.861,1.491-5.715,3a1.434,1.434,0,0,0-1.736-2.239q-1.5.707-2.991,1.407l.261-.194c1.51-1.116.152-3.64-1.51-2.582-3.93,2.5-7.893,4.947-11.823,7.444a1.12,1.12,0,0,0-.42,1.494l-.9.658a1.564,1.564,0,0,0,1.578,2.7c1.3-.616,2.588-1.255,3.879-1.881-.358.281-.723.555-1.078.836-1.388,1.1.384,3.22,1.849,2.4,1.294-.729,2.6-1.436,3.9-2.143a1.571,1.571,0,0,0,2.081,2.239c.2-.1.394-.2.591-.3-.9,1.113.7,2.823,2.03,2.107,1.188-.642,2.388-1.255,3.595-1.859a1.678,1.678,0,0,0,2.378,2.01c1.171-.658,2.343-1.3,3.521-1.946a1.654,1.654,0,0,0,1.875,2.7c1.265-.571,2.54-1.12,3.814-1.672a1.666,1.666,0,0,0,2.149,2.417,5.051,5.051,0,0,0,.929-.607c4.74-3.066,9.387-6.3,14.211-9.229,1.442-.875.5-3.514-1.2-2.843Z" transform="translate(-118.144 -191.461)" fill="#eb8486"/>
    <path id="Path_17699" data-name="Path 17699" d="M190.307,187.232c-.623.352-1.249.7-1.872,1.052a1.628,1.628,0,0,0-2.411-1.733c-.181.106-.361.21-.545.316a1.72,1.72,0,0,0-2.53-1.278q-7.348,4.1-14.666,8.251,7.241-5.232,14.489-10.449c1.684-1.207.155-3.985-1.655-2.83q-3.393,2.164-6.8,4.311a1.527,1.527,0,0,0-2.2-1.042q-6.752,3.354-13.334,7.028c.271-.155.539-.313.81-.468a61.235,61.235,0,0,0,7.228-4.376c.684-.532.232-1.517-.465-1.759l1.139-.8c1.7-1.191.181-3.937-1.655-2.83L148.3,191.2c.942-.671,1.885-1.342,2.8-2.046,1.133-.865,2.607-1.82,3.233-3.143a.644.644,0,0,0-.116-.758q2.415-1.926,4.831-3.853c1.459-1.162-.432-3.566-1.988-2.575l-10.439,6.664q1.055-.837,2.11-1.672c1.381-1.087-.4-3.3-1.862-2.411q-6.351,3.882-12.727,7.716c1.71-1.349,3.446-2.662,5.228-3.921,1.675-1.184.148-3.937-1.636-2.8q-1.747,1.113-3.491,2.23a1.506,1.506,0,0,0-2.1-1.755l-.536.271a1.408,1.408,0,0,0-1.823-.484,56.335,56.335,0,0,0-8.661,5.115c-2.075,1.229-4.15,2.462-6.2,3.727a1.539,1.539,0,0,0,1.552,2.656c.468-.242.936-.487,1.407-.729a1.625,1.625,0,0,0,.148-.077q1.81-.939,3.621-1.881l-7.044,5.779c-1.371,1.126.407,3.379,1.888,2.446q1.568-.987,3.133-1.981c-.168.171-.345.329-.513.5a1.628,1.628,0,0,0,1.962,2.546q2.086-1.278,4.169-2.559c-2.3,1.791-4.611,3.575-6.906,5.379-1.5,1.181.445,3.663,2.039,2.643q5.9-3.78,11.8-7.564-5.944,4.739-11.885,9.481c-1.475,1.178.423,3.53,1.994,2.582.574-.345,1.149-.694,1.723-1.039a3.3,3.3,0,0,0-1.368,2.388.67.67,0,0,0,.481.629c1.262.307,2.465-.81,3.427-1.542-.471.445-.945.884-1.41,1.333-1.291,1.252.461,3.692,1.975,2.559.542-.407,1.1-.8,1.642-1.2a1.713,1.713,0,0,0,2.478,1.8c3.343-2.065,6.67-4.156,10.01-6.228a1.712,1.712,0,0,0,1.381,2.23c-.168.123-.336.242-.5.368-1.7,1.268-.223,4.05,1.71,2.924q5.136-2.991,10.268-5.992a1.682,1.682,0,0,0,2.481.994c2.272-1.255,4.534-2.533,6.793-3.814l-5.55,3.911a1.735,1.735,0,0,0,1.749,2.995q2.478-1.234,4.953-2.472a1.777,1.777,0,0,0-.258,1.839,1.817,1.817,0,0,0,2.172,1.068c.148-.061.29-.126.439-.19v0l.016-.01q2.8-1.186,5.534-2.5a1.754,1.754,0,0,0,.471.358c-.019.013-.039.029-.058.042a1.805,1.805,0,0,0-.726,2.22,1.755,1.755,0,0,0,2.1,1.029c.261-.107.523-.21.781-.316a1.854,1.854,0,0,0,2.223,1.559l1.623-.355a1.682,1.682,0,0,0,1.907.1c.381-.281.758-.565,1.139-.845a1.827,1.827,0,0,0-.158-3.127c.1-.107.21-.213.313-.316a1.882,1.882,0,0,0,.132-2.31q1.631-1.171,3.256-2.349a1.8,1.8,0,0,0,.042-3.056c.323-.213.645-.423.965-.639a1.982,1.982,0,0,0,.116-3.233,1.707,1.707,0,0,0,.578-1.226c.368-.245.749-.474,1.11-.733a11.525,11.525,0,0,0,2.8-2.265c.6-.826-.387-1.9-1.271-1.655a11.366,11.366,0,0,0-3.011,1.81c-.484.329-.965.674-1.439,1.023a1.956,1.956,0,0,0-.755.213c-1.965.987-3.934,1.965-5.9,2.949q6.7-4.7,13.385-9.423c1.8-1.275.232-4.118-1.755-3Z" transform="translate(-89.481 -122.837)" fill="#ba8b54"/>
    <path id="Path_17700" data-name="Path 17700" d="M334.233,170.927a5.51,5.51,0,0,1,1.914,2.865c1.439-.778,2.875-1.559,4.314-2.327,4.973-2.656,9.971-5.27,14.966-7.883,1.775-.929.526-4.079-1.391-3.3q-5.421,2.212-10.746,4.624l12.249-6.867c1.949-1.094.226-4-1.743-2.985l-25.228,13a19.19,19.19,0,0,1,5.663,2.869Z" transform="translate(-234.733 -106.751)" fill="#eac485"/>
    <path id="Path_17701" data-name="Path 17701" d="M160.954,74.29c-5.66,2.575-11.355,5.073-17.067,7.538.8-.429,1.6-.845,2.388-1.281q6.8-3.737,13.534-7.561c1.255-.71.155-2.485-1.113-1.9-6.131,2.817-12.227,5.679-18.274,8.658.923-.552,1.849-1.094,2.769-1.652q8-4.836,15.863-9.91a1.82,1.82,0,0,0-1.836-3.14L139.447,74.09c.413,3.492-1.262,7.767-2.336,10.549a45,45,0,0,1-25.138,25.583,35.567,35.567,0,0,1-12.888,2.433c-.187.113-.374.223-.561.339a1.776,1.776,0,0,0-.065-.342,30.416,30.416,0,0,1-20.188-7.816A48.16,48.16,0,0,1,66.9,89.153c-1.426.891-2.856,1.778-4.3,2.649-.971.587-1.978,1.239-3.024,1.839,2.249-1.914,4.537-3.775,6.851-5.612a26.223,26.223,0,0,1-1.765-14.776A2.63,2.63,0,0,1,66.28,71.2c.026-.019.042-.042.068-.061.316-.236.632-.474.949-.71a2.7,2.7,0,0,1,1.762-.607c14.857-6.812,32.23-7.625,48.2-5.434,3.953.542,9.1,1.1,13.6,2.494a84.378,84.378,0,0,0,11.246-6.489.942.942,0,0,0-.723-1.713c-.987.268-1.959.587-2.917.936q7.038-4.109,14.115-8.164a1.629,1.629,0,0,0-.549-3.02c1.488-1.178-.226-3.656-2.133-2.833-11.749,5.079-23.2,10.742-34.5,16.735,6.625-3.966,13.324-7.8,20.033-11.565q8.142-4.569,16.331-9.042c1.691-.923.52-3.94-1.342-3.188-4.237,1.713-8.419,3.546-12.556,5.466,4.269-2.262,8.535-4.527,12.837-6.728,1.649-.842.484-3.753-1.281-3.04-1.129.455-2.246.939-3.369,1.407a1.086,1.086,0,0,0-1.288-.319q-7.585,2.657-15.07,5.608.881-.571,1.762-1.146,6.443-4.187,12.885-8.367a1.712,1.712,0,0,0,.565-2.433c.042-.026.084-.055.126-.081,1.956-1.246.2-4.292-1.826-3.124-7.987,4.6-15.983,9.2-23.9,13.927,5.637-3.711,11.217-7.515,16.912-11.142,1.539-.981.555-3.882-1.313-3.114-.136.055-.271.116-.407.171h0c-1.61.665-3.2,1.365-4.8,2.065a.915.915,0,0,0-1.078-.923c-2.1.332-4.1,1.581-6,2.5-2.014.981-4,2.017-5.989,3.046q-5.683,2.933-11.288,6.018,5.039-3.291,10.12-6.525,8.3-5.266,16.641-10.455a1.794,1.794,0,0,0-1.81-3.095c-8.784,4.353-17.348,9.1-25.777,14.092q4.608-2.991,9.248-5.928,7.662-4.836,15.379-9.584c1.92-1.188.248-3.892-1.739-2.978-7.961,3.663-15.689,7.77-23.272,12.133q2.406-1.665,4.818-3.32,6.544-4.487,13.114-8.942c1.852-1.258.136-4.272-1.772-3.03q-3.025,1.97-6.054,3.937a1.873,1.873,0,0,0-2.359-2.811A291.721,291.721,0,0,0,74.9,35.686c-.684.442-1.368.881-2.049,1.323Q83.786,29,94.728,21q7.086-5.184,14.092-10.491c1.694-1.281.161-4.156-1.713-2.933-13.73,8.948-27.658,17.583-41.575,26.235C73.127,28.029,81,22.611,89,17.367c4.227-2.772,8.48-5.505,12.733-8.238,1.9-1.223.155-4.256-1.781-3.046q-20.068,12.551-40.133,25.1C67.984,24.454,76.809,18.5,85.593,12.6a1.781,1.781,0,0,0-1.8-3.072A120.922,120.922,0,0,0,58.819,27.406,132.941,132.941,0,0,0,44.1,41.066c-1.317,1.439.378,3.908,2.156,2.794Q49,42.147,51.73,40.433c-2.423,2.094-4.8,4.237-7.109,6.454a1.746,1.746,0,0,0,2.107,2.73l20.2-12.827c-3.091,2.291-6.17,4.6-9.187,6.986a131.268,131.268,0,0,0-9.968,8.671q-4.366,3.282-8.548,6.828c-1.217,1.036.516,2.665,1.726,1.726,1.568-1.22,3.159-2.41,4.76-3.592a1.61,1.61,0,0,0,1.342.416c-1.394,1.42-2.772,2.859-4.114,4.331a1.678,1.678,0,0,0,1.668,2.769c-.439.323-.881.639-1.32.965a1.828,1.828,0,0,0-.074,2.911c-1.72,1.562-3.385,3.195-4.963,4.921-1.329,1.455.365,3.869,2.156,2.795l5.844-3.495c-2.062,1.765-4.1,3.559-6.07,5.441a1.676,1.676,0,0,0,2.023,2.62q5.32-2.967,10.642-5.921a86.012,86.012,0,0,0-7.08,6.941,1.639,1.639,0,0,0,1.978,2.562l1.978-1.142q-3.969,2.991-7.883,6.047c-1.5,1.175.449,3.669,2.036,2.64q3.848-2.5,7.7-5c-.355.332-.713.658-1.068.991a1.621,1.621,0,0,0,1.662,2.662q-1.2.963-2.4,1.93c-1.446,1.162.429,3.543,1.975,2.559l3.443-2.194c-1.046.949-2.1,1.888-3.111,2.869a1.589,1.589,0,0,0,1.11,2.682,9.8,9.8,0,0,0,2.623-.29q-1.834,1.263-3.669,2.53c-1.726,1.191-.187,3.947,1.665,2.849q5.644-3.34,11.243-6.757c-.926.926-1.823,1.888-2.675,2.891q-3.563,3.035-7.128,6.067c-1.394,1.184.407,3.446,1.939,2.511q3.258-1.989,6.505-3.995c-1.378,1.058-2.762,2.107-4.127,3.182h0l-.352.271c-1.575,1.239.442,3.7,2.107,2.73,1.355-.794,2.72-1.568,4.082-2.352q-2.372,1.893-4.682,3.866c-1.223,1.052-.2,2.8,1.117,2.949-.345.242-.691.481-1.036.723-1.73,1.213-.19,4,1.684,2.882q5.915-3.529,11.843-7.038c-1.475,1.442-2.917,2.924-4.272,4.492a1.806,1.806,0,0,0,.9,2.959,1.76,1.76,0,0,0,2.307,2.5q2.294-1.152,4.585-2.31c-.845.649-1.691,1.3-2.527,1.959-1.388,1.1.136,3.191,1.636,2.811a62.633,62.633,0,0,0,14.215-5.56.691.691,0,0,0,.82.139c.9-.419,1.8-.845,2.7-1.265a1.887,1.887,0,0,0,.374,1.533c-1.291.668-2.588,1.323-3.866,2.017-2.12,1.149-4.247,2.294-6.338,3.5-1.965,1.133-4.25,2.2-5.86,3.814a.905.905,0,0,0,.874,1.5c2.227-.494,4.389-1.855,6.422-2.859s4.034-2.023,6.057-3.017l1.965-.968a1.871,1.871,0,0,0,.671.419c-2.023,1.139-4.043,2.278-6.057,3.433-2.056,1.178-.252,4.079,1.826,3.124,8.283-3.808,16.628-7.5,24.986-11.149q-9.545,5.2-19.1,10.4c-2.217,1.2-.265,4.463,1.962,3.359,6.651-3.3,13.3-6.615,20.042-9.707q-2.948,1.559-5.9,3.114c-1.7.9-3.35,1.839-4.982,2.862-1.749,1.1-3.475,2.356-5.3,3.317-1.388.736-.158,2.843,1.233,2.107,1.762-.933,3.7-1.626,5.528-2.427,1.846-.81,3.634-1.672,5.418-2.617l10.607-5.621c7.07-3.746,14.06-7.641,21.149-11.352,1.743-.913.536-3.659-1.326-3.143-3.007.833-5.983,1.765-8.932,2.772q8.8-4.84,17.6-9.674c2.1-1.152.255-4.063-1.836-3.14q-12.667,5.586-25.322,11.2,7.532-4.211,15.063-8.409L156.114,93.8a1.687,1.687,0,0,0,.694-2.149q2.536-1.331,5.073-2.659c2.036-1.062.248-4.008-1.784-3.053Q148.111,91.57,136.126,97.2c1.236-.6,2.465-1.217,3.7-1.81,2.2-1.052,4.379-2.133,6.576-3.191,1.168-.565,2.333-1.139,3.482-1.736a4.305,4.305,0,0,0,2.372-2.1.989.989,0,0,0-.681-1.2,2.127,2.127,0,0,0-.336-.084c3.182-1.765,6.36-3.533,9.513-5.344,1.536-.881.642-3.53-1.016-3.208.939-.51,1.881-1.016,2.82-1.53,1.81-.991.219-3.543-1.591-2.72ZM76.822,38.842q10.131-6.515,20.259-13.033l-21.688,14.1c.474-.361.955-.713,1.433-1.071Zm-1.933,9.61c1.194-.794,2.385-1.594,3.582-2.385-1.2.887-2.394,1.788-3.585,2.688A1.363,1.363,0,0,0,74.889,48.452ZM55.421,69.927q2.527-1.941,5.1-3.808-1.713,1.418-3.4,2.862l-1.7.945ZM81.985,58.962a1.543,1.543,0,0,0,.787-1.468c9.494-5.921,19.074-11.707,28.9-17.041q-4.071,2.667-8.109,5.4-10.746,7.285-21.217,14.97-11.825,6.946-23.7,13.8C65.951,68.775,74,63.841,81.988,58.962Zm-.626,51.108c.607-.516,1.223-1.016,1.843-1.52a1.121,1.121,0,0,0,.026.516l-1.868,1Z" transform="translate(-37.775 -5.803)" fill="#eac485"/>
  </g>
  <g id="Group_17168" data-name="Group 17168">
    <path id="Path_17702" data-name="Path 17702" d="M93.892,126.53c13.269.3,25.012-4.195,35.825-11.472a57.98,57.98,0,0,0,24.508-34.986c2.414-9.526,1.455-18.968-1.123-28.3-2.949-10.675-7.767-20.439-15.367-28.552C129.562,14.5,120.143,7.554,108.074,5.112,95.015,2.469,82.73,4.857,71.142,11.136,60.7,16.8,52.674,25.025,46.511,35.1a69.635,69.635,0,0,0-8.1,17.884c-2.285,8.358-2.63,16.744.187,25.073,3.017,8.906,6.8,17.445,12.34,25.118a57.666,57.666,0,0,0,16.448,15.7,11.974,11.974,0,0,1,1.465.929,1.737,1.737,0,0,1,.429,2.546,1.941,1.941,0,0,1-2.507.839,10.263,10.263,0,0,1-1.507-.855A58.885,58.885,0,0,1,47.731,105.7,91.951,91.951,0,0,1,33.184,73.438a39.1,39.1,0,0,1,1-20.575c5-16.664,14.027-30.662,28.2-41.024A60.269,60.269,0,0,1,91.423.41a51.811,51.811,0,0,1,26.935,3.633,64.3,64.3,0,0,1,16.27,10.468c12.6,10.768,19.984,24.592,23.408,40.63A67.582,67.582,0,0,1,159.6,66.581c.455,11.927-2.907,22.843-9.21,32.943-7.083,11.349-17.045,19.274-28.987,24.992a64.9,64.9,0,0,1-26.864,6.205,59.565,59.565,0,0,1-7.222-.455c-1.481-.145-2.385-1.1-2.269-2.127.136-1.194.968-1.9,2.478-1.878,2.123.029,4.247.171,6.37.265Z" transform="translate(-21.834 0)" fill="#262c54"/>
    <path id="Path_17703" data-name="Path 17703" d="M117.93,214.438c5.615-1.2,10.746-2.607,15.97-3.346,9.884-1.4,19.82-1.733,29.617.771,2.685.687,5.263,1.8,8.258,2.846.662-.739,1.617-1.665,2.411-2.714a37.643,37.643,0,0,0,5.441-10.5c1.352-3.911,2.669-7.835,4.037-11.852a19.458,19.458,0,0,0-8.138-4.427,72.621,72.621,0,0,0-16.46-3.033,111.08,111.08,0,0,0-40.92,4.2,111.84,111.84,0,0,0-10.462,4.166c-.623.255-1.194.662-1.833.852a1.725,1.725,0,0,1-2.22-.865,1.93,1.93,0,0,1,.336-2.407,11.521,11.521,0,0,1,2.191-1.381,70.376,70.376,0,0,1,19.694-6.593,121.473,121.473,0,0,1,28.2-2.4,80.368,80.368,0,0,1,20.568,2.94,56.149,56.149,0,0,1,8.8,3.637,20.39,20.39,0,0,1,4.053,3.224,2.277,2.277,0,0,1,.587,2.649c-1.53,4.26-3.027,8.532-4.573,12.785a42.268,42.268,0,0,1-11.778,17.619,40.749,40.749,0,0,1-49.159,3.979,29.894,29.894,0,0,1-11.236-13.676,53.681,53.681,0,0,1-3.627-12.769,13.95,13.95,0,0,1-.116-2.6,1.627,1.627,0,0,1,1.329-1.672,1.8,1.8,0,0,1,2.2.958,8.455,8.455,0,0,1,.549,2.217,48.6,48.6,0,0,0,4.163,13.8c.642,1.278,1.459,2.472,2.127,3.588Zm50.269,3.4c-1.368-.571-2.394-1.075-3.469-1.436a47.7,47.7,0,0,0-12.8-2.149,91.043,91.043,0,0,0-25.573,2.375c-1.617.378-3.391.5-4.84,1.617,9.61,10.052,32.311,13,46.684-.41Z" transform="translate(-70.006 -120.351)" fill="#262c54"/>
    <path id="Path_17704" data-name="Path 17704" d="M5.565,149.5c-.281,2.1-.591,4.1-.81,6.112-1.339,12.227-.8,24.27,3.55,35.938a68.536,68.536,0,0,0,6.951,13.637c.474.726.923,1.471,1.346,2.227a1.775,1.775,0,0,1-.529,2.549,1.986,1.986,0,0,1-2.643-.332,9.993,9.993,0,0,1-1.2-1.623A70.505,70.505,0,0,1,.741,177.722a90.887,90.887,0,0,1,.684-27.632A8.641,8.641,0,0,1,2.1,147.9a1.732,1.732,0,0,1,2.2-.9,1.7,1.7,0,0,1,1.262,1.733c.019.287,0,.578,0,.774Z" transform="translate(0.002 -99.499)" fill="#262c54"/>
    <path id="Path_17705" data-name="Path 17705" d="M261.576,95.964c2.927.449,5.405.681,7.812,1.233,3.937.9,7.838,1.965,11.723,3.059a6.2,6.2,0,0,1,2.472,1.417,2.351,2.351,0,0,1,.449,1.817,1.493,1.493,0,0,1-1.7,1.249,6.983,6.983,0,0,1-1.959-.4,67.32,67.32,0,0,0-24.344-4.23,7.255,7.255,0,0,1-1.155-.029,1.877,1.877,0,0,1-1.5-2.962,6.076,6.076,0,0,1,1.749-1.868A64.693,64.693,0,0,1,277.472,84.7c2.007-.487,3.049-.129,3.408,1.087.4,1.371-.248,2.2-2.465,2.833a60.968,60.968,0,0,0-15.183,6.28c-.4.245-.8.513-1.655,1.068Z" transform="translate(-171.384 -57.225)" fill="#262c54"/>
    <path id="Path_17706" data-name="Path 17706" d="M131.538,96.466c-3.075-2.436-6.267-3.533-9.381-4.808-2.494-1.02-4.957-2.133-7.367-3.333-1.817-.9-2.333-1.975-1.81-3.111s1.775-1.32,3.553-.552c3.8,1.639,7.619,3.253,11.4,4.927a34.758,34.758,0,0,1,9.839,6.515,9,9,0,0,1,1.881,2.514,1.977,1.977,0,0,1-.2,1.82c-.452.458-1.513.9-1.962.671-2.714-1.394-5.279-.516-7.858.261-3.872,1.168-7.741,2.34-11.575,3.621a34.438,34.438,0,0,0-3.9,1.852c-1.233.594-2.172.423-2.791-.5a1.952,1.952,0,0,1,.581-2.791,13.994,13.994,0,0,1,3.53-1.93c4.837-1.617,9.723-3.1,14.589-4.631.348-.11.691-.245,1.471-.526Z" transform="translate(-75.189 -57.031)" fill="#262c54"/>
    <path id="Path_17707" data-name="Path 17707" d="M412.88,93.816c-.035.749-.016,1.43-.116,2.091a1.663,1.663,0,0,1-1.794,1.539,3.41,3.41,0,0,1-1.775-1.178,2.346,2.346,0,0,1-.365-1.365c-.613-8.629-3.695-16.493-7.493-24.128a45.88,45.88,0,0,0-8.822-12.8,4.112,4.112,0,0,1-1-1.388,1.859,1.859,0,0,1,.739-2.291,1.573,1.573,0,0,1,2.133.006,42.9,42.9,0,0,1,4.385,4.585,71.816,71.816,0,0,1,11.2,22.072c1.052,3.291,1.778,6.693,2.588,10.058A21.975,21.975,0,0,1,412.88,93.816Z" transform="translate(-265.081 -36.493)" fill="#262c54"/>
    <path id="Path_17708" data-name="Path 17708" d="M23.635,83.364a19.869,19.869,0,0,1-1.323,2.523A49.225,49.225,0,0,0,16.061,97.6c-.558,1.468-1.455,1.985-2.582,1.668-1.155-.323-1.733-1.549-1.155-3.1a52.937,52.937,0,0,1,2.885-6.622c1.233-2.288,2.749-4.421,4.172-6.6a2.5,2.5,0,0,1,.987-1.023,2.655,2.655,0,0,1,1.855-.184c.587.3.942,1.058,1.407,1.633Z" transform="translate(-8.193 -55.284)" fill="#262c54"/>
    <path id="Path_17709" data-name="Path 17709" d="M449,207.293c-.416,3.095-.836,6.241-1.265,9.384a1.771,1.771,0,0,1-1.9,1.765,1.976,1.976,0,0,1-1.988-1.759,6.449,6.449,0,0,1,.019-2.007c.323-3.059.674-6.112,1.013-9.168a5.53,5.53,0,0,1,.148-1.139,1.919,1.919,0,0,1,1.862-1.539,1.829,1.829,0,0,1,1.862,1.526,22.829,22.829,0,0,1,.248,2.936Z" transform="translate(-300.57 -137.379)" fill="#262c54"/>
    <path id="Path_17710" data-name="Path 17710" d="M326.049,388.265a5.005,5.005,0,0,1-.626,1.294c-1.749,2.065-4.195,3.033-6.631,3.959a1.776,1.776,0,0,1-2.178-1.01,1.667,1.667,0,0,1,.345-2.114,5.4,5.4,0,0,1,1.12-.9q2.333-1.423,4.7-2.794C324.4,385.761,325.916,386.378,326.049,388.265Z" transform="translate(-214.281 -261.622)" fill="#262c54"/>
    <path id="Path_17711" data-name="Path 17711" d="M169.779,384.369a7.573,7.573,0,0,1-1.868,1.517c-1.146.426-3.879-1.016-4.489-2.162-.723-1.359.265-3.078,1.739-2.736a14.708,14.708,0,0,1,3.85,1.846C169.343,383.027,169.433,383.643,169.779,384.369Z" transform="translate(-110.522 -258.017)" fill="#262c54"/>
    <path id="Path_17712" data-name="Path 17712" d="M52.5,57.483a1.684,1.684,0,0,1,1.639,1.549A3.36,3.36,0,0,1,52.147,62.5a1.929,1.929,0,0,1-2.481-.787c-.755-1.481,1.02-4.243,2.836-4.23Z" transform="translate(-33.517 -38.932)" fill="#262c54"/>
  </g>
</svg>
