<svg id="_02" data-name="02" xmlns="http://www.w3.org/2000/svg" width="144.193" height="140.966" viewBox="0 0 144.193 140.966">
  <g id="Group_17172" data-name="Group 17172" transform="translate(15.578 14.012)">
    <path id="Path_17737" data-name="Path 17737" d="M191.8,275.258c-1.536.916-3.088,1.8-4.673,2.611,1.755-2.359,3.466-4.76,5.392-6.97.794-.913-.281-2.63-1.391-1.8-2.075,1.549-4.185,3.066-6.283,4.6.471-.729.942-1.462,1.413-2.191.726-1.126-.745-2.665-1.881-1.881-1.965,1.355-4,2.611-6.028,3.876.416-.62.839-1.233,1.275-1.836.652-.907-.423-2.023-1.375-1.788a19.18,19.18,0,0,0-4.385,1.749,1.445,1.445,0,0,0-1.626-2.081,43.579,43.579,0,0,0-6.4,3.178c.384-.658.771-1.313,1.175-1.956.8-1.278-.92-2.343-1.952-1.507-2.162,1.755-4.347,3.492-6.525,5.234.842-.9,1.7-1.791,2.585-2.656.923-.9-.323-2.643-1.417-1.836q-3.65,2.691-7.3,5.379c-.319.236-.642.468-.965.7.878-1.368,1.762-2.733,2.678-4.072.639-.933-.655-2.281-1.594-1.594-1.678,1.226-3.346,2.469-5.021,3.7.765-1.3,1.468-2.633,2.356-3.863.62-.862-.613-2.094-1.475-1.475l-2.765,1.981c.061-.09.119-.181.181-.271.752-1.129-.765-2.7-1.9-1.9q-.624.44-1.255.881a1.162,1.162,0,0,0-1.968-.871q-1.457,1.583-2.917,3.162a.636.636,0,0,0-.139.607c-.378.5-.752,1-1.133,1.491-.862,1.1.245,3.085,1.649,2.136.413-.277.82-.568,1.229-.849l-.31.465c-.939,1.42,1.046,2.617,2.191,1.691q.915-.741,1.833-1.478c-.736,1.013-1.465,2.033-2.117,3.091-.907,1.471,1.071,2.762,2.272,1.752,1.6-1.352,3.253-2.656,4.911-3.943q-1.539,2.193-3.127,4.35c-.839,1.139.807,2.727,1.943,1.943,1.181-.816,2.32-1.694,3.446-2.594-.649.794-1.3,1.584-1.93,2.391a1.329,1.329,0,0,0,1.878,1.878c3.337-2.594,6.586-5.315,9.819-8.048l-.136.2a1.537,1.537,0,0,0,2.088,2.088c1.968-1.284,3.875-2.63,5.847-3.872-.116.187-.242.368-.352.558a1.47,1.47,0,0,0,2.3,1.775,26.958,26.958,0,0,1,5.169-3.643c-1.12,1.452-2.262,2.891-3.375,4.34-.975,1.268.881,2.875,2.117,2.117,2.017-1.236,3.953-2.6,5.879-3.979l-2.227,3.243c-.839,1.22.871,3.024,2.1,2.1.62-.468,1.226-.958,1.839-1.439-.232.29-.465.578-.691.875-1.02,1.352.878,2.656,2.091,2.091a40.136,40.136,0,0,0,10.039-6.47c.733-.665-.213-1.859-1.049-1.359Z" transform="translate(-107.814 -195.694)" fill="#ba8b54"/>
    <path id="Path_17738" data-name="Path 17738" d="M217.212,303.5c-1.481.62-2.978,1.233-4.411,1.959-.713.361-1.43.736-2.146,1.1.006-.01.01-.019.016-.029.523-.987,1.058-1.978,1.646-2.933.7-1.146-.729-2.678-1.894-1.894-1.43.962-2.853,1.936-4.279,2.907.458-.723.9-1.449,1.313-2.214a1.158,1.158,0,0,0-1.81-1.4c-.871.729-1.775,1.42-2.685,2.107.51-.739,1-1.488,1.471-2.262.7-1.165-.813-2.075-1.746-1.346-1.349,1.052-2.7,2.094-4.056,3.14a21.882,21.882,0,0,0,1.181-1.93,1.3,1.3,0,0,0-2.039-1.575c-1.7,1.572-3.356,3.188-5.089,4.724-.658.584.223,1.762.952,1.236l.168-.116q-.552.973-1.042,1.952a1.113,1.113,0,0,0,1.739,1.342,31.073,31.073,0,0,1,3.959-3.111,32.648,32.648,0,0,0-2.175,3.062,1.275,1.275,0,0,0,1.994,1.539c.7-.652,1.459-1.262,2.223-1.855-.032.09-.081.174-.1.265a1.8,1.8,0,0,0,1.368,2.172,3.069,3.069,0,0,0,2.414-.874c.72-.5,1.436-1.01,2.156-1.517-.5,1.236.916,2.081,1.933,1.923a4.421,4.421,0,0,0,2.11-1.388,21.145,21.145,0,0,0,3.362-1,15.79,15.79,0,0,0,4.256-2.64c.594-.5-.042-1.659-.784-1.349Z" transform="translate(-145.928 -216.374)" fill="#eb8486"/>
    <path id="Path_17739" data-name="Path 17739" d="M279.876,127.783a81.46,81.46,0,0,0-11.059,7.357q3.8-3.93,7.612-7.861a1.63,1.63,0,0,0-1.965-2.549,63.591,63.591,0,0,0-10.081,6.751q1.883-2.028,3.782-4.03a1.517,1.517,0,0,0-1.83-2.372,40.383,40.383,0,0,0-5.221,3.169,29.8,29.8,0,0,0,2.372-3.285c.91-1.478-1.042-2.636-2.223-1.717-1.12.871-2.233,1.749-3.35,2.62.787-.881,1.568-1.768,2.359-2.646,1-1.117-.332-3.178-1.7-2.2-.871.623-1.733,1.255-2.591,1.888.294-.361.587-.72.878-1.084a1.555,1.555,0,0,0-2.2-2.2c-2.117,1.926-4.4,3.653-6.651,5.418-.755.594.213,1.788,1.013,1.313.323-.19.642-.384.962-.578-.052.077-.11.152-.161.229-1.423,2.139-3.808,3.6-5.612,5.408-1.262,1.268.574,2.936,1.907,1.907s2.678-2.01,4.04-2.982c-1.575,1.759-3.143,3.527-4.718,5.282a1.418,1.418,0,0,0,2,2q1.636-1.273,3.269-2.556a17.025,17.025,0,0,0-3.582,6.231c-.371,1.317,1.494,2.6,2.443,1.423a61.49,61.49,0,0,1,8-7.9,92.093,92.093,0,0,0-7.49,10.265,1.41,1.41,0,0,0,2.2,1.7c3.737-3.766,7.515-7.57,11.578-11-.226.239-.455.474-.678.713-3.127,3.314-6.867,6.6-8.319,11.052-.484,1.484,1.433,2.359,2.465,1.436,3.153-2.817,6.331-5.631,9.606-8.325-2.168,2.178-4.334,4.363-6.525,6.525a1.321,1.321,0,0,0,1.594,2.065c3.046-1.82,6.141-3.553,9.232-5.292,1.471-.829,3.011-1.594,4.4-2.559,1.481-1.029,2.846-2.139,4.218-3.308a.881.881,0,0,0-.852-1.462c-1.607.62-3.166,1.255-4.708,2.017a32.34,32.34,0,0,0-3.159,1.855c3.559-3.408,7.119-6.812,10.649-10.249a1.583,1.583,0,0,0-1.91-2.475Z" transform="translate(-180.698 -94.726)" fill="#eb8486"/>
    <path id="Path_17740" data-name="Path 17740" d="M120.872,120.264c-1.223,1.071-2.375,2.21-3.5,3.372,2.523-2.4,7.554-13,.152-7.716,1.539-1.42,1.465-4.986-1.288-3.285l.352-.148c-2.349.555-6.689,7.57-1.755,6.157-1.684,1.836-3.269,3.766-4.8,5.734,1.759-1.675,3.214-6.86-.794-4.869q-3.5,4.1-7.006,8.2c7.577-10.207.484-8.216-4.579-1.258,4.8-5.621,3.592-10.562-2.562-3.388,2.178-5.428-6.363,3.35-6.789,5.118-.723,3.211,3.514,1.087,4.592-.116-4.779,5.476-4.15,13.95,2.469,4.421-4.879,7.148-1.768,11.065,3.892,3.214-2.93,6.092,1.891,6.092,4.708,1.462-4.389,8.884.094,9,4.789,1.988-7.57,13.346,2.323,6.228,6.906.068-3.746,13.353,6.573-4.243,7.583-7.967.229-6.263-5.437.478-7.035,2.459.978-2.74,12.888-15.189,4.676-13.443Z" transform="translate(-75.326 -89.997)" fill="#eb8486"/>
    <g id="Group_17171" data-name="Group 17171">
      <path id="Path_17741" data-name="Path 17741" d="M63.456,172.29c-2.572,2.727-5.131,5.46-7.645,8.232q-3.8,4.187-7.441,8.516c.029,1.855.058,3.708.1,5.563q8.33-8.974,16.854-17.754a13.052,13.052,0,0,1-1.862-4.556Z" transform="translate(-48.339 -130.707)" fill="#eac485"/>
      <path id="Path_17742" data-name="Path 17742" d="M312.08,117.619c.158.239.316.471.468.713a19.5,19.5,0,0,1,7.025-1.513l1.539-1.142c1.533-1.136,3.143-2.233,4.585-3.482,1.533-1.326,2.995-2.769,4.5-4.127.755-.681-.207-1.8-1.049-1.359a86.615,86.615,0,0,0-9.345,5.428q-3.9,2.7-7.725,5.486Z" transform="translate(-226.952 -86.22)" fill="#eac485"/>
      <path id="Path_17743" data-name="Path 17743" d="M342.365,126.7a8.926,8.926,0,0,1,.394,1.872c.774-.591,1.546-1.184,2.327-1.768-.726.749-1.51,1.449-2.3,2.143a10.691,10.691,0,0,1-2.165,6.706q2.735-2.469,5.424-4.982c2.462-2.314,5.47-5.537,3.559-9.11a1.718,1.718,0,0,0-2.339-.613c-.833.6-1.652,1.22-2.478,1.826q2.183-2.406,4.2-4.963a1.781,1.781,0,0,0,.136-2.291,1.731,1.731,0,0,0-2.249-.449q-5.571,3.659-11.139,7.322c2.972.039,5.605,1.155,6.638,4.308Z" transform="translate(-242.971 -91.786)" fill="#eac485"/>
      <path id="Path_17744" data-name="Path 17744" d="M58.793,127.646c18.1-16.535,35.932-33.4,54.583-49.323a8.6,8.6,0,0,1,1.936-5.705,8.413,8.413,0,0,1,4.569-2.972,7.464,7.464,0,0,1,5.05-.962.058.058,0,0,1,.023-.016l-.019.019c.187.026.374.052.558.087A9.86,9.86,0,0,1,128.5,69.92c4.392-4.6,8.635-9.316,12.808-14.118,1.12-1.288-.378-3.679-1.955-2.536-7.877,5.7-15.521,11.7-23.018,17.884.478-.449.958-.894,1.433-1.339,2.74-2.572,5.473-5.153,8.167-7.774a48.28,48.28,0,0,0,7.412-8.68A1.827,1.827,0,0,0,132.879,51a1.869,1.869,0,0,0-2.4.142c-10.442,8.2-20.565,16.783-30.491,25.6,2.585-2.74,5.182-5.466,7.764-8.212q7.183-7.638,14.366-15.279a1.856,1.856,0,0,0-2.623-2.623q-6.564,5.784-13.137,11.572,6.539-7.449,12.93-15.034c1.568-1.865-.9-4.437-2.711-2.711q-13.1,12.478-26.235,24.925,3.8-4.245,7.557-8.535a156.7,156.7,0,0,0,10.8-13.7c1.175-1.694-1.349-3.433-2.756-2.127Q98.861,51.6,91.9,58.326c2.407-3.14,4.715-6.354,6.857-9.681,1.11-1.723-1.288-3.291-2.694-2.078q-3.175,2.73-6.3,5.524l4.976-5.75a1.749,1.749,0,0,0-2.472-2.472Q79.453,53.981,67.547,65.163q3-3.775,5.979-7.557c1.236-1.559-.907-3.795-2.227-2.227-3.924,4.669-7.887,9.31-11.73,14.044-3.482,4.289-7.39,8.5-9.794,13.521-.794,1.655,1.291,3.6,2.691,2.078A335.749,335.749,0,0,1,77.754,60.413Q66.8,72.911,55.921,85.477L48.3,94.319c-.023,1.784-.029,3.572-.01,5.357q7.425-8.442,14.821-16.912c-.016-.326-.035-.649-.032-.978a6.923,6.923,0,0,1-.226-1.933,2.93,2.93,0,0,1,.858-2.081c.752-2.795,2.833-4.827,5.989-3.824a3.779,3.779,0,0,1,1.9-.126q7.265-7.4,14.941-14.389l.074-.068c-4.218,5.2-8.706,10.181-13.272,15.092a5.327,5.327,0,0,1,1.365,1.175,2.98,2.98,0,0,1,3.175.581,3.275,3.275,0,0,1,.294.307c.887-.884,1.768-1.768,2.659-2.649,2.588-4,8.164-7.2,11.875-2.64a2.779,2.779,0,0,1,2.92,2.849c.048,4.663-1.255,8.822-2.3,13.317-.623,2.672-.855,5.583-2.185,8.035-1.068,1.972-3.2,3.7-5.26,3.63a3.543,3.543,0,0,1-4.247,1.336,6.734,6.734,0,0,1-2.391-1.978c-1.281-.449-2.546-.949-3.782-1.517q-3.558,3.751-7.112,7.5l-14.4,15.244a1.938,1.938,0,0,0,2.74,2.74q8.093-7.774,16.222-15.518c-.39.39-.791.771-1.181,1.165-5.405,5.453-10.662,11.052-15.7,16.851a1.957,1.957,0,0,0,2.765,2.765Z" transform="translate(-48.274 -43.426)" fill="#eac485"/>
      <path id="Path_17745" data-name="Path 17745" d="M304.245,105.788q.712-.634,1.417-1.275,6.81-6.171,13.688-12.265c1.4-1.239-.458-3.708-2.02-2.617-5.65,3.943-11.194,8.029-16.67,12.207a16.452,16.452,0,0,1,3.585,3.947Z" transform="translate(-219.218 -74.537)" fill="#eac485"/>
      <path id="Path_17746" data-name="Path 17746" d="M148.515,324.491c.771-.639,1.542-1.284,2.314-1.923a34.8,34.8,0,0,1-5.434-2.388q-8.388,7.628-16.751,15.286c-1.765,1.617.8,4.05,2.588,2.588q8.025-6.554,16.047-13.111a1.878,1.878,0,0,0,1.236-.449Z" transform="translate(-102.307 -230.874)" fill="#eac485"/>
      <path id="Path_17747" data-name="Path 17747" d="M124.617,321.763q4.129-3.664,8.354-7.215,2.822-2.062,5.65-4.108a42.539,42.539,0,0,1-6.647-4.54l-1.7,1.972a1.724,1.724,0,0,0-.1,2.23c-3.985,3.617-7.87,7.344-11.565,11.259-1.146,1.213.413,3.527,1.875,2.427.733-.552,1.471-1.091,2.207-1.639a1.853,1.853,0,0,0,1.926-.39Z" transform="translate(-95.644 -221.202)" fill="#eac485"/>
      <path id="Path_17748" data-name="Path 17748" d="M177.344,180.977c2-1.936,3.824-4.037,5.821-5.967.684-.658-.223-1.907-1.036-1.342-2.275,1.568-4.6,3.011-6.793,4.708-2.262,1.752-4.385,3.672-6.489,5.608-.384.352-.755.713-1.133,1.071a2.012,2.012,0,0,0-.8-1.63c3.927-3.133,7.861-6.26,11.743-9.452a2.04,2.04,0,0,0,0-2.869,1.869,1.869,0,0,0-1.368-.571c1.717-1.617,3.43-3.237,5.124-4.879,1.478-1.433-.532-4.237-2.265-2.933q-9.763,7.343-18.994,15.357a2,2,0,0,0-.01-1.43q3.8-3.364,7.561-6.773c4.443-4.043,9.452-8.077,12.295-13.485.771-1.465-.868-3.472-2.423-2.423-.09.061-.177.123-.265.184a1.891,1.891,0,0,0-1.649.413c-3.621,2.872-7.4,5.544-11.007,8.422s-7.209,5.744-10.81,8.619a1.417,1.417,0,0,0-.426.6q-9.952,8-19.765,16.157a1.982,1.982,0,0,0-.545-.949c7.222-5.734,14.4-11.517,21.423-17.493a51.077,51.077,0,0,1-5.76,3.053,11.959,11.959,0,0,1-5.605,1.281c-.587.474-1.175.945-1.759,1.42-4.937,3.995-9.916,7.945-14.892,11.894a1.963,1.963,0,0,0-1.73-.694q2.183-2.038,4.356-4.082a1.845,1.845,0,0,0,2.34-.116q5.179-4.342,10.371-8.661a6.637,6.637,0,0,1-3.708-3.03,77.785,77.785,0,0,1-5.737-11.978,18.113,18.113,0,0,1-1.258-4.756q-3.17,2.924-6.344,5.825c-11.133,10.165-22.517,20.058-33.373,30.527-5.715,5.508-11.265,11.191-16.548,17.116a13.09,13.09,0,0,1,2.307,3.224l5.124-4.714c-.994,1.168-.226,3.563,1.526,3.343a9.583,9.583,0,0,0,4.863-2.194q2.343-1.825,4.7-3.617l.52-.394q-4.918,4.986-9.781,10.029a1.724,1.724,0,0,0,2.436,2.436q7.6-6.733,15.247-13.434a55.073,55.073,0,0,1-6.431-6.467c-2.2-2.6.968-6.254,3.411-4.811.607-.555,1.21-1.11,1.817-1.662a1.572,1.572,0,0,0-.194.39c-.094.084-.19.165-.287.248l-1.239,1.084a2.942,2.942,0,0,1,.665.578c.268.316.542.629.816.942a2.806,2.806,0,0,1,1.878-.145,74.649,74.649,0,0,0,23.653,2.117,69.117,69.117,0,0,0,8.141-1.146q7.057-5.881,14.114-11.768c.513-.419,1.029-.839,1.542-1.262q-7.648,6.481-15.3,12.959c3.062-.587,6.115-1.226,9.2-1.665l5.528-4.492q3.5-2.841,7-5.686-4.293,3.838-8.458,7.819a2.368,2.368,0,0,0-1.675.565c-.713.581-1.417,1.175-2.123,1.759,1.333-.184,2.672-.339,4.021-.416a2.972,2.972,0,0,1,2.549,4.44c-6.06,9.616-16.009,16.209-27.7,15.621-.361-.019-.716-.061-1.078-.09q-7.333,6.965-14.234,14.379a1.938,1.938,0,0,0,2.74,2.74.181.181,0,0,0,.026-.023c-.152.152-.31.3-.461.449a1.9,1.9,0,0,0,1.836,3.156,10.684,10.684,0,0,0,4.653-2.591c1.584-1.326,3.107-2.724,4.673-4.072q2.962-2.556,5.973-5.047a90.134,90.134,0,0,0-5.954,7.332,1.931,1.931,0,0,0,.5,2.514,1.832,1.832,0,0,0,1.746.29,1.874,1.874,0,0,0,.432.681c3.249,3.117,7.309-.978,9.855-2.969.6-.468,1.2-.945,1.8-1.417a2.16,2.16,0,0,0,3.014,1.672,43.914,43.914,0,0,0,8.767-5.854q4.269-3.393,8.532-6.8c-.087.087-.177.174-.265.261-1.962,1.994-3.937,4.034-6.047,5.873-1.646,1.433.755,3.817,2.391,2.391,2.068-1.8,4.218-3.514,6.267-5.344,2.1-1.872,4.053-3.908,5.989-5.941q5.745-6.036,10.926-12.569a1.929,1.929,0,0,0-2.727-2.727q-1.3,1.036-2.607,2.068c2.291-2.078,4.569-4.172,6.864-6.244,1.865-1.681-.849-4.3-2.727-2.727q-7.566,6.317-15.225,12.524,4.477-3.955,8.935-7.941,5.765-5.174,11.465-10.42c1.836-1.691-.874-4.347-2.724-2.724q-5.707,5.01-11.488,9.929,2.87-2.822,5.789-5.6c1.968-1.868,3.979-3.685,5.928-5.576Zm-55.309-2a50.549,50.549,0,0,0-6.9,4.643c1.042-.874,2.078-1.759,3.127-2.63q6.917-5.736,13.95-11.33c-1.555,1.681-3.078,3.392-4.6,5.086-1.346,1.5-2.669,3.027-4,4.547A1.2,1.2,0,0,0,122.035,178.98ZM154.8,201.258q2.406-2.023,4.776-4.092l1.178-.907q-2.972,2.507-5.957,5Z" transform="translate(-66.979 -118.099)" fill="#eac485"/>
      <path id="Path_17749" data-name="Path 17749" d="M166.782,328.053q-2.715,2.3-5.431,4.6a1.517,1.517,0,0,0-.442.645q-4.7,4.071-9.339,8.212c-1.943,1.73.92,4.573,2.853,2.853q8.63-7.691,17.477-15.144a30.812,30.812,0,0,1-5.115-1.175Z" transform="translate(-117.799 -236.204)" fill="#eac485"/>
      <path id="Path_17750" data-name="Path 17750" d="M72.922,201.4c-2.094,1.988-4.185,3.979-6.254,6q-7.556,7.357-14.841,14.983a1.952,1.952,0,0,0,2.759,2.759q11.167-10.658,21.966-21.688a35.4,35.4,0,0,1-3.63-2.046Z" transform="translate(-50.3 -150.423)" fill="#eac485"/>
      <path id="Path_17751" data-name="Path 17751" d="M71.509,190.261a2.847,2.847,0,0,1-1.062-.771c-.2-.229-.387-.468-.571-.71-.787.862-1.584,1.717-2.372,2.581q-6.336,6.946-12.682,13.882a1.884,1.884,0,0,0,2.662,2.662q8.272-7.846,16.544-15.689a29.042,29.042,0,0,1-2.52-1.956Z" transform="translate(-52.353 -141.876)" fill="#eac485"/>
    </g>
  </g>
  <g id="Group_17173" data-name="Group 17173">
    <path id="Path_17752" data-name="Path 17752" d="M100.89,169.679a59.245,59.245,0,0,0,16.493-2.627c1.749-.494,3.74-2.172,5.286.187.845,1.291-.513,2.452-4.382,3.643-16.98,5.221-33.163,3.188-48.3-5.944C34.655,143.615,32.2,92.578,65.236,67.864A28.14,28.14,0,0,1,70.3,64.83c.5-.229,1.639.416,2.149.968.265.287.01,1.452-.384,1.865a20.593,20.593,0,0,1-2.949,2.33c-18.558,13.434-26.9,35.509-21.753,57.571,5.04,21.591,22.908,37.932,45.467,41.482C95.482,169.463,98.2,169.479,100.89,169.679Z" transform="translate(-28.381 -43.879)" fill="#262c54"/>
    <path id="Path_17753" data-name="Path 17753" d="M162.3,285.639c-10.736-.29-18.894-3.5-25.47-10.345a15.7,15.7,0,0,1-2.765-3.924,2.492,2.492,0,0,1,.536-2.336,2.462,2.462,0,0,1,2.291.365c1.339,1.181,2.394,2.672,3.659,3.943a32.052,32.052,0,0,0,2.891,2.42,2.233,2.233,0,0,0,3.282-.1c9.3-7.686,19.068-7.8,28.213-.216,1.6,1.326,2.678,1.317,4.2.242a25.423,25.423,0,0,0,8.38-8.98,9.223,9.223,0,0,0,.429-2.995,13.5,13.5,0,0,0-2.514.148,110.945,110.945,0,0,1-41.237,2.33c-3.375-.449-6.705-1.249-10.045-1.939a5.79,5.79,0,0,1-2.511-.884,9.417,9.417,0,0,1-1.546-2.44c.907-.378,1.885-1.191,2.707-1.058,3.185.513,6.292,1.542,9.484,1.991,14.947,2.1,29.771,1.662,44.357-2.591a14.093,14.093,0,0,1,2.081-.539c2.611-.332,3.721.555,3.895,3.124a12.867,12.867,0,0,1-2.627,8.6,35.829,35.829,0,0,1-27.706,15.179Zm-1.094-3.779c2.975-.616,6.331-1.191,9.61-2.046,1.4-.365,1.4-1.546.323-2.443a15.955,15.955,0,0,0-9.481-3.45,15.4,15.4,0,0,0-9.768,2.488,9.328,9.328,0,0,0-1.83,2.423,8.024,8.024,0,0,0,2.191,1.342C155.05,280.805,157.887,281.254,161.207,281.86Z" transform="translate(-88.118 -175.196)" fill="#262c54"/>
    <path id="Path_17754" data-name="Path 17754" d="M343.036,114.965c-.484,15.46-4.15,28.39-12.9,39.6a43.385,43.385,0,0,1-14.289,12.114c-1.41.729-3.185,1.943-4.324.168-1.284-2,.855-2.749,2.172-3.511,16.3-9.416,23.272-24.434,24.873-42.337a72.752,72.752,0,0,0-1.01-17.145,38.562,38.562,0,0,0-12.333-23.392c-3.056-2.778-6.17-5.5-9.113-8.39a3.182,3.182,0,0,1-.739-2.736c.458-1.213,1.73-.971,2.772-.432a8.335,8.335,0,0,1,1.384.833c11.572,9.21,20.665,20,22.45,35.406.432,3.743.81,7.493,1.062,9.832Z" transform="translate(-210.727 -46.368)" fill="#262c54"/>
    <path id="Path_17755" data-name="Path 17755" d="M123.147,124.237c-.923,3.633-1.807,7.28-2.8,10.894a5.516,5.516,0,0,1-1.3,2.327c-.419.426-1.513.8-1.862.555a2.665,2.665,0,0,1-1.155-2.023c.4-2.1,1.342-4.111,1.672-6.218a39.694,39.694,0,0,0,.623-8.525c-.19-2.936-2.136-4.356-5.086-4.537-3.824-.232-6.431,1.578-8.019,5.57-1.229,3.088-2.3,3.5-5.289,2.033a28.032,28.032,0,0,0-3.369-1.652,7.073,7.073,0,0,0-7.854,2.072c-2.043,2.207-2.143,4.844-1.049,7.557a13.114,13.114,0,0,0,6.034,6.68c3.775,2.068,7.69,3.892,11.565,5.77,2.481,1.2,4.844,1.417,6.725-1.129.21-.284.49-.639.791-.7.658-.132,1.694-.384,1.952-.071a2.885,2.885,0,0,1,.645,2.288c-1,3.082-4.437,5.337-7.719,4.4-7.819-2.227-15.315-5.311-21.039-11.41a14.49,14.49,0,0,1-2.92-5.089c-2.672-7.7,2.511-14.724,10.694-14.65a8.134,8.134,0,0,1,3.188.394c2.6,1.184,3.94.232,5.689-1.885,3.414-4.13,8.222-4.918,13.259-3.572,3.479.929,5.224,3.646,5.905,7.041a31.477,31.477,0,0,1,.316,3.753l.41.126Z" transform="translate(-56.208 -76.341)" fill="#262c54"/>
    <path id="Path_17756" data-name="Path 17756" d="M252.4,112.526a12.862,12.862,0,0,1,9.871,4.86c1.339,1.646,2.562,1.962,4.608,1.326a14.156,14.156,0,0,1,5.834-.416c5.76.739,8.667,4.243,8.145,10.013a17.1,17.1,0,0,1-2.078,6.6,29.781,29.781,0,0,1-10.126,10.3,6.2,6.2,0,0,1-2.485.891c-1.01.136-2-1.53-1.365-2.333a13.474,13.474,0,0,1,2.7-2.562,27.422,27.422,0,0,0,8.154-9.223c1.81-3.3,1.7-6.689-.29-8.493-1.962-1.775-5.621-1.926-8.635-.329a9.766,9.766,0,0,0-1.31.945c-1.5,1.162-2.646.584-3.659-.726a35.636,35.636,0,0,0-3.356-4.211c-4.718-4.472-10.642-2.92-12.785,3.208a11.294,11.294,0,0,0,.891,9.416c2.349,4.227,5.215,8.171,7.867,12.227.907,1.388,2.281,1.513,3.788,1.555.555.016,1.539.71,1.546,1.107.01.762-.358,2-.894,2.2a9.485,9.485,0,0,1-4.014.574,3.755,3.755,0,0,1-2.23-1.407c-4.247-5.144-8.493-10.336-10.6-16.793a15.649,15.649,0,0,1,.41-11.617A11.488,11.488,0,0,1,252.4,112.52Z" transform="translate(-163.268 -76.212)" fill="#262c54"/>
    <path id="Path_17757" data-name="Path 17757" d="M120.65.008c20.226-.035,33.166,3.8,45.044,11.2a39.249,39.249,0,0,1,5.766,4.811c.374.349.481,1.678.2,1.9a2.99,2.99,0,0,1-2.314.655,10.054,10.054,0,0,1-2.665-1.762C154.459,7.94,140.748,3.935,125.7,4.077c-14.511.139-27.5,4.847-39.481,12.753a33.119,33.119,0,0,1-4.143,2.494A2.051,2.051,0,0,1,80.24,18.7a1.973,1.973,0,0,1-.11-1.894,16.445,16.445,0,0,1,3.2-2.82C96.468,5.126,110.757-.2,120.65.008Z" transform="translate(-54.141 -0.002)" fill="#262c54"/>
    <path id="Path_17758" data-name="Path 17758" d="M219.554,376.375c-1.943-.206-3.55-.31-5.121-.6a1.529,1.529,0,0,1-.955-1.146c.055-.62.436-1.62.855-1.723a29,29,0,0,1,5.266-.768,73.2,73.2,0,0,0,43.111-16.286c2.778-2.243,5.092-5.06,7.758-7.457.652-.587,2.133-1.062,2.743-.72,1.375.774.939,2.172.106,3.246a37.081,37.081,0,0,1-2.843,3.237c-11.217,11.42-25,17.89-40.559,20.839-3.517.668-7.109.952-10.365,1.375Z" transform="translate(-144.589 -235.409)" fill="#262c54"/>
    <path id="Path_17759" data-name="Path 17759" d="M0,193.638c.2-2.582.358-5.634.713-8.661.181-1.549.378-3.637,2.6-3.33,1.9.261,1.439,2.146,1.42,3.54-.006.358-.058.716-.094,1.075a78.36,78.36,0,0,0,7.538,42.353c.155.323.339.636.484.962.468,1.062.71,2.327-.623,2.672a3.143,3.143,0,0,1-2.694-.916,23.129,23.129,0,0,1-2.853-5.16A93.632,93.632,0,0,1,.581,201.637c-.281-2.494-.368-5.011-.578-8Z" transform="translate(0 -123.011)" fill="#262c54"/>
    <path id="Path_17760" data-name="Path 17760" d="M399.577,103.681c-.713-.578-1.426-.9-1.73-1.449a30.124,30.124,0,0,1-1.436-3.453c-2.333-5.857-5.3-11.317-9.813-15.822a6.217,6.217,0,0,1-1.655-2.059,3.023,3.023,0,0,1,.342-2.323c.226-.349,1.362-.4,1.907-.171a7.453,7.453,0,0,1,2.088,1.62c5.637,5.492,9.132,12.275,11.672,19.607a4.822,4.822,0,0,1,.165,2.572c-.126.529-.907.9-1.542,1.475Z" transform="translate(-260.655 -53.01)" fill="#262c54"/>
    <path id="Path_17761" data-name="Path 17761" d="M177.729,40.173c-5.305-.219-10.329,1.123-15.3,2.769-1.023.339-2.017.768-3.046,1.084-1.226.374-2.717.749-3.066-.916a3.013,3.013,0,0,1,1.394-2.5c7.493-3.366,15.305-5.16,23.582-4.143a3.23,3.23,0,0,1,1.5.513c.4.3.907.916.829,1.271-.136.6-.629,1.488-1.094,1.568a40.91,40.91,0,0,1-4.8.352Z" transform="translate(-105.866 -24.507)" fill="#262c54"/>
    <path id="Path_17762" data-name="Path 17762" d="M124.614,411.6a30.722,30.722,0,0,1-14.221-5.644c-.484-.348-.578-1.613-.4-2.346.087-.368,1.188-.691,1.826-.678a7.021,7.021,0,0,1,2,.694q5.528,1.989,11.062,3.979a8.075,8.075,0,0,1,1.962.81,1.634,1.634,0,0,1,.658,1.326,3.231,3.231,0,0,1-1.21,1.542A4.477,4.477,0,0,1,124.614,411.6Z" transform="translate(-74.442 -272.908)" fill="#262c54"/>
    <path id="Path_17763" data-name="Path 17763" d="M272.156,45.561c-.726.445-1.668,1.488-2.291,1.323a67.1,67.1,0,0,1-7.977-2.785,2.044,2.044,0,0,1-.92-1.7,1.949,1.949,0,0,1,1.333-1.342,15.13,15.13,0,0,1,9.306,3.162c.232.171.265.623.542,1.346Z" transform="translate(-176.752 -27.807)" fill="#262c54"/>
    <path id="Path_17764" data-name="Path 17764" d="M433.213,189.949a5.94,5.94,0,0,1,.171-1.63c.142-.436.652-1.026,1.023-1.049.62-.036,1.572.132,1.849.558a8.191,8.191,0,0,1,.92,7.17c-.164.516-1.133,1.217-1.552,1.113a2.8,2.8,0,0,1-1.846-1.455,28.217,28.217,0,0,1-.568-4.711Z" transform="translate(-293.417 -126.837)" fill="#262c54"/>
  </g>
</svg>
