<svg id="_20" data-name="20" xmlns="http://www.w3.org/2000/svg" width="152.74" height="147.928" viewBox="0 0 152.74 147.928">
  <g id="Group_17174" data-name="Group 17174" transform="translate(12.645 10.07)">
    <path id="Path_17765" data-name="Path 17765" d="M346.5,313.721l-.807.584a1.538,1.538,0,0,0-1.571-1.546c.255-.248.507-.5.765-.745,1.11-1.065-.371-3.108-1.681-2.178q-2.546,1.8-5.1,3.592c.607-.632,1.207-1.268,1.814-1.9a1.157,1.157,0,0,0-.113-1.807c1.391-1.468,2.765-2.949,4.1-4.463a1.178,1.178,0,0,0-1.665-1.665c-.8.668-1.639,1.3-2.481,1.92.51-.574,1.023-1.146,1.536-1.72a1.567,1.567,0,0,0-.561-2.433c.058-.039.116-.084.174-.123,1.572-1.062.152-3.575-1.5-2.569a49.081,49.081,0,0,0-12.52,10.884c-1.058,1.291.307,3.579,1.926,2.5,1.036-.691,2.081-1.365,3.117-2.052q-1.167,1.321-2.336,2.643a1.561,1.561,0,0,0,.868,2.488c-1.068,1.081-2.139,2.165-3.217,3.233a1.34,1.34,0,0,0,.152,2.143q-.983.983-1.968,1.968c-1.133,1.136.374,3.259,1.765,2.288.765-.536,1.523-1.078,2.288-1.617a1.63,1.63,0,0,0,.7,1.846c-1,.913-2,1.83-3,2.736-1.223,1.11.416,3.32,1.794,2.323.629-.455,1.262-.907,1.891-1.362a1.641,1.641,0,0,0,.833,1.255c-.2.187-.4.374-.6.561-1.3,1.223.439,3.6,1.949,2.527.316-.226.629-.461.945-.691-.326.348-.655.7-.981,1.046-1.2,1.291.4,3.672,1.972,2.559.591-.42,1.181-.836,1.772-1.255a1.564,1.564,0,0,0,2.307,1.743c.294-.158.587-.313.881-.471a1.347,1.347,0,0,0,.791-1.32c1.946-2.252,3.808-4.576,5.734-6.848.939-1.107.01-2.995-1.281-2.8q1.128-1.229,2.259-2.459a1.682,1.682,0,0,0-.623-2.594s.006-.006.01-.01a1.576,1.576,0,0,0-.155-2.291c.549-.52,1.1-1.033,1.646-1.555,1.2-1.152-.413-3.382-1.823-2.362Z" transform="translate(-232.786 -212.204)" fill="#abd0f2"/>
    <path id="Path_17766" data-name="Path 17766" d="M213.687,327.288a1.744,1.744,0,0,0-1.465-2.188,1.6,1.6,0,0,0-2.107-1.562,1.834,1.834,0,0,0-1.426-1.11,1.593,1.593,0,0,0-2.42-1.271,1.614,1.614,0,0,0-1.481-.874,1.792,1.792,0,0,0-.916-.984c.236-2.494-2.336-2.172-3.746-.887-.574-1.423-2.217-1.178-3.269-.352-.829-2.92-3.74-.013-5.266.8-.842-5.292-7.015,1.946-9.132,3.308-1.572,1.981-7.486,3.627-5.96,6.541-.707,3.124,2.523,2.475,4.066.933,1.8.736,3.556-1.433,5.221-2.01a1.757,1.757,0,0,0,2,1.539c1.955,1.736,4.744-1.394,6.786-2,.81.871,2.259.084,3.249-.2.958,1.355,2.859.148,4.1-.339.487,1.349,2.243,1.362,3.388.6a1.733,1.733,0,0,0,2.549.752c.268,1.3,1.707,1.51,2.833.984a1.719,1.719,0,1,0,2.991-1.691Z" transform="translate(-132.016 -224.632)" fill="#ba8b54"/>
    <path id="Path_17767" data-name="Path 17767" d="M301.587,227.695a1.546,1.546,0,0,0-.174-1.1,1.324,1.324,0,0,0-.171-.229,1.452,1.452,0,0,0-.123-1.939l.778-.623a1.67,1.67,0,0,0,0-2.349,1.577,1.577,0,0,0-.61-.384,1.8,1.8,0,0,0-.61-.984,1.743,1.743,0,0,0-2.172-2.052,1.7,1.7,0,0,0-.155-.387c-.019-.032-.045-.061-.068-.094a1.383,1.383,0,0,0-.1-.429,1.4,1.4,0,0,0-1.672-.82,51.364,51.364,0,0,0-8.748,4.569,1.577,1.577,0,0,0,1.052,2.9c-.123.171-.252.339-.368.513a1.533,1.533,0,0,0-.019,1.526c-.181.184-.368.358-.539.549a1.634,1.634,0,0,0-.126,2.13,1.612,1.612,0,0,0,2.094.419c.032-.023.065-.042.1-.065a3.773,3.773,0,0,0,.726,1.249,2.928,2.928,0,0,0,.09.836c.6,2.272,3.033,2.343,4.9,1.868.529-.136,1.055-.294,1.575-.468a1.457,1.457,0,0,0,1.552-.1c.778-.539,1.549-1.091,2.352-1.6a1.607,1.607,0,0,0,.816-1.439,1.864,1.864,0,0,0-.378-1.494Z" transform="translate(-207.053 -156.521)" fill="#75757c"/>
    <path id="Path_17768" data-name="Path 17768" d="M142.128,227.655c-.542.245-1.049.584-1.578.855a15.24,15.24,0,0,0-1.455.845c-.468.313-.916.639-1.362.981.8-.742,1.594-1.484,2.407-2.2a1.54,1.54,0,0,0,.1-2.259l1.32-1.058-.026-.026a1.662,1.662,0,0,0,.294-2.03,1.748,1.748,0,0,0-1.517-.833,1.922,1.922,0,0,0-.365-1.036c1.007-1.378-.945-3.734-2.488-2.569-.016.013-.032.023-.048.035a1.8,1.8,0,0,0-2.682-1.281c-.213.136-.416.287-.623.429a1.227,1.227,0,0,0-.781.058,11.122,11.122,0,0,0-6.144,5.673,1.987,1.987,0,0,0-.161,1.155c-.449.574-.884,1.149-1.3,1.733-.858,1.2.271,2.6,1.51,2.691a1.639,1.639,0,0,0,.368.955,1.87,1.87,0,0,0,.326.313,1.68,1.68,0,0,0,2.475,1.736c.158-.077.316-.158.474-.236-.148.139-.3.268-.445.407a1.828,1.828,0,0,0,2.585,2.585c1-.823,1.968-1.694,2.924-2.575a1.14,1.14,0,0,0,1.636,1.4,14.907,14.907,0,0,0,1.484-1.016c.51-.371,1-.768,1.478-1.178a14.175,14.175,0,0,0,1.207-1.165c.407-.432.868-.826,1.252-1.278a.712.712,0,0,0-.858-1.113Z" transform="translate(-97.589 -156.93)" fill="#75757c"/>
    <path id="Path_17769" data-name="Path 17769" d="M161.868,86.917l-27.945,16.806,11.639-8.058q8.277-5.731,16.548-11.478c1.92-1.333.216-4.4-1.859-3.182l-2.895,1.7a1.645,1.645,0,0,0-.987-.407l4.34-3.03a1.824,1.824,0,0,0-.458-3.224q1.859-1.3,3.695-2.646a14.019,14.019,0,0,1-.778-2.5c-7.864,4.45-15.438,9.423-23.037,14.3q-5.107,3.282-10.207,6.576A6.08,6.08,0,0,1,132.7,93.7c3.914,4.566,1.823,12.272-3.888,14.082a5.816,5.816,0,0,1-7.68-4.7,13.186,13.186,0,0,1,.3-5.821c-2.582,1.668-5.173,3.324-7.751,5-1.43.926-2.869,1.849-4.3,2.769l12.243-8.374a11.294,11.294,0,0,1,1.436-2.953,5.54,5.54,0,0,1,4.321-2.653,3.866,3.866,0,0,1,1.839.407q3.853-2.633,7.706-5.27,7.357-5.029,14.715-10.061a1.876,1.876,0,0,0,.507-2.6l1.494-1.078a1.888,1.888,0,0,0,.591-2.4,12.627,12.627,0,0,0,4.218-3.191.776.776,0,0,0-.665-1.162c-2.233.152-4.253,1.542-6.192,2.562-2.059,1.081-4.088,2.217-6.121,3.346-.945.526-1.888,1.058-2.83,1.588q7.556-5.184,15.2-10.249c1.759-1.171.123-4.021-1.668-2.853q-4.555,2.846-9.058,5.783c1.465-1.081,2.933-2.159,4.392-3.246a1.9,1.9,0,0,0,.052-3.072,1.737,1.737,0,0,0-.013-1.375c.991-.81,1.988-1.613,2.972-2.43,1.171-.971-.39-3.027-1.639-2.127q-3.011,2.173-6,4.379a1.558,1.558,0,0,0-2.065-.113c-8.951,6.2-17.906,12.414-26.722,18.813L98.072,90.773c9.287-7.167,18.748-14.118,28.284-20.946q9.381-6.714,18.826-13.346a2.016,2.016,0,0,0,.665-2.556c.158-.145.3-.3.445-.455a1.234,1.234,0,0,0-1.026-2.168c-1.981.4-3.788,1.665-5.521,2.662-.949.545-1.888,1.1-2.833,1.649.11-1.126-.82-2.3-1.949-2.007q3.984-2.541,7.974-5.076c1.933-1.226.177-4.279-1.8-3.085Q121.945,57.018,103.212,69.33q6.738-4.9,13.543-9.71,9.821-6.927,19.784-13.653c1.952-1.32.116-4.511-1.859-3.182l-4.95,3.34c.455-1.384-.913-3.1-2.475-2.12Q106.341,57.142,86.207,71.476c7.535-6.17,15.225-12.156,22.982-18.038q7.846-5.949,15.744-11.823a1.848,1.848,0,0,0,.642-2.443,1.8,1.8,0,0,0-2.443-.642L92.221,60.608l.077-.058q6.9-5.305,13.9-10.475a1.913,1.913,0,0,0,.645-2.291q6.505-4.753,13.033-9.474c1.784-1.291.1-4.279-1.752-3Q97.294,49.732,76.461,64.148a1.1,1.1,0,0,0-.148-.029Q87.194,54.99,98.572,46.481q6.6-4.923,13.35-9.632a1.679,1.679,0,0,0-1.694-2.9c-1.639.81-3.262,1.646-4.889,2.478.791-.587,1.578-1.181,2.372-1.768a1.9,1.9,0,0,0,.662-2.527,1.858,1.858,0,0,0-2.527-.662q-4.022,2.856-7.99,5.786a1.9,1.9,0,0,0-2.73-1.752Q79.67,44.794,64.9,55.145a248.528,248.528,0,0,1,19.736-15.8c1.862-1.342.155-4.437-1.833-3.137A203.168,203.168,0,0,0,52.356,60.514a1.471,1.471,0,0,0-.336,1.778c-2.546,2.559-5.05,5.163-7.48,7.835A1.811,1.811,0,0,0,47.1,72.686Q60.159,62.55,73.88,53.305q-2.6,2.289-5.182,4.608-5.223,3.475-10.333,7.119Q51.622,69.868,45.1,75l-.029.019h0c-.113.09-.229.174-.345.265-1.5,1.178.5,3.8,2.059,2.669.881-.639,1.768-1.268,2.649-1.9q-2.953,2.9-5.867,5.844c-1.51,1.523.5,3.679,2.152,2.746a1.948,1.948,0,0,0,1.72-.4q4.768-3.829,9.523-7.667c-1.594,1.459-3.188,2.92-4.763,4.4a1.5,1.5,0,0,0-.465,1.378c-1.355,1.217-2.8,2.472-4.066,3.843-.077.071-.158.139-.236.21q-2.241,2.038-4.4,4.169a18.288,18.288,0,0,0-3.743,4.492A.914.914,0,0,0,40.53,96.3a20.943,20.943,0,0,0,4.7-3.54q2.106-1.849,4.214-3.692,4.163-3.65,8.448-7.151Q54.91,84.7,52.05,87.6q-4.744,4.492-9.3,9.174A1.8,1.8,0,0,0,45.3,99.328c1.707-1.5,3.44-2.982,5.157-4.476l17.813-12.73c-1.268,1.136-2.507,2.3-3.759,3.453-3.524,2.446-6.918,5.079-10.287,7.8-.629.507.184,1.539.858,1.113.058-.035.116-.071.171-.106-.355.352-.723.691-1.078,1.046a1.72,1.72,0,0,0-.542,1.1q-1.873,1.626-3.717,3.282a55.789,55.789,0,0,0-7.435,7.661c-.5.658.455,1.5,1.1,1.1a72.211,72.211,0,0,0,8.322-6.438q4.1-3.461,8.258-6.86c.449-.371.913-.723,1.362-1.091.574-.442,1.146-.894,1.72-1.336-.068.058-.136.116-.2.174q-8.495,7.575-16.435,15.741c-1.594,1.649.765,3.882,2.472,2.472q6.317-5.208,12.72-10.31a1.755,1.755,0,0,0,.523.284c-5.489,4.611-11.084,9.1-16.619,13.653-1.2.987.023,2.623,1.294,2.462a1.667,1.667,0,0,0,2.314,2.149q2.323-1.273,4.614-2.578a2.242,2.242,0,0,0,.561,1.217q-3.156,2.7-6.309,5.4c-1.565,1.336.481,3.985,2.2,2.856q4.69-3.078,9.377-6.157a2.06,2.06,0,0,0,1.339.894c-1.581,1.878-3.127,3.792-4.592,5.773-.871,1.175.487,2.743,1.743,2.54q-3.587,2.115-7.138,4.3c.642.926,1.281,1.849,1.91,2.785q2.783-1.583,5.57-3.162a1.885,1.885,0,0,0,2.72,1.433q3.224-1.994,6.531-3.846-5.629,4.56-11.262,9.116a1.4,1.4,0,0,0-.555.962l1.123,1.694a1.707,1.707,0,0,0,1.478-.006q1.5-.741,2.991-1.478a1.671,1.671,0,0,0,2.243.352q6.718-4.39,13.756-8.254,3.258-1.612,6.518-3.22-8.848,6.355-17.338,13.2c-1.439,1.162-2.866,2.343-4.285,3.527a2.866,2.866,0,0,1,.784.355c1.288.82,2.582,1.662,3.882,2.511l10.917-6.209c-1.275,1.049-2.54,2.107-3.779,3.2q-2.483,2.183-4.85,4.5c2.385,1.539,4.8,3.053,7.28,4.418.978.21,1.946.461,2.9.745L97.191,146.04q5.315-2.178,10.7-4.182-3.5,2.561-7.012,5.124a1.931,1.931,0,0,0-.571.652c-5.186,3.295-10.375,6.612-15.383,10.149a35.547,35.547,0,0,1,4.773,1.594c.833-.536,1.668-1.062,2.5-1.6q6.723-4.4,13.4-8.88-2.338,1.631-4.679,3.266c-1.926,1.346-.148,4.511,1.868,3.195.087-.055.171-.113.258-.168a1.363,1.363,0,0,0,1.752.655c3.191-1.3,6.376-2.614,9.561-3.924a1.734,1.734,0,0,0,1.52,1.058,1.706,1.706,0,0,0,2.611,1.62q6.747-4.545,13.492-9.1a12.876,12.876,0,0,1,.145-4.7q-1.38.576-2.756,1.155c1.026-.858,2.065-1.7,3.1-2.549a22.018,22.018,0,0,1,3.653-7.3,31.133,31.133,0,0,1,3.595-7.887,3,3,0,0,1,1.468-1.146c.023-.061.045-.126.068-.187q-3.553,2.13-7.109,4.256,3.863-2.822,7.725-5.641c.01-.013.013-.029.023-.042v-.39a3.134,3.134,0,0,1,4.414-2.811c.6-.439,1.2-.874,1.8-1.313q6.486-4.734,12.969-9.477c1.833-1.339.207-4.353-1.823-3.117l-18.935,11.53q3.645-2.614,7.29-5.228,6.636-4.748,13.25-9.536a1.894,1.894,0,0,0,.674-2.265c.271-.174.545-.345.816-.52a1.718,1.718,0,0,0-1.733-2.966q-20.533,11.9-40.259,25.118c9.1-6.815,18.409-13.353,27.784-19.781q7.783-5.334,15.605-10.6c1.946-1.317.2-4.424-1.862-3.188ZM60.007,128.354q1.38-.944,2.756-1.885a1.6,1.6,0,0,0,.155.21c-.971.558-1.946,1.11-2.911,1.675Zm7.528-29.542c1.129-5.579,8.119-11.4,12.572-6.228,13.627-11.5,28.326-21.746,43.253-31.495q4.724-3.083,9.481-6.121c-13.814,9.707-27.626,19.439-41.095,29.626L80.311,92.832c.1.123.2.242.29.378,2.833,1,3.411,5.576,2.191,8.29a6.969,6.969,0,0,1-2.7,3.046c-1.7,2.9-5.17,4.818-8.442,3.237a8.237,8.237,0,0,1-4.114-8.971Zm5.831,16.454q-3.2,2.164-6.4,4.321,3.509-3.79,7.338-7.27,2.5-1.767,5-3.533a2.04,2.04,0,0,0,1.2,1.63Q76.936,112.837,73.367,115.265Zm5.466,13.195q4.913-3.926,10.061-7.554a1.843,1.843,0,0,0,.745-2.278c-.013-.029-.032-.055-.045-.084q4.23-2.89,8.458-5.783c-.729,1.465.768,3.5,2.511,2.456l.555-.332q-3.722,2.594-7.393,5.253a1.8,1.8,0,0,0-.778,1.536c-.006,0-.013.01-.019.013q-7.173,3.132-14.1,6.773ZM99.45,140.751a2.1,2.1,0,0,0-.177.155q-1.442.842-2.885,1.681c-.784.319-1.572.636-2.356.962q4.042-2.744,8.183-5.334,1.888-1.084,3.772-2.172c-2.181,1.568-4.366,3.13-6.541,4.708Zm18.761,5.879c-1.956.82-3.9,1.655-5.86,2.482l12.272-8.006Q121.394,143.841,118.211,146.631Zm6.554-17.106-4.269,3.117a3.441,3.441,0,0,1,.649,1.939v.236a3.177,3.177,0,0,1-5.337,2.239c-6.989-2.891-14.279-2.165-21.378-.345-.72.623-1.452,1.236-2.165,1.865a1.533,1.533,0,0,0-.49,1.559q-7.193,4.172-14.382,8.345a176.844,176.844,0,0,1,14.24-11c-.42.123-.836.245-1.252.374a2.826,2.826,0,0,1-2.336-.223c-2.44,2.462-7.154-.516-5.015-3.692,7.686-11.4,28.626-13.437,36.932-1.852a2.816,2.816,0,0,1,.219.219q2.29-1.394,4.579-2.785Zm-11.639-9.013q2.8-1.684,5.6-3.366c-1.7,1.275-3.4,2.552-5.086,3.85a1.788,1.788,0,0,0-.513-.484Zm-5.037-3.385a1.8,1.8,0,0,0-.471-1.055c.061-.042.119-.084.181-.123q6.37-3.722,12.737-7.448l-12.443,8.626Z" transform="translate(-39.177 -31.206)" fill="#eac485"/>
    <path id="Path_17770" data-name="Path 17770" d="M386.3,286.805A1.481,1.481,0,0,0,384,285.766c-3.027,1.881-6.073,3.734-9.122,5.583a2.919,2.919,0,0,1,.671,1.962q0,.871-.019,1.752a22.751,22.751,0,0,1,1.362,3.036q5.16-3.94,10.4-7.77c1.617-1.175.6-3.63-1-3.521Z" transform="translate(-266.552 -203.443)" fill="#eac485"/>
  </g>
  <g id="Group_17175" data-name="Group 17175">
    <path id="Path_17771" data-name="Path 17771" d="M232.827,87.937a76.719,76.719,0,0,1-6.705,31.149,11.069,11.069,0,0,1-1.471,2.478,4.2,4.2,0,0,1-1.83,1.294,1.728,1.728,0,0,1-2.256-2.088,3.373,3.373,0,0,1,.423-1.065c4.24-7.315,6.121-15.328,7.18-23.627a75.433,75.433,0,0,0,.413-16.751c-.9-9.394-3.924-17.993-10.329-25.273a103.718,103.718,0,0,0-10.933-10.736,28.933,28.933,0,0,0-5.086-3.3,86.781,86.781,0,0,0-20.662-8.222,51.787,51.787,0,0,0-17.28-.768c-8.851.9-17.086,3.866-25.063,7.657a6.271,6.271,0,0,1-2.433.81,2.352,2.352,0,0,1-1.843-.958,2.654,2.654,0,0,1,.29-2.1,3.638,3.638,0,0,1,1.591-1.181c7.131-3.508,14.528-6.409,22.375-7.677,11.013-1.778,21.94-1.584,32.379,3.127,4.043,1.823,8.151,3.514,12.133,5.463,6.544,3.208,11.468,8.419,16.331,13.666,1.178,1.271,2.272,2.63,3.343,4,4.753,6.073,7.277,13.1,8.722,20.572a52.567,52.567,0,0,1,.71,13.53Z" transform="translate(-91.321 -17.977)" fill="#262c54"/>
    <path id="Path_17772" data-name="Path 17772" d="M33.977,143.858a60.917,60.917,0,0,1,3.291-20.688c1.568-4.815,4.692-8.609,7.716-12.491a2.316,2.316,0,0,1,1.4-.933,3.95,3.95,0,0,1,2.381.471c.833.6.5,1.613-.029,2.349-1.007,1.413-2.049,2.811-3.175,4.127a28.126,28.126,0,0,0-5.647,11.94,66,66,0,0,0-.6,29.278c1.517,7.367,3.153,14.792,6.828,21.433a58.439,58.439,0,0,0,16.135,19.116,52.672,52.672,0,0,0,14.789,7.215,75.147,75.147,0,0,0,23.65,3.6c6.922.029,13.637-1.181,19.816-4.585,1.7-.936,3.007-.707,3.563.394.571,1.133.055,2.278-1.626,3.24A37.749,37.749,0,0,1,108.5,212.85,73.915,73.915,0,0,1,76.2,209.668c-6.651-2.114-13.043-4.934-18.4-9.519a67.3,67.3,0,0,1-7.651-7.87c-3.669-4.36-7.3-8.838-9.248-14.273-1.881-5.26-3.537-10.62-4.918-16.031a60.6,60.6,0,0,1-2-18.116Z" transform="translate(-22.967 -74.325)" fill="#262c54"/>
    <path id="Path_17773" data-name="Path 17773" d="M349.733,306.589a24.982,24.982,0,0,1-3.93,12.888,10.944,10.944,0,0,1-10.526,5.418c-4.592-.248-7.751-2.82-9.845-6.664a16.194,16.194,0,0,1-1.639-9.539c.7-7.206,3.65-13.534,7.1-19.72,1.407-2.523,2.711-5.1,4.063-7.657a10.4,10.4,0,0,1,.713-1.255,2.8,2.8,0,0,1,2.943-1.417,2.453,2.453,0,0,1,1.865,2.31c.665,3.779,2.669,6.973,4.34,10.349a102.846,102.846,0,0,1,4.482,11.275,16.826,16.826,0,0,1,.429,4.008Zm-12.6-19.958c-.9,1.51-1.839,3.027-2.724,4.573-3.317,5.805-6.115,11.778-6.554,18.616a11.558,11.558,0,0,0,1.068,6.163c1.439,2.782,3.592,4.85,6.97,4.827a7.4,7.4,0,0,0,7.038-4.647c.6-1.307,1.133-2.656,1.607-4.014a16.718,16.718,0,0,0-.129-11.572c-1.7-4.744-4.25-9.045-6.509-13.5C337.832,286.94,337.593,286.888,337.135,286.63Z" transform="translate(-219.23 -188.687)" fill="#262c54"/>
    <path id="Path_17774" data-name="Path 17774" d="M203.866,324.62a11.749,11.749,0,0,0-4.192-5.686c-5.983-4.308-12.472-5.957-19.658-3.308-3.863,1.423-6.7,4.143-9.177,7.283-1.194,1.51-2.178,3.182-3.317,4.74-.875,1.194-1.772,1.478-2.672.713a2.832,2.832,0,0,1-.92-1.9,4.26,4.26,0,0,1,.8-2.133c2.42-3.753,5.128-7.319,8.842-9.855,7.912-5.411,16.2-5.512,24.666-1.291,5.179,2.585,8.819,6.483,10.342,12.175a11.388,11.388,0,0,1,.307,1.113c.484,2.911-1.049,4.218-3.843,3.208-2.359-.852-4.692-1.778-7-2.753a22.2,22.2,0,0,0-12.511-1.129c-3.988.652-8.035,1.062-11.765,2.817-.913.429-1.949.636-2.643-.281a2.44,2.44,0,0,1-.39-1.859,2.722,2.722,0,0,1,1.278-1.442,13.229,13.229,0,0,1,3.7-1.594c4.159-.784,8.351-1.439,12.546-2.01,4.331-.591,8.435.439,12.427,2.052.849.345,1.726.623,3.182,1.139Z" transform="translate(-111.028 -210.1)" fill="#262c54"/>
    <path id="Path_17775" data-name="Path 17775" d="M132.714,230.4c-6.615-.329-9.006-5.4-8.832-9.823a2.2,2.2,0,0,1,2.075-2.346c.994.013,1.684.774,1.943,2.146a21.708,21.708,0,0,0,.549,2.83,4.171,4.171,0,0,0,5.521,2.736c5.715-1.83,7.512-9.958,3.1-14.008-2.269-2.085-6.415-.975-7.954,2.146-.255.516-.387,1.094-.626,1.62a1.82,1.82,0,0,1-2.085,1.194,1.731,1.731,0,0,1-1.51-2.117,9.565,9.565,0,0,1,1.249-3.753,10.884,10.884,0,0,1,7.545-4.424,6.974,6.974,0,0,1,6.05,2.2c3.562,3.411,5.679,8.922,2.669,14.508-1.713,3.182-3.882,5.77-7.538,6.712-.836.216-1.7.3-2.156.381Z" transform="translate(-83.897 -139.878)" fill="#262c54"/>
    <path id="Path_17776" data-name="Path 17776" d="M303.3,219.626c-.236,4.195-1.426,7.557-4.982,9.823a9.549,9.549,0,0,1-14.666-7.254c-.371-5.486,2.023-9.907,6.464-13.117a6.557,6.557,0,0,1,2.962-.865,1.879,1.879,0,0,1,.862,3.633c-3.675,1.233-4.956,4.327-6.054,7.58a5.146,5.146,0,0,0,.3,3.937,5.562,5.562,0,0,0,5.182,3.5,6.056,6.056,0,0,0,5.308-4.25,9.839,9.839,0,0,0-.816-7.548,6.6,6.6,0,0,1-.887-2.094,2.6,2.6,0,0,1,.639-1.765,1.491,1.491,0,0,1,2.107-.116,7,7,0,0,1,1.575,1.633,14.794,14.794,0,0,1,2.017,6.9Z" transform="translate(-192.091 -141.012)" fill="#262c54"/>
    <path id="Path_17777" data-name="Path 17777" d="M367.1,48.246c-.371.5-.649,1.181-1.152,1.484a1.839,1.839,0,0,1-2.394-.307,9.874,9.874,0,0,1-1.217-1.952A62.794,62.794,0,0,0,354.692,35.9a51.024,51.024,0,0,0-14.2-10.842c-3.037-1.659-6.309-2.891-9.474-4.314a10.121,10.121,0,0,1-1.575-.72,1.973,1.973,0,0,1,1.323-3.65,11.04,11.04,0,0,1,2.227.623,72.986,72.986,0,0,1,19.558,11.13c6.092,4.756,10.065,11.12,13.611,17.813a24.661,24.661,0,0,1,.933,2.307Z" transform="translate(-222.453 -11.069)" fill="#262c54"/>
    <path id="Path_17778" data-name="Path 17778" d="M98.246,0c1.288-.006,2.162.284,2.443,1.436.271,1.12-.384,2.127-1.823,2.533-2.972.839-6,1.491-8.951,2.375A90.267,90.267,0,0,0,65.942,17.077a21.248,21.248,0,0,0-6.018,5.363,3.938,3.938,0,0,1-1.41,1.42,2.685,2.685,0,0,1-2.11.116,2.58,2.58,0,0,1-.813-1.943,3.66,3.66,0,0,1,.826-1.781,25.188,25.188,0,0,1,7.693-6.938C74.338,6.8,85.584,2.827,97.327.126A7.48,7.48,0,0,1,98.243,0Z" transform="translate(-37.648 0)" fill="#262c54"/>
    <path id="Path_17779" data-name="Path 17779" d="M7.534,263.13c-.087-3.017.591-4.185,1.891-4.211,1.178-.026,1.959.955,2.146,2.917a59,59,0,0,0,3.985,17.677,109,109,0,0,0,5.857,10.917,32,32,0,0,0,2.991,4.25A44.974,44.974,0,0,0,27.557,298c.4.407.929.7,1.317,1.117a1.662,1.662,0,0,1,.245,2.346,3.311,3.311,0,0,1-1.988.8,2.451,2.451,0,0,1-1.565-.613,18.511,18.511,0,0,1-3.611-3.279c-2.6-3.695-5.05-7.506-7.432-11.352-3.191-5.157-4.692-10.946-5.883-16.812-.536-2.633-.836-5.318-1.107-7.08Z" transform="translate(-5.095 -175.368)" fill="#262c54"/>
    <path id="Path_17780" data-name="Path 17780" d="M120.871,158.99c-.536.684-.829,1.433-1.333,1.623a8.657,8.657,0,0,1-3.069.561,32.2,32.2,0,0,0-9.119,1.268,17.711,17.711,0,0,0-10.184,7.131,4.676,4.676,0,0,1-1.342,1.478,2.288,2.288,0,0,1-1.8.232,1.984,1.984,0,0,1-1-1.523,5.91,5.91,0,0,1,.871-2.652,19.709,19.709,0,0,1,8.99-7.451,35.511,35.511,0,0,1,14.069-2.749,4.912,4.912,0,0,1,2.23.432A8.446,8.446,0,0,1,120.871,158.99Z" transform="translate(-62.997 -106.275)" fill="#262c54"/>
    <path id="Path_17781" data-name="Path 17781" d="M297.382,156.195A22.948,22.948,0,0,1,311,161.087c2.246,1.807,4.466,3.653,6.622,5.563a4.587,4.587,0,0,1,1.694,3.827A1.6,1.6,0,0,1,318,172.145a4.609,4.609,0,0,1-1.843-.471c-.155-.052-.281-.265-.371-.429-2.117-3.788-5.873-5.754-9.2-8.151a17.529,17.529,0,0,0-8.984-2.83,16.033,16.033,0,0,1-2.836-.413,1.786,1.786,0,0,1-1.391-1.952,1.826,1.826,0,0,1,1.71-1.688,18.906,18.906,0,0,1,2.3-.019Z" transform="translate(-198.694 -105.771)" fill="#262c54"/>
    <path id="Path_17782" data-name="Path 17782" d="M231.879,440.718a25.214,25.214,0,0,0,12.194-1.875,5.706,5.706,0,0,1,1.659-.439,1.773,1.773,0,0,1,2.078,1.168,1.911,1.911,0,0,1-.745,2.3,7.789,7.789,0,0,1-1.778.933,25.681,25.681,0,0,1-9.819,2.043c-2.885-.077-5.776-.029-8.661-.071a6.975,6.975,0,0,1-1.988-.278,1.954,1.954,0,0,1-1.568-2.136,1.915,1.915,0,0,1,2.043-1.675c1.249-.032,2.5.023,3.753.035.865.006,1.733,0,2.833,0Z" transform="translate(-151.194 -296.924)" fill="#262c54"/>
    <path id="Path_17783" data-name="Path 17783" d="M-.007,186.969c.155-2.2.3-4.411.465-6.615a7.978,7.978,0,0,1,.161-1.142,1.851,1.851,0,0,1,2.075-1.588,1.815,1.815,0,0,1,1.81,1.884c.094,1.242-.01,2.5-.039,3.75q-.106,4.468-.219,8.935A13.711,13.711,0,0,1,4.2,193.9a1.7,1.7,0,0,1-1.691,1.659,1.833,1.833,0,0,1-1.943-1.417,14.54,14.54,0,0,1-.439-2.833c-.071-1.442-.019-2.888-.019-4.334-.039,0-.077-.006-.116-.006Z" transform="translate(0.01 -120.304)" fill="#262c54"/>
    <path id="Path_17784" data-name="Path 17784" d="M457.844,147.729c-.013,1.452-.587,2.352-1.552,2.523-1.1.2-2.078-.484-2.427-1.926-.829-3.443-1.626-6.893-2.323-10.365-.394-1.956.181-3.069,1.407-3.272,1.249-.21,2.136.545,2.6,2.465.787,3.256,1.484,6.534,2.214,9.8a5.981,5.981,0,0,1,.084.771Z" transform="translate(-305.747 -91.203)" fill="#262c54"/>
    <path id="Path_17785" data-name="Path 17785" d="M95.591,66.984A5.006,5.006,0,0,1,94.7,68.41q-3.684,3.214-7.483,6.3a1.814,1.814,0,0,1-2.607-.048,1.88,1.88,0,0,1-.236-2.388,3.931,3.931,0,0,1,.826-1.165c2.262-1.93,4.489-3.9,6.857-5.692a2.1,2.1,0,0,1,3.53,1.568Z" transform="translate(-56.933 -43.947)" fill="#262c54"/>
    <path id="Path_17786" data-name="Path 17786" d="M464.058,200.758c-.142.874-.329,2.307-.62,3.721a1.707,1.707,0,0,1-1.868,1.465c-1-.026-1.885-.639-1.852-1.5a33.819,33.819,0,0,1,.823-6.209,1.53,1.53,0,0,1,2.172-.855,3.929,3.929,0,0,1,1.313,1.672c.165.294.029.755.029,1.7Z" transform="translate(-311.368 -133.574)" fill="#262c54"/>
    <path id="Path_17787" data-name="Path 17787" d="M317.241,425.783a1.8,1.8,0,0,1,2.023,1.868c-.032,1.349-1.855,2.736-3.527,2.678a1.821,1.821,0,0,1-1.826-2.072c.074-1.326,1.617-2.472,3.33-2.478Z" transform="translate(-212.609 -288.385)" fill="#262c54"/>
  </g>
</svg>
