<svg id="_21" data-name="21" xmlns="http://www.w3.org/2000/svg" width="150.096" height="142.041" viewBox="0 0 150.096 142.041">
  <g id="Group_17176" data-name="Group 17176" transform="translate(10.842 11.768)">
    <path id="Path_17788" data-name="Path 17788" d="M205.274,335.171c-2.485-.174-5-.252-7.509-.261a43.319,43.319,0,0,0-10.633.452,1.658,1.658,0,0,0-.49.165,50.345,50.345,0,0,0-9.849,2.4c-.245.058-.494.113-.739.171a1.831,1.831,0,0,0-1.023.616,1.19,1.19,0,0,0-.426.929,2.058,2.058,0,0,0,2.007,2.581c1.891-.1,3.73.09,5.634-.194a49.007,49.007,0,0,0,5.56-1.236,39.037,39.037,0,0,1,8.093-1.72c1.107.039,2.214.107,3.321.223a1.817,1.817,0,0,0,.481-.016,3.685,3.685,0,0,0,2.269.562,12.38,12.38,0,0,0,3.84-.713,2.027,2.027,0,0,0-.536-3.963Z" transform="translate(-129.077 -238.508)" fill="#ba8b54"/>
    <path id="Path_17789" data-name="Path 17789" d="M160.371,94.06c-10.765,5.515-21.533,11.062-32.121,16.925a3.675,3.675,0,0,1-1.071,2.436,6.437,6.437,0,0,1-3.291,1.739,7.633,7.633,0,0,1-.975.574,7.007,7.007,0,0,1-4.124.629c-3.046,1.772-6.083,3.566-9.084,5.412a1.682,1.682,0,0,0-.181-.058q4.25-2.788,8.555-5.5a6.169,6.169,0,0,1-4.437-7.854,7.9,7.9,0,0,1,5.27-5.1,7.285,7.285,0,0,1,7.067,1.258,2.952,2.952,0,0,1,.681,3.346,3.831,3.831,0,0,1,1.475,2.117q4.84-2.953,9.7-5.867Q146.4,99.005,155.078,94.1c1.452-.826.455-3.472-1.175-2.785-.123.052-.239.106-.361.158v0l-.045.026c-3.269,1.381-6.5,2.84-9.713,4.334l15.473-8.2c-.2-.839-.4-1.681-.529-2.546-.032-.21-.09-.542-.155-.916q-9.821,4.661-19.468,9.671,2.924-1.883,5.85-3.763,5.174-2.8,10.358-5.589a1.312,1.312,0,0,0,.732-1.562c1.329-1.065.39-3.575-1.439-2.969q-4.289,1.418-8.532,2.975c1.326-.716,2.643-1.449,3.972-2.156,1.73-.92.21-3.414-1.52-2.6-4.9,2.31-9.748,4.731-14.566,7.212q.794-.46,1.591-.926,9.69-5.615,19.378-11.233a1.547,1.547,0,0,0-1.562-2.669l-.194.106a1.407,1.407,0,0,0-1.91-1.317q-14.386,5.562-28.193,12.469,3.437-2.222,6.886-4.414c6.231-3.956,12.5-7.851,18.777-11.746a1.733,1.733,0,0,0-1.546-3.085l.126-.074a1.7,1.7,0,0,0-1.717-2.94c-.055.032-.113.065-.168.094a1.736,1.736,0,0,0-2.178-.507q-14.09,6.694-27.726,14.3,2.29-1.423,4.579-2.843a1.17,1.17,0,0,0,.139-1.885c1.384-.813,2.759-1.642,4.143-2.449q8.466-4.937,16.993-9.771c1.8-1.023.21-3.7-1.617-2.765q-16.23,8.354-31.95,17.683c-.019.006-.035,0-.055.01-.316.126-.626.268-.936.4q6.322-4.008,12.7-7.88c5.3-3.2,10.649-6.309,15.96-9.487,1.826-1.094.229-3.617-1.633-2.791-2.1.933-4.176,1.9-6.244,2.891a1.708,1.708,0,0,0-2.378-2.088c-7.887,4.2-15.628,8.677-23.24,13.356q-1.544.939-3.082,1.885c-.378.236-.755.471-1.133.71q-2.3,1.433-4.6,2.885,8.538-5.654,17.3-10.968,9.865-5.978,19.994-11.51c1.936-1.058.232-3.9-1.717-2.94q-5.2,2.561-10.3,5.3,3.538-2.4,7.08-4.8c1.784-1.21.177-4.066-1.71-2.924q-2.338,1.413-4.676,2.833a1.636,1.636,0,0,0-2.349-.581q-29.328,18-58.655,36C70.095,72.039,83.1,63.666,96.284,55.753c5.347-3.208,10.736-6.351,16.125-9.487a1.708,1.708,0,0,0-1.113-3.14q1.21-.774,2.423-1.555c1.968-1.262.181-4.372-1.843-3.149Q97.791,46.945,83.7,55.46q11.239-8.413,22.963-16.151a1.545,1.545,0,0,0-1.559-2.665q-7.265,3.4-14.427,7c1.065-1.362-.839-3.459-2.452-2.546L64.809,54.359q9.758-7.164,19.52-14.327A1.313,1.313,0,0,0,83,37.766,290.535,290.535,0,0,0,51.079,58.306a1.342,1.342,0,0,0,.529,2.381C49.22,62.42,46.842,64.169,44.45,65.9a1.417,1.417,0,0,0,1.43,2.446l6.392-3.495Q49.3,66.73,46.354,68.635c-1.781,1.129-.148,3.959,1.662,2.84q4.806-2.972,9.623-5.947Q50.112,71.6,42.65,77.754a1.674,1.674,0,0,0-.487,1.943l-.071.048C40.172,81.1,42,84.292,43.95,82.924q7.991-5.61,15.973-11.239a2.038,2.038,0,0,0,.852.8c-.955.691-1.914,1.371-2.862,2.068Q50.483,80,43.266,85.747c-1.239.987-.255,2.865,1.036,3.127-1.349,1.271-2.685,2.556-3.992,3.869a1.884,1.884,0,0,0,2.275,2.946q5.315-3.258,10.62-6.531c-3.543,2.891-6.983,5.905-10.255,9.1a1.559,1.559,0,0,0-.461.9,62.82,62.82,0,0,0-8.658,7.551.877.877,0,0,0,1.058,1.371,98.131,98.131,0,0,0,9.594-6.893,1.585,1.585,0,0,0,.542-.236l1.033-.7a1.538,1.538,0,0,0,.442-.2Q53.276,95.5,60.024,90.9q-9.071,7.023-17.822,14.44a1.708,1.708,0,0,0-.136,2.252,1.754,1.754,0,0,0,2.214.442c.1-.042.2-.09.294-.136q-3.209,2.793-6.363,5.644c-1.559,1.417.681,3.472,2.252,2.252,12-9.3,24.066-18.555,36.477-27.3q-6.685,5.368-12.927,11.239a1.485,1.485,0,0,0-.465.868q-3.882,2.962-7.69,6.015a158.219,158.219,0,0,0-13.363,11.607c-.6.607.2,1.749.945,1.223,2.146-1.51,4.23-3.1,6.3-4.708a1.332,1.332,0,0,0,1.668.629c.858-.352,1.688-.739,2.5-1.149a1.552,1.552,0,0,0,.029,1.649c-3.5,2.346-6.951,4.769-10.313,7.312a1.812,1.812,0,0,0,.645,3.211,1.574,1.574,0,0,0,2.423,1.1l6.054-3.488q-3.834,2.8-7.67,5.592c-.965.7-.252,2.223.729,1.955a1.6,1.6,0,0,0,1.1,2.117,9.325,9.325,0,0,0,3.314.048c-.378.416-.762.826-1.129,1.252a1.552,1.552,0,0,0,1.872,2.427q4.869-2.7,9.729-5.418a1.47,1.47,0,0,0,.632,2.375q-.833.765-1.639,1.559c-1.349,1.068-2.7,2.133-4.05,3.208a1.445,1.445,0,0,0-.442,1.7,1.777,1.777,0,0,0,2.375,2.491l6.047-3.462q-3.19,2.686-6.263,5.492a17.519,17.519,0,0,0,5.17,3.111q3.621-2.222,7.222-4.479-2.057,1.9-4.014,3.9a1.651,1.651,0,0,0-.468,1.355,3,3,0,0,1,1.388,1.626,1.559,1.559,0,0,0,1.2-.232q3.906-2.459,7.832-4.889c-1.688,1.555-3.34,3.153-4.937,4.818a1.628,1.628,0,0,0,1.965,2.546q6.868-4.013,13.75-8.006c-2.462,2.036-4.876,4.127-7.193,6.344a1.677,1.677,0,0,0,2.023,2.623c.965-.568,1.92-1.152,2.878-1.73a1.721,1.721,0,0,0,2.54.981c.081-.055.161-.11.242-.168a2.037,2.037,0,0,0,1.023,1.307c-.632.536-1.278,1.055-1.907,1.6-1.51,1.307.478,3.911,2.149,2.785,2.162-1.459,4.34-2.891,6.515-4.334a1.672,1.672,0,0,0,2.42.684l2.4-1.41a1.816,1.816,0,0,0,1.546,3.2q1.849-.4,3.7-.8a1.641,1.641,0,0,0,1.149-2.352q1.747-1.176,3.488-2.349a1.631,1.631,0,0,0,1.462-.168c1.371-.81,2.682-1.7,4.05-2.517l-4.957,3.359c-1.952,1.323-.219,4.4,1.868,3.195q.687-.4,1.375-.8a1.6,1.6,0,0,0,2.369.81c2.191-1.275,4.4-2.517,6.622-3.746a.916.916,0,0,0,1.284.987,228.207,228.207,0,0,0,22.308-13.43,1.655,1.655,0,0,0-.019-2.785c2.165-1.381,4.331-2.769,6.5-4.134a1.638,1.638,0,0,0-1.652-2.827q-1.859,1.05-3.717,2.1,1.1-.8,2.165-1.646h.006c.11-.087.226-.168.332-.255,1.439-1.171-.452-3.627-1.991-2.582-1.2.668-2.375,1.41-3.533,2.172-2.007,1.149-4.059,2.227-6.07,3.343-.526.294-1.052.584-1.578.878q7.261-4.879,14.524-9.755a1.694,1.694,0,0,0,.787-1.6c1.378-1.046,2.753-2.094,4.111-3.162a1.051,1.051,0,0,0-.352-1.752,1.618,1.618,0,0,0-2.175-1.042,4.513,4.513,0,0,0,2.291-2.452.779.779,0,0,0-.539-.949c-1.817-.387-3.663,1.349-5.111,2.252l-4.23,2.633a1.65,1.65,0,0,0-1.462-.371c3.808-2.1,7.6-4.25,11.184-6.67.816-.478,1.633-.952,2.446-1.436a1.5,1.5,0,0,0-1.517-2.6q-9.86,4.787-19.423,10.162c-6.376,3.575-12.569,7.441-18.861,11.159a1.814,1.814,0,0,0-.484.413q-2.759,1.626-5.5,3.279c2.946.778,3.821,5.5.316,6-1.7.242-3.388.371-5.079.449a3.492,3.492,0,0,1-.739.139c-8.222.649-16.128,2.895-24.386,1.891l-.032,0v-.01c-.281-.036-.558-.061-.839-.1-3.872-.578-2.291-5.783.836-6.186,4.55-.584,8.913-1.736,13.527-1.9,5.018-.184,10.036.355,15.034-.355a3.331,3.331,0,0,1,1,.016c9.532-6.3,19.29-12.259,29.139-18.048q7.178-4.221,14.4-8.374c1.546-.894.494-3.721-1.258-2.985-.129.055-.258.113-.387.168v0l-.035.019c-1.533.645-3.049,1.317-4.569,1.988l11.407-6.431c.065-1.249.123-2.494.094-3.746Zm-29.939-1.2q-7.861,3.988-15.567,8.277,3.495-2.2,7.022-4.34Q126.127,94.758,130.431,92.859Zm-62.75,31.775q-2.338,1.288-4.673,2.578l3.143-2.207,1.717-1.084c.8-.465,1.594-.933,2.391-1.4-.865.694-1.72,1.407-2.578,2.11Zm7.19-6.041c-2.365.92-5.173.91-7.093-.552-.268.2-.539.39-.8.594Q60.7,123.1,54.638,127.865a1.251,1.251,0,0,0-.468.729c-.242.142-.481.287-.726.423-.516.287-1.055.565-1.607.8q4.182-4.211,8.658-8.1c2.175-1.465,4.337-2.953,6.505-4.424a5.513,5.513,0,0,1-.868-1.384,9.247,9.247,0,0,1,.742-7.867c1.468-2.7,4.889-4.4,7.419-1.855,0,0,0,.006.006.006a6.315,6.315,0,0,1,3.827,1.087c5.028,3.411,1.094,9.623-3.256,11.31Zm13.8-16.922q-3.514,2.343-6.948,4.789a1.811,1.811,0,0,0-.219-1.016c.707-.5,1.413-1.01,2.123-1.507,3.592-2.52,7.212-5,10.833-7.483a1.8,1.8,0,0,0,.571-.629c4.053-2.591,8.122-5.16,12.224-7.67-6.315,4.34-12.527,8.822-18.587,13.517Zm8.035,1.794a1.647,1.647,0,0,0,.319-1.7c7.757-4.489,15.586-8.851,23.556-12.95-8.08,4.689-16.06,9.542-23.876,14.65Zm7.006,17.854a2.332,2.332,0,0,0-.129-.213c1.349-.81,2.694-1.626,4.047-2.427-1.313.868-2.611,1.759-3.914,2.643Z" transform="translate(-33.598 -36.469)" fill="#eac485"/>
    <path id="Path_17790" data-name="Path 17790" d="M140.947,255.714a1.777,1.777,0,0,0-.449-.4,1.7,1.7,0,0,0-.248-1.933,1.64,1.64,0,0,0-.11-2.149,1.74,1.74,0,0,0-1.53-.436l.2-.177a1.458,1.458,0,0,0-2.043-2.081,1.374,1.374,0,0,0-.129-.281,1.563,1.563,0,0,0-2.114-.555q-.939.6-1.875,1.191c-.019.006-.035.006-.055.013a10.97,10.97,0,0,0-2.088.949,17.457,17.457,0,0,0-3.488,2.694,1.655,1.655,0,0,0,1.071,2.756,1.519,1.519,0,0,0,.374.694c.006.006.019.01.026.019q-1.3,1.181-2.607,2.356a1.467,1.467,0,0,0-.116,1.933,1.491,1.491,0,0,0,1.9.378c1.107-.532,2.185-1.12,3.246-1.736a1.663,1.663,0,0,0,.2.171c-.226.2-.455.39-.681.587-1.475,1.291.465,3.834,2.107,2.73.207-.139.413-.277.623-.416a1.59,1.59,0,0,0,1.855.132c.384-.281.774-.558,1.162-.839a2.023,2.023,0,0,0,2.217-.552,1.317,1.317,0,0,0,.3-.665c.732-.694,1.41-1.462,2.127-2.152a1.7,1.7,0,0,0,.132-2.23Z" transform="translate(-95.815 -179.397)" fill="#75757c"/>
    <path id="Path_17791" data-name="Path 17791" d="M293.5,251.691c.016-.019.032-.042.048-.061l-.023-.013a1.378,1.378,0,0,0-.607-1.991c.126-.126.242-.265.368-.39a1.556,1.556,0,0,0-1-2.588,1.61,1.61,0,0,0-.72-1.762,1.464,1.464,0,0,0-1.623.071,1.316,1.316,0,0,0-2.026-.084c-.4.384-.774.791-1.146,1.2-.242.226-.481.452-.736.668a1.036,1.036,0,0,0-1.455-.242,35.566,35.566,0,0,0-4.756,4.724,1.463,1.463,0,0,0-.113,1.907,1.448,1.448,0,0,0,1.875.374c.355-.226.7-.471,1.046-.707a.01.01,0,0,0,0,.006,1.6,1.6,0,0,0,1.772.532,1.7,1.7,0,0,0,.368.639,1.576,1.576,0,0,0,.7.387c-.094.177-.194.355-.281.536a1.6,1.6,0,0,0,.758,2.214,1.57,1.57,0,0,0,.181.294,1.63,1.63,0,0,0,2.056.41,12.423,12.423,0,0,0,2.953-1.839,1.278,1.278,0,0,0,1.462-1.255.352.352,0,0,0,0-.065c.271-.268.542-.529.807-.81a1.69,1.69,0,0,0,.1-2.156Z" transform="translate(-200.083 -177.324)" fill="#75757c"/>
  </g>
  <g id="Group_17177" data-name="Group 17177">
    <path id="Path_17792" data-name="Path 17792" d="M106.415,156.108c-23.673-.72-41.94-10.978-54.625-31.069a27.956,27.956,0,0,1-1.755-3.327,1.915,1.915,0,0,1,.552-2.585,2.012,2.012,0,0,1,2.8.639,12.406,12.406,0,0,1,1.081,1.707c9.832,16.786,24.25,27,43.554,29.878a59.152,59.152,0,0,0,66.239-44.428c4.7-19.2.707-36.809-11.8-52.215a56.611,56.611,0,0,0-38.316-21.194c-21.243-2.562-38.946,4.55-53.1,20.475a53.086,53.086,0,0,0-9.687,16.047c-.387.987-.729,2-1.194,2.953a2.061,2.061,0,0,1-2.623,1.187c-1.013-.342-1.423-1.262-1.1-2.627a15.064,15.064,0,0,1,.652-1.917A62.509,62.509,0,0,1,69.712,40.559,61.123,61.123,0,0,1,112.73,29.168c21.094,2.275,37.4,12.675,48.5,30.869a62.061,62.061,0,0,1,8.693,27.626,63.645,63.645,0,0,1-63.512,68.446Z" transform="translate(-31.38 -19.497)" fill="#262c54"/>
    <path id="Path_17793" data-name="Path 17793" d="M0,120.6C.384,103.712,4.527,88.94,13.718,75.8a103.057,103.057,0,0,1,7.464-8.838,5.64,5.64,0,0,1,2.336-1.62,2.269,2.269,0,0,1,2.023.52,2.64,2.64,0,0,1,.152,2.114c-.181.584-.816,1.046-1.3,1.513C14.131,79.475,8.438,91.837,5.56,105.665A67.039,67.039,0,0,0,4.5,126.385C4.934,130.479,6.1,134.5,6.96,138.55c.161.752.51,1.462.674,2.214a1.743,1.743,0,0,1-1.158,2.081,1.759,1.759,0,0,1-2.307-.623,8.2,8.2,0,0,1-.858-1.823A53.653,53.653,0,0,1,.365,126.278c-.171-2.214-.281-4.431-.358-5.673Z" transform="translate(0 -44.215)" fill="#262c54"/>
    <path id="Path_17794" data-name="Path 17794" d="M359.239,239.484c-1.284,4.94-2.323,9.961-3.9,14.8a80.026,80.026,0,0,1-13.659,25.367c-6.883,8.593-15.125,15.421-25.528,19.381a20.8,20.8,0,0,1-3.608.991,1.722,1.722,0,0,1-2.091-1.155,1.894,1.894,0,0,1,1.007-2.443,14.338,14.338,0,0,1,2.146-.849c8.435-2.882,15.357-7.987,21.369-14.447,9.3-9.994,15.163-21.8,18.468-34.954.539-2.146.871-4.347,1.3-6.522a13.777,13.777,0,0,1,.287-1.417c.394-1.281,1.281-1.968,2.259-1.794a2.248,2.248,0,0,1,1.678,2.381c.006.194,0,.387,0,.578l.281.077Z" transform="translate(-210.182 -160.128)" fill="#262c54"/>
    <path id="Path_17795" data-name="Path 17795" d="M198.845,328.556c-7.525-1.71-14.569-2.73-21.724-.568-4.053,1.223-8.241,2.062-11.885,4.4a2.75,2.75,0,0,1-1.352.41,1.8,1.8,0,0,1-1.633-2.8,4.917,4.917,0,0,1,1.642-1.565,22.929,22.929,0,0,1,3.908-1.862,75.364,75.364,0,0,1,14.815-3.772,35.624,35.624,0,0,1,9.784.419c3.888.571,7.69,1.717,11.526,2.627a7.345,7.345,0,0,1,1.362.481c1.194.545,2.259,1.258,2.127,2.765a2.91,2.91,0,0,1-2.32,2.665c-2.236.558-4.514.965-6.78,1.41a119.611,119.611,0,0,1-23.524,2.591,13.875,13.875,0,0,1-2.594-.136,2.046,2.046,0,0,1-1.8-2.249c.139-1.178.942-1.607,2.014-1.659.674-.032,1.352-.016,2.026-.01a120.013,120.013,0,0,0,22.672-2.443,11.791,11.791,0,0,0,1.736-.7Z" transform="translate(-109.686 -218.508)" fill="#262c54"/>
    <path id="Path_17796" data-name="Path 17796" d="M129.142,225.99c-.129,2.73-.107,5.034-.4,7.3a8.04,8.04,0,0,1-1.388,3.124,1.754,1.754,0,0,1-2.5.749,2,2,0,0,1-.929-2.491c.177-.549.516-1.049.662-1.6.507-1.962,1-3.94-.129-5.757l-9.342-1.613a9.758,9.758,0,0,0-2.059,8.212c.623,2.811,2.665,4.166,5.547,3.824a21.152,21.152,0,0,1,2.585-.245,1.449,1.449,0,0,1,1.61,1.346c0,.671-.316,1.72-.794,1.939a11.844,11.844,0,0,1-4.118,1.158,8.542,8.542,0,0,1-8.358-5.547c-1.3-3.149-.891-6.234.181-9.313.313-.9.749-1.765,1.184-2.778-1.071-1.065-2.562-1.226-3.817-1.839a26.278,26.278,0,0,1-3.821-1.988,1.923,1.923,0,0,1-.674-2.782c.671-1.046,1.594-1.165,3.03-.487,5.241,2.475,10.555,4.782,16.36,5.534a8.426,8.426,0,0,0,6.6-1.5,4.667,4.667,0,0,0,2.062-3.34,17.137,17.137,0,0,1,.552-2.836,1.9,1.9,0,0,1,2.11-1.584,1.81,1.81,0,0,1,1.759,1.959c-.171,2.794-.371,5.637-2.578,7.745-1.107,1.058-2.34,1.988-3.324,2.814Z" transform="translate(-69.248 -144.575)" fill="#262c54"/>
    <path id="Path_17797" data-name="Path 17797" d="M281.888,222.789c1.355,3.13,1.936,6.1,1.1,9.242A9.035,9.035,0,0,1,270,237.484c-3.224-1.885-5.118-4.64-5.066-8.513.006-.574,0-1.152,0-1.817a7.5,7.5,0,0,0-1.12-.345c-3.211-.468-4.869-1.743-5.1-4.9a45.609,45.609,0,0,1,.536-8.335c.123-1.107,1.1-1.517,2.191-1.417a1.65,1.65,0,0,1,1.63,1.71c.023,1.052-.177,2.107-.239,3.166a25.954,25.954,0,0,0-.126,4.03c.135,1.371.833,1.746,2.246,1.578a4.2,4.2,0,0,0,.568-.11q7.561-1.97,15.115-3.953a13,13,0,0,1,1.371-.439,2,2,0,0,1,2.2,1.052,1.754,1.754,0,0,1-.532,2.323,20.162,20.162,0,0,1-1.781,1.265Zm-4.385,1.026c-2.217.52-4.279.942-6.3,1.517a2.611,2.611,0,0,0-1.517,1.175,5.147,5.147,0,0,0,.368,5.721,6.112,6.112,0,0,0,6.005,1.93,4.2,4.2,0,0,0,2.917-2.943c.739-2.607.184-4.924-1.471-7.4Z" transform="translate(-175.191 -143.688)" fill="#262c54"/>
    <path id="Path_17798" data-name="Path 17798" d="M35.922,225.982c.371,5.431,1.288,10.72,4.017,15.541a6.062,6.062,0,0,1,.445.745,2.129,2.129,0,0,1-.445,2.646,2.085,2.085,0,0,1-2.849-.474,7.631,7.631,0,0,1-1.307-1.894A39.175,39.175,0,0,1,31.9,224.9a7.3,7.3,0,0,1,.465-2.243,1.737,1.737,0,0,1,2.091-1.146,1.619,1.619,0,0,1,1.449,1.575c.077.958.016,1.93.016,2.895Z" transform="translate(-21.601 -150.011)" fill="#262c54"/>
    <path id="Path_17799" data-name="Path 17799" d="M112.627,411.927a1.922,1.922,0,0,1-2.717,1.688,41.739,41.739,0,0,1-6.257-2.185c-3.217-1.51-6.334-3.243-9.455-4.95a9.426,9.426,0,0,1-2.259-1.765c-1.029-1.081-1.068-2.314-.265-3.078a2.315,2.315,0,0,1,2.914.032c1.868,1.168,3.73,2.349,5.637,3.453a44.6,44.6,0,0,0,10.039,4.334c1.843.529,2.42,1.262,2.362,2.465Z" transform="translate(-61.713 -271.695)" fill="#262c54"/>
    <path id="Path_17800" data-name="Path 17800" d="M448.8,160.522c0,.771.042,1.542-.01,2.307a1.686,1.686,0,0,1-1.607,1.73,1.754,1.754,0,0,1-2.01-1.278,7.373,7.373,0,0,1-.4-1.962,40.984,40.984,0,0,0-2.391-11.543,40.048,40.048,0,0,1-1.284-5.021,1.723,1.723,0,0,1,1.307-2.233,1.953,1.953,0,0,1,2.336,1.236,2.842,2.842,0,0,1,.255.516c1.452,5.37,3.708,10.552,3.808,16.244Z" transform="translate(-298.723 -96.488)" fill="#262c54"/>
    <path id="Path_17801" data-name="Path 17801" d="M94.557,28.111c-1.665.081-2.636-1.246-2.059-2.582a6.146,6.146,0,0,1,1.6-1.968,44.421,44.421,0,0,1,10.213-6.415,3.7,3.7,0,0,1,.8-.326,1.831,1.831,0,0,1,2.256.781,1.881,1.881,0,0,1-.539,2.565c-.755.584-1.617,1.026-2.42,1.552-2.723,1.784-5.434,3.582-8.158,5.366-.629.413-1.288.784-1.691,1.026Z" transform="translate(-62.536 -11.331)" fill="#262c54"/>
    <path id="Path_17802" data-name="Path 17802" d="M171.689,0c1.11.071,1.668-.045,2.043.168.532.3,1.249.816,1.3,1.3a3.686,3.686,0,0,1-.739,1.978c-.161.271-.649.4-1.016.487-1.959.461-3.924.891-5.889,1.326a1.892,1.892,0,0,1-.571.045,2.032,2.032,0,0,1-2.065-1.659A1.67,1.67,0,0,1,165.9,1.575C167.994.923,170.137.416,171.689,0Z" transform="translate(-111.552)" fill="#262c54"/>
    <path id="Path_17803" data-name="Path 17803" d="M345.774,226.843c-1.7.006-2.591-.232-2.92-1.362-.3-1.029.2-1.9,1.51-2.394a11.672,11.672,0,0,1,2.769-.723,1.706,1.706,0,0,1,1.994,1.268,1.8,1.8,0,0,1-.765,2.262,18.92,18.92,0,0,1-2.588.955Z" transform="translate(-232.161 -150.598)" fill="#262c54"/>
    <path id="Path_17804" data-name="Path 17804" d="M424.911,101.5c-.252,1.155-.5,2.059-1.649,2.327a1.854,1.854,0,0,1-2.278-1.258,17.239,17.239,0,0,1-.955-2.682,1.753,1.753,0,0,1,.978-2.159,1.775,1.775,0,0,1,2.323.523,26.563,26.563,0,0,1,1.581,3.253Z" transform="translate(-284.444 -66.051)" fill="#262c54"/>
    <path id="Path_17805" data-name="Path 17805" d="M43.7,192.989c.045,1.362-1.31,3.108-2.446,3.159a2.083,2.083,0,0,1-2.023-2.023,2.821,2.821,0,0,1,2.378-3.075,2.047,2.047,0,0,1,2.091,1.939Z" transform="translate(-26.565 -129.4)" fill="#262c54"/>
  </g>
</svg>
