<svg id="_23" data-name="23" xmlns="http://www.w3.org/2000/svg" width="147.534" height="146.639" viewBox="0 0 147.534 146.639">
  <g id="Group_17181" data-name="Group 17181" transform="translate(10.077 12.788)">
    <path id="Path_17827" data-name="Path 17827" d="M230.086,309.772c-.916.845-1.833,1.714-2.74,2.569a2.117,2.117,0,0,1-3.537-1.12c1.814-1.613,3.527-3.3,6.218-1.471a.137.137,0,0,0,.061.019Z" transform="translate(-161.666 -222.038)" fill="#fff"/>
    <path id="Path_17828" data-name="Path 17828" d="M273.865,304.711c-1.636,1.646-3.317,3.25-5.018,4.827a1.213,1.213,0,0,0-2.03-.987c-.484.419-.952.862-1.41,1.323-.106.09-.216.181-.326.271a1.1,1.1,0,0,0-1.739-.629,47.351,47.351,0,0,1-4.069,2.83q.862-1.254,1.688-2.52a.852.852,0,0,0-1.333-1.029c-.349.339-.687.687-1.033,1.033-.313.307-.639.61-.975.91.478-.5.952-1.01,1.42-1.526a.751.751,0,0,0-.907-1.175,22.374,22.374,0,0,0-2.807,1.794,1.194,1.194,0,0,0-.3-1.262,1.3,1.3,0,0,0-1.8,0q-1.152,1.181-2.3,2.359-.566.581-1.123,1.175a5.476,5.476,0,0,0-1.265,1.72A1.269,1.269,0,0,0,249,315.17a1.23,1.23,0,0,0,.981.236,1.162,1.162,0,0,0,1.646,1.417s0,.006.006.013c.061-.039.11-.094.171-.136.023-.019.045-.026.068-.048s.042-.036.061-.055a9.387,9.387,0,0,0,1.129-1c.278-.223.561-.439.855-.652-.513.623-1.016,1.252-1.5,1.9-.994,1.326,1.023,2.475,2.107,1.626.71-.555,1.359-1.152,2.062-1.707-.013.019-.032.039-.045.061a1.36,1.36,0,0,0,.926,2.007c-.155.2-.316.387-.465.587-1.023,1.368,1.107,2.775,2.259,1.743s2.372-2.046,3.588-3.04a1.655,1.655,0,0,0,1.572,1.026.947.947,0,0,0,1.568.152c2.559-2.743,4.676-5.9,7.031-8.819a1.414,1.414,0,0,0,.313-.736c.852-1.01,1.681-2.036,2.478-3.088h0c.071-.094.145-.184.216-.278C276.979,305.108,274.94,303.627,273.865,304.711Z" transform="translate(-178.374 -218.91)" fill="#ba8b54"/>
    <path id="Path_17829" data-name="Path 17829" d="M151.066,309.052c-.784.487-1.578.952-2.369,1.426.316-1.22-1.462-2.068-2.5-1.259-.626.487-1.268.955-1.917,1.407.452-1.087-.9-2.391-1.952-1.662q-1.389.958-2.8,1.881c.171-.194.342-.387.51-.581a1.452,1.452,0,0,0-2.052-2.052c-1.62,1.365-3.3,2.652-5.011,3.895.378-.455.758-.907,1.133-1.362a1.445,1.445,0,0,0-2.043-2.043c-.252.194-.5.394-.752.591a1.4,1.4,0,0,0-2.13-1.333c-.636.423-1.268.849-1.9,1.271.116-.887-1.255-1.5-2.043-.891-.639.5-1.268,1-1.91,1.5.071-.11.136-.223.207-.332.7-1.084-.726-2.591-1.82-1.82l-1.4.981a1.18,1.18,0,0,0-1.794-.813,1.254,1.254,0,0,0-2.072-.945c-.1.1-.2.184-.3.281a1.737,1.737,0,0,0-1.339-1.046,1.66,1.66,0,0,0-1.917-.581,1.721,1.721,0,0,0-1.826-.429,1.363,1.363,0,0,0-1.888-.513c-.323.229-.636.468-.952.7A5.065,5.065,0,0,0,106.142,307c-.9,1.181.407,2.288,1.581,2.149a1.493,1.493,0,0,0,.371.432c-.171,1.094.845,2.4,2.023,1.949a1.829,1.829,0,0,0,.678.481c0,.01-.006.019-.006.029a1.63,1.63,0,0,0,1.452,1.949,1.566,1.566,0,0,0,2.31,1.139c.116-.084.223-.184.336-.271a1.3,1.3,0,0,0,1.649.074c.194-.119.374-.258.558-.39-.442,1.152,1.026,2.575,2.133,1.762.145-.106.281-.219.423-.329a1.416,1.416,0,0,0,1.617.745c-.242.271-.484.539-.723.81a1.5,1.5,0,0,0,2.123,2.123c.532-.455,1.081-.891,1.623-1.336a1.423,1.423,0,0,0,2.1,1.591c1.329-.771,2.633-1.584,3.921-2.42a1.376,1.376,0,0,0,2.1,1.346c1.839-1.223,3.666-2.472,5.5-3.711a1.614,1.614,0,0,0,2.314,1.462c.755-.4,1.5-.826,2.227-1.265a1.5,1.5,0,0,0,2.165.981c.926-.6,1.843-1.22,2.762-1.833a1.034,1.034,0,0,0,.768,1.107,1.755,1.755,0,0,0,2.085-.816.75.75,0,0,0,.065-.636c.891-1.065,1.662-2.252,2.475-3.359.755-1.026-.7-2.327-1.7-1.7Z" transform="translate(-81.765 -218.963)" fill="#ba8b54"/>
    <path id="Path_17830" data-name="Path 17830" d="M206.377,345.459a1.835,1.835,0,0,0-2.288-1.255,1.836,1.836,0,0,0-2.943-.5,1.762,1.762,0,0,0-2.636-.855c-1.278-1.11-3.233-.006-4.585.574a6.231,6.231,0,0,0-4.737-.936c-.61-1.517-2.5-1.129-3.543-.029-.887-2.549-9.135,2.078-10.52,3.556-1.43,2.459,1.649,2.962,3.12,1.439a1.565,1.565,0,0,0,2.5,1.184c.423,1.52,2.085,1.478,3.2.5.023.023.045.048.071.071-1.171,2.859,2.585,3.082,4.134,1.513,4.289,2.749,11.762-.278,16.5-.894h0c1.268-1.033,3.54-2.849,1.72-4.376Z" transform="translate(-128.44 -244.075)" fill="#eb8486"/>
    <path id="Path_17831" data-name="Path 17831" d="M290.612,98.317c.345-.413.7-.82,1.042-1.233.923-1.1-.1-3.085-1.4-2.685.216-.255.432-.513.652-.768,1.017-1.2-.31-3.395-1.781-2.4.381-.436.752-.874,1.136-1.31a1.268,1.268,0,0,0-1.562-1.965c.829-.949,1.672-1.885,2.5-2.833,1.155-1.329-.665-3.2-1.952-1.949-.113.11-.223.216-.332.326.565-.945-.407-2.507-1.491-1.684-.077.058-.155.123-.232.181h0l0,0c-2.775,2.11-5.486,4.321-8.145,6.6q.7-.716,1.4-1.43c1.284-1.281,2.575-2.562,3.859-3.843a1.4,1.4,0,0,0-1.985-1.985q-1.4,1.37-2.775,2.759a1.354,1.354,0,0,0-2.2-.458q-2.154,1.955-4.318,3.9a1.351,1.351,0,0,0-2.01-1.42q-2.778,1.781-5.47,3.688c.942-1.02,1.9-2.026,2.84-3.049a1.144,1.144,0,0,0-1.617-1.617c-2.8,2.259-5.657,4.453-8.529,6.622q3.732-4,7.444-8.025c.852-.92-.29-2.64-1.41-1.83-1.068.774-2.156,1.52-3.24,2.272.526-.468,1.046-.942,1.572-1.407.981-.865-.281-2.443-1.381-1.791-1.878,1.113-3.763,2.214-5.647,3.317q1.965-1.743,3.937-3.485c.894-.787-.052-2.565-1.213-2.085a33.481,33.481,0,0,0-11.113,7.464.946.946,0,0,0,.307,1.552c-1.626,1.384-3.256,2.762-4.873,4.159-1.226,1.062.365,3.088,1.726,2.236l6.412-4q-3.248,2.8-6.5,5.6c-1.2,1.039.381,3.114,1.707,2.21,3.027-2.068,5.979-4.237,8.929-6.412q-4.41,4.6-8.751,9.271c-1.146,1.236.542,2.8,1.807,1.807q3.432-2.7,6.854-5.421-4.022,4.114-8.009,8.251a1.441,1.441,0,0,0,2.036,2.036,145.477,145.477,0,0,1,12.588-11.136q-4.69,5.015-9.348,10.065a1.468,1.468,0,0,0,2.075,2.075l5.382-4.918q-1.873,2.1-3.746,4.195c-1.191,1.336.691,3.259,1.978,1.978.174-.174.348-.349.526-.523a1.424,1.424,0,0,0,2.272.6q6.714-6.922,13.8-13.463c.845-.781,1.7-1.546,2.562-2.314q-1.588,1.82-3.175,3.633-6.8,7.788-13.853,15.344a1.406,1.406,0,0,0,1.655,2.207,1.443,1.443,0,0,0,2.417.452c.413-.452.82-.913,1.233-1.368q-1.563,1.96-3.053,3.969c-.949,1.284,1.158,2.9,2.214,1.707.762-.858,1.507-1.73,2.262-2.594-.642,1.536,1.284,3.32,2.54,1.859,1.071-1.249,2.133-2.507,3.2-3.763a1.57,1.57,0,0,0,2.569.507c.136-.136.278-.268.413-.4a1.421,1.421,0,0,0,2.427,1.139c1.249-1.368,2.523-2.711,3.792-4.059a.8.8,0,0,0,.3-.171c1.484-1.326,3.043-2.5,4.431-3.947a27.1,27.1,0,0,0,3.517-4.624,1.234,1.234,0,0,0,.181-.839c.674-.758,1.346-1.517,2.023-2.269a1.5,1.5,0,0,0-1.4-2.511Z" transform="translate(-174.107 -66.05)" fill="#eb8486"/>
    <path id="Path_17832" data-name="Path 17832" d="M84.361,94.052q-1.094.929-2.188,1.862,2.352-2.5,4.7-5.008a1.569,1.569,0,0,0-2.217-2.217q-2.251,1.873-4.5,3.743,2.715-2.783,5.437-5.566c1.481-1.517-.736-3.669-2.3-2.3Q77.923,89.223,72.6,93.929q4.734-5.45,9.461-10.9c.933-1.075-.3-3.03-1.626-2.107-2.21,1.536-4.372,3.146-6.509,4.792q2.546-2.9,5.1-5.8A1.5,1.5,0,0,0,76.907,77.8q-4.1,3.625-8.206,7.244c1.194-1.317,2.381-2.643,3.579-3.956a1.388,1.388,0,0,0-1.962-1.962q-4,3.374-8.019,6.731c.968-1.02,1.926-2.046,2.9-3.059.929-.968-.329-2.807-1.5-1.943-3.108,2.307-6.192,4.653-9.268,7.006,1.726-2.107,3.462-4.2,5.257-6.254a1.132,1.132,0,0,0-1.6-1.6c-1.43,1.233-2.869,2.452-4.308,3.675,1.065-1.187,2.146-2.365,3.2-3.559a1.19,1.19,0,0,0-1.681-1.681c-1.726,1.407-3.488,2.769-5.266,4.114,1.349-1.465,2.685-2.943,4.037-4.408a1.422,1.422,0,0,0-2.01-2.01c-.532.429-1.075.852-1.607,1.281.416-.552.852-1.087,1.255-1.646.826-1.139-.774-2.614-1.9-1.9A45.956,45.956,0,0,0,37.952,84.8a1.231,1.231,0,0,0,.555,1.8c-.813.781-1.62,1.568-2.459,2.327-1.436,1.294.587,3.22,2.049,2.149-.429.455-.852.916-1.284,1.371-1.391,1.475.655,3.366,2.172,2.172q2.3-1.815,4.556-3.679Q40.269,94.467,37,97.979a1.413,1.413,0,0,0,2,2q2.575-2.207,5.111-4.463c-.229.265-.465.52-.691.787a1.521,1.521,0,0,0,2.149,2.149q2.168-1.728,4.35-3.446-3.674,3.761-7.344,7.525c-1.326,1.365.639,3.24,2.056,2.056q5.441-4.535,10.829-9.139-3.214,3.509-6.431,7.025a1.484,1.484,0,0,0,2.1,2.1q5.087-4.458,10.149-8.948-3.867,4.414-7.725,8.842c-1.333,1.471-2.646,2.959-3.917,4.482-1.165,1.4.791,3.417,2.026,2.026q3.659-4.129,7.306-8.271A142.867,142.867,0,0,1,71.211,91.232q-7.667,8.655-15.3,17.335a1.485,1.485,0,0,0,1.607,2.4c-.51.523-1.02,1.042-1.526,1.565-1.478,1.52.713,3.611,2.291,2.291l8.467-7.086q-2.977,3.166-5.954,6.334a1.582,1.582,0,0,0,2.236,2.236l6.738-5.725a1.607,1.607,0,0,0,2.74,1.207c4.708-5.157,9.381-10.345,14.085-15.505a1.582,1.582,0,0,0-2.236-2.236Z" transform="translate(-34.16 -62.689)" fill="#eb8486"/>
    <path id="Path_17833" data-name="Path 17833" d="M42.784,185.155q4.453-4.579,8.922-9.135a29.2,29.2,0,0,1-3.243-3.45c-2.74,3.543-5.457,7.1-8.109,10.71C39.3,184.713,41.583,186.391,42.784,185.155Z" transform="translate(-37.226 -129.664)" fill="#eac485"/>
    <path id="Path_17834" data-name="Path 17834" d="M180.382,65.867c.177.113.329.232.5.349l6.851-8.822c1.129-1.455-.765-3.527-2.091-2.091q-4.255,4.608-8.529,9.193A11.067,11.067,0,0,1,180.382,65.867Z" transform="translate(-130.035 -49.91)" fill="#eac485"/>
    <path id="Path_17835" data-name="Path 17835" d="M191.878,64.646c2.949-3.759,5.854-7.551,8.758-11.346a.9.9,0,0,0,.19-.539c.6-.681,1.194-1.365,1.794-2.046,1.217-1.381-.8-3.417-2.03-2.03q-5.813,6.544-11.6,13.108A11.093,11.093,0,0,1,191.878,64.646Z" transform="translate(-138.082 -45.443)" fill="#eac485"/>
    <path id="Path_17836" data-name="Path 17836" d="M154.156,54.21a16.857,16.857,0,0,1,6.638-.177l4.272-5.182a1.493,1.493,0,0,0,.01-1.907c.123-.139.248-.274.371-.41a41.009,41.009,0,0,0,4.382-5.257c.552-.878-.594-2.143-1.488-1.488a41.18,41.18,0,0,0-4.937,4.7c-1.52,1.562-3.027,3.14-4.534,4.715q-2.372,2.488-4.721,5Z" transform="translate(-114.484 -39.608)" fill="#eac485"/>
    <path id="Path_17837" data-name="Path 17837" d="M34.159,171.044c2.74-2.843,5.457-5.7,8.183-8.555a26.838,26.838,0,0,1-2.92-4.569q-4.143,5.4-7.925,11.072c-1.075,1.61,1.336,3.427,2.659,2.052Z" transform="translate(-31.228 -119.742)" fill="#eac485"/>
    <path id="Path_17838" data-name="Path 17838" d="M316.675,82.454q1.636-2.062,3.269-4.124c1.3-1.639-.842-3.956-2.359-2.359-.11.116-.219.236-.329.352a1.19,1.19,0,0,0-.994.2l.639-.92c.871-1.242-1.078-2.724-2.094-1.617L311.17,77.94A13.7,13.7,0,0,1,316.675,82.454Z" transform="translate(-220.835 -62.627)" fill="#eac485"/>
    <path id="Path_17839" data-name="Path 17839" d="M281.113,68.28c1.291-1.572,2.569-3.149,3.869-4.711,1.075-1.291-.687-3.137-1.875-1.875-.378.4-.742.813-1.116,1.22a1.384,1.384,0,0,0-.9.442l-5.857,5.867a15.528,15.528,0,0,1,5.883-.939Z" transform="translate(-196.493 -54.281)" fill="#eac485"/>
    <path id="Path_17840" data-name="Path 17840" d="M299.443,72.314c.965-1.491,1.917-2.988,2.895-4.469.787-1.194-1-2.565-1.978-1.526l-4.86,5.17a15.069,15.069,0,0,1,3.943.829Z" transform="translate(-210.222 -57.45)" fill="#eac485"/>
    <path id="Path_17841" data-name="Path 17841" d="M201.756,113.579c-.574.658-1.123,1.336-1.691,2,.842-1.446,1.691-2.888,2.53-4.334a1.652,1.652,0,0,0-2.585-1.994c-.749.762-1.475,1.542-2.21,2.314.929-1.7,1.855-3.4,2.759-5.111a1.562,1.562,0,0,0-.971-2.239c1.229-1.768,2.475-3.527,3.7-5.305.929-1.352-.781-2.736-2.043-2.152.174-.265.342-.532.516-.794.729-1.091-.971-2.433-1.836-1.417q-4.656,5.484-9.106,11.143,4.109-6.317,8.248-12.608a1.273,1.273,0,0,0-.077-1.52,1.692,1.692,0,0,0-2.8-1.084q-3.132,3.369-6.192,6.8a1.545,1.545,0,0,0-2.562-1.21c-4.014,4.1-7.848,8.361-11.568,12.714a1,1,0,0,0-.2-.665q3.03-4.347,6.079-8.68c1.055-1.494-1.207-3.069-2.452-1.891-1.171,1.1-2.31,2.236-3.437,3.382a1.526,1.526,0,0,0-.223-.432c.123-.177.248-.352.368-.529.868-1.281-1.171-2.895-2.168-1.672-.081.1-.168.2-.248.3a1.178,1.178,0,0,0-1.129.29c-.394.384-.794.762-1.191,1.142a1.366,1.366,0,0,0-1.755-.487,1.533,1.533,0,0,0-2.327-1.962.615.615,0,0,0-.048.045.814.814,0,0,0-1,.194c-.884,1.052-1.759,2.11-2.636,3.169a1.228,1.228,0,0,0-.987.442c-.039.045-.077.094-.119.139.255-.352.5-.71.758-1.062.913-1.265-1.107-2.795-2.152-1.662-1.068,1.155-2.11,2.333-3.166,3.5q2.7-4.056,5.4-8.112c.884-1.329-1.126-2.875-2.21-1.707q-5.344,5.76-10.429,11.723,4.39-6.443,8.764-12.891c.9-1.336-1.187-2.978-2.252-1.739-.132.155-.265.313-.4.468a1.226,1.226,0,0,0-.177-.052q1.273-1.612,2.549-3.217c-7.69-5.028-12.391-16.147-5.128-23.45a15,15,0,0,1,3-2.32c1.152-1.707,2.3-3.421,3.466-5.124a1.416,1.416,0,0,0-.668-2.072c.987-1.291,1.959-2.6,2.962-3.879,1.107-1.413-.865-3.43-2-2Q154.24,56.1,147.77,64.237a.475.475,0,0,0-.071-.032l8.138-10.6a1.17,1.17,0,0,0-.248-1.681c.51-.584,1.01-1.178,1.523-1.759a1.61,1.61,0,0,0-2.275-2.275q-3.132,2.72-6.154,5.557a1.506,1.506,0,0,0-2.6-.962q-5.547,6.2-11.146,12.346c4.614,8.448-6.676,20.723-12.759,25.576a53.547,53.547,0,0,1-6.067,4.366c-2.552,3.795-5.124,7.58-7.664,11.381q-2.077,3.108-4.15,6.215a56.955,56.955,0,0,1,11.591,3.269q3.374-4.5,6.744-9.006-1.723,2.59-3.45,5.179a1.37,1.37,0,0,0,.036,1.7,1.714,1.714,0,0,0-1.213.742c-.4.571-.8,1.149-1.2,1.726.213.077.426.158.639.236a2.511,2.511,0,0,1,2.217-.768c4.4.5,8.861,1.068,13.35,1.591q1.186-1.684,2.375-3.366a.628.628,0,0,0,.713-.152c3.053-3.3,6.086-6.593,8.98-10.042.123-.145.242-.294.365-.439q-2.091,2.653-4.179,5.308-3.63,4.381-7.2,8.813c2.9.332,5.808.636,8.719.884q2.473-3.112,4.992-6.183-2.13,3.122-4.256,6.247c13.708,1.12,27.458.878,40.365-4.247q.431-1.162.845-2.323c1.355-3.795,7.441-2.149,6.073,1.675-.878,2.452-1.8,4.915-2.8,7.351q1.66-2.3,3.317-4.611c.426-.461.868-.91,1.3-1.368q-2.26,3.993-4.634,7.925c-.61.726-1.194,1.471-1.794,2.2-3.036,6.531-6.86,12.653-12.314,17.49-.529.471-1.071.923-1.623,1.362-.087.129-.177.255-.265.387q-2.3,2.217-4.611,4.434c.72-.945,1.433-1.894,2.149-2.843a41.743,41.743,0,0,1-16.783,6.463l-3.992,4.466c.933-1.446,1.9-2.869,2.849-4.3a46.378,46.378,0,0,1-7.467.365c-.878-.029-1.752-.087-2.63-.155-1.714,2.807-3.382,5.641-4.976,8.516q-2.1,3.577-4.137,7.19c1.5.258,3.011.484,4.534.623a23.444,23.444,0,0,0,3.395-2.633c-.013.042-.029.081-.045.123a1.6,1.6,0,0,0,2.659,1.549q4.652-5.218,9.3-10.436-1.893,3.185-3.653,6.451a1.7,1.7,0,0,0-.991,1.865c-.542,1.033-1.071,2.075-1.594,3.117,1.8-.11,3.592-.3,5.376-.539.232-.219.461-.442.694-.665a14.184,14.184,0,0,0,9.326-2.656c-.171.258-.348.51-.52.768a1.642,1.642,0,0,0-.265.749,62.912,62.912,0,0,0,7.444-2.44c1.346-1.962,2.549-4.04,3.772-6.015.1-.165.2-.332.3-.5a1.5,1.5,0,0,0,.087.4,1.383,1.383,0,0,0,.513,1.956,1.525,1.525,0,0,0,2.417.523c.629-.555,1.233-1.139,1.849-1.71a1.619,1.619,0,0,0,.139.6,41.492,41.492,0,0,0,4.13-3.133,3.177,3.177,0,0,1,1.5-.736c1.975-3.007,3.917-6.031,5.8-9.1a116.113,116.113,0,0,0,12-18.116,1.32,1.32,0,0,0-.726-1.817c.058-.11.116-.216.174-.326a1.233,1.233,0,0,0-1.471-1.781c1.862-2.933,3.721-5.87,5.544-8.829.868-1.41-1.21-3.091-2.333-1.8Zm-71.97-9.716q-2.527,3.533-4.973,7.128-1.815,2.135-3.611,4.282a1.4,1.4,0,0,0-.313-1.087,1.59,1.59,0,0,0,1.117-.723q4.066-6.06,8.106-12.136l-.445.891a1.54,1.54,0,0,0,.123,1.646ZM143.478,85.8q-2.29,2.856-4.531,5.747a64.728,64.728,0,0,1,5.841-8.3q-.653,1.273-1.31,2.552Zm4.627-10.51q-.862.736-1.678,1.507c.132-.2.268-.4.4-.607.9-.884,1.791-1.775,2.691-2.659-.471.584-.942,1.171-1.413,1.755Zm23.889,38.113c.5-.723.991-1.446,1.491-2.168.09-.132.184-.258.274-.39.407-.352.816-.7,1.239-1.042q-1.515,1.791-3,3.6Zm-30.775,50.22a.561.561,0,0,0-.358.174,15.68,15.68,0,0,1-3.062,2.469q2.377-3.006,4.75-6.009-.7,1.665-1.333,3.362Zm11.83-1.433q3.141-5.6,6.68-10.952a1.661,1.661,0,0,0,.174.119c-.3.565-.616,1.126-.913,1.694a1.5,1.5,0,0,0,1.284,2.181q-3.611,3.48-7.225,6.957Zm10.132-3.908a1.367,1.367,0,0,0-.136,1.013c-2.094,2.249-4.731,4.314-7.593,5.018q4.758-4.54,9.51-9.084c-.594,1.016-1.2,2.026-1.784,3.049ZM186.9,131.518a1.883,1.883,0,0,0-.765-.278q2.047-3.195,4.024-6.431,1.007-1.181,2.026-2.349-2.648,4.526-5.289,9.058Zm6.06,1.83c-.636.8-1.262,1.607-1.885,2.414.952-1.442,1.888-2.895,2.83-4.343.123-.123.252-.242.374-.365C193.837,131.818,193.4,132.586,192.956,133.347Z" transform="translate(-80.72 -44.92)" fill="#eac485"/>
    <path id="Path_17842" data-name="Path 17842" d="M54.431,226.318c.084-.113.171-.226.255-.342-.2-.265-.413-.523-.6-.8-3.543-5.163-2.782-10.968-4.676-16.635a3.176,3.176,0,0,1,3.037-3.985,28.686,28.686,0,0,1,3.817.278c.177-.326.358-.649.532-.978q1.7-3.18,3.417-6.351,3.79-5.048,7.674-10.023c-3.246,1.836-6.776,2.885-10.7,1.836A24.263,24.263,0,0,1,47.642,184c-1.242,1.565-2.488,3.127-3.711,4.7q-3,3.872-5.938,7.793c-1.313,1.578-2.63,3.153-3.93,4.744s.865,3.866,2.294,2.294h0a1.292,1.292,0,0,0,.623-.419c.736-.884,1.462-1.772,2.2-2.656q4.927-5.392,9.887-10.755-6.181,8.529-12.44,17c-.913,1.229.72,2.669,1.926,2.159a1.441,1.441,0,0,0,1.949-.171q2.928-3.267,5.85-6.541a1.709,1.709,0,0,0-.048,1.191c-.645.962-1.284,1.926-1.933,2.885-.313.429-.632.852-.942,1.284-1.213,1.684-2.4,3.379-3.559,5.1s-2.117,3.55-3.195,5.321c-.41.678.607,1.513,1.126.868,1.249-1.552,2.617-3.014,3.843-4.6s2.44-3.175,3.646-4.773c.155-.207.316-.407.471-.613a1.5,1.5,0,0,0,.987-.423c.655-.629,1.3-1.265,1.949-1.9-1.762,2.53-3.485,5.086-5.14,7.68-1.271,1.994,1.791,3.685,3.124,1.826.061-.084.123-.168.181-.252q-1.946,3.509-3.888,7.022a1.46,1.46,0,0,0,1.82,2.085,1.752,1.752,0,0,0,1.6.513,1.5,1.5,0,0,0,1.365,2.049c-.013.019-.029.039-.042.058q-1.312,1.82-2.594,3.659c-1.2,1.681,1.536,3.2,2.743,1.6q2.217-2.943,4.382-5.925a1.678,1.678,0,0,0,2.188-.487Z" transform="translate(-32.878 -137.406)" fill="#eac485"/>
    <path id="Path_17843" data-name="Path 17843" d="M152.8,370.162c1.565-2.443,3.017-4.96,4.466-7.477a60.077,60.077,0,0,1-18.635-4.7c-.287.432-.584.862-.871,1.3-3.34,5.073-6.551,10.232-9.71,15.421-1.136,1.865,1.662,3.411,2.882,1.684,1.413-2,2.8-4.011,4.182-6.034a1.8,1.8,0,0,0,1.449.981q-1.583,2.619-3.114,5.263a8.339,8.339,0,0,1,4.924-.955q2.246-3.282,4.489-6.567c-.142.268-.294.529-.432.8A1.68,1.68,0,0,0,143.7,372.4c-.332.613-.678,1.223-1,1.839a1.691,1.691,0,0,0,2.917,1.707c1.442-2.059,2.914-4.1,4.369-6.151a1.594,1.594,0,0,0,2.817.358Z" transform="translate(-96.628 -255.244)" fill="#eac485"/>
    <path id="Path_17844" data-name="Path 17844" d="M116.426,336.312q-2.12,2.87-4.243,5.737l2.669-4.721a1.383,1.383,0,0,0,1.226-.755c.068-.119.139-.236.207-.352-.236-.148-.474-.294-.707-.445-1.462-.958-2.949-1.965-4.392-3.046-.219.4-.445.8-.662,1.2a1.609,1.609,0,0,0,1.249,2.436q-1.912,3.4-3.775,6.825a1.586,1.586,0,0,0,1.649,2.294c-.148.2-.3.4-.445.6-1.094,1.475,1.4,3.421,2.565,1.978,2.636-3.266,5.208-6.583,7.764-9.916q-1.578-.876-3.1-1.839Z" transform="translate(-83.088 -238.142)" fill="#eac485"/>
    <path id="Path_17845" data-name="Path 17845" d="M134.8,359.4q2.435-3.422,4.886-6.838-1.573-.726-3.1-1.539-2.323,3.35-4.624,6.715c-1.2,1.765,1.626,3.362,2.84,1.659Z" transform="translate(-99.258 -250.53)" fill="#eac485"/>
    <path id="Path_17846" data-name="Path 17846" d="M87.084,315.353q-3.025,5.063-6.044,10.129a3.306,3.306,0,0,1,.762.836,14.243,14.243,0,0,1,1.707,4.821c.329-.568.655-1.139.987-1.7a1.776,1.776,0,0,0,1.678-.652l6.357-8.235a31.282,31.282,0,0,1-5.444-5.2Z" transform="translate(-64.966 -226.371)" fill="#eac485"/>
    <path id="Path_17847" data-name="Path 17847" d="M115.174,67.571c1.213.145,2.462,1.339,3.508,1.413,1.868.132,3.627-1.775,5.208-2.52a17.114,17.114,0,0,1,2.01-.784q3.161-3.625,6.383-7.193c1.3-1.436-.781-3.553-2.143-2.143q-1.617,1.675-3.243,3.35a1.691,1.691,0,0,0-2.691-.778c-3.2,2.775-6.3,5.663-9.316,8.632.094.006.187.01.281.019Z" transform="translate(-87.893 -50.63)" fill="#eac485"/>
  </g>
  <g id="Group_17182" data-name="Group 17182">
    <path id="Path_17848" data-name="Path 17848" d="M81.093,240.686a38.522,38.522,0,0,0,2.769,11.3c.713,1.6,2.343,1.959,3.785,2.375,1.939.561,3.959.836,5.941,1.268a5.313,5.313,0,0,1,2.168.687,2.911,2.911,0,0,1,.907,1.923,1.419,1.419,0,0,1-1.513,1.449,33.788,33.788,0,0,1-3.73-.339c-1.02-.116-2.033-.274-3.046-.416-.09.184-.184.368-.274.552a61.339,61.339,0,0,0,4.418,4.463c2.888,2.4,5.908,4.647,8.909,6.912a3.409,3.409,0,0,0,4.227.21c4.266-2.43,9.084-3.22,13.9-3.669a49.417,49.417,0,0,1,16.964,1.217,17.2,17.2,0,0,1,8.619,4.685c6.757-3.343,11.423-8.664,16.109-14.818-1.2.31-1.914.468-2.611.678a86.131,86.131,0,0,1-17.877,3.411c-5.77.449-11.559.916-17.338.91a87.389,87.389,0,0,1-16.986-1.559,16.43,16.43,0,0,1-2.8-.716,1.871,1.871,0,0,1-1.1-2.394,1.72,1.72,0,0,1,1.936-1.378c.571.019,1.133.213,1.7.281,4.118.487,8.225,1.075,12.353,1.42a112.78,112.78,0,0,0,23.118-.691,77.2,77.2,0,0,0,19.681-4.585,6.364,6.364,0,0,0,3.863-3.227,19.879,19.879,0,0,1,2.049-3.143,2.213,2.213,0,0,1,2.73-1.036,2.019,2.019,0,0,1,.862,2.749,29.709,29.709,0,0,1-1.578,3.417,68.351,68.351,0,0,1-10.2,15.044,42.408,42.408,0,0,1-24.4,13.434c-10.671,1.946-20.768-.268-30.507-4.4a46.332,46.332,0,0,1-22.172-19.219,37.844,37.844,0,0,1-5.015-19.107c-.048-2.911.913-3.475,3.84-2.643,4.637,1.32,9.258,2.74,13.956,3.811A163.341,163.341,0,0,0,120.539,243a143.4,143.4,0,0,0,19.387-.174c7.912-.558,15.751-1.684,23.2-4.573a67.745,67.745,0,0,0,6.244-3.02c1.784-.91,2.924-.9,3.588.152.642,1.016.145,2.32-1.449,3.333a43.247,43.247,0,0,1-12.524,5.208,97.6,97.6,0,0,1-21.159,3.066c-3.763.123-7.532.445-11.284.336-14.618-.419-29.055-2.156-43.1-6.434a13.84,13.84,0,0,0-1.4-.355,4.063,4.063,0,0,0-.952.161Zm28.222,33.628c10.51,3.714,20.759,4.937,31.414.807C135.176,270.26,115.621,270.2,109.316,274.313Z" transform="translate(-52.122 -158.871)" fill="#262c54"/>
    <path id="Path_17849" data-name="Path 17849" d="M225.53,98.3c-1.846,1.8-3.533,3.5-5.279,5.128a6.61,6.61,0,0,1-1.917,1.255,1.882,1.882,0,0,1-2.375-.487,1.914,1.914,0,0,1,.236-2.633c.465-.484,1.016-.891,1.53-1.329a22.937,22.937,0,0,0,8.435-20.255,12.6,12.6,0,0,0-1.033-3.885c-1.855-4.318-5.712-6.012-10.22-4.627a13.952,13.952,0,0,0-6.073,3.795c-.933.978-1.8,2.01-2.7,3.02-1.743,1.956-3.317,1.839-4.989-.229-1.084-1.342-2.323-2.562-3.524-3.808a8.125,8.125,0,0,0-5.983-2.485c-.387-.006-.778.019-1.158-.023-1.413-.158-2.091-.8-2.065-1.917a2.073,2.073,0,0,1,2.056-2.039,11.129,11.129,0,0,1,7.493,1.61,40.1,40.1,0,0,1,3.595,2.907c.729.616,1.413,1.284,2.546,2.327.616-1.036,1.162-1.952,1.83-3.078-.636-.39-1.588-.991-2.553-1.559-.665-.39-1.381-.7-2.033-1.11-1.268-.8-1.7-1.855-1.229-2.865s1.626-1.352,3-.745c1.146.507,2.236,1.133,3.34,1.733a10.309,10.309,0,0,1,1.723,1.065,2.73,2.73,0,0,0,3.44.287,13.019,13.019,0,0,1,6.441-1.384,11.107,11.107,0,0,1,9.858,5.576A15.226,15.226,0,0,1,230.28,79.9a26.453,26.453,0,0,1-1.5,11.388,4.951,4.951,0,0,0,.129,3.572,101.012,101.012,0,0,1,2.846,11.194,68.1,68.1,0,0,1,1.207,14.973c-.668,17-6.267,31.892-18.99,43.634a60.894,60.894,0,0,1-27.458,14.26,78.655,78.655,0,0,1-28.474,1.326c-3.821-.468-7.606-1.249-11.391-1.975a7.69,7.69,0,0,1-2.93-1.139,2.232,2.232,0,0,1-.726-1.946,2.639,2.639,0,0,1,1.639-1.336,3.858,3.858,0,0,1,1.975.21,83.231,83.231,0,0,0,27.842,2.588c15.47-1.155,29.1-6.612,39.885-18.113a53.469,53.469,0,0,0,13.472-27.429c2.017-10.823,1.075-21.507-1.8-32.069a4.107,4.107,0,0,0-.481-.745Z" transform="translate(-96.828 -43.995)" fill="#262c54"/>
    <path id="Path_17850" data-name="Path 17850" d="M58.474,51.546c.532.749.92,1.294,1.384,1.943a5.523,5.523,0,0,0,1-.545,18.886,18.886,0,0,1,11.588-4.7,10.9,10.9,0,0,1,7.144,1.83,7.082,7.082,0,0,1,1.439,1.391,1.478,1.478,0,0,1-.013,2.107A4.305,4.305,0,0,1,79,54.3a1.6,1.6,0,0,1-1.042-.429c-2.469-1.914-5.292-1.749-8.041-1.129a12.14,12.14,0,0,0-7.461,4.644,16.967,16.967,0,0,1-1.033,1.4,2.008,2.008,0,0,1-3.527-.342c-.645-1.071-1.178-2.22-1.91-3.227-3.037-4.176-7.448-5.773-11.888-4.385-5.115,1.6-8.748,6.073-8.961,10.949-.181,4.137,1.355,7.735,3.4,11.181.542.91,1.223,1.743,1.752,2.659,1.187,2.052.616,3.156-1.784,3.559-.278.045-.555.084-.913.136-1.239,1.923-1.281,4.2-1.784,6.322-2.091,8.8-.91,17.445,1.452,25.993.691,2.5,1.684,4.918,2.543,7.373.158.455.542.945.461,1.342a4.046,4.046,0,0,1-.916,1.952,1.418,1.418,0,0,1-2.088-.145,7.25,7.25,0,0,1-1.446-2.12,67.3,67.3,0,0,1-4.611-17.567c-.226-1.72-.41-3.453-.487-5.182A51.7,51.7,0,0,1,34.111,76.6a3.844,3.844,0,0,0-.19-3.53,23.475,23.475,0,0,1-2.872-10.2c-.39-7.89,5.66-14.173,12.194-16.054a13.874,13.874,0,0,1,10.139.887c.52.248,1.046.487,1.572.72.077.035.187,0,.068,0,2.4-1.881,4.54-3.859,6.96-5.4,6.141-3.9,13.033-5.718,20.178-6.647a55.652,55.652,0,0,1,15.008-.094c2.13.3,3.169,1.071,2.966,2.381-.187,1.213-1.187,1.772-3.214,1.672-1.152-.055-2.3-.326-3.45-.361-9.487-.3-18.687.987-27.261,5.311a19.53,19.53,0,0,0-7.735,6.27Z" transform="translate(-20.774 -24.253)" fill="#262c54"/>
    <path id="Path_17851" data-name="Path 17851" d="M63.984,347.584c-.949-.239-2.452-.578-3.934-1a64.731,64.731,0,0,1-22.446-11.7,73.006,73.006,0,0,1-22.359-28.7c-.842-1.939-1.462-3.979-2.143-5.986a4.822,4.822,0,0,1-.287-1.688,1.7,1.7,0,0,1,1.559-1.794,3.01,3.01,0,0,1,1.943.907,4.816,4.816,0,0,1,.794,1.83c7.028,20.039,20.591,33.844,40.123,41.9a68.8,68.8,0,0,0,6.628,2.043c.461.136.958.155,1.413.3,1.536.494,2.168,1.278,1.988,2.414S66.259,347.7,63.984,347.584Z" transform="translate(-8.678 -200.963)" fill="#262c54"/>
    <path id="Path_17852" data-name="Path 17852" d="M428.5,180.108c-.023-6.683-.058-11.317-1.278-15.831-.4-1.484-.942-2.93-1.449-4.382-.255-.726-.652-1.41-.845-2.149a2.034,2.034,0,0,1,1.162-2.636,1.934,1.934,0,0,1,2.4,1.1,25.361,25.361,0,0,1,3.237,9.526,90.686,90.686,0,0,1-6.238,48.116,8.853,8.853,0,0,1-1.339,2.194,1.582,1.582,0,0,1-2.091.413,1.9,1.9,0,0,1-1.087-2.156,8.763,8.763,0,0,1,.62-1.62,84.555,84.555,0,0,0,6.915-32.569Z" transform="translate(-285.094 -104.973)" fill="#262c54"/>
    <path id="Path_17853" data-name="Path 17853" d="M121.888,108.449c-.232-1.323-.471-2.646-.694-3.972-.245-1.455.126-2.272,1.158-2.6a2.039,2.039,0,0,1,2.691,1.5,17,17,0,0,1-.852,12.937,24.842,24.842,0,0,1-6.773,8.939c-4.66,3.9-9.39,7.732-14.224,11.41-3.866,2.943-7.135,2.94-11.243.329a30.444,30.444,0,0,1-3.93-2.946c-1.146-1.023-1.184-2.168-.371-3.056.707-.771,1.623-.823,2.875-.006,1.049.684,2,1.523,3.03,2.23,3.014,2.068,4.531,2.194,7.367.026,4.676-3.572,9.31-7.219,13.76-11.062a30.148,30.148,0,0,0,4.782-5.77,13.767,13.767,0,0,0,2.423-7.961Z" transform="translate(-58.989 -68.913)" fill="#262c54"/>
    <path id="Path_17854" data-name="Path 17854" d="M167.808-.014a79.3,79.3,0,0,1,18.155,2.507c1.962.5,3.927.978,5.886,1.484a13.761,13.761,0,0,1,1.926.607,1.911,1.911,0,0,1,1.158,2.369,1.827,1.827,0,0,1-2.214,1.368c-1.046-.145-2.068-.455-3.1-.684-4.227-.945-8.419-2.146-12.695-2.782a55.8,55.8,0,0,0-27.906,2.536,27.856,27.856,0,0,1-2.723.962,1.844,1.844,0,0,1-2.156-1.078,1.684,1.684,0,0,1,.594-2.294A9.215,9.215,0,0,1,146.765,3.9,48.875,48.875,0,0,1,161.625.441c2.307-.168,4.611-.345,6.186-.461Z" transform="translate(-97.468 0.02)" fill="#262c54"/>
    <path id="Path_17855" data-name="Path 17855" d="M268.2,152.31a6.97,6.97,0,0,1-4.734-1.7c-4.017-3.149-8.058-6.283-11.923-9.613a35.7,35.7,0,0,1-8.516-11.214,27.857,27.857,0,0,1-1.836-5.15c-.481-1.765-.013-2.8,1.12-3.153,1.336-.416,2.32.219,2.785,2.085,1.481,5.947,5.04,10.591,9.429,14.589,3.411,3.107,7.177,5.825,10.775,8.729,1.642,1.326,3.356,1.865,5.311.678a2.665,2.665,0,0,1,.807-.31,1.872,1.872,0,0,1,2.169,1.039,1.679,1.679,0,0,1-.349,2.117,6.251,6.251,0,0,1-5.037,1.907Z" transform="translate(-163.231 -82.193)" fill="#262c54"/>
    <path id="Path_17856" data-name="Path 17856" d="M358.324,380.64c-.594-.449-1.313-.736-1.565-1.252a2.286,2.286,0,0,1,.058-1.846,5.1,5.1,0,0,1,1.633-1.591,39.988,39.988,0,0,0,12.537-12.969,1.952,1.952,0,0,1,2.665-1.033c1.1.51,1.517,1.555.849,2.933a23.6,23.6,0,0,1-2.452,3.888A44.759,44.759,0,0,1,360.7,379.365c-.713.465-1.5.81-2.375,1.271Z" transform="translate(-241.523 -245.006)" fill="#262c54"/>
    <path id="Path_17857" data-name="Path 17857" d="M0,219.94c.119-.855.255-2.094.474-3.317a1.745,1.745,0,0,1,1.768-1.578,1.875,1.875,0,0,1,2,1.681,3.767,3.767,0,0,1,.116,1.417c-.587,3.763.329,7.444.561,11.162.058.955.226,1.907.258,2.862a1.814,1.814,0,0,1-1.559,2.081,2.082,2.082,0,0,1-2.385-1.617A16.139,16.139,0,0,1,.781,229.8c-.274-3.153-.5-6.309-.781-9.855Z" transform="translate(0 -145.644)" fill="#262c54"/>
    <path id="Path_17858" data-name="Path 17858" d="M61.3,320.93a9.713,9.713,0,0,1,1.833,1.53c1.475,1.894,2.791,3.914,4.234,5.834.981,1.307,2.088,2.514,3.095,3.8.942,1.2.965,2.027.181,2.83-.82.842-1.943.836-3.1-.071a6.734,6.734,0,0,1-1.226-1.217c-2.133-2.846-4.279-5.686-6.328-8.593a4.862,4.862,0,0,1-.774-2.394C59.147,321.666,59.831,321.088,61.3,320.93Z" transform="translate(-40.102 -217.362)" fill="#262c54"/>
    <path id="Path_17859" data-name="Path 17859" d="M249.756,89.6a2.013,2.013,0,0,1-1.83-2.833,10.491,10.491,0,0,1,6.505-5.35,1.8,1.8,0,0,1,2.056,2.514,3.79,3.79,0,0,1-1.068,1.3c-1.362,1.194-2.74,2.372-4.153,3.5a10.017,10.017,0,0,1-1.507.871Z" transform="translate(-167.789 -55.081)" fill="#262c54"/>
    <path id="Path_17860" data-name="Path 17860" d="M267.169,42.05c2.168.716,4.34,1.42,6.5,2.168a1.459,1.459,0,0,1,.858.716c.219.681.545,1.565.284,2.1a2.158,2.158,0,0,1-1.8.984,64.61,64.61,0,0,1-6.873-1.959,1.851,1.851,0,0,1-1.246-2.307c.277-1.052,1.117-1.5,2.281-1.7Z" transform="translate(-179.361 -28.474)" fill="#262c54"/>
    <path id="Path_17861" data-name="Path 17861" d="M311.723,428.479c-.645-.536-1.471-.894-1.659-1.465-.194-.591.006-1.778.426-2.017a32.11,32.11,0,0,1,5.457-2.482c.833-.287,1.626.365,2.02,1.275a1.494,1.494,0,0,1-.587,2.026C315.614,426.763,313.759,427.537,311.723,428.479Z" transform="translate(-209.959 -286.121)" fill="#262c54"/>
    <path id="Path_17862" data-name="Path 17862" d="M114.853,380.1a1.773,1.773,0,0,1-2.575,1.668,20.442,20.442,0,0,1-4.076-3.508,2.537,2.537,0,0,1,.145-2.317,2.172,2.172,0,0,1,1.988-.613,9.392,9.392,0,0,1,4.443,4.208c.09.145.048.371.068.561Z" transform="translate(-73.136 -254.169)" fill="#262c54"/>
    <path id="Path_17863" data-name="Path 17863" d="M5.277,183.968a22.457,22.457,0,0,1,.9-2.523A1.806,1.806,0,0,1,8.3,180.357a1.791,1.791,0,0,1,1.549,2.085,11.643,11.643,0,0,1-.836,3.017,1.915,1.915,0,0,1-2.336,1.21c-1.058-.294-1.462-1.152-1.4-2.7Z" transform="translate(-3.57 -122.114)" fill="#262c54"/>
    <path id="Path_17864" data-name="Path 17864" d="M69.564,174.7c-.229.307-.5,1.016-1,1.281a2.356,2.356,0,0,1-2.843-.652c-.858-.823-1.7-1.73-1.068-2.953a2.52,2.52,0,0,1,1.72-1.188C67.667,171.07,69.545,173.109,69.564,174.7Z" transform="translate(-43.639 -115.938)" fill="#262c54"/>
    <path id="Path_17865" data-name="Path 17865" d="M350.917,194.11a2.089,2.089,0,0,1-1.965-2.091,2.284,2.284,0,0,1,2.433-1.968,2.026,2.026,0,0,1,1.814,1.914A2.264,2.264,0,0,1,350.917,194.11Z" transform="translate(-236.346 -128.711)" fill="#262c54"/>
  </g>
</svg>
