<svg id="_24" data-name="24" xmlns="http://www.w3.org/2000/svg" width="141.3" height="146.646" viewBox="0 0 141.3 146.646">
  <g id="Group_17183" data-name="Group 17183" transform="translate(12.209 15.92)">
    <path id="Path_17866" data-name="Path 17866" d="M218.142,297.042c.3-.9-.332-2.078-1.446-1.659-1.229.461-2.491.858-3.759,1.229,0,0,.006-.006.013-.006a1.351,1.351,0,0,0-1.036-2.459c-.6.177-1.2.345-1.8.52.442-.975-.345-2.436-1.559-1.946-.929.378-1.868.739-2.8,1.1a1.437,1.437,0,0,0-.2-1.378c.19-.113.384-.226.571-.342a1.375,1.375,0,0,0-1.388-2.372c-.523.265-1.039.552-1.562.82a38.312,38.312,0,0,1-4.827,2.02,25.036,25.036,0,0,1,4-3.085c1.155-.7.39-2.853-.962-2.285-1.187.5-2.381.974-3.575,1.439.226-.2.452-.4.681-.594.884-.765-.245-1.868-1.146-1.484-.678.29-1.381.558-2.091.816.632-.658,1.262-1.313,1.91-1.926s-.177-1.617-.939-1.217c-.365.194-.736.371-1.107.552a17.351,17.351,0,0,1,2.21-1.568c.668-.394.229-1.581-.545-1.294-2.978,1.1-5.9,2.73-7.615,5.486a1.109,1.109,0,0,0,.9,1.633c-.023.023-.048.045-.068.068a1.134,1.134,0,0,0,.939,1.914c-.258.2-.52.387-.771.587-1,.8.084,2.714,1.288,2.21.758-.316,1.513-.623,2.269-.936a19.165,19.165,0,0,0-1.346,1.655,1.326,1.326,0,0,0,.278,1.788c-.032.019-.068.039-.1.058a1.591,1.591,0,0,0,.29,2.753c-.281.887.436,2.065,1.51,1.672q1.917-.7,3.83-1.42a1.444,1.444,0,0,0,1.849,1.284c1.265-.394,2.53-.794,3.795-1.191a1.328,1.328,0,0,0,1.439,2.026c1.5-.452,3-.955,4.5-1.455a1.481,1.481,0,0,0,1.852,1.4c1.236-.349,2.472-.707,3.7-1.062a1.171,1.171,0,0,0,1.846.516c.607-.568,1.22-1.126,1.794-1.723a1.272,1.272,0,0,0-.813-2.146Z" transform="translate(-140.227 -206.842)" fill="#ba8b54"/>
    <path id="Path_17867" data-name="Path 17867" d="M165.2,257.345c-.374.136-.755.255-1.139.371.223-.268.442-.536.665-.8.681-.82.068-2.307-1.123-1.93-.539.171-1.1.316-1.652.468.142-.245.287-.494.416-.742.365-.7-.407-1.642-1.152-1.152a14.921,14.921,0,0,1-2.317,1.126c.219-.365.432-.733.661-1.091a.964.964,0,0,0-.216-1.2c.436-.591-.152-1.655-.92-1.339a21.612,21.612,0,0,0-2.662,1.3,18.23,18.23,0,0,0-2.562,1.633c-1.039.868.3,2.562,1.436,1.862a10.791,10.791,0,0,1,1.536-.762c-.248.355-.5.707-.739,1.075-.568.881.594,2.13,1.488,1.488.236-.171.484-.319.729-.474a1.3,1.3,0,0,0,1.571,1.491c.248-.087.51-.161.762-.245a4.8,4.8,0,0,0-.816,1.113c-.426.849.313,2.288,1.4,1.826.116-.048.239-.087.358-.136-.1.132-.223.252-.316.39a1.244,1.244,0,0,0,1.391,1.81c.213-.061.439-.129.671-.194a1.9,1.9,0,0,0-.013,1.778.736.736,0,0,0,.981.258,2.387,2.387,0,0,0,1.181-1.236,8.314,8.314,0,0,1,.955-1.336c.6-.726.071-2.072-.981-1.755.507-.581,1-1.171,1.494-1.72.687-.765.035-2.281-1.091-1.872Z" transform="translate(-115.718 -185.92)" fill="#ba8b54"/>
    <path id="Path_17868" data-name="Path 17868" d="M125.829,208.576l-.032.016h0a1.171,1.171,0,0,0-.426-1.923,1.385,1.385,0,0,0-2.094-1.055c-.129.071-.258.142-.384.216.048-.048.094-.1.142-.148.971-.975-.313-2.782-1.51-1.959-.629.432-1.271.871-1.93,1.3a1.341,1.341,0,0,0-1.284-1.93q.958-1.046,1.978-2.046a1.368,1.368,0,0,0-1.649-2.139c-.361.223-.729.429-1.094.636.187-.2.365-.41.558-.607a1.383,1.383,0,0,0-1.668-2.162,9.135,9.135,0,0,1-1.242.481c.326-.481.652-.965.991-1.439a1.324,1.324,0,0,0-1.139-1.981c-.081,0-.161.006-.239.013a1.4,1.4,0,0,0,0-1.923,1.37,1.37,0,0,0-1.926,0l-2,2.469c-.678.836-.332,2.436.975,2.349.184-.013.365-.032.549-.045q-.605.857-1.21,1.717a1.352,1.352,0,0,0,1.158,2.02c.319-.006.636-.045.949-.074-.5.674-.981,1.362-1.426,2.075a1.432,1.432,0,0,0,1.3,2.107c-.813.942-1.6,1.9-2.32,2.907-.8,1.12.574,2.449,1.71,2.072a1.451,1.451,0,0,0,1.894,1.3,1.368,1.368,0,0,0,1.894,1.762l1.446-.774c-.423,1,.232,2.391,1.559,1.946,1.281-.429,2.562-.891,3.817-1.4a.92.92,0,0,0,1.523.629,15.318,15.318,0,0,0,2.511-2.62c.758-.962-.171-2.452-1.375-1.781Z" transform="translate(-87.079 -145.647)" fill="#ba8b54"/>
    <path id="Path_17869" data-name="Path 17869" d="M146.981,280.156c-.036-.187-.081-.371-.119-.558a19.939,19.939,0,0,0-.749-7.515,1.618,1.618,0,0,0-2.243-1.036c-.035-.245-.068-.494-.11-.739a1.412,1.412,0,0,0-1.365-1.236,1.792,1.792,0,0,0-1.61-1.113,1.64,1.64,0,0,0-1.807-1.546,1.541,1.541,0,0,0-1.846-1.788,1.367,1.367,0,0,0-1.271-1.562c.068-1.2-1.342-2.488-2.556-1.652-.123.084-.223.184-.336.271l-.006-.006-.152.132c-.123.1-.248.19-.361.29a1.6,1.6,0,0,0-1.613-.068,3.133,3.133,0,0,0-1.814,1.962,2.418,2.418,0,0,0,1.042,2.6c.023.013.045.019.071.032a1.853,1.853,0,0,0,1.171,1.016,1.645,1.645,0,0,0,1.43,2.039c-.187.326-.384.642-.552.984a1.571,1.571,0,0,0,1.988,2.2,2.793,2.793,0,0,0,1.384,1.9,3.211,3.211,0,0,0,1.258.442,3.577,3.577,0,0,0,1.775,2.924,3.214,3.214,0,0,0,2.091,2.359,2.3,2.3,0,0,0,2.178-.394c.019.036.039.074.061.113.039.439.081.881.106,1.323.116,1.888,2.956,2.482,3.443.465.013-.055.023-.113.035-.168a1.841,1.841,0,0,0,.484-1.678Z" transform="translate(-99.554 -192.796)" fill="#eb8486"/>
    <path id="Path_17870" data-name="Path 17870" d="M313.594,204a2.981,2.981,0,0,0-.826-1.271,5.4,5.4,0,0,0-1.578-.887,7.259,7.259,0,0,0-2.569-.471,7.077,7.077,0,0,0-4.644,1.613,5.074,5.074,0,0,0-1.746,4.159,5.284,5.284,0,0,0,1.029,2.811,1.891,1.891,0,0,0,2.824,1.923,2,2,0,0,0,.7-.778c.029-.016.061-.019.09-.039A2.588,2.588,0,0,0,308,209.618a2.455,2.455,0,0,0-.052-1.63c.016-.032.032-.068.048-.1q.261-.513.561-1.007c.316-.52.678-1,1.026-1.494.039,0,.081.006.119.013-.039-.006-.077-.01-.116-.016,0,0,0-.006.006-.01.142.026.345.084.39.09a7.514,7.514,0,0,0,2.233.342,1.469,1.469,0,0,0,1.123-.565,1.353,1.353,0,0,0,.255-1.249Z" transform="translate(-216.905 -152.307)" fill="#75757c"/>
    <path id="Path_17871" data-name="Path 17871" d="M218.5,111.945c.01-.21.032-.419.032-.626a1.685,1.685,0,0,0-1.662-1.662,1.727,1.727,0,0,0-1.459.9,1.69,1.69,0,0,0-.565.594,14.616,14.616,0,0,0-.716,2.191c-.042.123-.087.242-.132.361-.016.042-.032.081-.048.123a4.463,4.463,0,0,0-.371.807,13.319,13.319,0,0,1-.9,1.552,1.778,1.778,0,0,1-.294.42c.171-.219.194-.252.058-.094-.029.032-.055.065-.084.1-.226.255-.465.5-.71.739a1.973,1.973,0,0,0,2.388,3.095c.142-.094.261-.21.4-.31h0s.006-.01.01-.013a10.717,10.717,0,0,0,3.882-6.635,3.848,3.848,0,0,0,.2-1.336,1.47,1.47,0,0,0-.029-.2Z" transform="translate(-155.174 -90.191)" fill="#75757c"/>
    <path id="Path_17872" data-name="Path 17872" d="M337.639,326.556c-1.217.758-2.5,1.426-3.775,2.091,1.6-1.862,3.143-3.769,4.644-5.683.665-.849-.223-2.449-1.284-1.665q-2.962,2.188-6.138,4.082a72.737,72.737,0,0,1,5.476-5.628c1.142-1.033-.323-2.836-1.617-2.1-1.249.713-2.494,1.452-3.74,2.194,1.275-1.294,2.546-2.6,3.879-3.811.975-.887-.274-2.436-1.388-1.8l-.09.052c.3-.277.613-.542.916-.82.926-.849-.268-2.123-1.249-1.617,0-.006-.006-.01-.01-.016-.865.652-1.71,1.32-2.565,1.978-.533.374-1.075.726-1.623,1.068.587-.816,1.178-1.63,1.788-2.42a1.162,1.162,0,0,0-.371-1.778c.026-.016.048-.035.074-.052a.866.866,0,0,0-.874-1.494,26.915,26.915,0,0,0-7.451,5.276,1.217,1.217,0,0,0,1.72,1.72,16.36,16.36,0,0,1,2.02-1.442,42.128,42.128,0,0,0-2.878,3.511,1.145,1.145,0,0,0,.136,1.5c-.658.536-1.326,1.055-1.985,1.6-1.239,1.016.268,2.924,1.613,2.3-.626.7-1.236,1.41-1.8,2.156-.965,1.265.92,3.075,2.185,2.185,1.081-.762,2.191-1.488,3.317-2.2-1.191,1.265-2.34,2.575-3.414,3.966-.987,1.278.887,2.895,2.133,2.133q1.965-1.2,3.9-2.436c-.942,1.039-1.865,2.091-2.756,3.162-.955,1.152.271,3.159,1.713,2.22.768-.5,1.555-.971,2.349-1.426a9.575,9.575,0,0,0-.613.8c-.952,1.449,1.207,3.095,2.391,1.846a.535.535,0,0,1,.042-.045,31.252,31.252,0,0,0,3.353-3.408c1.213-1.3,2.343-2.682,3.5-4.03.884-1.029-.242-2.772-1.523-1.972Z" transform="translate(-229.485 -225.233)" fill="#abd0f2"/>
    <path id="Path_17873" data-name="Path 17873" d="M71.316,79.91c-1.788.749-3.582,1.481-5.382,2.21,1.152-.833,2.3-1.675,3.453-2.5,1.12-.807.481-3.078-1.033-2.449q-3.969,1.655-7.948,3.295c1.191-.913,2.378-1.83,3.579-2.73a1.263,1.263,0,0,0-1.275-2.178c-1.655.816-3.311,1.649-4.966,2.481q1.81-1.336,3.663-2.617a1.337,1.337,0,0,0-1.349-2.307c-1.517.8-3.046,1.572-4.579,2.336.165-.152.332-.3.5-.449a1.433,1.433,0,0,0-1.42-2.369.825.825,0,0,0-1.094-.358A104.408,104.408,0,0,0,44.11,78.1a1.37,1.37,0,0,0,1.2,2.446l-.055.048c-1.213,1.078.081,2.8,1.433,2.523-.2.187-.413.361-.607.552a1.479,1.479,0,0,0,1.784,2.314c.981-.565,1.981-1.1,2.982-1.636l-.384.281c-1.165.852-.513,3.233,1.084,2.569,2.2-.916,4.4-1.852,6.593-2.785-1.2.849-2.4,1.707-3.611,2.54-1.271.871-.52,3.32,1.129,2.678,1.82-.71,3.627-1.465,5.428-2.233a1.474,1.474,0,0,0,2.03,1.949c1.575-.81,3.043-1.9,4.534-2.856a.677.677,0,0,0,.287-.768c1.481-1.094,2.969-2.175,4.463-3.256,1.168-.842.5-3.22-1.078-2.559Z" transform="translate(-41.64 -64.81)" fill="#abd0f2"/>
    <path id="Path_17874" data-name="Path 17874" d="M53.343,133.934q4.826-3.756,9.655-7.486a6.834,6.834,0,0,1-4.831-.668c-2.4,1.926-4.792,3.863-7.2,5.779-1.7,1.352.694,3.682,2.375,2.375Z" transform="translate(-46.336 -101.112)" fill="#eac485"/>
    <path id="Path_17875" data-name="Path 17875" d="M71.248,80.438a2.634,2.634,0,0,1,2.565,1.581c2.578,5.124,6.573,9.8,10.055,14.521C93.543,89.128,103.6,82.2,113.763,75.5,120,71.384,126.3,67.347,132.589,63.31a1.61,1.61,0,0,0-1.623-2.778c-1.9,1.068-3.788,2.159-5.679,3.246a1.844,1.844,0,0,0-2.636-2.03c-1.981.962-3.953,1.946-5.921,2.936a1.736,1.736,0,0,0-.649.2c-1.323.7-2.636,1.407-3.953,2.11q4.666-3.161,9.329-6.322a1.856,1.856,0,0,0-.355-3.227l.142-.077c1.375-.736.161-2.772-1.217-2.081-6.134,3.088-12.182,6.37-18.087,9.884-.042.019-.081.029-.123.052-1.062.568-2.11,1.158-3.162,1.739a3.063,3.063,0,0,1,2.381,2.9v.052c.852-.549,1.7-1.11,2.559-1.652a1.706,1.706,0,0,0,.813-1.152c.207-.129.407-.261.613-.39q4.564-2.827,9.229-5.479-6.636,4.414-13.208,8.929a10.462,10.462,0,0,1-1.123,5.608c-.1.171-.207.336-.313.5a3,3,0,0,1,.129.336,3.181,3.181,0,0,1-2.2,3.872,10.783,10.783,0,0,1-4.521,0,2.726,2.726,0,0,1-2.185-3.208c-.591.416-1.187.82-1.775,1.236q-4.4,3.006-8.806,6.015,5.261-4.032,10.7-7.838a3.617,3.617,0,0,1,1.317-1.962,7.955,7.955,0,0,0,2.217-2.13c.068-.145.055-.074.045-.032.006-.029.026-.087.061-.21,0,0,.116-.539.145-.591a11.365,11.365,0,0,0,0-1.9,3.2,3.2,0,0,1,.042-.736q-8.117,4.632-15.941,9.755,3.238-2.522,6.493-5.024c.484-.371.971-.739,1.455-1.11q4.831-3.553,9.716-7.035,7.672-5.45,15.479-10.71c1.82-1.226.129-4.189-1.736-2.969q-2.744,1.8-5.489,3.595c1.333-1,2.659-2.01,4-3,1.7-1.265.142-4.137-1.7-2.914q-12.962,8.6-25.928,17.2c.345-.252.691-.507,1.039-.758,3.511-2.552,7.1-5,10.707-7.415,1.775-1.184,3.569-2.34,5.37-3.485,1.82-1.158,4.027-2.207,5.553-3.74a1.127,1.127,0,0,0-1.087-1.868,17.455,17.455,0,0,0-4.411,2.214,1.528,1.528,0,0,0-1.914-2.31,218.8,218.8,0,0,0-27.6,17.5Q76.557,60.1,84.617,53.474c1.459-1.2-.442-3.637-2.017-2.614-.332.216-.662.439-.994.655a1.734,1.734,0,0,0-2.452-1.278A113.992,113.992,0,0,0,61.894,61.971c2.649,1.491,5.476,3.959,5.476,6.706a3.154,3.154,0,0,1-2.31,3.037c-2.2.307-5.967,2.014-9.445,2.756q-8.819,8.282-17.251,16.97c-1.594,1.649.774,3.911,2.481,2.481L42.768,92.3c-.1.094-.2.184-.3.278-1.43,1.362.426,3.885,2.12,2.807-.474,1.381.865,3.13,2.32,2.078.681-.494,1.365-.984,2.046-1.481a1.867,1.867,0,0,0,.352-.342c1.329-1.016,2.659-2.036,4-3.033-4.03,3.7-7.983,7.49-11.8,11.41a1.739,1.739,0,0,0,.987,2.962c-.116.106-.232.21-.349.319a1.657,1.657,0,0,0,.252,2.491c-.336,1.149,1.075,2.6,2.272,1.781,1.836-1.268,3.682-2.517,5.531-3.766a1.538,1.538,0,0,0,.529.239,102.338,102.338,0,0,0-10.091,11.084l-.045.035.01.006c-.094.119-.194.229-.284.349a1.747,1.747,0,0,0,.455,2.275,1.793,1.793,0,0,0,2.314-.139c.655-.52,1.32-1.026,1.978-1.542a1.672,1.672,0,0,0,2.23.058q7.5-5.9,15.179-11.549c-.545-3.391-.862-6.844-1.171-10.307-.591-6.635-1.226-16.051,5.353-20.036,2.143-1.3,4.156.271,4.589,2.156Z" transform="translate(-37.836 -49.336)" fill="#eac485"/>
    <path id="Path_17876" data-name="Path 17876" d="M198.663,154.238c10.123-7.819,20.668-15.118,31.324-22.179,6.251-4.14,12.546-8.212,18.845-12.282a1.687,1.687,0,0,0-1.7-2.911q-2.846,1.3-5.644,2.682a1.768,1.768,0,0,0-2.2-2.675c-1.465.742-2.92,1.5-4.369,2.272q2.077-1.336,4.153-2.672a1.68,1.68,0,0,0,0-2.827h0a1.717,1.717,0,0,0-1.733-2.962c-17.3,8.868-33.64,19.39-49.488,30.617a79.209,79.209,0,0,0,10.813,12.933Z" transform="translate(-139.442 -90.744)" fill="#eac485"/>
    <path id="Path_17877" data-name="Path 17877" d="M228.486,99.146c-16.183,9.871-32.408,19.862-47.716,31.078.529.72,1.049,1.442,1.546,2.168.165.242.336.481.5.723q14.231-10.073,28.91-19.5c2.291-1.468,4.6-2.911,6.9-4.35q5.794-3.577,11.6-7.131c1.894-1.162.168-4.143-1.746-2.985Z" transform="translate(-134.646 -82.897)" fill="#eac485"/>
    <path id="Path_17878" data-name="Path 17878" d="M270.261,146.97c-13.046,7.59-25.573,15.973-37.865,24.7-.642.449-1.291.884-1.933,1.333q-4.24,2.972-8.474,5.989c.116.106.226.219.345.326.752.678,1.53,1.329,2.317,1.968q10.639-7.638,21.527-14.918c.791-.468,1.575-.942,2.365-1.407,5-2.936,10.029-5.812,14.957-8.868a.711.711,0,0,0,.155-1.136c2.736-1.746,5.473-3.492,8.229-5.208a1.613,1.613,0,0,0-1.626-2.785Z" transform="translate(-162.565 -115.303)" fill="#eac485"/>
    <path id="Path_17879" data-name="Path 17879" d="M85.858,250.038a41.4,41.4,0,0,1-4.392-13.008c-4.585,4.169-9.019,8.5-13.256,13.021a1.572,1.572,0,0,0,.962,2.691c-1.084,1.133-2.162,2.265-3.217,3.424-1.184,1.3.436,3.772,1.994,2.585q6.142-4.69,12.3-9.364c-2.943,2.888-5.805,5.857-8.555,8.935a1.7,1.7,0,0,0,2.217,2.559q-2.081,2.188-4.1,4.437a1.774,1.774,0,0,0,1.084,2.988c-.529.587-1.065,1.168-1.588,1.762a1.685,1.685,0,0,0,2.381,2.381q9.279-8.025,18.655-15.941a40.451,40.451,0,0,1-4.489-6.467Z" transform="translate(-56.604 -176.463)" fill="#eac485"/>
    <path id="Path_17880" data-name="Path 17880" d="M289.216,189.094c-.132.055-.258.113-.39.168h0s-.006,0-.006.006q-2.115.876-4.2,1.807a1.018,1.018,0,0,0-1.446-.5c-7.906,4.221-15.721,8.645-23.482,13.143l.745-.494q5.2-3.446,10.4-6.9c1.3-.781,2.607-1.565,3.914-2.34q3.093-1.834,6.209-3.627,1.66-.963,3.3-1.943c1.126-.674,2.091-1.452,3.14-2.227.968-.716.445-2.669-.9-2.143-.474.184-.939.355-1.4.529.658-.458,1.323-.9,1.978-1.368a1.016,1.016,0,0,0-1.026-1.752c-5.66,3.014-11.068,6.505-16.412,10.071-1.045.5-2.085,1.02-3.124,1.533a3.247,3.247,0,0,1-2.22,1.1c-.365.184-.729.368-1.091.552,0,.039-.006.071-.01.119a.147.147,0,0,1-.013.074.626.626,0,0,1,.023.071c.013.042.326.871.1.39a3.22,3.22,0,0,1-1.129,4.308,3.174,3.174,0,0,1-4.308-1.129c-.139-.3-.258-.6-.368-.9-1.965,1.029-3.924,2.065-5.87,3.127q2.8-1.96,5.631-3.888a9.365,9.365,0,0,1-.278-1.446,3.322,3.322,0,0,1-1.684-2.678q-10.111,6.418-19.958,13.25a71.577,71.577,0,0,0,6.234,4.195q4.255-2.532,8.567-4.966-2,1.505-3.992,3.03c-.452.349-.9.71-1.346,1.065-.7.5-1.4,1.016-2.1,1.526q2.628,1.525,5.334,2.865c.584.29,1.165.574,1.739.865q5.823-3.882,11.794-7.532-5.842,3.8-11.691,7.583c3.646,1.836,7.028,3.8,9.168,7.519a3.233,3.233,0,0,1,.174,2.875q6.225-3.621,12.559-7.067c4.8-2.6,9.639-5.16,14.473-7.712,1.9-1.007.232-3.737-1.668-2.853q-3.732,1.733-7.435,3.527,5.707-3.238,11.417-6.473c.2-2.72.507-5.428.971-8.138-9.819,4.811-19.549,9.819-29.081,15.173q6.031-3.911,12.072-7.816,8.984-5.789,17.964-11.581c1.468-.945.539-3.73-1.262-2.991Z" transform="translate(-171.607 -138.727)" fill="#eac485"/>
    <path id="Path_17881" data-name="Path 17881" d="M142.979,302.75q-3.693,1.989-7.383,3.982c-2.581,1.391-5.273,3.12-8.1,4.347,6.012-4.543,12.23-8.774,18.587-12.795a52.628,52.628,0,0,1-15.021.374,12.811,12.811,0,0,1-11.246-1.943,4.179,4.179,0,0,1-.845-.823,34.869,34.869,0,0,1-3.643-1.649l-6.886,4.55c.242-.281.494-.555.742-.829,1.759-1.4,3.53-2.782,5.3-4.172a37.05,37.05,0,0,1-5.5-3.759q-1.626,1.2-3.256,2.4-2.827,2.1-5.644,4.2c2.607-2.52,5.324-4.931,8.09-7.28a40.082,40.082,0,0,1-3.921-3.914q-4.381,4.177-8.551,8.567a1.755,1.755,0,0,0-.048,2.243,122.249,122.249,0,0,0-9.858,11.233c-1.023,1.326,1,3.324,2.327,2.327q2.643-1.989,5.289-3.972c-.816.891-1.642,1.775-2.436,2.685a1.6,1.6,0,0,0,2.256,2.256q3.306-2.667,6.612-5.328a1.721,1.721,0,0,0,2.582,1.465q1.888-1.249,3.779-2.5a1.767,1.767,0,0,0,1.478,2.181c-.707.658-1.42,1.31-2.117,1.981-1.371,1.32.423,3.75,2.062,2.675l6.605-4.327a2.04,2.04,0,0,0,.258.145q-1.854,1.452-3.695,2.924c-1.575,1.265.439,3.675,2.107,2.733l.177-.1c-1.023.826-2.043,1.652-3.049,2.494-1.468,1.226.465,3.75,2.056,2.665q4.443-3.035,8.955-5.976c-.52.442-1.046.878-1.562,1.326a1.687,1.687,0,0,0,1.181,2.853,18.168,18.168,0,0,0,5.973-1.252c-.681.552-1.365,1.1-2.033,1.659-1.523,1.275.426,3.608,2.072,2.685,2.081-1.171,4.179-2.317,6.267-3.472-.607.478-1.229.933-1.833,1.417-1.642,1.317.5,4.066,2.252,2.917.426-.281.855-.558,1.281-.839a1.714,1.714,0,0,0,2.514.807c2.885-1.542,5.731-3.149,8.58-4.756-1.2.926-2.381,1.868-3.55,2.84-1.565,1.3.513,4.03,2.194,2.843q4.042-2.851,8.048-5.76a1.5,1.5,0,0,0,1.781.2,75.705,75.705,0,0,0,8.371-5.234,2.707,2.707,0,0,1,.129-1.223c1.5-4.411,1.894-9.3,2.1-13.931a.852.852,0,0,1,.006-.09c-.207.116-.416.229-.623.345q-9.468,5.111-18.932,10.223c.739-.507,1.494-.994,2.239-1.494.165-.09.332-.177.5-.268q8.417-4.545,16.835-9.087c.171-3.024.836-6.528,4.831-5.676a2.651,2.651,0,0,1,2.143,1.914q2.227-1.2,4.453-2.4,4.163-2.246,8.325-4.5c.135-.529.284-1.052.41-1.588a3.164,3.164,0,0,1,.536-1.155c.158-.668.3-1.336.452-2.007a279.3,279.3,0,0,0-43,23.656Z" transform="translate(-70.13 -204.958)" fill="#eac485"/>
    <path id="Path_17882" data-name="Path 17882" d="M337.428,168.857q-7.9,4.376-15.608,9.087a8.874,8.874,0,0,1,1.73.181,2.951,2.951,0,0,1,2.191,2.333q8.471-5.436,17.2-10.455c1.943-1.113.2-4.1-1.755-3-.958.539-1.9,1.1-2.859,1.646a1.615,1.615,0,0,0-.9.21Z" transform="translate(-230.181 -128.868)" fill="#eac485"/>
    <path id="Path_17883" data-name="Path 17883" d="M353.1,301.868a16.425,16.425,0,0,1,3.2,4q3.446-1.873,6.944-3.643a1.841,1.841,0,0,0,.255-.168,2.912,2.912,0,0,1,.087-.381c.142-.442.281-.887.419-1.333a2,2,0,0,0-.478-.723c.284-.155.568-.307.852-.461.21-.665.416-1.326.629-1.988a3.135,3.135,0,0,1,.21-.484c.174-.616.32-1.242.481-1.865-4.221,2.243-8.445,4.482-12.649,6.754.019.1.039.194.052.29Z" transform="translate(-251.333 -215.605)" fill="#eac485"/>
  </g>
  <g id="Group_17184" data-name="Group 17184">
    <path id="Path_17884" data-name="Path 17884" d="M172.872,164.619a19.639,19.639,0,0,0,.568-3.94c-.126-2.346,1.568-3.2,3.1-4.092.978-.568,1.7.345,2.423,1.039,2.788,2.669,5.65,5.263,8.664,8.054a25.424,25.424,0,0,0,1.549-2.443,61.4,61.4,0,0,0,5.734-18.439,61.151,61.151,0,0,0,.813-15.26,47.335,47.335,0,0,0-6.848-21.288c-2.417-3.824-5.3-7.348-7.977-11.007-.226-.31-.626-.581-.681-.913-.106-.626-.271-1.494.048-1.878a2.445,2.445,0,0,1,1.933-.81,4,4,0,0,1,2.133,1.31c6.854,8.032,12.356,16.822,14.466,27.342a59.452,59.452,0,0,1,.387,21.572,75.681,75.681,0,0,1-5.986,20.468c-.865,1.82-1.968,3.527-3.043,5.424.587,1.136,1.217,2.314,1.81,3.511,2.21,4.46,1.93,9.013.126,13.453a10.724,10.724,0,0,1-11.965,6.525,14.651,14.651,0,0,1-4.347-2.136,19.543,19.543,0,0,1-2.643-2.449,8.627,8.627,0,0,0-1.517.662c-4.876,3.3-10.407,4.966-15.989,6.583a47.86,47.86,0,0,1-17.729,2.056,59.329,59.329,0,0,1-17.148-3.869,8.14,8.14,0,0,1-1.536-.794,1.889,1.889,0,0,1-.784-2.285,1.719,1.719,0,0,1,2.062-1.181,8.992,8.992,0,0,1,1.936.552,56.159,56.159,0,0,0,19.81,3.633,28.7,28.7,0,0,0,8.577-1.142c4.047-1.265,8.141-2.378,12.175-3.682a24.305,24.305,0,0,0,7.722-4.353,21.235,21.235,0,0,1-.158-9.642c.649-3.088,1.181-6.2,1.881-9.923-4.063,6.751-10.184,9.145-16.783,10.555-6.422,1.371-12.872.845-19.268-.452a2.494,2.494,0,0,1-1.313-.507c-.419-.461-.949-1.184-.842-1.672a2.515,2.515,0,0,1,1.336-1.639,5.436,5.436,0,0,1,2.543.042,52.428,52.428,0,0,0,12.979.794,17.482,17.482,0,0,0,7.477-1.894c-1.223-.62-2.143-1.081-3.059-1.555-3.779-1.943-7.654-3.721-11.3-5.889a62.246,62.246,0,0,1-8.706-6.2c-5.205-4.456-10.429-8.932-15.215-13.827-4.85-4.963-9.181-10.433-13.73-15.686-.565-.652-1.081-1.342-2.088-2.6.758,7.474,1.242,14.286,3.972,20.672a35.979,35.979,0,0,1,5.5.729c9.949,2.895,15.4,9.79,17.193,19.784a29.926,29.926,0,0,1,.468,4.886c.032,2.62-1.359,3.611-3.7,2.527-3.775-1.743-7.486-3.669-10.439-6.686a55.58,55.58,0,0,1-15.492-28.926,94.54,94.54,0,0,1-1.384-10.026,30.4,30.4,0,0,1,3.879-18.4,11.579,11.579,0,0,1,2.094-2.74,4.948,4.948,0,0,1,6.864-.181,44.007,44.007,0,0,1,4.621,5.518,1.608,1.608,0,0,1-.126,2.349,2.238,2.238,0,0,1-2.927.006c-.791-.833-1.384-1.849-2.12-2.74-2.446-2.959-3.285-2.878-5.182.381a18.292,18.292,0,0,0-2.417,6.706,157.492,157.492,0,0,0,19.4,23.072c5.415,5.221,11.255,10,16.951,14.931A19.162,19.162,0,0,0,145,158.83c6.18,3.379,12.343,6.8,19.226,9.416a28.8,28.8,0,0,0,2.73-2.346c1.336-1.452,1.265-2.769-.339-3.937a54.153,54.153,0,0,0-5.641-3.533c-3.375-1.875-6.841-3.585-10.2-5.479a40.342,40.342,0,0,1-3.995-2.865c-6.883-5.1-12.453-11.539-18.268-17.732a7.026,7.026,0,0,1-.978-1.426,1.844,1.844,0,0,1,.532-2.565,1.727,1.727,0,0,1,2.375.145,15.754,15.754,0,0,1,1.217,1.239c2.452,2.6,4.957,5.153,7.341,7.812,5.883,6.56,12.995,11.456,20.73,15.541,2.22,1.171,4.366,2.478,6.56,3.7,3.143,1.759,5.776,3.921,6.573,7.816Zm5.028-1.962a3.351,3.351,0,0,0-.468.662,91.265,91.265,0,0,0-3.246,15.483c-.474,4.447,1.772,7.557,5.247,9.884a5.083,5.083,0,0,0,5.253.116,7.336,7.336,0,0,0,3.934-4.392,12.724,12.724,0,0,0-1.713-11.791A61.618,61.618,0,0,0,177.9,162.657Zm-50.611,5.8c-.733-5.521-2.207-10.061-5.97-13.618-3.417-3.227-7.745-5.144-10.965-4.718,4.269,7.238,8.645,14.147,16.935,18.332Z" transform="translate(-68.039 -63.415)" fill="#262c54"/>
    <path id="Path_17885" data-name="Path 17885" d="M59.421,48.91c5.728-4.711,12.191-7.49,18.955-9.571A64.882,64.882,0,0,1,86.294,37.8a4.594,4.594,0,0,1,1.73.061,1.85,1.85,0,0,1,1.678,1.72,1.827,1.827,0,0,1-1.6,2.078c-1.126.229-2.3.2-3.446.371-5.318.787-10.2,2.853-14.989,5.17a23.937,23.937,0,0,0-6.689,4.308,7.793,7.793,0,0,0,.971,1.333c2.307,2.049,4.673,4.037,6.97,6.1a10.8,10.8,0,0,1,1.872,2.168c.842,1.32.542,2.549-.862,3.059-4.8,1.733-9.458,3.937-14.515,4.86a61.231,61.231,0,0,1-6.893.6c-1.052.071-2.114.013-3.23.013a14.189,14.189,0,0,0-2.436,4.514C42.65,79.9,41.763,85.916,41.034,91.931A51.493,51.493,0,0,0,45,119.086c2.62,6.025,5.276,12.046,9.713,17.035a32.675,32.675,0,0,0,3.666,3.685c3.288,2.682,6.676,5.244,10.026,7.851a5.857,5.857,0,0,1,.687.526,1.946,1.946,0,0,1,.6,2.343c-.529,1.065-1.488,1.12-2.491.9a4.4,4.4,0,0,1-1.062-.442,10.18,10.18,0,0,1-1.5-.874c-5.341-4.14-11.007-7.974-14.9-13.63a96.991,96.991,0,0,1-6.228-10.759A61.39,61.39,0,0,1,37.371,107.7a55.263,55.263,0,0,1-.6-12.946,96.474,96.474,0,0,1,2.214-15.144c.891-3.824,2.365-7.512,3.763-11.827a11.639,11.639,0,0,1-2.662-2.352c-5.208-8.09-2.1-17.041,6.647-20.31,3.072-1.149,6.105-.445,8.871,1.265,1.229.758,2.41,1.594,3.821,2.53Zm7.67,12.275c-2.93-2.614-5.731-5.218-8.651-7.68a46.359,46.359,0,0,0-5.163-3.7,6.168,6.168,0,0,0-7.545.361A11.74,11.74,0,0,0,43.073,52.8c-1.817,2.688-1.713,5.547-.613,8.548.984,2.685,3.085,3.556,5.554,3.943,6.754,1.058,12.9-.858,19.077-4.1Z" transform="translate(-24.809 -25.568)" fill="#262c54"/>
    <path id="Path_17886" data-name="Path 17886" d="M166.9.076A72.306,72.306,0,0,1,190.89,3.225a59.653,59.653,0,0,1,28.687,18.748,5.661,5.661,0,0,1,.549.671,2.039,2.039,0,0,1-.307,2.853,1.828,1.828,0,0,1-2.611-.158c-.574-.513-1.068-1.117-1.639-1.636-3.13-2.862-6.067-5.986-9.455-8.506a55.815,55.815,0,0,0-21.869-9.461,88.818,88.818,0,0,0-23.318-1.6,44.627,44.627,0,0,0-12.95,2.843c-2.056.742-3.256.49-3.679-.813-.358-1.1.413-2.356,2.152-2.972a48.109,48.109,0,0,1,14.073-3.1c2.12-.09,4.25-.016,6.373-.016Z" transform="translate(-97.677 -0.002)" fill="#262c54"/>
    <path id="Path_17887" data-name="Path 17887" d="M131.106,415.673c-3.546-.274-7.122-.339-10.626-.874a67.2,67.2,0,0,1-15.986-4.973,78.928,78.928,0,0,1-13.9-7.7,12.249,12.249,0,0,1-2.146-1.92,1.576,1.576,0,0,1-.045-2.13,1.8,1.8,0,0,1,2.288-.713,9.367,9.367,0,0,1,1.73,1.042,78.3,78.3,0,0,0,26.2,11.94c4.721,1.246,9.59.981,14.421.865a69.533,69.533,0,0,0,18.532-2.9,7.489,7.489,0,0,1,1.962-.455,1.994,1.994,0,0,1,2.056,1.313,1.816,1.816,0,0,1-.923,2.22,7.267,7.267,0,0,1-1.849.8C145.75,414.369,138.486,415.186,131.106,415.673Z" transform="translate(-59.608 -269.027)" fill="#262c54"/>
    <path id="Path_17888" data-name="Path 17888" d="M308.162,204.426c-1.349.068-2.711.039-4.04.229-2.136.307-2.549.787-2.924,2.936a27.221,27.221,0,0,0-.207,8.919,10.7,10.7,0,0,1,.232,2.869,2.527,2.527,0,0,1-1.033,1.807,2.691,2.691,0,0,1-2.1-.348,3.431,3.431,0,0,1-1.142-1.613c-1.781-4.163-3.614-8.306-5.221-12.537a16.785,16.785,0,0,1-1.052-5.341c-.126-3.921,1.907-6.322,5.841-6.434a29.81,29.81,0,0,1,16.509,4.472,2.6,2.6,0,0,1,1.423,2.64,2.68,2.68,0,0,1-2.533,2.369,14.509,14.509,0,0,1-2.02.09c-.578.013-1.158,0-1.736,0v-.061Zm-3.369-4.082a17.8,17.8,0,0,0-7.941-1.223c-1.6.084-2.065.565-2.117,2.136-.081,2.372.842,4.437,2.307,7.077.207-5.237,2.814-7.59,7.751-7.993Z" transform="translate(-196.876 -132.009)" fill="#262c54"/>
    <path id="Path_17889" data-name="Path 17889" d="M178.369,106.752c-3.337-.077-6.4-1.255-9.468-2.388-2.075-.768-4.121-1.626-6.131-2.549a11.031,11.031,0,0,1-2.385-1.594,1.876,1.876,0,0,1-.478-2.588,1.742,1.742,0,0,1,2.536-.591c2.527,1.552,5.328,1.568,8.112,1.613,3.2.055,4.563-.9,5.515-3.979a39.788,39.788,0,0,0,.939-5.079,17.751,17.751,0,0,1,.436-2.833c.729-2.107,2.6-2.74,4.34-1.4a6.157,6.157,0,0,1,2.107,2.659,64.691,64.691,0,0,1,2.723,9.984,8,8,0,0,1-2.811,7.261c-1.562,1.41-3.479,1.51-5.434,1.481Zm-2.514-4.889c.071.207.145.41.216.616,1.22.048,2.44.158,3.659.129a2.507,2.507,0,0,0,2.378-1.794c.891-2.63.342-5.082-1.168-7.945C179.976,96.691,178.631,99.692,175.856,101.864Z" transform="translate(-108.087 -57.343)" fill="#262c54"/>
    <path id="Path_17890" data-name="Path 17890" d="M12.9,295.587a8.47,8.47,0,0,1,1.494,1.855c.594,1.3.874,2.743,1.4,4.082a32.43,32.43,0,0,0,7.993,12.546,39.113,39.113,0,0,1,3.388,3.55c.933,1.1.929,2.046.216,2.859a1.931,1.931,0,0,1-3.053-.116c-2.811-2.895-5.879-5.67-8.074-9-2.249-3.408-3.624-7.4-5.279-11.181a6.81,6.81,0,0,1-.416-2.814A2,2,0,0,1,12.9,295.587Z" transform="translate(-7.151 -200.201)" fill="#262c54"/>
    <path id="Path_17891" data-name="Path 17891" d="M413.548,131.673a7.008,7.008,0,0,1-.055,2.288,2.848,2.848,0,0,1-1.459,1.575,1.689,1.689,0,0,1-2.059-1.165,5.015,5.015,0,0,1-.387-1.668c-.5-7.632-3.046-14.637-6.48-21.375-.668-1.313-.6-2.136.261-2.843.916-.758,1.946-.607,3.007.591a8.047,8.047,0,0,1,1.4,2.162c2.32,5.5,4.485,11.062,5.453,17,.187,1.136.284,2.288.423,3.433-.036,0-.068.006-.1.006Z" transform="translate(-272.726 -73.164)" fill="#262c54"/>
    <path id="Path_17892" data-name="Path 17892" d="M219.32,38.03a46.684,46.684,0,0,1,19.045,4.4,9.676,9.676,0,0,1,1.052.474,1.9,1.9,0,0,1,.8,2.281,1.8,1.8,0,0,1-2,1.326,5.28,5.28,0,0,1-1.936-.549c-5.686-2.733-11.756-3.63-17.977-3.811-.29-.01-.581,0-.868-.013-1.042-.061-1.91-.381-2.12-1.559-.2-1.094.39-1.92,1.726-2.269a17.265,17.265,0,0,1,2.285-.287Z" transform="translate(-145.808 -25.759)" fill="#262c54"/>
    <path id="Path_17893" data-name="Path 17893" d="M0,242.933c.213-2.427.352-4.334.561-6.234a1.718,1.718,0,0,1,1.707-1.633,1.75,1.75,0,0,1,2,1.275,6.642,6.642,0,0,1,.258,1.975c-.01,2.281-.065,4.566-.123,6.848a1.953,1.953,0,0,1-.216,1.1c-.455.555-.978,1.255-1.6,1.423a1.647,1.647,0,0,1-1.952-1.317A33.037,33.037,0,0,1,0,242.93Z" transform="translate(0 -159.205)" fill="#262c54"/>
    <path id="Path_17894" data-name="Path 17894" d="M423.59,217.161c.248-1.31.423-2.643.765-3.927a1.967,1.967,0,0,1,3.843.687,56.5,56.5,0,0,1-.594,5.705,1.939,1.939,0,0,1-3.853-.139c-.065-.762-.013-1.533-.013-2.3l-.145-.029Z" transform="translate(-286.902 -143.488)" fill="#262c54"/>
    <path id="Path_17895" data-name="Path 17895" d="M165.284,173.615a1.726,1.726,0,0,1-2.436,1.843,9.267,9.267,0,0,1-4.382-5.1,1.825,1.825,0,0,1,2.139-2.259c1.181.226,4.608,4.256,4.682,5.508Z" transform="translate(-107.261 -113.838)" fill="#262c54"/>
    <path id="Path_17896" data-name="Path 17896" d="M312.539,67.9c-.126,1.678-1.439,2.669-2.514,2.114a26.113,26.113,0,0,1-4.311-2.84,2.19,2.19,0,0,1-.378-3.085c.668-.726,1.639-.762,2.882.006a24.486,24.486,0,0,1,3.072,2.136,7.952,7.952,0,0,1,1.252,1.668Z" transform="translate(-206.486 -43.033)" fill="#262c54"/>
  </g>
</svg>
