<svg id="_25" data-name="25" xmlns="http://www.w3.org/2000/svg" width="155.037" height="150.183" viewBox="0 0 155.037 150.183">
  <g id="Group_17185" data-name="Group 17185" transform="translate(14.469 15.204)">
    <path id="Path_17897" data-name="Path 17897" d="M288.743,159.014c-.726-2.252-1.252-4.547-2.782-6.422a7.343,7.343,0,0,0-6.709-2.469,10.139,10.139,0,0,0-6.4,3.517,17.177,17.177,0,0,0-2.772,4.208c-.174.1-.352.2-.529.3a2.015,2.015,0,0,0,2.033,3.479c2.017-.875,4.021-1.8,6.067-2.611.378-.152.771-.3,1.168-.436a1.328,1.328,0,0,0,.323.381,3,3,0,0,0,1.049.649,5.494,5.494,0,0,0,1.155.1c.636.032,1.271.01,1.907.042a1.606,1.606,0,0,0,.658-.126,9.9,9.9,0,0,0,1.717,1.772,2.128,2.128,0,0,0,3.111-2.391Z" transform="translate(-196.37 -116.834)" fill="#75757c"/>
    <path id="Path_17898" data-name="Path 17898" d="M156.371,157.944c-2.414-4.4-4.785-10.326-10.739-10.284a12.062,12.062,0,0,0-7.157,2.83c-1.891,1.471-4.331,4.13-2.966,6.657-.352.539-.7,1.081-1.039,1.62a2.109,2.109,0,0,0,.326,2.52,2.171,2.171,0,0,0,2.52.326c4.708-2.123,11.333-5.376,15.621-1.02C154.7,162.387,157.559,160.106,156.371,157.944Z" transform="translate(-105.354 -115.212)" fill="#75757c"/>
    <path id="Path_17899" data-name="Path 17899" d="M184.66,95.907q7.837-7.653,15.922-15.054,6.994-6.389,14.169-12.572a1.828,1.828,0,0,0-.365-2.856c1.094-.839,2.172-1.7,3.272-2.523,1.507-1.136.207-3.608-1.523-2.6a276.57,276.57,0,0,0-39.755,28.61,13.308,13.308,0,0,1,8.28,7Z" transform="translate(-133.93 -55.882)" fill="#eac485"/>
    <path id="Path_17900" data-name="Path 17900" d="M174.523,98.348a1.009,1.009,0,0,0-1.426-1.426c-4.208,3.856-8.07,8.1-11.914,12.327a1.446,1.446,0,0,0-1.362-1.149q1.157-.958,2.314-1.92a1.384,1.384,0,0,0,.194-2.088q1.147-1.229,2.269-2.485c.758-.842,1.5-1.691,2.227-2.565a3.35,3.35,0,0,0,1.113-2.714.744.744,0,0,0-.707-.539,3.477,3.477,0,0,0-2.54,1.384c-.813.787-1.594,1.6-2.375,2.417q-1.21,1.268-2.394,2.559a1.439,1.439,0,0,0-.778.268c-.2.142-.4.294-.6.439a23.664,23.664,0,0,0,1.881-2.72,1.6,1.6,0,0,0-.284-2.017c1.633-1.362,3.259-2.736,4.892-4.1a1.46,1.46,0,0,0,.058-2.188c.029-.023.055-.048.084-.071.984-.852,2.056-1.684,2.969-2.633a.41.41,0,0,0,.11-.006,2.347,2.347,0,0,0,.81-.481,1.11,1.11,0,0,0,.284-1.081,1.737,1.737,0,0,0-.31-.726,1.275,1.275,0,0,0-1.7-.445,24.256,24.256,0,0,0-3.692,2.782q-1.849,1.52-3.695,3.04c-1.681,1.391-3.34,2.8-5,4.214q-2.73,1.757-5.412,3.579c.558-.574,1.12-1.142,1.675-1.72q2.149-2.246,4.343-4.443c.771-.768,1.542-1.536,2.3-2.32a3.741,3.741,0,0,0,1.417-2.44.556.556,0,0,0-.252-.478c1.468-1.381,2.917-2.785,4.3-4.247.649-.684-.194-1.894-1.039-1.349-.323.21-.642.426-.962.642a1.776,1.776,0,0,0-2.4-.92,129.013,129.013,0,0,0-12.779,7.932c-1.92,1.3-3.811,2.64-5.689,4l.313-.313q7.285-7.309,14.586-14.6a1.53,1.53,0,0,0,.349-.523c.865-.733,1.733-1.462,2.594-2.2,1.588-1.352-.536-4.163-2.252-2.917-2,1.449-3.976,2.924-5.957,4.4q.731-.644,1.465-1.294A1.412,1.412,0,0,0,151.566,75q1.752-1.689,3.5-3.382a1.768,1.768,0,0,0-2.133-2.765C147.72,71.9,142.676,75.2,137.775,78.7c3.475-3.343,6.935-6.709,10.4-10.062a1.41,1.41,0,0,0,.471-1.294,1.813,1.813,0,0,0-.329-2.423c.516-.407,1.033-.81,1.552-1.217,1.62-1.268-.51-4.043-2.21-2.865C145.69,62.2,143.741,63.6,141.8,65a1.316,1.316,0,0,0-2.036-1.02c-7.115,4.64-14.04,9.652-20.688,15.005.265-.245.529-.491.794-.733q7.28-6.66,14.621-13.25a1.861,1.861,0,0,0,.5-2.046q1.8-1.694,3.592-3.385c1.875-1.759-.845-4.289-2.762-2.762q-7.067,5.639-14.118,11.3,1.559-1.438,3.095-2.895c1.791-1.707,4.195-3.469,5.37-5.679.39-.733-.284-1.959-1.21-1.572-2.3.958-4.2,3.03-6.07,4.631-2.039,1.749-4.03,3.553-6.041,5.334-3.953,3.508-7.9,7.028-11.785,10.613q-4.724,4.361-9.39,8.793c.1.2.2.4.294.61a3.162,3.162,0,0,1-4.927,3.827c-.378.368-.765.726-1.142,1.094a1.515,1.515,0,0,0,0-.171c.339-.339.684-.671,1.023-1.01-2.9-2.34-7.874-1.523-10.384.962a2.873,2.873,0,0,1-2.54.871c-1.672,2.336-6.276.61-5.57-2.869a16.22,16.22,0,0,1,.752-2.562c-.452.452-.916.891-1.365,1.342a1.784,1.784,0,0,0-.713-1.265c1.255-1.123,2.53-2.227,3.8-3.33a12.106,12.106,0,0,1,4.76-4.043q5.726-4.768,11.659-9.277-4.981,4.221-9.8,8.609a10.934,10.934,0,0,1,1.617-.313,11.292,11.292,0,0,1,3.408.132c6.154-5.56,12.52-10.891,18.945-16.093,5.16-4.176,10.374-8.277,15.592-12.382,1.326-1.042-.378-3.143-1.781-2.307-.458.274-.907.561-1.365.836.82-1.362-.645-3.433-2.243-2.378q-11.5,7.565-22.537,15.8c1.329-1.123,2.656-2.246,4-3.353,4.185-3.45,8.429-6.825,12.772-10.071,1.542-1.152.2-3.679-1.549-2.653q-8.6,5.024-16.925,10.487,5.2-3.829,10.549-7.467c1.7-1.175.1-3.972-1.636-2.8q-2.895,1.96-5.75,3.979L70.132,68.479q5.683-4.792,11.62-9.271,4.593-3.291,9.155-6.625c1.762-1.291.09-4.266-1.739-2.978-2.369,1.665-4.7,3.382-7.019,5.118C73.611,61,65.15,67.379,56.657,73.707a1.482,1.482,0,0,0,.11,2.42C54.791,78,52.83,79.88,50.906,81.8c-1.242,1.242.4,3.556,1.93,2.5q3.756-2.59,7.506-5.182-5.082,4.666-9.968,9.545c-1.578,1.584.774,3.863,2.43,2.43q3.863-3.345,7.812-6.586c-.42.474-.858.933-1.275,1.41-1.381,1.591-2.743,3.2-4.053,4.85a30.336,30.336,0,0,0-3.73,5.17,3.9,3.9,0,0,0-.29,2.859q-3.224,4.26-6.438,8.525a3.193,3.193,0,0,1,.758,1.891c.055.781.094,1.581.139,2.372q1.622-1.549,3.272-3.059a1.5,1.5,0,0,0,1.684-.429c2.039-2.178,4.121-4.318,6.218-6.438q1.409-1.162,2.843-2.3c.374-.184.745-.368,1.117-.539l.129-.061q-7.357,9.139-14.724,18.271c.245,1.733.513,3.462.736,5.2q2.919-2.493,5.837-4.982l-5.608,6.973c.132,1.3.223,2.614.239,3.93a1.663,1.663,0,0,0,1.359-.49q3.49-3.229,6.98-6.46-1.288,1.7-2.575,3.4c-1.046,1.381,1.046,3.485,2.427,2.427l8.761-6.718q-6.438,7.9-12.111,16.386c.145.187.287.381.432.568a.01.01,0,0,0,.006,0c.006.013.013.023.019.035.674.874,1.32,1.768,1.952,2.665q2.125-1.917,4.269-3.814a1.741,1.741,0,0,0,.284.555q-1.873,2.212-3.746,4.427,1.046,1.53,2.049,3.085c.106-.123.21-.245.316-.368a1.7,1.7,0,0,0-.106.7q.523.813,1.042,1.626a1.77,1.77,0,0,0,.526.2c-.077.084-.155.171-.236.255.652,1.026,1.3,2.056,1.959,3.082.045-.013.087-.019.132-.029a194.587,194.587,0,0,1,19.039-17.538q-7.987,9.492-15.97,18.987c.194.245.387.491.581.733a3.034,3.034,0,0,1,.671.413,16.6,16.6,0,0,1,1.552,1.513l.345-.365a1.517,1.517,0,0,0,1.6-.494,129.942,129.942,0,0,1,10.171-9.92,1.907,1.907,0,0,0,2.4.736q-1.868,2.415-3.708,4.86a1.692,1.692,0,0,0,.733,2.517c-1.794,2.2-3.63,4.369-5.492,6.518.158.177.316.358.471.536a2.818,2.818,0,0,1,4.014.268c1.087,1.2,2.01,2.53,3.169,3.611q.513-.47,1.029-.939a1.842,1.842,0,0,0,.652,1.116,1.752,1.752,0,0,0,2.256-.136q4.492-3.519,8.919-7.128-4.008,4.3-8.012,8.6c-1.281,1.378.455,3.982,2.117,2.746q5.349-3.988,10.7-7.974c-.371.371-.749.732-1.117,1.107q-4.9,5-9.471,10.307c-1.439,1.681.858,4.066,2.459,2.459Q102.062,160.436,114.7,149.6q-7.377,7.382-14.753,14.76c-1.565,1.568.752,3.785,2.4,2.4q1.505-1.268,3.007-2.533a1.734,1.734,0,0,0,2.565.284c8.342-7.409,16.722-14.834,25.534-21.685a1.906,1.906,0,0,0,.652.339q-10.775,10.562-21.549,21.12c-1.578,1.546.758,3.8,2.4,2.4q1.442-1.234,2.888-2.465a1.974,1.974,0,0,0,.816-.426c.636-.542,1.265-1.087,1.9-1.63-.665,1.375,1.023,3.333,2.478,2.281q2.009-1.452,3.972-2.966a1.572,1.572,0,0,0,2.375.658q4.095-2.7,8.045-5.612a1.615,1.615,0,0,0,2.207-.161q2.967-2.778,5.925-5.563a71,71,0,0,0,6.973-6.547l1.123-1.055q1.907-1.747,3.772-3.54a1.57,1.57,0,0,0,.513-1.4,113.139,113.139,0,0,0,12.211-16.438c.7-1.178-.794-2.943-2.01-2.01-2.223,1.7-4.46,3.353-6.664,5.044.594-.862,1.181-1.726,1.746-2.6.752-1.175-.774-2.782-1.962-1.962l-.558.387c2.152-2.314,4.3-4.637,6.46-6.941,1.152-1.229-.348-3.414-1.865-2.417-1.578,1.036-3.12,2.123-4.637,3.246q.886-1.3,1.746-2.607c4.156-4.418,8.358-8.842,12.1-13.618ZM70.629,78.47a1.292,1.292,0,0,0-.136-1.759q7.517-5.779,15.3-11.207-8.7,7.449-16.986,15.389.91-1.215,1.823-2.427Zm-8.477,60.7q-.7.721-1.391,1.452,2.193-2.444,4.447-4.834Q63.7,137.5,62.152,139.171Zm1.968-12.5q2.836-3.693,5.831-7.257a2.206,2.206,0,0,0,.826,1.659q-3.35,2.774-6.657,5.6Zm17.164-20.578c-.394.413-.778.833-1.168,1.249a2.013,2.013,0,0,0-.126-.581c.587-.474,1.175-.945,1.762-1.42-.155.248-.31.5-.468.749Zm-6.464-3.711c-1.313,1.359-2.611,2.733-3.911,4.1a1.559,1.559,0,0,0-.523-1.039q7.691-7.367,15.67-14.424Q80.374,96.631,74.821,102.378ZM101.452,109q-1.52.992-3.04,1.988,3.926-3.408,7.854-6.806C104.654,105.779,103.056,107.393,101.452,109Zm22.976-14.9c-1.036.665-2.065,1.336-3.1,2q3.766-3.243,7.638-6.354a4.549,4.549,0,0,0-3.372.749,2.542,2.542,0,0,1-2.694.336c-.042.09-.09.177-.126.274-1.384,3.456-6.722,2.291-6.276-.9l-10.487,9.071q4.4-4.158,8.945-8.167c.129-.1.258-.2.387-.307.416-.326.829-.652,1.246-.975a3.155,3.155,0,0,1,.113-.394c1.607-4.011,4.673-7.386,9.081-8.222a9.426,9.426,0,0,1,9.41,3.717c.8-.6,1.6-1.21,2.41-1.8.491-.358.991-.7,1.481-1.055q-1.757,1.684-3.514,3.379a12.171,12.171,0,0,1,.758,1.275c1.284,2.523-1.578,6.354-4.308,4.308a6.879,6.879,0,0,0-1.413-.813q-1.67,1.607-3.343,3.214c-.407.329-.813.655-1.22.984a1.137,1.137,0,0,0-1.617-.316Zm14.327,6.267q-5.678,5.818-11.294,11.7a1.91,1.91,0,0,0-1.8-.945q6.341-5.629,13.1-10.758Zm-6.935,16.786q-2.657,1.665-5.231,3.443c.516-.539,1.039-1.071,1.562-1.6,3.443-2.727,6.964-5.353,10.529-7.922-.165.165-.332.326-.494.494a.72.72,0,0,0-.184.387q-3.1,2.594-6.183,5.2Zm8.525,8.238c-.8.749-1.6,1.5-2.4,2.252a1.333,1.333,0,0,0-1.055.01,2.281,2.281,0,0,0-.265-.319L147.4,118.4q1.317-1.089,2.63-2.181a.573.573,0,0,0,.1-.055c.09-.077.174-.165.265-.245l1.136-.942c-.6.571-1.2,1.139-1.8,1.694q-4.7,4.351-9.387,8.722Zm6.815.245a1.621,1.621,0,0,0-1.075.032q1.215-1.549,2.472-3.049,1.641-1.568,3.282-3.137c.629-.6,1.275-1.207,1.923-1.81-.013.016-.029.032-.042.048-2.1,2.514-4.321,4.937-6.393,7.474a.748.748,0,0,0-.168.439Zm3.169,8.238a1.946,1.946,0,0,0-1.42-.423c.526-.516,1.052-1.029,1.578-1.546,1.423-1.249,2.882-2.481,4.382-3.672-.984,1.255-1.972,2.511-2.975,3.753-.513.636-1.042,1.262-1.565,1.891Zm11.31-5.557c-2.21,2.856-4.482,5.66-6.9,8.364-.478.536-.968,1.062-1.459,1.588a1.528,1.528,0,0,0-1.907-.2c.039-.048.077-.094.116-.142,1.636-1.713,3.314-3.385,5.031-5,1.652-1.552,3.359-3.108,5.115-4.608Z" transform="translate(-44.83 -47.106)" fill="#eac485"/>
  </g>
  <g id="Group_17186" data-name="Group 17186">
    <path id="Path_17901" data-name="Path 17901" d="M72.236,168.157a7.539,7.539,0,0,0-.016-1.655c-1.081-4.021-.3-7.9,1.107-11.63A51.023,51.023,0,0,0,76.3,138.44a42.041,42.041,0,0,1,.733-6.886,11.156,11.156,0,0,1,4.23-6.735c4.085-3.133,8.945-1.449,10.055,3.559a37.387,37.387,0,0,1,.536,5.46c.068.929.013,1.868.013,2.8.19.077.378.155.568.229,1.252-1.168,2.5-2.339,3.753-3.5,4.037-3.737,8.025-7.525,12.14-11.175a13.927,13.927,0,0,1,7.548-3.43c3.237-.423,6.741,1.475,7.735,4.372a23.058,23.058,0,0,1,.616,3.888c.584.035,1.217.094,1.852.107a31.892,31.892,0,0,1,3.472.052c4.15.536,7.464,4.195,5.86,9.035-.361,1.091-.916,2.117-1.471,3.379,3.066,1.068,5.521,2.827,5.55,6.418.029,3.359-2.072,5.7-4.492,8.07a5.956,5.956,0,0,1,1.568,5.844,8.579,8.579,0,0,1-3.895,5.57,71.348,71.348,0,0,1-8.706,4.527c-2.73,1.207-5.689,1.891-8.413,3.111a85.1,85.1,0,0,0-7.893,4.272,37.713,37.713,0,0,1-15.838,5.205c-5.279.449-10.074-1.142-13.543-5.563a35.6,35.6,0,0,0-2.494-2.817,1.843,1.843,0,0,0-1.191-.642c-1.723.158-2.933-.855-4.2-1.7-15.254-10.226-24.615-24.408-27.484-42.5S44.6,94.938,55.95,80.508A60.5,60.5,0,0,1,69.777,67.832a14.624,14.624,0,0,1,2.252-1.3,1.788,1.788,0,0,1,2.3.687,1.852,1.852,0,0,1-.145,2.41,9.023,9.023,0,0,1-1.826,1.407A58.319,58.319,0,0,0,57.3,153.871a54.813,54.813,0,0,0,14.934,14.3Zm15.337-34.173c.11-.013.223-.023.332-.035-.161-1.433-.232-2.885-.51-4.3-.468-2.388-2.081-2.888-3.976-1.3a6.776,6.776,0,0,0-2.407,4.189c-.342,2.185-.461,4.4-.7,6.6-.381,3.543-.578,7.125-1.239,10.613a75.416,75.416,0,0,1-2.5,8.306,14.42,14.42,0,0,0,2.5,13.659c.862,1.146,2.123,1.991,3,3.13,2.559,3.317,6.244,3.817,9.89,3.543a30.2,30.2,0,0,0,13.359-4.424,69.561,69.561,0,0,1,15.2-7.044,58.135,58.135,0,0,0,8.435-3.795,6.344,6.344,0,0,0,3.43-3.759,2.915,2.915,0,0,0-.336-2.1c-.468-.765-1.291-.578-2.068-.207-1.3.626-2.646,1.181-3.979,1.749-1.423.6-2.83,1.249-4.285,1.762-1.5.529-2.607.171-3.027-.813-.442-1.042,0-2.12,1.336-2.836,1.016-.545,2.136-.9,3.179-1.4a88.873,88.873,0,0,0,8.251-4.159,11.1,11.1,0,0,0,3.44-3.785c1.194-2.03.126-3.746-2.214-3.637a14.146,14.146,0,0,0-4.443,1.1c-2.959,1.178-5.844,2.533-8.761,3.814a12.062,12.062,0,0,1-1.333.568,2,2,0,0,1-2.646-1.065,1.9,1.9,0,0,1,.981-2.449c.807-.516,1.736-.845,2.578-1.31,2.7-1.484,5.421-2.93,8.061-4.514a9.447,9.447,0,0,0,4.192-4.663c.9-2.362-.168-4-2.691-4.26a11.337,11.337,0,0,0-7.2,1.73c-2.385,1.455-4.666,3.075-7.012,4.589a7.9,7.9,0,0,1-2.275,1.194,1.739,1.739,0,0,1-1.991-2.511,5.465,5.465,0,0,1,1.52-1.7c1.2-.975,2.514-1.8,3.692-2.8a32.7,32.7,0,0,0,3.556-3.388,3.33,3.33,0,0,0,.642-4.021,2.95,2.95,0,0,0-3.572-1.252,12.517,12.517,0,0,0-4.666,2.1c-4.24,3.643-8.258,7.545-12.395,11.31a32.168,32.168,0,0,1-4.866,4.056c-2.869,1.717-5.444.442-6.1-2.794a36.158,36.158,0,0,1-.381-3.708Z" transform="translate(-28.492 -44.941)" fill="#262c54"/>
    <path id="Path_17902" data-name="Path 17902" d="M137.443-.007c15.121.31,29.326,2.978,42.582,9.726a58.881,58.881,0,0,1,17.093,12.724A17.45,17.45,0,0,1,198.7,24.5a1.485,1.485,0,0,1-.265,2.094,3.027,3.027,0,0,1-2.1.449,3.336,3.336,0,0,1-1.584-1.168c-8.806-9.723-20.055-15.163-32.482-18.522a93.746,93.746,0,0,0-19.975-3.03,88.184,88.184,0,0,0-34.131,4.853,61.6,61.6,0,0,0-11.956,5.8,9.663,9.663,0,0,1-2.049,1.046,1.876,1.876,0,0,1-2.265-.836,1.714,1.714,0,0,1,.4-2.34,11.194,11.194,0,0,1,1.865-1.362,71.459,71.459,0,0,1,22.711-9.139A107.876,107.876,0,0,1,137.443-.01Z" transform="translate(-62.027 0.01)" fill="#262c54"/>
    <path id="Path_17903" data-name="Path 17903" d="M315.722,232.85c-1.239,4.947-2.269,9.958-3.759,14.828-4.008,13.095-11.6,23.853-21.988,32.685-6.393,5.437-14.008,8.442-21.982,10.62-2.6.71-5.282,1.094-7.928,1.61a6,6,0,0,1-1.439.116,2.167,2.167,0,0,1-2.246-1.83c-.074-.984.639-1.8,1.968-2.117,1.033-.242,2.094-.349,3.137-.542,12.052-2.233,22.866-6.854,31.372-16.054a69.09,69.09,0,0,0,17.354-33.489c.429-2.075.749-4.172,1.11-6.26a9.5,9.5,0,0,1,.155-1.146c.265-.878.729-1.6,1.778-1.623a1.985,1.985,0,0,1,2.056,1.681,6.851,6.851,0,0,1,.1,1.439l.316.087Z" transform="translate(-173.641 -155.539)" fill="#262c54"/>
    <path id="Path_17904" data-name="Path 17904" d="M129.328,155.118a69.88,69.88,0,0,1,7.754-3.4,10.282,10.282,0,0,1,9.155,1.278,8.957,8.957,0,0,1,1.881,1.765,1.67,1.67,0,0,1-.052,2.365,1.958,1.958,0,0,1-2.378.461,5.8,5.8,0,0,1-1.191-.81,7.289,7.289,0,0,0-7.144-.949,12.018,12.018,0,0,0-6.331,4.347c-1.642,2.3-4.266,2.036-5.208-.733a15.047,15.047,0,0,1-.687-5.967c.555-6.457,4.079-11.343,10.065-13.153a14.774,14.774,0,0,1,16.425,6.221,17.331,17.331,0,0,1,2.427,11.672c-.168,1.475-1.052,2.362-2.114,2.32s-1.839-1-1.891-2.485c-.045-1.349.084-2.711-.032-4.05a11.218,11.218,0,0,0-8.18-9.807,9.668,9.668,0,0,0-11.781,5.889,9.994,9.994,0,0,0-.716,5.031Z" transform="translate(-84.71 -94.643)" fill="#262c54"/>
    <path id="Path_17905" data-name="Path 17905" d="M281.8,155.06a14.04,14.04,0,0,0-2.653-6.008,6.343,6.343,0,0,0-8.132-1.484c-4.2,2.165-6.36,5.757-6.938,10.362-.107.858-.01,1.739-.09,2.6a1.983,1.983,0,0,1-1.762,1.985,1.9,1.9,0,0,1-2.117-1.9,23.735,23.735,0,0,1,.545-6.286,15.977,15.977,0,0,1,7.515-9.9c5-2.9,12.159-2.733,15.728,4.418a34.259,34.259,0,0,1,3.133,11.072,4.036,4.036,0,0,1-.339,1.962,1.879,1.879,0,0,1-3.269.587,10.841,10.841,0,0,1-.839-1.175,9.939,9.939,0,0,0-13.366-2.665,14.383,14.383,0,0,1-1.22.778c-.955.432-1.933.5-2.575-.487a2.067,2.067,0,0,1,.265-2.662,5.781,5.781,0,0,1,1.129-.9c3.969-2.653,8.158-3.327,12.627-1.349.678.3,1.355.6,2.359,1.042Z" transform="translate(-176.169 -96.63)" fill="#262c54"/>
    <path id="Path_17906" data-name="Path 17906" d="M145.1,427.657a82.291,82.291,0,0,1-35.086-7.609,89.182,89.182,0,0,1-9.413-5.641,5.718,5.718,0,0,1-1.981-2.062,2.32,2.32,0,0,1,.148-2.094,2.779,2.779,0,0,1,2.033-.568,2.9,2.9,0,0,1,1.478.842c5.95,5.086,13.069,7.8,20.436,9.913a76.123,76.123,0,0,0,25.183,3.088c3.166-.168,6.312-.713,9.468-1.071a19.042,19.042,0,0,1,2.3-.174,1.493,1.493,0,0,1,1.584,1.394,2.764,2.764,0,0,1-.791,1.946,5.232,5.232,0,0,1-2.133.787,50.23,50.23,0,0,1-13.23,1.246Z" transform="translate(-66.67 -277.477)" fill="#262c54"/>
    <path id="Path_17907" data-name="Path 17907" d="M377.39,120.577c0,.481.029.965-.006,1.446a1.775,1.775,0,0,1-1.523,1.836,1.983,1.983,0,0,1-2.262-1.388,2.581,2.581,0,0,1-.19-.839c-.4-6.531-3.078-12.288-6.163-17.88a54.854,54.854,0,0,0-7.712-10.807,25.08,25.08,0,0,0-7.157-5.789,6.1,6.1,0,0,1-1.217-.768,1.687,1.687,0,0,1-.51-2.307,1.863,1.863,0,0,1,2.175-1.029,10.8,10.8,0,0,1,2.123.9c3.617,1.82,6.367,4.682,8.909,7.716a63.6,63.6,0,0,1,12.136,21.856c.72,2.281,1.11,4.669,1.652,7.006-.084.016-.165.035-.248.052Z" transform="translate(-237.317 -56.204)" fill="#262c54"/>
    <path id="Path_17908" data-name="Path 17908" d="M188.874,34.45c2.859.3,5.731.578,8.6.9a4.689,4.689,0,0,1,1.646.449,1.682,1.682,0,0,1,.955,2.168,3.24,3.24,0,0,1-1.607,1.381,3.143,3.143,0,0,1-1.71-.01c-6.948-1.281-13.821-.494-20.665.755-2.93.536-5.9,1-8.548,2.514a3.2,3.2,0,0,1-1.094.339,1.869,1.869,0,0,1-1.633-3.295,10.183,10.183,0,0,1,3.017-1.646c3.433-.916,6.886-1.823,10.384-2.407s7.073-.781,10.662-1.149Z" transform="translate(-111.115 -23.33)" fill="#262c54"/>
    <path id="Path_17909" data-name="Path 17909" d="M14.653,306.044c.323-.387.72-1.271,1.359-1.517a2.355,2.355,0,0,1,1.968.642,6.863,6.863,0,0,1,1.236,2.239,64.277,64.277,0,0,0,8.993,15.734c1.513,1.862,3.22,3.566,4.827,5.353.707.787,1.41,1.575,2.059,2.407a1.712,1.712,0,0,1-.152,2.365,1.754,1.754,0,0,1-2.359.319,6.183,6.183,0,0,1-1.12-.9A64.236,64.236,0,0,1,15.25,308.416a11.131,11.131,0,0,1-.387-1.084c-.077-.274-.1-.568-.213-1.291Z" transform="translate(-9.919 -206.219)" fill="#262c54"/>
    <path id="Path_17910" data-name="Path 17910" d="M413.974,339.958a24.991,24.991,0,0,1-.978,2.411,44.8,44.8,0,0,1-8.506,11.585c-1.307,1.278-2.611,2.562-3.934,3.827a4.667,4.667,0,0,1-1.129.881,2.035,2.035,0,0,1-2.636-.361,1.872,1.872,0,0,1,.168-2.62,22.4,22.4,0,0,1,1.81-1.862c4.647-4.266,8.758-8.932,11.255-14.828a2.07,2.07,0,0,1,2.469-1.5c.936.194,1.542,1.113,1.484,2.465Z" transform="translate(-268.434 -228.546)" fill="#262c54"/>
    <path id="Path_17911" data-name="Path 17911" d="M453.08,142.537a12.427,12.427,0,0,1-.5,1.846,1.846,1.846,0,0,1-3.621-.449c-.081-.855-.016-1.723-.132-2.572a35.1,35.1,0,0,0-4.343-13.062,25.392,25.392,0,0,1-1.714-3.333,1.756,1.756,0,0,1,.694-2.285,1.91,1.91,0,0,1,2.4.252,4.19,4.19,0,0,1,.942,1.078,43.672,43.672,0,0,1,6.231,17.554c.023.19.023.384.052.971Z" transform="translate(-299.776 -82.874)" fill="#262c54"/>
    <path id="Path_17912" data-name="Path 17912" d="M.284,237.691c0-1.155-.058-2.314.016-3.462a1.853,1.853,0,0,1,1.872-1.846c1.139-.064,1.736.726,1.972,1.746a11.634,11.634,0,0,1,.129,1.72q.286,3.442.578,6.877c.016.19.058.381.071.574.126,1.61-.39,2.511-1.526,2.662a2.178,2.178,0,0,1-2.423-1.988c-.442-2.059-.665-4.166-.981-6.251l.29-.029Z" transform="translate(0.01 -157.389)" fill="#262c54"/>
    <path id="Path_17913" data-name="Path 17913" d="M302.85,53.852c-.878-.255-1.446-.371-1.972-.584q-2.8-1.133-5.583-2.336a3.807,3.807,0,0,1-1.194-.781,1.764,1.764,0,0,1-.287-2.365c.4-.516,1.433-1.1,1.9-.916,2.765,1.071,5.473,2.3,8.141,3.6a1.394,1.394,0,0,1,.468,2.033,7.07,7.07,0,0,1-1.471,1.346Z" transform="translate(-198.773 -31.719)" fill="#262c54"/>
    <path id="Path_17914" data-name="Path 17914" d="M466.1,222.036c.219-2.152.339-4.079.655-5.97a2.019,2.019,0,0,1,1.165-1.417,2.309,2.309,0,0,1,2,.536,5.654,5.654,0,0,1,.8,2.933,22.842,22.842,0,0,1-.636,4.279c-.352,1.7-1.233,2.491-2.423,2.339s-1.636-.994-1.565-2.7Z" transform="translate(-315.682 -145.355)" fill="#262c54"/>
  </g>
</svg>
