<svg id="_26" data-name="26" xmlns="http://www.w3.org/2000/svg" width="148.184" height="156.938" viewBox="0 0 148.184 156.938">
  <g id="Group_17187" data-name="Group 17187" transform="translate(12.098 16.368)">
    <path id="Path_17915" data-name="Path 17915" d="M79.3,316.423c-1.249,1.036-2.475,2.1-3.627,3.233-.61.6.161,1.484.878,1.136,1.158-.558,2.281-1.181,3.395-1.823q-.353-1.258-.645-2.549Z" transform="translate(-63.202 -230.684)" fill="#eac485"/>
    <path id="Path_17916" data-name="Path 17916" d="M66.887,290.707c1.426-.778,2.811-1.63,4.182-2.5a2.088,2.088,0,0,0,.345.552.318.318,0,0,0-.006-.055c-.126-1.452-.194-2.907-.216-4.363-1.249.952-2.481,1.923-3.685,2.927a.909.909,0,0,0-.762.345c-.4.452-.787.91-1.217,1.336a1.127,1.127,0,0,0,1.362,1.762Z" transform="translate(-56.255 -208.956)" fill="#eac485"/>
    <path id="Path_17917" data-name="Path 17917" d="M66.226,300.46c-.52.371-1.042.739-1.562,1.11a63.051,63.051,0,0,0-6.973,5.46c-.787.755.21,1.83,1.1,1.423a61.416,61.416,0,0,0,7.932-4.553c-.207-1.123-.374-2.272-.5-3.44Z" transform="translate(-50.976 -219.874)" fill="#eac485"/>
    <path id="Path_17918" data-name="Path 17918" d="M82.841,335.06l-4.1,2.769c-1.478,1-.132,3.385,1.413,2.42,1.262-.787,2.517-1.588,3.779-2.381-.384-.926-.752-1.862-1.091-2.807Z" transform="translate(-64.993 -243.309)" fill="#eac485"/>
    <path id="Path_17919" data-name="Path 17919" d="M364.219,198.719q1.922-1.35,3.846-2.7c0-.442-.006-.878-.013-1.307a2.956,2.956,0,0,1-.507-1.71,1.618,1.618,0,0,0-.926.213q-7.478,4.095-14.957,8.193a1.733,1.733,0,0,0-.707-.6q7.411-5.092,14.847-10.145a1.514,1.514,0,0,0-1.526-2.614q-6.452,3.277-12.84,6.7c-.016-.026-.026-.052-.042-.074.355-.216.71-.439,1.065-.655q6.322-3.853,12.682-7.645a1.616,1.616,0,0,0-1.63-2.788q-6.428,3.713-12.872,7.4a1.674,1.674,0,0,0-1.375-1.317q1.486-.978,2.972-1.952c4.45-2.911,8.906-5.808,13.4-8.651,1.778-1.126.232-3.527-1.607-2.746-4.921,2.091-9.748,4.376-14.5,6.8a1.759,1.759,0,0,0,.136-1.323q5.862-3.9,11.74-7.783c1.7-1.113.181-3.775-1.6-2.74q-6.413,3.722-12.846,7.412c4.856,18.242,1.949,37.329-4.876,54.9-.135.361-.284.72-.429,1.081q5.174-3.921,10.307-7.9s.006,0,.01-.006h0c.1-.081.207-.158.31-.239a1.431,1.431,0,0,0-.355-2.369q5.47-4.139,10.926-8.3c1.381-1.049.532-3.179-.9-3.04l2.662-1.917a2.8,2.8,0,0,1-.074-1.784c.255-.862.529-1.717.794-2.575a1.806,1.806,0,0,0-.632.226q-7.236,4.148-14.457,8.332a1.577,1.577,0,0,0-1.478.177l-.762.484c5.879-4.737,11.746-9.487,17.677-14.156,1.349-1.062-.016-3.088-1.468-2.888Z" transform="translate(-243.498 -132.219)" fill="#eac485"/>
    <path id="Path_17920" data-name="Path 17920" d="M158.425,83.809c-.145.081-.29.165-.436.248a1.494,1.494,0,0,0-2.21-.7q-3.65,2.212-7.29,4.443a1.939,1.939,0,0,0-1.655-2.556,1.446,1.446,0,0,0,.145-.136c1.713-1.171,3.433-2.336,5.118-3.546,1.484-1.065,3.8-2.269,4.627-3.953a.971.971,0,0,0-.829-1.446,8.138,8.138,0,0,0-3.717,1.6,1.64,1.64,0,0,0-2-.136c-11.33,6.828-22.663,13.669-33.853,20.73l-4.947,3.03c2.052-1.665,4.088-3.346,6.157-5,.574-.461.039-1.307-.581-1.294q6.975-4.54,14.053-8.909,9.11-5.629,18.3-11.113a1.705,1.705,0,0,0-1.72-2.943q-4.535,2.454-9.032,4.976L148.6,70.924a1.782,1.782,0,0,0-1.8-3.075c-12.262,7.08-24.541,14.176-36.6,21.607a.788.788,0,0,0-.865-.084c-2.343,1.239-4.618,2.575-6.857,3.963,7.59-5.131,15.3-10.094,23.047-14.96,6.292-3.953,12.62-7.851,18.942-11.756a1.862,1.862,0,0,0-1.878-3.214q-10.552,5.968-20.926,12.24,8.9-5.886,17.835-11.707c1.859-1.217.168-4.179-1.752-3L83.08,94.493c11.61-8.177,23.514-15.951,35.512-23.531q9.274-5.862,18.6-11.636a1.728,1.728,0,0,0-1.743-2.982q-6.036,3.17-12,6.47,3.79-2.362,7.609-4.676a1.8,1.8,0,0,0-1.817-3.1q-11.9,6.839-23.379,14.379c.684-.484,1.359-.978,2.046-1.455q7.357-5.131,14.937-9.936c1.952-1.239.148-4.356-1.82-3.111q-14.879,9.4-29.32,19.468c1.052-.787,2.1-1.584,3.156-2.365q7.3-5.378,14.8-10.481a1.72,1.72,0,0,0,.778-1.459c.9-.71,1.794-1.413,2.688-2.13,1.491-1.194,2.988-2.4,4.418-3.669.594-.529,2.872-2.481,1.317-3.3-1.433-.752-3.043.881-4.127,1.691-1.446,1.081-2.885,2.168-4.308,3.275q-3.9,3.035-7.725,6.157-12.628,8.722-25.27,17.432,3.412-2.953,6.825-5.912,6.138-4.308,12.346-8.509,6.636-4.5,13.3-8.942c1.9-1.275.132-4.369-1.81-3.1Q96.775,60.478,85.465,67.894q4.763-3.926,9.6-7.767a1.371,1.371,0,0,0,.168-1.991q3.214-2.348,6.476-4.634a1.485,1.485,0,0,0-1.5-2.562q-12.72,6.965-25.057,14.6,6.409-5.329,12.8-10.678c1.246-1.046-.352-2.982-1.7-2.207A194.588,194.588,0,0,0,55.6,74.409c-1.026.887.455,2.333,1.481,1.481q5.489-4.574,11.307-8.719-8.306,6.8-16.583,13.643c-1.352,1.117.432,3.453,1.888,2.446q10.533-7.3,21.4-14.1-8.848,5.949-17.416,12.3a98.889,98.889,0,0,0-10.862,8.309c-1.581,1.394.691,3.533,2.275,2.275.868-.691,1.746-1.365,2.62-2.046a2.044,2.044,0,0,0,.319.716,1.915,1.915,0,0,0,1,1.307c-1,.942-2,1.885-3,2.836-.413.342-.836.671-1.249,1.016a1.554,1.554,0,0,0-.461.636c-.874.842-1.752,1.681-2.62,2.53-1.642,1.607.742,3.772,2.449,2.449l2.333-1.81a1.724,1.724,0,0,0,2.54.952q2.822-1.941,5.634-3.892c-.616.542-1.239,1.078-1.852,1.623q-6.854,6.109-13.476,12.472c-1.691,1.623.778,3.947,2.523,2.523q7.019-5.712,14.173-11.249a76.435,76.435,0,0,1,3.3-7.948,2.622,2.622,0,0,1,2.01-1.572,3.207,3.207,0,0,1,1.4-.716,2.324,2.324,0,0,1,1.426-.058,2.791,2.791,0,0,1,2.449,2.895,3.277,3.277,0,0,1-.035,1.188c-.4,9.823-1.794,19.532-.407,29.349.7,4.94,1.607,9.845,2.688,14.718.232.6.455,1.207.694,1.807,1.3-.984,2.591-1.975,3.895-2.953C76.21,140,75,141.2,73.8,142.4c.652,1.636,1.323,3.262,2,4.889q2.377-1.588,4.76-3.169c-1.5,1.329-2.959,2.711-4.347,4.159q.76,1.825,1.523,3.646c.539-.6,1.084-1.194,1.652-1.772a1.249,1.249,0,0,0,.781-.223c2.165-1.581,4.276-3.246,6.373-4.934a1.619,1.619,0,0,0,.49-.223c4.753-3.2,9.584-6.28,14.415-9.361a61.65,61.65,0,0,0-11.646.92c-1.765.339-3.459.784-5.182,1.039-.155.1-.31.207-.465.307-.387.255-.771.51-1.158.762.374-.339.758-.671,1.136-1.007a15.477,15.477,0,0,1-2.9.11c-1.517-.1-3.379-1.384-3.149-3.149a14.24,14.24,0,0,1,2.191-6.092c-.713.465-1.426.933-2.139,1.4.762-.549,1.533-1.084,2.3-1.626a13.882,13.882,0,0,1,4.3-4,3.216,3.216,0,0,1,1.32-2.356,21.9,21.9,0,0,1,9.332-4.082q8.824-6.017,17.8-11.8a.822.822,0,0,0,.687.4q-3.33,2.227-6.641,4.485-5.131,3.345-10.262,6.7c10.82-1.152,22.214,5.473,28.671,14.318a3.154,3.154,0,0,1,1.184,2.427v.236a3.111,3.111,0,0,1-4.8,2.591c-6.309-1.7-13.059-1.552-19.561-1.575-3.633,2.72-7.193,5.544-10.629,8.522l-6.476,4.443c-2.317,1.591-4.666,3.269-7.135,4.692,1.026,2.472,2.026,4.953,2.972,7.457q4.521-3.533,9.051-7.06,7.309-5.349,14.618-10.7c-2.769,2.233-5.515,4.5-8.2,6.828-4.44,3.853-8.758,7.848-12.866,12.053-1.365,1.4.432,3.956,2.152,2.791q.779-.528,1.559-1.049c-.436,1.426,1.136,3.13,2.662,2.165q9.642-6.1,19.281-12.2c-.561.484-1.12.971-1.672,1.471a73.074,73.074,0,0,0-8.458,8.99c-1.081,1.371.148,3.672,1.843,2.93,0,0-.006.006-.01.006a1.638,1.638,0,0,0-.507.987,5.251,5.251,0,0,1,2.394-.5,6.938,6.938,0,0,1,4.211,1.681q8.287-6.283,16.528-12.624c1.313-2.346,2.707-4.653,4.056-7.019a48.154,48.154,0,0,0,5.634-17.312,132.7,132.7,0,0,0,1.039-28.994q-2.948,1.689-5.889,3.382c1.946-1.329,3.9-2.64,5.857-3.956q-.363-4.952-1.046-9.842a3.542,3.542,0,0,1,4.147-3.885,3.4,3.4,0,0,1,4.773,1.736q1.05,2.749,1.839,5.531c.6-.4,1.2-.8,1.807-1.194q2.018-1.321,4.03-2.646c1.643-.9,3.279-1.81,4.873-2.794a.952.952,0,0,0,.449-.694c1.42-.933,2.836-1.865,4.263-2.791a1.165,1.165,0,0,0-1.175-2.01Zm-54.893,64.722c2.269-1.891,4.569-3.74,6.889-5.57a1.752,1.752,0,0,0,.278.355c-1.655,1.223-3.3,2.456-4.931,3.717-.745.5-1.491,1-2.236,1.494Zm18.7.62c-.429.274-.858.545-1.284.82.52-.607,1.039-1.21,1.559-1.817A1.381,1.381,0,0,0,122.232,149.15Zm.545-1.281a1.889,1.889,0,0,0-.2.2c.384-.449.771-.9,1.155-1.346,1.233-.884,2.475-1.755,3.711-2.63-1.559,1.258-3.127,2.5-4.673,3.779Zm7.377-12.992c-.136.158-.271.319-.41.478q-7.6,5.242-15.2,10.5a1.849,1.849,0,0,0-.168.142q-3.471,2.178-6.944,4.36,1.684-1.326,3.391-2.62,9.657-6.438,19.323-12.856Z" transform="translate(-41.06 -50.73)" fill="#eac485"/>
    <path id="Path_17921" data-name="Path 17921" d="M53.235,249.23q-2.231,1.747-4.443,3.521c-1.926,1.552-3.866,3.1-5.747,4.708a34.224,34.224,0,0,0-5.408,5.353c-.542.726.468,1.423,1.12,1.12,3.985-1.849,7.448-5.024,10.933-7.664l1.294-.978c0,.016,0,.032-.006.048-.271.21-.549.413-.82.626-2,1.546-3.969,3.133-5.931,4.727a25.856,25.856,0,0,0-5.444,5.2.683.683,0,0,0,.765.994,23.166,23.166,0,0,0,5.389-3.32c1.788-1.323,3.592-2.623,5.386-3.937q1.046-.765,2.1-1.53a66.987,66.987,0,0,1,.81-8.868Z" transform="translate(-37.482 -185.176)" fill="#eac485"/>
    <path id="Path_17922" data-name="Path 17922" d="M51.5,223.541c-1.736,1.407-3.976,2.969-4.969,5.034a.75.75,0,0,0,.836,1.087c2.168-.5,4.088-2.217,5.841-3.521q1.176-.876,2.356-1.749a1.62,1.62,0,0,0,1.8.052c.655-.407,1.313-.81,1.972-1.217A72.479,72.479,0,0,1,62.4,211.04c-1.052.984-2.107,1.965-3.143,2.966a1.656,1.656,0,0,0,.752,2.853c-.975.745-1.956,1.488-2.924,2.236-1.881,1.455-3.734,2.946-5.579,4.443Z" transform="translate(-43.556 -159.309)" fill="#eac485"/>
    <path id="Path_17923" data-name="Path 17923" d="M173.6,190.821q-2.89,1.941-5.792,3.853c1.6-2.649,3.153-5.334,4.76-7.961a1.316,1.316,0,0,0-1.788-1.788c-1.152.707-2.31,1.4-3.466,2.107q1.849-2.749,3.717-5.486c.82-1.2-.781-2.7-1.962-1.962-.084.052-.168.1-.248.155.552-.72,1.094-1.449,1.655-2.159.839-1.058-.194-2.723-1.52-1.972-.084.048-.168.1-.255.145a1.176,1.176,0,0,0-1.762-.781c-.268.148-.542.284-.813.429A.941.941,0,0,0,164.6,174.4c-1.087,1.191-2.159,2.394-3.269,3.563a1.234,1.234,0,0,0,1.488,1.93c.032-.016.065-.035.1-.052a1.287,1.287,0,0,0,1.581,1.271q-1.186,1.457-2.369,2.907c-.952,1.168.239,3.078,1.7,2.207.323-.194.639-.394.958-.587q-1.912,2.788-3.834,5.573c-.852,1.236.81,2.782,2.027,2.027,1.31-.813,2.6-1.665,3.885-2.523-1.694,2.594-3.375,5.205-4.9,7.883-.655,1.149.739,2.82,1.943,1.943,1.229-.9,2.481-1.768,3.73-2.643-.048.058-.1.116-.145.177-1.888,2.365-3.811,4.7-5.608,7.141-.791,1.068.2,2.11,1.258,2.185q-1.7,1.743-3.469,3.417a1.562,1.562,0,0,0,2.207,2.207c.868-.852,1.759-1.665,2.669-2.452-2.256,2.753-4.518,5.5-6.689,8.319a1.49,1.49,0,0,0,.387,1.939,1.536,1.536,0,0,0,1.975-.116q2.653-2.072,5.3-4.15a92.32,92.32,0,0,1-7.415,7.451,1.433,1.433,0,0,0,.81,2.462q-.905.905-1.814,1.8a1.516,1.516,0,0,0,1.213,2.572c-.326.319-.665.626-1,.942a79.1,79.1,0,0,0-6.822,5.986c-1.459,1.442.684,3.462,2.21,2.21q4.008-3.282,7.677-6.925c.474-.384.942-.774,1.426-1.142.842-.645,1.7-1.265,2.582-1.868-5.712,6.044-11.911,11.578-18.148,17.128-1.346,1.091.468,3.482,1.872,2.427.106-.081.2-.165.31-.245h0s.029-.023.042-.035c.313-.239.616-.49.926-.732q-1.844,1.786-3.688,3.575a1.59,1.59,0,0,0-.358.507,1.348,1.348,0,0,0-1.681-.145c-1.191.755-2.365,1.533-3.533,2.32.29-1.22-1.029-2.63-2.31-1.788l-7.606,5c.984-1.058,1.965-2.117,2.956-3.169a1.525,1.525,0,0,0-1.488-2.514c.074-.09.155-.174.229-.261a1.543,1.543,0,0,0-2.181-2.181l-3.672,3a1.541,1.541,0,0,0-2.172-.662c-.274.152-.539.326-.81.481.019-.019.039-.039.058-.061,1.184-1.229-.387-3.5-1.894-2.452q-3.151,2.2-6.3,4.4c.168-.19.336-.387.5-.578a1.416,1.416,0,0,0-2-2q-.736.571-1.465,1.142c.52-.574,1.036-1.155,1.555-1.726a1.315,1.315,0,0,0-1.859-1.859c-.6.523-1.22,1.036-1.826,1.552a1.39,1.39,0,0,0-2.343-1.249c-2.02,1.985-4.095,3.921-6.183,5.844v-.029c1.92-2.452,3.688-5.028,5.347-7.6a1.213,1.213,0,0,0-.158-1.549q1.713-2.415,3.43-4.827c.958-1.346-1.12-2.846-2.243-1.73-1.281,1.271-2.578,2.527-3.866,3.788q1.258-2.435,2.3-4.986c.458-1.12-1.113-2.278-2.075-1.594a80.316,80.316,0,0,0-6.4,5.082c1.475-2.856,2.953-5.712,4.489-8.535A1.383,1.383,0,0,0,100,232.118l-.952.826q1.583-2.909,2.924-5.931c.6-1.352-1.029-2.959-2.2-1.7-.139.148-.278.294-.416.442.319-.7.632-1.4.933-2.107.542-1.291-1.381-2.21-2.256-1.313-.829.852-1.655,1.7-2.488,2.552q1.442-2.623,2.895-5.244a1.46,1.46,0,0,0-2.285-1.762c-.578.578-1.152,1.155-1.73,1.736.849-1.442,1.691-2.888,2.549-4.327a1.5,1.5,0,0,0-1.788-2.139q1.568-2.444,3.137-4.889c.891-1.394-1.194-3.049-2.314-1.791A1.5,1.5,0,0,0,94.026,206c1.275-2.139,2.556-4.272,3.9-6.367.778-1.21-1.039-2.646-2.01-1.552-.019.023-.042.045-.061.068a1.619,1.619,0,0,0-1-.742c.1-.145.2-.294.3-.439a1.487,1.487,0,0,0-1.42-2.243c.733-1.084,1.475-2.165,2.23-3.233.723-1.023-.39-2.081-1.4-1.926l.194-.268a1.291,1.291,0,0,0-.674-2.062q1.864-2.222,3.727-4.443a1.5,1.5,0,0,0-1.63-2.433c.174-.219.339-.445.523-.658a1.474,1.474,0,0,0-.261-2.156c.065-.071.129-.142.19-.216a1.354,1.354,0,0,0-1.914-1.914c-2.023,1.92-4.021,3.834-5.925,5.87a1.643,1.643,0,0,0,.829,2.662q-1.573,2.033-3.143,4.072c-.8,1.036.077,2.017,1.107,2.185q-1.278,1.51-2.552,3.02a1.528,1.528,0,0,0,1.255,2.582q-1.418,1.97-2.836,3.937c-.916,1.275.765,2.665,1.975,2.085q-.673.929-1.342,1.859A1.511,1.511,0,0,0,85.424,206c-.336.49-.665.981-1,1.471a1.4,1.4,0,0,0,.849,2.159q-.847,1.263-1.7,2.527c-.9,1.346,1.058,2.975,2.21,1.981a1.464,1.464,0,0,0,1.175,1.775q-1.283,1.834-2.569,3.666c-.807,1.152.662,2.517,1.772,2.078-.058.09-.116.177-.171.268-.936,1.455,1.152,2.978,2.352,1.814.077-.074.152-.148.229-.223q-1.52,2.527-3.027,5.063a1.548,1.548,0,0,0,2.42,1.868q1.394-1.433,2.788-2.862-1.476,2.667-2.966,5.324c-.81,1.442,1.149,3.059,2.336,1.8,1.013-1.071,2.017-2.152,3.027-3.23-.871,1.31-1.794,2.582-2.772,3.8-1.123,1.4.723,3.382,2.02,2.02.449-.471.887-.952,1.333-1.423-.987,1.5-2,2.982-3.075,4.437s1.168,2.946,2.385,1.839q1.52-1.379,3.04-2.762c-1.094,2.033-2.194,4.066-3.285,6.1a5.046,5.046,0,0,1,2.314,3.262,77.372,77.372,0,0,1,5.86-5.5,54.011,54.011,0,0,1-5.808,8.6,12.552,12.552,0,0,1-2.156,5.215,1.333,1.333,0,0,0,1.659-.239l2.4-2.362c-.852,1.162-1.688,2.333-2.475,3.537.013.006.026.016.039.023a1.47,1.47,0,0,0-.119.39c-2.162,1.626-4.311,3.272-6.325,5.044-1.155,1.016.323,2.611,1.536,1.988,0,.006.01.013.013.019,1.029-.713,2.039-1.465,3.04-2.233h0c-.31.4-.616.807-.926,1.207a1.244,1.244,0,0,0,1.759,1.759c.855-.771,1.707-1.549,2.559-2.323a1.519,1.519,0,0,0,1.481.875,1.537,1.537,0,0,0,2.572,1.207q1.684-1.4,3.4-2.765c-.152,1.236,1.078,2.578,2.349,1.681l3.595-2.54c-.148.155-.3.307-.445.461a1.6,1.6,0,0,0,2.256,2.256c.9-.8,1.83-1.562,2.762-2.317a1.5,1.5,0,0,0,.816,2.462,1.62,1.62,0,0,0,2.6,1.765c.542-.5,1.107-.978,1.655-1.468-.742,1.246.652,3.062,2.062,2.146l5.921-3.853c-1.6,1.626-3.208,3.243-4.808,4.869-1.42,1.439.723,3.55,2.207,2.207,1.075-.971,2.181-1.9,3.282-2.84-.471,1.223.939,2.84,2.217,1.93q1.713-1.22,3.43-2.44c-.219,1.191,1.142,2.536,2.375,1.72q4.1-2.72,8.193-5.457c-1.333,1.291-2.659,2.588-3.995,3.876-1.43,1.378.681,3.408,2.152,2.152,2.2-1.872,4.456-3.666,6.744-5.421a1.62,1.62,0,0,0,2.34,1.071q3.5-2.043,7-4.082a1.646,1.646,0,0,0,2.359,1.833l4.059-2.375a1.683,1.683,0,0,0,1.917,1.116c.707-.132,1.413-.268,2.123-.4,1.533-.281,1.365-2.156.29-2.807.207-.345.413-.694.616-1.039a1.6,1.6,0,0,0-2.165-2.165c-.684.4-1.368.8-2.056,1.2a1.651,1.651,0,0,0-2.365-1.846l-.248.145q.561-.508,1.123-1.02a1.574,1.574,0,0,0-1.242-2.649c.074-.094.139-.2.216-.287.939-1.12-.19-2.972-1.575-2.262q.823-1.1,1.655-2.194a1.2,1.2,0,0,0-.329-1.707q1.752-1.815,3.479-3.656a1.372,1.372,0,0,0-1.655-2.146q-1.515.886-3.02,1.785,3.258-3.267,6.48-6.567c.952-.978-.3-2.759-1.5-1.949-.2.136-.407.271-.613.407q3.33-3.761,6.483-7.635a1.362,1.362,0,0,0-1.643-2.13c-.816.449-1.63.913-2.436,1.384q2.1-2.565,4.043-5.25c.7-.968-.081-1.9-1.02-2.072q1.568-2.028,3.072-4.1a1.289,1.289,0,0,0-.962-2.014c.245-.365.494-.726.733-1.094.9-1.384-.994-2.481-2.1-1.62-1.662,1.291-3.343,2.549-5.031,3.8,1.862-2.43,3.727-4.856,5.67-7.225a1.387,1.387,0,0,0-1.307-2.3q1.471-1.83,2.885-3.708h0c.071-.1.148-.187.219-.284,1.029-1.375-1.068-2.611-2.2-1.7-.148.119-.3.242-.445.361,1.071-1.491,2.136-2.988,3.269-4.431.784-1-.223-2.782-1.491-1.933Zm-28.916,64.87c.274-.268.545-.536.82-.8a1.372,1.372,0,0,0,.342-.52,1.859,1.859,0,0,0,.361.232Zm6.635-3.85a1.408,1.408,0,0,0-.4-.132c1.065-.907,2.143-1.8,3.243-2.665q-1.418,1.4-2.84,2.8Z" transform="translate(-68.438 -134.304)" fill="#abd0f2"/>
    <path id="Path_17924" data-name="Path 17924" d="M196.458,280.481l-.6.39a1.518,1.518,0,0,0-2.162-.678h0a5.19,5.19,0,0,0-1.342-.971,5.683,5.683,0,0,0-6.428,1.068,1.664,1.664,0,0,0-1.868-1.268,1.564,1.564,0,0,0-2.152-2.039q-1.505.712-2.991,1.452c.236-1.175-.994-2.5-2.223-1.681-.9.6-1.8,1.2-2.714,1.791a1.5,1.5,0,0,0-2.256-1.3c-1.113.713-2.236,1.41-3.353,2.117a1.443,1.443,0,0,0-2.414-1.042c-.355.329-.72.645-1.087.962.1-1.058-1-2.21-2.036-1.417q-2.478,1.9-4.966,3.779a1.177,1.177,0,0,0-1.949-.236c-1.7,1.83-3.35,3.708-5,5.579-1,1.133.361,3.272,1.73,2.24.5-.378.991-.762,1.488-1.142a1.464,1.464,0,0,0,2.136.778c.165-.1.316-.207.481-.3a1.5,1.5,0,0,0,2.133.539q2.43-1.588,4.876-3.162a1.522,1.522,0,0,0,2.372,1.194c.823-.581,1.659-1.149,2.5-1.714a1.6,1.6,0,0,0,2.472,1.313q1.917-1.38,3.921-2.652a1.681,1.681,0,0,0,2.456,1.82c.716-.4,1.439-.781,2.156-1.171a1.7,1.7,0,0,0,2.456,1.539c.868-.445,1.749-.874,2.627-1.3-.048.077-.1.152-.152.229-.9,1.43.842,2.946,2.217,2.217,1.407-.749,2.8-1.52,4.211-2.278a1.827,1.827,0,0,0,.31.813,1.727,1.727,0,0,0,1.252,2.017,5.367,5.367,0,0,0,5.044-1.707,1.914,1.914,0,0,0,.255-1.981c.31-.494.616-.991.926-1.484a1.7,1.7,0,0,0-2.3-2.3Z" transform="translate(-114.072 -203.645)" fill="#ba8b54"/>
  </g>
  <g id="Group_17188" data-name="Group 17188">
    <path id="Path_17925" data-name="Path 17925" d="M137.168,230.208a50.712,50.712,0,0,0,7.17-7.887c.723-.907,1.352-1.888,2.114-2.759a2.287,2.287,0,0,1,3.1-.542,2.076,2.076,0,0,1,.142,2.888c-1.136,1.675-2.417,3.253-3.672,4.844A65.052,65.052,0,0,1,134.68,237.9c-3.111,2.407-3.059,4.024.213,6.46a2.566,2.566,0,0,0,.394.171,14.984,14.984,0,0,1,1.681-2.065,13.734,13.734,0,0,1,2.223-1.349c5.886-3.453,10.3-8.406,14.089-13.96a79.642,79.642,0,0,0,13.24-34.567c1.042-7.632,1.075-15.205-1.339-22.634a4.722,4.722,0,0,1-.336-1.4,1.746,1.746,0,0,1,1.465-1.888,2.809,2.809,0,0,1,2.02.681,5.19,5.19,0,0,1,.939,2.075c2.362,7.131,2.359,14.492,1.588,21.8a83.59,83.59,0,0,1-9.084,29.736,68.964,68.964,0,0,1-12.007,16.967,39.8,39.8,0,0,1-9.381,7.219c-.407.223-.784.5-1.426.907.907.681,1.665,1.2,2.372,1.788,3.5,2.888,3.127,6.747-.884,8.88-2.891,1.539-6.1,1.717-9.277,1.959s-6.367.345-9.523.745a20.141,20.141,0,0,0-8.1,2.969c-3.53,2.185-7.073,4.385-11.22,5.27a42.2,42.2,0,0,1-4.55.829,14.539,14.539,0,0,1-11.707-3.963,13.053,13.053,0,0,0-9.11-3.856,41.378,41.378,0,0,0-6.315.729c-4.472.749-8.909,1.739-13.5,1.446a10.04,10.04,0,0,1-5.2-1.539c-2.423-1.652-2.849-4.289-.852-6.441a13.855,13.855,0,0,1,3.485-2.517c1.517-.839,3.185-1.391,4.731-2.185,1.565-.8,1.836-1.436,1.455-3.027-.607-2.53-1.32-5.034-1.881-7.57-.368-1.662-1.549-2.614-2.736-3.6a61.977,61.977,0,0,1-12.453-14.415c-4.5-7.031-6.954-14.815-8.319-22.982a74.594,74.594,0,0,1-1.136-16.144,53.493,53.493,0,0,1,.6-5.46,3.036,3.036,0,0,1,.862-1.759,2.282,2.282,0,0,1,1.817-.452,2.314,2.314,0,0,1,1.246,1.365,4.275,4.275,0,0,1,0,2,53.63,53.63,0,0,0,.045,15.579c.958,7.809,2.724,15.389,6.451,22.4a40.44,40.44,0,0,0,6.528,9.258,79.844,79.844,0,0,1,1.02-50.133c-.8.668-1.22,1.036-1.662,1.384a1.92,1.92,0,0,1-2.417.174,1.968,1.968,0,0,1-.532-2.607,7.58,7.58,0,0,1,1.317-1.881,18.806,18.806,0,0,1,7.051-4.963c5.37-2.243,10.907-3.259,16.683-1.894a14.741,14.741,0,0,1,3.253,1.178c1.342.681,1.723,1.791,1.184,2.843-.507.987-1.365,1.268-2.733.858-1.107-.332-2.188-.765-3.308-1.026-1.988-.461-2.152-.394-2.966,1.288a32.071,32.071,0,0,0-3.195,11.355q-.247,2.885-.52,5.763a2.207,2.207,0,0,1-.236,1.113c-.407.494-.962,1.21-1.452,1.207a2.79,2.79,0,0,1-1.868-1.01,2.893,2.893,0,0,1-.439-1.914c.426-4.989.6-10.029,2.52-14.766.323-.794.616-1.6.978-2.543-2.2-.671-3.824.5-5.45,1-.545,1.5-.958,2.872-1.536,4.176a63.317,63.317,0,0,0-4.824,19.878,70.386,70.386,0,0,0,1.823,24.121c.849,3.35,2.214,6.57,3.379,9.836a3.649,3.649,0,0,0,.862,1.494c2.869,2.553,3.5,6.112,4.392,9.552.484,1.865.823,3.769,1.368,5.612,1.249,4.214.313,6.557-3.63,8.548-1.378.7-2.843,1.213-4.237,1.881-.833.4-1.81.691-2.2,1.8.991,1.075,2.249,1.062,3.485,1.12,4.095.184,8.048-.807,12.052-1.43,3.327-.516,6.641-1.162,10.058-.465a14.913,14.913,0,0,1,6.567,2.846c.981.784,1.956,1.575,2.943,2.349a10.931,10.931,0,0,0,8.713,2.256,27.233,27.233,0,0,0,10.768-4.034c3.44-2.2,7.006-4.143,11.1-4.76,2.762-.416,5.56-.607,8.342-.868,2.4-.226,4.815-.339,7.206-.649,1.41-.184,2.875-.471,3.795-1.846-.342-1.346-1.52-1.684-2.507-2.21-1.533-.816-3.162-1.478-4.614-2.414a7.976,7.976,0,0,1-3.682-9.229,40.623,40.623,0,0,1,2.223-5.6c.755-1.772,1.7-3.469,2.349-5.276a110.109,110.109,0,0,0,5.015-17.209c.226-1.229.323-2.482.487-3.724a19.751,19.751,0,0,1,.3-2A1.8,1.8,0,0,1,140.837,203a1.858,1.858,0,0,1,1.968,1.739,7.386,7.386,0,0,1,.032,2c-.632,6.783-2.733,13.2-4.892,19.61-.394,1.171-.826,2.33-1.239,3.492.152.123.3.242.452.365Z" transform="translate(-23.132 -111.641)" fill="#262c54"/>
    <path id="Path_17926" data-name="Path 17926" d="M186.416,168.988a18.075,18.075,0,0,0-8.022,1.955,6.629,6.629,0,0,1-2.678.891,1.623,1.623,0,0,1-1.326-2.662,10.233,10.233,0,0,1,3.22-2.359,23.728,23.728,0,0,1,13.03-1.778,24.268,24.268,0,0,1,9.849,3.166,16.307,16.307,0,0,1,2.759,2.094c2.03,1.943,1.923,3-.478,4.966,2.107,6.367,1.943,13.014,1.694,19.662a16.926,16.926,0,0,1-.484,3.13,1.738,1.738,0,0,1-1.865,1.484c-1.175-.039-1.688-.816-1.907-1.836a4.1,4.1,0,0,1,.026-1.139c.413-5.205.668-10.42-.345-15.573-.61-3.111-1.549-6.16-2.411-9.219a1.723,1.723,0,0,0-.962-.987c-1.707-.584-3.453-1.062-5.476-1.665a12.928,12.928,0,0,0,.5,4.573,55.079,55.079,0,0,1,1.907,20.346c-1.01,12.23-3.643,23.989-10.049,34.7-2.872,4.8-5.331,9.842-8.093,14.708a20.891,20.891,0,0,1-3.424,4.618c-2.52,2.462-5.3,2.517-8.112.439a33.7,33.7,0,0,1-2.653-2.243,4.413,4.413,0,0,0-5.057-.92,67.072,67.072,0,0,1-7.373,2.52c-3.943,1.065-7.112-.907-10.174-3a3.254,3.254,0,0,1-.82-1.181A131.656,131.656,0,0,1,125.2,211.706a13.741,13.741,0,0,1-.51-2.546,1.816,1.816,0,0,1,1.294-2.027,1.9,1.9,0,0,1,2.436,1.016,11.792,11.792,0,0,1,.678,2.2,118.3,118.3,0,0,0,9.348,25.783A41.818,41.818,0,0,0,142,241.746a5.522,5.522,0,0,0,5.905,2.107,34.753,34.753,0,0,0,4.4-1.375c1.091-.378,2.139-.881,3.233-1.258a7.517,7.517,0,0,1,7.6,1.41c.826.668,1.562,1.449,2.4,2.091,1.914,1.462,3.32,1.236,4.566-.755,1.226-1.959,2.443-3.93,3.556-5.957,2.93-5.328,5.854-10.662,8.68-16.044,3.13-5.957,4.756-12.417,5.9-18.994a82.733,82.733,0,0,0,1.32-14.97,45.029,45.029,0,0,0-1.2-10.029c-.687-2.895-1.268-5.818-1.952-8.987Z" transform="translate(-84.449 -111.629)" fill="#262c54"/>
    <path id="Path_17927" data-name="Path 17927" d="M222.185,102.507a48.827,48.827,0,0,1-2.72,18.19,34.508,34.508,0,0,1-2.281,4.982,1.864,1.864,0,0,1-2.52.8c-1.091-.468-1.181-1.452-.945-2.456a9.778,9.778,0,0,1,.645-1.607,50.45,50.45,0,0,0,3.559-26.057A86.972,86.972,0,0,0,211.8,72.933c-5.479-13.488-15.308-22.2-29.139-26.525a69.5,69.5,0,0,0-19.319-3.346c-11.614-.248-22.285,2.975-32.237,8.813-.749.439-1.475.923-2.262,1.284a1.771,1.771,0,0,1-2.288-.694,1.642,1.642,0,0,1,.2-2.349,10.977,10.977,0,0,1,2.026-1.62,65.341,65.341,0,0,1,25.467-8.984,67.153,67.153,0,0,1,37.739,6.241C202.437,50.67,209.917,58.7,214.651,69.2a91.264,91.264,0,0,1,7.5,27.516,52.406,52.406,0,0,1,.029,5.786Z" transform="translate(-85.442 -26.396)" fill="#262c54"/>
    <path id="Path_17928" data-name="Path 17928" d="M174.639,260.119a74.305,74.305,0,0,0-20.8,2.888c-2.207.6-3.572,1.707-4,3.976a3.2,3.2,0,0,1-.8,1.794,3.161,3.161,0,0,1-2.043.632,1.446,1.446,0,0,1-1.255-1.681,12.185,12.185,0,0,1,.416-2.549c1.936-6.948,6.48-11.391,13.137-14,12.307-4.811,27.571-.884,36.112,9.287,1.684,2,3.153,4.163,3.211,6.964.071,3.43-1.762,5.663-5.169,5.605a44.506,44.506,0,0,1-8.3-1.036c-5.037-1.052-10.087-1.927-15.225-1.32-4.976.587-9.923,1.423-14.866,2.259-2.136.361-3.033.248-3.469-.923-.5-1.333.207-2.523,2.3-2.995,3.285-.742,6.631-1.233,9.965-1.755,1.9-.3,3.83-.471,5.75-.668,6.641-.681,13.069.72,19.507,2.017a19.365,19.365,0,0,0,3.73.387c1.323.006,1.762-.574,1.646-1.791a7.472,7.472,0,0,0-4.847-5.5,55.131,55.131,0,0,0-14.989-1.6Zm-18.2-2.388c8.584-1.826,17.238-1.9,25.912-1.707C173.406,252.006,164.723,252.158,156.443,257.731Z" transform="translate(-98.7 -168.748)" fill="#262c54"/>
    <path id="Path_17929" data-name="Path 17929" d="M-.007,95.313A59.54,59.54,0,0,1,5.514,72.592,87.325,87.325,0,0,1,27.367,42.649c2.162-1.914,4.55-3.569,6.851-5.324a9.3,9.3,0,0,1,1.488-.881,1.757,1.757,0,0,1,2.33.513,1.846,1.846,0,0,1-.042,2.414,10.989,10.989,0,0,1-2,1.633A81.128,81.128,0,0,0,6.715,80.995,43.625,43.625,0,0,0,4.153,97.471c.019.384.006.771.006,1.158a1.939,1.939,0,0,1-1.591,2.114,2.034,2.034,0,0,1-2.239-1.8,32.315,32.315,0,0,1-.339-3.63Z" transform="translate(0.01 -24.526)" fill="#262c54"/>
    <path id="Path_17930" data-name="Path 17930" d="M105.2,103.691c4.411.374,8.029-1.826,11.7-3.695,3.5-1.784,7.109-3.446,9.932-6.328a1.786,1.786,0,0,1,2.378-.281,1.847,1.847,0,0,1,.645,2.549,8.028,8.028,0,0,1-2.272,2.536,53.57,53.57,0,0,1-5.631,3.5c-2.623,1.417-5.337,2.665-8.006,4-3.011,1.5-6.315,1.633-9.555,1.907a6.527,6.527,0,0,1-3.22-.987,1.6,1.6,0,0,1-.632-2.265,2.805,2.805,0,0,1,1.791-1.1,13.46,13.46,0,0,1,2.866.155Z" transform="translate(-67.932 -63.031)" fill="#262c54"/>
    <path id="Path_17931" data-name="Path 17931" d="M280.524,105.053a77.123,77.123,0,0,1-7.59-2.117c-4.624-1.772-8.632-4.64-12.5-7.69a17.529,17.529,0,0,1-2.246-2.239,6.475,6.475,0,0,1-1.091-1.684,2.063,2.063,0,0,1,.726-2.788,1.749,1.749,0,0,1,2.514.639c2.672,3.727,6.6,5.886,10.371,8.151,3.734,2.246,7.761,3.869,12.32,3.185a1.7,1.7,0,0,1,1.113.068c.574.439,1.352.981,1.446,1.578a2.158,2.158,0,0,1-.939,1.833,25.315,25.315,0,0,1-4.134,1.065Z" transform="translate(-173.965 -59.762)" fill="#262c54"/>
    <path id="Path_17932" data-name="Path 17932" d="M170.527,2.3a4.877,4.877,0,0,1-1.236,1.378,6.83,6.83,0,0,1-2.485.687,55.935,55.935,0,0,0-17.619,5.244c-.345.168-.745.481-1.058.416a4.575,4.575,0,0,1-2-.787,1.416,1.416,0,0,1-.026-2.091,7.719,7.719,0,0,1,2.265-1.707A64.508,64.508,0,0,1,164.9.462c1.046-.171,2.088-.371,3.143-.449a2.221,2.221,0,0,1,2.485,2.294Z" transform="translate(-98.648 -0.006)" fill="#262c54"/>
    <path id="Path_17933" data-name="Path 17933" d="M37.03,346.35a9.282,9.282,0,0,1,1.359,1.229c2.407,3.011,4.689,6.125,7.173,9.068,1.484,1.759,3.3,3.233,4.876,4.918a5.316,5.316,0,0,1,1.433,2.375,1.66,1.66,0,0,1-2.41,1.814A5.683,5.683,0,0,1,48,364.83a69.547,69.547,0,0,1-12.417-14.06,6.1,6.1,0,0,1-.949-2.091c-.274-1.22.723-2.336,2.391-2.33Z" transform="translate(-23.425 -234.588)" fill="#262c54"/>
    <path id="Path_17934" data-name="Path 17934" d="M45.663,140.044a21.4,21.4,0,0,1,1.139-3.656c1.826-3.6,3.792-7.141,5.737-10.684a6.757,6.757,0,0,1,1.258-1.568,1.883,1.883,0,0,1,2.62-.232,1.989,1.989,0,0,1,.545,2.369,6.826,6.826,0,0,1-.684,1.258c-1.707,3.014-3.456,6.008-5.1,9.058a20.07,20.07,0,0,0-1.165,3.243,13.83,13.83,0,0,0-.339,1.4,1.975,1.975,0,0,1-1.988,1.749,2.226,2.226,0,0,1-1.965-2.149c-.026-.19-.035-.381-.068-.781Z" transform="translate(-30.923 -83.634)" fill="#262c54"/>
    <path id="Path_17935" data-name="Path 17935" d="M415.068,97.543c-.355.42-.726,1.242-1.3,1.42a2.636,2.636,0,0,1-2.062-.468,5.764,5.764,0,0,1-1.184-1.926c-1.168-2.2-2.314-4.408-3.472-6.609-.045-.084-.11-.158-.158-.239-.955-1.591-.936-2.93.052-3.617,1.016-.71,2.275-.358,3.269,1.342,1.594,2.72,2.975,5.57,4.414,8.38a9.608,9.608,0,0,1,.442,1.723Z" transform="translate(-275.114 -58.086)" fill="#262c54"/>
    <path id="Path_17936" data-name="Path 17936" d="M254.9,1.43c1.12.207,2.465.361,3.759.716a1.892,1.892,0,0,1,1.546,2.388,1.9,1.9,0,0,1-2.175,1.484c-2.01-.055-4.021-.094-6.028-.207a2.169,2.169,0,0,1-2.31-1.781c-.148-1.178.478-1.894,2.107-2.227.939-.194,1.91-.232,3.1-.368Z" transform="translate(-169.104 -0.97)" fill="#262c54"/>
    <path id="Path_17937" data-name="Path 17937" d="M88.474,93.185c-1.455-.019-2.272-.894-2.068-2.078a2.978,2.978,0,0,1,.678-1.562c1.578-1.539,3.195-3.053,4.9-4.453a1.726,1.726,0,0,1,2.588.236,1.849,1.849,0,0,1-.019,2.633c-1.6,1.659-3.279,3.243-4.976,4.8a2.774,2.774,0,0,1-1.1.42Z" transform="translate(-58.499 -57.313)" fill="#262c54"/>
    <path id="Path_17938" data-name="Path 17938" d="M122.332,259.67c-.048,1.078.106,1.746-.142,2.194-.332.6-.926,1.349-1.5,1.433s-1.723-.449-1.833-.9a33.841,33.841,0,0,1-.923-6.144,1.524,1.524,0,0,1,1.83-1.423,2.511,2.511,0,0,1,1.733,1.152,23.115,23.115,0,0,1,.829,3.692Z" transform="translate(-79.875 -172.581)" fill="#262c54"/>
  </g>
</svg>
