<svg id="_27" data-name="27" xmlns="http://www.w3.org/2000/svg" width="154.052" height="153.762" viewBox="0 0 154.052 153.762">
  <g id="Group_17190" data-name="Group 17190" transform="translate(13.741 19.177)">
    <path id="Path_17939" data-name="Path 17939" d="M176.63,339.461a8.374,8.374,0,0,0-9.2-1.63,1.7,1.7,0,0,0-.1,2.769,8.345,8.345,0,0,0-.955,4.4c-.01,1.946-.042,3.892-.068,5.837a27.028,27.028,0,0,0,.081,5.644,3.6,3.6,0,0,0,4.056,3c2.062-.41,2.914-2.31,3.037-4.224a53.306,53.306,0,0,0-.087-6.422c-.039-.691-.077-1.4-.119-2.107a1.012,1.012,0,0,0,.161-.171q.779,1.331,1.562,2.665a2.341,2.341,0,0,0,4.23-.552,9.584,9.584,0,0,0-2.582-9.219Z" transform="translate(-126.298 -247.487)" fill="#abd0f2"/>
    <path id="Path_17940" data-name="Path 17940" d="M308.1,205.175a9.294,9.294,0,0,0-.9-.361l-.239-.1c-.326-.165-.671-.3-1-.458-.694-.342-1.365-.723-2.026-1.123-.642-.387-1.255-.81-1.862-1.249a7.8,7.8,0,0,0-2.217-1.249,1.331,1.331,0,0,0-1.626,1.626c.581,1.781,2.317,3,3.766,4.063a19.715,19.715,0,0,0,2.01,1.271,13.893,13.893,0,0,0,2.546,1.226,2,2,0,0,0,1.539-3.656Z" transform="translate(-215.699 -155.034)" fill="#75757c"/>
    <path id="Path_17941" data-name="Path 17941" d="M150.8,202.136a4.307,4.307,0,0,1-.494-.139,3.94,3.94,0,0,0-3.253-.119c-1.11.407-2.2.862-3.272,1.355a14.365,14.365,0,0,0-2.669,1.546c-.865.649-2.4,1.681-2.239,2.936a1.121,1.121,0,0,0,.826,1.136l.119.029-.048-.029c.9.342,1.959-.174,2.833-.526,1.058-.426,2.091-.9,3.13-1.378.226-.1.455-.207.684-.307.019-.01.139-.058.2-.084l.158-.065c.461-.187.929-.365,1.4-.532a5.112,5.112,0,0,0,1.9-1,3.809,3.809,0,0,0,.839-1.055,2.47,2.47,0,0,1,.274-.278.9.9,0,0,0-.394-1.488Z" transform="translate(-107.792 -155.712)" fill="#75757c"/>
    <path id="Path_17942" data-name="Path 17942" d="M203.348,305.521c-3.1,2.181-6.209,4.35-9.306,6.534q1.38-1.563,2.762-3.124c.778-.874-.284-2.53-1.336-1.73-.658.5-1.313,1.01-1.972,1.513.116-.123.236-.245.352-.371a1.285,1.285,0,0,0-1.817-1.817q-2.043,1.815-4.172,3.514l1.488-1.439c1.191-1.152-.539-2.746-1.772-1.772-1.775,1.4-3.579,2.765-5.4,4.108.09-.084.181-.171.274-.255.981-.9-.323-2.662-1.446-1.875l-.307.213a1.3,1.3,0,0,0-1.923-1.2l-2.553,1.626a1.135,1.135,0,0,0-1.6-.858q-1.471.779-2.94,1.562a1.308,1.308,0,0,0-1.843-1.575c-.261.142-.52.284-.781.423.039-.794-.749-1.681-1.6-1.352-.755.29-1.51.574-2.269.862a1.224,1.224,0,0,0-1.7-1.113c-.858.413-1.733.8-2.6,1.2l.006-.006c1.133-.923-.326-2.736-1.546-2a47.055,47.055,0,0,1-4.811,2.514,1.489,1.489,0,0,0-1.233-1.246,1.226,1.226,0,0,0-1.694-.52c-.055.032-.11.058-.165.094a.884.884,0,0,0-1.078-.432,13.75,13.75,0,0,0-5.8,3.269,1.219,1.219,0,0,0,.991,2.065c-.223.181-.442.365-.668.542-1.1.874.313,2.614,1.484,1.923.636-.374,1.278-.745,1.917-1.12a1.271,1.271,0,0,0,1.326.355c.816-.258,1.617-.555,2.414-.862a1.286,1.286,0,0,0,1.807,1.207q1.81-.847,3.617-1.717a1.119,1.119,0,0,0,1.542,1.023c.513-.184,1.023-.378,1.533-.571q-1.108.891-2.214,1.784c-1.136.913.313,2.6,1.507,1.952,1.113-.6,2.23-1.2,3.346-1.8a1.239,1.239,0,0,0,1.768,1.423c.349-.194.7-.394,1.046-.591-.187.161-.378.319-.565.484-1.091.958.329,2.794,1.552,2.014.084-.055.168-.107.255-.161l-1.339,1.21c-1.052.949.352,2.83,1.536,1.991l.881-.629a1.241,1.241,0,0,0,1.8,1.352c1.572-.984,3.127-1.994,4.673-3.017a1.289,1.289,0,0,0,1.594,1.972q2.285-1.346,4.5-2.8c-.226.239-.455.478-.681.716-1.146,1.207.539,2.765,1.781,1.781,1.223-.968,2.443-1.943,3.666-2.911-.161.177-.326.355-.487.532-.891.974.29,2.762,1.484,1.923,2.094-1.475,4.169-2.978,6.244-4.479a1.126,1.126,0,0,0,1.681,1.068c.242-.161.481-.339.72-.507-.171.258-.345.513-.513.774-.584.9.787,1.994,1.507,1.165a90.432,90.432,0,0,1,7.361-7.8.952.952,0,0,0-.739-1.584c.6-.568,1.191-1.142,1.791-1.707.9-.845-.3-2.481-1.346-1.746Z" transform="translate(-111.399 -225.983)" fill="#ba8b54"/>
    <g id="Group_17189" data-name="Group 17189">
      <path id="Path_17943" data-name="Path 17943" d="M158.718,384.054l.055-.039a13.655,13.655,0,0,1,.006-1.41c.052-.878.1-1.739.145-2.585-.642.6-1.281,1.2-1.926,1.8a1.424,1.424,0,0,0,1.72,2.227Z" transform="translate(-119.793 -276.568)" fill="#eac485"/>
      <path id="Path_17944" data-name="Path 17944" d="M320.27,284.693c5.628-3.9,11.372-7.641,17.122-11.333,4.272-2.743,8.571-5.441,12.872-8.135,1.494-.936.119-3.308-1.384-2.369-5.886,3.559-11.752,7.141-17.535,10.842q-5.087,3.127-10.184,6.231a5.615,5.615,0,0,1-.2,3.253,8.886,8.886,0,0,1-.684,1.51Z" transform="translate(-230.66 -197.066)" fill="#eac485"/>
      <path id="Path_17945" data-name="Path 17945" d="M140.282,364.63c.549-.429,1.091-.871,1.633-1.307.058-1.213.09-2.394.058-3.546-.035.029-.071.055-.106.084a1.347,1.347,0,0,0-.507-.068c.2-.187.4-.368.594-.555a19.937,19.937,0,0,0-.442-3.508c-3.317,3.175-6.573,6.415-9.719,9.758-.845.9-.016,2.82,1.32,2.268a33.975,33.975,0,0,0,5.608-2.978,1.307,1.307,0,0,0,1.555-.148Z" transform="translate(-102.771 -260.116)" fill="#eac485"/>
      <path id="Path_17946" data-name="Path 17946" d="M150.95,400.824c-1.307,1.152.365,3.179,1.823,2.362,1.271-.713,2.456-1.568,3.7-2.333a6.174,6.174,0,0,1-1.642-3.433q-1.941,1.7-3.876,3.4Z" transform="translate(-115.658 -288.353)" fill="#eac485"/>
      <path id="Path_17947" data-name="Path 17947" d="M253.091,277.281c-2.966.733-5.434,3.3-7.754,5.166-.839.674-1.688,1.336-2.536,2a1.478,1.478,0,0,0-.926.177,251.792,251.792,0,0,0-21.523,13.088,16.366,16.366,0,0,1-2.246,1.53q-1.375.949-2.736,1.91-3.388,2.091-6.793,4.153c1.781-1.433,3.592-2.827,5.418-4.2a43.794,43.794,0,0,1-5.089,1.442,85.162,85.162,0,0,1-12.369,1.936c-4.153.3-8.2-.994-10.829,2.937a26.862,26.862,0,0,0-3.327,7.67c-.7,2.33-1.891,4.585-4.479,5.176-.071.016-.136.019-.2.032-.21.207-.429.4-.629.613-1.146,1.2.349,3.346,1.833,2.375,1.875-1.226,3.785-2.394,5.705-3.553-1.488,1.278-2.956,2.572-4.353,3.924-1.146,1.1.358,3.156,1.73,2.243,3.233-2.152,6.531-4.237,9.858-6.276-.1.09-.21.177-.316.268a1.211,1.211,0,0,0-.042,1.775,1.469,1.469,0,0,0,2.143.813q2.265-1.258,4.537-2.514a17.2,17.2,0,0,0-.845,2.991,1.5,1.5,0,0,0,1.43,1.875c1.633,0,2.436-.807,3.272-2.056.5-.755-.336-1.455-1.033-1.271.071-.232.148-.461.213-.7a1.278,1.278,0,0,0,1.752.361q11.075-7.193,22.579-13.808-9.768,6.675-19.51,13.388c-1.4.958-.142,3.2,1.346,2.3,2.017-1.22,4.014-2.469,6.012-3.721-1.63,1.3-3.266,2.6-4.947,3.837-1.2.884-.035,2.92,1.184,2.026,3.569-2.62,7.332-4.986,10.959-7.535a105.167,105.167,0,0,0,9.164-5.215c3.437-2.21,6.676-4.66,9.884-7.186.868-.684-.252-2.088-1.175-1.52-.642.394-1.275.8-1.914,1.2a1.61,1.61,0,0,0-.529-.942c5.308-3.579,10.607-7.177,15.857-10.839a1.433,1.433,0,0,0-1.446-2.472c-8.254,4.492-16.515,8.961-24.647,13.676q-2.88,1.67-5.744,3.362c8.651-6.238,17.632-12.017,26.648-17.787a1.478,1.478,0,0,0,.481-2.046c.316-.219.636-.429.949-.649,1.252-.881,3.02-1.894,3.44-3.475a.528.528,0,0,0-.5-.658,3.449,3.449,0,0,0-1.568.248c1.791-1.53,3.543-3.253,4.289-5.408a.539.539,0,0,0-.658-.658Zm-60.766,34.483q-.862.552-1.723,1.11c.339-.287.668-.584,1.007-.871,1.681-1.41,3.395-2.778,5.128-4.13a1.684,1.684,0,0,0,.536.552c-1.63,1.136-3.269,2.262-4.944,3.34Zm9.471,6.777c.11-.419.219-.842.339-1.249a1.306,1.306,0,0,0,0-.739c2.085-1.255,4.166-2.52,6.254-3.772q-3.374,2.788-6.586,5.757Zm7.044-9.119q6.075-4.531,12.382-8.735a.761.761,0,0,0,1.071.468c.19-.081.378-.171.568-.252Q215.853,305.167,208.841,309.421Z" transform="translate(-133.394 -206.976)" fill="#eac485"/>
      <path id="Path_17948" data-name="Path 17948" d="M163.568,97.547q-4.347,2.764-8.7,5.505a.611.611,0,0,0-.887-.707c-.355.187-.829.252-1.207.41-.536.223-1.049.526-1.562.794-.887.461-1.755.952-2.627,1.449-.258.145-.51.3-.768.445-.055.029-.11.065-.165.094q-2.241,1.288-4.472,2.591c-2.127,1.242-4.237,2.517-6.351,3.779q2.517-1.878,5.021-3.775c3.291-2.239,6.612-4.447,9.926-6.647a.993.993,0,0,0,.287-1.4c.8-.652,1.61-1.294,2.411-1.949a1.3,1.3,0,0,0,.061-1.975c.887-.581,1.781-1.152,2.665-1.736,1.4-.926.11-3.185-1.326-2.269q-2.594,1.655-5.186,3.317a.836.836,0,0,0-.929-1.1c-2.107.461-4.05,1.872-5.9,2.94l-.081.048c.671-.594,1.355-1.175,2.007-1.788.632-.6,1.258-1.2,1.872-1.817,1.217-.949,2.433-1.891,3.627-2.869a19.84,19.84,0,0,0,4.26-4.05.667.667,0,0,0-.745-.971,10.746,10.746,0,0,0-2.556,1.258.611.611,0,0,0-.394-.035c.929-.791,1.843-1.594,2.727-2.43a.505.505,0,0,0-.61-.791c-2.088,1.191-4.108,2.511-6.1,3.885a1.2,1.2,0,0,0-1.8-.574c-6.4,3.808-12.662,7.819-18.858,11.943q3.059-2.483,6.118-4.96c5.328-4.321,10.636-8.661,15.983-12.959,1.139-.916-.361-2.872-1.572-2.036-1.084.749-2.162,1.513-3.243,2.269a1.776,1.776,0,0,0-.268-.49c.965-.678,1.917-1.371,2.888-2.043.561-.387.045-1.3-.539-.923q-1.791,1.147-3.579,2.3a1.359,1.359,0,0,0-.7.194Q124.888,90.9,108.379,102.643q11.6-9.666,23.647-18.771c4.666-3.517,9.387-6.964,14.118-10.391,1.5-1.087.1-3.6-1.478-2.53q-8.2,5.542-16.241,11.284c.3-.236.6-.465.9-.7,1.023-.739,2.03-1.5,2.988-2.317,1.772-1.378,3.54-2.762,5.321-4.124,1.026-.784.074-2.549-1.042-1.781-6.238,4.3-12.327,8.829-18.293,13.511q-4.671,3.229-9.274,6.551-9.531,6.873-18.735,14.2a1.766,1.766,0,0,0-.278.145q-8.393,5.518-16.425,11.559c-1.765,1.194-3.546,2.365-5.324,3.537Q75.719,116.3,83.6,110.3c-1.526.8-3.095,1.523-4.582,2.394-3.508,2.059-6.673-3.388-3.179-5.437,1.968-1.155,4.076-2.046,6.047-3.2a2.871,2.871,0,0,1,3.656.468l3.456-2.9a1.193,1.193,0,0,0,.39-1.246q2.594-1.805,5.192-3.608c-.29.258-.587.51-.878.768-2.633,2.375-5.35,4.786-7.838,7.367a3.026,3.026,0,0,1-.807,4.589c-.416.245-.842.471-1.268.7a1.452,1.452,0,0,0,1.5-.3c3.24-2.749,6.712-5.192,10.11-7.738q5.044-3.775,10.029-7.619,10.005-7.706,19.826-15.644c1.313-1.068,2.614-2.152,3.917-3.237,2.562-1.981,5.111-3.979,7.557-6.089l-.029-.029c.958-1.142-.271-3.149-1.672-2.175-1.765,1.226-3.488,2.514-5.2,3.821a1.41,1.41,0,0,0-1.872-.823c.213-.216.432-.423.645-.639a5.355,5.355,0,0,0,1.678-2.4.647.647,0,0,0-.784-.784,5.115,5.115,0,0,0-2.343,1.494c-.765.684-1.513,1.394-2.252,2.107q-2.212,2.144-4.379,4.337c-1.442,1.459-2.869,2.936-4.289,4.418Q102.4,88.93,88.446,98.809q12.125-9.923,24.2-19.91,6.98-5.76,13.96-11.517a1.1,1.1,0,0,0,.339-1.288c.82-.933-.578-2.659-1.681-1.849q-4.08,3-8.116,6.06-2.8,1.839-5.557,3.746c2.343-1.975,4.669-3.966,6.957-5.992,1.046-.926-.381-2.84-1.517-1.965-6.7,5.153-13.676,9.974-20.513,14.944-1.471,1.068-2.953,2.123-4.427,3.185,7.735-6.37,15.541-12.666,23.124-19.21,1.133-.978-.319-2.749-1.572-2.036q-5.537,3.17-10.878,6.615c3.6-2.836,7.186-5.7,10.684-8.661.742-.629-.252-1.943-1.049-1.359-4.36,3.178-8.616,6.505-12.856,9.852,2.049-1.855,4.088-3.724,6.092-5.615.823-.778-.29-2.31-1.239-1.607-.71.526-1.426,1.036-2.149,1.546.658-1-.642-2.607-1.736-1.788-4,3-8.054,5.918-12.094,8.858q2.381-1.922,4.76-3.846l-.026-.026a1.422,1.422,0,0,0-.045-1.8,23.06,23.06,0,0,0,3.437-3.388c.426-.552-.371-1.152-.884-.884a31.27,31.27,0,0,0-4.989,3.711c-1.7,1.384-3.375,2.814-5.031,4.256-2.956,2.578-5.873,5.2-8.793,7.816q-3.514,2.715-7.035,5.424c4.6-4.585,9.174-9.184,13.672-13.863.894-.933-.429-2.181-1.391-1.391q-4.41,3.611-8.822,7.219c1.213-1.236,2.417-2.485,3.6-3.753a.63.63,0,0,0-.891-.891c-8.306,6.715-16.015,14.124-23.808,21.42-1.139,1.065.52,2.633,1.684,1.684,2.433-1.988,4.763-4.111,7.131-6.173,1.952-1.7,4-3.3,6.041-4.9-4.9,4.821-9.781,9.655-14.724,14.424a1.424,1.424,0,0,0,.8,2.323c-2.659,2.546-5.3,5.115-7.877,7.741a1.484,1.484,0,0,0,2.1,2.1q3.63-3.33,7.325-6.586a1.576,1.576,0,0,0,1.307,1.875q-5.387,3.95-10.378,8.422c-.955.858.307,2.54,1.388,1.8.574-.394,1.158-.774,1.736-1.165a1.309,1.309,0,0,0,.784.584c-.662.652-1.329,1.3-1.985,1.955-.794.8.4,1.959,1.226,1.223,5.676-5.031,11.53-9.907,17.47-14.631-.939.794-1.885,1.578-2.814,2.381a1.463,1.463,0,0,0,.181,2.227c-6.993,6.415-13.95,12.869-20.743,19.494-.72.7.255,2.065,1.107,1.436,2.882-2.13,5.818-4.182,8.774-6.212q-2.014,1.878-3.985,3.8a1.384,1.384,0,0,0,1.668,2.165c4.663-2.4,9.181-5.034,13.614-7.816q-6.568,5.547-13.114,11.12c-1.126.965.378,2.956,1.6,2.075,1.465-1.052,2.933-2.094,4.4-3.14-1.194,1.113-2.385,2.236-3.556,3.375a1.562,1.562,0,0,0,.9,2.6c-1.258,1.1-2.517,2.214-3.756,3.337-1.255,1.136.41,3.366,1.833,2.375Q62.8,133.423,73.257,126.1,64.3,134.644,55.38,143.221a1.32,1.32,0,0,0,.216,2.165c-.626.6-1.258,1.2-1.881,1.814-1.094,1.075.329,3,1.662,2.152q7.875-5.024,15.512-10.4-6.012,5.731-12.02,11.465a1.441,1.441,0,0,0,1.442,2.365c-.345.31-.691.616-1.036.926-1.239,1.117.432,3.369,1.814,2.349q2.817-2.077,5.631-4.163Q64.861,153.531,63,155.17c-1.258,1.11.416,3.337,1.814,2.352.684-.484,1.365-.971,2.049-1.455-.755.762-1.513,1.517-2.256,2.291-1.107,1.152.326,3.166,1.749,2.265,1.794-1.133,3.566-2.3,5.347-3.446q-2.43,1.9-4.834,3.827c-1.236,1,.42,3.175,1.713,2.22.313-.232.629-.458.945-.687a1.371,1.371,0,0,0,1.317-.229q4.342-3.412,8.7-6.815c.539-.361,1.084-.716,1.626-1.075a13.648,13.648,0,0,0-2.62-5.131c-.4.265-.794.536-1.191.8.355-.319.72-.626,1.078-.942a16.011,16.011,0,0,0-1.268-1.378,3.165,3.165,0,0,1-.891-2.452,4.05,4.05,0,0,1-.629-2.746c.31-1.955,1.452-2.782,3.266-3.266a2.921,2.921,0,0,1,2.433.342,36.144,36.144,0,0,1,6.525.574c.416.055.833.094,1.246.142.975-.745,1.949-1.491,2.94-2.22l5.725-4.088a1.5,1.5,0,0,0,.613-.92q1.956-1.288,3.908-2.582c.232-.155.465-.307.7-.461-.4.371-.8.732-1.2,1.11a1.206,1.206,0,0,0-.29,1.52c-1.107.81-2.223,1.607-3.379,2.33a.91.91,0,0,0-.4,1.087c-2.12,1.5-4.263,2.978-6.4,4.46,2.469.226,4.94.352,7.422.429a1.5,1.5,0,0,0-.484-.2q3.746-2.928,7.49-5.854a1.09,1.09,0,0,0,.361-1.236l.755-.61c-.694,1.162.487,2.93,1.839,2.026q2.895-1.931,5.812-3.83-3.175,2.43-6.305,4.927-2.962,2.367-5.863,4.808c7.812-.248,15.273-2.743,23.095-2.9,3.243-.065,6.641,1.171,7.541,3.866q6.9-4.724,14.034-9.11,5.857-3.582,11.856-6.925c1.875-1.046.223-3.814-1.672-2.862-1.417.713-2.817,1.455-4.208,2.21.639-.371,1.275-.745,1.894-1.142a45.674,45.674,0,0,0,4.372-3.211q1.108-.915,2.133-1.917a11.915,11.915,0,0,0,.868-.936c.352-.423.555-.929.929-1.329.545-.584-.261-1.336-.858-.858a11.751,11.751,0,0,1-1.239.671c-.4.248-.781.539-1.155.823-.716.545-1.439,1.084-2.156,1.63-1.217.929-2.456,1.833-3.695,2.733a1.382,1.382,0,0,0-1.407.023q-9.976,5.615-19.745,11.575,6.181-4.042,12.488-7.883c5.228-3.185,10.407-6.457,15.728-9.484,1.578-.9.194-3.172-1.407-2.407a335.833,335.833,0,0,0-31.585,17.535q8.737-6.234,17.8-12.017,6.791-4.327,13.74-8.4a1.4,1.4,0,0,0-1.413-2.42q-5.939,3.393-11.81,6.9,4.569-2.972,9.171-5.892a1.569,1.569,0,0,0-1-2.872q5.082-3.4,10.174-6.78c1.326-.881.106-3.02-1.258-2.156Zm-82.912-10.4c.265-.194.536-.387.8-.584,3.508-2.6,7.009-5.234,10.639-7.667,2.833-1.9,5.7-3.763,8.6-5.57-3.908,3.178-7.8,6.376-11.707,9.548a1.139,1.139,0,0,0-1.5-.1c-3.427,2.249-6.783,4.6-10.107,7q1.641-1.312,3.282-2.62ZM63.7,97.909a.762.762,0,0,0-.177.245q-1.486.939-2.946,1.92c.639-.561,1.278-1.126,1.92-1.681l5.67-4.9.642-.555c-1.7,1.662-3.382,3.333-5.1,4.973Zm12.453-.274q4.685-3.325,9.371-6.654c1.6-1.139,3.22-2.252,4.827-3.382-7.222,5.96-14.408,11.962-21.246,18.364a.706.706,0,0,0-.045.952c-1.01.781-2.027,1.555-3.024,2.352l-1.51,1.075c-3.143,2.233-6.273,4.5-9.413,6.741,7.07-6.418,14.047-12.943,21.036-19.449ZM61.463,117.261c-.891.558-1.781,1.113-2.682,1.659a225.439,225.439,0,0,1,18.752-15.012l.116-.081c-.955.778-1.914,1.555-2.865,2.336-4.469,3.666-8.89,7.383-13.321,11.094Zm18.994,6.121a1.408,1.408,0,0,0,.461-.274c.268-.236.542-.465.81-.7a1.237,1.237,0,0,0-.106.539q-1.955,1.505-3.895,3.04,1.365-1.3,2.727-2.607Zm5.05,1.391q-8.524,6.6-17.38,12.75,4.182-3.684,8.5-7.215,5.91-4.618,11.83-9.219a1.083,1.083,0,0,0,.316-1.32q1.205-1.084,2.4-2.181c1.2-.945,2.394-1.894,3.6-2.824,3.766-2.9,7.632-5.67,11.52-8.4.239-.168.478-.329.716-.5-3.082,2.449-6.138,4.924-9.155,7.454-2.11,1.768-4.221,3.537-6.276,5.366a64.766,64.766,0,0,0-6.076,6.086Zm6.034,3.537c-.407.348-.81.7-1.217,1.052a1.319,1.319,0,0,0-.071-.449c.1-.077.2-.152.294-.229,4.266-3.4,8.545-6.786,12.791-10.21.474-.332.945-.668,1.42-1q-6.709,5.286-13.214,10.833Zm14.034-7.493-4.024,2.943c1.062-.871,2.114-1.752,3.188-2.614,1.246-1,2.507-1.975,3.766-2.962a.709.709,0,0,0,.171.155c-1.036.823-2.075,1.642-3.1,2.475Zm33.466,12.7c3.2-2.036,6.447-3.995,9.713-5.918.623-.3,1.242-.607,1.855-.926-6.218,3.5-12.23,7.344-18.232,11.2q3.306-2.217,6.667-4.353ZM134.2,109.8a3.174,3.174,0,0,1-4.308,1.129,4.569,4.569,0,0,0-.416-.248c-.316-.155-.29-.152.074.006a2.843,2.843,0,0,0-.729-.239,4,4,0,0,0-.707-.155h-.545a3.149,3.149,0,0,1,0-6.3,10.565,10.565,0,0,1,5.5,1.5A3.215,3.215,0,0,1,134.2,109.8Z" transform="translate(-42.574 -59.427)" fill="#eac485"/>
    </g>
  </g>
  <g id="Group_17191" data-name="Group 17191">
    <path id="Path_17949" data-name="Path 17949" d="M142.355,322.22c.1-1.149.171-2.3.29-3.443a5.358,5.358,0,0,0-2.365-5.428,14.437,14.437,0,0,1-4.185-4.611c-3-5.541.016-11.2,6.267-11.733a45.361,45.361,0,0,1,8.006.558c5.9.568,11.8,1.191,17.7,1.772.568.055,1.249-.2,1.7.035a20.91,20.91,0,0,1,2.536,1.755c-.768.7-1.455,1.888-2.32,2.036-5.75.987-11.468.223-17.161-.729-3.024-.5-6.047-1.3-9.084-1.349-4-.065-5.657,3.024-3.511,6.121a2.346,2.346,0,0,0,2.217.552c4.482-3.3,9.31-1.226,13.937-.862,2.44.194,3.943,2.336,4.411,4.773.445,2.31,1.823,3.214,3.995,3.291,2.1.077,4.331.639,6.286.136,5.918-1.523,11.791-3.288,17.548-5.331,1.875-.665,3.466-2.346,4.953-3.8,1.081-1.062,2.117-2.736.926-4.092a5.538,5.538,0,0,0-3.914-1.778,43.446,43.446,0,0,0-7.273,1.552,24.169,24.169,0,0,1-3.888.894,2.181,2.181,0,0,1-1.626-1.268,2.149,2.149,0,0,1,.539-1.975c5.189-2.753,10.678-4.624,16.531-2.769,4.318,1.368,5.634,6.241,3.2,10.542a15.911,15.911,0,0,1-7.709,6.676c-7.767,3.427-15.673,6.389-24.4,5.589-2.582-.236-4.534.058-4.876,3.22-.342,3.143-3.543,3.714-5.231,5.612-1.562,1.755-1.788,4.679-3.317,6.483-2.223,2.623-6.373,2.149-8.5-.833a12.662,12.662,0,0,1-1.91-5.289,41.513,41.513,0,0,1-.074-6.309h.284Zm14.815-4.376h.052c0-.19,0-.384,0-.574-.158-5.705-3.3-8.161-8.99-6.828a2.723,2.723,0,0,0-1.375,2.062c-.31,4.579-.452,9.168-.626,13.753a4.919,4.919,0,0,0,.145,2.265,23.416,23.416,0,0,0,2.172,3.069c.81-.913,2.12-1.73,2.323-2.762.439-2.227.223-4.573.455-6.854a3.6,3.6,0,0,1,1.075-2.423c1.136-.765,2.1-.077,2.759,1.091.226.4.823.59,1.249.874a4.874,4.874,0,0,0,.733-1.378,13.9,13.9,0,0,0,.032-2.291Z" transform="translate(-91.383 -200.336)" fill="#262c54"/>
    <path id="Path_17950" data-name="Path 17950" d="M149.357,0c23.463.119,43.718,9.213,58.4,29.307,2.9,3.966,4.734,8.719,6.951,13.166a7.078,7.078,0,0,1,.729,3.34,2.881,2.881,0,0,1-1.252,2.223c-.565.219-1.688-.449-2.281-1.016a5.125,5.125,0,0,1-.874-2.094c-4.4-13.437-13.595-23-25.147-30.462a62.885,62.885,0,0,0-31.508-9.871c-15.567-.768-30.662,1.11-44.822,8.106-1.72.849-3.324,1.975-5.1,2.64-.884.329-2.494.29-3.007-.274-1.175-1.3-.123-2.517,1.065-3.282a52.971,52.971,0,0,1,5-2.84C120.321,2.543,134.023.2,149.357,0Z" transform="translate(-68.359)" fill="#262c54"/>
    <path id="Path_17951" data-name="Path 17951" d="M42.34,121.6C43.686,97.963,55.477,79.04,79.146,67.93a20.458,20.458,0,0,1,4.9-1.507c.494-.094,1.459.655,1.668,1.217a2.1,2.1,0,0,1-.526,1.959,48.073,48.073,0,0,1-5.118,2.54c-36.835,16.8-44.87,65.7-15.292,93.3,2.1,1.959,4.492,3.6,6.589,5.566.561.523.536,1.675.778,2.536-1.039.2-2.272.842-3.078.5a17.766,17.766,0,0,1-4.25-2.9C50.156,158.774,42.8,142.956,42.34,121.6Z" transform="translate(-28.674 -44.984)" fill="#262c54"/>
    <path id="Path_17952" data-name="Path 17952" d="M280.894,179.51c.277,14.815-4.792,27.864-13.253,39.733a36.177,36.177,0,0,1-6.254,6.731,76.567,76.567,0,0,1-41.743,17.842,24.429,24.429,0,0,1-6.283-.268c-.594-.094-1.262-1.313-1.4-2.1-.074-.429.807-1.326,1.407-1.5a14.767,14.767,0,0,1,3.417-.339,66.633,66.633,0,0,0,42.3-17.454c10.491-9.484,15.883-22.1,17.135-36.145.926-10.374.455-20.759-3.976-30.533a4.223,4.223,0,0,1-.571-2.188,3.7,3.7,0,0,1,1.249-2.207c.329-.245,1.607.171,1.936.649a21.4,21.4,0,0,1,2.117,4.063c3.108,7.606,3.782,15.621,3.917,23.724Z" transform="translate(-143.557 -102.277)" fill="#262c54"/>
    <path id="Path_17953" data-name="Path 17953" d="M107.336,411.674c-20.365-.478-38.858-6.415-54.957-19.129a79.637,79.637,0,0,1-7.106-6.709,7.461,7.461,0,0,1-1.746-2.885c-.165-.516.378-1.426.852-1.914a1.648,1.648,0,0,1,1.568-.071,14.791,14.791,0,0,1,2.611,2.2c13.037,13.624,29.384,20.555,47.671,23.427a72.492,72.492,0,0,0,29.155-1.171c7.948-2,15.179-5.357,20.894-11.485,1.11-1.191,2.462-3.266,4.214-1.607,2.014,1.9-.19,3.446-1.394,4.789a36.586,36.586,0,0,1-11.556,8.432c-9.542,4.6-19.674,6.292-30.2,6.115Z" transform="translate(-29.458 -257.922)" fill="#262c54"/>
    <path id="Path_17954" data-name="Path 17954" d="M143.2,189.37c2.12.232,3.169.11,3.988.484,2.1.962,5.718.307,5.841,3.462.094,2.41-3.124,2.249-4.873,3.233-2.485,1.4-4.915,2.9-7.422,4.266a52,52,0,0,1-6.631,3.269,4.787,4.787,0,0,1-5.7-1.475c-1.291-1.607-1.116-4.343.662-6.334a13.478,13.478,0,0,1,4.443-3.466c3.459-1.491,7.109-2.546,9.69-3.44Zm-2.685,5.8c-.342-.074-.755-.307-1.016-.194-1.9.833-3.8,1.684-5.644,2.653-.39.207-.52.91-.768,1.384.507.113,1.146.484,1.494.3,1.846-.984,3.627-2.085,5.4-3.2C140.25,195.946,140.34,195.5,140.514,195.172Z" transform="translate(-86.396 -128.262)" fill="#262c54"/>
    <path id="Path_17955" data-name="Path 17955" d="M272.36,188.08a26.735,26.735,0,0,1,11.168,3.056,16.793,16.793,0,0,1,3.672,2.73c2.243,2.2,2.807,4.789,1.681,6.722-1.075,1.846-3.634,2.53-6.754,1.594a26.489,26.489,0,0,1-4.189-1.872c-3.75-1.894-7.5-3.788-11.2-5.783-.758-.41-1.836-1.278-1.8-1.875a3.661,3.661,0,0,1,1.475-2.753,39.368,39.368,0,0,1,5.944-1.817Zm5.931,5.111c-.984.342-1.323.458-1.659.574.174.3.277.713.536.874,2.01,1.242,3.65,3.369,6.441,2.778.094-.019.216-.365.2-.378-1.943-1.371-3.9-2.727-5.518-3.85Z" transform="translate(-179.442 -127.388)" fill="#262c54"/>
    <path id="Path_17956" data-name="Path 17956" d="M215.467,52.021c-3.1.349-5.947.816-8.806.9-.849.023-1.726-1.052-2.591-1.626.687-.8,1.259-2.133,2.078-2.307,5.666-1.21,11.485-1.7,17.112-.3,6.292,1.565,12.417,3.821,18.606,5.8a8.086,8.086,0,0,1,1.533.784c1.329.765,3,1.536,2.2,3.424-.884,2.094-2.478.929-3.9.455-6.341-2.117-12.659-4.311-19.068-6.209-2.346-.694-4.915-.649-7.173-.916Z" transform="translate(-138.216 -32.398)" fill="#262c54"/>
    <path id="Path_17957" data-name="Path 17957" d="M285.674,125.45c8.38.742,15.673,2.869,21.252,8.8a23.782,23.782,0,0,1,3.5,5.8c.21.419-.349,1.6-.862,1.894a2.492,2.492,0,0,1-2.065-.294,5.621,5.621,0,0,1-1.468-1.736c-4.489-6.567-11.11-9.122-18.658-9.919-1.714-.181-3.459-.136-5.144-.449-.584-.11-1.507-1.071-1.433-1.494a3.063,3.063,0,0,1,1.433-2.117,13.187,13.187,0,0,1,3.437-.481Z" transform="translate(-190.184 -84.968)" fill="#262c54"/>
    <path id="Path_17958" data-name="Path 17958" d="M121.116,144.031a27.288,27.288,0,0,0-19.219,6.486c-1.246,1.055-2.372,2.865-4.353,1.426-1.252-.91-.7-2.724,1.694-4.744a31.266,31.266,0,0,1,23.463-7.4,7.351,7.351,0,0,1,1.688.339c1.442.471,3.388.823,3.175,2.717-.239,2.127-2.2,1.607-3.688,1.488-.955-.077-1.9-.213-2.762-.31Z" transform="translate(-65.623 -94.611)" fill="#262c54"/>
    <path id="Path_17959" data-name="Path 17959" d="M2.55,289.551a5.653,5.653,0,0,1,1.4,1.7c.5,1.426.526,3.014,1.023,4.44,1.371,3.937,2.862,7.832,4.353,11.727a18.756,18.756,0,0,1,1.233,2.543c.129.623-.181,1.817-.591,1.968a3.683,3.683,0,0,1-2.54-.161,4.384,4.384,0,0,1-1.488-1.684C2.385,304.7.965,298.586.036,292.339a2.189,2.189,0,0,1,2.511-2.791Z" transform="translate(0.009 -196.109)" fill="#262c54"/>
    <path id="Path_17960" data-name="Path 17960" d="M467.291,202.053a66.729,66.729,0,0,1-.452,7.377c-.123.778-1.4,1.368-2.156,2.046-.529-.691-1.426-1.336-1.517-2.081-.226-1.875-.016-3.8-.116-5.7-.165-3.227-.568-6.447-.571-9.671,0-.865,1.078-1.73,1.659-2.6.791.7,2.117,1.294,2.268,2.11.516,2.788.62,5.657.881,8.513Z" transform="translate(-313.239 -129.657)" fill="#262c54"/>
    <path id="Path_17961" data-name="Path 17961" d="M363.468,105.088a5.387,5.387,0,0,1-2.02.939,3.263,3.263,0,0,1-1.91-1.042c-2.8-2.546-5.57-5.14-8.322-7.741a2.74,2.74,0,0,1-.949-1.365,3.428,3.428,0,0,1,.381-2.052,1.786,1.786,0,0,1,1.5-.487c2.911.445,10.746,7.909,11.314,10.694a8.424,8.424,0,0,1,.006,1.058Z" transform="translate(-237.219 -63.209)" fill="#262c54"/>
    <path id="Path_17962" data-name="Path 17962" d="M452.567,301.36c.439.587,1.452,1.329,1.384,1.955a19.343,19.343,0,0,1-4.573,10.81,2.556,2.556,0,0,1-2.046.323c-.394-.077-1.029-.955-.926-1.223,1.513-3.821,3.12-7.606,4.763-11.378.1-.226.668-.245,1.4-.487Z" transform="translate(-302.345 -204.114)" fill="#262c54"/>
    <path id="Path_17963" data-name="Path 17963" d="M20.749,135.213a48.652,48.652,0,0,1-2.243,5.521,2.623,2.623,0,0,1-2.243,1.113,2.477,2.477,0,0,1-1.288-2.085,20.93,20.93,0,0,1,1.765-5.376,2.657,2.657,0,0,1,2.285-1.075c.655.119,1.133,1.2,1.723,1.9Z" transform="translate(-10.133 -90.281)" fill="#262c54"/>
  </g>
</svg>
