<svg id="_28" data-name="28" xmlns="http://www.w3.org/2000/svg" width="153.751" height="153.739" viewBox="0 0 153.751 153.739">
  <g id="Group_17193" data-name="Group 17193" transform="translate(13.983 16.339)">
    <path id="Path_17964" data-name="Path 17964" d="M288.879,298.321c-.591.745-1.2,1.475-1.8,2.21.587-1.042,1.162-2.094,1.759-3.133.852-1.481-1.278-2.636-2.243-1.31-2.081,2.862-4.134,5.754-6.2,8.635.445-.862.913-1.713,1.433-2.543a1.2,1.2,0,0,0-1.817-1.5c.032-.061.068-.119.1-.181a1.055,1.055,0,0,0-1.82-1.065c-2.63,3.459-5.505,6.754-8.222,10.145l-.407.513c.862-1.484,1.775-2.946,2.772-4.372.791-1.133-.981-2.485-1.91-1.475-.139.152-.271.307-.41.458.355-.581.71-1.165,1.075-1.739.658-1.033-.781-2.014-1.63-1.258q-4.642,4.138-9.245,8.329a30.279,30.279,0,0,1,1.784-4.021,1.064,1.064,0,0,0-1.836-1.071,23.985,23.985,0,0,0-3.743,8.835,1.334,1.334,0,0,0,2.21,1.288c1.639-1.539,3.259-3.1,4.879-4.663-.1.155-.21.31-.31.465l-5.831,9.1c-.9,1.407,1.259,2.591,2.2,1.288q1.52-2.091,3.1-4.137c-.416,1-.807,2.014-1.139,3.04-.513,1.6,1.684,2.291,2.552,1.075.271-.378.552-.749.826-1.126a1.5,1.5,0,0,0,2.694,1.233q1.839-2.962,3.688-5.934,1.534-2.3,3.185-4.514a32.53,32.53,0,0,0-1.1,3.337,1.447,1.447,0,0,0,2.633,1.11c.313-.468.639-.929.958-1.394a1.365,1.365,0,0,0,2.272.39c2.34-2.811,4.566-5.718,6.815-8.6a16.013,16.013,0,0,0-.171,2.307,1.091,1.091,0,0,0,2.133.287,36.955,36.955,0,0,1,2.736-8.484c.6-1.191-1.039-2.711-1.975-1.523Z" transform="translate(-187.704 -216.488)" fill="#ba8b54"/>
    <path id="Path_17965" data-name="Path 17965" d="M161.081,182.275a3.842,3.842,0,0,0-1.668-1.162,9.062,9.062,0,0,0-4.1-1.342,5.583,5.583,0,0,0-2.8,1.117,5.6,5.6,0,0,0-3.6,3.666,5.3,5.3,0,0,0,1.291,5.289,5.719,5.719,0,0,0,5.157,1.636,5.308,5.308,0,0,0,3.395-2.307,4.085,4.085,0,0,0,2.117-1.375,4.286,4.286,0,0,0,.216-5.528Z" transform="translate(-114.674 -138.083)" fill="#75757c"/>
    <path id="Path_17966" data-name="Path 17966" d="M299.745,179.962a3.915,3.915,0,0,0-2.31-1.052,1.759,1.759,0,0,0-.458-.787,2.668,2.668,0,0,0-2.288-.529,3.57,3.57,0,0,0-2.678,2.436,6.074,6.074,0,0,0-.11,3.285,7.313,7.313,0,0,0,.958,2.5c1.065,1.71,3.13,2.962,5.163,2.168a5.051,5.051,0,0,0,3.172-4.808,4.823,4.823,0,0,0-1.449-3.208Z" transform="translate(-211.574 -136.59)" fill="#75757c"/>
    <path id="Path_17967" data-name="Path 17967" d="M227.206,375.71c-.358.332-.726.649-1.1.962a28.782,28.782,0,0,0,1.723-3.272c.329-.752-.565-1.639-1.223-.945-2.369,2.5-4.169,5.586-6.092,8.432-1.962,2.9-4.037,5.754-5.9,8.716-.913,1.449,1.436,2.682,2.23,1.3h0c.958-1.371,1.875-2.782,2.778-4.2.823-1.091,1.665-2.168,2.543-3.214.229-.274.468-.539.7-.807a18.7,18.7,0,0,0-1.878,3.795,1.344,1.344,0,0,0,.781,1.591,1.444,1.444,0,0,0,.416.09,9.684,9.684,0,0,0-.174,1.039.715.715,0,0,0,1.21.5,10.2,10.2,0,0,0,2.385-4.64.915.915,0,0,0-.242-.894c.278-.574.549-1.149.829-1.71.913-1.833,1.72-3.695,2.53-5.573a.972.972,0,0,0-1.52-1.171Z" transform="translate(-159.204 -268.435)" fill="#eb8486"/>
    <path id="Path_17968" data-name="Path 17968" d="M201.448,341.143l-.094.094c.245-.332.481-.671.726-1,.926-1.246-.984-2.44-2.02-1.559-.345.294-.681.594-1.023.891A38.581,38.581,0,0,0,202.287,334a1.016,1.016,0,0,0-1.752-1.026c-.255.361-.523.713-.784,1.068a4.627,4.627,0,0,0,.465-1.217.631.631,0,0,0-.913-.7,8.352,8.352,0,0,0-2.659,2.549c-.787.984-1.565,1.978-2.343,2.972q-2.483,3.161-4.953,6.334-2.357,3.025-4.66,6.1a27.475,27.475,0,0,0-4,6.583.539.539,0,0,0,.455.752c-.313.487-.623.978-.913,1.481-1.036,1.775,1.51,3.117,2.682,1.568a117.412,117.412,0,0,1,8.642-10.116c-2.472,3.456-4.863,6.967-7.019,10.62a1.361,1.361,0,0,0,2.349,1.371c.061-.094.126-.184.187-.281a12.922,12.922,0,0,0-.526,1.223c-.3.865.823,1.31,1.407.82a23.463,23.463,0,0,0,3.982-4.9q1.931-2.8,3.859-5.6c2.52-3.663,5.05-7.322,7.512-11.026.752-1.133-.916-2.359-1.852-1.43Z" transform="translate(-135.892 -241.239)" fill="#eb8486"/>
    <path id="Path_17969" data-name="Path 17969" d="M178.049,330.725a54.429,54.429,0,0,0-7.538,6.334q2.183-3.3,4.369-6.6a.989.989,0,0,0-1.546-1.194q-1.825,2.014-3.669,4.008c.31-.481.629-.955.981-1.41a.76.76,0,0,0-1.075-1.075q-2.44,2.178-4.879,4.353c.736-1.094,1.465-2.191,2.21-3.275.591-.858-.649-1.617-1.349-1.039-.539.445-1.087.874-1.636,1.31a15.989,15.989,0,0,1,1.526-1.717c.829-.781-.255-2.233-1.229-1.594a22.576,22.576,0,0,0-6.367,6.544.65.65,0,0,0-.1.545c-.891,1.017-1.772,2.043-2.653,3.066a1.377,1.377,0,0,0,1.946,1.946c.72-.642,1.417-1.313,2.11-1.985-.584.82-1.158,1.646-1.717,2.488-.807,1.213,1.023,2.614,2.017,1.555q1.244-1.326,2.523-2.62c-1.7,2.21-3.414,4.418-5.057,6.673-.836,1.149,1.026,2.578,1.968,1.52,2.236-2.51,4.45-5.04,6.67-7.567q-2.711,4.09-5.441,8.164c-.639.949.868,2.143,1.6,1.236.278-.342.555-.684.833-1.023a51.506,51.506,0,0,0-2.672,4.55.68.68,0,0,0,1.065.82c6.751-6.922,11.823-15.3,18.29-22.466.707-.784-.223-2.2-1.191-1.542Z" transform="translate(-118.779 -238.95)" fill="#eb8486"/>
    <g id="Group_17192" data-name="Group 17192">
      <path id="Path_17970" data-name="Path 17970" d="M105.461,317.854l-1.636,1.607c.429-.668.871-1.326,1.307-1.985a8.934,8.934,0,0,1-1.7-3.346q-4.758,7-8.813,14.453a1.651,1.651,0,0,0,2.582,1.991q5.358-5.237,10.723-10.475a16.53,16.53,0,0,1-2.459-2.243Z" transform="translate(-77.928 -229.102)" fill="#eac485"/>
      <path id="Path_17971" data-name="Path 17971" d="M120.55,338.893a3.094,3.094,0,0,1-.923-2.227,2.673,2.673,0,0,1,.248-1.217l-1.013-.72c-.023.029-.048.055-.071.084a1.524,1.524,0,0,0-.271,1.646q-4.472,4.226-8.822,8.577c-1.478,1.488.7,3.546,2.259,2.259q4.734-3.906,9.471-7.809a5.535,5.535,0,0,1-.878-.594Z" transform="translate(-87.95 -243.055)" fill="#eac485"/>
      <path id="Path_17972" data-name="Path 17972" d="M134.026,353.066c-.416.236-.836.465-1.239.723.384-.391.765-.778,1.149-1.165a10.974,10.974,0,0,0-.6-1.846,3.056,3.056,0,0,1-.787-.094,10.022,10.022,0,0,1-1.229-.452c-.439-.181-.807-.332-1.158-.513-.839,1.023-1.675,2.049-2.5,3.082-.571.632-1.146,1.262-1.713,1.9a1.33,1.33,0,0,0-.329.71q-1.733,2.236-3.424,4.5c-1.013,1.368.794,2.978,2.136,2.427a1.732,1.732,0,0,0,1.494,2.046,1.38,1.38,0,0,0,2.168,1.63l3.433-2.962c-.161,1.178,1.271,2.446,2.372,1.617.187-.142.368-.287.555-.429a1.77,1.77,0,0,0,1,.3c-.849-3.45-.6-7.315-1.258-11.094-.023-.136-.052-.258-.077-.387Z" transform="translate(-96.55 -253.208)" fill="#eac485"/>
      <path id="Path_17973" data-name="Path 17973" d="M312.815,234.141q-4.5,3.233-8.974,6.5a1.287,1.287,0,0,0-1.242.119c-1.5.981-2.969,2-4.427,3.033a10.932,10.932,0,0,1-1.433,5.647c0,.106,0,.2-.01.316a22.085,22.085,0,0,1-1.471,5.463q2.231-2.062,4.472-4.111c-1.549,1.678-3.156,3.3-4.808,4.879-2.107,4.7-5.566,8.706-8.829,12.885-2.865,3.672-6.144,7.361-10.136,9.894q-1.409,1.336-2.82,2.669-6.423,5.228-12.85,10.449c-1.171.949.413,3.036,1.626,2.107.2-.155.4-.307.6-.461a1.57,1.57,0,0,0,2.207.11q9.081-7.861,18.161-15.718,3.049-2.333,6.1-4.669a1.288,1.288,0,0,0,.358-.055q-6.723,6.568-13.447,13.143c-1.339,1.307.665,3.275,2.043,2.043q4.211-3.78,8.422-7.557a1.354,1.354,0,0,0,2.094.855,89.216,89.216,0,0,0,21.788-21.727,1.483,1.483,0,0,0-1.107-2.227c.72-1.12-.674-2.9-1.881-1.975q-4.022,3.093-8.041,6.189,5.552-6.6,11.107-13.2a1.564,1.564,0,0,0-2.21-2.21l-.984.762a113.084,113.084,0,0,0,7.867-10.975c.807-1.288-.858-3.114-2.168-2.168Z" transform="translate(-190.001 -174.755)" fill="#eac485"/>
      <path id="Path_17974" data-name="Path 17974" d="M74.909,190.671a19.866,19.866,0,0,1-1.9-6.454l-7.312,5.734c2.317-2.456,4.727-4.824,7.2-7.135a18.544,18.544,0,0,1,.284-4.156,22.909,22.909,0,0,1,2.733-7.37q-6.244,6.167-12.172,12.646-4.535,4.971-8.874,10.113a1.494,1.494,0,0,0,1.313,2.475c-.658.836-1.313,1.681-1.952,2.54-1.075,1.446,1.113,2.694,2.291,1.768q4.753-3.737,9.516-7.461a116.439,116.439,0,0,0-11.31,14.44c-.868,1.326,1.1,2.824,2.185,1.684Q65.909,200.082,74.909,190.671Z" transform="translate(-50.515 -132.355)" fill="#eac485"/>
      <path id="Path_17975" data-name="Path 17975" d="M318.508,144.835c.026.106.026.2.042.307a7.74,7.74,0,0,1,1.178,6.112q3.877-3.311,7.754-6.618a1.512,1.512,0,0,0-.452-2.562q2.895-2.372,5.818-4.708c3.579-2.849,7.215-5.618,10.852-8.393,1.51-1.152.087-3.753-1.526-2.614-8.167,5.773-16.034,11.92-23.724,18.287.019.065.045.123.061.19Z" transform="translate(-229.673 -101.731)" fill="#eac485"/>
      <path id="Path_17976" data-name="Path 17976" d="M297.83,133.052a4.676,4.676,0,0,1,5.96,1.21q4.168-4,8.4-7.922,5.745-5.315,11.552-10.568c1.617-1.471-.736-3.724-2.369-2.369q-11.806,9.782-23.54,19.649Z" transform="translate(-215.707 -92.865)" fill="#eac485"/>
      <path id="Path_17977" data-name="Path 17977" d="M131.593,120.13c4.008-1.8,7.628-4.356,11.6-6.167,2.233-1.02,4.54-1.136,6.286.839a7.8,7.8,0,0,1,2,4.46,110.84,110.84,0,0,0,13.092-13.046,1.668,1.668,0,0,0-.416-2.588c.177-.168.358-.332.536-.5.974-.933-.455-2.3-1.459-1.459q-4.453,3.727-8.842,7.535c.968-1.091,1.917-2.2,2.824-3.343A73.806,73.806,0,0,0,164.3,95.141c.681-1.262-.8-3.14-2.143-2.143q-.658.489-1.323.978a1.583,1.583,0,0,0-1.794-.106c-3.311,2.259-6.509,4.689-9.677,7.157q6.278-5.445,12.533-10.907c1.052-.92-.461-2.365-1.513-1.513Q146.608,99.73,132.961,111q1.612-1.51,3.22-3.02a1.518,1.518,0,0,0,.29-1.81c.442-.387.887-.778,1.333-1.158q5.223-4.492,10.426-9l5.289-4.6a60.324,60.324,0,0,0,5.221-4.673c.984-1.081-.294-2.991-1.633-2.114-.171.113-.332.242-.5.358a1.014,1.014,0,0,0-1.3-.758c-1.746.487-3.011,1.978-4.366,3.127q-2.091,1.772-4.2,3.514-4.318,3.563-8.722,7.019-2.9,2.27-5.854,4.479a5.135,5.135,0,0,1-1.5,1.123c-.471.349-.936.707-1.41,1.055-1.591,1.175-3.233,2.3-4.86,3.45-.026-.026-.052-.055-.077-.077q2.3-1.965,4.608-3.934a6.079,6.079,0,0,1-5.328-2.4c-.126-.165-.229-.352-.342-.529q-3.011,2.59-6,5.205,2.778-2.953,5.628-5.831a7.665,7.665,0,0,1,.023-7.335c.061-.1.139-.194.207-.29l-2.333,1.956c8.9-9,18.351-17.451,27.806-25.867,1.365-1.217-.607-3.095-1.978-1.981q-8.33,6.767-16.667,13.527a1.774,1.774,0,0,0-.529-.7,1.618,1.618,0,0,0-.723-.319c1.91-2.262,3.827-4.521,5.705-6.809a37.093,37.093,0,0,0,5.308-8.022c.739-1.613-1.3-3.621-2.662-2.052q-3.79,4.371-7.774,8.574a1.809,1.809,0,0,0-1.291-1.736q4.318-4.264,8.632-8.529c1.284-1.268-.594-3.02-1.936-1.936q-12.019,9.69-24.034,19.384c6.754-6.589,13.8-12.882,20.852-19.142,1.31-1.162-.568-2.911-1.885-1.885q-10.383,8.117-20.258,16.841c6.689-6.483,13.743-12.614,20.755-18.7,1.217-1.055-.342-2.959-1.688-2.188-3.295,1.888-6.486,3.927-9.6,6.079q1.476-1.239,2.949-2.478c1.142-.958-.378-2.959-1.607-2.085q-4.908,3.485-9.8,6.989a1.622,1.622,0,0,0-1.91.148q-5.45,4.4-10.871,8.845,7.541-8.413,14.6-17.245c1.271-1.591-.849-3.863-2.294-2.294q-8.7,9.434-17.251,19a1.417,1.417,0,0,0-1.955-.561c-.4.248-.784.5-1.178.752,1.055-.978,2.1-1.962,3.133-2.966A117.988,117.988,0,0,0,103.9,54.782c.006-.006.013-.01.019-.016l0,0c.077-.1.158-.2.236-.3,1.1-1.439-1.126-2.74-2.317-1.788-.526.423-1.046.852-1.575,1.275a1.492,1.492,0,0,0-1.939-.581,230.967,230.967,0,0,0-31.869,21.72c.926-.945,1.849-1.891,2.788-2.824q4.26-4.211,8.7-8.232c3.1-2.794,6.463-5.344,9.774-7.88,1.465-1.12.139-3.627-1.494-2.552A186.018,186.018,0,0,0,55.741,79.026a1.243,1.243,0,0,0,1.417,1.985c-2.2,2.359-4.382,4.747-6.5,7.186a1.427,1.427,0,0,0,2.017,2.017c7.3-6.063,14.6-12.133,22.143-17.861-5.608,4.776-11.081,9.7-16.289,14.915q-5.247,5.252-10.087,10.888a1.4,1.4,0,0,0,.742,2.3c-1.849,1.768-3.659,3.579-5.382,5.466a1.63,1.63,0,0,0,2.3,2.3c7.645-6.767,15.383-13.463,23.372-19.829a17.285,17.285,0,0,1,6.025-5.55,20.669,20.669,0,0,1,6.918-2.294q2.173-1.965,4.382-3.888-1.7,1.9-3.408,3.8a10.093,10.093,0,0,1,4.5.652,6.765,6.765,0,0,1,1.836-.1c.113-.094.229-.184.342-.278.071-.055.142-.11.21-.168.01-.006.013-.016.023-.023.565-.455,1.129-.913,1.694-1.368L90.2,81.072a9.932,9.932,0,0,1,4.137,1.7c5.75-5.089,11.536-10.162,17.574-14.9A219.648,219.648,0,0,0,96.065,84.124a23.217,23.217,0,0,1,4.511,5.712q7.386-5.949,14.776-11.9-5.494,5.421-10.991,10.842a.755.755,0,0,0-1.194-.39c-.813.571-1.62,1.155-2.43,1.733a21.112,21.112,0,0,1,1.826,4.327q6.636-6.559,13.276-13.117-5.862,6.53-11.752,13.03a1.518,1.518,0,0,0,1.207,2.578c-.72.907-1.449,1.8-2.172,2.707-.365,7.929-6.034,15.063-13.482,17.9-.855.816-1.713,1.633-2.578,2.436q-4.143,3.848-8.322,7.657,3.732-4.734,7.806-9.193a19.176,19.176,0,0,1-3.475.4,15.921,15.921,0,0,1-2.711-.181q-3.935,3.524-7.709,7.222c2.191-2.517,4.46-4.969,6.751-7.4a15.54,15.54,0,0,1-4-1.455q-5.17,4.414-10.055,9.129a98.828,98.828,0,0,1,7.37-8.429c.5-.461,1.007-.929,1.51-1.391a17.212,17.212,0,0,1-3.45-2.914q-1.9,2.251-3.785,4.518a1.7,1.7,0,0,0-.339.668q-1.244,1.157-2.488,2.307,3.108-3.979,6.212-7.958a19.029,19.029,0,0,1-2.156-3.1C63.479,114.873,58.7,119.849,54,124.887a1.6,1.6,0,0,0,1.023,2.656q-2.875,3.606-5.75,7.212a1.605,1.605,0,0,0,2.269,2.269q3.146-2.885,6.305-5.757c-1.549,2.42-3.014,4.9-4.36,7.441-.778,1.471,1.22,3.243,2.414,1.862q3.461-4,7.131-7.812a80.947,80.947,0,0,0-7.064,11.32c-.787,1.552,1.313,3.482,2.559,1.975q4.874-5.891,10.132-11.436a3.28,3.28,0,0,1,3.056-3.288c.071-.048.158-.084.236-.126.01-.013.023-.023.032-.035a.179.179,0,0,1-.019.026,2.905,2.905,0,0,1,1.575-.31c4.75.332,9.778-1.1,14.55-1.455,5.134-.387,10.284-.649,15.392-1.313,2.869-.374,5.728-.894,8.564-1.526.584-.465,1.158-.942,1.743-1.407l-1.355,1.317a102.175,102.175,0,0,0,19.158-6.386Zm.6-1.42a1.6,1.6,0,0,0,.7-.336c4.479-3.653,9.277-6.948,13.976-10.323q-.842.842-1.7,1.672-3.2,2.662-6.409,5.328-3.17,2.27-6.3,4.611a1.506,1.506,0,0,0-.361-.884l.084-.065ZM70.027,82.753q8.766-7.546,17.7-14.886C82.069,73.079,76.051,77.929,70.027,82.753Zm46.932,4.75c1.065-.949,2.123-1.9,3.172-2.869l-3.078,3.753c-.913.81-1.813,1.633-2.717,2.452q1.317-1.665,2.623-3.34Zm-5.637,10.368a1.475,1.475,0,0,0,1.707.045q-2.362,2.991-4.744,5.963c-.371.42-.729.845-1.1,1.268a1.482,1.482,0,0,0-1.672.358c-.716.694-1.43,1.394-2.143,2.091a1.643,1.643,0,0,0-.933-.975q4.337-4.477,8.877-8.748Zm-17.164,28.3c2.956-3.456,5.941-6.889,9.039-10.216,2.6-2.791,5.292-5.492,8.041-8.138.187-.181.384-.355.574-.536-.962,1.055-1.926,2.107-2.872,3.182q-4.806,5.46-9.248,11.217c-1.865,1.475-3.7,2.975-5.537,4.489Zm6.825.081q3.911-3.814,7.932-7.506a1.752,1.752,0,0,0,.245.268q-4.114,3.592-8.177,7.238Zm9.3-2.911q4.981-4.855,10.045-9.626a1.778,1.778,0,0,0,1.739.129.133.133,0,0,0,.023.035c.3-.181.591-.381.887-.574q-.881.8-1.743,1.626-5.513,4.153-10.949,8.4Z" transform="translate(-43.335 -50.633)" fill="#eac485"/>
      <path id="Path_17978" data-name="Path 17978" d="M272.886,379.085c-.72.845-1.442,1.688-2.146,2.552-.9,1.107.316,3.208,1.681,2.178l7.564-5.705c-.355.152-.713.3-1.078.429a10.838,10.838,0,0,1-6.025.545Z" transform="translate(-197.149 -272.436)" fill="#eac485"/>
    </g>
  </g>
  <g id="Group_17194" data-name="Group 17194">
    <path id="Path_17979" data-name="Path 17979" d="M75.126,164.311c6.706-.532,13.43-.891,20.113-1.633A107.264,107.264,0,0,0,139.554,147.3c6.625-4.037,8.884-1.378,10,4.434,2.4,12.533-2.53,22.524-11.285,31.062-.4.394-.939.9-1.42.91a4.56,4.56,0,0,1-2.543-.587c-.319-.219-.278-1.533.068-2.026.871-1.249,2.136-2.223,3-3.472,2.075-2.978,4.043-6.038,5.97-9.116.2-.326-.065-1.036-.287-1.484-.077-.158-.7-.155-1.023-.055a9.29,9.29,0,0,0-1.562.733c-7.351,3.956-15.3,6.16-23.369,8.025-.561.129-1.139.194-1.7.339-5.266,1.394-4.379,1.265-3.637,5.8.216,1.326.507,2.643.7,3.976.787,5.46,1.049,5.783,6.509,4.134,2.891-.871,5.512-2.611,8.348-3.714.855-.332,2.03.148,3.059.258-.252,1.02-.223,2.269-.823,3a8.486,8.486,0,0,1-3.233,2.327c-2.472,1.016-5.044,1.8-7.6,2.607-1.814.571-4.411.455-5.324,1.655-1.413,1.865-1.746,4.576-2.369,6.97-.084.323.81,1.268,1.275,1.284a15.813,15.813,0,0,0,3.4-.474c14.573-2.678,25.341-11.423,34.983-21.956a26.246,26.246,0,0,1,3.117-3.362,2.6,2.6,0,0,1,2.514-.065c.49.426.4,1.675.319,2.54a3.153,3.153,0,0,1-.887,1.452c-10.255,12.146-22.1,21.917-38.116,25.425-1.313.287-2.64.539-3.969.729a88.415,88.415,0,0,0-13.488,2.727c-6.325,1.926-12.559,1.375-17.916-3.243A12.859,12.859,0,0,0,79.2,206.6c-21.02-9.71-34.076-25.86-38.445-48.594a54.177,54.177,0,0,1,3.727-33.3,127.118,127.118,0,0,1,7.325-13.7,38.519,38.519,0,0,1,6.009-6.941,3.24,3.24,0,0,1,3.017-.329c1.252.678.768,1.972,0,2.956-.471.6-1.039,1.133-1.536,1.717C32.266,140.236,43.864,180.743,73.729,199a10.134,10.134,0,0,0,1.51.829c1.275.5,1.823-.148,1.7-1.333a65.166,65.166,0,0,0-1.107-8.561,7.589,7.589,0,0,0-2.569-3.53c-4.656-3.982-7.583-9.129-10.174-14.524a9.052,9.052,0,0,1-.862-2.733,4.457,4.457,0,0,1,4.25-5.057c2.875-.132,5.763-.029,8.645-.029,0,.084.01.168.013.255Zm33.227,26.964c.11-.016.219-.029.329-.045-.5-3.408-.994-6.815-1.517-10.22-.255-1.649-.916-2.895-2.882-2.962-1.258-.042-2.494-.687-2.127-2.033.236-.868,1.391-1.649,2.314-2.12a12.679,12.679,0,0,1,2.814-.507c6.538-1.539,13.2-2.7,19.558-4.792,5.424-1.784,10.481-4.676,15.725-7.022,3.22-1.442,3.869-3.956,3.224-7.119-.994-4.853-1.807-4.656-5.621-2.5-12.12,6.857-24.876,12.23-38.752,14.056-10.071,1.326-20.262,1.717-30.4,2.572a31.353,31.353,0,0,0-3.763.765,38.917,38.917,0,0,0,1.549,4.2c.894,1.791,2.694,2.075,4.453,2.049,4.8-.065,9.587-.2,14.379-.371,1.533-.055,3.053-.361,4.585-.436,1.417-.068,2.975.236,2.811,1.972a3.285,3.285,0,0,1-2.22,2.117,80.879,80.879,0,0,1-8.574.984,3.4,3.4,0,0,0-3.437,3.208c-.752,5.763-.916,11.517,1.31,17.028,1.688,4.182,4.637,7.248,9.274,7.7,9.745.962,16.709-2.594,16.961-13.656.023-.958,0-1.92,0-2.878Zm-33.4-11.207c-.194.578-.561,1.149-.416,1.342a1.681,1.681,0,0,0,1.268.668c.278-.029.481-.749.716-1.158l-1.565-.855Z" transform="translate(-26.869 -70.105)" fill="#262c54"/>
    <path id="Path_17980" data-name="Path 17980" d="M.015,87.657C-.253,74.843,4.01,62.209,11.522,50.721A82.1,82.1,0,0,1,49.6,19.291a13.506,13.506,0,0,1,3.821-1.2,2.605,2.605,0,0,1,2.172,1.22,2.6,2.6,0,0,1-.929,2.336c-1.82,1.046-3.863,1.691-5.766,2.6C27.925,34.261,12.819,49.65,6.446,72.355c-5.073,18.084-1.578,35.38,6.718,51.9a27.628,27.628,0,0,1,1.923,3.524c.242.749-.216,1.726-.361,2.6-1.016-.216-2.285-.129-2.988-.716a9.506,9.506,0,0,1-2.269-3.288,118.444,118.444,0,0,1-5.06-11.594A81.217,81.217,0,0,1,.015,87.657Z" transform="translate(-0.003 -12.25)" fill="#262c54"/>
    <path id="Path_17981" data-name="Path 17981" d="M142.809,157.2a17,17,0,0,0-14.789-17.09c-1.136-.161-2.394.1-3.414-.3-.891-.349-1.526-1.349-2.275-2.062.82-.674,1.639-1.92,2.456-1.914a26.9,26.9,0,0,1,7.354.881,21.4,21.4,0,1,1-23.46,33.36,21.583,21.583,0,0,1-.449-25.276,20.446,20.446,0,0,1,2.646-3.014c1.029-.968,2.443-1.713,3.469-.336.449.6.1,2.139-.358,2.995-.716,1.326-1.965,2.356-2.778,3.643a17.1,17.1,0,1,0,31.6,9.116Z" transform="translate(-70.689 -91.999)" fill="#262c54"/>
    <path id="Path_17982" data-name="Path 17982" d="M429.3,188.269c-.839,17.409-5.712,33.715-15.892,48.268a26.813,26.813,0,0,1-3.814,4.234,2.127,2.127,0,0,1-2.039-.1,2.17,2.17,0,0,1-.661-1.959,27.03,27.03,0,0,1,2.485-3.837,83.489,83.489,0,0,0,15.486-47.923,41.868,41.868,0,0,0-3.433-17.922c-.313-.7-.862-1.439-.807-2.12.068-.823.484-2.023,1.087-2.285a2.7,2.7,0,0,1,2.391.768,12.827,12.827,0,0,1,1.907,3.5C428.52,175.032,429.14,181.5,429.3,188.269Z" transform="translate(-275.553 -111.449)" fill="#262c54"/>
    <path id="Path_17983" data-name="Path 17983" d="M394.439,149.847c-.784,5.182-1.684,11.246-2.636,17.306a13.824,13.824,0,0,1-.829,2.749c-.542,1.42-1.052,3.282-3.024,2.711-2-.581-1.4-2.336-1.026-3.872.59-2.42,1.1-4.863,1.594-7.306,3.608-17.893-.991-33.818-11.585-48.32-.945-1.294-2.814-2.494-1.262-4.453,1-1.258,2.636-.7,4.618,1.868C389,121.828,393.332,134.729,394.439,149.847Z" transform="translate(-254.044 -73.16)" fill="#262c54"/>
    <path id="Path_17984" data-name="Path 17984" d="M170.65,48.64a40.847,40.847,0,0,0-17.535-.726c-7.444,1.275-14.534,3.388-20.652,8.041a4.8,4.8,0,0,1-1.972,1.113,2.437,2.437,0,0,1-1.965-.671,2.149,2.149,0,0,1-.126-2.03,10.887,10.887,0,0,1,2.833-2.778,52.347,52.347,0,0,1,37.894-7.7,4.308,4.308,0,0,1,2.139.742,13.7,13.7,0,0,1,1.775,2.536c-.878.539-1.755,1.075-2.394,1.465Z" transform="translate(-86.832 -29.185)" fill="#262c54"/>
    <path id="Path_17985" data-name="Path 17985" d="M150.793,170.042c5.789.219,9.694,4.114,9.361,9.342-.294,4.64-4.9,8.345-10.123,8.138-4.815-.19-8.322-4.159-8.18-9.255C142,173.065,145.5,169.841,150.793,170.042Zm-.006,4.56c-3.1-.006-4.466,1.139-4.527,3.795-.068,2.927,1.717,4.824,4.453,4.737,2.8-.09,5.121-2.065,5.134-4.369.016-2.507-1.988-4.156-5.063-4.163Z" transform="translate(-96.075 -115.165)" fill="#262c54"/>
    <path id="Path_17986" data-name="Path 17986" d="M295.785,176.548a7.193,7.193,0,0,1-7.444,7.722,8.8,8.8,0,0,1-9.032-8.548c-.165-4.856,3.266-9.223,7.415-9.435C290.948,166.067,295.668,171.414,295.785,176.548Zm-7.467,3.414a3.125,3.125,0,0,0,3.024-3.395c-.013-2.936-2.3-5.557-4.711-5.4-1.665.113-3.12,2.052-3.111,4.15a4.893,4.893,0,0,0,4.8,4.643Z" transform="translate(-189.175 -112.623)" fill="#262c54"/>
    <path id="Path_17987" data-name="Path 17987" d="M252.305,0a55.4,55.4,0,0,1,25.17,8.89,4.264,4.264,0,0,1,1.617,1.565,2.417,2.417,0,0,1-.026,2.072,2.279,2.279,0,0,1-1.965.678,12.662,12.662,0,0,1-3.075-1.481c-7.057-4.063-14.45-7.09-22.714-7.483a3.351,3.351,0,0,1-1.672-.294,2.791,2.791,0,0,1-1.252-1.655A2.206,2.206,0,0,1,249.459.552,11.719,11.719,0,0,1,252.308,0Z" transform="translate(-168.236 0)" fill="#262c54"/>
    <path id="Path_17988" data-name="Path 17988" d="M313.436,438.93c-.61-.449-1.723-.858-1.9-1.52a2.759,2.759,0,0,1,1.013-2.275,15.936,15.936,0,0,1,3.127-1.342c3.437-1.575,6.886-3.127,10.271-4.8,1.213-.6,2.388-1.642,3.53-.261,1.391,1.678.029,2.995-1.191,3.769a61.8,61.8,0,0,1-7.99,4.331,58.833,58.833,0,0,1-6.857,2.107Z" transform="translate(-210.982 -289.918)" fill="#262c54"/>
    <path id="Path_17989" data-name="Path 17989" d="M300.852,56.2c5.712,1.784,11.046,3.782,14.992,8.254a2.127,2.127,0,0,1,.061,2.052,2.89,2.89,0,0,1-2.427.62Q306.591,63.7,299.9,59.9c-.532-.3-.762-1.63-.642-2.407.077-.5,1.042-.871,1.6-1.294Z" transform="translate(-202.668 -38.065)" fill="#262c54"/>
    <path id="Path_17990" data-name="Path 17990" d="M251.627,466.934a9.4,9.4,0,0,1-2.081-.578c-.436-.229-.981-.849-.949-1.246.058-.662.468-1.788.858-1.846,2.959-.432,5.944-.716,8.932-.855.4-.019,1.171,1.049,1.181,1.623a2.155,2.155,0,0,1-1.123,1.717C256.245,466.278,253.98,466.549,251.627,466.934Z" transform="translate(-168.377 -313.194)" fill="#262c54"/>
  </g>
</svg>
