<svg id="_29" data-name="29" xmlns="http://www.w3.org/2000/svg" width="148.93" height="147.582" viewBox="0 0 148.93 147.582">
  <g id="Group_17199" data-name="Group 17199" transform="translate(11.231 13.334)">
    <g id="Group_17195" data-name="Group 17195" transform="translate(79.637 47.913)">
      <path id="Path_17991" data-name="Path 17991" d="M295.894,192.058c-5.97-6.554-19.72,3.036-12.023,5.344,2.027-.494,3.546-2.456,5.763-2.185a.04.04,0,0,1-.026-.016c.345.042.365.061.032.019a9.983,9.983,0,0,0,1.226.278C295.519,200.154,301.447,196.688,295.894,192.058Z" transform="translate(-281.588 -189.803)" fill="#75757c"/>
      <path id="Path_17992" data-name="Path 17992" d="M306.52,206.58l.006,0Z" transform="translate(-298.475 -201.166)" fill="#75757c"/>
    </g>
    <path id="Path_17993" data-name="Path 17993" d="M164.039,194.011c-2.2-7.4-20.775-3.414-15.147,3.169,3.124.349,6.047-3.485,9.29-1.81,1.994,3.621,7.4,3.4,5.857-1.362Z" transform="translate(-111.359 -142.04)" fill="#75757c"/>
    <path id="Path_17994" data-name="Path 17994" d="M214.849,301.729a42.141,42.141,0,0,1-13.763,3.172,39.521,39.521,0,0,1-7.125-.213c-1.175-.139-2.352-.339-3.508-.594a5.538,5.538,0,0,1-1.388-.4,1.554,1.554,0,0,0-.213-.284c-.271-.281-.549-.523-.8-.823-1.665-2.01-5.218.684-3.653,2.817,1.672,2.281,4.282,3.095,6.944,3.682,1.039.229,2.091.4,3.146.552.929,1.843,3.02,2.5,5,2.788a19.308,19.308,0,0,0,6.793-.223,29.425,29.425,0,0,0,11.388-5.654,2.794,2.794,0,0,0-2.817-4.821Z" transform="translate(-135.864 -217.502)" fill="#ba8b54"/>
    <path id="Path_17995" data-name="Path 17995" d="M346.868,327.663c-1.349.91-2.662,1.868-3.953,2.856.442-.526.887-1.049,1.329-1.575a1.781,1.781,0,0,0-2.517-2.517,91.4,91.4,0,0,0-7.18,6.367c1.275-1.733,2.569-3.453,3.959-5.092.994-1.171-.287-3.217-1.746-2.262a50.259,50.259,0,0,0-8.651,7.183c-.549.565-1.078,1.146-1.607,1.73.287-.436.574-.874.871-1.307,1.846-2.672,3.837-5.241,5.86-7.78a1.319,1.319,0,0,0-1.862-1.865c-1.772,1.5-3.54,3.014-5.318,4.511q1.684-2.183,3.411-4.324c.936-1.152-.287-3.249-1.733-2.246-1.762,1.226-3.537,2.44-5.308,3.656q1.225-1.307,2.462-2.611c1.271-1.346-.768-3.388-2.033-2.033-2.8,2.991-5.56,6.018-8.49,8.884a1.615,1.615,0,0,0,1.129,2.724,7.671,7.671,0,0,0,4.95-1.833Q319.2,331.76,318,333.423c-.813,1.12.326,2.31,1.4,2.449,1.3.165,2.21-.826,3.082-1.636.139-.129.281-.258.42-.387-.742,1.071-1.455,2.159-2.1,3.295-.823,1.446-1.9,3.078-.933,4.715a1.58,1.58,0,0,0,2.127.558,17.1,17.1,0,0,0,3.646-3.446c.481-.516.958-1.036,1.439-1.549-2.043,2.7-4.121,5.518-4.8,8.855-.287,1.417,1.5,2.775,2.614,1.523.723-.813,1.446-1.63,2.172-2.44-.042.2-.077.407-.1.616-.148,1.281,1.265,1.907,2.285,1.739a4.351,4.351,0,0,0,1.181-.394,1.816,1.816,0,0,0,1.778,2.252c3.308-.365,5.392-2.575,7.564-4.879a36.835,36.835,0,0,1,3.149-2.927.867.867,0,0,0,1.384.39,18.482,18.482,0,0,0,4.195-4.792,1.683,1.683,0,0,0-2.285-2.285c-.742.423-1.462.887-2.168,1.375,1.736-1.9,3.466-3.817,5.15-5.77C350.544,329.135,348.795,326.366,346.868,327.663Z" transform="translate(-223.832 -230.012)" fill="#eb8486"/>
    <path id="Path_17996" data-name="Path 17996" d="M349.4,52.31c-2.369,1.581-4.647,3.337-6.87,5.15a51.984,51.984,0,0,0,4.824-6.063c1.21-1.826-1.388-3.53-2.885-2.227q-2.411,2.1-4.731,4.285c1-1.365,2.007-2.733,3.033-4.085,1-1.317-.965-3.22-2.281-2.281a94.262,94.262,0,0,0-7.532,6c1.339-1.8,2.7-3.579,4.1-5.328.939-1.175-.226-3.062-1.7-2.2a71.164,71.164,0,0,0-9.368,6.712c2.381-2.778,4.766-5.56,7.261-8.235,1.039-1.113-.319-3.1-1.691-2.191-2.462,1.633-4.9,3.285-7.435,4.769.952-1.016,1.93-2.01,2.966-2.962,1.1-1.016-.358-2.985-1.63-2.11a32.77,32.77,0,0,0-8.845,9.055c-.994,1.53.891,2.859,2.259,2.259a49.974,49.974,0,0,0,4.831-2.462c-.352.387-.707.768-1.058,1.158-2.481,2.762-5.276,5.834-6.38,9.448-.416,1.368,1.507,2.594,2.485,1.446a28.321,28.321,0,0,1,4.114-4.2q2.241-1.752,4.437-3.546c.6-.494,1.22-.975,1.836-1.452-3.375,4.156-6.76,8.313-9.8,12.72a1.555,1.555,0,0,0,1.739,2.262,11.26,11.26,0,0,0,4.734-3.495c1.513-1.71,3.072-3.375,4.7-4.982q-1.684,2.217-3.366,4.431c-1.268,1.672-2.527,3.408-1.826,5.6a1.908,1.908,0,0,0,1.071,1.11c-.449,1.217.323,2.988,1.836,2.8,2.427-.3,4.043-1.7,5.737-3.359q2.749-2.682,5.628-5.228c.507-.449,1.029-.874,1.542-1.313-.681,1.062-1.346,2.136-1.991,3.24-.526.9.626,1.617,1.352,1.042a44.045,44.045,0,0,0,6.3-6.06c1.9-2.23,3.55-4.669,5.305-7.015,1.191-1.591-1.12-3.75-2.7-2.7Z" transform="translate(-225.401 -41.324)" fill="#eb8486"/>
    <path id="Path_17997" data-name="Path 17997" d="M71.44,92.681c-4.773,3.663-8.538,8.19-12.172,12.853,2.2-3.914,4.489-7.787,6.547-11.775a1.692,1.692,0,0,0-2.646-2.039,64.679,64.679,0,0,0-4.873,5q.615-1.06,1.233-2.12a1.622,1.622,0,0,0-2.536-1.956q-3.233,2.865-6.167,6.031,1.394-2.377,2.814-4.74a1.487,1.487,0,0,0-2.327-1.794l-6.567,6.9c-.613.642-1.22,1.323-1.836,2a23.383,23.383,0,0,1,2.275-3.763c.6-.791-.707-1.778-1.368-1.055a26.448,26.448,0,0,0-6.238,9.981,1.555,1.555,0,0,0,2.262,1.739,23.564,23.564,0,0,0,3.9-3.411,24.864,24.864,0,0,0-2.853,7.151c-.31,1.578,1.839,2.678,2.707,1.142a52.073,52.073,0,0,1,6.205-8.345c-1.784,2.969-3.7,6.021-4.434,9.429a1.683,1.683,0,0,0,2.046,2.046c2.23-.568,3.379-2.953,4.55-4.724.384-.581.765-1.162,1.149-1.743a26.67,26.67,0,0,0-2.307,6.88A1.73,1.73,0,0,0,53.95,117.7c2.688-3.692,5.7-7.206,8.642-10.72a61.332,61.332,0,0,0-4.585,10.058c-.571,1.691,1.868,3.156,3.053,1.778.916-1.071,1.846-2.13,2.74-3.22a15.064,15.064,0,0,0,2.123-3.482.98.98,0,0,0-1.01-1.42c2.746-5.315,5.95-10.426,9.01-15.528.871-1.452-.984-3.627-2.481-2.481Z" transform="translate(-36.64 -75.134)" fill="#eb8486"/>
    <g id="Group_17198" data-name="Group 17198" transform="translate(19.944 22.571)">
      <path id="Path_17998" data-name="Path 17998" d="M232.293,204.27c-.236.232-.471.465-.707.7q-5.852,7.13-11.685,14.276a1.676,1.676,0,0,1-.3,1.126c-3.795,5.537-7.461,11.11-10.852,16.87q11.994-15.959,23.969-31.937a2.94,2.94,0,0,1-.423-1.036Z" transform="translate(-172.561 -174.26)" fill="none"/>
      <g id="Group_17197" data-name="Group 17197">
        <path id="Path_17999" data-name="Path 17999" d="M232.293,204.27c-.236.232-.471.465-.707.7q-5.852,7.13-11.685,14.276a1.676,1.676,0,0,1-.3,1.126c-3.795,5.537-7.461,11.11-10.852,16.87q11.994-15.959,23.969-31.937a2.94,2.94,0,0,1-.423-1.036Z" transform="translate(-172.561 -174.26)" fill="none"/>
        <g id="Group_17196" data-name="Group 17196">
          <path id="Path_18000" data-name="Path 18000" d="M373.334,180.86c-1.439,1.4-2.856,2.83-4.282,4.247-.174.232-.339.471-.513.7q-1.689,2.246-3.379,4.489a105.6,105.6,0,0,0,8.177-9.439Z" transform="translate(-278.499 -158.404)" fill="none"/>
          <path id="Path_18001" data-name="Path 18001" d="M232.293,204.27c-.236.232-.471.465-.707.7q-5.852,7.13-11.685,14.276a1.676,1.676,0,0,1-.3,1.126c-3.795,5.537-7.461,11.11-10.852,16.87q11.994-15.959,23.969-31.937a2.94,2.94,0,0,1-.423-1.036Z" transform="translate(-172.561 -174.26)" fill="none"/>
          <path id="Path_18002" data-name="Path 18002" d="M298.134,231.21q-10.475,11.065-20.3,22.717l.039-.019c4.666-4.882,9.4-9.707,14.1-14.56q3.437-3.548,6.828-7.138A1.624,1.624,0,0,1,298.134,231.21Z" transform="translate(-219.35 -192.507)" fill="none"/>
          <path id="Path_18003" data-name="Path 18003" d="M183.97,348.537c3.637-3.375,6.676-7.47,9.945-11.194q5.078-5.789,10.291-11.462c.642-.7,1.291-1.388,1.936-2.081a35.982,35.982,0,0,1-13.921,3.191,2.648,2.648,0,0,1-2.652-1.407c-.155-.013-.307-.01-.458-.026-.894-.081-1.855-.171-2.843-.29-1.478,2.072-2.959,4.137-4.414,6.225q-3.379,4.84-6.686,9.729c-1.1,1.623-2.3,3.224-3.285,4.918-.884,1.513-1.433,3.495-.274,5.024a2.58,2.58,0,0,0,.487.487,2.118,2.118,0,0,0,3.143,2.059,21.372,21.372,0,0,0,5.441-5.347,2.413,2.413,0,0,0,3.3.174Z" transform="translate(-146.958 -255.219)" fill="#eac485"/>
          <path id="Path_18004" data-name="Path 18004" d="M201.515,147.829a53.82,53.82,0,0,0-.632-6.528q-5,5.436-9.939,10.942,3.969-5.378,7.7-10.92c1.313-1.959-1.781-4.411-3.308-2.549-2.31,2.824-4.673,5.6-7.057,8.351a2.215,2.215,0,0,0-1.329-1.8c3.721-4.237,7.3-8.735,9.513-13.9.745-1.736-1.665-3.285-2.611-1.526a32.408,32.408,0,0,1-1.726,2.807,1.915,1.915,0,0,0-.19-1.494c1.236-1.794,2.469-3.595,3.73-5.373.8-1.129-1.033-2.559-1.93-1.488-2.114,2.527-4.272,5.011-6.4,7.522-1.975,1.936-3.947,3.876-5.892,5.844,1.207-1.542,2.4-3.091,3.572-4.66a33.31,33.31,0,0,0,5.312-9.71,2.213,2.213,0,0,0-3.672-2.139q-1.922,2.1-3.8,4.227c.862-1.352,1.7-2.717,2.5-4.111a1.916,1.916,0,0,0-.329-2.307,3.294,3.294,0,0,1-2.975,1.078,16.3,16.3,0,0,1-3.9-1.062c-.287.329-.571.662-.862.987a2.237,2.237,0,0,0-2.633-1.094c.332-.4.662-.8.994-1.2a13.087,13.087,0,0,1-3.014-2.682q-4.037,3.746-7.941,7.622a2.413,2.413,0,0,0-.526-.484c1.939-2.572,3.814-5.189,5.56-7.9,1.2-1.872-1.63-4.127-3.117-2.407-8.038,9.293-15.757,18.887-23.237,28.658q-9.066,9.313-17.877,18.864a1.624,1.624,0,0,0-1.791.523q-3.016,3.345-5.844,6.825-10.436,12.183-20.81,24.415c-1.413,1.665.978,4.089,2.414,2.414q.886-1.012,1.772-2.03a1.7,1.7,0,0,0,1.591,1.736c-.91,1.51-1.8,3.036-2.653,4.585a1.729,1.729,0,0,0,2.7,2.085,29.918,29.918,0,0,0,2.794-2.549c-.19.3-.381.61-.571.913-1.129,1.8,1.63,4.043,3,2.32q5.116-6.409,10.258-12.795c-3.24,5.625-6.312,11.346-9.164,17.187a2.046,2.046,0,0,0,3.53,2.062c1.391-1.852,2.8-3.688,4.214-5.528,2.727-1.065,4.44-4.163,6.154-6.363q3.069-3.945,6.1-7.912c1.591-2.078,3.162-4.169,4.744-6.254-3.566-.574-7.225-1.659-9.471-4.143-2.714-3,1.73-7.467,4.453-4.453,1.817,2.007,6.134,2.6,9.377,2.849,1.078-1.423,2.162-2.843,3.24-4.269q1.186-1.563,2.372-3.13,10.165-12.27,20.423-24.457a26.968,26.968,0,0,0-4.085.365,3.545,3.545,0,0,1-3.485-1.494q-11.975,15.973-23.969,31.937c3.391-5.76,7.06-11.333,10.852-16.87a1.676,1.676,0,0,0,.3-1.126q5.833-7.149,11.685-14.276c.236-.232.471-.465.707-.7a3.1,3.1,0,0,1,.845-2.733c1.833-2.036,5.124-2.824,7.774-2.662a5.45,5.45,0,0,1,4.008,2.02q1.98-2.377,3.959-4.756-1.873,2.5-3.821,4.947c.013.019.026.035.039.052a11.145,11.145,0,0,1,3.162,1.823,3.17,3.17,0,0,1,0,4.453,3.244,3.244,0,0,1-4.453,0,5.269,5.269,0,0,0-3.066-.955c-2.549,3.14-5.111,6.267-7.6,9.432q-8.717,11.1-17.015,22.517c.084,0,.171.01.248.013a31.46,31.46,0,0,0,14.669-2.74q9.831-11.641,20.3-22.717a1.624,1.624,0,0,0,.658,1q-3.388,3.592-6.828,7.138c-4.7,4.853-9.429,9.677-14.1,14.56.507-.229,1.01-.458,1.507-.716,3.02-1.555,6.725,2.611,3.817,4.947-.21.171-.426.326-.642.487l0,0a.1.1,0,0,0-.026.013,24.59,24.59,0,0,1-3.982,2.43q-6.82,8.408-13.356,17.045-5.591,7.425-10.9,15.06c-1.549,2.236,2.1,4.343,3.643,2.13A265.09,265.09,0,0,1,158.1,186.013c-2.036,2.443-4.056,4.9-6.038,7.377-4.159,5.205-8.342,10.462-11.568,16.315a2.113,2.113,0,0,0,1.8,3.14c2.885.2,4.673-2.239,6.28-4.24.368-.455.739-.91,1.107-1.365a12.972,12.972,0,0,0-1.162,4.218c-.168,1.8,2.562,2.985,3.714,1.539,5.989-7.519,11.94-15.083,18.029-22.527-1.533-5.111-.142-12.575,6.3-12.356a6.958,6.958,0,0,1,3.23,1q2.459-2.841,4.963-5.644c-.629.865-1.249,1.739-1.891,2.6-.842,1.126-1.7,2.243-2.549,3.362,1.426.916,2.714,2.139,3.972,3.13.129.1.258.2.394.3q.939-1.07,1.875-2.139c-.529.784-1.068,1.565-1.607,2.343a21.806,21.806,0,0,1,3.433,3c1.375-1.972,2.724-3.963,4.024-5.989,2.362-3.682,4.611-7.435,6.818-11.21a3.192,3.192,0,0,1-.187-1.917c.578-2.943,1.117-5.9,1.549-8.871a2.468,2.468,0,0,0-.268.255c-.4.461-.8.929-1.2,1.394q.8-1.22,1.584-2.452c.148-1.078.274-2.159.39-3.243a2.133,2.133,0,0,0-3.043-.184c-.745.7-1.465,1.423-2.2,2.133q2.875-3.945,5.65-7.954c0-.071.006-.142.01-.213Zm-18.258-4.663q1.689-2.246,3.379-4.489c.174-.232.342-.471.513-.7,1.426-1.417,2.843-2.843,4.282-4.247a105.592,105.592,0,0,1-8.177,9.439Z" transform="translate(-96.603 -111.271)" fill="#eac485"/>
          <path id="Path_18005" data-name="Path 18005" d="M299.222,363.68a9.238,9.238,0,0,1-1.823-2.3,8.967,8.967,0,0,1-.4-.829q-1.985,2.478-3.988,4.944c-3.149,3.882-6.267,7.793-9.429,11.668a2.01,2.01,0,0,0,0,2.759,1.966,1.966,0,0,0,2.759,0q6.665-7.7,13.369-15.357a9.646,9.646,0,0,1-.481-.884Z" transform="translate(-222.871 -280.11)" fill="#eac485"/>
        </g>
      </g>
    </g>
    <path id="Path_18006" data-name="Path 18006" d="M129.5,75.491a3.33,3.33,0,0,1,3.453,1.565l6.967-9.339c1.117-1.5-1.291-3.269-2.556-1.972q-4.434,4.55-8.713,9.239a4.3,4.3,0,0,1,.849.5Z" transform="translate(-98.365 -57.56)" fill="#eac485"/>
    <path id="Path_18007" data-name="Path 18007" d="M50.914,173.027c2.54-3.353,5.144-6.66,7.78-9.939-.081-.035-.161-.068-.242-.11a15.708,15.708,0,0,1-2.388-1.549q-3.911,5-7.651,10.132c-1.1,1.52,1.4,2.92,2.5,1.462Z" transform="translate(-43.833 -122.673)" fill="#eac485"/>
    <path id="Path_18008" data-name="Path 18008" d="M125.033,54.015c-1.533,1.43-3.033,2.891-4.543,4.347q1.113-1.849,2.227-3.708a1.776,1.776,0,0,0-2.778-2.143q-4.25,4.5-8.39,9.1c2.665-3.985,5.257-8.022,7.728-12.133a1.752,1.752,0,0,0-2.74-2.114q-2.11,1.96-4.189,3.956c.51-.684,1.023-1.362,1.53-2.049,1.275-1.733-1.475-3.74-2.933-2.262Q98.383,59.721,86.384,72.96c1.843-2.262,3.675-4.531,5.524-6.786q7.241-8.834,14.544-17.616c1.091-1.31-.323-3.64-1.959-2.54-.219.148-.432.3-.652.449.165-1.494-2-2.594-3.3-1.468q-10.707,9.284-20.6,19.468c.19-.265.381-.529.568-.794q5.353-7.5,10.629-15.057a1.787,1.787,0,0,0-.461-2.317,1.831,1.831,0,0,0-2.359.142,155.784,155.784,0,0,0-18.661,17.7,22.313,22.313,0,0,1-.278,5.518c2.856-3.22,5.779-6.38,8.822-9.426.3-.3.61-.591.913-.891q-5.426,7.619-10.884,15.215c-2.862,9.332-9.571,18.316-17.874,9.965a3.038,3.038,0,0,1-.371-.458c-.074-.032-.148-.068-.223-.1-2.365,3.295-4.7,6.605-6.983,9.958-2.7,3.972-5.3,8.009-7.767,12.13-.923,1.539,1.371,3.443,2.556,1.972.2-.245.4-.487.594-.733l-1.446,1.881c-1.113,1.449,1.323,3.311,2.53,1.952q5.692-6.4,11.488-12.714-6.205,8.171-11.94,16.69a1.62,1.62,0,0,0,1.239,2.546q-1.442,2.575-2.875,5.157c-1.01,1.83,1.572,4.066,3.014,2.327q4.269-5.145,8.564-10.274a70.765,70.765,0,0,0-7.767,12.633,1.679,1.679,0,0,0,2.9,1.694Q56.64,112.6,70.3,96.7a2.454,2.454,0,0,1,.913-1.452c.294-.229.594-.455.9-.674Q77.261,88.618,82.5,82.75q-4.564,5.494-9.113,11a22.05,22.05,0,0,1,6.225-2.614,8.146,8.146,0,0,1,4.65.174q4.618-6.205,9.29-12.369a1.464,1.464,0,0,0-.6-2.178q4.013-4.535,8.135-8.971,3.495-3.746,7.1-7.393C100.94,71.156,93.044,81.459,85.042,91.682a4.459,4.459,0,0,1,2.217,4.372c-.152,3.337-4.466,3.917-5.863,1.743a2.944,2.944,0,0,1-1.665,1.058c-.132.035-.274.081-.41.119q-5.179,6.588-10.3,13.211,2.783-3.877,5.589-7.738c1.258-1.733,2.536-3.45,3.8-5.176a16.582,16.582,0,0,1-4.969,1.355,3.456,3.456,0,0,1-3.182-3.075c-4.789,5.844-9.529,11.727-14.134,17.716-4.982,6.48-9.807,13.082-14.366,19.865a1.909,1.909,0,0,0,.678,2.582,1.931,1.931,0,0,0,2.582-.678c7.077-9.4,14.169-18.806,21.407-28.1q-2.9,4.574-5.57,9.287a82.088,82.088,0,0,0-5.934,9.929,1.777,1.777,0,0,0-.032,1.471c-.81,1.688-1.584,3.391-2.31,5.115-.307.452-.623.9-.926,1.355a1.661,1.661,0,0,0-.177,1.4,80.287,80.287,0,0,0-2.54,7.69c-.568,2.091,2.133,2.959,3.295,1.391,9.255-12.508,18.69-24.876,28.442-37C89.992,98,99.863,86.852,108.95,75.09c.471-.61.926-1.236,1.394-1.852.236-.242.465-.49.7-.733.558-.574,1.136-1.129,1.7-1.7-2.456,3-4.95,5.96-7.38,8.948q-10.562,13-21.123,26-5.988,7.372-11.978,14.747c-1.41,1.736,1.055,4.23,2.478,2.478Q96.019,96.766,117.275,70.54A131.031,131.031,0,0,0,127.73,56.1a1.73,1.73,0,0,0-2.7-2.088ZM76.9,75.044Q64.262,90.219,51.624,105.4q-.77.925-1.539,1.846,1.665-3.054,3.346-6.1,1.854-2.536,3.7-5.079A358.582,358.582,0,0,1,83.551,66.19q1.152-.992,2.32-1.968C82.905,67.848,79.9,71.44,76.9,75.041Z" transform="translate(-34.798 -43.499)" fill="#eac485"/>
  </g>
  <g id="Group_17200" data-name="Group 17200">
    <path id="Path_18009" data-name="Path 18009" d="M187.207,95.692c-.074-8.251-1.158-15.818-4.263-22.995a30.42,30.42,0,0,0-2.1-4.095c-1.72-2.733-2.152-2.782-5.063-1.355q-2.836,1.389-5.744,2.62c-3.5,1.494-6.354.536-8.651-2.411-4.472-5.728-7.877-12.011-7.838-19.41.023-4.043-1.536-6.205-5.173-6.97a152.977,152.977,0,0,0-15.26-2.682c-3.162-.332-5.3-1.184-4.74-2.811.836-2.436,3.249-1.839,4.982-1.578A126.49,126.49,0,0,1,149.7,37.139c3.237.936,5.466,1.607,7.838-1.63,1.988-2.714,5.315-3.721,8.726-3.763,3.466-.045,6.5,1.081,8.377,4.147,1.055,1.72,2.123,2.369,4.192,1.781a10.274,10.274,0,0,1,8.774,1.707,10.077,10.077,0,0,1,4.079,11.639c-.329.884-1.533,1.439-2.336,2.146-.584-.862-1.22-1.694-1.72-2.6-.142-.261.165-.736.171-1.117.113-5.883-3.856-8.942-9.293-7.177-1.584.513-3.488,1.791-4.673,1.31-1.168-.474-1.743-2.682-2.343-4.221a4.664,4.664,0,0,0-4.343-3.185c-3.637-.316-7.173,1.4-8.309,4.882a21.842,21.842,0,0,0-.981,8.435c.436,5.069,2.685,9.59,5.663,13.695,2.43,3.346,3.475,3.672,7.277,1.826a75.966,75.966,0,0,0,6.9-4.159,27,27,0,0,1,3.369-2.2,3.012,3.012,0,0,1,2.582.084,2.48,2.48,0,0,1,.268,2.44,3.274,3.274,0,0,0-.071,4.163c8.309,13.789,8.877,28.755,6.286,44.073A100.69,100.69,0,0,1,186.5,122.74c-.736,2.33-1.246,3.876,1.291,5.85,5.224,4.069,5.86,13.524,1.791,18.664a5.141,5.141,0,0,1-1.746,1.439,1.731,1.731,0,0,1-1.572-.106,2.688,2.688,0,0,1-.923-1.878c.129-.9.942-1.681,1.142-2.588.568-2.594,1.488-5.257,1.326-7.832-.274-4.4-4.389-6.47-8.451-4.7-.352.152-.684.349-1.023.529q-4.072,2.172-6.322-1.968a7.538,7.538,0,0,0-8.748-3.908,6.425,6.425,0,0,0-4.915,7.435,25.905,25.905,0,0,0,2.7,8.074c1.72,3.421,4.082,6.515,5.883,9.9,1.2,2.265,2.6,2.41,4.7,1.484a61.8,61.8,0,0,1,7.532-2.872,3.321,3.321,0,0,1,2.949.7c1.039,1.51-.294,2.5-1.559,3.043-3.708,1.581-7.441,3.111-11.22,4.518-2.091.778-3.753.042-4.753-2.023-.5-1.036-1.02-2.068-1.584-3.072a1.855,1.855,0,0,0-2.885-.749c-.5.29-1.016.545-1.526.813-13.647,7.093-28.113,8.926-43.131,6.322-14.208-2.465-25.757-9.648-34.944-20.7-.123-.148-.252-.294-.358-.452-.949-1.394-2.649-2.969-.9-4.5,1.885-1.652,3.062.445,4.066,1.691a52.369,52.369,0,0,0,21.343,16.247c17.6,7.044,34.941,5.954,51.86-2.407,3.095-1.53,2.943-1.688,1.375-4.808a46.974,46.974,0,0,1-3.469-7.864c-1.636-5.686.336-10.968,4.689-13.685,4.621-2.888,10.291-2.2,14.8,1.994,1.423,1.326,2.588,3.2,4.75,1.8a7.845,7.845,0,0,0,2.8-3.308,72.135,72.135,0,0,0,5.75-28.129Z" transform="translate(-53.163 -21.502)" fill="#262c54"/>
    <path id="Path_18010" data-name="Path 18010" d="M34.61,101.764A56.565,56.565,0,0,1,38.066,83.7c.845-2.307,2.207-4.55-.216-6.841-.342-.323.042-1.791.5-2.436.248-.352,1.5-.342,2.062-.042,1.346.72,2.488,1.807,3.817,2.559a108.663,108.663,0,0,0,10.629,5.7c3.137,1.339,5.2.736,6.909-2.246,2.365-4.124,4.134-8.6,6.1-12.946a6.14,6.14,0,0,0,.381-2.262c.113-3.324-1.475-6.031-4.04-7-2.711-1.023-5.418-.19-7.674,2.359a4.707,4.707,0,0,1-6.3,1.165,7.985,7.985,0,0,0-10.416,3.053,7.825,7.825,0,0,0-.745,2.165c-.326,1.607-.729,3.288-2.856,2.559-1.9-.649-1.546-2.417-1.252-3.947,1.123-5.834,7.706-10.223,14.144-8.9,2.675.549,4.4-.129,6.76-1.2,4.118-1.865,7.412-4.64,10.9-7.29,6.793-5.16,14.737-7.264,23.021-8.377.381-.052.871-.219,1.126-.052.865.568,1.643,1.262,2.456,1.91-.568.684-1.023,1.784-1.726,1.978-2.4.665-4.886,1-7.335,1.478a39.033,39.033,0,0,0-15.68,6.938c-1.533,1.12-2.072,2.068-.294,3.514,4.5,3.663,4.747,8.619,3.54,13.689a38.976,38.976,0,0,1-7.064,14.4c-2.72,3.611-6.341,4.95-10.688,3.291-2.678-1.023-5.25-2.33-7.845-3.566-2.717-1.294-3.075-1.271-4.111,1.665-2.578,7.325-4.085,14.808-2.814,22.624.094.568.229,1.133.284,1.7.148,1.526.51,3.437-1.62,3.63-1.926.177-2.417-1.678-2.63-3.2-.371-2.656-.539-5.344-.791-8.019Z" transform="translate(-23.433 -26.852)" fill="#262c54"/>
    <path id="Path_18011" data-name="Path 18011" d="M170.719,293.764c-2.075-1.284-4.247-2.443-6.176-3.921a3.362,3.362,0,0,1-1.217-2.778c.526-1.7,2.043-1.4,3.33-.7,12.3,6.654,24.844,5.15,37.458,1.1a44.373,44.373,0,0,1,4.924-1.591,3.019,3.019,0,0,1,2.511.729,2.9,2.9,0,0,1,.145,2.614c-4.011,7.332-9.235,13.408-18.032,14.75-8.048,1.226-15.66-.594-22.795-4.443a4.089,4.089,0,0,1-1.426-.955c-.733-1.016-1.313-2.139-1.956-3.217q1.655-.842,3.314-1.688c7.667,6.441,16.367,7.835,25.767,4.969,1.936-.591,3.637-2.091,5.292-3.369.629-.487.829-1.533,1.226-2.323-.736-.052-1.471-.113-2.21-.142a1.854,1.854,0,0,0-.555.142,51.759,51.759,0,0,1-26.764.855,13.506,13.506,0,0,0-2.846-.026Z" transform="translate(-110.591 -193.582)" fill="#262c54"/>
    <path id="Path_18012" data-name="Path 18012" d="M55.164,321.616c-2.7-.8-5.153-1.333-7.467-2.233-25.405-9.9-40.707-28.561-47.216-54.741A25.822,25.822,0,0,1,0,258.379c0-.5.881-1.333,1.449-1.42a2.146,2.146,0,0,1,1.833.907A28.4,28.4,0,0,1,4.411,262.3c4.85,22.308,17,39.191,37.364,49.814,3.711,1.936,7.822,3.111,11.759,4.6.71.268,1.517.29,2.23.552,1.3.481,2.746,1.178,1.956,2.82-.371.774-1.739,1.071-2.559,1.53Z" transform="translate(0.005 -174.034)" fill="#262c54"/>
    <path id="Path_18013" data-name="Path 18013" d="M156.413,190.383c-.065,4.45-1.523,5.25-4.466,3.675-1.013-.542-1.952-1.22-2.956-1.775-3.4-1.881-6.767-2.414-10.32-.187a21.3,21.3,0,0,1-4.75,1.8c-2.843.933-4,.113-3.834-2.63.361-6.015,6.88-13.017,12.882-13.837,4.957-.678,9.342,1.41,11.375,5.925a44.241,44.241,0,0,1,2.072,7.028Zm-5.486-3.3a6.983,6.983,0,0,0-.207-1.352,6.2,6.2,0,0,0-4.582-3.976c-3.233-.762-8.28,1.852-9.558,5-.077.194.616.968.713.926a16.292,16.292,0,0,1,12.353-.1c.339.119.881-.336,1.278-.5Z" transform="translate(-88.098 -120.089)" fill="#262c54"/>
    <path id="Path_18014" data-name="Path 18014" d="M290.229,190.42c-.455.9-.774,2.582-1.665,2.978s-2.54-.219-3.527-.884c-4.631-3.117-9.068-3.785-13.727.029-1.775,1.452-4.469,2.54-6.315,1.068-2.033-1.623-.842-4.36.129-6.4a25,25,0,0,1,3.956-6.273c6.567-7.1,16.341-5.073,19.784,4.014a49.473,49.473,0,0,1,1.362,5.46Zm-18.374-3.446a14.258,14.258,0,0,1,10.994-.578c.4.132.971-.248,1.465-.394a5.59,5.59,0,0,0-.5-1.584c-3.572-5.066-9.81-4.492-12.953,1.184a1.269,1.269,0,0,0-.135,1.036c.142.223.652.21,1.136.336Z" transform="translate(-178.728 -119.661)" fill="#262c54"/>
    <path id="Path_18015" data-name="Path 18015" d="M440.18,159.592a38.379,38.379,0,0,0-3.414-18.622c-.907-1.91.145-3.888,1.43-3.343a5.18,5.18,0,0,1,2.749,2.543c1.31,3.766,2.836,7.6,3.224,11.507.578,5.86.268,11.81.31,17.725a2.7,2.7,0,0,1-.294,1.652A18.576,18.576,0,0,1,441.758,173c-.526-.729-1.465-1.439-1.5-2.2-.168-3.237-.071-6.483-.071-11.214Z" transform="translate(-295.593 -93.154)" fill="#262c54"/>
    <path id="Path_18016" data-name="Path 18016" d="M165.219,2.479c-.987.687-1.652,1.484-2.44,1.63a24.7,24.7,0,0,1-4.589.239,50.836,50.836,0,0,0-22.4,4.576c-.52.248-1.049.481-1.581.7-1.317.555-2.74.91-3.5-.658-.781-1.607.523-2.507,1.71-3.133,9.11-4.792,18.939-6.073,29.061-5.8a4.625,4.625,0,0,1,2.194.52c.565.342.891,1.078,1.542,1.923Z" transform="translate(-88.372 -0.001)" fill="#262c54"/>
    <path id="Path_18017" data-name="Path 18017" d="M46.366,288.985a4.354,4.354,0,0,1,1.284,1.175c1.8,3.366,3.6,6.741,5.147,10.226.358.807-.278,2.052-.455,3.095-1-.352-2.5-.407-2.9-1.1a110.143,110.143,0,0,1-5.412-10.684A1.99,1.99,0,0,1,46.366,288.985Z" transform="translate(-29.697 -195.712)" fill="#262c54"/>
    <path id="Path_18018" data-name="Path 18018" d="M447,272.9c-.591,2.1-1.371,5.257-2.43,8.313a2.523,2.523,0,0,1-2.207,1.165,2.554,2.554,0,0,1-1.4-2.088,101.436,101.436,0,0,1,2.243-10.071,2.566,2.566,0,0,1,1.994-1.507c.629.077,1.175,1.2,1.652,1.943.181.278.065.745.142,2.243Z" transform="translate(-298.66 -181.997)" fill="#262c54"/>
    <path id="Path_18019" data-name="Path 18019" d="M6.463,199.842a47.962,47.962,0,0,1-.862,5.211,2.195,2.195,0,0,1-1.655,1.229A2.181,2.181,0,0,1,2.187,205.2c-.9-2.882-.207-5.657,1.075-8.277a1.605,1.605,0,0,1,1.459-.571,2.919,2.919,0,0,1,1.555,1.352A6.153,6.153,0,0,1,6.463,199.842Z" transform="translate(-1.205 -132.972)" fill="#262c54"/>
  </g>
</svg>
