<svg id="_31" data-name="31" xmlns="http://www.w3.org/2000/svg" width="153.543" height="150.402" viewBox="0 0 153.543 150.402">
  <g id="Group_17208" data-name="Group 17208" transform="translate(14.518 16.122)">
    <path id="Path_18071" data-name="Path 18071" d="M376.734,252.21a8.192,8.192,0,0,0-3.207.865q-1.81.731-3.6,1.488-3.383,1.428-6.706,2.982c-1.262.591-2.514,1.2-3.763,1.82a3.2,3.2,0,0,1,.236,1.113,12.653,12.653,0,0,1-1.839,6.893l1.407-.891q8.19-5.189,16.38-10.381a1.5,1.5,0,0,0,.739-1.552,5.4,5.4,0,0,0,1-.778A.923.923,0,0,0,376.734,252.21Z" transform="translate(-256.892 -186.946)" fill="#eac485"/>
    <path id="Path_18072" data-name="Path 18072" d="M327.71,214.54q-3.9,2.115-7.745,4.311c2.239-1.342,4.479-2.688,6.731-4.014a1.565,1.565,0,0,0,.594-2.214c.907-.613,1.81-1.229,2.678-1.888a1.456,1.456,0,0,0-.345-2.488c.068-.7-.639-1.52-1.391-1.226a79.848,79.848,0,0,0-10.6,5.621c-3.514,2.036-6.967,4.179-10.4,6.338-6.877,4.321-13.618,8.861-20.252,13.543-.032.023-.065.048-.1.071a52.845,52.845,0,0,0,8.261-1.7c4.543-1.352,8.516-3.834,13.33-4.224a2.864,2.864,0,0,1,2.565,1.375c6.057-3.643,12.14-7.254,18.271-10.778,1.768-1.016.194-3.7-1.6-2.733Z" transform="translate(-208.823 -156.298)" fill="#eac485"/>
    <path id="Path_18073" data-name="Path 18073" d="M239.2,271.982q-9.337,5.649-18.555,11.5c-3.062,3.137-7.38,5.37-11.3,7.37-.161.084-.316.168-.471.252-.555.368-1.116.726-1.672,1.094l-1.743,1.094a19.808,19.808,0,0,0-5.889,8.187c-1.762,4.014-3.924,7.506-7.945,9.577a13.073,13.073,0,0,1-6.138,1.607c-.361.19-.726.381-1.087.574-.591.313-1.178.632-1.768.955h0c.177-.136.361-.261.539-.394.574-.387,1.158-.768,1.733-1.152-4.869-.31-8.716-3.959-12.056-8.138q-3.5,2.919-6.944,5.908a1.6,1.6,0,0,0-.139,2.2q-3.19,1.989-6.4,3.953c-1.6.981-.581,3.708,1.313,3.114,1.565-.494,3.114-1.046,4.65-1.626a.41.41,0,0,0,.042.036,3.639,3.639,0,0,0,3.466.21c.9-.332,1.778-.733,2.649-1.149a1.585,1.585,0,0,0,1.339.277,1.627,1.627,0,0,0,.11.716c-1.036.878-2.059,1.768-3.037,2.691a1.42,1.42,0,0,0,1.713,2.22c4.237-2.727,8.9-4.924,13.379-7.254-.578.445-1.152.894-1.733,1.333-1.471,1.117-.1,3.633,1.484,2.543.645-.442,1.3-.868,1.956-1.3a1.424,1.424,0,0,0,1.872.145q3.616-2.26,7.225-4.521a1.715,1.715,0,0,0,2.278,2.433l.878-.51a1.609,1.609,0,0,0,2.217.542q2.323-1.292,4.644-2.585a1.516,1.516,0,0,0,2.3.765c7.535-4.811,15.025-9.694,22.521-14.569a1.72,1.72,0,0,0,.374-2.614l2.236-1.423a1.705,1.705,0,0,0-1.72-2.943q-2.1,1.215-4.2,2.433c2.478-1.788,4.96-3.563,7.435-5.357a1.745,1.745,0,0,0,.232-2.63c1.062-.668,2.133-1.32,3.191-1.991a1.685,1.685,0,0,0-1.7-2.907q-12.019,6.859-23.569,14.482c-2.3,1.371-4.614,2.72-6.925,4.072,9.122-6.341,18.7-12.056,28.21-17.774a1.744,1.744,0,0,0-1.759-3.011c-1.51.791-3.014,1.594-4.514,2.4q6.447-4.032,12.891-8.064c1.73-1.084.155-3.811-1.6-2.746Z" transform="translate(-121.917 -200.187)" fill="#eac485"/>
    <path id="Path_18074" data-name="Path 18074" d="M66.76,127.687c-2.294-3.359,3.166-6.505,5.437-3.178.136.2.284.39.42.587,2.924.032,5.844.161,8.764.332.787-.681,1.568-1.368,2.359-2.046-.284.313-.565.629-.845.945-.4.371-.794.745-1.191,1.117,3.5.207,7,.471,10.5.729,1.326-1.107,2.636-2.227,3.969-3.327q-1.8,1.665-3.566,3.356c4.282.313,8.564.594,12.853.72q10.363-8.083,21.127-15.654c.82-.49,1.646-.975,2.469-1.465q-11.743,8.582-23.514,17.122c1.959.058,3.921.09,5.883.065a102.078,102.078,0,0,0,11.168-.671c1.7-1.329,3.395-2.662,5.1-3.979q8.819-6.05,17.88-11.743,9.381-5.876,19.006-11.352c1.794-1.02.184-3.782-1.62-2.769l-.116.068a1.1,1.1,0,0,0-1.523-1.42c-.407.2-.807.4-1.213.6a1.36,1.36,0,0,0-.52.255c-.013.006-.026.016-.039.023-4.64,2.327-9.168,4.921-13.627,7.619q6.641-4.487,13.314-8.935c1.1-.736.087-2.52-1.049-1.794q-2.1,1.346-4.208,2.694a1.746,1.746,0,0,0-.852-2.407c3.217-2.136,6.434-4.272,9.626-6.444,1.752-1.191.155-4.024-1.678-2.872q-4.927,3.088-9.816,6.231,4.41-3.137,8.838-6.247a1.577,1.577,0,0,0-1.591-2.72q-6.791,3.63-13.408,7.57l.177-.136c2.4-1.83,4.663-3.888,7.135-5.624a.869.869,0,0,0,.336-1.052c.991-.7,1.972-1.41,2.966-2.1,1.107-.768.113-2.559-1.071-1.836-6.038,3.688-11.93,7.6-17.709,11.675-5.153,3.156-10.191,6.5-15.141,9.978q8.112-6.389,16.267-12.727c5.505-4.279,11.039-8.525,16.522-12.833,1.381-1.087-.4-3.343-1.868-2.423q-8.292,5.2-16.318,10.762l.313-.242c5.134-3.921,10.307-7.787,15.418-11.733l.029-.019h0c.1-.077.2-.152.3-.226,1.3-1-.413-3.246-1.768-2.291-6,4.234-12.13,8.3-18.235,12.395l5.363-4.424a1.225,1.225,0,0,0,.268-1.733c.026-.019.048-.039.074-.055,2.178-1.6,4.356-3.211,6.547-4.8,2.168-1.568,4.882-3.091,6.547-5.215.445-.568.061-1.565-.765-1.317-2.223.668-4.24,2.269-6.141,3.559-.978.665-1.946,1.342-2.92,2.014.161-1.049-.716-2.178-1.775-1.781q2.585-2.289,5.118-4.64c.768-.41,1.526-.833,2.294-1.239,1.265-.665.152-2.514-1.113-1.9-.642.31-1.275.642-1.914.955a1.016,1.016,0,0,0-.316.116c-.158.1-.323.187-.481.284q-9.865,4.894-19.332,10.546,5.828-4.487,11.652-8.98a.01.01,0,0,0,.006,0h0l.3-.229c.968-.749.278-2.162-.7-2.459q.92-.7,1.833-1.391c1.478-1.12.181-3.592-1.5-2.565A429.534,429.534,0,0,0,88.509,88.716c7.764-6.58,15.712-12.946,23.715-19.194,6.16-4.811,12.369-9.558,18.577-14.3,1.417-1.084.178-3.459-1.446-2.472A412.736,412.736,0,0,0,94.4,76.8q5.978-4.947,12.033-9.8c5.615-4.5,11.217-9.035,16.925-13.417,1.452-1.113.194-3.537-1.484-2.536-4.966,2.962-9.81,6.1-14.56,9.377q4.54-3.577,9.09-7.141c1.378-1.078-.4-3.34-1.862-2.414-8.648,5.5-16.957,11.5-25.038,17.806-1.275.994-2.523,2.014-3.782,3.024q4.564-3.911,9.226-7.719c4.047-3.308,8.122-6.576,12.2-9.845,1.4-1.123-.387-3.22-1.862-2.414A187.722,187.722,0,0,0,81.155,67.654q2.769-2.527,5.579-5.008,5.857-5.165,11.852-10.165c1.278-1.065-.387-3.2-1.778-2.3Q87.051,56.5,77.86,63.646q4.555-4.594,9.184-9.11c1.12-1.091-.368-3.156-1.713-2.22A315.894,315.894,0,0,0,55.527,75.9c-.991.884.452,2.288,1.449,1.446Q64.415,71.057,72.21,65.2,60.951,76.578,50.216,88.454c-1.326,1.471.791,3.627,2.188,2.188q8.688-8.94,18.142-17.08-7.294,6.907-14.337,14.063-5.474,5.566-10.784,11.291A1.543,1.543,0,0,0,47.6,101.1c10.884-10.184,21.82-20.413,33.569-29.6C74.863,76.918,68.7,82.5,62.829,88.416c-3.675,3.7-7.228,7.515-10.587,11.507a1.62,1.62,0,0,0,.465,2.536q-.523.479-1.042.958c-2.21,2.049-4.585,3.982-6.3,6.483-.455.668.407,1.3,1.013,1.013a17.071,17.071,0,0,0,2.223-1.284,1.643,1.643,0,0,0,2.769,1.207q3.175-2.885,6.354-5.766c-3.488,3.4-6.918,6.857-10.255,10.407a1.685,1.685,0,0,0,2.381,2.381C58.212,110.636,66.569,103.4,75.034,96.3q-4.869,4.4-9.59,8.977-8.35,8.132-16.08,16.861a1.507,1.507,0,0,0,2.13,2.13c8.574-7.567,17.18-15.121,25.912-22.524-1.81,1.639-3.627,3.279-5.408,4.95q-8.432,7.919-16.306,16.393a1.47,1.47,0,0,0-.42,1.168q-3.669,4.23-6.98,8.768c.484,1.217.968,2.433,1.491,3.627q6.694-5.852,13.459-11.63c-.942.981-1.9,1.949-2.83,2.94-2.543,2.7-4.866,5.55-7.29,8.345-.836.962.5,2.34,1.413,1.413,1.665-1.688,3.395-3.324,5.1-4.976-.345.387-.7.768-1.046,1.155a1.434,1.434,0,0,0,2.026,2.026c.487-.471.984-.936,1.471-1.4a1.553,1.553,0,0,0,1.552.465q-3.766,3.9-7.309,8a1.721,1.721,0,0,0,2.433,2.433q6.457-5.77,12.93-11.523a54.071,54.071,0,0,1-4.96-6.2Zm44.357-11.33q6.438-5,12.879-9.987a1.1,1.1,0,0,0,.332-.439c1.084-.765,2.165-1.53,3.259-2.278-4.54,3.527-9,7.151-13.334,10.917-1.355.829-2.7,1.668-4.056,2.5ZM94.163,95.786c-.252.216-.5.436-.752.655q-2.87,2.173-5.75,4.34Q90.9,98.264,94.163,95.786ZM90.41,109.694a1.238,1.238,0,0,0,.058.268q-2.077,1.665-4.156,3.337C87.664,112.082,89.045,110.9,90.41,109.694ZM81.2,104.36a1.688,1.688,0,0,0,1.381.223q-4.681,3.48-9.4,6.9c2.672-2.372,5.334-4.76,8.019-7.119ZM60.1,123.954c1.794-1.952,3.64-3.853,5.518-5.725q2.377-1.394,4.718-2.827-2.546,2.125-5.082,4.256c-1.71,1.439-3.437,2.862-5.15,4.3Z" transform="translate(-44.987 -49.961)" fill="#eac485"/>
    <path id="Path_18075" data-name="Path 18075" d="M98.7,328.835q6.675-5.194,13.317-10.426c-.148-.106-.3-.21-.445-.323-.733-.558-1.446-1.136-2.149-1.723l-.184.145-1,.774c.326-.365.662-.72.991-1.084a57.277,57.277,0,0,1-4.563-4.279q-5.808,5.721-11.407,11.643a1.591,1.591,0,0,0,2.249,2.249c1.63-1.494,3.272-2.975,4.911-4.46-1.381,1.684-2.743,3.388-4.066,5.118,0,0-.006.006-.01.006h0c-.087.116-.177.226-.265.339a1.652,1.652,0,0,0,.429,2.152,1.7,1.7,0,0,0,2.191-.129Z" transform="translate(-77.373 -227.388)" fill="#eac485"/>
    <path id="Path_18076" data-name="Path 18076" d="M134.219,344.711c-1.584-1.5-2.927-3.4-4.676-4.711a8.521,8.521,0,0,0-2.469-1.117,6.421,6.421,0,0,1-3.011-2.785q-.8-.46-1.6-.958c-.316.258-.636.507-.949.768-1.471,1.22-2.907,2.485-4.314,3.775-3.627,2.707-7.283,5.376-10.81,8.222-.945.762.268,2.252,1.278,1.655.8-.468,1.572-.971,2.352-1.465a1.633,1.633,0,0,0,1.142,1.071c-.929.8-1.859,1.6-2.785,2.41-1.165,1.01.407,3.1,1.668,2.162q3.8-2.817,7.583-5.657a51.251,51.251,0,0,0-5.047,5.676c-.723.987.7,2.381,1.688,1.688.106-.074.219-.145.326-.219a1.443,1.443,0,0,0,2.152,1.249q3.926-2.648,7.838-5.311a1.443,1.443,0,0,0,.561.087q-2.715,2.159-5.4,4.372c-1.426,1.184.474,3.692,2,2.594q7.662-5.518,15.492-10.823c-.487-.61-.965-1.233-1.433-1.859a3.07,3.07,0,0,1-1.6-.826Z" transform="translate(-86.347 -243.115)" fill="#eac485"/>
    <path id="Path_18077" data-name="Path 18077" d="M218.844,303.095c-3.359,3.311-6.812,6.593-10.407,9.706a87.565,87.565,0,0,1,7.8-7.286c1.417-1.217-.632-3.227-2.043-2.043q-2.57,2.164-5.124,4.347c.584-.639,1.165-1.281,1.749-1.92a1.347,1.347,0,0,0-1.9-1.9q-3.364,3.011-6.906,5.825,3.475-3.684,6.944-7.37a1.441,1.441,0,0,0-2.036-2.036l-1.465,1.258a1.477,1.477,0,0,0-2.449-.855c-.829.729-1.681,1.426-2.536,2.12a1.4,1.4,0,0,0-1.249-1.675.944.944,0,0,0-1.581-.813,44.538,44.538,0,0,1-8.1,5.747c-.858.471-.1,1.739.762,1.3.536-.268,1.055-.558,1.578-.849-1.575,1.7-3.159,3.385-4.727,5.092a1.075,1.075,0,0,0,1.52,1.52.56.56,0,0,0,.048-.042,1.351,1.351,0,0,0,1.736.261c.594-.352,1.165-.729,1.749-1.094l-3.069,3.291a1.432,1.432,0,0,0,1.262,2.4c-.01.013-.023.023-.032.036-1,1.087.3,3.02,1.649,2.136,1.891-1.246,3.75-2.533,5.592-3.846q-2.6,2.856-5.2,5.708a1.347,1.347,0,0,0,1.9,1.9q2-1.7,4.011-3.385c-.087.126-.177.248-.265.378a1.055,1.055,0,0,0-.029,1.258q-1.2,1.084-2.362,2.217c-.423.39-.839.791-1.236,1.21a1.491,1.491,0,0,0,2.107,2.107c.268-.265.542-.516.82-.762-.416.839-.816,1.691-1.178,2.559-.445,1.071,1.052,2.139,1.965,1.51q2.3-1.588,4.55-3.256a1.189,1.189,0,0,0,1.43-.029c.348-.229.691-.468,1.039-.7a1.229,1.229,0,0,0,.142,1.613c-.19.258-.381.516-.558.784-.778,1.162,1.029,2.581,1.952,1.507a.18.18,0,0,1,.023-.026,60.958,60.958,0,0,0,6.46-6.544q3.325-3.553,6.657-7.106c1.175-1.3-.591-3.182-1.859-2.146a1.606,1.606,0,0,0-1.739.213c-.423.336-.852.661-1.278.991a1.733,1.733,0,0,0-.671-.868c1.784-1.523,3.54-3.085,5.231-4.711,1.184-1.142-.287-3.327-1.678-2.614.978-1.065,1.962-2.13,2.927-3.207,1.162-1.3-.668-3.166-1.926-1.927Z" transform="translate(-141.069 -219.334)" fill="#eb8486"/>
    <path id="Path_18078" data-name="Path 18078" d="M191.706,272.523q-2.469,2.44-4.966,4.84c.871-1.126,1.743-2.249,2.633-3.356a1.244,1.244,0,0,0-1.759-1.759q-2.895,2.623-5.792,5.244c.739-.942,1.471-1.894,2.217-2.833a1.3,1.3,0,0,0-1.833-1.833q-1.568,1.375-3.12,2.772c.077-.1.152-.2.226-.3,1.013-1.336-1.042-2.53-2.143-1.652-.481.384-.955.771-1.433,1.158a1.209,1.209,0,0,0-1.914-.726c-.991.71-1.985,1.407-2.975,2.107a1.581,1.581,0,0,0-2.572-.733,15.231,15.231,0,0,1-1.6,1.339,1.392,1.392,0,0,0-2.036-1.233c-1.117.694-2.275,1.323-3.437,1.943a1.454,1.454,0,0,0-2.165-.358c-.158.136-.326.245-.49.368.41-1.246-1.233-2.172-2.275-1.32a19.544,19.544,0,0,1-1.749,1.255c.655-1-.72-2.039-1.652-1.555q-1.97,1.026-3.937,2.049a1.15,1.15,0,0,0-1.668-.332l-4.321,2.672a9.944,9.944,0,0,0,.82-1.22,1.222,1.222,0,0,0-.313-1.565,1.2,1.2,0,0,0-1.594.094c-.123.1-.232.213-.349.319a.386.386,0,0,1-.045.032,2.487,2.487,0,0,0-1.814.1,7.673,7.673,0,0,0-1.694.839,12.445,12.445,0,0,0-1.091.865,1.366,1.366,0,0,0-2.243-.968c-.507.484-1.042.929-1.575,1.378.239-.326.481-.649.72-.975.936-1.268-1.02-2.565-2.085-1.61-.629.565-1.252,1.142-1.875,1.723-.039-.891-.933-1.746-1.82-1.084l-.171.136c.1-.958-.894-2.014-1.839-1.294L122.5,279.7c.361-.62.716-1.242,1.087-1.859.684-1.133-.723-2.672-1.881-1.881q-1.229.837-2.462,1.672a1.283,1.283,0,0,0-.248-.413c.449-.655.874-1.32,1.258-1.994a1.364,1.364,0,0,0-2.133-1.646,17.09,17.09,0,0,1-2.443,1.785c-.035-.955-1.407-1.249-2.02-.439a15.086,15.086,0,0,0-1.581,2.414c-.494.975.348,2.5,1.568,2.039.026-.01.048-.023.077-.032a1.548,1.548,0,0,0,1.081,1.765,1.386,1.386,0,0,0,1.985,1.642c.358-.229.71-.465,1.062-.7l-1.268,2.062c-.739,1.194.8,2.92,2.02,2.02.094-.068.184-.145.274-.216-.174.294-.349.584-.51.881-.713,1.317,1.133,2.94,2.175,1.678.09-.11.19-.21.281-.316a1.356,1.356,0,0,0,2.265.584c.591-.633,1.21-1.242,1.839-1.843a1.412,1.412,0,0,0,1.581,1.275c-.313,1.081.681,2.446,1.784,1.885a1.439,1.439,0,0,0,.074,1.555c-.236.319-.481.629-.716.949a1.386,1.386,0,0,0,.358,1.8,1.42,1.42,0,0,0,1.833-.11l1.726-1.359a1.154,1.154,0,0,0,1.362-.326c1.058-.958,1.975-2.081,2.982-3.095.945-.952-.187-2.73-1.342-2.223a1.041,1.041,0,0,0-.271-.591q.9-1.288,1.736-2.607a1.444,1.444,0,0,0,2.014-.01,9.641,9.641,0,0,0,.958-.929c.129-.11.258-.223.387-.332.174-.148.349-.294.52-.442a1.431,1.431,0,0,0,1.184-.042,1.119,1.119,0,0,0,1.646.762l2.417-1.3a1.216,1.216,0,0,0,1.652.3c.81-.455,1.613-.916,2.423-1.375-.265.984.39,2.191,1.613,1.788a18.144,18.144,0,0,0,3.024-1.329,1.383,1.383,0,0,0,1.652.868,13.841,13.841,0,0,0,1.981-.742,1.4,1.4,0,0,0,1.72.368c1.165-.623,2.31-1.294,3.462-1.952-.01.094-.032.181-.039.278a1.472,1.472,0,0,0,1.859,1.413c.065-.026.123-.058.184-.084a1.712,1.712,0,0,0,2.736,1.01c.123-.1.252-.19.374-.287a1.481,1.481,0,0,0,2,.949c-.481.649-.965,1.291-1.42,1.952-.936,1.362,1.113,2.843,2.243,1.73.726-.713,1.475-1.4,2.223-2.1-1.026,1.288-2.065,2.565-3.078,3.863-1.068,1.365.613,3.191,1.949,1.949q2.444-2.27,4.9-4.534c-.887,1.152-1.762,2.314-2.6,3.5s1.01,2.565,1.991,1.536c1.507-1.584,3.1-3.095,4.7-4.592-.691.907-1.388,1.814-2.065,2.727-.907,1.22,1.052,2.662,2.078,1.6,2.026-2.091,4.1-4.137,6.192-6.17a.712.712,0,0,0,.736-.152,65.263,65.263,0,0,0,5.689-6.07,1.215,1.215,0,0,0-1.11-2c.523-.687,1.052-1.371,1.572-2.059.929-1.229-1.046-2.646-2.091-1.613Z" transform="translate(-90.331 -200.273)" fill="#ba8b54"/>
  </g>
  <g id="Group_17209" data-name="Group 17209">
    <path id="Path_18079" data-name="Path 18079" d="M166.491,285.77a18.384,18.384,0,0,0,2.2-.833,46.416,46.416,0,0,0,14.918-12.617,8.216,8.216,0,0,0,1.4-2.83c.516-1.807-.232-2.833-2.1-2.9a14.034,14.034,0,0,0-3.727.342,69.726,69.726,0,0,0-7.225,2.078,60.256,60.256,0,0,1-17.574,3.295c-7.609.384-15.234.539-22.856.568a90.819,90.819,0,0,1-21.462-2.853c-1.21-.29-2.388-.71-3.592-1.036-.142-.039-.342.129-.674.265a4.376,4.376,0,0,0,1.291,2.985,64.544,64.544,0,0,0,10.4,11.236,49.086,49.086,0,0,0,4.372,2.772,5.024,5.024,0,0,1,1.542,1.2,1.981,1.981,0,0,1-2.5,2.991,26.564,26.564,0,0,1-8.7-6.144c-2.678-2.775-5.208-5.7-7.67-8.674A19.42,19.42,0,0,1,102,271.433c-.81-1.739-1.033-3.708.458-5.144a4.917,4.917,0,0,1,5.534-1.342c5.718,2.262,11.765,2.9,17.819,3.517,9.655.987,19.3.223,28.932-.252a59.924,59.924,0,0,0,17.793-3.663,31.3,31.3,0,0,1,10.155-2.1c4.172-.09,8.109,2.953,6,8.906a16.459,16.459,0,0,1-3.385,5.321c-4.889,5.392-10.187,10.31-17.167,12.959-.984.374-1.985.7-2.936,1.029-1.087,2.391-2.114,4.776-3.253,7.106A24.867,24.867,0,0,1,155,306.2c-2.865,2.31-6.128,3.779-9.894,3.288a14.891,14.891,0,0,1-4.589-1.575,1.985,1.985,0,0,1-1.065-2.675c.416-.929,1.439-1.271,2.753-.881a7,7,0,0,1,1.052.481,7.037,7.037,0,0,0,6.418-.152c3.717-1.778,6.251-4.769,8.335-8.212a33.019,33.019,0,0,0,4.3-14.866,2.363,2.363,0,0,0-1.507-2.559,17.141,17.141,0,0,0-4.96-1.342,106.543,106.543,0,0,0-19.378.539,16.019,16.019,0,0,0-2.536.578,3.68,3.68,0,0,0-2.943,3.8c.006,1.449.048,2.895.055,4.34a11.17,11.17,0,0,1-.077,2.3,1.7,1.7,0,0,1-1.852,1.494c-.645-.1-1.62-.71-1.726-1.239-.774-3.795-1.394-7.648.681-11.259a7.374,7.374,0,0,1,5.134-3.482,45.1,45.1,0,0,1,7.428-1.094c5.115-.181,10.239-.129,15.357-.077a13.706,13.706,0,0,1,6.673,1.684,7.07,7.07,0,0,1,3.772,8.035c-.113.655-.223,1.31-.316,1.972-.01.065.113.148.361.458Z" transform="translate(-68.651 -177.756)" fill="#262c54"/>
    <path id="Path_18080" data-name="Path 18080" d="M36.66,170.325a58.823,58.823,0,0,1,6.463-26.2,8.586,8.586,0,0,1,1.394-2.172,1.715,1.715,0,0,1,2.349-.374,1.887,1.887,0,0,1,.845,2.265,25.867,25.867,0,0,1-1.333,2.885,52.7,52.7,0,0,0-5.35,28.087,59.959,59.959,0,0,0,10.636,30.21A80.214,80.214,0,0,0,72.12,225.3,38.354,38.354,0,0,0,92.2,231.972,66.742,66.742,0,0,0,121.921,227c2.827-1.2,5.463-2.859,8.193-4.292a11.691,11.691,0,0,1,2.336-1.087,1.6,1.6,0,0,1,2.127,1,3.689,3.689,0,0,1-.378,2.117c-.161.387-.694.645-1.091.91a58.606,58.606,0,0,1-24.128,9.258,112.421,112.421,0,0,1-12.659,1.184,44.893,44.893,0,0,1-30.359-10.155A81.962,81.962,0,0,1,44.346,200.9a60.7,60.7,0,0,1-6.912-21.946c-.342-2.869-.523-5.754-.774-8.632Z" transform="translate(-24.829 -95.674)" fill="#262c54"/>
    <path id="Path_18081" data-name="Path 18081" d="M277.613,101.67c0,17.245-6.26,31.911-18.593,43.979a10.748,10.748,0,0,1-1.555,1.284,1.721,1.721,0,0,1-2.372-.148,1.911,1.911,0,0,1-.229-2.63,13.7,13.7,0,0,1,1.775-1.9A57.167,57.167,0,0,0,272.708,113a55.647,55.647,0,0,0,.526-19.561,79.739,79.739,0,0,0-8.277-26.357c-3.175-6.167-7.1-11.8-13.027-15.605a69.036,69.036,0,0,0-10.258-5.308,91.1,91.1,0,0,0-19.574-6.1,39.99,39.99,0,0,0-14.092-.026,26,26,0,0,1-2.872.336,1.826,1.826,0,0,1-2.091-1.578c-.229-1.168.513-1.8,1.488-2.165a11.769,11.769,0,0,1,1.678-.4c7.838-1.723,15.55-.9,23.147,1.3a120.109,120.109,0,0,1,19.471,7.351A41.7,41.7,0,0,1,266.8,61.982a85.138,85.138,0,0,1,10.768,32.743,57.217,57.217,0,0,1,.042,6.941Z" transform="translate(-137.493 -23.918)" fill="#262c54"/>
    <path id="Path_18082" data-name="Path 18082" d="M245.937,367.067c-1.878,0-3.137.065-4.385-.016-1.339-.087-2.207-.845-2.268-1.8a2.2,2.2,0,0,1,2.007-2.114,8.6,8.6,0,0,1,1.73-.1c9.774.129,18.916-2.494,27.59-6.722A74.86,74.86,0,0,0,302.1,328.086c1.117-1.8,2.056-3.714,3.075-5.576a13.814,13.814,0,0,1,.984-1.765,1.973,1.973,0,0,1,2.6-.562,1.709,1.709,0,0,1,.884,2.21,14.687,14.687,0,0,1-1.023,2.391,77.092,77.092,0,0,1-27.029,29.978,75.226,75.226,0,0,1-31.649,12.049c-1.526.207-3.082.2-4,.255Z" transform="translate(-162.066 -216.69)" fill="#262c54"/>
    <path id="Path_18083" data-name="Path 18083" d="M167.546,0A72.064,72.064,0,0,1,195.11,6a117.5,117.5,0,0,1,15.37,8.07,4.616,4.616,0,0,1,1.733,1.462,2.817,2.817,0,0,1,.068,2.12,1.539,1.539,0,0,1-2.207.752,36.422,36.422,0,0,1-3.559-1.93,93.8,93.8,0,0,0-16.893-8.238A63.58,63.58,0,0,0,160.892,4.6a71.887,71.887,0,0,0-25.631,7.648,17.166,17.166,0,0,1-2.914,1.252,1.95,1.95,0,0,1-2.456-1.016c-.578-1.129.145-1.82.92-2.443a7.823,7.823,0,0,1,1.239-.742A73.085,73.085,0,0,1,159.479.668c2.688-.252,5.379-.442,8.067-.662Z" transform="translate(-87.835)" fill="#262c54"/>
    <path id="Path_18084" data-name="Path 18084" d="M135.016,125.776a6.924,6.924,0,0,1-2.765,5.5,32.242,32.242,0,0,1-4.547,3.066c-4.124,2.31-8.3,4.521-12.469,6.754a5.52,5.52,0,0,1-1.6.61,1.869,1.869,0,0,1-2.1-1.175,1.613,1.613,0,0,1,.507-2.081,23.639,23.639,0,0,1,3.127-2.072c3.475-1.884,7.009-3.669,10.478-5.57a23,23,0,0,0,3.846-2.552c1.752-1.491,1.991-2.985.6-4.834a48.592,48.592,0,0,0-4.84-5.341c-1.371-1.346-2.953-2.481-4.437-3.714a13.947,13.947,0,0,1-1.084-.958c-1.068-1.1-1.252-2.236-.529-3.059a2.249,2.249,0,0,1,3.149.026c3.843,3.069,7.806,6.018,10.733,10.065a8.589,8.589,0,0,1,1.939,5.344Z" transform="translate(-75.414 -74.316)" fill="#262c54"/>
    <path id="Path_18085" data-name="Path 18085" d="M293.54,125.558a7.5,7.5,0,0,1,2.165-5.289c1.739-1.8,3.627-3.453,5.486-5.131,1.359-1.226,2.74-2.44,4.179-3.569,1.307-1.026,2.3-.987,3.062-.058a2.134,2.134,0,0,1-.442,3.082c-2.117,1.968-4.356,3.808-6.525,5.721a24.081,24.081,0,0,0-2.51,2.388c-1.8,2.139-1.736,4.072.5,5.731,2.546,1.891,5.328,3.466,7.993,5.2q3.514,2.285,7,4.618a5.18,5.18,0,0,1,1.288,1.136,1.7,1.7,0,0,1,.194,2.139,1.933,1.933,0,0,1-2.265.845,6.506,6.506,0,0,1-1.517-.813c-4.008-2.5-8.022-4.992-12-7.535a32.952,32.952,0,0,1-3.727-2.73,7.823,7.823,0,0,1-2.869-5.725Z" transform="translate(-198.817 -75.051)" fill="#262c54"/>
    <path id="Path_18086" data-name="Path 18086" d="M.015,248.413a4.723,4.723,0,0,1,.006-.839,2.313,2.313,0,0,1,1.933-2.214c.926-.071,1.72.7,2.014,2.065A12.691,12.691,0,0,1,4.326,250c.026,5.6,1.749,10.788,3.563,16a69.548,69.548,0,0,0,9.829,18.258,3.407,3.407,0,0,1,.674,1.542,1.783,1.783,0,0,1-2.665,1.82,6.182,6.182,0,0,1-1.894-1.72A75.725,75.725,0,0,1,.683,255.338c-.419-2.165-.439-4.408-.671-6.931Z" transform="translate(0.002 -166.182)" fill="#262c54"/>
    <path id="Path_18087" data-name="Path 18087" d="M115.97,62.665c-.581-.707-1.329-1.217-1.388-1.794a4.1,4.1,0,0,1,.642-2.388,6,6,0,0,1,1.862-1.784c5.35-3.43,10.71-6.844,16.635-9.245.177-.071.352-.168.532-.219,1.391-.4,2.349-.158,2.817.713.542,1.007.148,2.13-1.068,2.933a6.535,6.535,0,0,1-1.294.642c-4.556,1.681-8.526,4.456-12.695,6.847a42.85,42.85,0,0,0-3.9,2.936c-.591.436-1.236.791-2.136,1.359Z" transform="translate(-77.598 -31.864)" fill="#262c54"/>
    <path id="Path_18088" data-name="Path 18088" d="M64.572,51.455a1.9,1.9,0,0,1,1.939,2.82,7.1,7.1,0,0,1-2.13,2.3,49.208,49.208,0,0,0-9.845,8.868,5.692,5.692,0,0,1-1.071.955,1.484,1.484,0,0,1-2.1-.126,2.763,2.763,0,0,1-.645-2A5.116,5.116,0,0,1,52.061,62.1c2.617-2.827,5.208-5.683,8.5-7.787.887-.565,1.636-1.342,2.488-1.965a14.265,14.265,0,0,1,1.526-.894Z" transform="translate(-34.332 -34.846)" fill="#262c54"/>
    <path id="Path_18089" data-name="Path 18089" d="M70.04,399.607a7.2,7.2,0,0,1,1.365-1.8,1.641,1.641,0,0,1,2.294.516c2.388,3.146,5.715,5.04,9.074,6.909a14.281,14.281,0,0,1,2.188,1.378,1.921,1.921,0,0,1,.452,2.6,1.8,1.8,0,0,1-2.511.671,40.535,40.535,0,0,1-11.4-7.68,11.081,11.081,0,0,1-1.462-2.6Z" transform="translate(-47.438 -269.253)" fill="#262c54"/>
    <path id="Path_18090" data-name="Path 18090" d="M464.126,242.25c-.487,3.4-.987,6.915-1.494,10.426a3.091,3.091,0,0,1-.155.555c-.471,1.352-1.184,1.875-2.281,1.675-1.146-.21-1.784-1.188-1.613-2.624.181-1.523.51-3.03.655-4.553.21-2.181.29-4.376.465-6.56a6.706,6.706,0,0,1,.416-2.511,2.8,2.8,0,0,1,1.749-1.158,1.457,1.457,0,0,1,1.7,1.22C463.829,239.83,463.936,240.976,464.126,242.25Z" transform="translate(-310.583 -160.839)" fill="#262c54"/>
    <path id="Path_18091" data-name="Path 18091" d="M23.287,119.317a1.761,1.761,0,0,1,2.114,1.7,4.648,4.648,0,0,1-.465,1.907q-1.409,2.977-2.953,5.892a2.031,2.031,0,0,1-2.575,1.229,1.864,1.864,0,0,1-1.207-2.333c1.21-2.678,2.646-5.26,4.066-7.838.187-.339.8-.442,1.02-.555Z" transform="translate(-12.244 -80.81)" fill="#262c54"/>
    <path id="Path_18092" data-name="Path 18092" d="M196.129,366.615a1.952,1.952,0,0,1-2.54,2.11,5.523,5.523,0,0,1-2.236-1.71,48.683,48.683,0,0,1-2.93-4.944,2.568,2.568,0,0,1-.29-1.655c.139-.587.532-1.4.994-1.549a3.031,3.031,0,0,1,2.078.342c.449.232.674.9.994,1.378,1.12,1.665,2.246,3.33,3.353,5,.258.39.458.816.574,1.029Z" transform="translate(-127.396 -243.015)" fill="#262c54"/>
    <path id="Path_18093" data-name="Path 18093" d="M82.387,105.876c-1.533-.084-2.588-1.368-1.885-2.394a53.849,53.849,0,0,1,5.079-6.138,1.847,1.847,0,0,1,2.675,2.465c-1.5,1.968-3.13,3.846-4.776,5.7-.265.3-.871.3-1.091.368Z" transform="translate(-54.374 -65.639)" fill="#262c54"/>
    <path id="Path_18094" data-name="Path 18094" d="M461.246,188.4a8.568,8.568,0,0,1-.468,1.884c-.668,1.346-2.688,1.446-3.178.058a17.51,17.51,0,0,1-.823-5,1.705,1.705,0,0,1,1.733-1.607A1.73,1.73,0,0,1,460.494,185c.319,1.091.5,2.22.752,3.4Z" transform="translate(-309.378 -124.438)" fill="#262c54"/>
  </g>
</svg>
