<svg id="_32" data-name="32" xmlns="http://www.w3.org/2000/svg" width="146.695" height="148.815" viewBox="0 0 146.695 148.815">
  <g id="Group_17210" data-name="Group 17210" transform="translate(12.448 15.818)">
    <path id="Path_18095" data-name="Path 18095" d="M240.241,153.066q-7.135,4.545-14.182,9.226c-9.471,6.27-18.894,12.666-27.968,19.5-2.372,1.788-4.7,3.627-7.015,5.492q-2.7,1.864-5.376,3.743a46.4,46.4,0,0,1,16.7-2.462c9.506-7.59,19.3-14.815,29.494-21.546q8.011-5.291,16.264-10.2a1.477,1.477,0,0,0,.768-1.426q2.091-1.239,4.195-2.462c1.681-.975.2-3.414-1.507-2.578q-4.148,2.023-8.219,4.182c1.536-1.016,3.069-2.036,4.608-3.046q2.023-1.326,4.03-2.682a19.717,19.717,0,0,0,3.688-2.782.944.944,0,0,0-.91-1.565c-2.617.791-5.086,2.665-7.4,4.1q-3.592,2.236-7.164,4.5Z" transform="translate(-138.224 -113.633)" fill="#eac485"/>
    <path id="Path_18096" data-name="Path 18096" d="M136.394,358.088c-.361.31-.729.613-1.087.926q-2.023,1.53-4.011,3.1c.348-.416.668-.849,1-1.275a.787.787,0,0,0,.623-.226,1.487,1.487,0,0,0-.039-2.191c.113-.081.226-.158.339-.239-1.5.081-3,.207-4.527.394-3.492.432-6.915,1.436-10.355,2q-2.3,1.539-4.6,3.075,1.505-1.457,3.053-2.862a5.707,5.707,0,0,1-5.87-3.156c-.106-.2-.184-.41-.271-.616-3.072,2.488-6.083,5.04-8.99,7.7.061.077.132.152.194.229a3.213,3.213,0,0,1,.629,1.391,3.061,3.061,0,0,1,2.927.745.01.01,0,0,1,.006,0c.591-.452,1.178-.913,1.775-1.362-.5.532-.965,1.087-1.452,1.63a42.581,42.581,0,0,0,3.469,2.7q3.892-2.667,7.822-5.286c-2.068,2.039-4.159,4.066-6.17,6.16.968.5,1.93,1.007,2.888,1.517.784-.771,1.568-1.542,2.343-2.327a1.745,1.745,0,0,0,1.536-.339c3.02-2.352,6.083-4.647,9.161-6.918-1.055,1.2-2.094,2.414-3.153,3.579-2.288,2.52-4.666,4.989-6.877,7.58.945.484,1.9.952,2.865,1.394.868-.778,1.73-1.559,2.611-2.323-.265.336-.529.668-.778,1.013-.465.645.429,1.433,1.055,1.055a34.584,34.584,0,0,0,3.446-2.407,1.3,1.3,0,0,0,1.31-.145q10.015-6.98,20.152-13.8a80.932,80.932,0,0,0-11.02-.726Z" transform="translate(-81.296 -257.631)" fill="#eac485"/>
    <path id="Path_18097" data-name="Path 18097" d="M297.044,204.577c-4.2,1.878-8.335,3.9-12.407,6.021q5-3.214,10-6.415a1.705,1.705,0,0,0-1.72-2.943c-3.214,1.523-6.383,3.13-9.536,4.769.3-.216.6-.426.891-.639q6.825-4.961,13.514-10.107a1.743,1.743,0,0,0-1.759-3.007q-3.766,1.96-7.512,3.966a1.477,1.477,0,0,0-2.143-1.649c-.248.123-.494.255-.745.381a87.054,87.054,0,0,0,7.809-5.86c.9-.774-.245-2.033-1.2-1.559-.781.387-1.546.807-2.31,1.229q2.982-1.849,5.96-3.695a1.59,1.59,0,0,0-1.6-2.743c-4.03,2.056-7.977,4.247-11.869,6.534q5.707-4,11.41-8.009a1.422,1.422,0,0,0,.174-2.259c.8-.474,1.6-.949,2.4-1.42a1.659,1.659,0,0,0-1.675-2.862q-16.83,9.221-32.853,19.826c-7.051,4.673-13.885,9.613-20.7,14.592a34.232,34.232,0,0,1,11.756,3.03c.287.132.574.281.862.426,7.5-5.208,15.144-10.22,22.859-15.112.9-.571,1.807-1.133,2.707-1.7q-4.942,3.224-9.868,6.47c-5.2,3.44-10.407,6.889-15.557,10.413a31.831,31.831,0,0,1,3.395,2.007c1.284-.807,2.572-1.617,3.866-2.41-.794.571-1.588,1.139-2.375,1.717-.426.274-.845.561-1.271.839,4.566,3.14,8.535,7.59,10.052,12.8,5.531-3.6,11.113-7.119,16.664-10.681q6.869-4.4,13.756-8.777a22.319,22.319,0,0,0,.349-2.652,3.667,3.667,0,0,1,.09-.549,1.687,1.687,0,0,0-1.407.019Zm-32.6-7.048c-3.391,2.314-6.806,4.6-10.194,6.931q9.942-7.1,20.2-13.75-5,3.412-10,6.822Z" transform="translate(-175.788 -133.73)" fill="#eac485"/>
    <path id="Path_18098" data-name="Path 18098" d="M260.771,308.977a16.9,16.9,0,0,1,.323,2.475c.878-.536,1.746-1.091,2.63-1.617-.878.6-1.749,1.213-2.623,1.817.081,2.336-.5,4.6-2.669,5.77a11.448,11.448,0,0,1-6.725.933c-3.311,2.449-6.583,4.953-9.787,7.551-3.885,3.153-7.677,6.428-11.339,9.842,1.187.249,2.369.526,3.53.878.484.026.971.055,1.455.094,4.966-3.517,9.949-7.012,15-10.41a1.6,1.6,0,0,0,.348.578c-.352.4-.707.794-1.049,1.2-1.171,1.407.294,3.688,2.049,2.656q1.389-.818,2.765-1.652a1.758,1.758,0,0,0,.539-.21c4.334-2.572,8.722-5.053,13.069-7.6,2.381-1.4,4.734-2.843,7.08-4.3q1.926-2.957,3.737-6.057c-3.946,2.262-7.932,4.473-11.843,6.8a1.6,1.6,0,0,0-.107-.532c4.153-2.878,8.526-5.466,12.937-7.954,1.139-1.988,2.41-3.956,3.675-5.937a208.653,208.653,0,0,0-21.256,11.314q7.895-5.547,16.005-10.8,4.042-2.628,8.119-5.2a42.773,42.773,0,0,0,2.875-5.889,250.8,250.8,0,0,0-29,15.186c.094.352.187.7.258,1.058Z" transform="translate(-168.622 -214.087)" fill="#eac485"/>
    <path id="Path_18099" data-name="Path 18099" d="M200.977,377.313c5.821-3.888,11.652-7.777,17.535-11.581-.975-.158-1.93-.361-2.827-.561-4.024-.9-7.98-1.678-11.94-2.23-1.694,1.265-3.395,2.523-5.066,3.821-5,3.869-9.907,7.867-14.669,12.03-1.465,1.281.5,3.908,2.11,2.733,7.312-5.35,14.64-10.7,22.069-15.9a78.726,78.726,0,0,0-8.1,7.77c-2.759,1.759-5.476,3.6-8.135,5.512q-2.168,1.549-4.308,3.143c1.73.077,3.456.194,5.176.368.339-.248.674-.507,1.013-.752,1.926-1.4,3.876-2.765,5.818-4.137a1.434,1.434,0,0,0,1.323-.21Z" transform="translate(-136.731 -261.641)" fill="#eac485"/>
    <path id="Path_18100" data-name="Path 18100" d="M68.283,140.91a3.513,3.513,0,0,1,.3-5.215,60.306,60.306,0,0,1,14.834-8.342q13.592-9.821,27.18-19.645,6.505-4.7,13.008-9.4a1.557,1.557,0,0,0,.62-.9q2.885-1.985,5.77-3.976,10.513-7.265,20.943-14.653a1.526,1.526,0,0,0,.552-1.859c.707-.5,1.413-1,2.123-1.494,1.691-1.191.139-3.969-1.646-2.814q-8.819,5.7-17.622,11.443a1.538,1.538,0,0,0,.048-1.636,1.639,1.639,0,0,0-2.227-.584l-1.3.894c.9-.7,1.81-1.4,2.7-2.117q3.654-2.928,7.348-5.808l.994-.687a1.8,1.8,0,0,0,.439-.432q1.689-1.321,3.379-2.646c.962-.755-.31-2.417-1.317-1.707l-.1.071a1.639,1.639,0,0,0-2.162-.7,52.961,52.961,0,0,0-5.137,3.13l-.752.474,4.789-3.32c1.691-1.171.126-3.94-1.633-2.791Q127.461,74.011,115.7,82.132c3.153-2.378,6.3-4.76,9.471-7.112,3.821-2.833,7.79-5.541,11.43-8.6.842-.707-.236-1.991-1.146-1.484-1.726.962-3.4,2.027-5.06,3.127q2.846-2.343,5.692-4.689c1.342-1.107-.436-3.437-1.875-2.43q-15.15,10.605-30.359,21.133,7.338-5.339,14.773-10.549,8.132-5.712,16.309-11.359c1.643-1.139.168-3.782-1.588-2.717-10.671,6.473-21.133,13.246-31.462,20.226q4.056-3.078,8.116-6.15,7.8-5.915,15.605-11.83c1.694-1.284.161-4.156-1.665-3a1.6,1.6,0,0,0-2.2-.394c-.113.081-.226.165-.342.245a2.789,2.789,0,0,0,.939-1.71.652.652,0,0,0-.474-.623,3.438,3.438,0,0,0-2.546.339,1.674,1.674,0,0,0,.055-1.788,1.78,1.78,0,0,0-2.417-.632Q94.642,67.915,72.362,83.742a1.518,1.518,0,0,0-.21,0c.045-.065.094-.126.136-.19Q84.94,72.882,98.113,62.838q7.348-5.576,14.86-10.926a1.545,1.545,0,0,0-1.559-2.665A371.546,371.546,0,0,0,72.343,75.129c4.992-4.3,10.065-8.5,15.176-12.653q5.954-4.84,11.949-9.626c1.333-1.068-.413-3.324-1.83-2.372q-6.205,4.163-12.233,8.538c3.195-2.562,6.422-5.082,9.707-7.528,1.3-.968.136-3.149-1.307-2.236q-4.1,2.59-8.129,5.3c.184-.145.361-.29.545-.436,1.494-1.178-.607-3.233-2.085-2.085-1.43,1.11-2.875,2.2-4.314,3.3.2-.987-.991-2.181-1.972-1.449Q66.36,62.451,54.872,71.015A1.281,1.281,0,0,0,54.83,73q-2.74,2.29-5.486,4.576c-1.255,1.052.4,3.227,1.762,2.285.219-.152.436-.307.655-.458q-4.7,4.269-9.3,8.638c-1.381,1.313.684,3.346,2.081,2.081q7.29-6.6,14.912-12.814-2.072,1.859-4.121,3.74c-3.517,3.24-6.941,6.56-10.31,9.958a1.4,1.4,0,0,0-.39,1.459l-.074.065c-1.939,1.743-4.318,3.585-5.737,5.786-.9,1.391.878,2.869,2.139,2.139v.006c.01-.006.019-.016.029-.023a1.473,1.473,0,0,0,.216-.165,25.45,25.45,0,0,0,2.9-2.627c.158-.132.313-.271.471-.4a1.168,1.168,0,0,0,0,.3c-.678.61-1.342,1.236-2.023,1.839a1.685,1.685,0,0,0,.845,2.778c-1.275,1.152-2.556,2.291-3.811,3.456-1.659,1.542.774,3.888,2.459,2.459q1.718-1.452,3.462-2.869a1.44,1.44,0,0,0,1.952.248c.345-.245.694-.487,1.039-.733q-3.693,3.306-7.419,6.576c-1.052.923-.31,2.514.781,2.882-.445.529-.9,1.046-1.342,1.578a1.5,1.5,0,0,0,1.81,2.346q3.529-1.956,6.989-3.985c-.281.252-.568.5-.845.752-2.456,2.21-5.508,4.447-7.135,7.361a.978.978,0,0,0,1.326,1.326c2.882-1.388,5.234-4.1,7.6-6.225,1.446-1.3,2.911-2.578,4.369-3.863.048-.029.1-.052.145-.087q3.843-2.909,7.686-5.825a1.909,1.909,0,0,0,.933.665c-1.071.733-2.146,1.462-3.208,2.214-3.149,2.236-6.218,4.579-9.232,7a117.771,117.771,0,0,0-8.8,7.983.75.75,0,0,0,.6,1.288c-.923,1.3.778,3.1,2.269,2.31.642-.339,1.284-.681,1.926-1.02-.171,1.207,1.3,2.64,2.481,1.739.113-.084.223-.171.332-.258h0c4.25-3.246,8.4-6.638,12.582-9.968,1.859-1.478,3.766-2.93,5.66-4.4q-2.953,2.415-5.905,4.834a1.382,1.382,0,0,0-.5,1.355q-8.117,6.5-16.041,13.24c-1.765,1.5.765,3.943,2.523,2.523q4.376-3.538,8.784-7.035a1.945,1.945,0,0,0,.478,1q-4.608,4.095-9.061,8.354c-1.291,1.236.416,3.572,1.946,2.523l35.125-24.06q-4.811,3.7-9.623,7.4l-8.567,6.593A199.053,199.053,0,0,0,49.125,144.23a2.9,2.9,0,0,1,.216.72c.068-.2.342-.106.194.562a1.849,1.849,0,0,0,.287.287,6.444,6.444,0,0,1,.987,1.22q4.734-3.306,9.587-6.412a1.366,1.366,0,0,0,.926-.181c-3.037,2.759-5.986,5.615-8.813,8.606q.789.886,1.588,1.762c1.058,1.165,2.162,2.307,3.224,3.475,3.459-2.094,6.96-4.127,10.458-6.16a9.9,9.9,0,0,1,.507-7.173ZM87.357,80.425c7.57-5.673,15.257-11.194,23.111-16.467,2.207-1.481,4.414-2.966,6.638-4.427.378-.248.762-.494,1.142-.739l-41.533,29.8a1.178,1.178,0,0,0-.1-.158q5.373-4.008,10.739-8.012Zm14.657,6.841q-12,9.821-24,19.645l-3.04,2.488c.094-.084.194-.161.287-.245a1.548,1.548,0,0,0-.694-2.64q13.737-9.6,27.451-19.245ZM68.332,82.251q2.87-2.2,5.757-4.372-2.73,2.246-5.431,4.524a1.56,1.56,0,0,0-.323-.155Zm1.778,42.121q2.328-1.907,4.685-3.782,6.317-4.371,12.63-8.748a1.572,1.572,0,0,0,.145.558L70.113,124.369Z" transform="translate(-38.574 -49.02)" fill="#eac485"/>
    <path id="Path_18101" data-name="Path 18101" d="M214.09,344.712a27.712,27.712,0,0,0-10.765-3.011,30.561,30.561,0,0,0-10.92.974,2.107,2.107,0,0,0-1.488,2.452,1.543,1.543,0,0,0,2.12,2.081c.132-.068.268-.119.4-.181,1.062.2,2.172.326,3.22.484a39.958,39.958,0,0,0,4.208.432c2,.094,4.353.281,6.215-.561,1.788.4,3.566.842,5.324,1.329,2.372.658,3.872-2.772,1.688-4Z" transform="translate(-141.645 -247.166)" fill="#eb8486"/>
    <path id="Path_18102" data-name="Path 18102" d="M188.213,319.448c-.113.045-.223.094-.336.139A1.452,1.452,0,0,0,185.9,317.6c-.184.1-.371.187-.555.284.871-.965-.213-2.891-1.526-2.346-.51.21-1.016.429-1.523.645a1.43,1.43,0,0,0-1.71-2.252c-.223.1-.442.21-.665.313.026-1.013-.913-2.107-2-1.665-1.4.568-2.811,1.1-4.227,1.613.039-.039.077-.077.119-.116.981-.945-.029-3.011-1.417-2.436-.632.261-1.262.52-1.894.778a1.561,1.561,0,0,0-1.9-1.868q-2.556.833-5.115,1.662c.61-1.052-.439-2.756-1.73-2.236-.632.255-1.258.52-1.885.791a1.409,1.409,0,0,0-2.12-.671c-1.9,1.136-3.817,2.243-5.728,3.362l1.081-.907c1.342-1.126-.452-3.495-1.891-2.452q-2.052,1.486-4.085,2.991a1.509,1.509,0,0,0-2.236-.771c-2.559,1.7-5.17,3.327-7.816,4.892.794-.816,1.588-1.633,2.41-2.417a1.471,1.471,0,0,0-1.775-2.3c-1.071.6-2.12,1.239-3.162,1.888a1.108,1.108,0,0,0-1.081-.068,15.356,15.356,0,0,0-6.693,5.637,1.291,1.291,0,0,0,.742,2.039c-.42.41-.839.826-1.262,1.233-1.368,1.317.365,3.337,1.956,2.533,2.01-1.016,3.988-2.081,5.957-3.172-.929.9-1.862,1.788-2.785,2.688-1.533,1.494.72,3.63,2.31,2.31.662-.549,1.329-1.084,1.994-1.626a1.5,1.5,0,0,0,1.455-.048q4.027-2.377,8.041-4.776a1.378,1.378,0,0,0,2.059.449q1.83-1.268,3.633-2.578c1.53-1.007,3.1-1.939,4.715-2.811a1.576,1.576,0,0,0,1.975,1.288l4.692-1.565-.032.029c-1.471,1.4.39,3.424,2.049,2.656.371-.171.742-.345,1.113-.516-.1,1.071.868,2.265,2.049,1.81.836-.323,1.675-.649,2.511-.975a1.572,1.572,0,0,0,.552,2.536c-.587,1.188,1,2.633,2.327,1.991,1.162-.561,2.34-1.091,3.524-1.61-.371.336-.745.668-1.107,1.016a1.512,1.512,0,0,0,1.094,2.565,1.705,1.705,0,0,0,2.278,1.042c.484-.232.981-.445,1.475-.665a1.886,1.886,0,0,0,1.187,1.833c-.349,1.142.671,2.627,1.988,2.133.123-.045.245-.094.371-.139a1.769,1.769,0,0,0,3.072.436q.968-1.35,1.933-2.7a1.59,1.59,0,0,0-.41-2.094c.048-.045.1-.09.142-.139a1.731,1.731,0,0,0,.045-2.272c.4-.332.794-.661,1.194-1,1.065-.9-.074-2.943-1.4-2.407Z" transform="translate(-97.629 -225.675)" fill="#ba8b54"/>
  </g>
  <g id="Group_17211" data-name="Group 17211">
    <path id="Path_18103" data-name="Path 18103" d="M157.611,100.746c-.174,18.41-6.825,34.1-20.239,46.716a60.784,60.784,0,0,1-34.505,16.36c-18.948,2.465-35.79-2.414-50.372-14.789a61.527,61.527,0,0,1-20.607-34.425,62.278,62.278,0,0,1,3.272-37.768,4.675,4.675,0,0,1,1.162-1.952A2.842,2.842,0,0,1,38.4,74.45a1.636,1.636,0,0,1,1.188,2.039,9.23,9.23,0,0,1-.665,1.907,59.326,59.326,0,0,0,8.519,59.582A58.107,58.107,0,0,0,82.9,159.328a57.672,57.672,0,0,0,42.289-7.745c15.147-9.339,24.421-22.985,27.432-40.443,3.166-18.345-1.436-34.886-13.595-49.1a57.433,57.433,0,0,0-34.25-19.6,15.218,15.218,0,0,1-2.8-.691,1.815,1.815,0,0,1-1.252-2.059,1.883,1.883,0,0,1,1.781-1.63,5.745,5.745,0,0,1,1.726.074c23.64,4.579,40.21,17.838,49.236,40.256a58.153,58.153,0,0,1,4.143,22.362Z" transform="translate(-20.554 -25.753)" fill="#262c54"/>
    <path id="Path_18104" data-name="Path 18104" d="M184.85,292.111c-11.814-4.766-24.17-5.625-36.687-4.908a66.175,66.175,0,0,0-20.068,4.03c-3.114,1.194-3.746,2.2-3.256,5.447a10.582,10.582,0,0,0,2.127,5.512c2.178-.458,4.414-.929,6.651-1.4a5.1,5.1,0,0,1,1.126-.255c1.936.045,3.027-.829,4.056-2.556,2.217-3.717,5.989-5.37,10.078-6.157a25.762,25.762,0,0,1,18.393,3.224,24.993,24.993,0,0,1,5.305,4.4,6.518,6.518,0,0,0,3.285,2.114,18.131,18.131,0,0,1,2.769.833c1.229.513,1.83,1.555,1.5,2.462a1.981,1.981,0,0,1-2.288,1.352,22.443,22.443,0,0,1-3.427-.513c-9.248-2.523-18.693-2.727-28.158-2.249a71.521,71.521,0,0,0-15.454,2.12c-1.3.358-2.562.839-3.843,1.258-1.623.532-2.385.307-3.114-1.1a40.788,40.788,0,0,1-1.939-4.2c-2.533-6.634-.945-12.5,3.5-17.758A23.794,23.794,0,0,1,133.1,277.7c15.1-7.4,30.126-7.2,44.97.71a22.954,22.954,0,0,1,9.284,8.929,16.585,16.585,0,0,1,.268,16.845,5.657,5.657,0,0,1-1.662,1.962,1.987,1.987,0,0,1-1.81.148,2.486,2.486,0,0,1-1.01-1.82,6.558,6.558,0,0,1,.965-2.372c1.817-3.627,2.062-6.751.755-9.987Zm-3.579-5.8a23.525,23.525,0,0,0-8.745-6.238,45.012,45.012,0,0,0-26.351-2.753,34.4,34.4,0,0,0-13.821,5.631,14.332,14.332,0,0,0-3.666,3.553,100.287,100.287,0,0,1,52.582-.19Zm-15.108,13.256c.09-.139.181-.277.271-.413a7.413,7.413,0,0,1-.787-.387,22.287,22.287,0,0,0-12.127-3.353,15.254,15.254,0,0,0-8.842,2.336,10.345,10.345,0,0,0-1.365,1.413l22.85.4Z" transform="translate(-81.75 -184.439)" fill="#262c54"/>
    <path id="Path_18105" data-name="Path 18105" d="M82.277,0A70.079,70.079,0,0,1,97.456,1.794a10.825,10.825,0,0,1,2.168.768,1.824,1.824,0,0,1,.881,2.236,1.771,1.771,0,0,1-1.949,1.394,16.3,16.3,0,0,1-2.827-.565,51.791,51.791,0,0,0-14.64-1.407,79.687,79.687,0,0,0-27.438,6.525,86.859,86.859,0,0,0-27.19,18.371A67.607,67.607,0,0,0,12.5,48.875a14.376,14.376,0,0,1-1.039,2.065,1.749,1.749,0,0,1-2.469.791A1.944,1.944,0,0,1,7.98,49.288,25.26,25.26,0,0,1,9.048,46.6,66.817,66.817,0,0,1,21.378,28.49,89.776,89.776,0,0,1,70.192,1.43C74.616.552,79.179.352,82.277,0Z" transform="translate(-5.324)" fill="#262c54"/>
    <path id="Path_18106" data-name="Path 18106" d="M379.142,274.71c-.4,1.588-.81,3.575-1.41,5.5A80.328,80.328,0,0,1,356.1,315.279a73.249,73.249,0,0,1-7.832,5.918,9.751,9.751,0,0,1-2.6,1.249,1.773,1.773,0,0,1-2.214-.923,1.934,1.934,0,0,1,.381-2.394,3.86,3.86,0,0,1,.942-.658c6.305-3.282,11.162-8.209,15.479-13.714a77.248,77.248,0,0,0,14.024-27.367c.358-1.3.562-2.643.975-3.924a2.038,2.038,0,0,1,2.362-1.639c.962.248,1.575,1.242,1.526,2.891Z" transform="translate(-232.453 -184.073)" fill="#262c54"/>
    <path id="Path_18107" data-name="Path 18107" d="M303.582,178.7a7.144,7.144,0,0,1,1.846,1.439c.565.862-.013,1.691-.739,2.243a16.525,16.525,0,0,1-1.788.949c-3.508,2.033-7.083,3.969-10.494,6.154-4,2.565-3.947,3.85.148,6.238,3.588,2.091,7.277,4,10.91,6.018a22.332,22.332,0,0,1,2.694,1.691,1.889,1.889,0,0,1,.565,2.578,1.845,1.845,0,0,1-2.272.794,6.415,6.415,0,0,1-1.572-.713c-4.15-2.275-8.322-4.514-12.427-6.87a17.187,17.187,0,0,1-3.659-2.8,5.206,5.206,0,0,1-.3-7.109,13.648,13.648,0,0,1,3.185-2.927c3.6-2.259,7.283-4.376,10.965-6.5a23.907,23.907,0,0,1,2.937-1.181Z" transform="translate(-193.193 -121.035)" fill="#262c54"/>
    <path id="Path_18108" data-name="Path 18108" d="M119.011,192.768c-.552-1.881-1.968-2.769-3.33-3.666-3.385-2.233-6.809-4.408-10.194-6.638a6.286,6.286,0,0,1-1.959-1.662,2.385,2.385,0,0,1-.145-2.088,2.606,2.606,0,0,1,1.93-.826,3.666,3.666,0,0,1,1.826.755c3.65,2.356,7.319,4.685,10.894,7.151a17.991,17.991,0,0,1,3.853,3.459c2.1,2.643,1.781,5.228-.852,7.351a33.9,33.9,0,0,1-4.408,2.756c-3.34,1.933-6.7,3.827-10.061,5.731-.5.284-1.023.539-1.536.8a1.774,1.774,0,0,1-2.333-.507,2,2,0,0,1,.219-2.633,9.708,9.708,0,0,1,1.868-1.359c3.346-1.92,6.715-3.808,10.074-5.708,1.491-.845,3.1-1.533,4.156-2.92Z" transform="translate(-69.287 -120.486)" fill="#262c54"/>
    <path id="Path_18109" data-name="Path 18109" d="M26.027,340.01a3.4,3.4,0,0,1,1.065.565,7.729,7.729,0,0,1,1.359,1.843,52.331,52.331,0,0,0,10.091,13.321,37.75,37.75,0,0,0,7.6,5.734,15.118,15.118,0,0,1,2.372,1.639,2.008,2.008,0,0,1,.442,2.827,1.931,1.931,0,0,1-2.633.336,58.99,58.99,0,0,1-7.532-4.847,55.034,55.034,0,0,1-14.134-17.409,7.541,7.541,0,0,1-.7-1.581A2.061,2.061,0,0,1,26.027,340.01Z" transform="translate(-16.195 -230.292)" fill="#262c54"/>
    <path id="Path_18110" data-name="Path 18110" d="M284.889,130.518a29.41,29.41,0,0,1-17.358-4.382,26.443,26.443,0,0,1-6.138-6.047,4.879,4.879,0,0,1-.829-2.107,1.569,1.569,0,0,1,1.181-2.017,2.729,2.729,0,0,1,2.039.581,27.584,27.584,0,0,1,2.391,2.878c3.54,4.23,8.232,6.218,13.585,6.751,2,.2,4.047.019,6.07.084,1.346.042,2.688.171,4.024.339a1.686,1.686,0,0,1,1.6,1.743,1.719,1.719,0,0,1-1.42,1.9,15.062,15.062,0,0,1-2.562.261c-.858.042-1.72.01-2.582.01Z" transform="translate(-176.452 -78.526)" fill="#262c54"/>
    <path id="Path_18111" data-name="Path 18111" d="M153.848,36.41a2.4,2.4,0,0,1,2.491,1.72c.219.987-.384,1.794-1.765,2.22-.732.226-1.51.3-2.252.494-2.6.668-5.331,1.049-7.77,2.1-5.386,2.317-10.626,4.973-15.928,7.49-.436.207-.849.461-1.294.639a1.619,1.619,0,0,1-2.214-.781,2.926,2.926,0,0,1,.052-2.11,3.206,3.206,0,0,1,1.465-1.31c7.338-3.817,14.618-7.787,22.779-9.658,1.5-.342,3.024-.552,4.434-.8Z" transform="translate(-84.625 -24.661)" fill="#262c54"/>
    <path id="Path_18112" data-name="Path 18112" d="M102.109,132.7a14.676,14.676,0,0,1-1.73-.465,1.853,1.853,0,0,1,.545-3.611c2.288-.29,4.566-.7,6.864-.887a24.778,24.778,0,0,0,12.262-4.669,21.552,21.552,0,0,0,3.914-3.775c1.591-1.865,2.449-2.407,3.472-1.743,1.284.836,1.249,2.217-.2,4.289-2.34,3.34-5.65,5.447-9.245,7.183a33.071,33.071,0,0,1-11.649,3.1c-1.339.116-2.669.361-4.23.578Z" transform="translate(-67.129 -79.432)" fill="#262c54"/>
    <path id="Path_18113" data-name="Path 18113" d="M330.724,22.19c2.775,1.323,5.657,2.168,7.877,3.876,3.64,2.8,6.857,6.147,10.229,9.287a2.022,2.022,0,0,1,.739,1.181,3.373,3.373,0,0,1-.513,2.068,1.965,1.965,0,0,1-1.814.245,8.708,8.708,0,0,1-2.3-1.652c-2.41-2.2-4.66-4.6-7.2-6.635a37.311,37.311,0,0,0-5.705-3.279c-.755-.41-1.607-.639-2.378-1.026a1.724,1.724,0,0,1-.891-2.423c.326-.639,1.171-1.013,1.956-1.642Z" transform="translate(-222.536 -15.029)" fill="#262c54"/>
    <path id="Path_18114" data-name="Path 18114" d="M268.3,442.95c-1.626.042-2.385-.429-2.585-1.488-.223-1.187.361-2.049,1.859-2.456,1.388-.374,2.853-.481,4.214-.916,2.459-.784,4.86-1.746,7.3-2.591a13.352,13.352,0,0,1,2.74-.7,1.451,1.451,0,0,1,1.642,1.3,4.007,4.007,0,0,1-.491,1.826c-.094.226-.423.374-.671.52-4.392,2.556-9.239,3.682-14.011,4.511Z" transform="translate(-179.939 -294.483)" fill="#262c54"/>
    <path id="Path_18115" data-name="Path 18115" d="M83.34,92.25a5.751,5.751,0,0,1-1.12,1.588A46.9,46.9,0,0,0,74,101.947a2.139,2.139,0,0,1-3.075.426,1.913,1.913,0,0,1-.032-2.862c2.359-2.662,4.882-5.176,7.386-7.7a8.425,8.425,0,0,1,2.1-1.526,2.022,2.022,0,0,1,2.962,1.972Z" transform="translate(-47.593 -60.988)" fill="#262c54"/>
    <path id="Path_18116" data-name="Path 18116" d="M413.819,98.521c-.074,1.794-1.646,2.62-2.927,1.72a5.836,5.836,0,0,1-1.513-1.72,54.8,54.8,0,0,1-2.988-5.27,2,2,0,0,1,.923-2.94c.987-.416,1.888-.084,2.649,1.129,1.175,1.878,2.3,3.782,3.4,5.705a6.315,6.315,0,0,1,.458,1.371Z" transform="translate(-275.055 -61.053)" fill="#262c54"/>
    <path id="Path_18117" data-name="Path 18117" d="M5.727,293.942a1.966,1.966,0,0,1-1.452,2.007,1.759,1.759,0,0,1-2.31-1.21,68.628,68.628,0,0,1-1.926-7.506,1.882,1.882,0,0,1,1.7-2.268,1.789,1.789,0,0,1,2.068,1.21C4.511,288.666,5.063,291.2,5.727,293.942Z" transform="translate(0 -192.998)" fill="#262c54"/>
    <path id="Path_18118" data-name="Path 18118" d="M197.092,447.129c1.81.1,3.627.148,5.431.307A2,2,0,0,1,204.6,449.4c0,1.162-.694,1.691-1.739,1.946-2.623.639-5.128-.1-7.628-.687a1.508,1.508,0,0,1-1.087-2.046,3.532,3.532,0,0,1,1.533-1.455c.365-.216.936-.087,1.413-.113v.084Z" transform="translate(-131.424 -302.78)" fill="#262c54"/>
  </g>
</svg>
