<svg id="_33" data-name="33" xmlns="http://www.w3.org/2000/svg" width="147.631" height="143.393" viewBox="0 0 147.631 143.393">
  <g id="Group_17214" data-name="Group 17214" transform="translate(15.396 15.422)">
    <g id="Group_17212" data-name="Group 17212" transform="translate(74.526 50.143)">
      <path id="Path_18119" data-name="Path 18119" d="M301.43,239.208c.042.032.071.052.1.074C301.482,239.237,301.443,239.2,301.43,239.208Z" transform="translate(-294.086 -227.583)" fill="none"/>
      <path id="Path_18120" data-name="Path 18120" d="M289.788,212.579c-.645-1.323-1.391-2.6-2.1-3.892a35.6,35.6,0,0,0-2.049-3.572,1.46,1.46,0,0,0-.148-1.158,1.677,1.677,0,0,0-1.8-.736,5.824,5.824,0,0,0-2.291,1.12,7.186,7.186,0,0,0-1.968,2.017,4.7,4.7,0,0,0-.006,5.092,6.948,6.948,0,0,0,3.911,2.481c.668.187,1.349.365,2.023.52a.5.5,0,0,0,.055.01l.006,0c.158.087.319.168.474.265.077.048.152.1.226.152.006.006.01.006.016.013.107.106.252.274.274.3a2.147,2.147,0,0,0,2.833.168,2.182,2.182,0,0,0,.555-2.782Zm-3.772,2.23a.587.587,0,0,1,.1.074C286.086,214.861,286.057,214.841,286.015,214.809Z" transform="translate(-278.672 -203.183)" fill="#75757c"/>
    </g>
    <g id="Group_17213" data-name="Group 17213" transform="translate(33.991 50.592)">
      <path id="Path_18121" data-name="Path 18121" d="M159.822,227.013l0,0a.565.565,0,0,0-.119.094.553.553,0,0,0,.045-.035l.068-.055Z" transform="translate(-157.559 -219.77)" fill="#75757c"/>
      <path id="Path_18122" data-name="Path 18122" d="M165.491,208.832a4.217,4.217,0,0,0-.3-.833c.261.607-.132-.323-.219-.481a6.167,6.167,0,0,0-4.185-2.9,1.555,1.555,0,0,0-1.817.891,1.485,1.485,0,0,0-.106.791,1.755,1.755,0,0,0-.1.268c-.084.355-.184.707-.3,1.055-.029.084-.058.168-.09.252.013-.029.026-.058.036-.077-.016.026-.026.058-.039.084s-.01.029-.016.045c-.068.181-.036.077.006-.026-.058.123-.113.248-.171.368-.161.329-.336.655-.52.971-.1.168-.2.332-.307.494-.013.019-.026.039-.039.055s-.013.016-.016.026a.689.689,0,0,0-.094.129.216.216,0,0,1,.023-.035,13.767,13.767,0,0,1-1.52,1.578c-.129.113-.258.223-.39.332.016-.013.032-.023.052-.035-.042.026-.084.061-.126.094l-.045.035a.248.248,0,0,1-.035.026c-.139.1-.281.2-.423.294s-.752.4-.171.171a2.11,2.11,0,0,0,.561,4.137,9.168,9.168,0,0,0,2.665-.268,11.669,11.669,0,0,0,2.017-.626,12.443,12.443,0,0,0,4.237-2.7,5.247,5.247,0,0,0,1.43-2.394,3.921,3.921,0,0,0,.01-1.71Z" transform="translate(-153.056 -204.574)" fill="#75757c"/>
      <path id="Path_18123" data-name="Path 18123" d="M169.513,214.79a.175.175,0,0,1-.013.026c0-.006.006-.013.01-.019v-.006Z" transform="translate(-164.194 -211.493)" fill="#75757c"/>
      <path id="Path_18124" data-name="Path 18124" d="M166.074,220.728a.122.122,0,0,0,.016-.026c.026-.042-.035.019-.09.119l0,0c.036-.045.052-.068.068-.09Z" transform="translate(-161.823 -215.488)" fill="#75757c"/>
    </g>
    <path id="Path_18125" data-name="Path 18125" d="M187.1,332.859c-1.02.432-2.036.871-3.056,1.3a1.636,1.636,0,0,0-.82-2.34c.439-.352.875-.71,1.317-1.062,1.294-1.026-.371-3.1-1.746-2.262l-8.764,5.34c1.3-1.317,2.588-2.643,3.892-3.956a1.315,1.315,0,0,0,.3-1.617c.065-.055.129-.113.194-.171,1.252-1.084-.384-3.208-1.775-2.3l-4.492,2.924c.371-.339.736-.684,1.107-1.023,1.094-1-.349-2.924-1.6-2.075s-2.517,1.684-3.775,2.527q1.249-1.113,2.5-2.227c1.149-1.023-.4-3.108-1.672-2.165q-4.719,3.509-9.432,7.015a116.3,116.3,0,0,1,9.119-7.848c1.375-1.062.113-3.437-1.407-2.4q-5.363,3.645-10.726,7.293c2.043-1.894,4.079-3.8,6.128-5.689,1.1-1.013-.384-3.027-1.63-2.11q-2.822,2.077-5.641,4.163,3.48-2.875,7.083-5.615c1.355-1.026.077-3.356-1.365-2.336l-9.719,6.883c1.5-1.31,2.985-2.627,4.489-3.93a1.435,1.435,0,0,0-.626-2.34c.571-.529,1.139-1.062,1.714-1.591a1.166,1.166,0,0,0-.865-2.007c.984-.958,1.972-1.914,2.953-2.878a1.222,1.222,0,0,0-.771-2.075,1.4,1.4,0,0,0-1.739-1.71,25.506,25.506,0,0,0-8.216,4.7c-.168.1-.336.207-.5.307q3.166-2.759,6.28-5.583c1.013-.923-.326-2.714-1.484-1.923q-4.526,3.088-9.081,6.131c1.994-1.843,3.995-3.679,6.018-5.489,1.1-.987-.3-2.372-1.452-1.881-1.652.7-3.266,1.478-4.85,2.3.113-.126.236-.242.345-.368a1.114,1.114,0,0,0-1.575-1.575q-3.432,2.89-6.864,5.783a.443.443,0,0,0-.087.584c-.923.907-1.843,1.807-2.769,2.685-1.187,1.126.536,2.717,1.755,1.755a67.677,67.677,0,0,1,6.576-4.582c-3.917,3.433-7.841,6.86-11.649,10.41-1.081,1.007.355,2.953,1.6,2.081,1.268-.884,2.549-1.742,3.821-2.62-1.549,1.236-3.1,2.469-4.669,3.682-.41.226-.82.445-1.229.671q-3.214,1.336-6.338,2.872a1.164,1.164,0,0,0-1.581-.826,54.876,54.876,0,0,0-8.2,4.7,53.546,53.546,0,0,0-7.038,6.115c-.9.933.326,2.717,1.446,1.875.29-.219.591-.432.881-.652a1.239,1.239,0,0,0,.981-.1c3.346-1.723,6.6-3.621,9.858-5.512q-1.733,1.283-3.44,2.594a.294.294,0,0,1-.042.026h0c-.094.074-.19.145-.281.216-1.036.8-.094,2.339,1.007,2.356-.129.1-.255.2-.384.3-1.171.881-.068,2.882,1.175,2.007,4.437-3.124,8.906-6.192,13.385-9.248-1.349,1.233-2.711,2.456-4.037,3.714-1.255,1.191.429,3.5,1.891,2.449.452-.326.894-.668,1.342-1q-1.728,1.491-3.459,2.978c-1.342,1.155.481,3.582,1.917,2.485.923-.7,1.839-1.42,2.762-2.13a1.312,1.312,0,0,0,1.975.949q2.594-1.839,5.2-3.675c-1.291,1.258-2.572,2.53-3.821,3.827-1.052,1.094.387,3.191,1.694,2.194q3.611-2.749,7.261-5.447c-.432.4-.868.791-1.3,1.187-1.2,1.1.378,3.2,1.755,2.278,3.337-2.227,6.609-4.543,9.916-6.815-1.859,2-3.65,4.066-5.347,6.205-.845,1.065.284,3.072,1.613,2.088q.571-.421,1.142-.845a1.427,1.427,0,0,0,2.123,1.142c1.426-.958,2.84-1.933,4.26-2.9-.71,1.194.813,2.959,2.146,2.081.152-.1.3-.2.452-.3l-2.4,2.059c-1.572,1.355.678,3.485,2.246,2.246,1.484-1.175,2.949-2.372,4.424-3.556a1.465,1.465,0,0,0,1.481,1.013c-.787,1.184.8,3.011,2.156,2.139,3.311-2.139,6.664-4.211,10.032-6.254a1.618,1.618,0,0,0,2.268,1l4.537-1.965a3.028,3.028,0,0,0,3.559,2.523c1.985-.326,1.142-3.346-.833-3.02.452-.074.119-.013.277-.174.126-.129.207-.316.336-.452a5.744,5.744,0,0,1,1.388-.923c1.768-.978.213-3.385-1.542-2.636Z" transform="translate(-86.363 -220.467)" fill="#9dc16f"/>
    <path id="Path_18126" data-name="Path 18126" d="M209.074,277.806c.5-1.023-.574-2.394-1.72-1.678-.194.119-.39.236-.587.355.645-.887.065-2.549-1.12-2.343a1.155,1.155,0,0,0-1.655-1.371c-.042.026-.084.048-.126.071a1.312,1.312,0,0,0-1.9-1.242c-.319.177-.645.349-.968.523.691-.971-.516-2.256-1.626-1.7-.542.274-1.087.542-1.63.813a1.327,1.327,0,0,0-1.917-1.371c-.378.223-.762.432-1.142.645a1.366,1.366,0,0,0-1.917-1.691l-.455.271c.077-.1.158-.2.236-.3.71-.974-.616-1.852-1.475-1.475-.72.316-1.426.671-2.133,1.029a1.148,1.148,0,0,0-1.7-.784c-2.123,1.265-4.185,2.649-6.2,4.111a.913.913,0,0,0-.787.206c-1.158.978-2.288,1.985-3.411,3,1.584-1.891,3.214-3.743,4.911-5.534.658-.694-.223-1.988-1.068-1.384-1.907,1.358-3.753,2.807-5.57,4.295a.769.769,0,0,0-1.329-.339c-2.975,3.188-5.863,6.415-8.693,9.736-.923,1.084.6,2.659,1.581,1.581.413-.452.842-.881,1.258-1.326-.9,1.2-1.781,2.414-2.614,3.666-.784,1.184.965,2.481,1.943,1.5.652-.652,1.32-1.288,1.981-1.93a1.341,1.341,0,0,0,.9-.387c.836-.787,1.642-1.6,2.44-2.436q1.834-1.772,3.746-3.44c-.352.358-.707.716-1.058,1.078-1.242,1.281.584,2.982,1.917,1.917,2.1-1.681,4.163-3.4,6.218-5.137a1.221,1.221,0,0,0,1.317.152,1.513,1.513,0,0,0,2.162,1.149c.594-.319,1.175-.658,1.755-.994a1.655,1.655,0,0,0,2.023.649c.194-.09.378-.194.565-.29a1.512,1.512,0,0,0,2.078,1.936q.934-.537,1.862-1.075a1.535,1.535,0,0,0,2.068.891c.248-.126.494-.258.739-.39a1.7,1.7,0,0,0,2.2.849l.555-.252-1.291,1.513c-1.007,1.184.274,3.185,1.749,2.269.348-.216.691-.442,1.036-.665a1.42,1.42,0,0,0,1.323,1.052c-.381.452-.755.907-1.136,1.355a1.538,1.538,0,0,0,.581,2.356,1.225,1.225,0,0,0,2.068.513c1.2-1.339,2.375-2.672,3.485-4.082a1.07,1.07,0,0,0-.187-1.607c.532-.636,1.055-1.281,1.591-1.914a1.4,1.4,0,0,0-.884-2.34Z" transform="translate(-127.023 -196.414)" fill="#ba8b54"/>
    <path id="Path_18127" data-name="Path 18127" d="M166.119,103.559q-11.844,9.24-23.685,18.49c7.186-6.644,14.444-13.224,21.456-20.049,1.046-1.02-.358-2.978-1.6-2.078-2.756,1.991-5.531,3.956-8.306,5.921q3.311-2.812,6.625-5.621a1.167,1.167,0,0,0,.345-1.294c.645-.561,1.3-1.117,1.939-1.678,1.223-1.065-.4-3.2-1.749-2.265l-8.467,5.854q5.818-5.533,11.662-11.039c.942-.884-.3-2.552-1.4-1.817q-1.476.987-2.953,1.978a1.533,1.533,0,0,0-2.22-.4q-6.288,4.927-12.369,10.113-.968.794-1.943,1.581c1.5-1.384,3.011-2.759,4.511-4.143q5.615-5.179,11.172-10.413a1.193,1.193,0,0,0-1.439-1.865c-2.333,1.336-4.64,2.72-6.931,4.13,2.656-2.34,5.3-4.7,7.841-7.148,1.359-1.307-.655-3.262-2.049-2.049-.568.455-1.126.926-1.688,1.391.645-.971-.668-2.414-1.791-1.752q-1.931,1.137-3.853,2.291,1.747-1.534,3.479-3.085a17.133,17.133,0,0,0,3.746-4.011.842.842,0,0,0-1.142-1.142,17.612,17.612,0,0,0-4.195,3.224q-1.96,1.767-3.94,3.514-.779.687-1.559,1.378a1.516,1.516,0,0,0-2.294-.407l-22.985,19.594q-2.357,1.7-4.727,3.382,3.049-2.856,6.163-5.644c1.171-1.039,2.352-2.065,3.533-3.095.629-.539,1.255-1.081,1.885-1.617q4.056-3.451,8.129-6.877,3.074-2.551,6.173-5.079c3.824-3.117,7.686-6.183,11.559-9.239a1.167,1.167,0,0,0,.284-1.475.984.984,0,0,0-1.481-1.049c-8.383,5.069-16.483,10.617-24.373,16.457l1.985-1.655q8.277-6.893,16.56-13.789A1.24,1.24,0,0,0,145.773,69l.439-.371c1.775-1.5,3.937-3.02,5.134-5.047a.7.7,0,0,0-.781-1.016,17.9,17.9,0,0,0-5.311,3.285c-1.717,1.32-3.43,2.643-5.111,4-3.482,2.82-6.938,5.673-10.326,8.606-6.7,5.8-13.388,11.7-19.584,18.038-1.242,1.271-2.446,2.569-3.637,3.876q-10.32,8.611-20.652,17.209-2.2,1.834-4.434,3.63c7.364-7.457,15.073-14.576,22.956-21.491q6.244-5.261,12.491-10.52c5.392-4.54,10.791-9.068,16.151-13.647a1.326,1.326,0,0,0,.332-1.762c1.662-1.368,3.327-2.736,5-4.088,1.113-.9,2.236-1.781,3.337-2.691a13.744,13.744,0,0,0,2.827-2.6.88.88,0,0,0,.106-.139c.006-.01.016-.019.023-.029h-.006a1.042,1.042,0,0,0-1.155-1.51,10.555,10.555,0,0,0-3.043,1.885c-1.013.733-2,1.494-2.995,2.252a93.447,93.447,0,0,0,8.077-7.112.712.712,0,0,0-.858-1.113,98.111,98.111,0,0,0-12.275,8.567q-5.92,4.569-11.707,9.31-2.4,1.956-4.773,3.943c.232-.213.465-.429.7-.645q8.311-7.619,16.69-15.16a1.216,1.216,0,0,0,.274-1.42,90.95,90.95,0,0,0,7.148-6.4.7.7,0,0,0-.839-1.087A107.187,107.187,0,0,0,127.3,64.665q-6.205,4.811-12.307,9.755-1.878,1.534-3.753,3.078c.6-.578,1.2-1.152,1.794-1.733.561-.549,1.117-1.1,1.675-1.655,3.53-2.949,7.064-5.9,10.565-8.877q2.953-2.512,5.867-5.069a32.042,32.042,0,0,0,5.382-5.421c.394-.565-.345-1.078-.852-.852a33.017,33.017,0,0,0-6.405,4.4c-.581.455-1.155.923-1.733,1.381a1.389,1.389,0,0,0-2.246-.539Q109.6,72.687,93.92,86.243l4.485-4.379c4.7-3.617,9.216-7.47,13.689-11.359,6.07-5.282,12.436-10.439,17.964-16.3.652-.691-.213-1.962-1.058-1.371-2.675,1.859-5.247,3.872-7.774,5.95a1.419,1.419,0,0,0-.52-.784c1.1-.978,2.2-1.946,3.279-2.943,1.578-1.459,3.821-2.975,4.821-4.908.21-.407-.145-1.007-.639-.833-1.707.6-3.162,2.13-4.543,3.259-1.681,1.375-3.343,2.769-5,4.169-3.188,2.688-6.331,5.428-9.49,8.148q-3.79,3.267-7.6,6.515,3.074-3.04,6.147-6.083l14.289-14.134c1.155-1.142-.594-2.875-1.778-1.778-17.032,15.809-33.947,31.753-51.137,47.39L67.9,97.847c8.032-9,16.993-17.2,25.741-25.525q3.8-3.108,7.5-6.351c3.024-2.659,5.973-5.405,8.913-8.158,2.891-2.707,6.112-5.421,8.319-8.732.481-.723-.461-1.61-1.175-1.175a40.563,40.563,0,0,0-6.438,5.253,1.4,1.4,0,0,0-2.065-.142q-8.582,7.536-17.154,15.086L97.5,62.293q5.944-5.8,11.888-11.6c1.22-1.191-.584-2.924-1.846-1.846Q92.729,61.5,77.914,74.155q5.915-5.77,11.827-11.539c3.717-3.627,7.373-7.328,11.165-10.875.926-.865-.339-2.594-1.384-1.794Q95.267,53.2,91.074,56.52q1.418-1.36,2.833-2.72c1.1-1.055-.494-2.514-1.626-1.626-5.96,4.656-11.969,9.248-17.974,13.847q4.506-4.337,9.026-8.664c.962-.916-.478-2.336-1.452-1.449Q76,61.256,69.728,66.121c-.223.174-.455.336-.681.507q1.684-1.728,3.362-3.453a1.1,1.1,0,0,0-1.559-1.559q-7.11,7-14.224,14.011a1.312,1.312,0,0,0,1.584,2.052c.849-.526,1.681-1.084,2.511-1.655-.936.884-1.868,1.772-2.807,2.653s.336,2.607,1.394,1.807C64.374,76.64,69.4,72.745,74.426,68.844Q63.874,78.714,53.4,88.667c-1.288,1.226.655,3.159,1.946,1.949Q67.943,78.81,81.164,67.7c-.581.558-1.162,1.113-1.739,1.672q-9.932,9.618-19.868,19.239-5.6,5.421-11.2,10.846c-1.184,1.146.565,2.827,1.784,1.784Q64.815,88.757,79.46,76.234L65.375,89.974q-5.944,5.8-11.891,11.6c-1.223,1.194.6,2.966,1.859,1.859Q59.263,100,63.19,96.57c-.5.513-.987,1.039-1.481,1.565-3.846,3.685-7.7,7.373-11.588,11.01-1.052.984.232,2.414,1.368,1.955-.077.094-.161.181-.239.274a.957.957,0,0,0-.229.652c-.171.281-.355.549-.523.833-.284.481.407,1.052.791.61.145-.168.294-.332.439-.5a.831.831,0,0,0,.865-.248c.5-.507,1.016-.991,1.542-1.471a1.559,1.559,0,0,0,2.523.823c.807-.745,1.6-1.5,2.407-2.249q-1.205,1.191-2.407,2.381c-.207.19-.416.374-.62.565a37.431,37.431,0,0,0-6.231,6.77.706.706,0,0,0,.958.958,24.52,24.52,0,0,0,2.8-2.036c-1.839,1.743-3.669,3.5-5.45,5.3a1.324,1.324,0,0,0,1.872,1.872c1.149-1.065,2.281-2.152,3.408-3.243a1.225,1.225,0,0,0,1.726.442,17.236,17.236,0,0,0,1.93-1.555,1.489,1.489,0,0,0,1.352-.345c1.446-1.249,2.885-2.511,4.331-3.759a.01.01,0,0,1,0,.006q-4.187,5.363-8.384,10.713a1.419,1.419,0,0,0,.71,2.31,1.089,1.089,0,0,0,.742,1.265,1.761,1.761,0,0,0,2.168-.9.585.585,0,0,0,.045-.41c.784-.726,1.536-1.5,2.269-2.3a1.291,1.291,0,0,0,2.136.887q4.545-4.54,9.122-9.058l1.278-.978q-7.372,7.982-14.318,16.341a1.457,1.457,0,0,0-.248,1.594c-.232.258-.458.52-.691.778a1.4,1.4,0,0,0,1.978,1.978c3.185-2.733,6.3-5.547,9.41-8.377l-6.7,8.032a1.491,1.491,0,0,0,2.107,2.107c.516-.474,1.02-.962,1.526-1.446-1.094,1.549-2.156,3.117-3.153,4.734-.671,1.087.949,2.4,1.8,1.391a62.858,62.858,0,0,1,4.9-5.331,1.505,1.505,0,0,0,2.046-.013q1.471-1.234,2.943-2.472c-3.007,3.579-6.008,7.164-9.226,10.558a1.235,1.235,0,0,0,1.746,1.746c4.189-3.55,8.371-7.067,12.659-10.455-.929.939-1.865,1.875-2.788,2.824a1.429,1.429,0,0,0-.429.894c-2.236,2.54-4.479,5.076-6.693,7.635-.991,1.142.345,3.288,1.739,2.252,2.759-2.049,5.537-4.072,8.309-6.105-2.017,1.82-4.03,3.64-6.015,5.5-1.388,1.3.613,3.124,2.03,2.03q3.921-3.035,7.9-6a1.331,1.331,0,0,0,2.162.652q3.809-3.379,7.69-6.664c.177-.6.358-1.194.552-1.784a16.871,16.871,0,0,0-.21-4.35,3.114,3.114,0,0,1-2.443,1.207c-.168,0-.316-.013-.478-.023-.194.052-.39.087-.584.145a2.885,2.885,0,0,1-2.449-.342c-1.981,1.471-3.953,2.956-5.934,4.424q2.769-2.372,5.553-4.731a3.5,3.5,0,0,1-.855-3.656c.694-3.988,5.7-9.61,8.212-11.178a27.01,27.01,0,0,1,21.262-3.02q5.6-4.865,11.165-9.778a8.827,8.827,0,0,1-3.333-2.252,6.51,6.51,0,0,1-1.5-3.191q-3.94,3.33-7.883,6.657c2.6-2.391,5.218-4.76,7.832-7.135a6.34,6.34,0,0,1,1.213-4.379,3.322,3.322,0,0,1,3.111-2.456,2.937,2.937,0,0,1,1.43.365,3.4,3.4,0,0,1,1.01.623c2.633-1.981,5.25-3.982,7.825-6.038.168-.106.332-.219.5-.329l-7.954,6.715a3.122,3.122,0,0,1,.7,1.213,2.929,2.929,0,0,1-.042,1.752,9.365,9.365,0,0,0,2.824,3.4q4.685-4.158,9.361-8.325,3.388-2.149,6.857-4.182-7.575,6.646-15.089,13.369c.2.139.387.274.571.4a3.151,3.151,0,0,1-3.178,5.437c-.807-.381-1.749-.694-2.711-1.042q-5.412,4.874-10.794,9.774a24.855,24.855,0,0,1,8.6,5.166,13.664,13.664,0,0,1,2.591,3.33l6.05-4.118c-1.081,1.075-2.172,2.143-3.288,3.179a.534.534,0,0,0-.174.336c-.665.616-1.32,1.236-1.985,1.852.9,2.207,1.02,4.624-.607,6.551-1.875,2.217-3.95,2.052-5.87,1.01a2.512,2.512,0,0,1,.126,1.117c-.194,1.665-.378,3.327-.568,4.992l8.7-7.3q8.354-6.622,17.29-12.475-13.021,10.479-25.977,21.039a1.711,1.711,0,0,0-.171.171c-.01.626.013,1.252.032,1.881a1.5,1.5,0,0,0,1.943.565c-.481,1.126.865,2.682,2.023,1.814,6.534-4.9,13.25-9.561,20.052-14.1q-4.114,3.538-8.232,7.073-4.09,3.345-8.022,6.883a2.929,2.929,0,0,1,1.8.487,33.137,33.137,0,0,0,4.34,2.123q5.445-3.422,10.871-6.87c-3.056,2.591-6.183,5.1-9.342,7.583a16.368,16.368,0,0,1,1.8,1.033,10.655,10.655,0,0,1,1.649,1.352,1.339,1.339,0,0,0,.713-.207A102,102,0,0,0,157.432,143.3a1.534,1.534,0,0,0-.845-2.552q2.352-2.227,4.644-4.508c1.1-1.1-.329-3.056-1.691-2.194-1.129.713-2.262,1.42-3.395,2.13a116.2,116.2,0,0,0,10.242-10.165c1.013-1.152-.274-3.072-1.7-2.2-.236.142-.465.294-.7.436.439-.378.878-.752,1.317-1.129,1.255-1.078-.378-3.175-1.765-2.288-4.485,2.872-8.919,5.825-13.324,8.813q7.236-5.76,14.718-11.226c1.633-1.184.061-3.93-1.6-2.736l-1.033.745q1.452-1.205,2.907-2.414c1.175-.975-.326-2.759-1.588-2.059-3.433,1.907-6.812,3.9-10.152,5.95q7.323-6.171,14.644-12.353c1.394-1.181-.591-3.059-1.978-1.978ZM84.41,91.539q-2.381,2.309-4.763,4.614a1.317,1.317,0,0,0-.177-.323q2.469-2.149,4.94-4.3Zm-9.368,9.081q-.954.925-1.907,1.846a1.379,1.379,0,0,0-.458-.061q1.176-.9,2.362-1.788Zm-10.791,9.3c.71-.836,1.413-1.675,2.12-2.514q1.878-1.539,3.785-3.04-2.914,2.822-5.828,5.641a1.032,1.032,0,0,0-.081-.087Zm.394,8.829c.016-.023.032-.045.052-.068,2.217-2.94,4.582-5.886,6.628-8.98q8.727-7.575,17.448-15.15a.72.72,0,0,0,.194-.084c.839-.578,1.668-1.171,2.5-1.768q-5.673,5.47-11.168,11.117-2.822,2.74-5.586,5.531-4.961,4.777-10.065,9.4Zm11.627,1.365q3.679-4.206,7.351-8.416c-.055.01-.113.026-.168.035a.041.041,0,0,0-.019,0c-.142.023-.281.045-.42.061a6.229,6.229,0,0,1-.8.058c-4.037,0-4.05-6.228-.058-6.292.01,0,.016-.006.026-.01-.591-.013.545-.261.687-.31.126-.042.252-.081.381-.123.094-.048.152-.077.123-.058a12.918,12.918,0,0,0,1.865-1.213,10.451,10.451,0,0,0,1.094-1.078,2.9,2.9,0,0,1-.81-2.962c.429-1.5,2.285-2.843,3.876-2.2a7.015,7.015,0,0,1,2.559,1.659c1.8-.623,4.085.358,4.311,2.269q1.568-1.326,3.133-2.649c-.645.6-1.3,1.188-1.939,1.791-.4.374-.781.768-1.178,1.146a3.149,3.149,0,0,1-.184,1.084,11.009,11.009,0,0,1-5.892,6.27c-.771.378-1.675.813-2.623,1.226-3.759,3.246-7.486,6.544-11.307,9.716Zm10.762,3.324q2.435-2.493,4.918-4.937a1.741,1.741,0,0,0,.749.168q-2.832,2.386-5.666,4.769Zm9.623-2.485c1.539-1.452,3.1-2.882,4.66-4.318a1.657,1.657,0,0,0,.271.113l-4.931,4.2Zm49.662-32.43c-.713.6-1.433,1.191-2.149,1.788l3.537-3.233q2.183-1.772,4.356-3.553C150.136,85.175,148.229,86.85,146.318,88.522Zm2.026,12.385c1.171-.852,2.352-1.688,3.537-2.52q-6.05,5.683-12.094,11.365l-6.241,4.314q7.256-6.743,14.8-13.163Zm-15.7,23.047,5.679-4.818q1.346-.905,2.694-1.814,4.172-2.812,8.345-5.621-2.348,2.188-4.692,4.385a.866.866,0,0,0-.865.09q-5.581,3.892-11.159,7.78Zm22.078,9.632a242.288,242.288,0,0,1-19.268,15.1q2.987-2.556,5.967-5.115,6.457-5.242,13.3-9.978Z" transform="translate(-47.72 -47.792)" fill="#eac485"/>
  </g>
  <g id="Group_17215" data-name="Group 17215">
    <path id="Path_18128" data-name="Path 18128" d="M73.021,183.2a23.283,23.283,0,0,1,13.472,1.872,10.949,10.949,0,0,0,8.951.336,21.657,21.657,0,0,1,19.394,1.513c4.76,2.743,9.448,2.685,14.085-.513a26.009,26.009,0,0,1,12.866-4.634,13.138,13.138,0,0,0,3.34-.82,1.168,1.168,0,0,0,.371-2.191c-3.63-2.791-7.283-5.563-11.084-8.112a11.581,11.581,0,0,0-4.347-1.268c-1.313-.236-2.691-.09-4.017-.278-5.376-.758-7.722-3.178-8.445-8.58-1.142-8.584-2.133-9.681-10.91-11.091a25.594,25.594,0,0,0-7.409-.2c-3.94.536-6.609,2.611-7.251,6.967-.526,3.559-.765,3.521-4.453,3.143a12.359,12.359,0,0,0-1.723-.11c-4.75.2-7-4.527-6.008-8.471A18.283,18.283,0,0,1,87,139.906c10.239-7.186,21.269-8.4,32.711-3.211a19.844,19.844,0,0,1,10.245,10.513c2.4,5.686.065,9.674-6.189,10.429-1.746.21-1.8,1.026-1.752,2.178.139,3.224,1.236,4.431,4.46,4.921,1.136.171,2.31.077,3.446.258,1.7.268,3.682.216,5.018,1.1a167.8,167.8,0,0,1,14.828,10.694c2.678,2.23,1.781,5.983-1.43,7.6a15.864,15.864,0,0,1-4.947,1.362,29.947,29.947,0,0,0-12.885,4.64c-5.237,3.514-10.736,3.766-16.383.952-1.2-.6-2.436-1.136-3.643-1.726a13.674,13.674,0,0,0-11.165-.836,21.325,21.325,0,0,1-16.78-.523c-2.31-1.02-5.24-.8-7.89-.845-3.062-.048-6.141.442-9.2.323-3.4-.132-6.589-1.2-7.767-4.844-1.075-3.327.458-5.976,2.943-8.148.578-.5,1.362-.874,1.717-1.5a2.6,2.6,0,0,0,.019-1.923c-.171-.487-.758-.839-1.181-1.229-10.091-9.268-15.279-21.085-17.167-34.354A67.751,67.751,0,0,1,49.42,96.9C53.3,88.575,58.636,81.4,66.306,76.155a18.3,18.3,0,0,1,4.524-2.469c.813-.261,1.959.494,2.953.791a14.109,14.109,0,0,1-.913,2.5c-.258.449-.9.7-1.394.987C61.311,83.855,55.076,92.9,51.3,103.71,45.693,119.8,46.135,135.785,53,151.458A42.745,42.745,0,0,0,65.728,168.3c3.166,2.485,3.269,2.581,6.541.5a17.467,17.467,0,0,1,10.278-3.078c1.759.058,3.533-1.078,5.347-1.471a2.4,2.4,0,0,1,1.991.607,2.457,2.457,0,0,1,.258,2.075,4.643,4.643,0,0,1-5,3.175c-8.07-1.223-13.424,5.034-20.3,7.019a4.672,4.672,0,0,0-1.833,1.355c-1.83,1.9-1.226,4.331,1.375,4.647a72.553,72.553,0,0,0,8.632.077Zm53.434-32.934a7.931,7.931,0,0,0-1.168-2.711c-2.188-2.369-4.279-5.034-6.957-6.7-7.8-4.847-21.836-3.562-28.752,2.546a26.74,26.74,0,0,0-5.024,6.867c-.823,1.436-1.217,3.556.965,4.4,2.036.794,2.488-1.068,3.1-2.469a11.385,11.385,0,0,1,10.855-7.215,64.96,64.96,0,0,1,13.053,1.407,11.032,11.032,0,0,1,8.306,6.483c.281.636.771,1.446,1.342,1.636,1.426.471,4.311-2.191,4.276-4.253Z" transform="translate(-29.29 -49.872)" fill="#262c54"/>
    <path id="Path_18129" data-name="Path 18129" d="M86.736,0c5.921.684,10.688,1.2,15.441,1.807a7.935,7.935,0,0,1,3.259,1.01,2.676,2.676,0,0,1,1.1,2.239c-.177.616-1.349,1.233-2.136,1.313a14.179,14.179,0,0,1-3.4-.449C75.906,2.085,53.728,8.454,34.669,25.173a48.083,48.083,0,0,0-14.753,22.34,3.9,3.9,0,0,1-.168.552c-.691,1.471-.9,3.934-3.272,2.995-2.081-.823-1.184-2.962-.729-4.55a47.91,47.91,0,0,1,8.829-16.719c11.1-13.927,25.718-22.382,42.76-26.654C74,1.465,80.934.907,86.732,0Z" transform="translate(-10.271)" fill="#262c54"/>
    <path id="Path_18130" data-name="Path 18130" d="M392.341,164.243c-.739,14.357-4.689,26.37-12.717,36.954a9.716,9.716,0,0,1-.71.9c-1.146,1.194-2.2,3.327-4.137,1.943-2.033-1.455-.339-3.108.674-4.4a58.368,58.368,0,0,0,11.155-23.753,45.9,45.9,0,0,0-1.781-27.148c-1.6-4.108-3.379-8.151-5.024-12.243a15.2,15.2,0,0,1-1.133-3.824c-.058-.5.726-1.271,1.307-1.623a1.74,1.74,0,0,1,1.565.242,4.379,4.379,0,0,1,1.371,1.778c2.782,7.341,5.721,14.634,8.145,22.091,1.045,3.217.987,6.793,1.284,9.084Z" transform="translate(-253.197 -88.692)" fill="#262c54"/>
    <path id="Path_18131" data-name="Path 18131" d="M289.652,202.974c-4.147-.713-7.577-1.123-10.907-1.946a17.909,17.909,0,0,1-5.712-2.533c-3.979-2.727-4.789-7.006-2.091-11.026,3.214-4.792,8.177-7.367,13.253-9.671a2.122,2.122,0,0,1,2,.484,4.943,4.943,0,0,1,.1,2.546c-.032.3-.536.52-.755.826-3.64,5.082-3.3,8.258,1.378,12.372,1.291,1.133,2.733,2.091,4.056,3.195,1.307,1.091,3.062,2.349,1.92,4.172-.626,1-2.472,1.239-3.24,1.584ZM277.044,186.7c-1.1,1.584-2.4,2.827-2.862,4.327a3.859,3.859,0,0,0,.984,3.482,24.713,24.713,0,0,0,6.17,2.556c.887.278,1.3-.449.855-1.378-1.226-2.533-2.43-5.079-3.7-7.59C278.284,187.685,277.8,187.411,277.044,186.7Z" transform="translate(-182.448 -120.369)" fill="#262c54"/>
    <path id="Path_18132" data-name="Path 18132" d="M139.321,202.468a5.879,5.879,0,0,1-2.259-.216c-1.262-.7-2.991-1.465-3.366-2.588s.371-2.959,1.217-4.011c1.039-1.294,2.707-2.075,4.069-3.124,3.746-2.878,3.892-5.628.445-8.977-.674-.655-1.659-1.036-2.194-1.768a2.271,2.271,0,0,1-.158-2.043,2.915,2.915,0,0,1,1.881-.962,2.752,2.752,0,0,1,1.63.439c4.008,2.2,8.312,4.024,11.91,6.77,5.789,4.414,5.044,10.42-1.6,13.534-3.562,1.668-7.58,2.372-11.394,3.508-.058-.187-.119-.374-.177-.561Zm3.366-4.25c2.459-1.11,5.289-2.175,7.893-3.64a2.441,2.441,0,0,0,.555-3.943,12.814,12.814,0,0,0-2.527-2.269c-.871-.607-1.855-.687-2.11.687-.6,3.246-2.727,5.347-5.186,7.248-.265.2-.355.626-.529.949C141.228,197.476,141.674,197.7,142.687,198.219Z" transform="translate(-90.491 -121.076)" fill="#262c54"/>
    <path id="Path_18133" data-name="Path 18133" d="M190.242,39.622c7.628-.952,14.889,3.114,22.572,5.253a2.508,2.508,0,0,1,1.262,2.133,2.509,2.509,0,0,1-2.023,1.449,42.917,42.917,0,0,1-8.313-2.039c-10.558-4.147-20.936-3.469-31.269.707-1.713.694-3.837,2.172-4.873-.336-.852-2.062,1.491-2.711,2.959-3.45,5.963-3,12.375-3.8,19.687-3.717Z" transform="translate(-113.396 -26.74)" fill="#262c54"/>
    <path id="Path_18134" data-name="Path 18134" d="M364.411,49.159c-1.2.416-2.275,1.184-2.962.926a7.035,7.035,0,0,1-2.436-2.291c-1.949-2.349-3.872-4.724-5.731-7.144a31.271,31.271,0,0,0-14.418-10.881c-3.214-1.155-4.053-2.546-3.1-3.782,1.452-1.9,3.117-.7,4.66-.145a30.584,30.584,0,0,1,14.018,9.565c2.743,3.427,5.544,6.809,8.232,10.274a22.14,22.14,0,0,1,1.746,3.482Z" transform="translate(-227.167 -16.903)" fill="#262c54"/>
    <path id="Path_18135" data-name="Path 18135" d="M302.325,132.074a101.29,101.29,0,0,1-10.071-2.123,15.378,15.378,0,0,1-10.123-9.5c-.287-.752.355-2.056.936-2.827.184-.242,1.584.423,2.414.71.148.052.242.29.336.455,5.06,8.893,13.159,9.435,21.978,7.983.565-.094,1.149-.474,1.655-.374.671.132,1.578.465,1.823.981a2.338,2.338,0,0,1-.313,2.065,4.727,4.727,0,0,1-2.327,1.539c-2.03.5-4.124.736-6.309,1.094Z" transform="translate(-191.045 -79.63)" fill="#262c54"/>
    <path id="Path_18136" data-name="Path 18136" d="M95.231,133.46a34.873,34.873,0,0,1-5.47-.623,7.853,7.853,0,0,1-3.224-2.11c-.361-.355-.242-1.442-.013-2.075.142-.384.9-.7,1.41-.752a5.113,5.113,0,0,1,1.649.368c9.674,2.44,16.167.187,22.011-7.625a8.657,8.657,0,0,1,1.488-1.684c.92-.716,2.672.055,2.562,1.191a9.319,9.319,0,0,1-1.1,3.73c-3.253,5.508-8.454,8.083-14.518,9.184-1.494.271-3.043.261-4.789.4Z" transform="translate(-58.46 -80.384)" fill="#262c54"/>
    <path id="Path_18137" data-name="Path 18137" d="M25.173,316.772c-1.158.558-2.107,1.41-2.665,1.2a8.61,8.61,0,0,1-3.211-2.2,43.212,43.212,0,0,1-9.326-15.554c-.245-.716-.742-1.526-.591-2.165a11.91,11.91,0,0,1,1.43-2.743,9.753,9.753,0,0,1,2.243,1.352,5.962,5.962,0,0,1,.884,2.078,42.741,42.741,0,0,0,8.832,14.54,32.015,32.015,0,0,1,2.4,3.485Z" transform="translate(-6.338 -200.016)" fill="#262c54"/>
    <path id="Path_18138" data-name="Path 18138" d="M430.463,308.05a9.316,9.316,0,0,1-.529,2.459q-3.93,6.98-8.019,13.866a3.429,3.429,0,0,1-1.743,1.407,2.474,2.474,0,0,1-2.056-.252c-.436-.387-.407-1.32-.532-2.02-.026-.152.145-.345.242-.51,2.94-5.134,5.841-10.294,8.884-15.367a3.049,3.049,0,0,1,2.333-1c.494,0,.981.952,1.423,1.423Z" transform="translate(-282.835 -207.683)" fill="#262c54"/>
    <path id="Path_18139" data-name="Path 18139" d="M353.595,85.141c-1.3.552-2.614,1.526-3.036,1.226-3.9-2.736-7.677-5.657-11.4-8.635a2.056,2.056,0,0,1-.307-1.994,4.238,4.238,0,0,1,2.336-1.058c.458-.081,1.081.358,1.53.694,2.9,2.185,5.812,4.347,8.616,6.644a16.955,16.955,0,0,1,2.262,3.124Z" transform="translate(-229.414 -50.575)" fill="#262c54"/>
    <path id="Path_18140" data-name="Path 18140" d="M431.73,124.944c.6-.745,1.049-1.849,1.707-1.988a2.586,2.586,0,0,1,2.262,1.068,82.238,82.238,0,0,1,3.007,9.235,1.848,1.848,0,0,1-3.537,1.023c-1.262-2.978-2.265-6.067-3.44-9.342Z" transform="translate(-292.418 -83.265)" fill="#262c54"/>
    <path id="Path_18141" data-name="Path 18141" d="M4.124,254.214a5.168,5.168,0,0,1-.245,1.749c-.345.61-.9,1.4-1.471,1.5a2.055,2.055,0,0,1-1.781-.939,12.434,12.434,0,0,1-.591-4.414,2.527,2.527,0,0,1,1.83-1.7c.632-.023,1.475.933,1.907,1.649a5.831,5.831,0,0,1,.358,2.156Z" transform="translate(-0.01 -169.604)" fill="#262c54"/>
  </g>
</svg>
