<svg id="_34" data-name="34" xmlns="http://www.w3.org/2000/svg" width="147.706" height="147.396" viewBox="0 0 147.706 147.396">
  <g id="Group_17217" data-name="Group 17217" transform="translate(13.463 13.86)">
    <path id="Path_18142" data-name="Path 18142" d="M281.472,182.976a5.824,5.824,0,0,0-1.2-1.5,1.946,1.946,0,0,0-2.288-1.136,2.07,2.07,0,0,0-.755.449,9.1,9.1,0,0,0-3.472-.768,4.411,4.411,0,0,0-1.049-.11h-.016a1.573,1.573,0,0,0-.174,0v.006a1.94,1.94,0,0,0-1.723,1.152,1.784,1.784,0,0,0-.026,1.368,3.671,3.671,0,0,0-1.562,1.594,1.224,1.224,0,0,0,1.365,1.775c.245-.068.452-.158.694-.248-.232.087.255-.077.3-.094.3-.1.61-.187.916-.281a8.278,8.278,0,0,1,.823-.2c.074-.006.323-.045.378-.048.161-.01.326-.01.487-.006.126,0,.252.013.374.023-.158-.006.287.039.361.055a7.176,7.176,0,0,1,.816.242c.032.016.113.048.19.084a.1.1,0,0,0,.019.016,7.672,7.672,0,0,0,1.6,1.355.016.016,0,0,1,0-.01,1.73,1.73,0,0,0,1.175.226c.023,0,.039-.013.061-.016a1.58,1.58,0,0,0,1.249.232,1.589,1.589,0,0,0,2.188-1.459,5.126,5.126,0,0,0-.733-2.7Z" transform="translate(-195.71 -135.713)" fill="#75757c"/>
    <path id="Path_18143" data-name="Path 18143" d="M161.884,180.8a6.576,6.576,0,0,0-7.7-4.172,2.135,2.135,0,0,0-1.526,2.336.17.17,0,0,0,.01.039c-.045.01-.094.01-.139.019a4,4,0,0,0-.429.113c-.084.026-.887.332-.558.21a1.493,1.493,0,0,0-1.078,1.417c.016.129.032.258.052.387.261,1.2,1.488,1.107,2.294,1.029.3-.029.591-.071.887-.094a13.174,13.174,0,0,1,1.784-.016c.271.016.542.042.81.074.061.01.174.026.229.036.145.026.294.055.439.084.336.071.668.158,1,.255a2.256,2.256,0,0,0,3.166.529,2.13,2.13,0,0,0,.765-2.246Z" transform="translate(-115.367 -133.351)" fill="#75757c"/>
    <path id="Path_18144" data-name="Path 18144" d="M226.963,47.9l-.468.378a1.187,1.187,0,0,0-1.926-1.265c-.2.165-.419.319-.623.484.084-.184.168-.368.248-.555.361-.833-.452-2.03-1.394-1.394-.129.087-.255.177-.381.265.223-.978-.765-2.272-1.788-1.484a27.837,27.837,0,0,1-2.746,1.833c.077-.265.168-.523.226-.8a1.362,1.362,0,0,0-1.975-1.52c-.839.52-1.684,1.026-2.53,1.536.068-.113.139-.223.207-.336a1.262,1.262,0,0,0-1.714-1.713c-.439.255-.884.494-1.326.739a1.523,1.523,0,0,0-1.807-1.107,26.337,26.337,0,0,0-4.9,1.317,1.136,1.136,0,0,0-1.184.194c-.271.207-.542.416-.81.623a1.453,1.453,0,0,0,1.465,2.507,23.47,23.47,0,0,1,3.266-1.2,1.433,1.433,0,0,0,1.784,2.178l.074-.048a1.291,1.291,0,0,0,1.755,1.749c1.016-.594,2.033-1.194,3.049-1.788-.016.016-.026.035-.042.052-.9.971-.026,3.014,1.417,2.433.471-.19.923-.416,1.375-.636-.652.968.361,2.068,1.413,1.894l-.261.232c-1.146.984.129,2.514,1.349,2.2-.016.029-.029.055-.042.084-.881.807-1.768,1.6-2.672,2.385-.168-.791-.987-1.449-1.781-.849q-2.783,2.106-5.566,4.208c0-.874-.9-1.739-1.781-1.1-1.73,1.252-3.453,2.514-5.179,3.769.432-.536.858-1.075,1.291-1.61.723-.891-.223-2.514-1.339-1.736l-6.367,4.443L197,62.448c.865-.913-.287-2.614-1.4-1.82l-5.124,3.64.155-.165c.894-.955-.3-2.736-1.465-1.9q-2.057,1.481-4.118,2.959a.324.324,0,0,1,.032-.036c.9-.984-.31-2.827-1.5-1.952q-1.878,1.375-3.756,2.753a1.157,1.157,0,0,0-1.746-.658l-4.285,2.943A1.183,1.183,0,0,0,171.99,67.1q-1.578,1.075-3.159,2.146c.107-.929-.765-1.939-1.743-1.255-.1.071-.2.139-.307.21a.526.526,0,0,0-.8-.536,38.091,38.091,0,0,0-8.638,7.241c-.823.923.226,2.465,1.368,1.772,1.1-.668,2.175-1.384,3.243-2.11,0,.874.829,1.723,1.755,1.094.465-.316.929-.629,1.394-.945-.058.9.874,1.833,1.8,1.2q1.607-1.1,3.214-2.2c.061.855.978,1.665,1.826,1.042q1.6-1.171,3.195-2.34c-.542,1.007.558,2.507,1.665,1.707q1.922-1.389,3.846-2.782c-.62.965.481,2.481,1.565,1.707q2.527-1.81,5.057-3.617l-1.233,1.31c-.845.9.277,2.559,1.378,1.784l8.9-6.254-1.694,2.062c-.765.936.245,2.662,1.413,1.83.878-.626,1.752-1.258,2.63-1.888-.348.984.713,2.288,1.726,1.523l5.589-4.211a1.2,1.2,0,0,0,1.836,1.084c1.82-1.268,3.592-2.594,5.341-3.956a1.262,1.262,0,0,0,1.9.975c1.4-.945,2.749-1.968,4.066-3.024a1.153,1.153,0,0,0,1.471.123,22.8,22.8,0,0,0,7.745-7.6,1.233,1.233,0,0,0-.268-1.607,23.243,23.243,0,0,0,.845-2.556,1.162,1.162,0,0,0-1.926-1.12Z" transform="translate(-119.832 -42.943)" fill="#84b9eb"/>
    <path id="Path_18145" data-name="Path 18145" d="M84.808,91.441q-1.6.983-3.2,1.968a1.5,1.5,0,0,0-.165-.035,1.372,1.372,0,0,0-2-1.249q-1.868,1.249-3.73,2.5a1.228,1.228,0,0,0-1.817-.978c-.62.4-1.239.813-1.859,1.22a1.174,1.174,0,0,0-1.891-.429A22.512,22.512,0,0,1,67.8,96.272c.161-.342.326-.684.487-1.026A1.29,1.29,0,0,0,66.538,93.5q-1.83.876-3.656,1.752c.084-.855-.545-1.885-1.542-1.478l-2.223.9c.319-.458.632-.92.952-1.378.713-1.016-.655-2.191-1.633-1.633-.72.413-1.442.823-2.162,1.236.5-.632.987-1.268,1.484-1.9a1.258,1.258,0,0,0-.384-1.9c.184-.207.365-.416.552-.623a1.256,1.256,0,0,0-1-2.068c.1-.1.2-.2.3-.3a1.123,1.123,0,0,0,.278-1.139c1.972-1.62,3.93-3.256,5.85-4.947.894-.784-.271-2.3-1.275-1.649-.526.339-1.062.678-1.591,1.016h-.052A20.156,20.156,0,0,0,49.619,85.7a1.342,1.342,0,0,0,.345,1.933c-1.8,1.394-3.595,2.8-5.305,4.289-1.11.968.407,2.988,1.6,2.068.436-.339.884-.665,1.326-1a1.417,1.417,0,0,0,1.9.7c.449-.219.884-.458,1.326-.691-.445.507-.894,1.013-1.339,1.52a1.2,1.2,0,0,0,1.236,1.949,1.125,1.125,0,0,0,1.633,1.342L54.9,96.382c-.1.136-.2.271-.294.407a1.268,1.268,0,0,0,1.42,1.846c1.039-.4,2.072-.813,3.1-1.229a1.386,1.386,0,0,0,1.933,1.778q1.772-.91,3.54-1.82c-.171.394-.342.791-.513,1.184a1.2,1.2,0,0,0,1.633,1.633l.145-.077a1.094,1.094,0,0,0,1.746.571c.991-.733,2.017-1.423,3.053-2.1a1.274,1.274,0,0,0,1.878,1.184q1.229-.8,2.462-1.607a1.329,1.329,0,0,0,.571,1.055c-.216.219-.432.436-.645.658-1.187,1.229.571,2.9,1.846,1.846,3.249-2.688,6.431-5.463,9.642-8.2,1.152-.978-.339-2.859-1.6-2.078Z" transform="translate(-43.448 -66.831)" fill="#84b9eb"/>
    <g id="Group_17216" data-name="Group 17216" transform="translate(0 0.538)">
      <path id="Path_18146" data-name="Path 18146" d="M87.223,68.641c1.207-.791,2.4-1.6,3.608-2.4-1.275,1.217-2.52,2.465-3.75,3.727a9.981,9.981,0,0,0,3.459.752c.145,0,.29.013.436.016a14.033,14.033,0,0,0,1.672-.09A2.288,2.288,0,0,1,94.093,71a2.876,2.876,0,0,1,1.475-.355c1.646.052,3.282.016,4.915-.068,1.258-.91,2.511-1.83,3.775-2.727q-1.776,1.355-3.553,2.717c2.252-.123,4.5-.339,6.744-.581.481-.336.955-.681,1.439-1.016,5.879-4.047,11.833-7.99,17.9-11.756q-8.238,6.22-16.467,12.453c.449-.052.894-.1,1.342-.148a2.943,2.943,0,0,1,.4-.113,34.316,34.316,0,0,1,7.3-.652c7.38-1.01,14.686-3.178,21.946-4.585,1.833-.355,3.646-.768,5.45-1.2,4.466-3.856,8.958-7.68,13.443-11.514,1.313-1.123-.4-3.346-1.849-2.4Q155.4,51,152.487,52.984a1.031,1.031,0,0,0-1.407-.432,176.612,176.612,0,0,0-15.018,10.323c4.534-3.63,9.077-7.251,13.585-10.91,1.081-.878.255-2.469-.871-2.724.449-.352.9-.7,1.346-1.049,1.107-.878-.348-2.775-1.517-1.968-5.989,4.143-11.785,8.564-17.632,12.9q-5.915,4.39-11.843,8.768c.652-.545,1.294-1.1,1.949-1.649a1.16,1.16,0,0,0,.339-1.326q4.318-3.325,8.626-6.657,7.086-5.489,14.056-11.123c1.078-.868-.3-2.472-1.433-1.855q-8.2,4.453-16.157,9.3,4.7-3.611,9.387-7.222c1.442-1.107.207-3.492-1.471-2.517-2.633,1.526-5.234,3.1-7.816,4.7a1.385,1.385,0,0,0-2.017-1.517c-10.6,5.118-20.381,11.675-29.891,18.6,6.464-5.992,13.382-11.514,20.288-16.99,1.249-.991-.4-3.153-1.717-2.227-9.084,6.4-18.18,12.808-27.064,19.481-1.016.762-.094,2.481,1.023,1.752Z" transform="translate(-71.556 -44.611)" fill="#eac485"/>
      <path id="Path_18147" data-name="Path 18147" d="M293.653,79.979c3.111-.852,6.2-1.749,9.306-2.614q1.258-1.559,2.5-3.13a1.3,1.3,0,0,0-1.843-1.843c-.461.358-.913.723-1.371,1.084a1.457,1.457,0,0,0-1.31.336c-2.414,2.072-4.85,4.114-7.283,6.163Z" transform="translate(-212.354 -63.2)" fill="#eac485"/>
      <path id="Path_18148" data-name="Path 18148" d="M48.644,157.06q7.4-5.673,14.841-11.275a2.667,2.667,0,0,1-1.078-.342c-2.249-.132-4.5-.319-6.76-.542a3.356,3.356,0,0,1-1.41-.461c-.055.068-.116.132-.171.2a1.438,1.438,0,0,0,2.033,2.033q.663-.523,1.323-1.039c-3.6,2.943-7.154,5.941-10.6,9.058-1.246,1.126.455,3.417,1.826,2.365Z" transform="translate(-44.881 -112.226)" fill="#eac485"/>
      <path id="Path_18149" data-name="Path 18149" d="M159.436,144.2c-.013-.071-.039-.132-.045-.207a22.565,22.565,0,0,1-.145-2.756,6.183,6.183,0,0,0-.616.487,1.8,1.8,0,0,0-2.933-1.42c-.242.19-.481.384-.723.574q2.2-1.926,4.46-3.785c.09-1.223.177-2.449.216-3.679q-2.256,1.636-4.544,3.243a1.547,1.547,0,0,0-1.73-.01c-.926.6-1.833,1.226-2.749,1.836,2.824-3.127,5.808-6.109,8.864-9.032-.155-1.126-.4-2.32-.581-3.511-5.686,3.83-11.233,7.854-16.686,12.011-.642.442-1.291.878-1.93,1.326,4.853-4.118,9.787-8.138,14.731-12.146,1.229-1-.423-3.169-1.707-2.214-5.131,3.821-10.2,7.751-15.3,11.636.6-.6,1.2-1.2,1.8-1.794,5.224-5.179,10.416-10.4,15.683-15.534,1.236-1.207-.565-2.872-1.849-1.849q-4.022,3.195-8.035,6.409a1.581,1.581,0,0,0-1.281.294q4.947-5.252,9.916-10.484c1.049-1.1-.365-3.179-1.7-2.2q-5.034,3.688-10.065,7.377,4.69-3.95,9.387-7.893c1.284-1.084-.413-3.308-1.81-2.343A220.84,220.84,0,0,0,131.8,122.547c-1.968,1.688-3.895,3.417-5.805,5.17a3.989,3.989,0,0,1,1.107.865c2.42,2.817-1.478,6.877-4,4.424-.158-.048-.323-.123-.455-.152a6.155,6.155,0,0,0-1.4-.148h-.426c-.3.316-.607.629-.907.949l-.849.707a.618.618,0,0,0-.91-.3c-.229.129-.449.274-.674.407a1.758,1.758,0,0,0-.323-.236c.484-.41.965-.823,1.446-1.233a1.1,1.1,0,0,0-.255.139,3.058,3.058,0,0,1-4.218,0,3.266,3.266,0,0,1-.858-2.278c-2.811,1.981-5.618,3.963-8.409,5.97a261.791,261.791,0,0,1,24.273-19.981q-3.766,3.388-7.515,6.789c-1.278,1.158-2.546,2.323-3.817,3.488a12.5,12.5,0,0,1,3.446-.384,12.7,12.7,0,0,1,3.969.616q4.076-3.475,8.151-6.954a1.283,1.283,0,0,0,.278-.339c4.169-3.411,8.251-6.928,12.378-10.387.8-.674-.261-2.072-1.129-1.462-2.891,2.033-5.747,4.118-8.584,6.225,3.224-3.085,6.386-6.276,9.748-9.21,1.146-1-.326-2.817-1.6-2.075-2.811,1.636-5.576,3.359-8.309,5.134,2.62-2.275,5.25-4.537,7.909-6.76.752-.629-.252-1.952-1.058-1.368-7.751,5.592-15.328,11.349-22.533,17.632q-2.294,2-4.553,4.034a1.753,1.753,0,0,0-.3-.332l2.769-2.556c5.941-5.489,12.007-10.839,18.026-16.247a74.13,74.13,0,0,1-8.635,3.23l-.006.006q-4.623,3.6-9.3,7.131c-.591.445-1.187.887-1.781,1.326a.938.938,0,0,0-.126.039c-.216.113-.429.232-.642.348.833-.842,1.668-1.684,2.491-2.536l4-3.592a1.428,1.428,0,0,0,.532-1.288c.029-.032.058-.068.087-.1-4.456,1.152-8.99,2.056-13.479,2.911q-1.108.92-2.214,1.843a1.7,1.7,0,0,0-.5-1.326c-.49.094-.981.184-1.468.278-2.239.426-4.482.807-6.731,1.165q-7.59,6.476-15.176,12.966a6.034,6.034,0,0,1,2.959,1,3.634,3.634,0,0,1,.294.239,12.349,12.349,0,0,1,2.4.771,2.2,2.2,0,0,1,.768.6,1.607,1.607,0,0,0-.4-1.407q4.168-3.195,8.345-6.376c-.632.526-1.265,1.049-1.9,1.578a1.153,1.153,0,0,0,.361,1.978l-4.366,3.94-1.494,1.346a3.23,3.23,0,0,1-.248,2.427A3.008,3.008,0,0,1,86.4,132.36q-5.765,4.235-11.349,8.706c3.34-3.095,6.751-6.112,10.2-9.087-1.9-.436-4.14.184-5.941.578a2.951,2.951,0,0,1-3.162-1.21q-3.48,2.977-6.967,5.947l-8.626,6.37c4.25-4.3,8.671-8.442,13.208-12.449a1.785,1.785,0,0,0,1.052-.4c.278-.223.558-.442.836-.665a2.883,2.883,0,0,1,1.362-3.046,12.664,12.664,0,0,1,4.908-1.946c5.479-4.363,10.968-8.713,16.509-12.992-5.931.939-11.888,1.665-17.864,2.22q-6.341,4.787-12.691,9.552c.581-.52,1.155-1.052,1.736-1.568q4.434-3.945,8.935-7.806-2.991.261-5.986.478a61.983,61.983,0,0,1-7.909.481c-1.249.065-2.494.132-3.743.187q-2.372,1.815-4.75,3.63a1.72,1.72,0,0,0,.239,2.853q-4.158,3.011-8.164,6.215a1.482,1.482,0,0,0-.384.239l-1.262,1.075c-1.126.962-.126,2.385,1.055,2.427a1.7,1.7,0,0,0,.691,1.91c-2.136,1.885-4.24,3.808-6.344,5.725-.816.745.365,1.852,1.191,1.191,5.524-4.408,11.033-8.835,16.567-13.23-.855.781-1.723,1.549-2.575,2.333-3.495,3.214-7.09,6.351-10.52,9.632-1.152,1.1.416,3.275,1.749,2.269q5.1-3.858,10.21-7.686-3.727,3.083-7.454,6.163a1.352,1.352,0,0,0-.271,1.939c-.755.626-1.513,1.252-2.265,1.885a12.573,12.573,0,0,0-3.162,3.159.844.844,0,0,0,.942,1.226,11.774,11.774,0,0,0,3.569-2.246c1.094-.842,2.191-1.675,3.275-2.53q3.548-2.8,7.09-5.621a170.752,170.752,0,0,0,13.385-11.7.654.654,0,0,0,.042-.058q4.487-3.611,8.974-7.222-5.228,4.5-10.326,9.132a1.814,1.814,0,0,0-.345.432c-5.244,4.618-10.284,9.468-15.163,14.476q-1.9,1.786-3.792,3.572a.5.5,0,0,0-.152.542q-2.759,2.924-5.46,5.9c-1.113,1.229.371,3.508,1.875,2.43,2.882-2.062,5.734-4.169,8.577-6.289-3.73,3.311-7.367,6.718-10.849,10.281-.645.662.3,1.542.991.991,4.472-3.579,8.909-7.193,13.356-10.794q-5.169,5.218-10.1,10.652a1.434,1.434,0,0,0,2.026,2.026c5.663-4.889,11.4-9.726,17.238-14.437q-6.505,6.636-12.514,13.75A1.591,1.591,0,0,0,60.35,164.2q12.232-11.123,24.605-22.085c-.31.345-.629.687-.933,1.039-1.313,1.52-3.056,3.191-3.863,5.053a.568.568,0,0,0,.19.7q-8.287,7.057-16.1,14.66-4.632,4.526-9.081,9.242a1.393,1.393,0,0,0,1.968,1.968c1.536-1.446,3.091-2.875,4.637-4.311a1.449,1.449,0,0,0,2.23.068q6.965-7.44,14.263-14.547,3.742-3.548,7.586-6.989-6.534,6.384-13.1,12.737a1.528,1.528,0,0,0,.632,2.594q-2.836,2.488-5.628,5.028c-1.6,1.468-3.2,2.94-4.753,4.46a23.747,23.747,0,0,0-4.237,4.9.654.654,0,0,0,.887.887,22.527,22.527,0,0,0,4.56-3.3c.929-.794,1.849-1.594,2.772-2.394-.474.494-.955.987-1.42,1.491-1.417,1.536-3.272,3.2-4.03,5.189a.727.727,0,0,0,.891.891c1.914-.778,3.472-2.54,4.976-3.921,1.678-1.546,3.317-3.14,4.966-4.718,3.3-3.156,6.638-6.27,9.978-9.384.458-.426.926-.845,1.388-1.271-1.081,1.168-2.149,2.346-3.188,3.559a.632.632,0,0,0,0,.894c-1.149,1.142-2.3,2.281-3.427,3.44-3.55,3.633-7.28,7.261-10.245,11.4-.423.587.429,1.468,1.02,1.02.465-.355.913-.736,1.365-1.107-.61.629-1.226,1.249-1.836,1.881a1.135,1.135,0,0,0,1.6,1.6q2.449-2.29,4.9-4.576c-1.01,1.552-1.333,3.708.568,4.789,1.613.92,3.569-.058,4.815-1.155,1.626-1.433,3.095-3.1,4.614-4.653.962-.981,1.917-1.975,2.875-2.959a1.7,1.7,0,0,0,.5.549c-.177.168-.361.329-.539.5-4.253,4.024-8.422,8.183-12.32,12.553-1.471,1.649.881,4.05,2.443,2.443.365-.374.732-.745,1.1-1.12a1.541,1.541,0,0,0,2.469.662c1.026-.933,2.072-1.839,3.114-2.753l.168-.145c-.226.255-.445.513-.668.771-.152.155-.313.3-.465.455a14.541,14.541,0,0,0-2.3,2.662.613.613,0,0,0,.174.771.944.944,0,0,0,1.536.336c1.117-.975,2.233-1.93,3.324-2.917.5-.39.981-.778,1.449-1.142,1.681-1.3,3.3-2.682,4.9-4.085a1.707,1.707,0,0,0,1.036.984c-2.388,1.936-4.74,3.911-6.973,6.047a.861.861,0,0,0,1.039,1.346c1.678-1.065,3.3-2.2,4.9-3.359-.584.771-1.155,1.549-1.694,2.352-.829,1.239.878,3.078,2.127,2.127,1.139-.868,2.3-1.707,3.456-2.559q-1.283,1.481-2.485,3.043c-.984,1.281.907,2.988,2.172,2.172q5.6-3.621,11.149-7.3c-1.468,1.294-2.93,2.594-4.4,3.879-1.058.923.065,2.988,1.42,2.443a74.274,74.274,0,0,0,7.835-3.759c-.471.565-.942,1.133-1.381,1.726-.9,1.21.81,2.653,1.978,1.978q4.3-2.5,8.6-5.018a1.539,1.539,0,0,0,1.42,2.056,4.355,4.355,0,0,0,2.991-1.281.811.811,0,0,0,.11-1.029c.975-.958,1.939-1.933,2.959-2.843l.065-.035q2.5-1.723,4.989-3.453c-.671.758-1.336,1.523-1.978,2.31-1.281,1.572.952,3.83,2.246,2.246,6-7.354,13.44-13.3,20.826-19.184,1.452-1.155-.455-3.64-1.994-2.585q-4.715,3.233-9.426,6.47,6.341-5.808,12.959-11.3c1.662-1.407-.726-3.743-2.378-2.378-4.25,3.6-8.519,7.219-12.914,10.658q8.258-7.42,16.515-14.841c1.675-1.5-.8-3.963-2.469-2.469q-9.889,8.872-19.955,17.548c-3.3,2.833-6.6,5.67-9.952,8.445-.542.449-1.1.945-1.684,1.449,10.413-10.491,21.817-19.962,33.211-29.371a1.707,1.707,0,0,0,0-2.394,1.642,1.642,0,0,0-2.068-.213c1.113-1.026,2.21-2.062,3.279-3.137a30.408,30.408,0,0,0,2.2-2.407Zm-18.342-20.962q-2.672,2.774-5.334,5.557a1.949,1.949,0,0,0-.968-.942Q137.943,125.543,141.094,123.237Zm-16.467,16.912c.771-.687,1.552-1.365,2.327-2.049-.555.594-1.117,1.181-1.668,1.775a1.359,1.359,0,0,0-.368,1.329l-20.139,17.783c6.328-6.573,13.037-12.791,19.849-18.842Zm-25.1-.352a1.841,1.841,0,0,0,.7.387q-2.207,1.612-4.4,3.24,1.844-1.815,3.695-3.627ZM78.989,179.485c-.174.177-.349.361-.523.545.019-.023.039-.052.055-.074q1.133-1.365,2.281-2.714,4.09-4.811,8.364-9.465c6.564-7.144,13.511-13.83,20.659-20.378a1.468,1.468,0,0,0,.474-1.549q5.857-4.424,11.807-8.738c-8.974,7.68-17.4,15.986-25.657,24.437-5.831,5.97-11.6,12-17.467,17.935Zm17.964-4.979c-.6.426-1.2.862-1.8,1.3a202.609,202.609,0,0,1,14.9-15.3q5.823-5.489,11.688-10.93a1.439,1.439,0,0,0,2.285.607c.052-.039.1-.081.152-.119q-2.473,2.43-4.853,4.957-9.913,7.972-19.29,16.577c-1.013.933-2.033,1.933-3.082,2.911Zm7.683,7.293a1.652,1.652,0,0,0,.358.881c-1.559,1.12-3.13,2.223-4.7,3.327q2.115-2.154,4.337-4.211Zm-.891,7c1.436-1.352,2.92-2.649,4.427-3.927a1.624,1.624,0,0,0,.674.661c-1.7,1.084-3.4,2.178-5.1,3.266Zm7.97.884c.426-.387.849-.781,1.278-1.168a1.589,1.589,0,0,0,.171.339c-.484.274-.962.558-1.449.826Zm-.436-15.631a1.718,1.718,0,0,0-.994-.529c3.03-2.475,6.06-4.953,9.113-7.4q-2.159,2.033-4.282,4.1C113.823,171.479,112.552,172.764,111.28,174.051Zm8.041,15.208c.665-.558,1.342-1.107,2.027-1.642a1.648,1.648,0,0,0,.82-.026Q120.745,188.424,119.322,189.26ZM131.31,167.41q-2.459,1.922-4.918,3.846,6.51-5.867,13-11.749a.632.632,0,0,0,.865.3c.865-.432,1.691-.884,2.507-1.349q-5.726,4.477-11.456,8.958Zm4.366-11.165c1.749-1.526,3.517-3.027,5.282-4.534a.969.969,0,0,0,.139.219l-5.421,4.318ZM142.2,144.3c-11.649,8.338-22.782,17.39-33.886,26.444a279.974,279.974,0,0,1,26.464-22.911c3.737-2.9,7.512-5.76,11.291-8.609A60.853,60.853,0,0,0,142.2,144.3Z" transform="translate(-41.717 -82.14)" fill="#eac485"/>
    </g>
  </g>
  <g id="Group_17218" data-name="Group 17218">
    <path id="Path_18150" data-name="Path 18150" d="M129.592,39.164c-2.546,0-5.1-.029-7.638.029-.423.01-.839.381-1.255.587a5.643,5.643,0,0,0,1.178.958c2.83,1.236,5.683,2.423,8.535,3.614,2.033.852,3.9,2.911,6.225.123.778-.936,2.494.365,2.42,1.839a6.291,6.291,0,0,1-3.117,5.45,25.659,25.659,0,0,1-6.434,2.875c-7.948,1.914-15.954,3.588-23.953,5.282a62.962,62.962,0,0,1-8.067,1.271c-.745.058-1.581-1.016-2.375-1.568.558-.642,1.016-1.688,1.694-1.862,3.343-.855,6.741-1.5,10.126-2.185,5.524-1.12,11.062-2.188,16.58-3.337a31.36,31.36,0,0,0,4.711-1.368A8.831,8.831,0,0,0,130.2,49.4c-.526-.471-.971-1.146-1.588-1.381-4.408-1.684-8.748-3.695-13.3-4.824-14.763-3.653-29.245-2.711-43.176,3.734A45.565,45.565,0,0,0,56.861,58.181a12.509,12.509,0,0,0-1.294,2.307c.929.461,1.846,1.291,2.788,1.317,3.992.11,8,.152,11.988-.106s7.951-.9,11.927-1.368c.542-.065,1.081-.152,1.623-.2,1.365-.129,2.775.068,2.991,1.62.216,1.572-1.155,2.239-2.459,2.352-8.145.713-16.289,1.413-24.447,1.933a17.5,17.5,0,0,1-5.376-.839c-4.2-1.1-5.263-3.734-2.669-7.3,1.8-2.478,4.176-4.54,6.273-6.806a4.112,4.112,0,0,0,.494-.929c-.458-.065-.978-.3-1.362-.165-4.5,1.617-8.709,3.763-11.988,7.328-3.74,4.072-3.2,7.761,1.81,9.968a38.059,38.059,0,0,0,9.958,2.54c3.037.432,6.17.148,9.261.2,1.468.023,3.23,0,3.217,1.978-.013,1.907-1.788,1.959-3.237,2.107a10.286,10.286,0,0,1-1.636.071c-3.985-.248-7.987-.355-11.946-.826-4.234-.5-4.469-.752-6.054,3.446a112.669,112.669,0,0,0-3.175,11.51c-.426,1.63.319,3.985-2.349,4.2-1.536.129-2.385-1.713-1.639-4.986A128.809,128.809,0,0,1,43.556,74c.671-1.93.8-3.095-.881-4.7-4.973-4.737-5.06-9.713-.323-14.7a29.967,29.967,0,0,1,6.409-5.021,57.54,57.54,0,0,1,21.582-7.215,23.671,23.671,0,0,0,4.727-1.123,70.025,70.025,0,0,1,28.974-4.056,17.269,17.269,0,0,0,6.931-.807,29.679,29.679,0,0,1,8.07-1.168q8.175-.373,16.37-.319a23.239,23.239,0,0,1,11.527,2.9c6.257,3.582,7.3,9.516,2.694,15.1-1.236,1.5-3.546,3.03-3.475,4.45.081,1.575,2.4,2.982,3.611,4.563,5.8,7.567,8.777,16.3,10.136,25.6,1.546,10.581,1.188,21.059-2.759,31.172a18.1,18.1,0,0,1-2.31,4.282,2.755,2.755,0,0,1-2.33.487c-.384-.084-.862-1.236-.749-1.8a25.085,25.085,0,0,1,1.278-3.569c6.2-17.083,4.6-33.624-3.763-49.562-1.494-2.849-3.995-5.153-5.9-7.806-.907-1.262-1.749-1.568-3.191-.907-10.846,4.969-22.388,7.49-34.063,9.465-7.17,1.213-14.366,2.288-21.565,3.343a27.508,27.508,0,0,1-5.976.307c-.8-.061-1.53-1.12-2.291-1.726a10.529,10.529,0,0,1,2.178-2.01,7.8,7.8,0,0,1,2.678-.381,249.522,249.522,0,0,0,45.545-8.39,93.539,93.539,0,0,0,14.592-5.954,17.818,17.818,0,0,0,5.715-4.924c2.375-2.962,1.8-5.925-1.526-7.8a22.4,22.4,0,0,0-7.151-2.423,72.859,72.859,0,0,0-8.706-.494c0,.116,0,.232-.006.349Z" transform="translate(-26.327 -23.624)" fill="#262c54"/>
    <path id="Path_18151" data-name="Path 18151" d="M124.712,349.887a57.164,57.164,0,0,1-18.674-2.833,71.189,71.189,0,0,1-28.152-18.08,30.6,30.6,0,0,1-4.008-5.754c-.223-.368.239-1.491.7-1.823a2.008,2.008,0,0,1,1.917.016,38.275,38.275,0,0,1,2.917,3.2c8.961,9.681,19.442,17.29,32.527,19.739,21.517,4.027,40.285-1.562,55.235-18.148a41.14,41.14,0,0,1,3.356-3.553c.432-.378,1.691-.529,1.936-.242a2.8,2.8,0,0,1,.713,2.294,15.458,15.458,0,0,1-2.436,3.559c-9.778,11.649-22.3,18.364-37.29,20.549C130.046,349.306,126.616,349.654,124.712,349.887Z" transform="translate(-49.999 -217.522)" fill="#262c54"/>
    <path id="Path_18152" data-name="Path 18152" d="M384.984,165.9a73.19,73.19,0,0,1-4.3,21.365,87.646,87.646,0,0,1-5.228,12.549,42.712,42.712,0,0,1-6.87,9.71c-4.169,4.276-8.893,8.012-13.411,11.946a5.781,5.781,0,0,1-2.285,1.413,2.867,2.867,0,0,1-2.388-.478c-.365-.419-.094-1.633.232-2.34.278-.6,1.023-1,1.578-1.465,1.665-1.407,3.272-2.891,5.021-4.185a52.535,52.535,0,0,0,18.213-24.534c5.057-13.5,6.906-27.029,2.31-41.011-1.191-3.621-2.217-7.3-3.32-10.942a10.844,10.844,0,0,1-.865-3.12,7.944,7.944,0,0,1,1.126-2.669c.836.529,2.2.891,2.427,1.61,2.181,6.918,4.353,13.85,6.144,20.875.933,3.659,1.1,7.512,1.617,11.278Z" transform="translate(-237.281 -89.496)" fill="#262c54"/>
    <path id="Path_18153" data-name="Path 18153" d="M166.732,288.738c-9.587-.268-18.716-2.014-26.657-7.938-1.029-.768-2.672-.691-3.992-1.113-.629-.2-1.617-.62-1.659-1.02a3.425,3.425,0,0,1,.71-2.327,24.654,24.654,0,0,1,2.543-2c3.191-2.9,3.088-2.891,4.431,1.52a5.424,5.424,0,0,0,2.21,2.853,39.952,39.952,0,0,0,7.325,3.508,46.454,46.454,0,0,0,24.15,1.749,33.34,33.34,0,0,0,6.17-2.049c1.723-.707,3.169-1.752,2.978-4.03-.116-1.375.378-2.556,1.991-2.717,1.546-.155,2.23.884,2.759,2.13a12.276,12.276,0,0,0,1.055,1.885q2.44,3.717-2.214,4.159a4.472,4.472,0,0,0-2,.639c-6.021,4.024-12.8,4.831-19.8,4.756Z" transform="translate(-91.037 -184.444)" fill="#262c54"/>
    <path id="Path_18154" data-name="Path 18154" d="M143.629,180.649a14.759,14.759,0,0,0-8.584,2.965c-.587.468-2.052.784-2.352.461a3.681,3.681,0,0,1-1-2.759,14.831,14.831,0,0,1,6.741-10.126,10.452,10.452,0,0,1,11.823.261,11.883,11.883,0,0,1,5.631,11.094c-.106,2.13-1.62,2.907-3.346,1.562-2.662-2.075-5.408-3.65-8.913-3.459Zm5.776-4.195a4.712,4.712,0,0,0-.442-.755,6.951,6.951,0,0,0-9.323-.329c-.248.21-.532.823-.461.891a2.094,2.094,0,0,0,1.165.671c2.682.087,5.366.11,8.051.094.339,0,.674-.374,1.007-.568Z" transform="translate(-89.171 -114.791)" fill="#262c54"/>
    <path id="Path_18155" data-name="Path 18155" d="M1.615,238.673c.72.516,1.575.8,1.775,1.336a17.4,17.4,0,0,1,.762,3.692c2.043,14.766,7.17,28.132,17.654,39.088a8.9,8.9,0,0,1,1.6,2.165,1.572,1.572,0,0,1-.281,1.475c-.5.41-1.433.871-1.862.661a8.579,8.579,0,0,1-3.02-2.24A120.131,120.131,0,0,1,9.579,273,74,74,0,0,1,.1,244.178,13.1,13.1,0,0,1,.166,240.4c.1-.574.842-1.039,1.449-1.733Z" transform="translate(0.003 -161.65)" fill="#262c54"/>
    <path id="Path_18156" data-name="Path 18156" d="M274.9,181.418c-.1,2.107-1.271,2.943-3.346,2.472-.7-.158-1.359-.51-2.056-.713-5.015-1.449-9.961-1.833-14.85.629a3.317,3.317,0,0,1-2.949-.071,3.091,3.091,0,0,1-.581-2.862c1.071-2.452,2.143-5.073,3.888-7.025,2.8-3.124,6.567-4.708,10.829-3.421,4.711,1.423,7.525,4.86,8.871,9.529a8.434,8.434,0,0,1,.19,1.455Zm-11.73-3.475c1.294.142,2.914.345,4.54.474a1.127,1.127,0,0,0,.926-.407,1.21,1.21,0,0,0-.194-1,6.284,6.284,0,0,0-6.66-2.623c-2.062.432-4.56,2.694-3.995,2.969,1.146.555,2.62.442,3.959.584.358.039.726.006,1.423.006Z" transform="translate(-169.992 -115.124)" fill="#262c54"/>
    <path id="Path_18157" data-name="Path 18157" d="M188.015-.007c5.521.558,10.41,1,15.279,1.584a12.805,12.805,0,0,1,3.595,1.165,1.54,1.54,0,0,1,.681,1.342c-.194.594-.755,1.439-1.242,1.5A16.171,16.171,0,0,1,202,5.518a86.726,86.726,0,0,0-28.787.284c-1.639.294-3.985,1.365-4.392-1.32-.332-2.207,2.059-2.31,3.537-2.527,5.386-.794,10.8-1.371,15.647-1.965Z" transform="translate(-114.324 0.01)" fill="#262c54"/>
    <path id="Path_18158" data-name="Path 18158" d="M219.011,432.646c-2.536-.281-4.36-.378-6.121-.749a2.031,2.031,0,0,1-1.191-1.542,2.269,2.269,0,0,1,1.129-1.591,3.762,3.762,0,0,1,2.12-.316c5.938.623,11.539-.952,17.148-2.511,4.521-1.255,9.319-1.684,13.3-4.6a2.368,2.368,0,0,1,2.32.329,2.469,2.469,0,0,1-.1,2.4,8.578,8.578,0,0,1-3.427,2.575c-8.454,2.73-16.941,5.379-25.18,6.009Z" transform="translate(-143.385 -285.251)" fill="#262c54"/>
    <path id="Path_18159" data-name="Path 18159" d="M145.384,434.98c-4.3-1.268-8.619-2.469-12.879-3.853a6.771,6.771,0,0,1-2.481-1.952,1.539,1.539,0,0,1-.2-1.465,3.17,3.17,0,0,1,1.649-1.071,3.347,3.347,0,0,1,1.546.316q6.476,1.805,12.946,3.627c.52.145,1.184.087,1.546.4.61.529,1.484,1.339,1.4,1.914-.087.613-1.094,1.194-1.81,1.581-.416.226-1.055.042-1.594.042-.042.155-.081.31-.123.465Z" transform="translate(-87.853 -288.943)" fill="#262c54"/>
    <path id="Path_18160" data-name="Path 18160" d="M47.814,256.22c1.168,1.539,2.1,2.372,2.53,3.411q2.265,5.494,4.192,11.123a2.4,2.4,0,0,1-.665,2.214c-.594.307-1.649-.081-2.414-.387a2.181,2.181,0,0,1-1.026-1.217c-1.381-3.9-2.795-7.79-3.959-11.756-.213-.72.662-1.759,1.346-3.388Z" transform="translate(-31.453 -173.537)" fill="#262c54"/>
    <path id="Path_18161" data-name="Path 18161" d="M1.45,174.071c1.168-4.343,2.194-8.542,3.5-12.653.216-.684,1.652-.981,2.527-1.459.358.894,1.152,1.875,1,2.669-.8,4.072-1.752,8.119-2.885,12.111-.213.755-1.471,1.217-2.249,1.814-.594-.781-1.191-1.562-1.891-2.478Z" transform="translate(-0.981 -108.339)" fill="#262c54"/>
    <path id="Path_18162" data-name="Path 18162" d="M95.82,27.719a9.351,9.351,0,0,1-1.171-2.749c-.029-.513.723-1.317,1.307-1.584,3.462-1.578,6.957-3.085,10.5-4.479.481-.19,1.71.268,1.82.652.213.729.142,2.149-.284,2.365-3.853,1.975-7.806,3.753-12.172,5.792Z" transform="translate(-64.105 -12.772)" fill="#262c54"/>
    <path id="Path_18163" data-name="Path 18163" d="M46.6,234.209c-1.149.975-1.859,1.575-2.565,2.178a10.542,10.542,0,0,1-1.862-2.853c-.281-1.087.481-2.372,1.762-1.972.933.294,1.575,1.51,2.665,2.649Z" transform="translate(-28.521 -156.786)" fill="#262c54"/>
  </g>
</svg>
