<svg id="_35" data-name="35" xmlns="http://www.w3.org/2000/svg" width="143.526" height="146.604" viewBox="0 0 143.526 146.604">
  <g id="Group_17220" data-name="Group 17220" transform="translate(14.075 12.513)">
    <path id="Path_18164" data-name="Path 18164" d="M192.821,294.455q-1.81,1.467-3.627,2.924c.129-.161.261-.319.39-.481.784-.965-.2-2.582-1.417-1.836-.529.326-1.052.665-1.575,1a1.253,1.253,0,0,0-1.891-1.171c-2.982,2.01-5.979,4-8.968,6q1.7-1.849,3.4-3.695a1.091,1.091,0,0,0-1.542-1.542q-1.786,1.505-3.6,2.978c.571-.636,1.139-1.275,1.713-1.91.845-.939-.281-2.675-1.43-1.852q-4.168,2.977-8.332,5.957c1.007-1.3,2.014-2.6,3.03-3.888a.97.97,0,0,0-1.371-1.371c-1.165,1.036-2.372,2.023-3.595,2.995.529-.7,1.058-1.4,1.584-2.1.713-.949-.691-2.317-1.639-1.639-1.991,1.426-4,2.833-6.012,4.247q1-1.326,2-2.649c.868-1.149-.91-2.249-1.872-1.442q-1.53,1.283-3.091,2.533c.419-.561.833-1.123,1.265-1.675a1.139,1.139,0,0,0-1.61-1.61q-1.583,1.244-3.162,2.481c.094-.129.181-.261.277-.39.71-.958-.674-2.269-1.626-1.626l-5.063,3.414c.449-.745.91-1.484,1.407-2.194.584-.836-.607-2.088-1.446-1.446q-1.225.939-2.449,1.872c.649-.939-.281-2.585-1.436-1.762-.142.1-.284.2-.426.3a1.312,1.312,0,0,0-2.12-1.107,1.32,1.32,0,0,0-2.185-.642,5.966,5.966,0,0,0-1.63,2.846c-.181.723.378,1.759,1.252,1.643.09-.013.174-.039.261-.052-.2.342-.4.684-.6,1.029-.571,1.007.668,2.53,1.72,1.72l.958-.736c-.045.161-.106.316-.145.484a1.211,1.211,0,0,0,1.868,1.291c-.1.155-.216.307-.316.465-.681,1.058.707,2.533,1.778,1.778l3.414-2.4c-.3.381-.6.762-.9,1.146-1.058,1.384,1.149,2.9,2.333,1.8.349-.326.71-.636,1.065-.955-.168.216-.342.432-.51.652a.01.01,0,0,0-.006,0h0c-.071.094-.145.184-.216.277-.994,1.32,1.046,2.582,2.146,1.655.394-.332.787-.668,1.178-1-.032.039-.061.077-.094.116-.945,1.155.3,3.288,1.743,2.259,1.907-1.359,3.779-2.775,5.637-4.208q-1.4,1.573-2.836,3.107a1.351,1.351,0,0,0,1.907,1.91c.423-.345.839-.7,1.255-1.052-.507,1.113.594,2.743,1.82,1.836l7.273-5.4c-1.226,1.388-2.446,2.775-3.688,4.15a1.144,1.144,0,0,0,1.617,1.617c.21-.168.413-.339.623-.51a1.342,1.342,0,0,0,2.014,1.3c2.62-1.726,5.211-3.5,7.793-5.282-1.223,1.252-2.452,2.5-3.669,3.756-1.152,1.2.658,3.02,1.83,1.83.874-.891,1.739-1.791,2.611-2.688a73.359,73.359,0,0,1,6.389-5.628q-1.51,1.781-3.017,3.566a1.3,1.3,0,0,0,1.843,1.843c.587-.478,1.165-.962,1.746-1.446-.029.923.9,1.852,1.846,1.191l.968-.678a1.256,1.256,0,0,0,.555-.984c2.711-3.13,5.4-6.283,8.19-9.342a1.132,1.132,0,0,0-1.6-1.6Z" transform="translate(-105.339 -210.793)" fill="#ba8b54"/>
    <path id="Path_18165" data-name="Path 18165" d="M298.173,82.7c-.349.261-.7.52-1.042.781.187-.361.374-.726.565-1.087a1.311,1.311,0,0,0-2.049-1.581q-3.233,3.248-6.486,6.48,2-2.686,3.995-5.373c.942-1.268-1.01-2.517-2.072-1.6q-2.788,2.415-5.476,4.94,1.951-2.648,3.9-5.289c.923-1.249-.991-2.465-2.03-1.568-3.217,2.775-6.347,5.65-9.426,8.58,2.288-3.04,4.579-6.08,6.841-9.139.939-1.271-1.084-2.746-2.156-1.662q-3.277,3.311-6.57,6.609,3.722-4.632,7.441-9.268a1.164,1.164,0,0,0-1.646-1.646c-3.5,3.188-6.886,6.489-10.184,9.868q4.647-5.692,9.629-11.1c1.146-1.239-.539-2.795-1.8-1.8-2.72,2.133-5.318,4.453-7.877,6.806,2.811-3.7,5.544-7.467,8.222-11.239.707-1-.887-2.227-1.7-1.31q-3.282,3.7-6.573,7.4a1.129,1.129,0,0,0-1.642-.155q-2.565,2.57-5.14,5.131c.119-.165.236-.332.358-.5.758-1.042-.845-2.133-1.72-1.326-.261.242-.536.465-.8.7a.994.994,0,0,0-1.659-.862,28.475,28.475,0,0,1-3.127,2.2,4.583,4.583,0,0,1,.394-.52,1.08,1.08,0,0,0-1.526-1.526q-1.365,1.06-2.73,2.123c-.813.632.006,1.93.91,1.768-.026.171-.068.332-.081.507a.991.991,0,0,0,.916,1.055c-.106.123-.216.239-.323.361-.858,1,.226,2.649,1.471,1.907.655-.39,1.3-.8,1.933-1.226q-1.825,2.536-3.659,5.073c-.752,1.039.871,2.21,1.743,1.346,1.284-1.275,2.552-2.562,3.83-3.846l-.116.155a.965.965,0,0,0,.652,1.465q-2.73,3.2-5.492,6.386c-1.084,1.252.661,3.056,1.839,1.839,3.743-3.866,7.657-7.564,11.62-11.2.342-.313.691-.616,1.033-.926q-1.588,1.97-3.172,3.937c-4.1,5.086-8.274,10.181-12.046,15.518-.691.978.916,2.239,1.675,1.294a196.985,196.985,0,0,1,14.1-15.6q-5.755,7.12-11.559,14.2c-1.033,1.258.616,3.007,1.82,1.82q5.2-5.111,10.336-10.291-3.592,4.874-7.2,9.742c-.862,1.162,1.036,2.607,2,1.542,4.2-4.647,8.6-9.106,13.14-13.421q-4.584,6.152-9.142,12.327c-.891,1.207,1.129,2.778,2.091,1.613q4.453-5.387,9.323-10.381c-2.252,2.917-4.569,5.786-6.751,8.755-1.049,1.43,1.226,3.1,2.423,1.872q2.3-2.372,4.6-4.744c-1.226,1.452-2.433,2.927-3.595,4.44-.694.9.442,2.21,1.42,1.968-.245.649-.468,1.307-.658,1.978a1.35,1.35,0,0,0,2.6.716,23.708,23.708,0,0,1,2.814-6.276,1.326,1.326,0,0,0-.255-1.617A114.955,114.955,0,0,1,299.68,84.679c1.087-.884-.374-2.814-1.513-1.962Z" transform="translate(-185.94 -55.036)" fill="#84b9eb"/>
    <path id="Path_18166" data-name="Path 18166" d="M102.681,68.879c-.387.207-.726.5-1.1.723a7.764,7.764,0,0,0-1.165.887c-.674.6-1.284,1.288-1.907,1.946-.1.11-.2.229-.3.339A1.428,1.428,0,0,0,96.14,72.5c-2.252,2.075-4.476,4.182-6.693,6.3l6.567-7.351a1.313,1.313,0,0,0-1.855-1.855c-5.079,4.421-9.732,9.271-14.408,14.1.571-.755,1.146-1.507,1.739-2.246,2.959-3.688,6.038-7.277,9.119-10.862a1.169,1.169,0,0,0-1.652-1.652c-2.969,2.736-5.879,5.534-8.845,8.277,2.517-3.185,5.034-6.37,7.583-9.526a1.085,1.085,0,0,0-1.533-1.533c-.084.065-.165.136-.248.2a1.3,1.3,0,0,0-2.172-.629c-2.727,2.746-5.231,5.744-7.825,8.616-.571.629-1.146,1.255-1.717,1.888-1.642,1.672-3.343,3.282-5.111,4.8q2.473-3.35,4.947-6.7,4.942-4.8,9.468-10a1.2,1.2,0,0,0-1.7-1.7q-1.321,1.249-2.64,2.5,1.273-1.747,2.549-3.495c.794-1.091-.887-2.239-1.8-1.391-.187.174-.374.352-.561.526.413-.91.8-1.836,1.146-2.788.31-.852-.871-1.423-1.459-.849-1.213,1.187-2.459,2.343-3.692,3.511-.736.7.358,1.772,1.107,1.107.21-.187.416-.374.626-.558a30.975,30.975,0,0,1-5.463,6.838c-.455.416-.91.839-1.371,1.249-1.075.958.474,2.417,1.552,1.552.413-.332.8-.681,1.187-1.036-.207.287-.416.574-.623.862-1.43.6-2.836,1.259-4.2,1.991a1.223,1.223,0,0,0-.778.261c-.313.242-.629.481-.942.723a46.582,46.582,0,0,0-8.913,6.783c-.881.862.326,2.556,1.359,1.762q2.759-2.12,5.521-4.247c-.8,1.371-1.613,2.743-2.407,4.121a1.185,1.185,0,0,0,1.852,1.43c1.081-.9,2.149-1.82,3.211-2.746l-3.182,4.431c-.5.694.5,1.694,1.188,1.188q1.433-1.041,2.817-2.133a1.108,1.108,0,0,0,1.852.371q4.2-4.69,8.793-9c-3.146,3.872-6.3,7.745-9.4,11.656-.913,1.152.526,2.7,1.652,1.652q3.785-3.538,7.567-7.077a77.89,77.89,0,0,0-6.922,10.242c-.49.9.771,2.01,1.491,1.149,2-2.391,4.147-4.653,6.37-6.844L69.744,97.143a1.235,1.235,0,0,0,1.746,1.746c2.2-2.056,4.256-4.253,6.48-6.283l6.67-6.089c.587-.536,1.178-1.068,1.765-1.6-4.94,5.931-10.149,11.643-15.625,17.077-1.023,1.016.536,2.565,1.581,1.581q7.517-7.077,15.1-14.089-3.64,4.7-7.3,9.384c-.975,1.236.758,2.995,1.749,1.749,1.123-1.413,2.259-2.82,3.391-4.227.236.8,1.394,1.378,2.023.587.587-.736,1.2-1.459,1.817-2.181-.416.629-.823,1.262-1.2,1.914a1.175,1.175,0,0,0,1.839,1.417c1.12-1.168,2.346-2.249,3.556-3.337-.71,1.339-1.391,2.694-1.994,4.072a1.169,1.169,0,0,0,1.826,1.41c.9-.778,1.781-1.581,2.646-2.4-.316.939.613,2.3,1.649,1.53.184-.139.371-.274.558-.41a2.934,2.934,0,0,0,.1.484c.532,1.63,2.607,2.633,3.9,1.213.442-.484.187-1.565-.607-1.462a.964.964,0,0,1-.939-.916c-.01-.729.768-1.468,1.21-1.965.8-.891-.265-2.53-1.352-1.755-.132.094-.271.181-.4.274.329-.713.655-1.426.984-2.136.487-1.055-.868-2.391-1.749-1.349-.945,1.117-1.962,2.175-3.014,3.2.971-1.8,1.991-3.572,3.1-5.311.729-1.146-.881-2.281-1.826-1.407q-1.012.934-2.017,1.875c.929-1.375,1.855-2.753,2.743-4.156.642-1.013-.539-2.062-1.484-1.684.571-.739,1.146-1.478,1.7-2.223a.787.787,0,0,0-.387-1.171c.668-.858,1.346-1.713,2-2.578l0,0h0c.068-.09.139-.181.21-.271a1.09,1.09,0,0,0,.236-.787c.62-.791,1.233-1.581,1.852-2.369a1.271,1.271,0,0,0-.655-1.978c.132-.142.271-.281.394-.429a8.087,8.087,0,0,0,.823-1.129c.236-.4.526-.774.733-1.188a.661.661,0,0,0-.9-.9ZM67.43,77.217c.481-.858.968-1.713,1.452-2.569.352-.2.71-.387,1.068-.578a.87.87,0,0,0,.071.7c-.862.816-1.71,1.646-2.591,2.446Zm30.881-1.336a1.374,1.374,0,0,0-.207.161c-1.907,1.83-3.824,3.653-5.731,5.479q1.51-1.864,2.985-3.756a.835.835,0,0,0,.829-.161c.82-.636,1.6-1.32,2.362-2.02-.077.1-.158.2-.236.3Z" transform="translate(-52.827 -51.053)" fill="#84b9eb"/>
    <g id="Group_17219" data-name="Group 17219">
      <path id="Path_18167" data-name="Path 18167" d="M179.6,57.762a3.041,3.041,0,0,1,2.081,3.669c-.071.274-.152.549-.239.826,5.583-5.492,11.472-10.691,17.377-15.825,1.149-1-.345-2.917-1.626-2.107A182.071,182.071,0,0,0,182.171,55q7.532-7.212,15.4-14.085c1.278-1.113-.552-2.836-1.83-1.83q-11.312,8.906-22.133,18.4a14.848,14.848,0,0,1,5.986.278Z" transform="translate(-131.663 -38.778)" fill="#eac485"/>
      <path id="Path_18168" data-name="Path 18168" d="M187.951,81.758c1.791-1.626,3.579-3.253,5.4-4.844-1.765,1.775-3.492,3.588-5.2,5.421.626,1.63,1.388,3.088,2.088,4.553.3-.3.6-.6.907-.907-.287.332-.574.668-.862,1a23.288,23.288,0,0,1,1.342,3.395,253.856,253.856,0,0,1,18.758-20.249,7.5,7.5,0,0,1-2.336-3.572,3.009,3.009,0,0,1,2.081-3.669c.933-.155,1.859-.274,2.778-.352q4.1-3.625,8.229-7.225c1.152-1.01-.368-3.011-1.649-2.136A287.623,287.623,0,0,0,187.574,79c6.538-6.96,13.408-13.6,20.5-20.049,3.579-3.249,7.19-6.46,10.8-9.671,1.123-1-.513-2.591-1.639-1.639-8.98,7.6-18.051,15.105-27.125,22.6-1.468,3.763-3.4,7.7-2.162,11.517Z" transform="translate(-141.109 -44.58)" fill="#eac485"/>
      <path id="Path_18169" data-name="Path 18169" d="M271.591,76.23q3.688-3.422,7.4-6.818c1.033-.945-.355-2.827-1.523-1.975-3.763,2.746-7.412,5.618-11.007,8.558A18.5,18.5,0,0,1,271.591,76.23Z" transform="translate(-194.551 -58.043)" fill="#eac485"/>
      <path id="Path_18170" data-name="Path 18170" d="M72.02,168.958c1.123-3.824,5.05-3.469,8.606-2.53q2.793-2.231,5.624-4.418-2.28,2.357-4.563,4.715c1.388.41,2.662.855,3.621,1.1a69.618,69.618,0,0,0,9.574,1.743c1.249-1.284,2.481-2.582,3.73-3.83q1.113-1.118,2.23-2.236,8.1-6.05,16.251-12.027-3.04,3.1-6.067,6.218-3.732,3.824-7.4,7.712a1.3,1.3,0,0,0-1.639-.187c-2.275,1.391-4.479,2.882-6.651,4.411,2.911.316,5.831.471,8.758.5q2.256-1.844,4.511-3.688-1.534,1.81-2.991,3.692c3.427-.01,6.86-.174,10.294-.436,3.179-2.9,6.386-5.763,9.574-8.648.971-.632,1.933-1.275,2.9-1.9q3.78-2.435,7.557-4.873-8.4,7.522-16.706,15.147,3.393-.31,6.776-.691a.684.684,0,0,0-.274-.358c1.026-.823,2.056-1.649,3.088-2.465-.787.9-1.546,1.83-2.3,2.769,5.36-.6,10.7-1.258,15.993-1.739a2.938,2.938,0,0,1,.891.058c1.643-1.865,5.447-1.275,5.234,1.8,0,.068-.016.136-.023.207,1.61-1.768,3.227-3.53,4.827-5.308.771-.858,1.565-1.713,2.356-2.575.642-.532,1.278-1.071,1.923-1.6q2.517-2.062,5.04-4.124a22.805,22.805,0,0,0,4.644-4.408.616.616,0,0,0-.691-.9,17.7,17.7,0,0,0-4.869,2.7c-.119.081-.236.168-.352.248a.915.915,0,0,0-1.5-.21.423.423,0,0,1-.039.035c-.065.052-.126.106-.19.155.523-.536,1.058-1.062,1.578-1.6a26.082,26.082,0,0,0,4.46-5.266.984.984,0,0,0-1.336-1.336,25.982,25.982,0,0,0-5.273,4.453q-2.561,2.459-5.066,4.979-4.845,4.865-9.645,9.774c-.639.652-1.271,1.31-1.907,1.965.607-.7,1.207-1.4,1.817-2.085q2.778-3.141,5.554-6.28l8.3-7.858a1.349,1.349,0,0,0,.023-1.849c.177-.219.358-.436.532-.655.807-1.026,1.9-2.11,1.839-3.5a.672.672,0,0,0-.665-.665,2.957,2.957,0,0,0-1.178.39c.113-.152.239-.294.349-.449a10.745,10.745,0,0,0,1.53-3,.609.609,0,0,0-.887-.681,11.786,11.786,0,0,0-2.565,1.972c-.752.778-1.484,1.568-2.223,2.359-.716.765-1.423,1.533-2.133,2.3a1.051,1.051,0,0,0-.816-.584,69.719,69.719,0,0,0,6.718-8.487c.539-.858-.61-1.539-1.3-1a69.279,69.279,0,0,0-7.257,7.015c-.055.055-.106.113-.161.168a1.2,1.2,0,0,0-1.51-.145l-.245.158a10.2,10.2,0,0,0,1.291,5.089c1.923,3.433-2.917,6.028-5.15,3.011-.749-1.013-1.4-2.133-2.191-3.117a2.835,2.835,0,0,1-1.93.165l-.055.035a.493.493,0,0,1,.042-.039,3.521,3.521,0,0,1-.629-.239c-.684-.342-1.362-.649-2.043-.933-1.694,1.3-3.308,2.733-4.9,4.043q-4.443,3.664-8.713,7.525c-.1.09-.194.187-.294.278q-2.711,1.723-5.428,3.43c.087-.077.177-.155.268-.232,3.224-2.833,6.405-5.708,9.581-8.593,1.642-1.494,3.279-3.007,4.86-4.566a28.291,28.291,0,0,0,2.617-2.6,14.215,14.215,0,0,0-1.968-.449,14.188,14.188,0,0,1-2.94-.626c-1.039.865-2.091,1.714-3.117,2.588q-5.692,4.681-11.43,9.3,6.1-6.118,12.2-12.24a19.281,19.281,0,0,1-5.479,2.478,2.828,2.828,0,0,1-3.233-1.33q-1.118.741-2.223,1.5-1.365.949-2.7,1.93c1.187-1.2,2.378-2.394,3.55-3.611.3-.316.639-.639.978-.971a2.914,2.914,0,0,1,.923-2.633c-.026,0,.016-.084.187-.2a1.638,1.638,0,0,0,.165-.442,4.924,4.924,0,0,1,.529-1.191.959.959,0,0,0-.833-.1c-1.636.549-2.914,2.188-4.124,3.362-1.359,1.32-2.694,2.662-4.03,4q-3.93,3.935-7.861,7.867-2.294,2.314-4.592,4.624a34.9,34.9,0,0,1,3.075-3.582c3.159-3.259,6.464-6.386,9.7-9.568,3.479-3.417,6.9-6.886,10.313-10.365.219-.526.436-1.052.658-1.578.035-.084.071-.171.106-.255a2.784,2.784,0,0,1-1.252-1.568q-4.042,3.751-8.1,7.486,3.955-4.211,7.912-8.422a20,20,0,0,1,.09-5.482.292.292,0,0,0-.016-.029c-7.209,5.918-14.411,11.849-21.685,17.687a14.106,14.106,0,0,1,.413,2,2.4,2.4,0,0,1-.113,1.091q7.585-6.326,15.26-12.553-12.169,12.967-24.324,25.944c-.591.468-1.181.929-1.768,1.4L100.336,151.7a1.541,1.541,0,0,0-1.139-2.552,3.988,3.988,0,0,1-2.117.287,35.083,35.083,0,0,1-8.777-2.953c-.061-.026-.123-.058-.184-.087q-1.8,2.28-3.511,4.624a1.184,1.184,0,0,0-.2,1.052c-2.056,1.481-4.066,3.024-6.044,4.608q4.623-5.131,9.242-10.262a1.381,1.381,0,0,0,.142-.2,21.09,21.09,0,0,0-5-2.107c-.2.255-.407.5-.6.762a1.246,1.246,0,0,0-.274-.839,3.832,3.832,0,0,0-2.3.726c-3.02,2.152-4.892,8.345-9.613,7.525-.177-.032-.332-.081-.494-.126q-2.609,2.13-5.215,4.263c.981-1.117,2-2.2,3-3.291a1.007,1.007,0,0,0,.129-.087c.468-.378.916-.774,1.378-1.158a3.671,3.671,0,0,1-1.762-2.191,195.328,195.328,0,0,0-13.721,15.7,1.418,1.418,0,0,0,2,2q3.03-2.478,6.054-4.963-3.7,4.013-7.3,8.112a1.358,1.358,0,0,0,1.92,1.92q9.41-8.935,19.6-16.99-7.914,8.756-15.831,17.509a1.54,1.54,0,0,0-.4.823c-.823.813-1.639,1.636-2.433,2.481-1.533,1.626-3.22,3.175-4.059,5.276-.307.768.655,1.207,1.236.952,1.978-.862,3.459-2.572,5.021-4.027,1.62-1.5,3.2-3.049,4.811-4.56q4.836-4.531,9.823-8.9c.565-.494,1.136-.981,1.7-1.471q2.023-1.641,4.063-3.259Q69.353,170.446,59.654,181a1.347,1.347,0,0,0,1.9,1.9c3.466-3.246,7.019-6.4,10.623-9.477a7.884,7.884,0,0,1-.139-4.482Zm69.892-12.169q-2.106,2.541-4.159,5.121-1.956,1.472-3.917,2.94c2.607-2.769,5.318-5.441,8.077-8.061Zm-46.932,5.631c-.181.416-.342.842-.487,1.275q-2.561,1.825-5.089,3.7Q92.172,164.889,94.979,162.421Zm-5.434-8.342a1.476,1.476,0,0,0,.958,1.1q-4.734,3.5-9.335,7.18Q85.321,158.184,89.545,154.079ZM74.34,152.821q3.277-3.243,6.631-6.405c-.471.639-.949,1.275-1.41,1.926a1.09,1.09,0,0,0-.213.607Q76.821,150.86,74.34,152.821Z" transform="translate(-49.808 -98.443)" fill="#eac485"/>
      <path id="Path_18171" data-name="Path 18171" d="M164.886,342.068c-.181.126-.361.255-.542.381.136-.135.274-.271.41-.4a35.389,35.389,0,0,1-3.462-.845q-6.288,6.21-12.578,12.417c-1.181,1.165.4,3.392,1.826,2.365q9.211-6.646,18.355-13.382a39.336,39.336,0,0,1-4.008-.536Z" transform="translate(-114.52 -243.611)" fill="#eac485"/>
      <path id="Path_18172" data-name="Path 18172" d="M246.368,223.56a2.486,2.486,0,0,0-1.12.513c-.313.271-.6.571-.884.868-.61.632-1.178,1.31-1.755,1.972-1.2,1.371-2.381,2.785-3.475,4.243-.849,1.129-1.675,2.272-2.511,3.408-1.191.994-2.462,1.9-3.708,2.8q-2.556,1.854-5.047,3.8c-.174.136-.345.281-.52.419q6.6-6.7,13.146-13.459a1.454,1.454,0,0,0-2.056-2.056c-2.288,2.233-4.56,4.485-6.831,6.731.026-.026.048-.052.074-.081,3.417-3.64,6.67-7.4,9.932-11.172.858-.994-.49-2.388-1.455-1.455-3.637,3.521-7.248,7.035-10.736,10.7l-1.71,1.8c-.752,6.063-4.827,11.117-8.858,15.505a34.677,34.677,0,0,1-15.147,9.765c-.539.574-1.091,1.149-1.646,1.723q-2.444,1.849-4.866,3.73-4.468,3.48-8.932,6.973a136.723,136.723,0,0,1,10.4-11.1,56.628,56.628,0,0,1-10.9,1.313q-2.769,2.246-5.541,4.489c.4-.439.791-.875,1.2-1.3q1.554-1.6,3.13-3.185-1.186-.01-2.356-.081c-.636.713-1.268,1.426-1.91,2.133-1.914,2.1-4.069,4.03-6.092,6.031-2.091,2.065-4.159,4.143-6.176,6.283-1.187,1.262.565,2.907,1.862,1.862l5.592-4.5c-.2.2-.4.39-.6.591-1.339,1.336.642,3.227,2.046,2.046l6.363-5.344a87.923,87.923,0,0,0-5.224,7.241c-.713,1.107.778,2.772,1.9,1.9,5.318-4.1,10.691-8.132,16.047-12.185-.352.355-.7.707-1.055,1.062a1.522,1.522,0,0,0-.161,2.036c-1.93,1.972-3.863,3.94-5.77,5.934a1.467,1.467,0,0,0-.207,1.8c-.365.407-.733.81-1.1,1.217-.829.916.307,2.665,1.4,1.82.077-.061.155-.123.232-.181h0l0,0c.829-.639,1.652-1.291,2.481-1.933a8.618,8.618,0,0,0,3.972-1.575,67.334,67.334,0,0,0,5.67-4.511s.006-.006.01-.01a1.548,1.548,0,0,0,.929.529c-.868.871-1.723,1.755-2.533,2.669-1.468,1.281.655,3.343,2.123,2.123,3.395-2.827,6.467-6.167,9.619-9.261q3.553-3.49,7.041-7.048,2.585-2.188,5.231-4.3c-.6.6-1.194,1.21-1.8,1.807-1.891,1.862-3.779,3.734-5.7,5.566-1.962,1.868-3.843,3.908-5.889,5.676-1.288,1.113.587,2.972,1.865,1.865,2.075-1.794,4.272-3.408,6.305-5.257s4-3.714,5.912-5.67q2.783-2.851,5.463-5.8a62.591,62.591,0,0,0,5.447-6.328c1-1.462-1.107-2.769-2.3-1.775-1.8,1.5-3.569,3.049-5.36,4.56a144.632,144.632,0,0,0,10.01-12.191c.723-1-.316-2.133-1.333-2.1.674-.729,1.346-1.462,2.02-2.188a1.421,1.421,0,0,0,.229-1.691c.161-.174.326-.342.484-.516,1.187-1.3,2.32-2.665,3.408-4.047.552-.7,1.123-1.391,1.649-2.11.239-.329.49-.665.7-1.013a2.694,2.694,0,0,0,.336-1.32.772.772,0,0,0-.971-.739ZM220.752,251.7c-2.63,2.8-5.228,5.624-7.832,8.445a1.135,1.135,0,0,0-.206.136Q207.6,264.3,202.488,268.3c7.161-7.222,14.227-14.54,21.356-21.785a1.482,1.482,0,0,0,.1-.145c1.513-1.226,3.04-2.443,4.589-3.624.691-.526,1.4-1.026,2.1-1.546q-4.937,5.252-9.881,10.5Z" transform="translate(-128.959 -161.377)" fill="#eac485"/>
      <path id="Path_18173" data-name="Path 18173" d="M147.976,334.273c-.813.729-1.63,1.459-2.433,2.2-1.613,1.481-3.2,2.991-4.747,4.543-1.31,1.32-3.314,2.856-3.827,4.7a.668.668,0,0,0,.5.823,1.574,1.574,0,0,0,2.578.965c4.263-3.785,8.59-7.5,12.943-11.184a33.4,33.4,0,0,1-5.011-2.046Z" transform="translate(-106.829 -238.917)" fill="#eac485"/>
      <path id="Path_18174" data-name="Path 18174" d="M92.78,278.073q-4.337,4.482-8.677,8.964a1.434,1.434,0,0,0,.826,2.407c-.874.91-1.749,1.814-2.617,2.73a1.388,1.388,0,0,0,1.962,1.962q5.881-5.494,12.049-10.655a29.164,29.164,0,0,1-3.543-5.411Z" transform="translate(-69.556 -200.853)" fill="#eac485"/>
      <path id="Path_18175" data-name="Path 18175" d="M105.573,298.54q-5.528,5.862-11.059,11.727a1.388,1.388,0,0,0,1.962,1.962c3.879-3.6,7.78-7.2,11.762-10.7C107.419,300.637,106.5,299.634,105.573,298.54Z" transform="translate(-77.821 -214.717)" fill="#eac485"/>
      <path id="Path_18176" data-name="Path 18176" d="M114.978,310.916c-.065-.071-.142-.152-.21-.226L102.935,322.6c-1.362,1.368.632,3.214,2.068,2.068q5.5-4.39,11.046-8.729c-1.481,1.375-2.966,2.749-4.389,4.185a25.9,25.9,0,0,0-4.247,4.863,1,1,0,0,0,1.355,1.355c.332-.181.649-.39.962-.6a1.486,1.486,0,0,0,2.44,1.3c3.834-3.095,7.677-6.18,11.559-9.216a34.068,34.068,0,0,1-8.751-6.912Z" transform="translate(-83.486 -222.947)" fill="#eac485"/>
      <path id="Path_18177" data-name="Path 18177" d="M56.091,158.326q4.308-4.376,8.755-8.622c-.071-.126-.136-.258-.21-.381-.426-.694-1.552-1.743-1.094-1.83a3.005,3.005,0,0,1-2.027-.3q-3.882,4.419-7.525,9.032c-1.149,1.462.723,3.5,2.1,2.1Z" transform="translate(-50.401 -112.206)" fill="#eac485"/>
      <path id="Path_18178" data-name="Path 18178" d="M48.275,178.69c4.54-4.276,9.039-8.59,13.556-12.882a16.855,16.855,0,0,0-.432-2.817c-.432.4-.862.8-1.294,1.2-.168.155-.339.313-.51.468.568-.662,1.158-1.307,1.733-1.962-.1-.4-.223-.807-.358-1.217-.174-.526-.361-1.058-.568-1.578q-2.512,2.822-4.957,5.7-4.661,5.5-9.013,11.249l-.006.006h0c-.068.09-.139.174-.2.265-.92,1.217,1.01,2.552,2.046,1.578Z" transform="translate(-45.218 -120.815)" fill="#eac485"/>
      <path id="Path_18179" data-name="Path 18179" d="M53.305,192.146c2.343-2.362,4.7-4.7,7.115-7a32.576,32.576,0,0,1-.142-3.63c-.265.248-.532.494-.8.742-2.849,2.707-5.657,5.466-8.342,8.338a62.667,62.667,0,0,0-7.4,8.916c-.481.755.555,1.417,1.171.9,3.014-2.52,5.628-5.489,8.39-8.274Z" transform="translate(-43.617 -135.458)" fill="#eac485"/>
      <path id="Path_18180" data-name="Path 18180" d="M153.132,67.388c1.184-1.036-.536-2.724-1.717-1.717q-2.217,1.888-4.4,3.824c.345.833.668,1.684,1.039,2.478,1.672-1.546,3.359-3.078,5.076-4.582Z" transform="translate(-113.653 -56.784)" fill="#eac485"/>
      <path id="Path_18181" data-name="Path 18181" d="M154.717,70.82q5.136-5.16,10.32-10.274c.9-.9-.332-2.643-1.407-1.823q-6.084,4.656-12.03,9.477A4.916,4.916,0,0,0,154.717,70.82Z" transform="translate(-116.755 -52.142)" fill="#eac485"/>
    </g>
  </g>
  <g id="Group_17221" data-name="Group 17221">
    <path id="Path_18182" data-name="Path 18182" d="M36.44,103.363a57.272,57.272,0,0,1,4.944-20.688c.555-1.317,1.317-2.824,1.1-4.1-.158-.939-1.755-1.626-2.691-2.449-3.485-3.072-3.324-6.983.726-9.429a22.322,22.322,0,0,1,7.1-2.6c4.666-.926,7.348-3.646,8.564-8.1.671-2.452,1.255-4.95,2.165-7.315,2.027-5.276,5.731-6.283,9.468-2.185,2.22,2.436,3.947,2.359,6.534,1.12a42.747,42.747,0,0,1,15.244-3.9,15.226,15.226,0,0,1,3.766.245,1.509,1.509,0,0,1,.92,1.162c-.048.626-.378,1.6-.823,1.755-1.355.465-2.846.52-4.243.894-4.721,1.268-9.442,2.549-14.127,3.94-1.588.471-3.049,1.184-2.546,3.469.136.61-.726,1.442-1.133,2.172-.865-.487-2.036-.771-2.533-1.507-1.213-1.794-1.975-3.895-3.175-5.7-1.449-2.172-2.84-1.936-3.759.587-.684,1.872-1.155,3.827-1.665,5.76-1.684,6.386-5.4,10.526-12.2,11.633a17.368,17.368,0,0,0-5.505,2.188A1.483,1.483,0,0,0,42.642,73a15.926,15.926,0,0,0,3.495,1.462c1.549.526,3.169.852,4.692,1.436,4.908,1.878,6.493,4.253,6.444,9.513-.026,2.9-.236,5.815-.068,8.7a3.57,3.57,0,0,0,1.743,2.4c.449.245,1.717-.461,2.262-1.062,1.71-1.878,3.191-3.966,4.876-5.87,1.655-1.872,3.734-3,6.3-2.262A2.779,2.779,0,0,1,74.143,89c.1.539-.845,1.8-1.365,1.823-2.988.136-4.356,2.272-5.992,4.237a27.1,27.1,0,0,1-4.9,5.044c-2.943,2.059-6.37,1.12-7.648-2.223a28.579,28.579,0,0,1-1.3-7.954c-.139-1.788.355-3.614.378-5.424.029-2.256-1.223-3.695-3.275-4.543-1.546-.639-2.749-.626-3.585,1.123-6.36,13.266-8.064,26.848-1.849,40.556,2.456,5.415,6.044,10.32,9.148,15.438.468.774,1.139,1.42,1.639,2.178.858,1.3,2.494,2.749.549,4.176-1.565,1.146-2.659-.394-3.55-1.51-6.18-7.725-11.6-15.915-13.953-25.673-1.016-4.211-1.352-8.584-2-12.885Z" transform="translate(-24.681 -29.59)" fill="#262c54"/>
    <path id="Path_18183" data-name="Path 18183" d="M288.707,108.472c-.123-12.866-1.91-21.891-5.889-30.449-1.378-2.962-1.242-3.246,1.184-4.744,1.178-.726,3.12-1.6,3.169-2.494.1-1.936-2.023-2.207-3.572-2.623-1.755-.474-3.543-.823-5.305-1.262-4.756-1.184-7.535-4.179-8.2-9.061-.342-2.523-.607-5.057-.981-7.574-.071-.468-.507-1.252-.758-1.246a2.64,2.64,0,0,0-1.846.671c-1.242,1.562-2.349,3.237-3.437,4.911-3.3,5.082-7.987,7.209-13.966,6.66a34.312,34.312,0,0,0-3.811-.229c-1.9.039-3.256.645-2.517,2.991a3.165,3.165,0,0,1,.145,1.607c-.116.478-.5,1.168-.874,1.242a2.575,2.575,0,0,1-1.968-.323,5.563,5.563,0,0,1-1.623-5.97,4.3,4.3,0,0,1,4.008-3.211c2.711-.2,5.444-.142,8.167-.11a9.259,9.259,0,0,0,7-2.469c1.452-1.423,1.433-2.54-.455-3.266-3.888-1.494-7.845-2.833-11.839-4.008-2.078-.61-4.334-.591-6.431-1.149-.862-.229-2.085-1.188-2.146-1.9-.142-1.652,1.371-1.872,2.685-1.894.72-.013,1.442.184,2.165.242a50.2,50.2,0,0,1,17.222,4.924c1.91.891,3.44,1.078,4.615-1.007a5.258,5.258,0,0,1,1.007-1.284c2.946-2.714,6.97-1.8,8.264,1.959a21.852,21.852,0,0,1,.758,4.272c.236,1.8.326,3.621.591,5.418.474,3.217,2.217,5.286,5.534,5.889a31.68,31.68,0,0,1,4.243,1,23.967,23.967,0,0,1,5.037,2.01c3.495,2.114,4.276,5.5,1.288,8.106-3.03,2.646-2.44,4.95-1.375,8.1,5.728,16.935,5.776,33.553-3.282,49.556a51.227,51.227,0,0,1-10.875,13.553,14.07,14.07,0,0,1-3.517,2.53c-.781.332-1.923-.184-2.9-.319a9.469,9.469,0,0,1,.891-2.82,15.887,15.887,0,0,1,2.488-2.1c11.1-10.078,16.6-22.7,17.1-34.141Z" transform="translate(-160.354 -28.839)" fill="#262c54"/>
    <path id="Path_18184" data-name="Path 18184" d="M197.687,276.038c-.5-.384-1.765-.868-1.968-1.633-.423-1.6.939-2.1,2.291-2.349,1.791-.326,3.6-.574,5.36-1.033,6.593-1.72,12.769-4.292,17.719-9.171a9.3,9.3,0,0,0,1.275-2.265,7.844,7.844,0,0,0-2.478-.278c-10.41,2.307-20.949,2.411-31.517,1.859-2.717-.142-5.418-.626-8.116-1.02a5.631,5.631,0,0,1-2.569-.774,3.08,3.08,0,0,1-1.013-2.181c0-.426.971-1.194,1.53-1.217a22.1,22.1,0,0,1,3.766.442,108.915,108.915,0,0,0,41.188-2.043c5.089-1.258,7.677-4.485,8.755-9.3.384-1.717-.294-2.43-2.059-2.036-3.2.707-6.341,1.672-9.552,2.288a21.11,21.11,0,0,1-5.379.161c-.471-.032-1.191-.968-1.223-1.523s.558-1.262,1.052-1.707a3.448,3.448,0,0,1,1.533-.481q5.862-1.244,11.733-2.459a19.915,19.915,0,0,1,3.763-.607c2.807-.023,4.437,1.555,4.437,4.372a11.92,11.92,0,0,1-.729,4.263c-6.376,16.209-18.716,26.251-36.206,28.523-.361.048-.723.077-1.591.168Z" transform="translate(-119.66 -161.68)" fill="#262c54"/>
    <path id="Path_18185" data-name="Path 18185" d="M137.456,248.588c-9.61-.771-19.236-1.162-28.587-3.895-3.3-.965-4.3.226-3.675,3.64.455,2.511,1.6,4.379,4.2,5.163,2.778.839,5.563,1.691,8.264,2.746a2.671,2.671,0,0,1,1.388,2.023c-.029,1.323-1.22,1.681-2.4,1.555a26.32,26.32,0,0,1-2.653-.584c-.355-.077-.813-.277-1.049-.136-.307.187-.691.868-.6.978a19.513,19.513,0,0,0,2.585,2.772c5.55,4.54,11.61,8.116,18.739,9.594a8.075,8.075,0,0,1,2.62.649c.632.4,1.4,1.407,1.278,1.962a2.46,2.46,0,0,1-1.9,1.41,18.181,18.181,0,0,1-5.373-.662,48.262,48.262,0,0,1-24.053-16.186,24.533,24.533,0,0,1-5.147-11.291c-1.117-6.686,1.752-9.594,8.229-7.764,12.407,3.5,25.092,3.917,37.832,3.892,2.523-.006,5.044-.674,7.57-.729.836-.019,1.694.933,2.54,1.439-.636.778-1.158,2.081-1.923,2.243a58.673,58.673,0,0,1-8.622,1.139c-3.078.181-6.176.042-9.264.042Z" transform="translate(-68.313 -162.572)" fill="#262c54"/>
    <path id="Path_18186" data-name="Path 18186" d="M337.684,189.655c-.329,14.763-2.6,27.393-8.716,39.084-7.706,14.724-19.161,24.989-35.544,29.187a14.109,14.109,0,0,1-4.282.629c-.855-.055-1.655-.971-2.482-1.5a7.948,7.948,0,0,1,1.613-1.933,8.135,8.135,0,0,1,2.6-.774c14.789-3.22,25.476-11.927,33-24.773a71.04,71.04,0,0,0,9.442-33.808c.213-5.786-.468-11.6-.736-17.406-.084-1.8-.207-3.611-.161-5.415a1.5,1.5,0,0,1,1.033-1.058c.626-.019,1.642.216,1.833.639a14.137,14.137,0,0,1,1.213,4.147c.526,4.876.9,9.771,1.184,12.985Z" transform="translate(-194.158 -116.42)" fill="#262c54"/>
    <path id="Path_18187" data-name="Path 18187" d="M280.873,145.019c-.123-2.02-.19-5.118,2.036-7.686.474-.545.936-1.265,1.552-1.478a3.5,3.5,0,0,1,2.407.048,1.982,1.982,0,0,1,.436,1.855c-3.388,3.746-2.352,8.161-2.062,12.475a6.84,6.84,0,0,1-.013,1.091c-.219,2.188-.339,4.585-2.775,5.476-2.143.784-3.824-.626-5.324-1.994-1.342-1.223-2.624-2.514-3.908-3.8a9.513,9.513,0,0,0-10.991-2.3A33.223,33.223,0,0,1,256,150.621c-4.614.787-7-1.723-6.138-6.263a21.675,21.675,0,0,1,1.107-3.646c1.491-3.892,3.337-7.686,1.9-12.082-.161-.494.716-1.807,1.284-1.93a2.568,2.568,0,0,1,2.136,1.1c1.636,2.872,1.355,5.97.445,8.984-.736,2.43-1.833,4.75-2.562,7.183-.671,2.239.2,3.02,2.53,2.372a47.321,47.321,0,0,0,4.637-1.588c5.308-2.078,9.965-.994,14.1,2.8a19.169,19.169,0,0,0,1.6,1.475c1.113.8,2.285,1.53,3.43,2.291.171-1.368.358-2.736.51-4.108a21.372,21.372,0,0,0-.11-2.185Z" transform="translate(-169.116 -85.802)" fill="#262c54"/>
    <path id="Path_18188" data-name="Path 18188" d="M164,93.058c-2.456.287-4.1.749-5.689.6a21.391,21.391,0,0,1-5.66-1.449c-.468-.181-.736-1.526-.632-2.272a1.951,1.951,0,0,1,1.659-.942c3.614,1.3,7.177.274,10.762.013a9.9,9.9,0,0,1,3.227.31c3.537.942,4.94,3.746,3.492,7.128a13.324,13.324,0,0,1-2.388,3.6c-5.408,5.938-4.773,7.1-.755,13.182a21.107,21.107,0,0,1,2.662,5.915c1.617,5.815-2.007,9.361-7.77,7.609a25.037,25.037,0,0,1-5.305-2.694c-1.126-.671-2.159-1.823-1.11-3.069.465-.552,2-.587,2.888-.316,1.536.474,2.888,1.52,4.414,2.049,2.34.81,3.7-.4,2.895-2.717a34.365,34.365,0,0,0-3.146-6.286c-4.021-6.651-3.888-8.929,1.123-15.076a5.053,5.053,0,0,0,.694-.833c.62-1.236,1.194-2.494,1.788-3.743L164,93.061Z" transform="translate(-102.945 -60.263)" fill="#262c54"/>
    <path id="Path_18189" data-name="Path 18189" d="M192.354,389.379c-2.743-.284-5.647-.442-8.5-.932a17.916,17.916,0,0,1-4.479-1.714,1.5,1.5,0,0,1-.516-1.388c.252-.578.865-1.365,1.368-1.394a15.11,15.11,0,0,1,3.73.394,54.234,54.234,0,0,0,17.835.242,37.844,37.844,0,0,0,15.654-5.76c.607-.39,1.146-.891,1.755-1.278.971-.62,2.217-1.075,2.769.19a3.237,3.237,0,0,1-.51,2.859,17.687,17.687,0,0,1-3.888,2.891c-7.706,4.721-16.335,5.557-25.221,5.886Z" transform="translate(-121.12 -255.301)" fill="#262c54"/>
    <path id="Path_18190" data-name="Path 18190" d="M0,271.08c.607-.729,1.113-1.7,1.91-2.12.316-.165,1.591.781,1.894,1.462,1.839,4.134,3.472,8.358,5.266,12.514,3.34,7.738,7.764,14.734,14.108,20.41,1.142,1.023,2.953,1.936,1.823,3.927-.716,1.262-2.456.849-4.663-1.068A52.151,52.151,0,0,1,8.167,290.332c-2.469-4.834-4.6-9.849-6.793-14.818A40.408,40.408,0,0,1,0,271.08Z" transform="translate(0 -182.157)" fill="#262c54"/>
    <path id="Path_18191" data-name="Path 18191" d="M165.481,0C171.422.813,177,1.5,182.538,2.41a3,3,0,0,1,2.046,2c.061,1.594-1.368,1.939-2.733,1.791-2.343-.255-4.692-.513-7.009-.939-8.4-1.536-16.619-.6-24.77,1.584-1.623.436-3.433,2-4.747-.29-.749-1.307.652-2.875,3.863-3.582,5.47-1.2,11.026-2.033,16.293-2.975Z" transform="translate(-98.297)" fill="#262c54"/>
    <path id="Path_18192" data-name="Path 18192" d="M196.347,439.332c3.24,0,6.48.006,9.719,0a26.838,26.838,0,0,1,3.217-.052,1.484,1.484,0,0,1,.771,2.5,6.008,6.008,0,0,1-2.775,1.491c-5.75.678-11.5.849-17.183-.639-.349-.09-.823-.129-1-.368-.487-.671-1.281-1.539-1.136-2.13a2.461,2.461,0,0,1,1.943-1.384c2.149.087,4.285.52,6.425.816,0-.077.006-.155.013-.232Z" transform="translate(-127.298 -297.168)" fill="#262c54"/>
    <path id="Path_18193" data-name="Path 18193" d="M133.379,379.577c-.545.4-1.033,1.039-1.626,1.162-2.9.6-9.532-2.707-10.749-5.334-.2-.423-.161-1.365.084-1.5.71-.4,1.759-.923,2.359-.661,2.146.926,4.15,2.175,6.231,3.262.955.5,2.014.826,2.914,1.4.371.239.455.929.787,1.672Z" transform="translate(-81.871 -252.753)" fill="#262c54"/>
    <path id="Path_18194" data-name="Path 18194" d="M.43,203.312a40.514,40.514,0,0,1,1.914-5.021,2.743,2.743,0,0,1,2.188-.923c.439.013,1.3,1.081,1.207,1.491a58.936,58.936,0,0,1-2.181,7.125,2.692,2.692,0,0,1-2.181-.145c-.561-.52-.623-1.575-.942-2.523Z" transform="translate(-0.291 -133.679)" fill="#262c54"/>
    <path id="Path_18195" data-name="Path 18195" d="M301.26,22.084a6.651,6.651,0,0,1-2.469.833c-2.149-.113-3.582-1.649-2.885-2.94a2.723,2.723,0,0,1,2.1-1.158C300.131,18.9,301.551,20.238,301.26,22.084Z" transform="translate(-200.3 -12.745)" fill="#262c54"/>
  </g>
</svg>
