<svg id="_37" data-name="37" xmlns="http://www.w3.org/2000/svg" width="143.212" height="143.809" viewBox="0 0 143.212 143.809">
  <g id="Group_17225" data-name="Group 17225" transform="translate(11.228 15.026)">
    <path id="Path_18221" data-name="Path 18221" d="M280.865,259.7c-1.342,1.449-2.691,2.891-4,4.366q2-3.775,4.014-7.551a.909.909,0,0,0-1.568-.916q-2.149,2.962-4.3,5.928c1.546-2.766,3.1-5.531,4.785-8.209.674-1.071-.942-2.375-1.784-1.375-1.788,2.13-3.5,4.324-5.2,6.528q2.052-3.267,4.166-6.5c.765-1.168-1.026-2.585-1.956-1.507-.423.487-.836.984-1.252,1.475.955-1.546,1.894-3.1,2.782-4.676.555-.987-.862-2.2-1.63-1.258-.277.342-.565.678-.849,1.016.042-.074.087-.145.132-.216.51-.855-.733-1.51-1.3-.762-4.815,6.373-9.329,12.982-13.827,19.6-1.258,1.726-2.5,3.466-3.7,5.234.077-.132.152-.271.229-.4l2.278-3.869c1.559-2.646,3.149-5.276,4.731-7.909q1.544-2.57,3.075-5.14a64.844,64.844,0,0,1,7.251-8.1c1.007-.939-.5-2.433-1.507-1.507-.087.081-.168.165-.255.245.265-.461.539-.913.8-1.375.694-1.22-1.023-2.117-1.826-1.068q-6.467,8.456-13.046,16.832c.1-.165.19-.336.284-.5q4.138-7.115,8.283-14.227a1.225,1.225,0,0,0-2.114-1.236q-1.989,2.9-3.972,5.805c1.113-2.094,2.165-4.218,3.078-6.386a.627.627,0,0,0-1.081-.632c-.155.213-.3.429-.452.642a1.116,1.116,0,0,0-1.884-.662,85.492,85.492,0,0,0-5.841,7.945q-1.554,2.26-3.062,4.556.954-1.854,1.92-3.7,1.147-2.2,2.307-4.392a43.986,43.986,0,0,1,2.349-4.366c.758-1.11-.929-2.375-1.843-1.423a58.807,58.807,0,0,0-5.289,7.041c-.052.074-.1.148-.152.219,1.152-1.852,2.356-3.688,3.424-5.586a1.055,1.055,0,0,0-1.82-1.065c-.326.465-.665.923-.994,1.384.371-.581.745-1.162,1.107-1.749.574-.939-.791-2.036-1.546-1.194l-4.082,4.556c1.007-1.746,1.988-3.5,2.911-5.3a.935.935,0,0,0-1.462-1.129q-1.612,1.6-3.224,3.217a42.99,42.99,0,0,1,2.891-4.84c.71-1.016-.791-1.994-1.633-1.258q-2.212,1.931-4.424,3.859c.145-.319.29-.639.445-.955a27.778,27.778,0,0,1,2.459-4.4c.616-.816-.655-1.636-1.342-1.036-1.11.968-2.227,1.933-3.337,2.9.142-.426.268-.855.426-1.278a33.724,33.724,0,0,1,2.1-4.84.848.848,0,0,0-1.152-1.152c-1,.639-2.02,1.262-3.027,1.9.432-1.155.929-2.285,1.459-3.408a.937.937,0,0,0-.549-1.3c.274-.62.549-1.236.839-1.839a1.015,1.015,0,0,0-1.752-1.023,7.27,7.27,0,0,1-2.285,2.146c.407-.868.81-1.736,1.187-2.617.368-.855-.51-2.252-1.5-1.5-.019.016-.039.029-.058.045a.528.528,0,0,0-.871-.507,55.6,55.6,0,0,0-3.988,4.195c-.6.739.2,2.11,1.117,1.446.542-.394,1.1-.762,1.659-1.136q-.489,1.06-.981,2.117a1.13,1.13,0,0,0,1.533,1.533,12.074,12.074,0,0,0,1.552-1.026c-.268.542-.513,1.094-.726,1.655a1,1,0,0,0,.929,1.342c-.294.784-.561,1.578-.784,2.391-.252.92.849,1.914,1.71,1.313.707-.494,1.391-1.023,2.068-1.562-.132.281-.268.558-.387.852a36.8,36.8,0,0,0-1.684,5.27,1.127,1.127,0,0,0,1.868,1.087c.319-.31.632-.626.949-.936a35.176,35.176,0,0,0-1.375,3.617c-.339,1.084,1.029,1.7,1.791,1.042q1.07-.934,2.133-1.881-1.278,2.527-2.3,5.173c-.442,1.146,1.229,2.014,2.017,1.175.213-.226.419-.465.629-.694a34.7,34.7,0,0,0-2.465,4.473,1.143,1.143,0,0,0-.071.684,36.461,36.461,0,0,0-3.208,4.769.614.614,0,0,0,.958.742,50.122,50.122,0,0,0,5.244-5.789c.6-.72,1.142-1.465,1.675-2.217-.332.539-.661,1.081-1,1.613-1.191,1.868-2.452,3.692-3.679,5.537a47.927,47.927,0,0,0-3.614,5.573,1.055,1.055,0,0,0,1.646,1.268l.01.01c.039-.048.071-.1.11-.148.016-.026.039-.035.055-.065s.029-.048.045-.074a25.711,25.711,0,0,0,1.926-2.969c1.694-2.4,3.592-4.692,5.357-7.009.184.478.742.8,1.175.29.181-.21.339-.429.51-.642-.468.716-.942,1.43-1.4,2.156q-2.323,3.688-4.469,7.486c-.161.284-.313.574-.471.858a69,69,0,0,0-3.827,7.119c-.016.026-.029.052-.048.077-.881,1.32,1.255,2.562,2.126,1.242,1.626-2.462,2.917-5.179,4.4-7.732.449-.774.92-1.536,1.375-2.3a121.31,121.31,0,0,0-6.1,14.108c-.445,1.3,1.642,2.21,2.246.949a166.285,166.285,0,0,1,9.9-17.135c1.749-2.753,3.521-5.492,5.357-8.187.5-.732,1.01-1.455,1.526-2.178-1.465,2.5-2.862,5.053-4.282,7.551-2.872,5.053-5.867,10.042-8.709,15.108a1.279,1.279,0,0,0,2.207,1.291c.5-.745,1.01-1.488,1.513-2.23-.129.226-.261.452-.387.681-.778,1.394,1.171,2.427,2.085,1.217q4.671-6.191,9.394-12.353c-1.075,1.778-2.1,3.588-3.095,5.408-.6,1.094-1.175,2.2-1.765,3.3l-.294.481a38.876,38.876,0,0,0-2.4,4.069c-.791,1.146.749,2.136,1.73,1.488-.729,1.446,1.5,2.675,2.43,1.252,3.269-4.921,6.5-9.842,10.016-14.6.061-.084.123-.168.187-.252-2.985,4.834-6.16,9.548-9.139,14.382-.82,1.333,1.265,2.54,2.091,1.223q1.917-3.054,3.95-6.031c-.862,1.468-1.723,2.936-2.569,4.418-.707,1.239,1.117,2.794,2.056,1.584.068-.087.135-.177.2-.265h0c2.378-3.062,4.731-6.144,7.086-9.222q-2.662,4.579-5.321,9.161c-.781,1.346,1.165,2.4,2.043,1.194,2.22-3.043,4.3-6.2,6.463-9.29-1.026,1.768-2.046,3.543-2.9,5.392-.561,1.213,1.149,2.275,1.823,1.065a56.686,56.686,0,0,1,7.06-9.855,44.517,44.517,0,0,0-1.707,4.524.674.674,0,0,0,1.226.516,62.589,62.589,0,0,0,4.566-9.4c.358-.868-.945-1.533-1.536-.894Z" transform="translate(-166.76 -163.468)" fill="#d9dbeb"/>
    <path id="Path_18222" data-name="Path 18222" d="M63.011,280.586c-1.317,1.246-2.62,2.511-3.927,3.772a1.04,1.04,0,0,0-1.459-.258c-2.565,1.8-4.957,3.9-7.412,5.857l-.213.165c1.4-1.907,2.8-3.808,4.308-5.631a1.178,1.178,0,0,0-1.665-1.665q-2.386,2.251-4.7,4.579c.365-1.113-1.252-1.92-2.191-1.184L39.6,291.047c-1.11.871.1,2.31,1.262,2.033-1.93,2.72-3.866,5.434-5.841,8.122-.878,1.194,1.084,2.707,2.059,1.588,1.591-1.823,3.146-3.672,4.724-5.5a1.465,1.465,0,0,0,2.275.691q1.491-1.239,3-2.465c-1.807,1.972-3.6,3.969-5.431,5.921-1.107,1.113-2.207,2.236-3.288,3.372-1.268,1.233.687,3.188,1.939,1.939,1.8-1.788,3.553-3.624,5.292-5.47a.888.888,0,0,0,1.162.891c0,.016-.01.035-.013.055a5.652,5.652,0,0,0,2.23-1.884l2.1-2.356q2.164-2.42,4.324-4.84,2.106-2.357,4.156-4.76l2.049-2.407c.532-.623,1.484-1.42,1.394-2.3a.489.489,0,0,0-.478-.478c-.039,0-.077.01-.116.013.513-.561,1.033-1.12,1.542-1.684a.664.664,0,0,0-.939-.939Z" transform="translate(-34.797 -204.939)" fill="#d9dbeb"/>
    <path id="Path_18223" data-name="Path 18223" d="M104.726,226.46c-.642.713-1.313,1.4-1.972,2.1.839-1.052,1.681-2.1,2.494-3.172.833-1.094-1-2.494-1.907-1.471-2.5,2.8-5.3,5.386-7.941,8.058a.67.67,0,0,0,.449,1.146q-3.311,3.809-6.835,7.432c-.894.916.316,2.665,1.423,1.846l.239-.184h0q.939-.7,1.849-1.433-4.569,5.363-9.139,10.723a.632.632,0,0,0-.739-.129c-1.726.942-2.94,2.82-4.327,4.211-1.484,1.491-3.007,2.953-4.569,4.363-.461.416-.933.82-1.4,1.229,4.737-5.412,9.587-10.713,14.7-15.792,1.171-1.062-.607-2.856-1.739-1.739-3.94,3.882-7.738,7.9-11.452,12-.248.274-.484.555-.729.829-3.827,4.034-7.512,8.161-11.21,12.311a.566.566,0,0,0,.8.8c.161-.152.319-.307.481-.458a1.148,1.148,0,0,0,1.659.674c2.123-1.539,4.214-3.117,6.244-4.766-1.526,1.8-3.03,3.611-4.5,5.463a1.458,1.458,0,0,0-.313,1.149q-1.834,2.043-3.669,4.076a1.224,1.224,0,0,0,1.73,1.73q6.36-6.094,12.685-12.227c-2.423,3.075-4.753,6.221-6.922,9.49-.733,1.107.894,2.3,1.81,1.4,2.185-2.165,4.353-4.343,6.531-6.518-1.168,1.471-2.343,2.936-3.492,4.424a1.288,1.288,0,0,0,1.82,1.82c1.739-1.446,3.437-2.949,5.1-4.485-1.662,2.136-3.317,4.272-4.986,6.4-.991,1.262.584,2.978,1.81,1.81q4.792-4.574,9.5-9.232c-1.72,2.123-3.45,4.24-5.118,6.4a1.283,1.283,0,0,0,1.814,1.814c.9-.781,1.775-1.584,2.662-2.381a1.169,1.169,0,0,0,1.794.707q2.88-2.043,5.8-4.024c-.013.019-.029.039-.042.061-.858,1.236.926,2.294,1.93,1.488q2.561-2.062,5.153-4.072a.95.95,0,0,0,1.233-.332c.332-.5.681-.994,1.02-1.494.536-.784-.549-1.907-1.336-1.336-.494.358-.994.707-1.491,1.062a1.212,1.212,0,0,0-1.707-1.5q-1.481,1-2.956,2.01c1.839-2.23,3.595-4.534,5.273-6.88.791-1.107-.958-2.423-1.872-1.446-2.243,2.4-4.573,4.724-6.948,7,2.494-3.2,4.976-6.412,7.5-9.59.894-1.126-.529-2.665-1.617-1.617q-5.048,4.85-10.12,9.674,4.047-5.276,8.064-10.578c.758-1.007-.942-2.327-1.755-1.355a133.046,133.046,0,0,1-9.158,9.8q5.794-7.067,11.9-13.869c.978-1.087-.571-2.665-1.613-1.613q-7.749,7.788-15.563,15.515c5.06-6.2,10.52-12.075,16-17.922a1.137,1.137,0,0,0-1.607-1.607q-3.393,3.248-6.786,6.493,6.539-7.1,13.079-14.2a1.289,1.289,0,0,0-.742-2.127l5.3-6.376c.9-1.081-.6-2.643-1.568-1.568Z" transform="translate(-53.065 -166.444)" fill="#d9dbeb"/>
    <g id="Group_17224" data-name="Group 17224" transform="translate(3.047)">
      <path id="Path_18224" data-name="Path 18224" d="M242.807,288.011a2.516,2.516,0,0,0-.7.545c-.207.248-.4.516-.578.784-.284.419-.565.839-.849,1.258s-.52.829-.768,1.252c-.268.449-.558.878-.852,1.31-.432.642.561,1.413,1.078.833.336-.378.662-.765,1.023-1.12s.72-.713,1.052-1.091.652-.736.978-1.1c.194-.219.381-.445.558-.678a2.56,2.56,0,0,0,.436-.929.951.951,0,0,0-1.381-1.062Z" transform="translate(-176.12 -210.017)" fill="#eac485"/>
      <path id="Path_18225" data-name="Path 18225" d="M203.821,256.35c-2.788,2.32-5.457,4.789-8.29,7.051q-.542.436-1.084.868c2.917-4.143,5.692-8.4,8.658-12.482.987-1.362-1.046-2.575-2.162-1.668a.087.087,0,0,0-.026.023c.962-1.116,1.943-2.214,2.914-3.32-.484-1-.975-2-1.462-3.007q-1.907,1.544-3.811,3.095l3.5-3.737a61.087,61.087,0,0,1-3.217-7.819c-.094.113-.187.226-.284.339a1.579,1.579,0,0,0,1.213,2.627c-2.2,1.581-4.45,3.095-6.718,4.585.5-.655,1.007-1.317,1.513-1.972l.09-.071a.709.709,0,0,0,.245-.368c.813-1.052,1.61-2.117,2.43-3.166a1.34,1.34,0,0,0-1.894-1.894c-4.492,3.995-8.984,7.98-13.55,11.891-1.171,1,.384,3.056,1.662,2.152.461-.326.91-.668,1.365-1-.645,1.281.626,3.188,2.072,2.159.545-.387,1.081-.784,1.623-1.178-2.049,1.855-4.121,3.682-6.244,5.457-1.568,1.31.671,3.492,2.23,2.23.358-.29.716-.587,1.075-.878-1.026,1.084-2.046,2.175-3.033,3.295a1.457,1.457,0,0,0,2.059,2.059c2.378-2.059,4.808-4.063,7.251-6.05-2.02,2.2-4.017,4.411-5.947,6.686a1.566,1.566,0,0,0,2.214,2.214q2.919-2.444,5.821-4.908c-2.685,3.64-5.321,7.312-7.625,11.184a1.254,1.254,0,0,0,1.962,1.513c1.32-1.333,2.888-2.472,4.327-3.675.148-.123.3-.248.445-.371-2.775,3.091-5.534,6.2-8.245,9.342-.9,1.046.061,2.911,1.281,2.63a1.409,1.409,0,0,0,2.369,1.049c.494-.4,1.007-.794,1.513-1.187-.21.248-.423.49-.629.742a1.735,1.735,0,0,0,.91,2.74c-.6.807-1.178,1.63-1.707,2.482-.778,1.255.8,2.924,2.072,2.072,1.843-1.233,3.743-2.417,5.67-3.553a1.407,1.407,0,0,0,2.152-.048q.944-1.152,1.888-2.307c.991-1.21-.284-3.337-1.8-2.333q-1.084.716-2.191,1.41a55.44,55.44,0,0,1,5.115-5.034c1.217-1.042-.394-3.162-1.726-2.239-.423.294-.852.578-1.278.865.594-.726,1.184-1.452,1.781-2.175.907-1.1-.323-3.191-1.672-2.168,1.359-1.533,2.717-3.062,4.088-4.573,1.168-1.288-.684-3.169-1.92-1.92-.319.323-.662.629-.984.949q2.9-3.393,5.815-6.77a1.3,1.3,0,0,0-1.83-1.83Z" transform="translate(-137.192 -174.224)" fill="#eac485"/>
      <path id="Path_18226" data-name="Path 18226" d="M156.569,90.039l-13.263,11.617,9.174-11.223a1.6,1.6,0,0,0-2.262-2.262q-6.864,5.407-13.711,10.836c5.221-5.721,10.688-11.223,16.157-16.706a1.571,1.571,0,0,0-2.22-2.22q-5.7,5.5-11.4,11,4.681-5,9.358-10.007a1.525,1.525,0,0,0-2.156-2.156L119.9,101.42a217.776,217.776,0,0,1,20.226-21.2q3.877-3.6,7.757-7.2c1.436-1.333-.713-3.475-2.149-2.149q-2.285,2.11-4.569,4.23-9.013,8.345-18.022,16.69Q134.05,78.7,144.93,65.592c1.255-1.513-.762-3.64-2.2-2.2q-1.38,1.384-2.756,2.772a1.576,1.576,0,0,0-2.62-1.417L111.041,90.271c7.173-8.5,14.615-16.773,22.049-25.038a1.547,1.547,0,0,0-.31-2.359c.287-.255.574-.513.862-.768,1.468-1.3-.639-3.269-2.11-2.11q-5.866,4.618-11.736,9.229a1.734,1.734,0,0,0-1.026-1.271q6.467-6.685,12.933-13.366a1.484,1.484,0,0,0-2.1-2.1q-10.537,9.26-21.078,18.522Q116.513,62,124.5,52.984c1.113-1.255-.374-3.579-1.907-2.475-1.165.839-2.3,1.71-3.446,2.572a1.473,1.473,0,0,0-2.4-.723q-11.854,10.8-23.25,22.1,4.332-4.521,8.667-9.039c3.94-4.108,7.683-8.4,11.636-12.5a1.155,1.155,0,0,0-1.633-1.633c-5.25,4.869-10.449,9.781-16,14.273q1.239-1.5,2.478-2.995,5.31-5.455,10.6-10.923a1.6,1.6,0,0,0,.261-2.033c.207-.245.41-.49.616-.736a1.365,1.365,0,0,0-1.646-2.133A92.355,92.355,0,0,0,95.013,55.3q2.546-2.667,5.086-5.334c.968-1.023-.355-2.975-1.578-2.046-.087.068-.174.136-.265.2h0c-1.165.887-2.317,1.788-3.469,2.688.649-.668,1.31-1.323,1.952-1.994A1.212,1.212,0,0,0,95.025,47.1c-2.591,2.265-5.279,4.414-7.951,6.586.91-.868,1.823-1.73,2.733-2.6,1.329-1.271-.626-3.146-1.994-1.994Q75.8,59.22,63.747,69.287c4.934-4.927,10-9.807,15.379-14.234.981-.807-.345-2.559-1.375-1.781C71.285,58.154,64.893,63.162,58.71,68.4c-.649.549.023,1.61.739,1.488q-6.965,6.927-13.434,14.327a1.422,1.422,0,0,0,2.01,2.01q2.367-1.975,4.731-3.959c-.016.013-.029.029-.045.042a1.289,1.289,0,0,0,.035,1.988,39.693,39.693,0,0,0-6.163,6.086c-.407.542.355,1.113.855.858a43.221,43.221,0,0,0,7.509-5.457q2.686-2.2,5.357-4.431c-1.152,1.162-2.3,2.327-3.433,3.5-2.7,2.8-5.353,5.66-8.029,8.49-.975.994-1.936,2-2.872,3.027a1.249,1.249,0,0,0,1.765,1.765c.177-.161.345-.332.523-.5-.668.729-1.342,1.455-2.014,2.181A1.244,1.244,0,0,0,48,101.581c1.233-1.21,2.491-2.4,3.737-3.6a1.478,1.478,0,0,0,.529.771q-3.834,4.235-7.667,8.467c-1.149,1.268.707,3.146,1.885,1.885Q57.15,97.712,68.168,86.683a1.509,1.509,0,0,0,.842,1.339L47.5,110.12a1.642,1.642,0,0,0,2.32,2.32q3.049-2.943,6.138-5.86a1.711,1.711,0,0,0,1.746.4q-5.232,5.257-10.255,10.723a1.637,1.637,0,0,0,2.314,2.314q6.989-6.718,13.682-13.727-3.708,4.715-7.06,9.69c-2.565,2.427-5.147,4.831-7.7,7.267-1.268,1.21.09,2.959,1.578,2.707,7.719-1.3,12.811-8.851,17.651-14.276q4.226-4.734,8.6-9.342-6.3,7.783-12.388,15.728c-.981,1.284.862,2.72,2.068,2.068a29.578,29.578,0,0,0,3.992-2.611,15.244,15.244,0,0,0-1.362,2.162c-.342.678.416,1.694,1.152,1.152a27.524,27.524,0,0,0,3.9-3.753c.765-.836,1.533-1.672,2.294-2.507a28.867,28.867,0,0,0,7.983-6.276q1.975-2.043,3.924-4.114a1.654,1.654,0,0,0,2.769.92c1.726-1.381,3.4-2.82,5.04-4.292a1.387,1.387,0,0,0,1.717-.274q2.764-2.749,5.524-5.5-4.889,6.012-9.542,12.217c-1.065,1.426,1.194,3.024,2.4,1.852l9.816-9.506c-1.052,1.359-2.1,2.72-3.117,4.108-.994,1.355,1.146,2.9,2.288,1.765l.3-.3a2.989,2.989,0,0,1,2.953-2.949q6.409-6.4,12.817-12.8l-11.065,13.321a2.906,2.906,0,0,1,.374.3,29.871,29.871,0,0,1,2.394,2.556c.177-.168.358-.332.536-.5-.148.2-.29.413-.439.616a40.984,40.984,0,0,1,2.591,3.43l12.2-10.4a135.786,135.786,0,0,0-10.836,12.52c.72,1.168,1.4,2.356,2.068,3.553q2.323-2.236,4.644-4.472a1.574,1.574,0,0,0,2.623.849q3.132-2.473,6.263-4.944c-1.442,1.478-2.895,2.946-4.311,4.45a59.577,59.577,0,0,0-6.338,7.37c-.442.662.465,1.63,1.133,1.133a70.387,70.387,0,0,0,6.957-6.425c.52-.513,1.042-1.026,1.562-1.539q-1.157,1.423-2.314,2.843a1.655,1.655,0,0,0-.387,1.323l-.226.2c-.862.784-1.717,1.568-2.527,2.4a10.657,10.657,0,0,0-1.016,1.175,2.321,2.321,0,0,0-.361,1.288.56.56,0,0,0,.552.552,2.122,2.122,0,0,0,1.31-.207,10.146,10.146,0,0,0,1.288-.826c.878-.652,1.739-1.313,2.591-2l.036-.029a1.362,1.362,0,0,0,2.059.539l7.825-5.9q-3.156,3.354-6.312,6.709c-1.171,1.249.426,3.627,1.923,2.494l8.6-6.509c-.571.658-1.139,1.313-1.707,1.972a1.586,1.586,0,0,0,1.914,2.478l.2-.1c-.245.239-.49.478-.726.732-1.455,1.578.9,3.947,2.362,2.362a15.888,15.888,0,0,1,2.443-2.162q-1.641,2.43-3.288,4.86c-1.036,1.536,1.226,3.14,2.5,1.926q4.352-4.138,8.726-8.248a1.454,1.454,0,0,0-.781-2.517c.687-1.181,1.342-2.378,1.926-3.624a1.6,1.6,0,0,0-2.175-2.172c-1.936.933-3.869,1.878-5.8,2.82q3.185-3.7,6.376-7.393c1.075-1.242-.384-3.585-1.891-2.449q-2.836,2.139-5.676,4.276,3.146-3.35,6.3-6.7c1.165-1.239-.423-3.6-1.91-2.475l-4.76,3.592q5.126-5.14,10.252-10.274c1.413-1.41-.7-3.466-2.172-2.172ZM86.832,66.3l.681-.6q1.815-1.53,3.695-2.972-2.459,2.091-4.911,4.2C86.477,66.715,86.652,66.5,86.832,66.3Zm-7.7,9.561c1.181-1.152,2.352-2.314,3.537-3.459q5.305-5.126,10.713-10.139A.511.511,0,0,0,93,61.381q2.866-2.091,5.873-3.976Q93.314,63.17,87.758,68.938,83,73.87,78.236,78.8a50.18,50.18,0,0,1-4,3.992q2.357-3.533,4.9-6.938Zm14.96,13.521a1.367,1.367,0,0,0-.429,1.058l-9.471,9.435q-4.685,4.666-9.368,9.332Q82.739,99.2,91.014,89.49a1.482,1.482,0,0,0,1.468-.345l12.111-10.668q-5.247,5.45-10.5,10.9Zm3.275-10.345a1.492,1.492,0,0,0-1.859.187q-6.133,5.639-12.046,11.51-6.21,5.615-12.33,11.326c3.227-3.821,6.576-7.548,9.955-11.239a1.52,1.52,0,0,0,1.249-.461c9.258-8.977,18.487-18.019,28.3-26.383Q104,71.5,97.368,79.029Z" transform="translate(-44.241 -46.564)" fill="#eac485"/>
    </g>
  </g>
  <g id="Group_17226" data-name="Group 17226">
    <path id="Path_18227" data-name="Path 18227" d="M151.151,111.45c-.052,9.306-1.613,18.2-6.076,26.4-1.275,2.34-.9,4.037,1.094,5.708,3.224,2.694,4.111,6.334,3.679,10.342-.368,3.437-1.8,6.289-5.04,7.919a4.747,4.747,0,0,0-2.9,2.865,13.612,13.612,0,0,1-16.88,8.832,13.13,13.13,0,0,0-7.38-.484,8.855,8.855,0,0,1-8.674-2.01c-2.01-1.888-4.118-1.73-6.57-1.068a42.57,42.57,0,0,1-27.267-1.265,2.527,2.527,0,0,0-3.317.7,10.533,10.533,0,0,1-1.552,1.53c-4.747,3.6-9.839,4.685-15.257,1.675a9.419,9.419,0,0,0-5.654-1.246c-6.983.532-11.965-3.14-13.576-9.92-.555-2.333-1.149-4.389-3-6.144-1.784-1.7-2.107-4.169-1.968-6.609.2-3.575,1.278-7.015,3.9-9.355,2.756-2.456,2.32-4.714,1.288-7.683-9.9-28.406,4.292-57.178,24.97-70.169,2.975-1.872,4.718-2.117,5.16-.626.716,2.4-1.491,3.033-2.9,3.959-13.647,8.955-22.04,21.569-25.3,37.4a51.278,51.278,0,0,0,2.181,29.023c1.181,3.1,1.268,3.12,4.1,1.213a21.868,21.868,0,0,1,16.619-3.6,6.842,6.842,0,0,0,2.607.081c1.249-.284,1.407-1.646.419-2.73-2.127-2.33-2.056-2.888.636-4.253a12.949,12.949,0,0,1,2.52-1.036c2.907-.758,5.373-1.968,6.767-4.918.307-.649,1.73-.771,2.64-1.136.245.949.936,2.068.649,2.814a19.278,19.278,0,0,1-2.727,4.692c-2.436,3.175-4.992,6.257-7.567,9.323-2.343,2.791-2.4,2.82-5.857,1.62-4.466-1.552-8.626-.542-12.643,1.426a5.019,5.019,0,0,0-2.256,2.233c-.784,1.778-2.094,2.127-3.817,2.5-4.973,1.075-8.316,6.86-7.022,11.756.426,1.617,1.391,1.572,2.907,1.342,2.43-.365,2.924.371,2.423,2.694-.152.7-.558,1.355-.7,2.062a8.528,8.528,0,0,0,6.86,10.084,3.507,3.507,0,0,0,2.756-1.02c.765-.9.842-2.811,2.407-2.394,1,.265,1.746,1.652,2.511,2.611,2.711,3.395,6.173,4.44,10.174,3.014,2.756-.981,3.182-1.568,3.269-5.076.042-1.7.816-2.34,2.4-1.985.694.155,1.313.707,2,.81a12.049,12.049,0,0,0,3.763.187c5.1-.887,6.725-5.2,3.33-9.148-1.384-1.61-2.175-2.991-.784-4.747,2.791-3.527,2.391-6.547-.933-9.51a5.445,5.445,0,0,1-1.294-6.531c3.356-8.058,6.776-16.086,10.2-24.115a2.431,2.431,0,0,1,.987-1.255,2.677,2.677,0,0,1,1.985-.19,2.035,2.035,0,0,1,.923,1.7,43.272,43.272,0,0,1-1.659,4.6c-.652,1.73.052,2.359,1.768,2.185,1.991-.2,4.014-.229,5.963-.616,2.2-.439,3.414.29,4.163,2.372,2.272,6.322,4.543,12.646,7.012,18.894.865,2.188.355,3.269-1.626,4.35-1.52.829-3.275,1.981-3.943,3.44-1.075,2.346-1.042,5.086,1.217,7.015,1.875,1.6,2.4,2.714.265,4.753-2.488,2.375-2.911,5.189-1.584,6.835,1.894,2.352,4.434,2.072,6.989,1.288a10.7,10.7,0,0,1,2.068-.665,24.037,24.037,0,0,1,3.043.09,9.042,9.042,0,0,1-.284,2.872c-.758,1.675.158,1.949,1.384,1.917a12.366,12.366,0,0,0,3.759-.487,7.161,7.161,0,0,1,6.2.542c3.811,1.981,7.5.532,10.71-1.733a5.44,5.44,0,0,0,1.939-3.672c.177-2.762,1.42-4.211,3.911-5.25,3.592-1.5,4.711-4,4-7.816-.678-3.675-2.4-4.815-6.115-4.027a10.735,10.735,0,0,1-2.1.478c-.478,0-1.242-.339-1.362-.7a3.3,3.3,0,0,1,.087-2.017c.161-.452.762-.739,1.136-1.126.826-.849,2.433-1.888,2.291-2.54a10.354,10.354,0,0,0-2.391-4.085,3.353,3.353,0,0,0-2.407-1.107c-2.743.174-4.476-.9-6.418-2.92-1.775-1.839-4.8-1.071-7.3-.307-2.023.62-4.263,2.088-5.989,1.623-1.359-.365-2.039-3.124-3.091-4.776-3.717-5.831-7.493-11.62-11.184-17.467-1.649-2.614-1.723-4.279-.349-4.7,2.149-.652,2.775,1.22,3.7,2.481a25.893,25.893,0,0,1,2.068,3.211c1.936,3.682,4.421,6.425,8.887,7.209,2.023.355,3.9,1.872,5.673,3.1a2.448,2.448,0,0,1,.558,2.327,2.522,2.522,0,0,1-2.21.8,18.5,18.5,0,0,1-2.946-1.355,3.746,3.746,0,0,0-1.452.074,5.525,5.525,0,0,0,.336,1.491c1.459,2.656,1.93,3.033,4.7,2.091,4.876-1.659,9.255-.878,13.537,1.794,1.675,1.046,3.659,1.575,5.441,2.465,3.579,1.788,3.75,1.885,5.037-1.952,3.911-11.675,4.6-23.5.987-35.4a51.365,51.365,0,0,0-23.592-30.265,32.445,32.445,0,0,1-4.069-2.714c-.423-.349-.729-1.549-.478-1.862a2.917,2.917,0,0,1,2.136-1.11,8.316,8.316,0,0,1,2.962,1.3c19.458,11.349,28.845,28.513,29.384,50.753ZM91.424,167.63c1.275-.123,3.085-.236,4.873-.49,1.2-.171,1.981-.736,1.484-2.207a10.073,10.073,0,0,1,.752-8.416c.813-1.462.442-2.675-.116-4.1-1.972-5.031-1.578-9.61,3.03-13.159a2.544,2.544,0,0,0,1.055-3.275q-2.643-6.849-5.144-13.75c-.5-1.388-1.41-2.233-2.83-1.994-2.846.481-5.947.639-8.383,1.959-1.6.865-2.3,3.5-3.243,5.415-.8,1.62-1.31,3.385-2.072,5.028-1.117,2.4-.975,4.376,1.1,6.344a7.93,7.93,0,0,1,1.852,9.5c-.978,2.156-.565,3.663.484,5.518a8.432,8.432,0,0,1,.052,8.342c-.691,1.355-1.355,2.727-2.03,4.092,1.6.268,3.191.578,4.8.8,1.255.171,2.527.236,4.334.394Z" transform="translate(-20.849 -40.216)" fill="#262c54"/>
    <path id="Path_18228" data-name="Path 18228" d="M273.148,0a77.734,77.734,0,0,1,7.938,2.256c16.977,6.893,29.762,18.429,38,34.844a29.169,29.169,0,0,1,2.11,6.686c.123.539-.723,1.533-1.362,1.907-.342.2-1.433-.31-1.765-.791a17.4,17.4,0,0,1-1.329-2.959C308.415,23.095,294.449,10.584,274.7,4.579c-.52-.158-1.068-.207-1.6-.329-1.31-.3-2.743-.865-2.281-2.391C271.086,1,272.5.487,273.148,0Z" transform="translate(-183.373)" fill="#262c54"/>
    <path id="Path_18229" data-name="Path 18229" d="M.008,135.452c-.077-14,3.592-25.47,9.252-36.412.332-.642.591-1.465,1.136-1.823A12.332,12.332,0,0,1,13.128,96.2c.2.968.745,2.02.526,2.878A20.858,20.858,0,0,1,11.8,103c-7.97,15.922-10.071,32.466-4.882,49.63.945,3.13.4,5.137-.929,5.089-2.449-.09-2.475-2.31-2.978-3.959A62.2,62.2,0,0,1,.008,135.452Z" transform="translate(-0.002 -65.157)" fill="#262c54"/>
    <path id="Path_18230" data-name="Path 18230" d="M125.42,172.155c-2.614-.655-5.289-1.139-7.816-2.043a5.182,5.182,0,0,1-2.552-2.54c-.965-2.043.068-3.743,2.343-3.666a71.5,71.5,0,0,0,19.394-2.2c1.2-.294,2.849-.649,3.22.958a4.462,4.462,0,0,1-.92,3.4,16.273,16.273,0,0,1-10.852,5.586c-.9.1-1.81.09-2.717.132-.032.123-.068.245-.1.368Z" transform="translate(-77.682 -109.356)" fill="#262c54"/>
    <path id="Path_18231" data-name="Path 18231" d="M265.268,174.669c-5.508-.019-9.732-1.7-12.762-5.821-.381-.52-.807-1.549-.574-1.862a3.556,3.556,0,0,1,2.11-1.249,8.151,8.151,0,0,1,2.675.339A49.538,49.538,0,0,0,272.961,166a4.147,4.147,0,0,1,3.308.933c1.094,1.381-.094,2.727-1.142,3.75a13.4,13.4,0,0,1-9.858,3.985Z" transform="translate(-170.591 -112.232)" fill="#262c54"/>
    <path id="Path_18232" data-name="Path 18232" d="M131.264,114.488c-.387.6-.649,1.388-.955,1.407-.8.052-2.072.052-2.378-.423-2.494-3.911-6.367-4.689-10.471-4.585a37.113,37.113,0,0,0-6.944,1.284,16.378,16.378,0,0,0-2.54.984c-1.375.558-3.024,1.3-3.6-.662-.213-.726.9-2.356,1.791-2.807a23.411,23.411,0,0,1,18.493-1.668c1.959.649,3.685,2.21,5.292,3.614.726.632.9,1.9,1.313,2.859Z" transform="translate(-70.676 -72.358)" fill="#262c54"/>
    <path id="Path_18233" data-name="Path 18233" d="M271.237,103.826a25.765,25.765,0,0,1,4.563.945c.71.248,1.046,1.568,1.555,2.4a13.672,13.672,0,0,1-2.194,1.191,3.394,3.394,0,0,1-1.6-.155c-6.522-1.3-12.156.494-17.1,4.808-1.152,1-2.362,2.9-4.024,1.194-1.617-1.665.129-3.011,1.242-4.076,4.537-4.337,10.013-6.376,17.564-6.305Z" transform="translate(-170.533 -70.321)" fill="#262c54"/>
    <path id="Path_18234" data-name="Path 18234" d="M183.439,429.962c4.114-.532,8.232-1.055,12.343-1.607.536-.071,1.107-.494,1.565-.378.8.2,1.91.523,2.159,1.107a2.677,2.677,0,0,1-.8,2.24,6.506,6.506,0,0,1-2.452,1.12c-6.644,2.243-13.346.849-20.01.158-.713-.074-1.294-1.446-1.936-2.217.842-.536,1.678-1.507,2.53-1.526a55.6,55.6,0,0,1,6.518.549c.026.184.055.368.081.552Z" transform="translate(-118.062 -289.86)" fill="#262c54"/>
    <path id="Path_18235" data-name="Path 18235" d="M427.124,197.509a41.934,41.934,0,0,1,.09-5.979,3.234,3.234,0,0,1,1.946-2.146c1.32-.378,1.846.845,1.946,1.994a57.458,57.458,0,0,1-2.168,21.569c-.19.642-1.265,1.023-1.927,1.523-.555-.794-1.426-1.53-1.581-2.394a9.995,9.995,0,0,1,.439-3.214c.307-1.791.7-3.569.916-5.373.239-1.985.316-3.985.465-5.979-.042,0-.084,0-.126,0Z" transform="translate(-288.119 -128.224)" fill="#262c54"/>
    <path id="Path_18236" data-name="Path 18236" d="M73.859,25.953c.591.374,1.323.584,1.42.958a2.6,2.6,0,0,1-.226,1.968,5.83,5.83,0,0,1-2.107,1.636A38.337,38.337,0,0,0,60.371,40.678c-1.029,1.226-2.172,3.056-3.947,1.755-1.917-1.407-.242-2.953.713-4.137A38.867,38.867,0,0,1,70.9,27.067c.965-.449,1.994-.755,2.956-1.117Z" transform="translate(-37.622 -17.576)" fill="#262c54"/>
    <path id="Path_18237" data-name="Path 18237" d="M170.573,38.356c2.7.284,4.689.394,6.631.765a1.973,1.973,0,0,1,1.081,1.581,2.175,2.175,0,0,1-1.239,1.494,6.686,6.686,0,0,1-2.662.319,46.752,46.752,0,0,0-15.5,2.223c-.52.155-1.1.529-1.546.407-.784-.219-1.868-.591-2.11-1.191a2.457,2.457,0,0,1,.8-2.207,9.4,9.4,0,0,1,3.485-1.426c3.888-.778,7.809-1.4,11.065-1.972Z" transform="translate(-105.097 -25.975)" fill="#262c54"/>
    <path id="Path_18238" data-name="Path 18238" d="M143.261,11.229c-.694-.51-1.749-.9-1.923-1.526a2.373,2.373,0,0,1,.952-2.13,79.542,79.542,0,0,1,8.861-2.5,2.449,2.449,0,0,1,2.072,1.2,2.348,2.348,0,0,1-.945,2.133c-2.882,1.058-5.857,1.862-9.016,2.82Z" transform="translate(-95.71 -3.427)" fill="#262c54"/>
    <path id="Path_18239" data-name="Path 18239" d="M256.876,45.271c-.723.426-1.488,1.268-2.081,1.162a48,48,0,0,1-7.228-1.891c-.549-.19-.991-1.388-1.007-2.133-.01-.429,1.046-1.336,1.43-1.242,2.727.668,5.418,1.5,8.08,2.394.336.113.442.9.807,1.707Z" transform="translate(-166.998 -27.877)" fill="#262c54"/>
  </g>
</svg>
