<svg id="_38" data-name="38" xmlns="http://www.w3.org/2000/svg" width="142.677" height="144.924" viewBox="0 0 142.677 144.924">
  <g id="Group_17228" data-name="Group 17228" transform="translate(11.325 14.14)">
    <path id="Path_18240" data-name="Path 18240" d="M278.112,178.017a1.294,1.294,0,0,0-.578-.142,1.736,1.736,0,0,0-.374-.587c.039-.042.077-.081.113-.123a1.833,1.833,0,0,0-.723-2.856c.3-1.123-.587-2.54-1.914-2.046-.426.158-.852.319-1.281.478.484-.52.968-1.042,1.452-1.562a1.689,1.689,0,0,0,.019-2.178,1.433,1.433,0,0,0-2.191-.894c-.287.171-.574.345-.862.516a1.715,1.715,0,0,0-2.014-.51l-.019-.029a1.534,1.534,0,0,0-1.9-2.352c-.177.094-.355.187-.536.281a1.225,1.225,0,0,0-1.552-.762l-.568.213a1.569,1.569,0,0,0-.348-.352,1.345,1.345,0,0,0-1.81-1.2l-.871.31a1.552,1.552,0,0,0-1.607-.113q-1.68.862-3.362,1.72a1.074,1.074,0,0,0-1.565-.155c-.152.116-.307.223-.458.336a1.139,1.139,0,0,0-1.513.165l-3.233,3.324a1.307,1.307,0,0,0,.01,1.762c-.035.042-.074.081-.11.123a1.479,1.479,0,0,0,.21,2.175c-.632.632-1.258,1.268-1.894,1.9a1.434,1.434,0,0,0,.136,2.091l-.271.3c-1.1,1.21.307,3.253,1.8,2.339.429-.261.855-.526,1.284-.787a1.442,1.442,0,0,0,1.759,1.265c-.035-.029-.071-.055-.11-.084a2.96,2.96,0,0,1-.768-1.317l-.106-.794a2.236,2.236,0,0,1,.258-1.149,2.2,2.2,0,0,1,.616-.958,2.243,2.243,0,0,1,.958-.616,2.269,2.269,0,0,1,1.149-.258h.168a2.962,2.962,0,0,1,1.5.407l.6.465a2.96,2.96,0,0,1,.768,1.317l.106.794a2.236,2.236,0,0,1-.258,1.149,2.166,2.166,0,0,1-.21.445,1.58,1.58,0,0,0,2.259.691l1.559-.929a1.661,1.661,0,0,0,2.275.736l.516-.261c-.019-.01-.039-.016-.055-.026a5.985,5.985,0,0,1-.9-.687,4.154,4.154,0,0,1-2.268-1.743c-1.346-2.175-.148-4.476,1.7-5.825a6.232,6.232,0,0,1,3.617-1.207,5.027,5.027,0,0,1,4.156,2.281,2.41,2.41,0,0,1,.342,2.049,4.041,4.041,0,0,1,.065.494,6.212,6.212,0,0,1-.771,3.35,4.242,4.242,0,0,1-5.87,1.326c-.332,1.239,1.239,2.239,2.4,1.7,1.326-.62,2.653-1.288,3.988-1.923a1.532,1.532,0,0,0,.2.513,2.713,2.713,0,0,0,1.326,1.807,3.885,3.885,0,0,0,.455.242c-.684,1.513,1.242,3.288,2.543,1.865,1.152-1.262,2.259-2.569,3.382-3.856a1.581,1.581,0,0,0-.836-2.64Z" transform="translate(-179.366 -125.099)" fill="#75757c"/>
    <path id="Path_18241" data-name="Path 18241" d="M120.586,176.525a1.916,1.916,0,0,0-.484-.361,1.606,1.606,0,0,0-1.033-2.54,1.439,1.439,0,0,0-2.233-1.288l-.048.029c-.026-.019-.048-.039-.074-.055q.692-.92,1.381-1.846c.978-1.3-.845-2.569-2.017-2.017-.142.065-.281.132-.423.2a1.63,1.63,0,0,0-2.091-1.481c.258-.281.561-.536.8-.758a1.5,1.5,0,0,0-1.449-2.488c-.645.139-1.291.274-1.933.413a1.674,1.674,0,0,0-2.5-.478c-.3.284-.6.568-.9.852a1.2,1.2,0,0,0-.755-.01,1.216,1.216,0,0,0-1.533-.165c-.242.139-.484.281-.726.419a1.465,1.465,0,0,0-.494-.074,1.651,1.651,0,0,0-2.43-1.31c-.345.229-.684.465-1.029.7a1.441,1.441,0,0,0-1.43.345c-.913.82-1.823,1.642-2.74,2.459-.6.371-1.207.739-1.81,1.11a1.539,1.539,0,0,0-.662,1.733,22.1,22.1,0,0,0-2.995,3.64,1.515,1.515,0,0,0,.955,2.2,1.143,1.143,0,0,0,.787.526c-.436.671-.874,1.339-1.307,2.01a1.191,1.191,0,0,0,.716,1.836l-.862,1.3c-.758,1.142.8,2.824,1.956,1.956q.76-.571,1.517-1.146a2.1,2.1,0,0,0,.2.174c-.8,1.362,1.236,2.682,2.372,1.646A22.951,22.951,0,0,0,99,182.337a1.2,1.2,0,0,0,.319-.152c.116-.077.232-.155.352-.232a1.5,1.5,0,0,0,2.2.5c.116-.09.226-.184.339-.274,0,0,0,.006.006.006.065-.055.129-.113.194-.171.691-.549,1.359-1.117,2.01-1.7a1.885,1.885,0,0,0,1.01-.152q1.38-.615,2.759-1.233a4.5,4.5,0,0,1-2.281-6.27c.907-1.855,3.579-3.44,5.6-2.414a4.257,4.257,0,0,1,3.1,2.74,4.81,4.81,0,0,1-.416,4,3.991,3.991,0,0,1-2.833,1.859,4.519,4.519,0,0,1-1.878.349,1.5,1.5,0,0,0,1.759.236l1.365-.842a3.324,3.324,0,0,0,.813,2.188,3.431,3.431,0,0,0,3.633.81c.087-.029.168-.068.252-.1a1.284,1.284,0,0,0,1-.2l2.517-1.83a1.7,1.7,0,0,0-.236-2.93Zm-20.643,4.437c-3.843,0-3.837-5.963,0-5.963S103.78,180.962,99.943,180.962Z" transform="translate(-72.79 -124.772)" fill="#75757c"/>
    <path id="Path_18242" data-name="Path 18242" d="M269.531,224.777c-.187.1-.381.181-.571.271a1.349,1.349,0,0,0-1.433-1.668c.678-1.055-.458-2.646-1.681-1.855-1.268.816-2.591,1.565-3.93,2.294.181-.158.352-.323.539-.478,1.087-.913-.307-2.594-1.484-1.926-.3.171-.6.326-.9.494a1.393,1.393,0,0,0-2.043-1.336c-.274.168-.552.323-.826.487a1.419,1.419,0,0,0-1.814-2.1c-.487.3-.981.6-1.475.891a1.379,1.379,0,0,0-1.949-.742c-.61.326-1.226.645-1.839.968-.045-.655-.8-1.31-1.433-.829-2.649,2-5.392,3.892-8.08,5.85a1.416,1.416,0,0,0,1.429,2.443c1.413-.729,2.814-1.481,4.211-2.239a1.745,1.745,0,0,0,.436.984c-.307.281-.623.555-.926.839-1.4,1.31.381,3.4,1.981,2.569q1.549-.808,3.082-1.655a1.5,1.5,0,0,0,1.91,1.146,1.556,1.556,0,0,0,2.239,1.523c.774-.452,1.549-.916,2.323-1.384-.839,1.207.652,3.185,1.985,2.178,1.31-.991,2.659-1.939,4.05-2.824a1.461,1.461,0,0,0,2.075.9l.826-.361c-.016.048-.039.09-.052.139a1.135,1.135,0,0,0,1.881,1.094c1.184-1.052,2.156-2.227,3.233-3.391a1.455,1.455,0,0,0-1.755-2.275Z" transform="translate(-173.854 -162.305)" fill="#abd0f2"/>
    <path id="Path_18243" data-name="Path 18243" d="M120.672,220.3c-1.381,1.113-2.756,2.236-4.137,3.35.2-.307.394-.623.6-.929.939-1.4-1.071-2.72-2.223-1.714-.471.41-.942.823-1.413,1.233a1.525,1.525,0,0,0-2.517-1.229c-.242.219-.49.432-.732.652a1.459,1.459,0,0,0-2.44-1.32c-.045.045-.09.1-.139.145a1.574,1.574,0,0,0-2.675-.774c-.526.539-1.075,1.046-1.636,1.546a1.026,1.026,0,0,0-.755.087,26.173,26.173,0,0,0-7.335,6.008,1.594,1.594,0,0,0,1.923,2.491c.407-.242.807-.494,1.2-.752-.116.245-.239.487-.345.733a1.653,1.653,0,0,0,2.585,1.994c.265-.242.513-.49.774-.736a1.508,1.508,0,0,0,2.007.755,1.725,1.725,0,0,0,2.788.994l2.569-2.359a1.584,1.584,0,0,0,2.607,1.2l2.243-1.917a1.541,1.541,0,0,0,2.265,1.31,16.707,16.707,0,0,0,5.157-4.153c.471-.574-.136-1.591-.858-1.113-.213.142-.442.271-.662.407.965-1.375,1.955-2.727,2.991-4.05a1.313,1.313,0,0,0-1.855-1.855Z" transform="translate(-75.574 -162.613)" fill="#abd0f2"/>
    <g id="Group_17227" data-name="Group 17227">
      <path id="Path_18244" data-name="Path 18244" d="M48.961,193.25c-.655.823-1.323,1.639-1.975,2.462q-5.954,7.536-11.643,15.279c-1.02,1.388,1.329,3.224,2.4,1.855q5.658-7.183,11.62-14.1a13.018,13.018,0,0,1-.41-5.492Z" transform="translate(-35.093 -145.03)" fill="#eac485"/>
      <path id="Path_18245" data-name="Path 18245" d="M47.946,229.14q5.107-6.96,10.365-13.808a12.63,12.63,0,0,1-1.943-3.572c-3.888,5.137-7.512,10.452-10.952,15.9-1.026,1.626,1.439,2.966,2.53,1.478Z" transform="translate(-41.919 -157.567)" fill="#eac485"/>
      <path id="Path_18246" data-name="Path 18246" d="M49.59,250.358q5.992-8.485,12.52-16.567a6.467,6.467,0,0,1-2.662-4.169,4.06,4.06,0,0,1,.652-3.246,7.8,7.8,0,0,1-.687-1.146,2.832,2.832,0,0,1-1.052-.691c-.329-.339-.636-.687-.916-1.039-.591.791-1.188,1.578-1.768,2.372q-6.22,8.48-11.8,17.409c-.926,1.478,1.355,2.769,2.317,1.355,1.436-2.107,2.936-4.166,4.466-6.2a1.358,1.358,0,0,0,1.83-.158c.739-.849,1.484-1.7,2.223-2.546q-3.945,6.505-7.506,13.237a1.382,1.382,0,0,0,2.385,1.394Z" transform="translate(-40.894 -165.519)" fill="#eac485"/>
      <path id="Path_18247" data-name="Path 18247" d="M340.042,128.474q-5.271,4.39-10.552,8.771a16.26,16.26,0,0,1,2.765,2.517q5.053-4.492,10.168-8.906C344.076,129.429,341.691,127.1,340.042,128.474Z" transform="translate(-234.491 -100.874)" fill="#eac485"/>
      <path id="Path_18248" data-name="Path 18248" d="M183.079,111.059c-6.77,5.766-13.663,11.4-20.552,17.028.268-.278.536-.555.8-.836q2.381-2.081,4.763-4.166a1.4,1.4,0,0,0,.513-1.329q6.931-7.241,13.872-14.46c1.365-1.41-.674-3.382-2.13-2.13q-6.8,5.842-13.621,11.662c.632-.571,1.262-1.146,1.894-1.717l5.967-5.347a1.417,1.417,0,0,0,.345-1.8c2.285-2.436,4.569-4.873,6.828-7.332,1.01-1.1-.319-3.088-1.672-2.165-1.171.8-2.32,1.633-3.469,2.459,2.659-3.037,5.157-6.215,7.57-9.452,1-1.349-1.091-2.736-2.227-1.717q-1.655,1.486-3.311,2.969c.2-.226.4-.449.594-.678a1.182,1.182,0,0,0-.013-1.6c.145-.184.3-.361.442-.549.6-.81-.581-1.949-1.388-1.388a42.491,42.491,0,0,0-4.631,3.959,2,2,0,0,0-.236-.158q3.18-3.34,6.109-6.922,1.046-.949,2.068-1.926a1.082,1.082,0,0,0,.3-1.081c.09-.119.184-.232.274-.352h0c.065-.087.136-.171.2-.258.91-1.217-.981-2.449-2-1.546-2.3,2.036-4.6,4.108-6.912,6.16a1.713,1.713,0,0,0-1.691-.739c1.949-1.91,3.856-3.859,5.673-5.9.555-.626-.061-1.733-.8-1.507a1.594,1.594,0,0,0-.142-1.323,1.733,1.733,0,0,0-2.352-.616l-.758.526a2.068,2.068,0,0,0-.555.558q-3.151,2.691-6.331,5.347a15.987,15.987,0,0,1,3.866,9.952c.549,10.791-5.305,22.062-17.206,21.369-.636-.035-1.284-.094-1.936-.171q-1.956,1.888-3.911,3.775c-1.849,1.778-3.675,3.592-5.524,5.382-1.646,1.439-3.269,2.9-4.776,4.46a1.708,1.708,0,0,0,0,2.388q-6.912,6.138-13.827,12.278c-.8.71-1.61,1.423-2.436,2.123-.258.148-.516.294-.771.442q2.628-3.233,5.4-6.341c5.725-5.715,11.536-11.346,17.3-17.015l5.424-5.331q1.341-1.108,2.682-2.223a24.366,24.366,0,0,1-10.3-3.624c-.132.123-.265.242-.4.361l-10.32,9.49a1.5,1.5,0,0,0-.016,2.3q-4.506,3.495-8.974,7.035-1.723,1.37-3.443,2.74c.51-.6,1-1.207,1.52-1.8q5.862-6.055,11.727-12.111a1.776,1.776,0,0,0,1.346-.526c2.756-2.562,5.479-5.15,8.238-7.706a15.156,15.156,0,0,1-1.975-1.62c-3.985-3.966-3.921-10.274-3.256-15.473a21.847,21.847,0,0,1,5.418-12.317c1.617-1.865,4.214-4.111,6.686-3.956a13.187,13.187,0,0,1,2.565-.339,25.087,25.087,0,0,1,11.091,2.165l.949-1.036,1.826-1.6c3.876-3.4,7.725-6.825,11.646-10.168,1.394-1.187-.384-3.24-1.885-2.443a91.933,91.933,0,0,0-11.665,7.477l.587-.51c1.623-1.4,3.25-2.8,4.856-4.221a23.118,23.118,0,0,0,4.556-4.734c.268-.426-.184-1.091-.691-.9a19.322,19.322,0,0,0-4.763,2.972c-.574.439-1.146.887-1.713,1.336.936-1.275-.787-2.9-2.2-2.139a11.642,11.642,0,0,0,.865-.958.7.7,0,0,0-.849-1.1,24.975,24.975,0,0,0-4.13,2.7c-1.339.965-2.672,1.943-4,2.917-2.6,1.9-5.2,3.837-7.754,5.808l-.416.319q1.288-1.225,2.578-2.452c4.04-3.843,8.4-7.373,12.311-11.339.442-.449-.132-1.246-.687-.891a73.784,73.784,0,0,0-8.813,6.847q4.008-4.109,7.99-8.245c1.178-1.233-.429-3.588-1.907-2.472q-9.782,7.4-19.339,15.083,7.415-7.561,14.815-15.131a1.447,1.447,0,0,0-2.046-2.046q-6.965,6.941-13.9,13.9c1.2-1.349,2.4-2.7,3.575-4.072,1.3-1.5,2.575-3.024,3.85-4.547a26.685,26.685,0,0,0,3.533-4.66,1.288,1.288,0,0,0-.194-1.507.666.666,0,0,0-.187-.152c-.023-.013-.045-.029-.068-.042a1.21,1.21,0,0,0-1.255,0,12.87,12.87,0,0,0-1.136.962c.716-1.207-.913-2.549-2.13-1.588-.558.442-1.117.881-1.675,1.323a1.079,1.079,0,0,0-.461.9q-3.146,3.253-6.228,6.567c-2.63,2.2-5.221,4.456-7.8,6.718a.686.686,0,0,0-.065-.468c.729-.813,1.468-1.617,2.181-2.443,3.959-4.569,7.777-9.29,11.3-14.2.926-1.288-1.162-2.9-2.2-1.7-1.4,1.61-2.811,3.214-4.214,4.824q-3.533,2.938-7,5.954,3.388-4.279,6.783-8.558c1.188-1.494-.7-3.533-2.146-2.146q-5.736,5.5-11.449,11.052a1.47,1.47,0,0,0-2.094-.035q-3.408,3.078-6.744,6.244c1.262-1.352,2.52-2.711,3.795-4.05,4.376-4.6,8.722-9.222,13.15-13.772a1.3,1.3,0,0,0-1.833-1.833A414.181,414.181,0,0,0,95.221,76.76a15.337,15.337,0,0,1,6.531-.987,16.316,16.316,0,0,1,3.656.7q5.644-5.925,11.449-11.649Q114.427,67.9,112,70.962q-2.251,2.241-4.46,4.534c-.413.432-.816.871-1.229,1.3a15.571,15.571,0,0,1,6.554,4.863c2.02-1.772,3.988-3.621,5.989-5.4-.442.523-.891,1.036-1.333,1.559a1.478,1.478,0,0,0-.365.252q-2.023,1.951-4.008,3.94c3.908,5.14,5.17,12.585,3.675,19.094q4.908-5.184,9.987-10.187c1.555-1.539,3.127-3.062,4.7-4.589a1.673,1.673,0,0,0,1.546-.287c.862-.668,1.717-1.349,2.575-2.02C129.2,89.913,122.82,95.883,116.605,102a20.958,20.958,0,0,1-1.591,4.121,17.249,17.249,0,0,1-8.658,7.887q-3.979,4.351-7.951,8.7,3.112-4.163,6.444-8.161a15.852,15.852,0,0,1-5.8.681c-.319-.023-.655-.058-1-.1a1.5,1.5,0,0,0,1.875.587q-2.754,3.374-5.366,6.877a142.042,142.042,0,0,0-9.623,14.841c-.839,1.488,1.22,3.214,2.43,1.875q.954-1.055,1.9-2.107a12.5,12.5,0,0,0-1.239,5.318c0,1.184,1.675,2.068,2.517,1.042q6.142-7.469,12.407-14.857c-1.636,2.275-3.256,4.563-4.837,6.877a1.461,1.461,0,0,0-.278,1.084q-1.912,2.725-3.714,5.534a1.551,1.551,0,0,0,2.427,1.872c1.7-1.7,3.427-3.385,5.137-5.082-2.552,3.2-5.05,6.441-7.435,9.765-.762,1.062.5,2.546,1.675,2.178a17.284,17.284,0,0,0,5.515-3.027,1.6,1.6,0,0,0,2.31,1.555,38.167,38.167,0,0,0,4.986-3.1c-1.1,1.4-2.194,2.794-3.256,4.221a1.591,1.591,0,0,0,.248,1.952c-.265.42-.532.836-.787,1.262a1.585,1.585,0,0,0,2.152,2.152c2.511-1.465,5-2.966,7.49-4.46a13.632,13.632,0,0,0,1.4-.452,30.808,30.808,0,0,0-3.546,5.263,1.628,1.628,0,0,0,1.817,2.362,72.605,72.605,0,0,0,11.662-3.827c.265-.113.52-.239.781-.355-.313.429-.632.855-.939,1.288-1.158,1.636,1.278,3.214,2.633,2.03q5-4.366,9.984-8.732a1.753,1.753,0,0,0,.723.871q-1.108,1.355-2.165,2.746a6.839,6.839,0,0,0-1.63,2.959,1.135,1.135,0,0,0,1.642,1.262,7.034,7.034,0,0,0,2.4-2.143q1.075-1.244,2.149-2.491c.39-.452.8-.884,1.191-1.333a1.929,1.929,0,0,0,.842.3,9.2,9.2,0,0,0-1.326,2.21.773.773,0,0,0,.945.945,15.308,15.308,0,0,0,4.4-3.224c.165-.152.323-.307.484-.458a1.42,1.42,0,0,0,.31,0,15.967,15.967,0,0,0,1.807-.287,22.421,22.421,0,0,1-1.9,1.752c-1.02.813.423,2.24,1.433,1.433,1.307-1.046,2.9-1.878,4.3-2.794,1.365-.894,2.607-1.962,3.882-2.978q3.79-3.02,7.577-6.044,2.715-2.164,5.431-4.331,5.024-3.867,9.913-7.906c1.642-1.359-.7-3.63-2.327-2.327l-7.651,6.128q-3.684,2.866-7.441,5.624c-2.43,1.781-4.856,3.588-7.386,5.228-.52.336-1.052.665-1.591.978a233.938,233.938,0,0,1,21.452-19.145,1.684,1.684,0,0,0,0-2.365,1.519,1.519,0,0,0-1.365-.449q5.344-5.044,10.655-10.116c1.371-1.313-.652-3.262-2.062-2.062ZM130.342,67.68q-3.945,4.3-7.964,8.535c-.052.055-.106.11-.158.168,2.188-2.569,4.392-5.128,6.638-7.648q3.824-4.284,7.764-8.461c.771-.713,1.542-1.423,2.31-2.143-.261.29-.52.581-.781.871C135.554,61.9,132.972,64.808,130.342,67.68Zm-12.559,73.6a.8.8,0,0,0,.039-.887q5.073-5.818,10.5-11.323a1.659,1.659,0,0,0,.445,1.049c-2,2.081-3.982,4.192-5.905,6.344q-2.817,2.759-5.631,5.518C117.412,141.747,117.6,141.515,117.783,141.279Zm-18.106-13.1q-1.108,1.317-2.217,2.63,3.606-4.366,7.215-8.732,7.866-9.521,15.734-19.042,6.718-6.467,13.656-12.7c-.3.332-.591.668-.884,1a54.284,54.284,0,0,0-7.99,7.929,1.128,1.128,0,0,0-.184.361C116.212,108.813,107.857,118.439,99.677,128.175Zm12.391,5.2c-2.378,2.452-4.756,4.908-7.154,7.338-1.12,1.136-2.249,2.323-3.446,3.427,7.319-9.368,15.179-18.268,23.218-27.022.055-.039.11-.068.165-.113q5.228-4.366,10.452-8.735-1.336,1.491-2.649,3a292.017,292.017,0,0,0-20.584,22.1Zm5.092,21.175a34.842,34.842,0,0,1,2.875-3.692c-.061.077-.123.152-.184.226a1.717,1.717,0,0,0,.313,2.533q-1.5.494-3,.929Zm13.234-4.973c-.081.039-.161.081-.242.116-.3.139-.61.268-.913.4.642-.471,1.275-.962,1.888-1.468C130.878,148.943,130.639,149.262,130.394,149.579Zm.939-5.479a49.659,49.659,0,0,1-4.531,3.7q2.74-3.233,5.592-6.36a1.8,1.8,0,0,0,.891.91c-.652.584-1.3,1.168-1.952,1.749Zm8.674-.884c.8-.907,1.613-1.8,2.427-2.7a1.542,1.542,0,0,0,.51.129q-1.471,1.283-2.936,2.569Zm4.982-11.362a274.581,274.581,0,0,1,23.447-21.565q-1.907,1.97-3.8,3.947c-.413.374-.829.742-1.242,1.117q-9.2,8.258-18.4,16.506Z" transform="translate(-68.722 -43.82)" fill="#eac485"/>
      <path id="Path_18249" data-name="Path 18249" d="M69.048,276.217q5.136-8.863,10.82-17.393a17.682,17.682,0,0,1-7.286-2.724q-7.154,10.7-13.692,21.8a1.363,1.363,0,0,0,2.352,1.375c1.046-1.678,2.123-3.337,3.188-5a1.526,1.526,0,0,0,1.91.762c0,.013-.01.026-.013.039a1.5,1.5,0,0,0,2.724,1.149Z" transform="translate(-51.075 -187.599)" fill="#eac485"/>
      <path id="Path_18250" data-name="Path 18250" d="M40.852,97.726q1.559-1.631,3.156-3.2c-.855,1.491-1.684,2.995-2.462,4.527a1.787,1.787,0,0,0,1.236,2.478c-1,1.359-1.975,2.727-2.907,4.124-1.113,1.672,1.213,3.075,2.546,1.959l.032.032c.084-.11.168-.219.252-.326l.006-.006c.055-.074.113-.148.171-.223,2.8-3.624,5.573-7.261,8.387-10.862,1.078-6.031,5.867-11.762,11.746-14.276q6.365-7.343,12.959-14.486c.155-.1.307-.21.458-.313a1.411,1.411,0,0,0,.613-.855c.352-.381.7-.765,1.052-1.146q5.315-5.76,10.642-11.51a1.548,1.548,0,0,0-2.188-2.188A253.875,253.875,0,0,0,68.126,69.445q-2.144,1.544-4.247,3.143,2.89-3.466,5.87-6.864C72.5,62.591,75.29,59.5,78.078,56.4a1.422,1.422,0,0,0-2.01-2.01c-6.2,5.715-12.491,11.339-18.79,16.951q3.867-4.923,7.674-9.894c.836-1.1-1.023-2.536-1.92-1.481C56.486,67.68,50.091,75.518,43.753,83.4a1.543,1.543,0,0,0,2.181,2.181q6.23-5.663,12.43-11.362-3.258,3.964-6.3,8.093a166.586,166.586,0,0,0-13.321,13.3c-1.268,1.423.771,3.508,2.11,2.11Z" transform="translate(-37.294 -48.706)" fill="#eac485"/>
    </g>
  </g>
  <g id="Group_17229" data-name="Group 17229">
    <path id="Path_18251" data-name="Path 18251" d="M84.631,200.451c5.4-.687,10.823-1.239,16.2-2.1a38.4,38.4,0,0,0,15.444-6.554,30.717,30.717,0,0,1,3.663-2.343c.51-.248,1.726-.1,1.907.245a3.15,3.15,0,0,1,.21,2.42,4.4,4.4,0,0,1-1.9,1.868c-4.285,2.356-8.39,5.379-12.982,6.773-12.882,3.911-26.038,4.924-39.262,1.336A48.931,48.931,0,0,1,44.34,188.025c-10.813-11.643-17.167-25.231-17.18-41.275-.013-13.737,5.079-25.886,12.785-37.051.207-.3.384-.729.671-.839.929-.345,1.9-.568,2.862-.839.139.962.626,2.049.332,2.853a21.482,21.482,0,0,1-2.262,3.708,71.924,71.924,0,0,0-8.029,17.245,48.943,48.943,0,0,0,1.068,33.166c9.316,23.4,26.764,35.441,50.046,35.457Z" transform="translate(-18.395 -73.163)" fill="#262c54"/>
    <path id="Path_18252" data-name="Path 18252" d="M90.681,137.62a20.315,20.315,0,0,1,19.42,26.415,19.3,19.3,0,0,0-.907,4.718c-.119,2.885-1.62,4.631-3.976,6.034a81.6,81.6,0,0,0-7.164,4.831A9.05,9.05,0,0,1,90.4,181.5q-4.521-.939-9.093-1.613c-3.23-.478-5.647-2.13-6.047-5.35-.355-2.84-1.639-5.111-2.84-7.544A20.28,20.28,0,0,1,90.685,137.62ZM106.9,158.469a16.284,16.284,0,0,0-27.919-11.946A16.534,16.534,0,0,0,75.6,164.245c1.288,3.02,2.223,3.472,4.782,1.691,4.159-2.895,9.016-3.846,14.011-3.814a69.8,69.8,0,0,1,9.21.7c1.846.258,2.785-.232,3.024-2.046.119-.9.216-1.8.274-2.307Zm-10.771,7.648c-2.546.181-4.363.207-6.15.458a16.534,16.534,0,0,0-9.248,4.169,4.3,4.3,0,0,0-1.162,3.237c.1.729,1.413,1.655,2.323,1.855a75.472,75.472,0,0,0,9.59,1.533A7.265,7.265,0,0,0,95.5,176.3a83.1,83.1,0,0,0,7.57-5.128c.755-.565,1.707-1.739,1.562-2.417a3.336,3.336,0,0,0-2.239-1.985,55.209,55.209,0,0,0-6.263-.655Z" transform="translate(-47.589 -93.211)" fill="#262c54"/>
    <path id="Path_18253" data-name="Path 18253" d="M248.957,137.5c5.947.248,10.032,1,13.669,3.317a7.1,7.1,0,0,1,2.41,2.146c.452.787.29,1.933.4,2.917-.965-.026-2.259.345-2.843-.139a19.07,19.07,0,0,0-9.426-3.947c-6.473-1.068-11.43,1.1-14.841,6.647a18.01,18.01,0,0,0-2.73,12.5c.236,1.507,1,2.227,2.662,1.539,8.041-3.333,15.644-1.652,23.066,2.078,3.333,1.678,3.821,1.588,4.75-2.072a45.884,45.884,0,0,0,.891-8.038c.074-1.065-.29-2.156-.261-3.227a1.562,1.562,0,0,1,.849-1.21c.632-.119,1.759-.055,1.946.31a13.972,13.972,0,0,1,1.649,4.489c.523,4.266-.71,8.254-2.346,12.159a19.519,19.519,0,0,0-1.578,5.1c-.358,3.014-2.12,4.379-4.786,5.192-2.924.894-5.818,1.907-8.671,3.011a9.358,9.358,0,0,1-8.361-.581c-3-1.642-6.138-3.049-9.171-4.637a24.414,24.414,0,0,1-3.643-2.346c-1.41-1.1-1.72-2.465-1.3-4.337a19.986,19.986,0,0,0,.329-6.354c-.623-6.205.4-11.936,4.124-17.057,3.688-5.069,8.6-7.677,13.214-7.464Zm14.173,34.1a14.943,14.943,0,0,0-2.362-2.549c-5.541-3.575-11.591-5.069-18.116-3.74a14.975,14.975,0,0,0-4.886,2.233c-2.13,1.368-1.878,2.814.439,3.953,3.062,1.507,6.054,3.166,9.174,4.54a6.708,6.708,0,0,0,4.076.629c3.45-.952,6.8-2.288,10.152-3.566.552-.21.923-.891,1.523-1.5Z" transform="translate(-156.538 -93.125)" fill="#262c54"/>
    <path id="Path_18254" data-name="Path 18254" d="M67.838,0c15.554.326,28.778,2.956,40.517,10.865a26.953,26.953,0,0,1,4.234,3.4,2.393,2.393,0,0,1,.2,2.336,2.611,2.611,0,0,1-2.336.461,10.5,10.5,0,0,1-2.746-1.733C98.775,8.826,88.616,5.776,77.78,4.553,61.394,2.7,46.386,6.709,32.449,15.189,18.441,23.721,9.731,36.354,4.526,51.647a30.582,30.582,0,0,1-1.478,4.072,2.039,2.039,0,0,1-1.765.81A1.986,1.986,0,0,1,0,55.1,18.074,18.074,0,0,1,.78,50.32c5.157-15.467,13.811-28.426,27.7-37.368C40.942,4.931,54.476.026,67.838,0Z" transform="translate(0.001)" fill="#262c54"/>
    <path id="Path_18255" data-name="Path 18255" d="M347.364,127.335c-.055-10.994-1.646-19.31-5.434-27.132-2.74-5.66-6.451-10.507-11.93-13.818a6.729,6.729,0,0,1-2.172-1.575,3.023,3.023,0,0,1-.3-2.352c.132-.4,1.291-.826,1.83-.674a13.947,13.947,0,0,1,3.427,1.591,33.276,33.276,0,0,1,11.333,12.272,56.346,56.346,0,0,1,7.1,24.37c.984,13.556-1.468,26.438-8.642,38.123a59.559,59.559,0,0,1-7.257,8.758c-.481.523-1.878.207-2.849.277.065-.978.081-1.962.226-2.927.045-.3.436-.561.687-.823,10.284-10.768,13.64-24.047,13.989-36.09Z" transform="translate(-221.76 -55.372)" fill="#262c54"/>
    <path id="Path_18256" data-name="Path 18256" d="M206.427,380.538c-2.239-.216-4.234-.374-6.218-.613-1.455-.174-3.217-.419-3.075-2.307.148-1.978,1.914-1.878,3.382-1.639a43.459,43.459,0,0,0,14.65-.423c12.6-2.217,24.066-7.093,33.876-15.341,3.291-2.765,5.873-6.38,8.742-9.639.594-.674.878-1.691,1.562-2.194a3.13,3.13,0,0,1,2.346-.445c.387.1.82,1.252.71,1.83a7.731,7.731,0,0,1-1.236,2.975,46.287,46.287,0,0,1-5,6.444c-13.869,13.595-30.736,20.252-49.743,21.349Z" transform="translate(-133.514 -235.614)" fill="#262c54"/>
    <path id="Path_18257" data-name="Path 18257" d="M129.915,33.24c3.582.155,5.24.874,4.834,2.291-.674,2.369-2.788,1.759-4.524,1.914A62.384,62.384,0,0,0,99.437,49a31.406,31.406,0,0,1-3.588,2.443,2.039,2.039,0,0,1-1.868-.474,2.318,2.318,0,0,1-.281-1.93,3.941,3.941,0,0,1,1.317-1.684c10.2-8.271,22.091-12.343,34.9-14.114Z" transform="translate(-63.402 -22.514)" fill="#262c54"/>
    <path id="Path_18258" data-name="Path 18258" d="M397.074,104.5c-.429.449-.826,1.207-1.384,1.352a2.173,2.173,0,0,1-1.881-.558,9.6,9.6,0,0,1-1.4-2.907A46.1,46.1,0,0,0,380.92,83.452c-.129-.129-.261-.252-.384-.387-1.007-1.081-2.275-2.275-.726-3.669,1.517-1.365,2.733.055,3.711,1.026a61.465,61.465,0,0,1,4.727,5.27,49.612,49.612,0,0,1,8.019,15.4c.342,1.026.507,2.11.807,3.411Z" transform="translate(-256.758 -53.394)" fill="#262c54"/>
    <path id="Path_18259" data-name="Path 18259" d="M269.2,95.877c-5.97-.639-11.562-2.11-16.415-5.6a11.293,11.293,0,0,1-3.146-3.666,3.194,3.194,0,0,1,.313-2.888c.842-1.029,2.056-.465,2.73.526,3.288,4.824,8.49,6.005,13.663,7.077,1.91.4,3.992-.1,5.96.11.878.094,1.675.936,2.507,1.439-.645.774-1.149,1.849-1.975,2.249a14.266,14.266,0,0,1-3.637.749Z" transform="translate(-168.935 -56.335)" fill="#262c54"/>
    <path id="Path_18260" data-name="Path 18260" d="M15.906,319.7c-.9.455-1.723,1.236-2.281,1.078a5.622,5.622,0,0,1-2.575-1.768,51.4,51.4,0,0,1-9.971-18.542,10.12,10.12,0,0,1-.3-1.045C.526,298.076.6,296.7,2.1,296.266c1.61-.468,2.2.836,2.562,2.107A52.518,52.518,0,0,0,14.489,317a17.406,17.406,0,0,1,1.417,2.7Z" transform="translate(-0.452 -200.598)" fill="#262c54"/>
    <path id="Path_18261" data-name="Path 18261" d="M104.062,92.968c5.75-.087,11.7-2.036,15.973-7.838.423-.574,1.488-.678,2.256-1,.374.91,1.181,1.9,1.023,2.707a6.077,6.077,0,0,1-1.83,3.224c-6.076,5.234-12.995,7.912-21.143,6.46-.355-.065-.833-.058-1.033-.281-.555-.62-1.417-1.384-1.355-2.01a2.547,2.547,0,0,1,1.749-1.6c1.023-.207,2.152.129,4.363.339Z" transform="translate(-66.342 -56.982)" fill="#262c54"/>
    <path id="Path_18262" data-name="Path 18262" d="M187.665,312.052c-4.392.055-8.019-.92-10.788-3.84-.7-.736-1.217-2.472-.823-3.233.739-1.423,2.127-.755,3.188.094,5.47,4.376,10.988,3.65,16.528.148,1.207-.762,2.62-2.03,3.769-.465,1.326,1.807-.413,2.962-1.675,3.911a16.455,16.455,0,0,1-10.2,3.382Z" transform="translate(-119.151 -205.909)" fill="#262c54"/>
    <path id="Path_18263" data-name="Path 18263" d="M266.017,47.112a2.174,2.174,0,0,1-3.124,1.6c-3.266-1.065-6.5-2.23-9.742-3.372-.332-.116-.774-.3-.894-.571a4.929,4.929,0,0,1-.665-2.34,1.946,1.946,0,0,1,1.63-.994q5.9,1.917,11.691,4.156c.532.2.8,1.087,1.1,1.523Z" transform="translate(-170.397 -28.051)" fill="#262c54"/>
    <path id="Path_18264" data-name="Path 18264" d="M425.547,207.711c.487-2.888.874-5.947,1.594-8.929.181-.745,1.423-1.236,2.178-1.843.545.849,1.636,1.765,1.542,2.536a91.234,91.234,0,0,1-1.878,10.1,2.361,2.361,0,0,1-1.975,1.252c-.581-.1-1.033-1.181-1.439-1.894-.155-.271-.026-.71-.026-1.223Z" transform="translate(-288.19 -133.389)" fill="#262c54"/>
    <path id="Path_18265" data-name="Path 18265" d="M128.486,415.2c3.175,1.284,6.331,2.5,9.413,3.882.374.168.62,1.346.419,1.859s-1.165,1.2-1.562,1.078q-4.836-1.525-9.545-3.411c-.365-.145-.623-1.307-.449-1.843s.945-.9,1.726-1.565Z" transform="translate(-85.82 -281.219)" fill="#262c54"/>
  </g>
</svg>
