<svg id="_39" data-name="39" xmlns="http://www.w3.org/2000/svg" width="124.049" height="136.295" viewBox="0 0 124.049 136.295">
  <g id="Group_17231" data-name="Group 17231" transform="translate(10.571 1.768)">
    <path id="Path_18266" data-name="Path 18266" d="M244.913,251.468c-1.394-6.292-9.545,1.068-2.749,2.7-.152-.019-.3-.042-.455-.061a2.6,2.6,0,0,0,3.069-1.93l-.023.055a1.845,1.845,0,0,0,.158-.771Z" transform="translate(-172.782 -170.395)" fill="#75757c"/>
    <path id="Path_18267" data-name="Path 18267" d="M131.654,250.695c-.265-3.395-6.057-2.972-5.305.542v-.019c.545,4.227,5.6,3.54,5.308-.523Z" transform="translate(-96.103 -169.987)" fill="#75757c"/>
    <g id="Group_17230" data-name="Group 17230">
      <path id="Path_18268" data-name="Path 18268" d="M237.97,147.008c-3.059,3.32-5.382,7.493-7.667,11.365-1.133,1.92-2.23,3.879-3.224,5.876-.52,1.046-1.046,2.094-1.494,3.172a4.55,4.55,0,0,0-.591,3,.747.747,0,0,0,.907.516c1.765-.674,2.665-3.285,3.537-4.824.349-.616.694-1.236,1.039-1.852a.6.6,0,0,0,1.036-.01c1.368-2.275,2.772-4.531,4.085-6.841.632-1.113,1.262-2.236,1.823-3.388a14.262,14.262,0,0,0,1.526-3.734.677.677,0,0,0-.036-.336c.294-.516.578-1.039.839-1.571.539-1.094-.858-2.372-1.778-1.371Z" transform="translate(-162.896 -101.096)" fill="#eb8486"/>
      <path id="Path_18269" data-name="Path 18269" d="M222.492,136.565c-1.907.555-3.053,2.8-4.156,4.324-1.362,1.872-2.727,3.74-4.069,5.624a85.007,85.007,0,0,0-7.312,11.494c-.326.658.494,1.381,1.055.813a83.959,83.959,0,0,0,8.387-10.578c1.3-1.83,2.575-3.669,3.853-5.508,1.117-1.6,3.046-3.569,2.943-5.637a.559.559,0,0,0-.7-.532Z" transform="translate(-150.693 -94.251)" fill="#eb8486"/>
      <path id="Path_18270" data-name="Path 18270" d="M234.809,138.51a1.439,1.439,0,0,0-1.552.084.545.545,0,0,0,0,.9,55.039,55.039,0,0,0-3.007,5.179c-1.21,2.2-2.391,4.424-3.6,6.628-2.31,4.214-5.15,8.364-6.886,12.859-.229.594.616.994,1.023.594,3.424-3.359,5.9-7.925,8.251-12.059,1.21-2.12,2.369-4.276,3.424-6.476a30.2,30.2,0,0,0,2.707-6.851.783.783,0,0,0-.352-.865Z" transform="translate(-159.39 -95.457)" fill="#eb8486"/>
      <path id="Path_18271" data-name="Path 18271" d="M263.261,182.455a.6.6,0,0,0-.887-.51,2.071,2.071,0,0,0-.587.355,3.835,3.835,0,0,0-.5.594c-.242.339-.458.707-.678,1.058-.474.758-.891,1.562-1.326,2.343a19.379,19.379,0,0,0-2.13,4.986.669.669,0,0,0,1.11.645,19.215,19.215,0,0,0,3.011-4.466c.416-.794.871-1.578,1.242-2.394.174-.384.352-.765.52-1.152a3.38,3.38,0,0,0,.242-.749,2.183,2.183,0,0,0-.013-.71Z" transform="translate(-184.731 -124.952)" fill="#eb8486"/>
      <path id="Path_18272" data-name="Path 18272" d="M253.106,157.511a7.455,7.455,0,0,0-.971.555c-.274.226-.532.474-.784.723a18.278,18.278,0,0,0-1.542,1.836,45.985,45.985,0,0,0-2.73,3.892q-1.215,1.931-2.259,3.959c-.71,1.388-1.749,3.027-1.82,4.614a1.193,1.193,0,0,0,.529,1.01,12.3,12.3,0,0,0-.745,2.875.646.646,0,0,0,1.094.452,19.6,19.6,0,0,0,2.391-3.55c.707-1.233,1.359-2.491,2.036-3.74s1.375-2.488,2.062-3.73a18.625,18.625,0,0,0,1.93-3.9.757.757,0,0,0-.187-.82c.316-.468.642-.933.929-1.42.2-.339.41-.691.581-1.046s.2-.7.329-1.052c.177-.478-.439-.894-.842-.649Z" transform="translate(-175.008 -108.408)" fill="#eb8486"/>
      <path id="Path_18273" data-name="Path 18273" d="M239.122,132.861l.023-.042a.916.916,0,0,0-1.584-.916c0-.006-.01-.013-.013-.019-.423.587-.826,1.187-1.233,1.784-.607.62-1.3,1.191-1.833,1.73a.545.545,0,0,0,.129.868c-1.281,2.023-2.517,4.076-3.772,6.115q-1.6,2.6-3.2,5.205a39.44,39.44,0,0,0-3.066,5.363c-.336.807.378,1.423,1.11,1.468a10.989,10.989,0,0,0-1.468,4.327.957.957,0,0,0,1.617.668c1.633-1.559,2.427-4.095,3.443-6.083,1.1-2.143,2.246-4.26,3.4-6.37,2.317-4.224,4.75-8.383,7.044-12.62a.993.993,0,0,0-.6-1.481Z" transform="translate(-162.434 -90.815)" fill="#eb8486"/>
      <path id="Path_18274" data-name="Path 18274" d="M152.821,118.211c-.507.639-1,1.281-1.5,1.926q1.186-1.631,2.4-3.23l-.023-.013c.436-.926-.749-2.036-1.475-1.142-2.817,3.462-5.605,7.015-8.248,10.671,1.875-3.546,3.7-7.112,5.405-10.726a1.066,1.066,0,0,0-.59-1.494c.152-.268.313-.529.461-.8.42-.742-.668-1.675-1.229-.949-.2.261-.4.529-.6.791a.8.8,0,0,0-1.213-.529c-.058.042-.11.087-.168.132h0a.046.046,0,0,0-.01.006,100.089,100.089,0,0,0-12.288,11.178c.839-1.123,1.681-2.246,2.491-3.388,1.055-1.488,2.11-2.975,3.133-4.482.513-.752,1.016-1.51,1.5-2.278.439-.694.984-1.371.72-2.22a.815.815,0,0,0-.778-.591c-.891.074-1.271.665-1.768,1.349-.536.739-1.058,1.484-1.568,2.243-1.049,1.555-2.068,3.13-3.088,4.708-.436.674-.845,1.362-1.268,2.043q-5.082,6.254-10.526,12.178c4.634-6.9,9.526-13.608,14.482-20.307.642-.868-.82-2.007-1.507-1.162-3.1,3.808-6.412,7.461-9.665,11.146q1.96-2.909,3.914-5.821a.942.942,0,0,0-.352-1.436c.077-.09.155-.184.232-.278a1.137,1.137,0,0,0-1.607-1.607c-2.917,2.791-5.737,5.676-8.493,8.619,1.507-1.946,3.082-3.837,4.744-5.66,1.055-1.158-.632-2.872-1.73-1.73-.21.216-.416.439-.626.655.419-.471.82-.958,1.249-1.423,1-1.094-.574-2.691-1.633-1.633-.51.51-1.029,1.007-1.546,1.507-.09-1.007-1.333-1.83-2.117-.858q-4.114,5.107-8.229,10.21a1.2,1.2,0,0,0,1.7,1.7l.023-.023c-1.388,1.926-2.746,3.879-4.034,5.876a1.167,1.167,0,0,0,1.826,1.407c.733-.765,1.468-1.523,2.2-2.285-.865,1.446-1.7,2.911-2.485,4.4-.587,1.113.965,2.507,1.843,1.42,1.21-1.5,2.452-2.972,3.7-4.437a95.028,95.028,0,0,0-5.6,9.055,1.134,1.134,0,0,0,1.955,1.146c.9-1.278,1.826-2.543,2.756-3.8a1.148,1.148,0,0,0,1.878.407q2.59-3,5.144-6.031-2.957,4.526-5.776,9.122a1.041,1.041,0,0,0,1.63,1.255q2.7-2.711,5.3-5.524c-1.7,2.369-3.385,4.756-4.96,7.206-.745,1.158,1.062,2.175,1.83,1.068,1.184-1.559,2.32-3.159,3.443-4.766,2.427-3.253,4.973-6.422,7.583-9.523a84.455,84.455,0,0,0-4.64,8.238c-.529,1.075.945,2.465,1.788,1.381q4-5.155,8-10.31-1.539,2.473-3.078,4.944c-.687,1.1-1.336,2.223-1.985,3.346-.106.165-.216.329-.323.49a1.218,1.218,0,0,0-.155.339c-.691,1.2-1.384,2.4-2.114,3.585-.652,1.055,1.01,2.023,1.662.971.658-1.068,1.349-2.114,2.043-3.159a1.24,1.24,0,0,0,.684-.494l6.6-9.339q-1.752,3.33-3.479,6.654a1.216,1.216,0,0,0,.739,1.814c-.152.284-.313.565-.461.852a1.257,1.257,0,0,0,2.168,1.268c1.249-1.933,2.459-3.843,3.814-5.712.636-.874,1.284-1.739,1.926-2.611q-2.406,4.322-4.543,8.78a1.171,1.171,0,0,0,1.83,1.413c.687-.681,1.194-1.52,1.814-2.262.568-.684,1.146-1.355,1.681-2.068a32.3,32.3,0,0,0,3.014-4.9c.326-.649-.61-1.21-.978-.571q-.784,1.36-1.694,2.636,4.865-8.863,10.475-17.293c.649-.981-.9-2.22-1.652-1.275Z" transform="translate(-83.201 -77)" fill="#eb8486"/>
      <path id="Path_18275" data-name="Path 18275" d="M229.669,42.142c-.323.336-.645.674-.968,1.01.394-.671.8-1.329,1.191-2,.539-.939-.791-2.056-1.542-1.191-1.178,1.355-2.375,2.7-3.575,4.034.294-.51.6-1.01.881-1.526a.923.923,0,0,0-1.081-1.339c.865-1.317,1.726-2.633,2.569-3.966.765-1.213-1.094-2.72-2.027-1.565-1.53,1.9-3.046,3.8-4.569,5.708q2.933-4.56,5.821-9.145a1.207,1.207,0,0,0-1.058-1.881,1.1,1.1,0,0,0-.174-1.213c.261-.426.549-.849.781-1.294a1.835,1.835,0,0,0,.232-1.739.863.863,0,0,0-.749-.429c-1.065-.045-1.81,1.41-2.362,2.152-.035.048-.068.1-.1.142-.023-.029-.055-.045-.081-.074.142-.236.287-.468.41-.713a1.19,1.19,0,0,0-.3-1.52,1.25,1.25,0,0,0-1.152-.171,3.43,3.43,0,0,0,.452-1.346.872.872,0,0,0-1.3-.745,3.111,3.111,0,0,0-.942.916c-.255.332-.516.665-.762,1.007-.461.645-.916,1.291-1.362,1.943-.884,1.3-1.684,2.646-2.565,3.947a.533.533,0,0,0-.055.126c-.336.368-.671.739-1,1.123,1.271-1.936,2.527-3.882,3.746-5.847a1.3,1.3,0,0,0-2.033-1.568q-2.725,2.861-5.266,5.883c.526-.887,1.055-1.772,1.575-2.659a1.289,1.289,0,0,0-.81-1.8q1.215-1.641,2.423-3.288c.768-1.049-.9-2.272-1.778-1.371-.242.245-.487.487-.729.733a1.22,1.22,0,0,0-1.339-.452l.058-.136a5.375,5.375,0,0,0,.684-2.949.8.8,0,0,0-1.158-.471,6.1,6.1,0,0,0-1.668,2.517c-.429.842-.858,1.681-1.281,2.527-.794,1.578-1.42,3.22-2.159,4.821-1.146,1.4-2.281,2.8-3.424,4.2,1.949-3.1,3.892-6.192,5.67-9.4a1.115,1.115,0,0,0-.278-1.488q.484-.818.942-1.649a12.375,12.375,0,0,0,1.349-3.162.938.938,0,0,0-1.555-.907,15.511,15.511,0,0,0-1.943,2.811c-.084.142-.171.281-.255.423-.119.158-.232.319-.349.478a.714.714,0,0,0-.336.226c-7.254,9.051-13.495,18.919-20.02,28.5-.884,1.3,1.155,2.4,2.065,1.207q2.556-3.359,5.118-6.715c-1.081,1.965-2.1,3.959-2.982,6-.645,1.488,1.407,2.807,2.239,1.31.2-.368.429-.723.639-1.087a1.122,1.122,0,0,0,.787-.413c.032-.039.061-.077.094-.113-.052.087-.11.174-.161.261-.858,1.42,1.236,2.546,2.175,1.271,1.439-1.949,2.759-4.014,4.3-5.886.926-1.129,1.881-2.233,2.84-3.337q-2.159,3.863-4.111,7.8c-.642,1.294,1.226,2.42,1.952,1.142q1.936-3.214,3.892-6.422a48.738,48.738,0,0,1,2.975-4.04L203.6,43.245c-1.368,2.094-2.9,4.153-4.085,6.354a1.175,1.175,0,0,0,1.843,1.417l.023.023c.452-.549.881-1.12,1.3-1.7q1.336-1.752,2.672-3.5a.434.434,0,0,0,.055-.481c.084-.123.165-.245.248-.365q2.086-3.016,4.176-6.028c.92-1.329,1.82-2.678,2.724-4.024a.6.6,0,0,0,.971.245c.116-.129.242-.248.361-.378-3.427,4.715-6.731,9.526-10.042,14.311-.839,1.21,1.142,2.772,2.062,1.591.087-.11.171-.219.255-.329a1.135,1.135,0,0,0,1.291,1.336c-.21.316-.423.629-.629.945-.8,1.229.923,2.33,1.891,1.475-.849,1.333-1.7,2.662-2.54,4-.791,1.262,1.133,2.827,2.107,1.626,1.013-1.246,1.994-2.514,2.972-3.785-.61,1.194,1.191,2.569,2.11,1.459.071-.087.132-.177.2-.265h0l.026-.036c.513-.655.978-1.342,1.446-2.03a1.159,1.159,0,0,0,1.943.784l.016.016c.426-.516.833-1.046,1.223-1.581.71-.887,1.452-1.759,2.217-2.607-.052.084-.106.161-.158.245a1.273,1.273,0,0,0,1.991,1.536q1.573-1.631,3.149-3.266l-.029.058a1.391,1.391,0,0,0,1.368,2,1.057,1.057,0,0,0,.813-.365q1.075-1.142,2.149-2.281a1.189,1.189,0,0,0-.1-1.788c.687-1.391,1.362-2.785,2.062-4.166.639-1.258-.965-2.662-2.023-1.562Z" transform="translate(-135.282 -12.358)" fill="#d9dbeb"/>
      <path id="Path_18276" data-name="Path 18276" d="M97.779,12.184c-.1.1-.194.207-.294.307a1.133,1.133,0,0,0-1.439-.074c-.6.5-1.171,1.026-1.759,1.539A7,7,0,0,0,95.5,11.177a.711.711,0,0,0-1.029-.791c-1.626.794-2.8,2.782-3.85,4.195-1.194,1.6-2.365,3.22-3.5,4.866-1.184,1.713-2.352,3.459-3.485,5.228-.626.726-1.268,1.446-1.875,2.188.068-.113.129-.226.2-.339,1.365-2.256,2.84-4.443,4.159-6.722,1.355-2.346,2.736-4.666,4.23-6.928.7-1.062-.862-2.217-1.736-1.339-1.055,1.055-2.065,2.152-3.049,3.266.858-1.5,1.736-2.995,2.678-4.453A.979.979,0,0,0,86.71,9.166c-1.271,1.413-2.511,2.849-3.734,4.3.168-.3.332-.6.507-.891a1.169,1.169,0,0,0-.51-1.591c.332-.452.671-.894.994-1.352A8.576,8.576,0,0,0,85.2,7.553a1.269,1.269,0,0,0,.145-.6c.006-.048.026-.09.032-.139l-.045.026a1.342,1.342,0,0,0-1.981-1.188,6.405,6.405,0,0,0-1.978,2.114c-.6.781-1.21,1.552-1.807,2.336-.187.245-.381.487-.568.733a1.08,1.08,0,0,0-.142-.094c.458-.6.923-1.2,1.355-1.82.526-.755,1.907-2.623.384-3.149-1.142-.394-2.1,1.317-2.659,2.052-.665.874-1.3,1.765-1.9,2.691-.571.894-1.075,1.83-1.63,2.733-.591.958-1.21,1.9-1.759,2.888a.66.66,0,0,0,.552.958c-.862,1.371-1.72,2.743-2.552,4.13-.023.026-.042.052-.065.081.152-.365.3-.729.455-1.091,1.142-2.72,2.094-5.518,3.249-8.235.532-1.255-1.22-2.381-1.885-1.1-.336.642-.668,1.284-1,1.923a1.128,1.128,0,0,0-1.875.1q-2.551,4.172-4.8,8.5-3.364,6.128-6.457,12.385c1.772-5.06,3.882-10.01,6.018-14.928a1.3,1.3,0,0,0-2.043-1.546Q63.375,14.8,64.532,12.3a1.328,1.328,0,0,0-2.291-1.339c-.858,1.413-1.694,2.836-2.52,4.269.116-.326.242-.652.358-.978a1,1,0,0,0,.032-.578c.329-.8.649-1.6.929-2.41.371-1.065-1.1-1.465-1.675-.707A45.763,45.763,0,0,0,55,17.815a2.94,2.94,0,0,0,0-.891.685.685,0,0,0-.842-.478c-1.852.768-2.885,3.391-3.779,5.06-1.123,2.1-2.21,4.214-3.217,6.37-.01.023-.023.045-.032.071.2-.668.374-1.342.549-2.02.913-1.891,1.814-3.788,2.623-5.731.013-.026.019-.055.032-.081.5-1.049,1-2.094,1.488-3.146.326-.7,1.8-3.269.755-3.943-.129-.529-.942-.845-1.313-.368a10.691,10.691,0,0,0-1.326,2.456c-.261.532-.526,1.065-.787,1.6-.855,1.749-1.681,3.508-2.5,5.273q-1,2.154-1.926,4.324c-.852,1.258-1.678,2.53-2.456,3.84a65.024,65.024,0,0,0,2.049-7.28.7.7,0,0,0-1.268-.529l-.026-.016c-.226.461-.429.929-.639,1.4-.61,1.2-1.336,2.372-1.952,3.556-.5.962-.994,1.93-1.488,2.895a32.028,32.028,0,0,0,.907-3.937c.11-.7-.836-1.239-1.226-.516A56.516,56.516,0,0,0,35.5,33.446,76.337,76.337,0,0,0,32.8,41.555a1.136,1.136,0,0,0,2.188.6c.006-.026.019-.052.026-.077.332-.784.636-1.584.916-2.394.378-.807.8-1.6,1.2-2.4.252-.5.507-1.007.758-1.507-.139.39-.274.784-.413,1.178a30.251,30.251,0,0,0-1.713,5.3,1.085,1.085,0,0,0,1.972.826c.006,0,.013.01.019.013A27.872,27.872,0,0,0,39.565,38.2c.126-.374.252-.752.381-1.126.671-1.5,1.42-2.959,2.2-4.4.161-.3.332-.6.5-.9-.081.242-.171.478-.248.723a.539.539,0,0,0,.384.7c-.019.048-.035.1-.055.148-1.326,3.54-2.74,7.09-3.763,10.729a1.247,1.247,0,0,0,.858,1.51,1.657,1.657,0,0,0,2.227-1.968.59.59,0,0,0-.165-.255c.242-.6.468-1.21.7-1.817a.8.8,0,0,0,1.071-.084c1.481-1.7,2.2-4.072,3.13-6.1.958-2.094,1.926-4.185,2.936-6.254l.91-1.859c-.426.965-.852,1.93-1.265,2.9Q48.671,31.766,48,33.394A17.674,17.674,0,0,0,46.69,37a1.228,1.228,0,0,0,1.217,1.41,82.767,82.767,0,0,0-3.117,7.958c-.387,1.326,1.417,1.885,2.068.868a.057.057,0,0,1,.016.013c.387-.745.733-1.517,1.065-2.3.226-.413.455-.816.684-1.223q-.958,2.686-1.878,5.386c-.561,1.659,2.049,2.362,2.614.72Q51.547,43.5,54.306,37.37a69.836,69.836,0,0,0-2.32,10.171,1.3,1.3,0,0,0,2.514.694c.342-.839.7-1.672,1.046-2.507a1.141,1.141,0,0,0,1.62-.41L61.6,36.682c-.8,2.049-1.607,4.1-2.385,6.16-.5,1.329,1.71,2.275,2.31.975.378-.813.768-1.62,1.152-2.43A.975.975,0,0,0,64.1,40.98c.413-.752.842-1.494,1.265-2.243a1.192,1.192,0,0,0,2.156.365L72.6,30.842q2.188-3.345,4.521-6.589-3.437,5.954-6.689,12.017a1.213,1.213,0,0,0,2.094,1.223c1.433-2.343,2.875-4.685,4.353-7.006a98.616,98.616,0,0,0-4.243,9.374c-.439,1.139,1.375,1.868,1.956.823a88.451,88.451,0,0,1,6.644-10.223.548.548,0,0,0,.423-.2c2.252-2.556,4.411-5.247,6.5-7.951.613-.639,1.229-1.275,1.859-1.9q-2.493,3.417-4.869,6.918c-.532.768-1.052,1.546-1.568,2.323q-1.089,1.641-2.159,3.3-1.568,2.449-3.108,4.918a.966.966,0,0,0,.145,1.268q-.963,1.544-1.92,3.095c-.745,1.213,1.162,2.323,1.9,1.113,3.188-5.186,6.638-10.229,10.194-15.17s7.348-9.707,10.875-14.657c.742-1.039-.871-2.22-1.739-1.342ZM48.991,42.7a.675.675,0,0,0-.084-.184c.384-1.013.765-2.023,1.158-3.017.106-.2.21-.4.316-.6Q49.675,40.793,48.991,42.7Z" transform="translate(-32.759 -5.482)" fill="#d9dbeb"/>
      <path id="Path_18277" data-name="Path 18277" d="M286.585,175.542a1.039,1.039,0,0,0-1.036-.913,1.713,1.713,0,0,0-.71.213c-.09.052-.177.113-.265.171a4.978,4.978,0,0,0-.671.549c-.161.155-.3.332-.455.5a3.626,3.626,0,0,0,.355-.413.762.762,0,0,0-.116-.913.781.781,0,0,0-.913-.119,5.45,5.45,0,0,0-1.033.816.917.917,0,0,0-1.01.168,8.313,8.313,0,0,1-1.723,1.226,13.64,13.64,0,0,0,1.223-1.572c.513-.813-.468-1.494-1.158-1.129l-.01-.039a6.113,6.113,0,0,0-1.475,1.081c-.4.236-.81.458-1.226.668.023-.023.042-.052.065-.074a27.544,27.544,0,0,1,2.246-2.094c.678-.574-.184-1.53-.9-1.171a14.848,14.848,0,0,0-3.182,2.2,12.371,12.371,0,0,0-1.268,1.3,2.094,2.094,0,0,0-.7,1.943,1.371,1.371,0,0,0,1.665.945,2.227,2.227,0,0,0,.6-.281,4.381,4.381,0,0,0-.252.565,1.1,1.1,0,0,0,1.146,1.355c-.348.378-.691.758-1.013,1.152a1.219,1.219,0,0,0-.039,1.555,1.126,1.126,0,0,0,1.22,1.7,8.768,8.768,0,0,0,3.988-3.024.619.619,0,0,0,.09-.642c.581-.555,1.152-1.113,1.713-1.688v.006a.9.9,0,0,0,.552.62.919.919,0,0,0,.849-.048,2.331,2.331,0,0,0,.736-.662c.11-.168.219-.339.323-.51s.219-.361.339-.536c.055-.077.107-.158.165-.236.032-.042.061-.084.094-.129,0-.006.013-.016.019-.026s.006-.006.006-.01c.032-.042.068-.084.1-.123.068-.081.136-.161.207-.242.132-.152.271-.3.413-.439s.29-.278.426-.426l.213-.232a1.822,1.822,0,0,0,.381-.623.029.029,0,0,1-.016,0,1.065,1.065,0,0,0,.035-.416Z" transform="translate(-195.18 -118.549)" fill="#ba8b54"/>
      <path id="Path_18278" data-name="Path 18278" d="M76.068,175.8c-.184.11-.368.216-.552.326a.861.861,0,0,1,.01-.09,1.048,1.048,0,0,0-.913-1.016c.581-1.084,1.155-2.165,1.668-3.285a1.009,1.009,0,0,0-1.743-1.016c-.326.455-.632.92-.936,1.388-.261.268-.523.536-.791.8q-1.031,1.021-2.114,1.981c-.287.255-.581.5-.878.736.042-.081.084-.161.129-.242.787-1.43,1.775-2.756,2.514-4.2.419-.82-.671-1.8-1.342-1.036a12.736,12.736,0,0,0-1.61,1.788c-.142.152-.294.294-.439.445.342-.529.687-1.055,1-1.6a.957.957,0,0,0-1.5-1.155c-.229.236-.468.458-.713.681a.648.648,0,0,0-1-.542,16.633,16.633,0,0,0-2.82,2.394,12.41,12.41,0,0,0-2.317,2.982c-.536,1.075.842,2.317,1.743,1.342q.745-.8,1.542-1.549a7.493,7.493,0,0,0-.662,2.13c-.11.852.82,1.175,1.478.91-.113.281-.229.558-.316.845a1.144,1.144,0,0,0,1.9,1.1c1.094-1.049,2.214-2.062,3.34-3.078a8.826,8.826,0,0,0-.471,1.188,1.073,1.073,0,0,0,1.31,1.31,8.149,8.149,0,0,0,.778-.313,1.334,1.334,0,0,0,1.329.962c-.016.155-.029.31-.042.465a.907.907,0,0,0,1.359.778,4.61,4.61,0,0,0,1.539-1.707c.4-.678.807-1.352,1.213-2.03a1.248,1.248,0,0,0-1.694-1.694Z" transform="translate(-52.299 -116.465)" fill="#ba8b54"/>
      <path id="Path_18279" data-name="Path 18279" d="M168.605,297.578c-.755.658-1.488,1.368-2.194,2.117-.119.094-.242.187-.358.281-.581.471-1.162.939-1.746,1.41.862-1.255,1.72-2.517,2.562-3.782.813-1.071-1.046-2.52-1.878-1.449-.061.081-.123.161-.187.242h0c0,.006-.006.01-.01.016q-1.263,1.636-2.511,3.288a20.575,20.575,0,0,1-2.233,2.2c-.239.2-.49.381-.736.568,1.323-1.8,2.74-3.533,4.224-5.221.532-.581,1.071-1.155,1.581-1.762a1.171,1.171,0,0,0-1.655-1.655c-.384.342-.755.7-1.126,1.052.555-.8,1.1-1.6,1.6-2.423-.01-.006-.019-.01-.029-.016.529-1.113-.887-2.456-1.788-1.384-1.63,1.936-3.053,4.053-4.54,6.1-.019.026-.039.052-.058.081-.094.094-.184.194-.277.287-.039.035-.077.068-.116.1q2.207-2.972,4.343-5.989c.771-1.084-1.033-2.5-1.862-1.436-1.565,2.01-3.12,4.024-4.644,6.067q-1.118,1.505-2.239,3.011a35.089,35.089,0,0,0-2.31,3.175c-.752,1.288.9,2.356,1.949,1.5.29-.236.568-.487.852-.726-.029.048-.065.094-.094.142a1.348,1.348,0,0,0,1.023,1.93c-.223.365-.449.733-.665,1.1a1.371,1.371,0,0,0,1.862,1.862c.494-.277.975-.584,1.449-.9-.539,1.2,1.181,2.3,2.185,1.381.8-.736,1.6-1.481,2.4-2.223-.239.426-.471.852-.687,1.278-.636,1.258,1,2.733,2.049,1.581.474-.52.939-1.055,1.4-1.6a1.09,1.09,0,0,0,1.768-.148,25.344,25.344,0,0,1,3.1-4.618,1.136,1.136,0,0,0-.487-1.9c.552-.652,1.107-1.3,1.662-1.949.929-1.094-.536-2.62-1.6-1.6Z" transform="translate(-112.325 -198.074)" fill="#ba8b54"/>
      <path id="Path_18280" data-name="Path 18280" d="M138.151,218.537c-2.223,2.433-4.531,4.8-6.864,7.148a68.045,68.045,0,0,0,7.206-12.424c.461-1.068-.855-2.43-1.775-1.368-.226.261-.468.513-.7.774a1,1,0,0,0-1.284.116q-3.529,3.32-6.9,6.8,3.829-5.552,7.661-11.1a1.162,1.162,0,0,0-.216-1.536l1.168-1.5c1.029-1.323-.639-3.156-1.9-1.9q-5.615,5.615-11.226,11.236,2.778-3.267,5.554-6.534c.881-1.036-.287-2.943-1.565-2.03-2.623,1.875-5.157,3.856-7.625,5.915q1.563-1.786,3.127-3.569a1.322,1.322,0,0,0-1.868-1.868l-10.6,10.02a3.14,3.14,0,0,1,1.6-.516,2.994,2.994,0,0,1,2.107.874,3.036,3.036,0,0,1,.874,2.107,3,3,0,0,1-.084.645c1.158-1.078,2.317-2.149,3.5-3.191q-2.851,3.35-5.7,6.7a2.9,2.9,0,0,1-2.114,1.643c-.261.255-.513.516-.758.752-.858.826-1.72,1.655-2.569,2.491-1.655,1.626-3.285,3.288-4.869,4.982-.313.332-.616.671-.926,1.007a1.392,1.392,0,0,0-.2-.613c2.7-2.9,5.441-5.773,8.242-8.574-.106-.013-.213-.019-.316-.042a3.033,3.033,0,0,1-2.081-3.669,7.388,7.388,0,0,1,1.3-2.7l-5.16,4.879q4.647-5.547,9.658-10.778a1.268,1.268,0,0,0,.339-1.039l.21-.2c.71-.684,1.394-1.4,2.085-2.1.345-.352.691-.707,1.007-1.087a2.734,2.734,0,0,0,.571-1.291.681.681,0,0,0-.826-.826,2.458,2.458,0,0,0-1.207.458q-.576.45-1.116.945c-.733.662-1.468,1.323-2.178,2.007-1.016.975-2.017,1.965-3.02,2.953-1.826,1.452-3.637,2.924-5.412,4.44q2.256-2.735,4.508-5.466a1.262,1.262,0,0,0-1.258-2.085,1.391,1.391,0,0,0-2.256-1.433c-2.194,1.73-4.308,3.55-6.386,5.408.158-.168.31-.342.468-.51a1.226,1.226,0,0,0-1.733-1.733c-2.481,2.117-4.915,4.285-7.315,6.476,1.823-2.088,3.64-4.179,5.483-6.244a1.379,1.379,0,0,0-1.949-1.949q-7.241,6.709-14.479,13.421,5.983-6.946,11.969-13.892a1.265,1.265,0,0,0-1.788-1.788q-5.349,5.044-10.681,10.1c.01.01.019.016.029.026a3.755,3.755,0,0,1,1.065,2.456,3.437,3.437,0,0,1-.41,1.559c-.11.255-.042.226.029.068a2.33,2.33,0,0,1-.971,1.288,3.28,3.28,0,0,1-.836,2.44,3.033,3.033,0,0,1-4.218,0c-2.478-2.259-1.1-5.957,1.123-7.809a3.175,3.175,0,0,1,3.856-.332q2.759-3.1,5.518-6.209a1,1,0,0,0-1.417-1.417q-7.875,6.8-15.783,13.556,5.116-5.61,10.233-11.217a1.089,1.089,0,0,0-1.539-1.539Q69.24,214.3,63.9,218.45q4.047-4.226,8.119-8.422c.829-.852-.31-2.5-1.326-1.717-.074.058-.148.113-.223.171h0q-1.544,1.2-3.091,2.391,1.781-1.738,3.563-3.479c.887-.868-.316-2.552-1.365-1.768l-7.183,5.363c.945-.939,1.881-1.888,2.833-2.824.891-.874-.323-2.582-1.378-1.784-.874.665-1.755,1.326-2.63,1.988.92-.981,1.839-1.965,2.765-2.94a.968.968,0,0,0-1.368-1.368,79.7,79.7,0,0,1-6.828,5.115c.713-.8,1.423-1.6,2.146-2.4a1.162,1.162,0,0,0-1.642-1.643c-.7.623-1.43,1.2-2.175,1.755.536-.778,1.052-1.571,1.533-2.381a1.136,1.136,0,0,0-1.542-1.542c-.716.368-1.436.729-2.156,1.091.326-1-1-2.1-1.865-1.168l-3.734,4.027a1.124,1.124,0,0,0,1.355,1.759q1.713-.866,3.43-1.73a41.964,41.964,0,0,1-3.356,3.685c-1.062,1.039.278,2.507,1.5,1.943.21-.1.41-.213.616-.316-.516.571-1.033,1.146-1.549,1.717-.871.968.242,2.6,1.436,1.862.887-.542,1.755-1.113,2.62-1.694q-1.791,1.791-3.562,3.6c-.962.987.358,2.895,1.536,1.991l.113-.087c-.3.3-.594.591-.891.884-.887.887.319,2.6,1.388,1.8l6.241-4.673c-1.933,1.885-3.859,3.775-5.8,5.65-.91.878.339,2.611,1.388,1.8.077-.058.155-.119.232-.181h0a.047.047,0,0,0,.01-.006c2.143-1.652,4.269-3.324,6.4-5q-4.013,4.139-8.032,8.277c-1.049,1.081.484,2.478,1.607,1.607q6.394-4.966,12.746-9.994-6.346,6.985-12.659,14a1.014,1.014,0,0,0,1.433,1.433q8.379-7.193,16.741-14.4-8.049,8.95-16.1,17.9a1.121,1.121,0,0,0,1.584,1.584q8-7.473,16-14.937l-11.649,13.45a1.309,1.309,0,0,0-.013,1.778c-.529.733-1.046,1.475-1.542,2.233a1.186,1.186,0,0,0,.7,1.733,2.9,2.9,0,0,0,1.5-.058,1.2,1.2,0,0,0,1.41-.313c.523-.529,1.033-1.075,1.552-1.607q-1.457,2.144-2.907,4.292c-.278.361-.565.716-.842,1.078-.016.023-.035.042-.052.065h0c-.068.087-.139.174-.207.265-.891,1.168,1.142,2.756,2.052,1.581.265-.342.545-.674.81-1.016,1.8-1.233,3.559-2.54,5.26-3.9-.762,1.117-1.507,2.246-2.223,3.4-.678,1.091.742,2.694,1.859,1.859,2.065-1.549,4.072-3.175,6.05-4.831-.984,1.465-1.939,2.946-2.853,4.45-.713,1.175.8,2.936,2.01,2.01.813-.623,1.617-1.262,2.407-1.907q-.658,1.05-1.294,2.114c-.006.01-.006.019-.013.029-.09.142-.19.281-.278.426-.9,1.468,1.058,2.727,2.252,1.739.891-.739,1.8-1.462,2.7-2.185-.1.2-.21.407-.3.61a1.565,1.565,0,0,0,.658,1.939c-.4.6-.807,1.21-1.217,1.8-.933,1.359,1.052,2.665,2.175,1.678.591-.519,1.181-1.042,1.772-1.562-.061.113-.123.226-.181.339a1.394,1.394,0,0,0,2.178,1.681c1.033-.945,2.056-1.92,3.078-2.891a11.61,11.61,0,0,0-.684,2.156c-.223,1.107,1.262,2.32,2.12,1.233.3-.374.62-.729.929-1.091a1.054,1.054,0,0,0,1.694.132.176.176,0,0,0,.023-.029,1.24,1.24,0,0,0,.833-.41q3.146-3.287,6.289-6.576a2.221,2.221,0,0,0,.187.839c-.145.2-.294.387-.439.581-.307.349-.613.7-.907,1.055a1.422,1.422,0,0,0-.261.5c-.055.068-.1.139-.155.207-1.394,1.755-2.933,3.375-4.385,5.076a1.261,1.261,0,0,0,1.52,1.972,7.148,7.148,0,0,0,2.349-2.1.5.5,0,0,0,.084-.478c.62-.742,1.217-1.5,1.8-2.262a1.394,1.394,0,0,0,1.087-.277c.048-.039.1-.081.145-.119a7.63,7.63,0,0,0-1.623,3.1.71.71,0,0,0,1.029.791,9.844,9.844,0,0,0,2.759-2.575c.49-.594.994-1.178,1.494-1.768a1.328,1.328,0,0,0,.5,1.407c-.1.1-.2.2-.3.3-1.123,1.023.549,2.688,1.665,1.665,1.455-1.329,2.882-2.691,4.3-4.059a22.537,22.537,0,0,0,6.015-5.815c2.252-2.5,4.411-5.1,6.554-7.7-1.552,2.191-3.082,4.4-4.514,6.667a1.216,1.216,0,0,0-.165.429c-1.413,1.694-2.82,3.395-4.192,5.121-.842,1.062.549,2.565,1.53,1.53,7.1-7.512,13.727-15.518,20.436-23.379.975-1.142-.594-2.791-1.623-1.791.881-1.291,1.752-2.588,2.594-3.9a1.154,1.154,0,0,0-.1-1.375c1.217-1.488,2.423-2.982,3.6-4.5.916-1.175-.623-2.849-1.688-1.688Zm-41.959,2.807q-4.545,5.392-9.061,10.81a1.437,1.437,0,0,0-1.223-.845C89.266,227.914,92.677,224.571,96.191,221.344Zm-18.974,6.263c-.778.939-1.533,1.894-2.3,2.836a1.462,1.462,0,0,0-.439-.31l2.74-2.527Zm-3.692,15.144c.326-.478.655-.955.987-1.426a1.45,1.45,0,0,0,.371.252q-.678.591-1.359,1.178ZM76.9,234.3a82.1,82.1,0,0,1-6.554,6.341c3.53-4.134,7.183-8.167,10.988-12.059Q79.079,231.412,76.9,234.3Zm22.753,4.776c.116-.113.236-.223.352-.332a1.27,1.27,0,0,0,.019.194c-.1.094-.2.187-.3.281a6.517,6.517,0,0,1,.184,5.576,9.55,9.55,0,0,1-5.408,4.966c-.7.855-1.4,1.72-2.136,2.578.368-.674.745-1.342,1.126-2.007a1.537,1.537,0,0,0,.1-.242,12.576,12.576,0,0,1-6.251.4,7.6,7.6,0,0,1-6.157-8.835c-.413.4-.81.81-1.229,1.2.445-.626.907-1.239,1.362-1.859a9.069,9.069,0,0,1,1.342-3.04,15.879,15.879,0,0,1,3.1-3.3,5.833,5.833,0,0,1,3.637-3.55,5.6,5.6,0,0,1,2.985-.026c1.978-2.052,3.982-4.079,6.054-6.038-1.691,2.11-3.327,4.266-4.937,6.441a3.8,3.8,0,0,1,2.356,3.4c0,.026-.006.048-.006.074.042.048.077.1.116.148A1.352,1.352,0,0,0,95.985,234q3.2-3.035,6.405-6.07-3.18,3.635-6.357,7.27a9.749,9.749,0,0,1,.6.833,7.853,7.853,0,0,1,3.027,3.049Zm13.214-2.372a1.03,1.03,0,0,0-.187.836A91.869,91.869,0,0,0,102.029,248.7c-.09.094-.174.187-.261.281a.724.724,0,0,0-.2.058c.132-.184.258-.352.352-.5q.61-.939,1.242-1.859,3.272-3.282,6.357-6.738,2.12-2.212,4.24-4.421c-.3.394-.6.781-.894,1.178Zm-1.7-3.211a1.4,1.4,0,0,0-.307.936q-1.68,1.733-3.291,3.537l-3.078,3.069q1.747-2.851,3.356-5.789a1.315,1.315,0,0,0,.029-1.268q6.617-6.607,13.234-13.217Q116.142,227.128,111.171,233.5Zm4.766-1.291a.846.846,0,0,0,.136-.361q2.285-2.744,4.569-5.486a1.232,1.232,0,0,0,.394.5c-1.707,1.888-3.385,3.814-5,5.786a1.206,1.206,0,0,0-.1-.439Zm4.511,3.091a1.409,1.409,0,0,0-.171-.223c.355-.478.7-.958,1.046-1.442a.979.979,0,0,0,.1-.139q1.946-2.735,3.685-5.6a.966.966,0,0,0,.907-.845c.039-.29.074-.581.113-.871.126-.132.255-.265.381-.4,1.743-1.82,3.463-3.685,5.2-5.537a124.981,124.981,0,0,1-7.89,11.059c-1.091,1.359-2.217,2.685-3.362,3.992Z" transform="translate(-41.75 -138.949)" fill="#eac485"/>
    </g>
  </g>
  <g id="Group_17232" data-name="Group 17232">
    <path id="Path_18281" data-name="Path 18281" d="M79.348,124.57A52.026,52.026,0,0,1,48.7,114.712a33.38,33.38,0,0,1-9.426-10.475c-.587-1-.791-2.246.526-2.749a3.4,3.4,0,0,1,2.42.49,5.076,5.076,0,0,1,1.391,1.646c6.844,9.729,16.757,14.337,28.029,16.254,26.787,4.556,43.97-12.7,50.73-31.782a34.914,34.914,0,0,0,.1-22.043c-.784-2.575-1.439-2.7-3.821-1.091-2.1,1.426-4.172,2.911-6.167,4.489-2.452,1.939-5.044,2.82-8.112,1.675a10.172,10.172,0,0,0-9.387,1.139c-4.324,2.7-8.648,2.63-12.746-.4-4.063-3-7.99-2.972-12.1-.132a16.3,16.3,0,0,1-4.4,2.11,2.545,2.545,0,0,1-2.288-.765,2.337,2.337,0,0,1,.532-2.262c3.311-1.862,6.6-3.95,10.178-5.069,2-.629,4.6.236,6.815.842a18.225,18.225,0,0,1,4.276,2.375A6.208,6.208,0,0,0,92,69.219c4.434-2.64,8.942-3.9,14.031-1.952a3.987,3.987,0,0,0,3.085-.5,80.009,80.009,0,0,0,6.576-4.847c1.352-1.075.975-2.2-.261-3.12a15.953,15.953,0,0,0-1.878-1.1q-5.4-2.956-6.083,3.195c-.019.181-.023.365-.048.542-.248,1.562-.016,3.775-2.291,3.63s-1.814-2.269-1.743-3.866c.174-3.814.342-7.628.555-11.439.106-1.91-.158-3.627-1.865-4.824a2.6,2.6,0,0,1-.768-.768c-2.372-4.15-5.221-6.948-10.713-5.589-1.559.384-3.663-1.158-5.412-2.026-.39-.194-.62-1.388-.407-1.917a2.064,2.064,0,0,1,1.646-1.013,25.719,25.719,0,0,1,3.137.826c4.2.829,5.9-.006,8.342-3.943a4.8,4.8,0,0,1,1.359-1.655,2.411,2.411,0,0,1,1.968-.248,2.341,2.341,0,0,1,.9,1.739,8.18,8.18,0,0,1-.549,2.085,9.207,9.207,0,0,0,8.49,11.42,8.344,8.344,0,0,0,4.169-.871A59.921,59.921,0,0,0,120.5,38.8a4.823,4.823,0,0,0,2.065-4.756c-.268-2.288-1.078-3.553-3.892-3.166a1.648,1.648,0,0,1-1.481-2.862c2.388-2.281,4.4-4.576,2.517-8.016a11.555,11.555,0,0,0-9.636-6.238,11.181,11.181,0,0,0-2.178.068,3.8,3.8,0,0,1-4.153-1.956C101.3,7.211,97.054,7.495,93.32,8.927c-3.5,1.342-5.521.742-8.1-1.739-3.543-3.417-8.2-3.679-12.833-2.582a19.626,19.626,0,0,0-10.923,6.806,14.839,14.839,0,0,1-1.991,2.575,9.381,9.381,0,0,1-2.807.975,8.614,8.614,0,0,1-.587-2.452c.065-1.165,1.507-2.394.081-3.446A8.069,8.069,0,0,0,52.732,7.6c-6.276-.933-13.159,4.666-13.54,11.126-.11,1.846-.6,2.714-2.443,2.727-4.889.029-6.341,3.7-7.454,7.4-1.165,3.876-.626,7.628,2.346,10.642,2.036,2.068,3.621,2.081,5.889-.11,1.468-1.417,2.42-1.291,3.459.274a2.744,2.744,0,0,1,.255.481c1.1,2.807,2.946,4.763,6.163,4.24C51,43.8,54.116,42.2,54.723,38.153c.358-2.385,1.507-2.956,3.679-2.875a6.446,6.446,0,0,0,6.17-3.746c.258-.481.384-1.129.778-1.417a20.375,20.375,0,0,1,2.588-1.407c.378.749,1.22,1.636,1.049,2.227-.739,2.549.455,3.611,2.6,4.5a3.009,3.009,0,0,1,1.607,2.336c-.268,1.623-1.8,1.426-3.088,1.239A5.519,5.519,0,0,1,69.06,38.7c-1.63-.574-3.037-2.065-5.05-.778-2.194,1.4-4.892,1.572-6.554,4.372-1.633,2.753-2.856,5.3-2.953,8.5-.081,2.72-.458,5.437-.8,8.145-.181,1.442-.416,3.153-2.388,3.02-1.668-.113-1.665-1.636-1.713-2.924a6.637,6.637,0,0,0-.11-2.149A2.342,2.342,0,0,0,48.056,55.6a13.742,13.742,0,0,0-3.8-.119c-2.946.319-5.631,2.772-5.2,4.585.749,3.124,4.4,5.634,7.228,4.931.881-.219,1.73-.565,2.6-.823,4.2-1.242,7.409.142,9.235,4.163a2.5,2.5,0,0,1-.378,2.346c-.5.394-1.636.142-2.433-.065a2.594,2.594,0,0,1-1.184-1.087c-1.442-2.068-3.288-1.926-5.315-1.087-.5.207-1.065.265-1.568.468-3.724,1.513-6.715.784-8.974-2.7-.423-.652-1.359-.975-2.056-1.446a11.442,11.442,0,0,0-1.233,2.269,35.3,35.3,0,0,0,.239,20.436c.436,1.388.929,2.756,1.417,4.127.458,1.288.713,2.62-.9,3.169-1.565.532-2.417-.655-2.807-1.9A71.128,71.128,0,0,1,29.979,82.41,41.464,41.464,0,0,1,32.219,62a20.078,20.078,0,0,1,6.044-8.267A10.4,10.4,0,0,1,45.3,51.2a13.892,13.892,0,0,0,3.753-.429c.484-.139.739-1.075,1.1-1.646-.432-.242-.916-.758-1.291-.687-3.5.649-6.37-.526-9.122-2.633-.845-.649-2.336-.587-3.537-.613a10.609,10.609,0,0,1-10.429-7.28A16.557,16.557,0,0,1,31.715,18.54a11.677,11.677,0,0,0,4.2-4.7A18.328,18.328,0,0,1,47.666,3.961c3.317-.913,6.647-.962,9.51.845,2.511,1.581,4.14.913,6.283-.578A21.888,21.888,0,0,1,78.4.108a16.046,16.046,0,0,1,9.022,3.53c1.72,1.462,3.324,1.613,5.5,1.075a27.209,27.209,0,0,1,7.022-.4c1.042.023,2.491.284,3.037.994,2.933,3.792,7.354,3.914,11.381,5.257,4.4,1.465,8.245,4.247,9.49,9.055.607,2.349-.194,5.04.271,7.454.468,2.433,2.172,4.65,2.514,7.077.49,3.485-1.229,6.331-4.166,8.338a39.261,39.261,0,0,1-5.879,3.84c-2.094.929-4.489,1.168-6.735,1.778-.455.123-1.071.468-1.175.836a1.581,1.581,0,0,0,.5,1.371c1.475,1.055,3.049,1.972,4.573,2.962,2.882,1.872,5.815,3.672,8.613,5.66a11.98,11.98,0,0,1,4.46,7.312,41.522,41.522,0,0,1-1.684,26.238,56.892,56.892,0,0,1-13.563,19.607,44.2,44.2,0,0,1-32.23,12.478Z" transform="translate(-16.736 -0.002)" fill="#262c54"/>
    <path id="Path_18282" data-name="Path 18282" d="M0,227.219c.2-1.581-.665-3.756,1.759-4.46,1.413-.41,2.127,1.055,2.4,4.679C5.637,246.678,14.4,262,29.3,273.961a49.391,49.391,0,0,0,16.844,8.722,19.06,19.06,0,0,1,3.5,1.413,1.55,1.55,0,0,1,.523,1.42c-.226.584-.829,1.4-1.317,1.43a8.591,8.591,0,0,1-3.711-.423c-4.353-1.791-8.948-3.266-12.885-5.754C13.585,268.988,3.149,251.831.171,230.043.048,229.146.058,228.229,0,227.219Z" transform="translate(0 -150.833)" fill="#262c54"/>
    <path id="Path_18283" data-name="Path 18283" d="M161.066,306.84c-7.015.045-11.836-5.04-11.181-11.546a15.9,15.9,0,0,1,5.624-10.81c3.885-3.311,7.858-3.066,11.485.581a19.563,19.563,0,0,0,1.952,1.852c3.714,2.82,5.1,6.483,3.882,10.988-1.317,4.869-4.827,7.464-9.513,8.677a13.311,13.311,0,0,1-2.246.261Zm8.061-11.678c.152-2.714-1.791-4.163-3.408-5.857-3.921-4.108-6.728-3.927-9.748.81a14.24,14.24,0,0,0-1.591,3.414c-.926,2.978-.587,5.805,1.946,7.874s5.415,1.772,8.171.481a7.336,7.336,0,0,0,4.637-6.722Z" transform="translate(-101.478 -191.108)" fill="#262c54"/>
    <path id="Path_18284" data-name="Path 18284" d="M357.89,189.063c-.219,9.119-1.836,18.18-6.7,26.393a21.765,21.765,0,0,1-3.417,4.153,2.007,2.007,0,0,1-1.926-.113,2.1,2.1,0,0,1-.549-1.868,16.43,16.43,0,0,1,1.572-2.833c7.561-13.4,9.313-27.332,3.869-41.94-.532-1.426-1.981-2.949-.145-4.392,1.168-.92,2.543.126,3.85,2.788,2.033,4.134,3.4,11.11,3.44,17.816Z" transform="translate(-233.842 -113.88)" fill="#262c54"/>
    <path id="Path_18285" data-name="Path 18285" d="M115.094,243.306c.11-3.695,2.6-7.138,5.2-7.167,3.73-.042,6.3,2.717,6.238,6.715-.052,3.672-2.256,6.138-5.515,6.173a5.527,5.527,0,0,1-5.918-5.718Zm5.86,1.985a8.822,8.822,0,0,0,1.288-2.469c.042-.349-.829-.81-1.284-1.223a6.544,6.544,0,0,0-1.368,1.859C119.489,243.8,120.26,244.4,120.954,245.291Z" transform="translate(-77.952 -159.94)" fill="#262c54"/>
    <path id="Path_18286" data-name="Path 18286" d="M278.1,368.263c-.545-.478-1.3-.836-1.488-1.391a2.819,2.819,0,0,1,.371-1.93c.226-.429.8-.691,1.252-.987a58.6,58.6,0,0,0,13.379-11.778c.342-.416.7-.962,1.158-1.1a12.7,12.7,0,0,1,2.472-.3,17.9,17.9,0,0,1,.187,2.895c-.039.461-.568.894-.907,1.32a58.226,58.226,0,0,1-13.772,12.136,16.964,16.964,0,0,1-2.653,1.139Z" transform="translate(-187.306 -237.581)" fill="#262c54"/>
    <path id="Path_18287" data-name="Path 18287" d="M230.737,243.78c.416-3.485,3.621-6.363,6.525-5.86,2.6.452,4.65,3.633,4.263,6.625a6.042,6.042,0,0,1-6.589,5.044c-2.769-.232-4.563-2.72-4.195-5.808Zm6.754.474c-.445-.733-.7-1.162-.962-1.588a5.806,5.806,0,0,0-1.446,1.226c-.139.223.368.842.581,1.281Z" transform="translate(-156.25 -161.107)" fill="#262c54"/>
    <path id="Path_18288" data-name="Path 18288" d="M16.67,159.555a4.564,4.564,0,0,1-.1,1.233c-1.31,3.182-2.549,6.4-4.069,9.481-.323.652-1.694.787-2.585,1.162-.3-.784-1.039-1.73-.82-2.32,1.255-3.372,2.665-6.7,4.23-9.939.232-.481,1.546-.578,2.362-.581.352,0,.707.681.981.968Z" transform="translate(-6.134 -107.415)" fill="#262c54"/>
    <path id="Path_18289" data-name="Path 18289" d="M229.1,407.963a7.33,7.33,0,0,1,2.2.148c.574.29,1.317.794,1.42,1.317s-.368,1.607-.794,1.726a52.18,52.18,0,0,1-6.738,1.452c-.468.071-1.51-.707-1.5-1.084.01-.752.371-1.917.923-2.165a31.342,31.342,0,0,1,4.489-1.4Z" transform="translate(-151.507 -276.316)" fill="#262c54"/>
  </g>
</svg>
