<svg id="_04" data-name="04" xmlns="http://www.w3.org/2000/svg" width="139.98" height="135.503" viewBox="0 0 139.98 135.503">
  <g id="Group_17233" data-name="Group 17233" transform="translate(14.212 13.048)">
    <path id="Path_18290" data-name="Path 18290" d="M304.994,208.735c-5.444-6.28-14.511,2.5-7.374,7.257C302.206,218.319,309.547,213.546,304.994,208.735Z" transform="translate(-214.011 -152.941)" fill="#75757c"/>
    <path id="Path_18291" data-name="Path 18291" d="M155.286,208.138a4.507,4.507,0,0,0-1.268-1.22,3.95,3.95,0,0,0-.807-.781c-.036-.029-.071-.058-.11-.087-.016-.01-.026-.023-.042-.032-.042-.029-.09-.048-.132-.074a3.445,3.445,0,0,0-2.136-.555h-.119a.225.225,0,0,0-.045.01,3.85,3.85,0,0,0-.384.032c-.052.006-.1.013-.155.023-.145.023-.287.055-.426.09a2.034,2.034,0,0,0-.2.058c-.107.032-.21.071-.313.11s-.2.084-.3.129c-.081.039-.158.081-.239.123-.048.026-.1.045-.142.074s-.058.045-.09.065a4.849,4.849,0,0,0-1.449,1.368,3.78,3.78,0,0,0-.371,3.459q.044.131.1.261c.032.077.065.152.1.226.055.11.113.219.177.323a4.614,4.614,0,0,0,.4.587,4.289,4.289,0,0,0,1.3,3.285,3.892,3.892,0,0,0,4.979.013,6.074,6.074,0,0,0,2.423-4.792,4.759,4.759,0,0,0-.762-2.694Z" transform="translate(-113.307 -152.147)" fill="#75757c"/>
    <path id="Path_18292" data-name="Path 18292" d="M158.041,91.911c.081-.794.145-1.588.171-2.388.006-.139,0-.278,0-.416a20.4,20.4,0,0,0-3.917,2.543c-1.6,1.129-3.182,2.291-4.766,3.45q-4.753,3.48-9.474,6.993-2.081,1.544-4.163,3.085c.681-.574,1.365-1.146,2.043-1.726q2.662-2.275,5.321-4.553,2.561-1.815,5.121-3.633a1.507,1.507,0,0,0,.662-1.32,51.611,51.611,0,0,0,6.628-6.512.816.816,0,0,0-.116-1.149,1.045,1.045,0,0,0-1.481-.91,82.139,82.139,0,0,0-9.487,5.905c.052-1.113-.984-2.2-2.2-1.417q-3.625,2.343-7.193,4.766a9.236,9.236,0,0,1,1.9,5.253c.2,2.381-.7,5.16-3.246,5.867a5.39,5.39,0,0,1-4.159-.758,5.26,5.26,0,0,1-1.762-1.823,2.9,2.9,0,0,1-1.149-1.607,9.469,9.469,0,0,1-.19-.929,397.853,397.853,0,0,0-33.014,26.322q-1.844,1.389-3.692,2.778c4.179-3.666,8.39-7.293,12.688-10.82q11.685-9.579,24.008-18.348a6.259,6.259,0,0,1,.745-4.366,4.721,4.721,0,0,1,1.933-1.688c.084-.1.155-.2.248-.29a3.81,3.81,0,0,1,4.714-.455,4.56,4.56,0,0,1,.933.807q8.253-5.61,16.744-10.862a1.507,1.507,0,0,0-.962-2.762c.1-.132.2-.261.284-.4.4-.652-.258-1.265-.9-1.171-2.172.319-4.221,1.991-6.018,3.162-1.962,1.281-3.888,2.627-5.812,3.963q-5.755,4.008-11.3,8.325t-10.884,8.89c-.484.416-.952.842-1.426,1.268q-9.811,7.294-19.213,15.118c.31-.287.626-.568.933-.858,3.172-3,6.522-5.815,9.694-8.819a.607.607,0,0,0,.19-.468c7.69-6.657,15.615-13.053,23.815-19.113q8.534-6.307,17.38-12.172a1.5,1.5,0,0,0-1.513-2.591q-5.915,3.417-11.665,7.09,7.251-5.291,14.515-10.568a1.534,1.534,0,0,0-1.549-2.646,218.492,218.492,0,0,0-22.821,13.966q4.269-3.461,8.58-6.877Q140,71.683,146.831,66.379A1.528,1.528,0,0,0,146.4,63.9c.2-.968-.739-2.068-1.743-1.352q-6.249,4.453-12.485,8.939a1.4,1.4,0,0,0-1.93-.445q-4.342,2.72-8.642,5.524,8.6-6.636,17.341-13.072a1.671,1.671,0,0,0-.068-2.707,8.636,8.636,0,0,0,1.281-1.6,1.182,1.182,0,0,0-1.362-1.733.25.25,0,0,0-.006-.048c-2.133.758-4,2.672-5.741,4.088q-2.827,2.309-5.631,4.64c-.549.455-1.087.923-1.636,1.384a1.805,1.805,0,0,0-.013-.294l.755-.629c1.972-1.642,3.966-3.259,5.925-4.921a47.964,47.964,0,0,0,5.931-5.541.629.629,0,0,0-.758-.984,34.145,34.145,0,0,0-4.821,2.959,1.618,1.618,0,0,0-2.611-1.523q-3.538,2.856-7.1,5.686c3.12-2.8,6.221-5.631,9.335-8.448,1.178-1.065-.374-3.127-1.714-2.22-.671.452-1.326.926-1.988,1.388.052-.094.116-.181.165-.274.319-.616-.226-1.6-1-1.3l-.332.126a1.642,1.642,0,0,0-2.4-.3l-1.746,1.491a1.661,1.661,0,0,0-.7-1.872c1.362-1.184,2.7-2.394,3.988-3.653a13.284,13.284,0,0,1-1.739-1.265c-2.456,1.649-4.834,3.43-7.173,5.266.145-.136.29-.271.432-.407a13.337,13.337,0,0,0,3.256-3.663c.258-.555-.184-1.426-.891-1.158a12.5,12.5,0,0,0-3.753,2.772q-1.733,1.588-3.466,3.178c.1-.11.207-.216.31-.326,1.317-1.426,3.269-3.046,3.827-4.966a.824.824,0,0,0-1.007-1.007c-1.613.558-2.895,2.1-4.088,3.285a1.54,1.54,0,0,0-1.217.368Q87.578,68.938,63.822,88.419q3.141-3.311,6.389-6.518Q84.7,69.161,99.189,56.424q7.057-6.205,14.118-12.411c1.523-1.339-.674-3.453-2.2-2.2C105.5,46.4,99.866,50.935,94.3,55.556q5.3-5.281,10.613-10.549c1.42-1.407-.665-3.362-2.152-2.152l-1.51,1.229a1.44,1.44,0,0,0-.132-1.194,1.565,1.565,0,0,0-2.127-.558q-18.935,14.4-37.935,28.707c6.738-6.5,13.776-12.695,20.9-18.764q5.3-4.516,10.652-8.974c1.475-1.236-.432-3.643-2.043-2.646q-4.816,2.987-9.529,6.163c.265-.758-.507-1.723-1.362-1.181a137.089,137.089,0,0,0-29.862,25.6A1.553,1.553,0,0,0,52,73.427q6.23-5.382,12.688-10.465c-3.679,3.382-7.3,6.828-10.807,10.394q-4.874,4.957-9.448,10.2c-1.152,1.326.416,3.837,2.02,2.62q3.63-2.759,7.251-5.531-3.877,4.037-7.5,8.306a1.642,1.642,0,0,0,2.32,2.32Q64.2,78.484,79.811,65.621,69.772,75.553,59.733,85.483,53.62,91.538,47.516,97.593A1.586,1.586,0,0,0,49,100.243c-.329.413-.665.82-.991,1.236a1.683,1.683,0,0,0,2.378,2.378c2.1-1.746,4.2-3.5,6.3-5.247-2.627,2.807-5.16,5.705-7.532,8.735a1.631,1.631,0,0,0,1.571,2.7,16.768,16.768,0,0,0,5.579-2.381q-1.994,2.217-3.937,4.476c-1.142,1.336.3,3.55,1.962,2.546,1.533-.926,3.011-1.933,4.463-2.978-2,2.375-3.937,4.811-5.754,7.341-.862,1.2.3,2.288,1.462,2.272-1.568,1.888-3.059,3.837-4.5,5.818a34.471,34.471,0,0,0,2.485,2.911q5.649-4.966,11.288-9.945a40.29,40.29,0,0,0-3.821,6.948,1.158,1.158,0,0,0,.242,1.333q-.813,1.205-1.588,2.443c-1.071,1.717,1.239,3.172,2.63,2.03q4.836-3.969,9.694-7.912a136.878,136.878,0,0,0-9.694,11.549h0c-.081.106-.165.21-.245.316a1.44,1.44,0,0,0,.92,2.227,1.651,1.651,0,0,0,2.707,1.117c12.114-10.078,24.192-20.207,36.629-29.871q-7.323,6.4-14.34,13.133-3.311,3.18-6.531,6.441-2.6,2.372-5.186,4.766c-1.607,1.488-3.185,3.007-4.753,4.534a23.83,23.83,0,0,0-4.321,4.937.811.811,0,0,0,1.1,1.1,25.735,25.735,0,0,0,5.173-4.085c.029-.026.058-.055.087-.081a1.217,1.217,0,0,0,.871.1,1.518,1.518,0,0,0,2,1.229c1.068-.423,2.11-.894,3.137-1.394a1.364,1.364,0,0,0-.242.361q-2.686,2.662-5.318,5.382,1.36.881,2.649,1.865,3.35-3.228,6.754-6.4,6.273-4.5,12.562-8.98c-3,2.882-5.934,5.847-8.674,8.964-.632.532-1.275,1.055-1.9,1.591a1.7,1.7,0,0,0,0,2.378,1.51,1.51,0,0,0,.226.187,2.649,2.649,0,0,0,1.062,1.63,1.609,1.609,0,0,0,.674.419c2.1,1.013,4.15-.416,5.828-1.713l5.612-4.337C94,145.48,90.327,148.7,86.729,152a1.274,1.274,0,0,0-.416,1.071,9.252,9.252,0,0,1,4.166-.136q6.718-4.821,13.495-9.565-1.936,1.651-3.859,3.317c-1.371,1.194.423,3.533,1.952,2.53q2.44-1.607,4.879-3.217c-3.159,2.62-6.286,5.276-9.342,8.012a1.169,1.169,0,0,0-.219.277c.223.094.445.19.668.281.245-.065.487-.139.736-.194a2.672,2.672,0,0,1,2.159-.923c.958.013,1.914.077,2.869.145q2.928-1.994,5.86-3.985a1.393,1.393,0,0,0,2.127.561q5.4-3.64,10.936-7.07-2.967,2.246-5.934,4.5c-1.617,1.226-.045,4,1.617,2.765.968-.723,1.943-1.439,2.911-2.162a1.7,1.7,0,0,0,1.881-.19q9.381-7.556,18.742-15.134a1.3,1.3,0,0,0,.41-.565q1.467-1.1,2.933-2.21a1.642,1.642,0,0,0-1.655-2.833c-.768.407-1.53.826-2.3,1.239q4.168-3.059,8.338-6.115c1.668-1.226.113-4.04-1.655-2.833q-6.321,4.313-12.64,8.629,4.274-3.074,8.577-6.105,5.692-4,11.417-7.954c.326-1.4.668-2.794,1.036-4.182a1.445,1.445,0,0,0-.978.261l-3.179,2.091c1.452-1.281,3.2-2.682,4.079-4.411a.589.589,0,0,0-.658-.855,9.334,9.334,0,0,0-2.552,1.32c-.287.136-.578.278-.871.452-.7.41-1.375.868-2.043,1.333a1.362,1.362,0,0,0-1.985-.436Q131.982,120.332,116,131.356q9.4-7.183,19.236-13.785,1.578-1,3.153-2,7.265-4.593,14.511-9.216c1.623-1.036.155-3.595-1.517-2.594-.978.584-1.943,1.184-2.914,1.775.207-.168.413-.332.616-.5,1.694-1.378,3.391-2.749,5.06-4.159.965-.813,2.22-1.675,3.208-2.678.058-1,.161-1.988.281-2.975a7.256,7.256,0,0,0-2.836,1.536c-.413.3-.82.607-1.229.91a1.555,1.555,0,0,0-1.868-.229c-.481.248-.955.507-1.436.762a1.4,1.4,0,0,0-.378.039c1.73-1.346,3.475-2.675,5.182-4.053.884-.716,1.991-1.459,2.956-2.3ZM71.1,68.661c5.624-4.918,11.426-9.639,17.3-14.244,1.3-1.02,2.607-2.026,3.914-3.037Q81.708,60.021,71.1,68.664Zm49.585-13.588q-26.24,22.454-52.5,44.88c-.255.219-.513.436-.768.655C79.824,88.055,93.39,76.657,107.2,65.669q6.709-5.339,13.485-10.6Zm-6.612,22.563q-3.63,3.185-7.2,6.431c-1.307,1.033-2.614,2.062-3.911,3.1q-3.514,2.817-7.038,5.657,6.9-5.939,13.931-11.727,2.106-1.738,4.224-3.462ZM57.584,102.9c-.458.374-.929.733-1.407,1.081A198.737,198.737,0,0,1,74.193,86.289a.685.685,0,0,0,1.055.474c1.607-1.146,3.178-2.343,4.737-3.553a.6.6,0,0,0-.006.152q-7.624,6.491-15.128,13.124c-2.42,2.136-4.773,4.366-7.27,6.412Zm19.2-4.421c.045-.158.1-.313.161-.468a.4.4,0,0,1,.01-.061c-1.013.887-2.033,1.765-3.04,2.659a1.294,1.294,0,0,0-.29,1.655c-.381.329-.768.652-1.146.984l-2.336,1.888-4.424,3.575c3.6-3.85,7.4-7.519,11.281-11.084A6.868,6.868,0,0,1,79.208,93.7a3.2,3.2,0,0,1,2.149-.845,7.06,7.06,0,0,1,1.691-.655q7.609-6.757,15.3-13.421a1.759,1.759,0,0,0,.429.4q-6.215,5.334-12.433,10.662-1.3,1.113-2.6,2.233a5.936,5.936,0,0,1,2.446.2,2.735,2.735,0,0,1,2.023,2.239l.539-.436c-.177.152-.355.307-.532.461a3.208,3.208,0,0,1-1.507,3.256,8.978,8.978,0,0,1-2.246,7.315,4.422,4.422,0,0,1-6.451-.439,5.892,5.892,0,0,1-.591-.81q-5.7,4.961-11.385,9.949c3.611-3.553,7.38-6.944,11.226-10.233a6.678,6.678,0,0,1-.481-5.1Zm17.964,2.756q-2,1.834-3.966,3.711-7.924,6.394-15.844,12.788c-1.384,1.117-2.775,2.22-4.166,3.33C83.28,108.1,97.365,96.812,112.145,86.538,106.188,91.239,100.357,96.1,94.748,101.23Zm11.636,20.055c.8-.645,1.6-1.281,2.4-1.923q1.694-1.3,3.391-2.591a.569.569,0,0,0,.3-.084c1.3-.794,2.572-1.617,3.85-2.436q-4.971,3.519-9.945,7.035Zm12.052-4.247a.682.682,0,0,0-.148.713q-3.364,2.3-6.683,4.669,3.577-2.948,7.244-5.789c-.136.139-.278.268-.413.407Z" transform="translate(-44.041 -40.418)" fill="#eac485"/>
  </g>
  <g id="Group_17234" data-name="Group 17234">
    <path id="Path_18293" data-name="Path 18293" d="M146.628,161.29a64.725,64.725,0,0,1-19.52-3.056,46.508,46.508,0,0,1-10.329-4.75,3.27,3.27,0,0,1-.868-.639c-.52-.642-.975-1.336-.429-2.207a1.8,1.8,0,0,1,2.094-.871,5.318,5.318,0,0,1,1.491.626,47.75,47.75,0,0,0,19.691,6.457,65.638,65.638,0,0,0,25.547-1.714c7.044-1.994,13.3-5.621,19.352-9.648a34.843,34.843,0,0,0,9.6-9.1c7.7-11.168,11.733-23.431,10.307-37.093a64.732,64.732,0,0,0-10.113-28.368,44.044,44.044,0,0,0-15.973-14.789c-1.659-.926-3.356-1.781-5.011-2.714A4.629,4.629,0,0,1,171,52.269a1.559,1.559,0,0,1,1.194-2.562,5.3,5.3,0,0,1,2.333.526c11.978,5.66,20.978,14.282,26.441,26.477a77.036,77.036,0,0,1,5.321,15.634c2.472,11.749,1.63,23.221-3.353,34.228a92.7,92.7,0,0,1-5.418,10.307A38.107,38.107,0,0,1,185.735,148.7a85.575,85.575,0,0,1-15.725,8.516,48.558,48.558,0,0,1-14.192,3.391Z" transform="translate(-78.05 -33.66)" fill="#262c54"/>
    <path id="Path_18294" data-name="Path 18294" d="M96.474,32.936a35.684,35.684,0,0,1,10.968,1.633,7.2,7.2,0,0,1,1.733.736,1.56,1.56,0,0,1,.7,1.885,1.507,1.507,0,0,1-1.588,1.213,8.528,8.528,0,0,1-2.149-.242c-10.439-3-20.459-1.187-30.181,2.862a59.275,59.275,0,0,0-20.588,14.3c-7.328,7.816-12.53,16.8-14.111,27.567-.287,1.959-.232,3.963-.352,5.947a12.028,12.028,0,0,1-.239,2.136,1.365,1.365,0,0,1-1.61,1.136,2.741,2.741,0,0,1-1.636-1.139,4.805,4.805,0,0,1-.284-2.114,43.821,43.821,0,0,1,6.1-23.331C51.514,50.9,63.782,40.977,79.688,35.562A52.118,52.118,0,0,1,96.48,32.939Z" transform="translate(-25.14 -22.284)" fill="#262c54"/>
    <path id="Path_18295" data-name="Path 18295" d="M0,191.559c.213-2.3.442-5,.723-7.7a7.74,7.74,0,0,1,.461-1.836,1.473,1.473,0,0,1,1.91-1.068,3,3,0,0,1,1.43,1.391,2.848,2.848,0,0,1-.006,1.578,64.861,64.861,0,0,0,.4,19.7,18.038,18.038,0,0,0,.839,3.4,103.613,103.613,0,0,0,9.293,19.549c5.592,8.858,12.572,16.257,21.814,21.43,4.589,2.569,9.122,5.166,14.337,6.267.349.074.807.123,1,.358a3.7,3.7,0,0,1,.981,1.765,1.531,1.531,0,0,1-1.549,1.578,6.763,6.763,0,0,1-2.662-.29,73.076,73.076,0,0,1-9.051-3.595c-5.925-3.12-11.688-6.56-16.586-11.2A78.194,78.194,0,0,1,9.3,224.377a105.884,105.884,0,0,1-7.138-16.089A30.645,30.645,0,0,1,.707,201.43c-.374-3.133-.465-6.3-.7-9.871Z" transform="translate(0 -122.498)" fill="#262c54"/>
    <path id="Path_18296" data-name="Path 18296" d="M214.5.266c10.865-.061,20.71,3.2,30.094,8.59a81.508,81.508,0,0,1,22.888,20.1c2.136,2.653,3.695,5.773,5.512,8.68a2.711,2.711,0,0,1,.329.739,1.954,1.954,0,0,1-.649,2.414,1.923,1.923,0,0,1-2.607-.694,11.749,11.749,0,0,1-.968-1.626,48.126,48.126,0,0,0-5.544-8.338c-6.044-7.044-12.656-13.353-20.865-17.932a64.889,64.889,0,0,0-16.176-6.8,60.5,60.5,0,0,0-15.07-1.475,16.859,16.859,0,0,1-2.959-.252,1.65,1.65,0,0,1-1.494-1.668A1.751,1.751,0,0,1,208.564.124a6.343,6.343,0,0,1,1.6-.136c1.446.061,2.885.177,4.327.271Z" transform="translate(-140.193 0.018)" fill="#262c54"/>
    <path id="Path_18297" data-name="Path 18297" d="M123.344,193.99c1.055.223,2.649.5,4.208.907a8.317,8.317,0,0,1,4.85,12.214c-.368.62-.749,1.239-1.162,1.83-1.865,2.669-3.682,3.4-6.722,2.746a7.216,7.216,0,0,1-5.879-5.641,5.905,5.905,0,0,1,2.42-5.421,1.818,1.818,0,0,1,2.733,2.249,7.757,7.757,0,0,1-.739,1.126,2.225,2.225,0,0,0,.442,3.12c1.029.949,2.891,1.31,3.734.539a6.455,6.455,0,0,0,2.43-4.957,4.335,4.335,0,0,0-3.027-4.108,9.916,9.916,0,0,0-7.916.177c-2.446,1.139-5,2.156-6.822,4.308a2.643,2.643,0,0,1-.852.655,1.788,1.788,0,0,1-2.227-.378,1.572,1.572,0,0,1-.174-2.21,10.638,10.638,0,0,1,2.007-2.185,26.643,26.643,0,0,1,9.687-4.682,26.539,26.539,0,0,1,3-.287Z" transform="translate(-73.33 -131.386)" fill="#262c54"/>
    <path id="Path_18298" data-name="Path 18298" d="M277.309,197.617a12.868,12.868,0,0,1,7.622,2.4c4.514,3.114,4.331,11.588-1.2,13.753-1.855.726-3.6,1.678-5.705.826-3.095-1.252-4.8-5.867-3.085-8.69a3.746,3.746,0,0,1,1.329-1.281,1.607,1.607,0,0,1,2.449,1.481,19.192,19.192,0,0,1-.523,2.078c-.319,2.085,1.194,3.285,3.143,2.5,1.6-.645,2.788-1.642,2.924-3.54a4.369,4.369,0,0,0-2.12-4.385,10.062,10.062,0,0,0-7.858-.994,16.185,16.185,0,0,0-6.209,3.227,8.352,8.352,0,0,1-1.785,1.207,1.678,1.678,0,0,1-2.156-.632,1.7,1.7,0,0,1-.029-2.03,3.957,3.957,0,0,1,.707-.816c3.32-2.933,7.451-5.218,12.495-5.1Z" transform="translate(-178.662 -133.841)" fill="#262c54"/>
    <path id="Path_18299" data-name="Path 18299" d="M219.833,310c-1.423-.216-2.862-.352-4.26-.671-1.546-.352-2.12-1.249-1.791-2.469.281-1.039,1.084-1.41,2.646-1.217a30.274,30.274,0,0,0,3.214.378c3.8.061,7.293-1.275,10.642-2.84a22.737,22.737,0,0,0,8.667-6.8,5.044,5.044,0,0,1,.72-.807,1.772,1.772,0,0,1,2.249-.213,1.641,1.641,0,0,1,.594,2.159,8.647,8.647,0,0,1-1.42,2.278,28.149,28.149,0,0,1-12.533,8.238c-2.811.939-5.628,2.043-8.729,1.965Z" transform="translate(-144.736 -199.839)" fill="#262c54"/>
    <path id="Path_18300" data-name="Path 18300" d="M275.175,131.83a26.388,26.388,0,0,1,14.215,4.147,47.078,47.078,0,0,1,5.344,4.124,7.478,7.478,0,0,1,1.3,1.72,1.65,1.65,0,0,1-.2,2.233,1.894,1.894,0,0,1-2.494.1,3.88,3.88,0,0,1-.784-.742,23.662,23.662,0,0,0-13.011-7.332,34.416,34.416,0,0,0-6.47-.313A8.725,8.725,0,0,0,272,135.9c-1.665.152-2.41-.187-2.64-1.187-.287-1.262.423-2.236,2.139-2.549a32.359,32.359,0,0,1,3.672-.329Z" transform="translate(-182.398 -89.284)" fill="#262c54"/>
    <path id="Path_18301" data-name="Path 18301" d="M104.808,138.717a20.729,20.729,0,0,0-7.6,1.862,26.324,26.324,0,0,0-9.952,6.87,4.466,4.466,0,0,1-.8.716,1.634,1.634,0,0,1-2.23-.023,1.682,1.682,0,0,1-.4-2.214,10.547,10.547,0,0,1,1.749-2.381,33.215,33.215,0,0,1,18.329-8.684,7.566,7.566,0,0,1,2.92.29,1.829,1.829,0,0,1,1.555,2.191c-.158,1.023-.787,1.446-2.217,1.465-.361,0-.723-.045-1.346-.09Z" transform="translate(-56.599 -91.308)" fill="#262c54"/>
    <path id="Path_18302" data-name="Path 18302" d="M68.977,303.831c-.106,1.481-1.365,2.388-2.369,1.878a10.567,10.567,0,0,1-2.582-1.926,35.938,35.938,0,0,1-6.66-9.829c-.642-1.294-1.22-2.62-1.791-3.95s-.378-2.349.49-2.872c.962-.578,1.981-.158,2.846,1.229a13.342,13.342,0,0,1,.862,1.684c2.014,4.589,4.453,8.877,8.242,12.285a5.794,5.794,0,0,1,.965,1.5Z" transform="translate(-37.421 -194.301)" fill="#262c54"/>
    <path id="Path_18303" data-name="Path 18303" d="M298.57,393.32c-1.52-.006-2.23-.474-2.359-1.471-.129-.974.413-1.733,1.665-2.133a18.974,18.974,0,0,1,2.895-.687,18.853,18.853,0,0,0,9.229-4.26,13.56,13.56,0,0,1,2.52-1.581c1.184-.6,2.143-.394,2.64.429a1.987,1.987,0,0,1-.639,2.643c-1.252,1.033-2.582,1.975-3.921,2.888A25.7,25.7,0,0,1,298.57,393.32Z" transform="translate(-200.614 -259.298)" fill="#262c54"/>
    <path id="Path_18304" data-name="Path 18304" d="M16.35,103.522c.223-.8.326-1.239.465-1.668a62.969,62.969,0,0,1,6.764-13.863c.768-1.22,1.772-1.565,2.707-1.091a1.9,1.9,0,0,1,.658,2.795c-.916,1.765-2.01,3.44-2.878,5.228-1.226,2.514-2.32,5.092-3.466,7.648a16.611,16.611,0,0,1-.752,1.733,1.676,1.676,0,0,1-2.307.82c-.584-.329-.884-1.165-1.191-1.6Z" transform="translate(-11.074 -58.714)" fill="#262c54"/>
    <path id="Path_18305" data-name="Path 18305" d="M421.569,179.18c0,.271.019.542,0,.81a1.755,1.755,0,0,1-1.733,1.736,1.735,1.735,0,0,1-1.788-1.355,8.079,8.079,0,0,1-.278-1.31c-.513-2.82-1-5.647-1.536-8.464-.355-1.868-.058-2.9,1.033-3.23,1.262-.384,2.217.307,2.662,2.285.71,3.146,1.258,6.325,1.875,9.49-.077.013-.155.029-.232.042Z" transform="translate(-281.821 -113.284)" fill="#262c54"/>
    <path id="Path_18306" data-name="Path 18306" d="M45.385,247.192c.029,1.313-.2,2.162-1.307,2.4a1.7,1.7,0,0,1-2.159-1.194c-.6-2.446-1.068-4.927-1.475-7.415a1.765,1.765,0,0,1,3.475-.613C44.5,242.732,44.95,245.13,45.385,247.192Z" transform="translate(-27.376 -161.828)" fill="#262c54"/>
    <path id="Path_18307" data-name="Path 18307" d="M73.9,46.09c.287.2.968.442,1.2.907a2.186,2.186,0,0,1-.026,1.755,5.771,5.771,0,0,1-1.533,1.475c-1.32,1.075-2.678,2.1-3.988,3.188-1.11.923-1.82,1.087-2.627.487-.926-.687-1.094-1.7-.255-2.859a16.288,16.288,0,0,1,6.38-4.834,4.105,4.105,0,0,1,.849-.119Z" transform="translate(-44.787 -31.212)" fill="#262c54"/>
    <path id="Path_18308" data-name="Path 18308" d="M415.34,248.039c.62-1.578,1.168-3.185,1.888-4.718a1.6,1.6,0,0,1,2.049-.862,1.728,1.728,0,0,1,1.21,2.146,39.873,39.873,0,0,1-1.578,4.573,1.618,1.618,0,0,1-1.991,1c-1.078-.242-1.362-1.058-1.575-2.143Z" transform="translate(-281.314 -164.144)" fill="#262c54"/>
    <path id="Path_18309" data-name="Path 18309" d="M186.141,317.06a3.336,3.336,0,0,1,2.778,1.7,1.993,1.993,0,0,1,.087,1.72c-.358.494-1.31,1.078-1.72.913a6.846,6.846,0,0,1-2.775-1.923c-.807-1.02.145-2.391,1.626-2.414Z" transform="translate(-124.772 -214.742)" fill="#262c54"/>
  </g>
</svg>
