<svg id="_40" data-name="40" xmlns="http://www.w3.org/2000/svg" width="142.805" height="143.288" viewBox="0 0 142.805 143.288">
  <g id="Group_17235" data-name="Group 17235" transform="translate(15.631 13.249)">
    <path id="Path_18310" data-name="Path 18310" d="M275.483,181.266a8.576,8.576,0,0,0-4.8-4.915,7.758,7.758,0,0,0-3.672-.649.161.161,0,0,0-.039.006,6.38,6.38,0,0,0-3.785,1.055,2.017,2.017,0,0,0-.813,2.391,3.005,3.005,0,0,0-.658,1.739c0,.965,1.239,1.891,2.12,1.217.048-.032.09-.065.132-.1a2.13,2.13,0,0,0,.484.3,1.981,1.981,0,0,0,1.681-.094c-.2.084.174-.055.213-.068.161-.048.329-.077.494-.116l.987-.232c.468-.11.926-.21,1.375-.352.4.207.791.419,1.175.645q.474.281.929.591c.152.1.3.213.449.316.087.065.132.1.142.107.058.045.116.09.171.139a2.108,2.108,0,0,0,2.469.319,2.068,2.068,0,0,0,.936-2.3Z" transform="translate(-192.894 -132.239)" fill="#75757c"/>
    <path id="Path_18311" data-name="Path 18311" d="M156.129,181.335a1.64,1.64,0,0,0-.323-.836,2.233,2.233,0,0,0,.077-1.165,7.307,7.307,0,0,0-6.038-5.6,8.944,8.944,0,0,0-4.679.516l-.026.01a9.338,9.338,0,0,0-4.334,2.562,1.976,1.976,0,0,0,2.795,2.794,8.185,8.185,0,0,1,.62-.587c.023-.016.055-.042.084-.065a1.491,1.491,0,0,0,1.381.645h.032c.323.026.642.032.962.032.336.052.668.139,1.068.232a13.87,13.87,0,0,1,2.236.713,13.394,13.394,0,0,1,1.775.952,16.036,16.036,0,0,0,1.985,1.423c.991.436,2.523-.042,2.4-1.381-.006-.081-.013-.161-.023-.242Z" transform="translate(-110.614 -130.846)" fill="#75757c"/>
    <path id="Path_18312" data-name="Path 18312" d="M107.387,288.524c-.655.574-1.313,1.149-1.968,1.72.42-.536.833-1.075,1.258-1.607a1.123,1.123,0,0,0-1.588-1.588l-.858.736q1.225-1.365,2.452-2.727a1.128,1.128,0,0,0-1.594-1.594,104.685,104.685,0,0,1-10.8,9.2c2.11-2.452,4.218-4.908,6.347-7.348a1.083,1.083,0,0,0-.458-1.791c1.046-.987,2.088-1.981,3.146-2.953.9-.826-.294-2.427-1.323-1.717-2.072,1.43-4.121,2.891-6.167,4.36q1.655-1.81,3.295-3.624c.691-.762-.255-2.207-1.165-1.51l-2.285,1.743c.445-.51.884-1.026,1.31-1.549.545-.671-.19-1.939-1.016-1.32l-7.257,5.441c-.507.381-.052,1.236.513.874s1.117-.716,1.678-1.075a103.182,103.182,0,0,1-7.874,7.309c-.781.642.268,2.026,1.091,1.413,1.026-.765,2.046-1.539,3.066-2.307-.81.833-1.617,1.662-2.407,2.507-.939,1.007.342,2.924,1.549,2.01q1.689-1.278,3.4-2.533-3.141,2.933-6.27,5.866c-1.162,1.094.526,2.675,1.717,1.717q1.98-1.6,3.934-3.224c-.568.642-1.142,1.281-1.707,1.926a1.226,1.226,0,0,0,1.478,1.917,42.137,42.137,0,0,0,4.234-2.449q-1.985,2.159-3.943,4.337a1.251,1.251,0,0,0,1.768,1.768c2.02-1.784,4.053-3.559,6.079-5.337-.407.513-.816,1.02-1.217,1.536a1.24,1.24,0,0,0,1.752,1.752l5.944-5.3c-.161.326-.329.649-.478.981-.271.6.465,1.323.984.758a55.579,55.579,0,0,0,5.218-6.912c.771-1.155-.881-2.246-1.833-1.413Z" transform="translate(-71.682 -200.719)" fill="#eb8486"/>
    <path id="Path_18313" data-name="Path 18313" d="M165.762,104.409c1.284-1.117-.571-2.927-1.855-1.855-6.254,5.2-12.578,10.316-18.929,15.408.061-.065.123-.126.184-.187,3.1-3.175,6.18-6.367,9.177-9.636,1.552-1.691,3.1-3.385,4.608-5.118a24.053,24.053,0,0,0,3.959-5.286.48.48,0,0,0-.652-.652,25.174,25.174,0,0,0-4.921,4.324c-.326.326-.649.662-.975.991a1.446,1.446,0,0,0-1.323-1.907c.165-.165.336-.323.5-.484,1.11-1.1,2.2-2.23,3.256-3.388.907-1,2.1-2.075,2.236-3.472.045-.465-.449-.681-.82-.626-1.346.2-2.44,1.559-3.375,2.456q-1.694,1.626-3.366,3.279-3.267,3.219-6.57,6.4c-2.811,2.72-5.628,5.428-8.493,8.083-2.256,1.681-4.5,3.369-6.773,5.031q-.833.61-1.672,1.22,10.015-9.444,19.978-18.935,5.6-5.339,11.194-10.675c1.307-1.246-.613-3.082-1.955-1.955q-9.182,7.73-18.461,15.354,3.127-2.967,6.254-5.938,5.421-5.15,10.839-10.3c1.307-1.249-.591-3-1.936-1.936-7.077,5.579-14.124,11.207-21.2,16.8q5.484-4.874,11.017-9.69,5.111-4.439,10.291-8.8c1.2-1.01-.513-2.665-1.707-1.707q-5.576,4.477-11.049,9.074c.607-.558,1.223-1.1,1.83-1.665,4.076-3.759,8.161-7.5,12.207-11.291,1.065-1-.339-2.891-1.581-2.049-.8.542-1.584,1.1-2.378,1.642a1.442,1.442,0,0,0-2.072-.762q-6.941,4.6-13.743,9.4c3.043-2.643,6.105-5.273,9-8.064a1.32,1.32,0,0,0-.139-1.92c2.517-2.091,5-4.218,7.428-6.422a.727.727,0,0,0-.878-1.136c-8.2,5.392-15.918,11.5-23.66,17.532.158.084.323.165.478.255,3.317,1.933.313,7.086-3.011,5.15a8.168,8.168,0,0,0-2.969-1.052c-6.034,4.837-11.959,9.832-17.709,14.983q-6.239,5.586-12.262,11.414a1.27,1.27,0,0,0-.4,1.223l-8.929,6.205q4.647-4.715,9.3-9.423c4.711-4.176,9.381-8.4,14.131-12.54q2.667-2.241,5.334-4.469c2.007-1.684,4.04-3.34,6.06-5.008-2.278.658-5.108-1.723-3.5-4.285,2.743-4.379,8-4.821,12.372-2.978,3.275-2.649,6.554-5.3,9.865-7.9,4.7-3.7,9.519-7.248,14.176-10.994,1.02-.82-.081-2.572-1.265-2.175a12.4,12.4,0,0,0-5.376,3.808.584.584,0,0,0-.11.207c-3.8,2.914-7.545,5.921-11.268,8.945,1.2-1.029,2.388-2.059,3.588-3.085q2.556-2.183,5.108-4.372c.794-.681,1.584-1.359,2.362-2.056a10.636,10.636,0,0,0,2.281-2.349.611.611,0,0,0-.681-.887,9.534,9.534,0,0,0-2.724,1.562c.726-1.036-.629-2.511-1.823-1.852-3.885,2.152-7.619,4.518-11.255,7.022q3.393-2.817,6.786-5.637a1.056,1.056,0,0,0,.4-.842c1.346-1.22,2.685-2.449,4-3.711.52-.5-.181-1.462-.787-1.02-1.491,1.087-2.956,2.21-4.424,3.33a1.088,1.088,0,0,0-.771.19q-5.4,3.722-10.626,7.677,4.022-3.533,8.061-7.057,3.964-3.461,7.964-6.889a5.855,5.855,0,0,1-.994-2.446c-11.862,9.958-23.637,20.029-35.005,30.549a1.416,1.416,0,0,0-1.146.271c-1.63,1.146-3.24,2.317-4.856,3.482,2.817-2.556,5.6-5.157,8.371-7.761Q117.5,72.085,126.894,63c1.71-1.646,3.408-3.311,5.073-5,1.788-1.814,3.421-3.743,5.128-5.618a.648.648,0,0,0-.916-.916c-3.414,2.74-6.815,5.453-10.055,8.413q-4.826,4.41-9.629,8.842c-.323.3-.642.6-.965.894q-1.215.745-2.407,1.536,3.456-3.892,6.993-7.712,4.831-5.194,9.755-10.3c.894-.933-.31-2.691-1.439-1.865q-2.851,2.081-5.66,4.224c2.162-2.181,4.334-4.356,6.486-6.551,1.22-1.242-.565-2.885-1.862-1.862q-8.989,7.1-17.742,14.486l.035-.035q5.726-5.7,11.452-11.407c1.165-1.162-.549-2.775-1.772-1.772Q108.59,57.191,97.8,66.015c4.2-4.095,8.38-8.2,12.5-12.366q4.947-4.99,9.981-9.9c1.171-1.142-.536-2.714-1.752-1.752-5.137,4.059-10.116,8.3-15,12.659q3.911-4.1,7.825-8.206c1.087-1.139-.529-2.682-1.7-1.7Q96.189,55.991,82.673,67.183q-1.646,1.249-3.269,2.533,8.1-8.151,16.2-16.3Q100.8,48.2,106.026,43.023c1.094-1.091-.516-2.617-1.668-1.668l-24.5,20.223q9.056-8.771,18.132-17.525c1.152-1.11-.526-2.669-1.717-1.717q-12.309,9.84-24.608,19.7c.323-.3.636-.613.962-.91C78.507,55.737,84.593,50.6,90.779,45.56c.987-.807-.274-2.278-1.32-1.71a119.967,119.967,0,0,0-28.91,21.759.678.678,0,0,0,.958.958,139.056,139.056,0,0,1,17.186-13.7q-3.824,3.34-7.567,6.767c-5.879,5.389-11.8,10.729-17.283,16.531a1.24,1.24,0,0,0,.442,2.065c-.658.671-1.307,1.355-1.936,2.052-.674.752-.29,2.385.926,2.239.29-.035.581-.068.871-.1A1.431,1.431,0,0,0,55.4,80.92q1.636-1.646,3.346-3.195-1.394,1.684-2.788,3.366c-.507.487-1.013.971-1.517,1.459a1.192,1.192,0,0,0-.4.855q-2.236,2.7-4.472,5.4c-1.155,1.394.749,3.395,2.023,2.023a95.557,95.557,0,0,1,10-9.293c-3.1,4.514-6.186,9.048-9.323,13.54a1.257,1.257,0,0,0-.255.774c-.623.72-1.258,1.43-1.872,2.159a1.538,1.538,0,0,0,1.016,2.52c-.784.862-1.575,1.72-2.359,2.585-1.058,1.165.394,3.385,1.784,2.314l.374-.287c-.029.071-.055.142-.084.213-.61,1.526-1.817,3.492-1.007,5.157a2.437,2.437,0,0,0,1.217,1.275,1.608,1.608,0,0,0,1.388,2.172c-.077.126-.161.252-.236.378a1.422,1.422,0,0,0,1.775,2.026c-1.342,1.4-2.675,2.8-3.982,4.224a1.518,1.518,0,0,0,2.146,2.146c.8-.752,1.613-1.488,2.42-2.236-.713.962-1.426,1.923-2.117,2.9-.965,1.362.855,2.73,2.107,2.107a5.582,5.582,0,0,0,1.468-1.229.759.759,0,0,0,.174-.781c1.613-2.143,3.182-4.321,4.734-6.512q4.55-3.2,9.051-6.473-5.073,4.836-10.149,9.671c-1.533,1.462.733,3.656,2.3,2.3q2.386-2.062,4.8-4.092-1.956,2.43-3.759,4.979a1.427,1.427,0,0,0-.268.687c1.791-2.5,4.811-5.683,7.751-6.835a3.01,3.01,0,0,1,2.072-1.081,6.417,6.417,0,0,1,2.927.439c2.83-2.4,5.686-4.773,8.59-7.083a1.061,1.061,0,0,0,.9-.194c.739-.545,1.484-1.081,2.227-1.617q-5.15,4.773-10.2,9.645a13.329,13.329,0,0,1,3.2,2.836q6.365-5.121,13.046-9.845c-2.156,1.936-4.289,3.9-6.347,5.938a1.307,1.307,0,0,0-.416,1.136q-2.386,2.449-4.773,4.889a14.559,14.559,0,0,1,1.975,5.147q5.024-3.485,10.045-6.973a1.594,1.594,0,0,0,2.178.716.01.01,0,0,0,0,.006.177.177,0,0,0,.029-.023,1.767,1.767,0,0,0,.287-.223.148.148,0,0,0,.023-.023c.487-.374.962-.765,1.442-1.149q-10.3,11.37-20.549,22.772a1.327,1.327,0,0,0,.726,2.246c-.281.287-.568.568-.849.855-1.246,1.278.62,3.091,1.939,1.939,9.271-8.09,18.393-16.341,28.536-23.25q-1.805,1.859-3.608,3.717c-.975.758-1.952,1.517-2.92,2.281-2.675,2.107-5.305,4.272-7.951,6.415-1.352,1.094-2.688,2.21-4.014,3.337a20.3,20.3,0,0,0-3.521,3.44c-.374.52.258,1.4.874,1.139A13.355,13.355,0,0,0,89,143.245q-2.565,2.517-5.121,5.037c-1.078,1.065.39,3.133,1.672,2.168.455-.345.91-.694,1.365-1.039-.145.132-.294.261-.439.394-1.4,1.252.616,3.14,2.02,2.02q8.563-6.815,17.022-13.743c-2.614,2.149-5.189,4.34-7.69,6.622-2.769,2.53-5.97,5.189-7.961,8.4a.736.736,0,0,0,1,1,19.79,19.79,0,0,0,2.675-1.91c-.926,1.229.552,3.153,1.991,2.243.532-.339,1.065-.684,1.6-1.023a1.6,1.6,0,0,0,2.507.2c2.365-2.265,4.966-4.227,7.512-6.292.765-.62,1.517-1.258,2.278-1.885q1.912-1.239,3.834-2.459c-.549.568-1.1,1.133-1.646,1.7a1.326,1.326,0,0,0-.294,1.581q-2.59,2.459-5.115,4.982c-1.226,1.236.381,3.475,1.9,2.469,3.75-2.475,7.6-4.811,11.462-7.115-1.746,1.688-3.521,3.362-5.14,5.153-1.049,1.162.349,3.3,1.772,2.294,2.891-2.056,5.873-3.988,8.855-5.918a1.484,1.484,0,0,0,2.172.62c2.2-1.63,4.308-3.433,6.444-5.157A61.288,61.288,0,0,1,140.818,139c2.323-1.388,4.679-2.707,7.06-3.979q-1.38,1.273-2.772,2.523c-1.465,1.313-2.988,2.556-4.44,3.882a44.169,44.169,0,0,1-4.957,4.237c-.7.468-.042,1.6.662,1.133,1.733-1.162,3.659-2.091,5.428-3.217a48.637,48.637,0,0,0,5-3.753,86.25,86.25,0,0,0,8.99-8.919,1.333,1.333,0,0,0-1.607-2.085c-2.491,1.226-4.95,2.533-7.373,3.9q5.218-4.182,10.478-8.316c1.371-1.075-.436-3.43-1.875-2.43q-6.66,4.637-13.334,9.248c6.044-5.344,11.969-10.817,18.006-16.17,1.171-1.039-.336-2.924-1.652-2.143-3.3,1.956-6.538,4-9.742,6.105q3.146-2.691,6.292-5.382,5.407-4.608,10.778-9.258Zm-58.617-10.8a1.24,1.24,0,0,0,.407-1.378c.039-.032.074-.061.113-.09,6.341-5.208,12.643-10.465,19.261-15.315q-3.7,3.166-7.406,6.315-6.457,5.47-12.911,10.942c.181-.155.355-.316.536-.471Zm1.607,2.546q2.086-1.8,4.179-3.592-2.483,2.527-4.924,5.1c-.8.674-1.591,1.355-2.388,2.033a1.4,1.4,0,0,0-.716-.268c1.284-1.091,2.572-2.181,3.85-3.279Zm-50.23,4.179c-1.291,1.239-2.546,2.514-3.792,3.8l1.084-2.711,4.937-3.795a1.366,1.366,0,0,0,.081.523c-.774.723-1.549,1.449-2.31,2.181Zm59.033-37.819c.132-.106.271-.207.4-.313q-2.8,2.972-5.56,5.979a.748.748,0,0,0-1.071-.2,38.119,38.119,0,0,0-4.731,4.543q-2.333,2.469-4.7,4.9-2.531,2.609-5.066,5.215a.646.646,0,0,0-.726-.1,18.774,18.774,0,0,0-1.668.881q2.067-1.965,4.121-3.943,4.4-4.269,8.761-8.571,5.039-4.293,10.233-8.4ZM77.28,60.6q-4.076,3.911-8.145,7.828a1.517,1.517,0,0,0-.626-.794Q72.89,64.114,77.28,60.6Zm-8.016,15.17a1.413,1.413,0,0,0-.355-1.9Q77.555,66.688,86.2,59.5,77.055,68.613,67.9,77.716c.455-.649.916-1.294,1.368-1.946Zm4.011,4.892q6.191-5.784,12.014-11.949a1.306,1.306,0,0,0,.352-.794L94.286,60.7C86.509,68.758,78.762,76.841,71.22,85.109c-.884.971-1.749,1.962-2.623,2.943q-3.35,2.546-6.7,5.1,5.687-6.239,11.372-12.482Zm-3.414,21.249a1.385,1.385,0,0,0-.426-.161,1.262,1.262,0,0,0,.265-.2c.136-.132.274-.261.41-.4l1.071-.794-1.317,1.549Zm16.78,1.626c-1.229.939-2.449,1.885-3.659,2.849,1.423-1.265,2.875-2.5,4.337-3.721a1.039,1.039,0,0,0,.09.077c-.258.265-.513.529-.771.794Zm4.585-10.562c-.419.455-.845.907-1.265,1.365a1.735,1.735,0,0,0-.187-.316c.4-.4.8-.807,1.2-1.21a2.91,2.91,0,0,1-.558-.539,5.389,5.389,0,0,0-1.8-1.41q-4.5,4.419-9.045,8.793-3.432,2.488-6.857,4.976c2.372-2.172,4.756-4.33,7.186-6.441q4.24-3.684,8.548-7.29l.094-.077a10.512,10.512,0,0,0-2.746-.858,11.589,11.589,0,0,0-1.981-.2c-.407.41-.82.81-1.226,1.223a1.925,1.925,0,0,0-.319-.881.835.835,0,0,0-.332.4,3.158,3.158,0,0,1-5.5.771q-2.759,2.754-5.521,5.512-1.53,1.133-3.056,2.269a1.268,1.268,0,0,0-.536-1.568c1.865-2.149,3.743-4.289,5.612-6.438q1.868-1.626,3.746-3.249a7.243,7.243,0,0,1,3.753-3.256c1.559-1.352,3.114-2.714,4.679-4.059a.566.566,0,0,0,.11-.733q7.812-6.438,15.625-12.875-8.466,8.466-16.932,16.928a14.506,14.506,0,0,1,4.053.378q10.349-9.526,21.062-18.655c-.339.336-.674.674-1.013,1.007q-4.037,3.988-8.125,7.929Q94.41,79.387,89.126,84.508a11.635,11.635,0,0,1,5.505,3.543,3.369,3.369,0,0,1,.4.645l.871-.9c-.268.355-.542.707-.807,1.065,1.033,2.523-1.707,5.37-3.869,4.108Zm51.063,20.133q-2.488,2.551-4.969,5.1a1.587,1.587,0,0,0-.762-.787q2.866-2.159,5.731-4.314Zm-10.007,10.271q-1.433,1.471-2.869,2.943a1.344,1.344,0,0,0-.361-.271c1.075-.894,2.146-1.791,3.227-2.672ZM113.028,107.19a1.353,1.353,0,0,0,.142-.194c1.536-1.184,3.075-2.372,4.608-3.543q2.44-1.868,4.9-3.708c-4.766,4.079-9.506,8.2-14.144,12.42q2.246-2.488,4.5-4.976Zm-7.261,12.291c-.929.858-1.872,1.7-2.749,2.614-.345.281-.694.558-1.036.842q-5.692,4.535-11.388,9.068c.81-.894,1.623-1.788,2.43-2.682a1.077,1.077,0,0,0,.991-.216c7.787-6.367,15.06-13.392,22.582-20.065q9.647-8.563,19.555-16.822-12.193,10.75-24.266,21.633c-2.062,1.852-4.085,3.75-6.121,5.631Zm11.843,1q-4.526,4.264-9.055,8.532-4.472,3.461-8.942,6.928c.549-.555,1.091-1.117,1.643-1.668q1-1,2-2c5.2-4.179,10.375-8.454,15.228-13.033.558-.526-.174-1.513-.833-1.078-.329.219-.649.452-.978.671.087-.09.177-.177.265-.268a1.26,1.26,0,0,0,.355-.655c6.057-4.869,12.188-9.648,18.351-14.392q-9.027,8.471-18.038,16.957Zm2.094,3.388,2.93-2.449c-.823.774-1.652,1.542-2.478,2.317A.8.8,0,0,0,119.7,123.87Zm19.074,6.038q-5.024,4.434-10.049,8.871a1.242,1.242,0,0,0-1.313.01q-2.6,1.549-5.2,3.117c6.877-5.424,13.808-10.791,20.959-15.838q-2.207,1.912-4.4,3.837Z" transform="translate(-48.433 -41.057)" fill="#eac485"/>
  </g>
  <g id="Group_17236" data-name="Group 17236">
    <path id="Path_18314" data-name="Path 18314" d="M96.559,148.194c-4.256-.816-8.535-1.542-12.759-2.5-1.4-.319-2.427-.468-3.256.91A28.5,28.5,0,0,1,66.81,158.584c-1.378.574-1.455,1.555-.21,2.385a46.289,46.289,0,0,0,15.976,6.767,23.683,23.683,0,0,1,4.163,1.168c.523.219,1.2,1.317,1.042,1.652a3.292,3.292,0,0,1-1.826,1.633,6.465,6.465,0,0,1-2.682-.207,50.624,50.624,0,0,1-19.09-7.693c-3.185-2.085-6.454-4.066-9.448-6.4a10.6,10.6,0,0,1-3.566-4.614,25.972,25.972,0,0,0-4.285-7.483c-5.883-7.854-8.458-16.944-8.616-26.561-.31-19.107,6.292-35.625,20-49.059,2.824-2.769,6.283-4.915,9.59-7.138.62-.416,1.9.155,2.878.268a8.106,8.106,0,0,1-.807,2.817c-.626.823-1.775,1.233-2.636,1.9-19.778,15.3-27.655,35.357-23.827,59.995a34.627,34.627,0,0,0,5.734,14.04c1.091,1.62,1.826,1.642,2.662-.09a28.818,28.818,0,0,1,11.578-12.708,3.6,3.6,0,0,0,1.778-3.1c.077-.674.987-1.726,1.549-1.746a3.2,3.2,0,0,1,2.068,1.381c.758,1,1.207,2.236,1.872,3.317,12.446,20.249,38.584,18.455,51.353,2.291,1.291-1.633,1.133-3.266,1.1-5.1s1.836-2.74,2.917-1.4c1.581,1.962,3.653,2.891,5.76,3.95a2.073,2.073,0,0,1,.894,1.733c-.084.529-1.033,1.423-1.375,1.329-4.311-1.175-6.1,2.13-8.454,4.527-7.2,7.328-15.657,11.775-26.338,11.749Zm-35.522,7.464c5.518-.016,14.576-6.444,16.047-11.585a3.581,3.581,0,0,0-.887-2.794c-1.688-1.885-3.7-3.475-5.418-5.334-4.111-4.453-4.372-4.527-8.909-.594a24.422,24.422,0,0,0-3.024,3.117c-2.427,3.014-4.308,6.312-4.418,10.307-.119,4.3,2.42,6.9,6.612,6.886Z" transform="translate(-25.91 -42.593)" fill="#262c54"/>
    <path id="Path_18315" data-name="Path 18315" d="M84.478,0c19.565.352,35.877,6.354,50.659,16.828,1.268.9,3.346,1.926,2.13,3.763-1.507,2.275-3.237.319-4.621-.632a89,89,0,0,0-30.62-13.9C72.668-.72,44.52,11.152,28.879,37a50.386,50.386,0,0,1-2.94,4.576c-.332.432-1.549.765-1.859.513a2.9,2.9,0,0,1-1.1-2.12,8.072,8.072,0,0,1,1.252-2.982C38.014,13.453,58.4.913,84.478,0Z" transform="translate(-15.556)" fill="#262c54"/>
    <path id="Path_18316" data-name="Path 18316" d="M279.156,166.784c-.419,17.813-7.767,33-22.614,44.341-10.381,7.932-22.266,12.143-35.225,13.411-1.584.155-3.382.726-4.276-1.271-.555-1.239.774-1.965,3.863-2.643,5.847-1.284,11.872-2.156,17.441-4.227,17.164-6.38,29.4-17.906,34.641-35.841,3.6-12.317,2.34-24.47-2.3-36.345a28.927,28.927,0,0,1-1.475-4.64,2.007,2.007,0,0,1,.965-1.672,2.132,2.132,0,0,1,1.952.374,10.119,10.119,0,0,1,1.617,2.807,66.447,66.447,0,0,1,5.408,25.706Z" transform="translate(-146.919 -93.333)" fill="#262c54"/>
    <path id="Path_18317" data-name="Path 18317" d="M139.491,411.7a87.235,87.235,0,0,1-36.351-8.516,23.967,23.967,0,0,1-4.053-2.659,1.513,1.513,0,0,1-.207-1.478c.348-.526,1.11-1.22,1.581-1.142a13.105,13.105,0,0,1,3.55,1.233,79.4,79.4,0,0,0,41.2,7.948c10.323-.707,20-3.366,28.661-9.242,1.252-.849,2.546-2.436,4.26-.926,1.129,1,.439,2.51-2.02,4.253a53.979,53.979,0,0,1-22.579,8.961c-4.634.784-9.355,1.058-14.037,1.562Z" transform="translate(-66.897 -268.41)" fill="#262c54"/>
    <path id="Path_18318" data-name="Path 18318" d="M132.125,171.8a9.952,9.952,0,0,1,7.2,1.907,2.1,2.1,0,0,1,.507,1.881c-.187.516-.991.929-1.607,1.129a2.649,2.649,0,0,1-1.588-.19c-4.256-1.568-7.754-.361-10.875,2.727-.684.678-2.327,1.5-2.627,1.233a4.867,4.867,0,0,1-1.639-3.056c-.323-7.506,8.564-15.437,15.973-14.4,6.728.936,11.862,8.19,10.362,14.789-.168.742-1.036,1.326-1.581,1.985-.716-.668-1.8-1.217-2.065-2.03-.49-1.523-.313-3.256-.762-4.8-.926-3.2-3.037-5.411-6.434-5.844-3.537-.452-6.305,1.171-8.454,3.9a.954.954,0,0,0-.016.916,1.31,1.31,0,0,0,.965.287c.72-.058,1.43-.223,2.646-.426Z" transform="translate(-82.28 -110.359)" fill="#262c54"/>
    <path id="Path_18319" data-name="Path 18319" d="M266.456,178.781c-.407.774-.707,2.062-1.22,2.152a4.5,4.5,0,0,1-2.688-.826c-3.895-2.275-7.8-4.6-12.446-2.214-1.4.723-2.5,2.02-3.792,2.972-1.855,1.365-3.472.732-4.018-1.517a9.1,9.1,0,0,1-.177-1.068c-.6-5.092,6.457-14.821,13.876-13.931,4.189.5,7.215,2.5,8.638,6.4A62.812,62.812,0,0,1,266.456,178.781Zm-14.35-5.657c.032-.187.068-.371.1-.558,2.423.455,4.847.933,7.277,1.339.449.074,1.188,0,1.362-.271a1.892,1.892,0,0,0-.013-1.494,5.96,5.96,0,0,0-5.444-3.8c-2.281-.181-5.75,1.988-6.586,4.056-.1.236.4,1.02.629,1.026A18.437,18.437,0,0,0,252.106,173.124Z" transform="translate(-163.961 -111.277)" fill="#262c54"/>
    <path id="Path_18320" data-name="Path 18320" d="M180.4,34.8c5.524.971,11.072,1.855,16.573,2.975a11.959,11.959,0,0,1,4.4,2.075c.7.5.884,1.73,1.3,2.63-.923.281-1.836.616-2.775.813-.3.061-.671-.239-1.007-.378-11.252-4.66-22.717-4.166-34.273-1.4a26.63,26.63,0,0,1-3.692.926,2.1,2.1,0,0,1-1.636-1.087,2.013,2.013,0,0,1,.39-1.891,11.3,11.3,0,0,1,3.895-1.82C169.1,36.6,174.656,35.755,180.4,34.8Z" transform="translate(-107.831 -23.57)" fill="#262c54"/>
    <path id="Path_18321" data-name="Path 18321" d="M411.169,129.861a11.722,11.722,0,0,1-.4,2.294c-.148.426-.771.991-1.146.965a2.384,2.384,0,0,1-1.778-.823,12.922,12.922,0,0,1-.765-3.108c-1.039-5.134-1.952-10.3-3.133-15.4a36.629,36.629,0,0,0-5.97-13.272,9.372,9.372,0,0,1-1.513-2.82,2.124,2.124,0,0,1,.72-1.839,1.98,1.98,0,0,1,1.914.058,40.4,40.4,0,0,1,4.776,6.505c4.427,8.467,6.128,17.712,7.293,27.442Z" transform="translate(-268.506 -64.778)" fill="#262c54"/>
    <path id="Path_18322" data-name="Path 18322" d="M335.84,83.807c-.9.481-1.655,1.226-2.3,1.142a4.689,4.689,0,0,1-2.181-1.417c-3.433-3.208-6.828-6.457-10.223-9.7a5.316,5.316,0,0,1-1.4-1.623,2.41,2.41,0,0,1,.055-1.994,2.671,2.671,0,0,1,1.9-.632,2.927,2.927,0,0,1,1.442.7,44.042,44.042,0,0,1,11.052,10.394,27.759,27.759,0,0,1,1.655,3.137Z" transform="translate(-216.426 -47.127)" fill="#262c54"/>
    <path id="Path_18323" data-name="Path 18323" d="M33.786,335.59c.768.455,1.381.616,1.652,1.013,2.456,3.572,4.931,7.138,7.2,10.826.423.687-.045,1.923-.1,2.9-.968-.181-2.391-.023-2.833-.6-2.5-3.311-4.8-6.776-7.09-10.245a2.665,2.665,0,0,1-.394-2.039C32.473,336.732,33.238,336.2,33.786,335.59Z" transform="translate(-21.771 -227.298)" fill="#262c54"/>
    <path id="Path_18324" data-name="Path 18324" d="M4.268,221.941a25.356,25.356,0,0,1,.145,4.33,2.948,2.948,0,0,1-1.52,1.839c-.329.168-1.455-.461-1.681-.968-1.61-3.614-1.388-7.409-.684-11.178C.615,215.5,1.6,214.89,2.164,214.9s1.533.632,1.617,1.11c.339,1.946.407,3.943.574,5.918-.029,0-.058,0-.09.006Z" transform="translate(0.006 -145.554)" fill="#262c54"/>
    <path id="Path_18325" data-name="Path 18325" d="M427.352,249.717c-1.42,3.575-2.749,7.073-4.24,10.5-.174.4-1.317.71-1.839.539a2.02,2.02,0,0,1-1.155-1.533,15.772,15.772,0,0,1,.833-3.63,64.429,64.429,0,0,1,2.259-6.618c.342-.791,1.426-1.259,2.175-1.875.584.774,1.165,1.552,1.968,2.62Z" transform="translate(-284.547 -167.363)" fill="#262c54"/>
  </g>
</svg>
