<svg id="_41" data-name="41" xmlns="http://www.w3.org/2000/svg" width="140.426" height="142.294" viewBox="0 0 140.426 142.294">
  <g id="Group_17237" data-name="Group 17237" transform="translate(6.083 12.881)">
    <path id="Path_18326" data-name="Path 18326" d="M141.374,121.095c.277-.371.565-.736.842-1.107.82-1.1-.849-2.065-1.749-1.349-2.02,1.607-4,3.253-5.957,4.918a1.327,1.327,0,0,0-1.972-1.762c-.136.116-.271.239-.407.355l1.413-1.675c1.084-1.281-.665-3.108-1.872-1.872-.623.642-1.252,1.278-1.878,1.917a1.18,1.18,0,0,0-1.81-.723c-1.968,1.371-3.892,2.8-5.792,4.266,1.188-1.471,2.388-2.933,3.559-4.421A1.237,1.237,0,0,0,124,117.894c-.736.649-1.462,1.31-2.191,1.968a1.339,1.339,0,0,0-2.188-.536q-2.265,1.96-4.527,3.93c.642-.8,1.288-1.6,1.917-2.407a1.44,1.44,0,0,0-.613-2.278c.3-.349.6-.694.894-1.042a1.171,1.171,0,0,0-1.655-1.655q-4.7,3.945-9.4,7.9,2.159-2.478,4.321-4.957a1.3,1.3,0,0,0-1.833-1.833q-4.627,3.654-9.232,7.338c1.271-1.594,2.527-3.2,3.743-4.837.971-1.307-1.039-2.582-2.13-1.643-.652.561-1.294,1.129-1.943,1.694a1.134,1.134,0,0,0-1.91-.494A37.056,37.056,0,0,1,90,124.97l3.027-3.6c.955-1.136-.287-3.166-1.7-2.207-.884.6-1.762,1.207-2.64,1.81a1.455,1.455,0,0,0-2.143-1.126c-.862.594-1.72,1.188-2.585,1.781a1.351,1.351,0,0,0-2.178-1.465c-.471.413-.939.829-1.41,1.242a.991.991,0,0,0-1.513-.349c-.694.461-1.384.923-2.078,1.381.11-.123.216-.245.326-.368a.543.543,0,0,0-.768-.768l-6.118,5.644c-.326.252-.655.5-.981.755q1.655-2.043,3.285-4.111a1.409,1.409,0,0,0-1.991-1.991q-4.1,3.6-8.206,7.2,1.147-1.292,2.291-2.588a1.436,1.436,0,0,0-1.113-2.394c.632-.758,1.275-1.507,1.907-2.265,1.094-1.31-.655-3.149-1.9-1.9q-3.238,3.219-6.515,6.4,1.016-1.229,2.03-2.462a1.322,1.322,0,0,0-1.868-1.868c-1.071.868-2.127,1.755-3.182,2.646,1.071-1.162,2.123-2.34,3.211-3.485a1.31,1.31,0,0,0-1.852-1.852q-4.681,4.477-9.374,8.942,2.72-3.34,5.434-6.686a1.276,1.276,0,0,0-1.8-1.8c-4.379,3.927-8.809,7.8-13.246,11.668Q41.429,124.833,46.5,118.5c1-1.242-.6-2.969-1.791-1.791-.794.787-1.6,1.559-2.407,2.34a1.208,1.208,0,0,0-1.978-1.181q-3.383,2.8-6.77,5.608c1.12-1.391,2.259-2.769,3.446-4.111a1.311,1.311,0,0,0-1.852-1.852c-.887.723-1.788,1.426-2.691,2.13.194-.229.384-.458.578-.684a1.352,1.352,0,0,0-1.91-1.91c-.613.523-1.236,1.029-1.855,1.542.087-.955-.794-1.991-1.781-1.268-.445.326-.9.639-1.352.955a.959.959,0,0,0-1.536-.216q-2.672,2.561-5.347,5.118a1.378,1.378,0,0,0,1.133,2.32c-.3.352-.6.7-.9,1.055a1.393,1.393,0,0,0,.874,2.359,1.619,1.619,0,0,0,2.511,1.981q1.651-1.35,3.285-2.724c-.975,1.313-1.923,2.649-2.827,4.011-1.026,1.542,1.175,2.988,2.44,1.885.465-.407.92-.82,1.384-1.226q-1.68,1.951-3.356,3.9c-1.246,1.449.716,3.479,2.12,2.12.7-.678,1.391-1.368,2.088-2.052q-2.256,2.749-4.5,5.512a1.457,1.457,0,0,0,2.059,2.059q6.709-6,13.385-12.04-4.894,5.91-9.842,11.772c-1.226,1.446.707,3.462,2.107,2.107.387-.374.774-.755,1.162-1.129-1.42,1.717-2.853,3.43-4.247,5.169-1.107,1.381.826,3.362,1.972,1.972A198.532,198.532,0,0,1,45.219,135.81c-2.34,2.762-4.676,5.531-6.98,8.322a1.508,1.508,0,0,0-.261,1.562c-.419.381-.845.755-1.262,1.139-.916.842-1.849,1.668-2.743,2.536-.758.736-1.814,1.5-2.068,2.562-.1.426.216,1.013.726.952a5.211,5.211,0,0,0,2.523-1.455c.984-.771,1.926-1.594,2.878-2.4.416-.352.823-.71,1.236-1.065q-2.454,2.885-4.911,5.766c-1.207,1.42.81,3.488,2.068,2.068q3.4-3.848,6.867-7.628a1.531,1.531,0,0,0,2.017-.09q6.462-5.692,12.856-11.468c-.836.939-1.681,1.865-2.53,2.794-4.037,3.8-7.916,7.774-11.565,11.94-1.249,1.423.729,3.456,2.1,2.1q5.363-5.329,10.429-10.933,2.435-2.386,4.95-4.682-7.12,7.909-14.6,15.489c-1.329,1.346.745,3.424,2.075,2.075q2.9-2.938,5.77-5.9c-.442.558-.894,1.11-1.336,1.668-1.265,1.594.929,3.882,2.278,2.278.352-.419.72-.826,1.075-1.246a1.482,1.482,0,0,0,2.552.813,183.966,183.966,0,0,0,17.522-22.024,1.24,1.24,0,0,0,.171-1.178c.639-.436,1.275-.874,1.91-1.31.123.923,1.21,1.8,2.143,1.155q1.805-1.244,3.614-2.485c-.265.323-.529.649-.791.971-.716.878-.074,2.772,1.281,2.2,1.075-.452,2.12-.962,3.143-1.5-.39.423-.778.845-1.168,1.268a1.247,1.247,0,0,0,1.762,1.762c.807-.684,1.613-1.375,2.42-2.059q-1.926,2.13-3.921,4.192c-1.242,1.278.581,2.972,1.91,1.91q4.656-3.727,9.313-7.464-3.1,3.519-6.192,7.041a1.352,1.352,0,0,0,1.91,1.91q4.037-3.441,8.035-6.918-2.038,2.047-4.124,4.05-2.744,2.565-5.492,5.128a1.321,1.321,0,0,0,.916,2.249c-.4.361-.8.729-1.2,1.087-1.375,1.217.639,3.208,2.01,2.01q6.472-5.644,12.921-11.317l-2.924,3.417c-2.456,2.72-4.844,5.5-7.138,8.342a1.509,1.509,0,0,0,.758,2.372c-.529,1.265,1,2.72,2.1,1.539q5.862-6.268,11.475-12.762,1.7-1.68,3.462-3.3-7.837,8.606-15.205,17.622c-1.123,1.381.7,3.333,2,2q2.444-2.512,4.889-5.031c-.52,1.246.975,2.665,2.033,1.759a.559.559,0,0,1-.039.045c-1.136,1.413.81,3.443,2.026,2.027,3.246-3.785,6.447-7.606,9.645-11.436a176.835,176.835,0,0,1,13.411-13.3c-.674.842-1.368,1.665-2.046,2.5a201.668,201.668,0,0,0-17.7,20.688c-.768,1.039.52,2.3,1.565,2.027a1.655,1.655,0,0,0,.361.623c-1.036,1.533.984,3.617,2.256,2.094q1.346-1.612,2.691-3.227a112.058,112.058,0,0,1,11.439-11.485q-3.993,5.17-8.138,10.22a1.592,1.592,0,0,0,1.565,2.582,1.344,1.344,0,0,0,1.433-.429c.891-.942,1.759-1.9,2.63-2.862a1.68,1.68,0,0,0,1.639,1.465c.116,1.133,1.488,2.046,2.359.945,2.114-2.669,4.279-5.3,6.422-7.945a1.553,1.553,0,0,0-.739-2.549c.3-.523.623-1.036.907-1.568a1.674,1.674,0,0,0-.729-2.181c.258-.336.523-.665.778-1l.01-.01h0c.077-.1.158-.2.236-.3a1.317,1.317,0,0,0-.365-1.888c.481-.645.968-1.284,1.449-1.933.916-1.239-.874-2.949-2.107-2.107-.939.642-1.865,1.31-2.788,1.981,1.113-1.31,2.227-2.627,3.346-3.93a1.342,1.342,0,0,0-.962-2.236q1.258-1.549,2.517-3.1a1.384,1.384,0,0,0-.613-2.217Z" transform="translate(-18.843 -91.148)" fill="#d9dbeb"/>
    <path id="Path_18327" data-name="Path 18327" d="M73.676,66.1c1.8-.407,3.608-.732,5.431-.965,1.639-1.42,3.295-2.824,4.927-4.25q-1.883,2.028-3.7,4.118a63.03,63.03,0,0,1,6.938-.358c3.859-3.233,7.751-6.428,11.707-9.532q-4.821,4.768-9.594,9.584c1.5.055,2.991.142,4.485.3.655.068,1.307.158,1.956.255,3.572-3.262,7.2-6.46,10.933-9.542-2.359,2.252-4.708,4.511-7.028,6.8-.971.958-1.92,1.936-2.882,2.9,1.93.336,3.84.787,5.744,1.275q5.17-5.058,10.475-9.961c3.572-3.311,7.031-6.738,10.529-10.129.916-.887-.432-2.181-1.381-1.381q-1.123.949-2.256,1.891c1.726-1.681,3.456-3.356,5.215-5a1.275,1.275,0,0,0-1.539-1.994,214.228,214.228,0,0,0-19.975,14.5c.271-.274.539-.549.81-.82,3.388-3.421,6.764-6.86,10.207-10.223,1.136-1.11-.352-3.146-1.73-2.239-7.29,4.8-14.211,10.081-21,15.544,3.143-3.272,6.389-6.447,9.778-9.477,1.11-.994-.365-2.959-1.61-2.088s-2.456,1.73-3.672,2.607a1.036,1.036,0,0,0-.758.045l-1.633.765a.775.775,0,0,0-.468.962q-2.106,1.738-4.2,3.482Q81.306,59.362,73.67,66.1Z" transform="translate(-55.978 -39.917)" fill="#eac485"/>
    <path id="Path_18328" data-name="Path 18328" d="M164.493,74.493c5.166,1.336,10.284,2.907,15.605,3.2a43.343,43.343,0,0,0,9.477-.629c.429-.368.849-.745,1.278-1.11a1.626,1.626,0,0,0,.716.268c-.187.2-.371.394-.558.591,1.536-.287,3.069-.623,4.6-.981q1.128-1.254,2.259-2.507,1.888-.915,3.8-1.781-1.573,1.791-3.143,3.582c2.307-.574,4.6-1.162,6.867-1.675a53.77,53.77,0,0,1,8.07-1.339l3.427-1.985c-.678.662-1.375,1.3-2.088,1.92a19.517,19.517,0,0,1,7.825,1.32c.584-.474,1.178-.936,1.781-1.371.91-.655.032-2.181-.887-1.52-.674.487-1.381.945-2.091,1.394.552-.768,1.094-1.546,1.607-2.343a1.508,1.508,0,0,0-.458-1.959q.687-.842,1.349-1.707c.8-1.049-.71-2.278-1.713-1.713-.975.552-1.949,1.1-2.92,1.649.716-.642,1.446-1.268,2.156-1.914,1.207-1.1-.384-3.214-1.762-2.285-.6.41-1.2.829-1.8,1.242a1.1,1.1,0,0,0-1.665-.394c-1.075.736-2.136,1.488-3.2,2.236a1.076,1.076,0,0,0-1.039-.161l-.542.213,1.6-1.81a1.441,1.441,0,0,0-1.739-2.252c-1.194.571-2.375,1.171-3.546,1.784.41-.445.816-.9,1.226-1.346.691-.542,1.378-1.1,2.072-1.636a1.423,1.423,0,0,0-.261-2.275c.113-.1.226-.19.339-.287,1.052-.881-.074-2.872-1.371-2.359a130,130,0,0,0-24.115,12.866c.2-.174.394-.355.59-.529,3.972-3.514,7.929-7.054,12-10.458a1.189,1.189,0,0,0-.023-1.778l.81-.736a1.527,1.527,0,0,0-1.843-2.388c-.339.219-.674.442-1.013.665a.946.946,0,0,0-.9.116c-.823.574-1.636,1.162-2.456,1.739.545-1.12-.994-2.31-2.133-1.43q-12.764,9.869-24.786,20.591c-.468.419-.929.842-1.394,1.265Z" transform="translate(-117.491 -47.632)" fill="#eac485"/>
    <path id="Path_18329" data-name="Path 18329" d="M196.831,159.443c-3.091.565-4.886,3.043-6.321,5.763.571-.529,1.133-1.065,1.7-1.594,1.526-1.407,3.072-2.785,4.614-4.172Z" transform="translate(-135.115 -120.871)" fill="#eac485"/>
    <path id="Path_18330" data-name="Path 18330" d="M162.921,176.181q-5.731,4.177-11.33,8.532a1.1,1.1,0,0,0-1.817-1.023c-1.759,1.384-3.485,2.807-5.192,4.25q-1.733,1.336-3.466,2.682c-.552.426-1.087.868-1.636,1.294.5-.461,1-.926,1.51-1.388q5.562-5.063,11.152-10.1a1.553,1.553,0,0,0-.684-2.523,11.326,11.326,0,0,1-1.4.41q-2.265,1.684-4.479,3.424a1.529,1.529,0,0,0-1.336-.781q1.4-1.167,2.791-2.336a20.253,20.253,0,0,1-4.3-.5l-.077.058c.016-.023.023-.045.035-.065a26.889,26.889,0,0,1-3.359-.991q-12.207,9.565-23.9,19.758,4.39-4.579,8.871-9.064,4.8-4.8,9.716-9.477a1.592,1.592,0,0,0-1.578-2.614c.168-.142.332-.287.5-.432a1.227,1.227,0,0,0,.442-1.117c-.678-.432-1.326-.887-1.939-1.359a1.514,1.514,0,0,0-.3.142,154,154,0,0,0-13.466,9.671q2.391-2.11,4.792-4.221,4.022-3.18,8.058-6.341a20.216,20.216,0,0,1-1.565-1.468c-.326-.184-.645-.381-.958-.578a260.933,260.933,0,0,0-34.56,25.664q9.7-9.966,20.323-18.965c3.7-3.137,7.422-6.238,11.233-9.239a9.075,9.075,0,0,1-1.5-2.456q-10.291,7.74-19.829,16.37c-.161.136-.326.271-.487.41q3.412-3.219,6.828-6.434,5.528-5.194,11.107-10.326a1.154,1.154,0,0,0,.358-1.288c.278-.265.552-.529.826-.794,1.181-1.126-.413-3.324-1.784-2.314-.691.507-1.365,1.036-2.052,1.549a1.205,1.205,0,0,0-1.523.2c-1.265,1.265-2.52,2.543-3.779,3.811q-3.175,2.464-6.305,4.986c.642-.7,1.275-1.413,1.926-2.1,1.288-1.365,2.575-2.736,3.882-4.085a26.7,26.7,0,0,0,3.569-4.114.853.853,0,0,0-.171-1.117,1.556,1.556,0,0,0,.6-.342c.991-.92,1.988-1.826,2.991-2.73-.8-1.207-1.549-2.423-2.214-3.65a2.99,2.99,0,0,1-.265-2.333q-1.026.116-2.056.19-6.723,7.135-13.366,14.34c-.845.629-1.678,1.278-2.52,1.91a21.338,21.338,0,0,1-3.7,4.418,32.89,32.89,0,0,1-9.71,5.979c-.645.516-1.3,1.02-1.949,1.542.4-.423.8-.839,1.2-1.265a32.385,32.385,0,0,1-4.789,1.371c-5.692,5.921-11.433,11.8-17.132,17.709A1.537,1.537,0,0,0,65.31,199.1q8.553-7.595,17.306-14.924-4.6,4.226-9.1,8.58c-3.8,3.7-7.561,7.448-11.207,11.3a1.684,1.684,0,0,0,1.765,2.74c-.161.326-.336.645-.49.978a1.621,1.621,0,0,0,2.533,1.955l2.143-1.778a1.709,1.709,0,0,0,.987,1.213c-.194.187-.387.374-.581.558a1.626,1.626,0,0,0,1.058,2.762,1.5,1.5,0,0,0,2.546,1.087c1.578-1.52,3.185-3.011,4.779-4.514-1.381,1.652-2.753,3.308-4.095,4.989a1.674,1.674,0,0,0,.958,2.736c-.207.216-.416.426-.62.642a1.644,1.644,0,0,0,2.323,2.323q3.074-2.715,6.147-5.428a41.018,41.018,0,0,0-5.441,9.648c-.552,1.433,1.584,2.607,2.569,1.494q1.781-2.018,3.569-4.034a1.441,1.441,0,0,0,2.252.152c9.371-9.206,18.755-18.429,28.671-27.048q-7.43,7.745-14.582,15.747-4.516,5.068-8.9,10.245A1.6,1.6,0,0,0,90.374,223c-.574.581-1.162,1.142-1.73,1.726a1.445,1.445,0,0,0,1.12,2.465,1.712,1.712,0,0,0,2.414.2c1.617-1.3,3.22-2.617,4.831-3.921a1.592,1.592,0,0,0,.523-.349c.168-.165.339-.323.507-.487q10.291-8.33,20.546-16.7l-.542.532c-2.694,2.385-5.36,4.8-7.932,7.3a103.973,103.973,0,0,0-8.868,9.639,1.665,1.665,0,0,0-.261,1.688c-.023.026-.048.052-.071.074a1.571,1.571,0,0,0,2.22,2.22c.907-.807,1.823-1.6,2.736-2.4a1.581,1.581,0,0,0,2.585,1.591q2.3-2.212,4.647-4.389a31.349,31.349,0,0,0-3.795,6.454,1.694,1.694,0,0,0,2.646,2.043q2.836-2.42,5.676-4.837a1.691,1.691,0,0,0,2.585.371c.152-.136.3-.274.452-.41a1.668,1.668,0,0,0,2.6.523q7.353-6.326,14.711-12.643c-2.54,2.7-5.015,5.45-7.467,8.2-1.313,1.471.8,3.627,2.181,2.178q1.142-1.2,2.288-2.4a1.715,1.715,0,0,0,2.878,1.052c.765-.678,1.517-1.371,2.272-2.065a1.784,1.784,0,0,0,2.372.074,141.124,141.124,0,0,0,20.023-20.868,1.7,1.7,0,0,0-.623-2.527c.113-.139.229-.274.342-.41a1.566,1.566,0,0,0-1.126-2.585c.981-1.02,1.952-2.043,2.933-3.062,1.31-1.359-.642-3.237-2.043-2.043q-5.6,4.763-11.21,9.513,2-2.014,4.008-4.03,4.714-4.293,9.432-8.587a1.471,1.471,0,0,0,.065-2.217,1.553,1.553,0,0,0-2.507-.581q-3.088,2.875-6.18,5.747l-3.521,3a6.149,6.149,0,0,0-3.479.2c1.149-.994,2.291-1.994,3.45-2.978q6.341-5.382,12.859-10.552c1.442-1.146-.481-3.669-1.985-2.572Zm-92,25.444q.591-.842,1.207-1.659a1.51,1.51,0,0,0,.71.084Q71.877,200.839,70.919,201.625Zm78.588-7.351L126.586,213.8c2.22-2.165,4.46-4.314,6.757-6.4,3.043-2.765,6.141-5.463,9.255-8.151a50.181,50.181,0,0,1,4.74-3.85,10.477,10.477,0,0,1,2.172-1.123Z" transform="translate(-47.963 -114.972)" fill="#eac485"/>
    <path id="Path_18331" data-name="Path 18331" d="M60.441,229.58q-3.049,2.43-6.005,4.982,1.055-1.573,2.107-3.146a1.477,1.477,0,0,0,1.62-.416c.432-.494.868-.987,1.3-1.478-.31-.023-.62-.042-.929-.074A20.417,20.417,0,0,1,46.9,224.23c-.394.568-.8,1.126-1.181,1.7a1.672,1.672,0,0,0,1.649,2.5c-1.4,1.226-2.814,2.452-4.208,3.692-1.191,1.058.39,3.166,1.723,2.233l.432-.3c-.329.59-.652,1.184-.981,1.775A1.388,1.388,0,0,0,46.5,237.5c1.891-1.523,3.753-3.082,5.615-4.64-2.41,3.385-4.808,6.777-7.154,10.207-1.01,1.478,1.165,2.969,2.391,1.843,5.844-5.373,11.739-10.733,18.022-15.573a28.43,28.43,0,0,1-4.934.245Z" transform="translate(-35.026 -164.754)" fill="#eac485"/>
  </g>
  <g id="Group_17240" data-name="Group 17240">
    <g id="Group_17238" data-name="Group 17238" transform="translate(2.021 10.657)">
      <path id="Path_18332" data-name="Path 18332" d="M30.144,58.325c2.256,0,3.885-.029,5.518.013a13.87,13.87,0,0,1,2.714.268c1.242.278,1.952,1.155,1.759,2.046a1.838,1.838,0,0,1-1.994,1.52c-.274,0-.549,0-.823.01-4.847.129-9.694.216-14.534.407-2.556.1-5.1.361-7.654.591a11.406,11.406,0,0,0-1.875.4c-3.1.816-3.953,2.865-2.262,5.528a11.682,11.682,0,0,0,1.672,2.172c3.408,3.288,4.4,7.47,4.553,11.981a27.118,27.118,0,0,0,.184,3.285,10.392,10.392,0,0,0,5.463,8.1,24.633,24.633,0,0,0,6.1,2.375c4.2.881,8.464,1.513,12.782.81,1.255-.2,2.5-.5,3.74-.791.532-.126,1.036-.358,1.559-.523a1.852,1.852,0,0,1,2.359.849,1.875,1.875,0,0,1-.945,2.54,8.959,8.959,0,0,1-2.517,1.052,28.32,28.32,0,0,1-5.657.968c-5.6.081-11.159-.31-16.422-2.478-1.5-.62-2.943-1.391-4.566-2.168-.662,2.065-.1,4.076.248,5.938,1.452,7.854,3.585,15.505,8.245,22.179a54.919,54.919,0,0,0,11.627,11.575,64.153,64.153,0,0,0,19.416,10.587,6.969,6.969,0,0,1,1.5.636,1.775,1.775,0,0,1,.826,2.133,1.611,1.611,0,0,1-1.9,1.2,10.771,10.771,0,0,1-2.117-.513A63.582,63.582,0,0,1,38.344,141a70.747,70.747,0,0,1-12.069-11.149c-4.479-5.4-6.918-11.781-8.864-18.4A49.153,49.153,0,0,1,15.246,99.62c-.084-2.075.587-4.208.336-6.244-.242-1.943-1.468-3.743-1.849-5.689-.471-2.407-.516-4.9-.752-7.348a10.316,10.316,0,0,0-2.84-6.086A18.005,18.005,0,0,1,7.01,69.79c-1.985-4.379.077-8.68,4.756-9.807a75.056,75.056,0,0,1,8.4-1.155,11.594,11.594,0,0,1,2.194-.071A4.249,4.249,0,0,0,26.1,56.97,70.8,70.8,0,0,1,59.922,35,40.337,40.337,0,0,1,73.43,33.055a16.607,16.607,0,0,1,2.7.387,1.689,1.689,0,0,1,1.491,1.968c-.113,1.1-.955,1.475-1.9,1.681a1.715,1.715,0,0,1-.545.01c-7.035-.781-13.627,1.046-20.016,3.643a66.779,66.779,0,0,0-23.5,15.825c-.368.387-.7.807-1.53,1.762Z" transform="translate(-6.258 -33.024)" fill="#262c54"/>
      <path id="Path_18333" data-name="Path 18333" d="M200.676,71.021a20.554,20.554,0,0,0-7.319-7.461c-3.279-1.975-6.731-3.659-10.12-5.453-1.049-.555-2.175-.965-3.182-1.581a1.805,1.805,0,0,1,1.391-3.3,4.277,4.277,0,0,1,1.046.31,71.921,71.921,0,0,1,14.247,7.583,29.95,29.95,0,0,1,7.741,8.432c1.146,1.83,2.414,3,4.766,3.049,2.543.048,5.069.655,7.615.816a5.71,5.71,0,0,1,5.16,5.431,8.81,8.81,0,0,1-1.759,5.66,16.769,16.769,0,0,0-3.311,9.932,17.65,17.65,0,0,1-3.9,10.626,5.006,5.006,0,0,1-1.533,1.526,2.4,2.4,0,0,1-2.007.029,2.44,2.44,0,0,1-.671-1.878,3.089,3.089,0,0,1,.868-1.646,14.962,14.962,0,0,0,3.462-9.61,18.2,18.2,0,0,1,3.421-10.5,9.48,9.48,0,0,0,1.507-3.462c.3-1.342-.361-2.11-1.7-2.243-9.623-.945-19.177-2.678-28.923-2.162a68.919,68.919,0,0,0-18.035,3.056c-7.48,2.465-15.1,2.514-22.766,1.426-4.24-.6-8.419-1.626-12.627-2.446-1.878-.368-3.766-.694-5.647-1.049-.539-.1-1.071-.229-1.6-.358a1.727,1.727,0,0,1-1.488-1.975,1.929,1.929,0,0,1,2.11-1.726,43.442,43.442,0,0,1,4.6.7c5.192,1.029,10.342,2.327,15.57,3.1,6.354.936,12.814,1.178,19.006-.891,10.149-3.391,20.568-4,31.13-3.63.729.026,1.462.039,2.191.029.165,0,.323-.136.768-.339Z" transform="translate(-86.882 -46.678)" fill="#262c54"/>
      <path id="Path_18334" data-name="Path 18334" d="M232.963,179.873c-6.651-.09-11.549-1.052-16.209-3.095a38.853,38.853,0,0,1-11.268-8.132c-3.024-2.936-4.431-6.86-5.583-10.842a23.136,23.136,0,0,0-1.123-3.366c-1.323-2.83-3.882-3.537-6.6-1.93a12.3,12.3,0,0,0-4.159,4.64c-.51.865-.965,1.768-1.539,2.588a1.619,1.619,0,0,1-2.159.623,1.76,1.76,0,0,1-1.042-2.02,2.645,2.645,0,0,1,.19-.794c1.53-3.262,3.372-6.28,6.541-8.245,4.263-2.643,10.323-2.133,12.633,4.382q.823,2.319,1.517,4.685a18.234,18.234,0,0,0,9.6,11.72,41.962,41.962,0,0,1,3.553,2.472,11.862,11.862,0,0,0,2.414,1.242c7.18,2.565,14.4,3.149,21.682.368a2.932,2.932,0,0,1,1.572-.336c.632.161,1.471.542,1.675,1.046a2.195,2.195,0,0,1-.426,1.943,6.206,6.206,0,0,1-2.356,1.313,27.751,27.751,0,0,1-8.913,1.736Z" transform="translate(-126.142 -110.767)" fill="#262c54"/>
      <path id="Path_18335" data-name="Path 18335" d="M304.705,246.669a51.052,51.052,0,0,1-3.992,15.3c-7.06,16.373-19.532,26.486-36.474,31.382a13.213,13.213,0,0,1-2.966.4,1.483,1.483,0,0,1-1.613-1.2,1.641,1.641,0,0,1,.878-2.075,12.638,12.638,0,0,1,2.078-.652c11.949-3.253,21.9-9.532,29.149-19.671a50.8,50.8,0,0,0,9.071-23.234,8.192,8.192,0,0,1,.313-1.878,1.817,1.817,0,0,1,2.168-1.252,1.691,1.691,0,0,1,1.391,1.784c.019.365,0,.729,0,1.094Z" transform="translate(-177.835 -175.746)" fill="#262c54"/>
      <path id="Path_18336" data-name="Path 18336" d="M157.528,319.424c-10.62-.452-19.478-3.521-26.745-10.542A10.32,10.32,0,0,1,129.2,307a1.673,1.673,0,0,1,.284-2.249,1.73,1.73,0,0,1,2.269-.213,7.365,7.365,0,0,1,1.233,1.078c5.079,5.286,11.417,8.07,18.519,9.355a24.769,24.769,0,0,0,13.5-.807,27.215,27.215,0,0,0,4.434-2.63c.458-.287.826-.72,1.268-1.039a1.674,1.674,0,0,1,2.262.107,1.781,1.781,0,0,1,.313,2.265,6,6,0,0,1-1.187,1.484,16.05,16.05,0,0,1-8.438,4.282c-2.227.442-4.514.591-6.128.791Z" transform="translate(-89.32 -216.703)" fill="#262c54"/>
      <path id="Path_18337" data-name="Path 18337" d="M64.835,157.077c-1.926-.065-2.724-1.507-1.888-2.73a4.826,4.826,0,0,1,1.42-1.252q11.089-7.038,22.2-14.04c.155-.1.316-.184.478-.265,1.452-.71,2.517-.536,3.111.5.5.871.165,1.972-1.065,2.759-2.3,1.475-4.7,2.807-7.009,4.272C77.075,149.5,72.1,152.73,67.1,155.909a23.518,23.518,0,0,1-2.265,1.165Z" transform="translate(-44.431 -104.37)" fill="#262c54"/>
      <path id="Path_18338" data-name="Path 18338" d="M289.427,157.843c-1.707.042-2.727-1.546-1.923-2.691a9.367,9.367,0,0,1,2.391-2.194c3.83-2.643,7.719-5.2,11.559-7.828,2.481-1.7,4.924-3.459,7.383-5.192.074-.052.139-.119.213-.174,1.4-1.013,2.42-1.068,3.143-.168.665.829.5,2.12-.716,3.111-1.975,1.61-4.047,3.111-6.15,4.553-4.666,3.2-9.371,6.334-14.069,9.481-.671.449-1.384.833-1.826,1.1Z" transform="translate(-196.559 -104.775)" fill="#262c54"/>
      <path id="Path_18339" data-name="Path 18339" d="M123.177,172.877c0,1.1-.971,1.517-1.846,2-2.714,1.507-5.453,2.969-8.151,4.508-1.188.678-2.269,1.549-3.459,2.22a5.518,5.518,0,0,1-2.281.784,1.877,1.877,0,0,1-1.533-.816,3.854,3.854,0,0,1,.177-2.01c.045-.213.371-.394.6-.529q6.486-3.824,12.992-7.619a3.887,3.887,0,0,1,1.552-.5,1.839,1.839,0,0,1,1.949,1.965Z" transform="translate(-73.691 -126.414)" fill="#262c54"/>
      <path id="Path_18340" data-name="Path 18340" d="M333.5,182.456c-.481-.365-1.223-.645-1.388-1.126a2.673,2.673,0,0,1,.181-2.014A4.471,4.471,0,0,1,334,178c2.794-1.562,5.6-3.111,8.425-4.608,1.784-.945,3.056-.749,3.566.419.478,1.091-.045,2.052-1.691,2.969q-4.313,2.406-8.651,4.763c-.636.345-1.336.571-2.156.913Z" transform="translate(-226.883 -127.69)" fill="#262c54"/>
      <path id="Path_18341" data-name="Path 18341" d="M199.486,391.942h7.6a6.114,6.114,0,0,1,1.087.061c1.278.239,1.943.907,1.946,1.91,0,1.033-.529,1.51-1.968,1.807-3.356.691-6.7.3-10.039-.126a2.024,2.024,0,0,1-1.968-1.9c0-1.065.868-1.784,2.259-1.862.361-.019.726,0,1.091,0v.106Z" transform="translate(-134.867 -276.042)" fill="#262c54"/>
      <path id="Path_18342" data-name="Path 18342" d="M159.132,194.7c1.43.055,2.32,1.023,2.175,2.078a5.429,5.429,0,0,1-.745,2.017,23.523,23.523,0,0,1-6.493,6.557c-1.12.823-2.014.707-2.691-.071-.726-.836-.61-1.9.365-2.9.381-.39.826-.713,1.246-1.065a20.2,20.2,0,0,0,4.576-5.021,8.3,8.3,0,0,1,1.568-1.6Z" transform="translate(-104.232 -142.529)" fill="#262c54"/>
      <path id="Path_18343" data-name="Path 18343" d="M284.349,152.417c-.452-.4-1.155-.758-1.413-1.323a2.473,2.473,0,0,1,.248-1.736c.161-.365.642-.616,1.02-.858,2.294-1.459,4.6-2.9,6.9-4.347,1.1-.694,2.1-.684,2.711.029a2.179,2.179,0,0,1-.155,2.753,6.128,6.128,0,0,1-1.417,1.262q-2.89,1.791-5.85,3.472a14.173,14.173,0,0,1-2.046.745Z" transform="translate(-193.598 -107.945)" fill="#262c54"/>
      <path id="Path_18344" data-name="Path 18344" d="M72.563,141.5c.513.481,1.207.868,1.459,1.446a2.848,2.848,0,0,1-.213,1.784c-.1.29-.523.484-.823.687-2.123,1.426-4.247,2.856-6.386,4.256-1.51.991-2.756,1.023-3.466.148-.781-.958-.384-2.143,1.317-3.369,1.926-1.388,3.917-2.694,5.915-3.982a16.414,16.414,0,0,1,2.2-.975Z" transform="translate(-44.521 -106.496)" fill="#262c54"/>
      <path id="Path_18345" data-name="Path 18345" d="M252.207,43.7c-.771-.158-1.22-.242-1.665-.345-2.3-.532-4.608-1.081-6.915-1.6-1.355-.307-2.162-1.152-2.014-2.162a2.016,2.016,0,0,1,2.21-1.623,25.731,25.731,0,0,1,9.268,2.2,1.7,1.7,0,0,1,.994,2.272A1.92,1.92,0,0,1,252.2,43.7Z" transform="translate(-165.654 -36.374)" fill="#262c54"/>
    </g>
    <g id="Group_17239" data-name="Group 17239">
      <path id="Path_18346" data-name="Path 18346" d="M139.128.015a64.248,64.248,0,0,1,28.5,5.605,17.261,17.261,0,0,1,2.423,1.265c1.217.813,1.562,1.814,1.1,2.765s-1.462,1.165-2.865.558c-1.591-.691-3.13-1.507-4.74-2.152A59.006,59.006,0,0,0,143.8,3.913,70.572,70.572,0,0,0,121.27,6.194,47.54,47.54,0,0,0,109.2,11.322c-.62.384-1.271.72-1.923,1.052a1.647,1.647,0,0,1-2.194-.523,1.721,1.721,0,0,1,.068-2.278,8.651,8.651,0,0,1,1.939-1.488A54.279,54.279,0,0,1,125.217,1.3,61.911,61.911,0,0,1,139.128.015Z" transform="translate(-70.903 0.002)" fill="#262c54"/>
      <path id="Path_18347" data-name="Path 18347" d="M389.518,210.271c-.126,14.392-3.627,27.793-12.075,39.643a70.761,70.761,0,0,1-5.67,6.664c-1.352,1.465-2.407,1.62-3.308.845-1.02-.878-.91-2.036.578-3.527,8.271-8.3,12.891-18.461,15.3-29.759a72.484,72.484,0,0,0,1.375-18.235,8.473,8.473,0,0,1,.087-2.717,1.7,1.7,0,0,1,3.182-.465,3.924,3.924,0,0,1,.516,2.072c.068,1.823.023,3.65.023,5.476Z" transform="translate(-249.11 -136.688)" fill="#262c54"/>
      <path id="Path_18348" data-name="Path 18348" d="M5.055,183.244c-.313,2.711-.729,5.415-.923,8.132a55.773,55.773,0,0,0,5.031,28.481c1.217,2.549,2.685,4.976,4,7.48a7.476,7.476,0,0,1,1.007,2.494,2.143,2.143,0,0,1-.862,1.762,2.479,2.479,0,0,1-1.975-.248,4.092,4.092,0,0,1-1.168-1.475A62.022,62.022,0,0,1,.625,204.454a60.525,60.525,0,0,1,.436-20.149,12.115,12.115,0,0,1,.5-1.849c.458-1.213,1.317-1.772,2.249-1.542a1.851,1.851,0,0,1,1.246,2.333Z" transform="translate(0.007 -122.5)" fill="#262c54"/>
      <path id="Path_18349" data-name="Path 18349" d="M237.613,407.933a8.129,8.129,0,0,1-1.636-.019,1.772,1.772,0,0,1-1.659-1.852,1.717,1.717,0,0,1,1.652-1.836c1.539-.19,3.078-.368,4.624-.478,5.76-.41,11.468-1.213,16.809-3.469A110.231,110.231,0,0,0,267.588,395a13.063,13.063,0,0,0,2.188-2.033,1.775,1.775,0,0,1,2.469-.265,1.627,1.627,0,0,1,.49,2.207,9.589,9.589,0,0,1-2.417,2.875,50.828,50.828,0,0,1-15.705,7.561,73.148,73.148,0,0,1-12.924,2.194c-1.362.139-2.717.313-4.076.471a.736.736,0,0,0-.006-.081Z" transform="translate(-158.704 -265.72)" fill="#262c54"/>
      <path id="Path_18350" data-name="Path 18350" d="M339.314,40.951a2.339,2.339,0,0,1,.8.294c2.62,1.981,5.26,3.947,7.8,6.028a3.519,3.519,0,0,1,1.107,2.091,2.468,2.468,0,0,1-.729,1.868,1.6,1.6,0,0,1-2.233-.239c-.729-.691-1.336-1.523-2.117-2.139-1.5-1.187-3.133-2.217-4.634-3.408a7.107,7.107,0,0,1-1.968-2.168c-.607-1.207.391-2.41,1.975-2.327Z" transform="translate(-228.362 -27.733)" fill="#262c54"/>
      <path id="Path_18351" data-name="Path 18351" d="M56.472,358.077a7.4,7.4,0,0,1,1.207.7c1.846,1.494,3.663,3.02,5.483,4.54a8.314,8.314,0,0,1,.794.752,1.6,1.6,0,0,1,.087,2.243,1.745,1.745,0,0,1-2.185.629,2.953,2.953,0,0,1-.736-.365c-1.917-1.549-3.846-3.082-5.712-4.692a3.573,3.573,0,0,1-.987-1.607,1.888,1.888,0,0,1,2.046-2.2Z" transform="translate(-36.818 -242.528)" fill="#262c54"/>
    </g>
  </g>
</svg>
