<svg id="_42" data-name="42" xmlns="http://www.w3.org/2000/svg" width="150.267" height="147.4" viewBox="0 0 150.267 147.4">
  <g id="Group_17242" data-name="Group 17242" transform="translate(19.312 14.796)">
    <path id="Path_18352" data-name="Path 18352" d="M200.485,293.813c-2.014,1.268-4.014,2.562-6.025,3.853.926-.991,1.872-1.965,2.856-2.891a1.158,1.158,0,0,0-1.4-1.81c-2.365,1.468-4.773,2.9-7.164,4.35.345-.423.684-.852,1.036-1.271.887-1.065-.226-2.8-1.552-2.014s-2.659,1.533-4,2.281c.155-.174.307-.352.465-.526a1.212,1.212,0,0,0-1.462-1.894c-1.546.868-3.12,1.684-4.7,2.494.177-.2.352-.416.532-.616a1.368,1.368,0,0,0-1.649-2.139q-1.878,1.07-3.763,2.133c.455-1.029-.539-2.4-1.707-1.662q-1.433.91-2.865,1.833a1.371,1.371,0,0,0-1.981-1.533l-7.37,4.414c.536-.584,1.071-1.165,1.607-1.752,1-1.1-.323-3.111-1.675-2.172q-2.076,1.442-4.159,2.853c.239-.277.471-.565.713-.842a1.272,1.272,0,0,0-1.8-1.8,32.546,32.546,0,0,1-4.34,3.295c-.032.019-.065.035-.1.055a19.865,19.865,0,0,1,2.307-2.727,1.25,1.25,0,0,0-1.507-1.956c-.626.358-1.258.707-1.891,1.058a1.428,1.428,0,0,0-1.962-1.917c-.526.274-1.052.555-1.578.829a1.475,1.475,0,0,0-1.923-1.294l-.945.368a1.194,1.194,0,0,0-1.439-.549,7.9,7.9,0,0,0-3.924,2.911,1.479,1.479,0,0,0,1.655,2.152c.084-.032.165-.058.248-.087-.029.048-.061.09-.09.139a1.592,1.592,0,0,0,2.162,2.162c.342-.19.681-.387,1.023-.578-.836,1.278.942,2.856,2.185,2.075.307-.19.607-.39.91-.584-.158.294-.313.591-.452.894a1.516,1.516,0,0,0,1.881,2.133.044.044,0,0,0-.01.013c-1.107,1.217.4,3.517,1.865,2.417.729-.545,1.465-1.075,2.2-1.607a1.535,1.535,0,0,0,2.172,1.894c1.684-.975,3.311-2.046,4.947-3.1-.733,1.178.632,3,1.943,2.062,2.175-1.555,4.4-3.04,6.647-4.5a1.447,1.447,0,0,0,2.165,1.465c.936-.539,1.859-1.1,2.788-1.655a1.438,1.438,0,0,0,1.968,1.926c1.278-.687,2.533-1.417,3.782-2.152l-.494.513a1.415,1.415,0,0,0,1.707,2.214c1.423-.784,2.82-1.623,4.211-2.472-.549.623-1.1,1.249-1.649,1.872-1.078,1.22.3,3.272,1.807,2.343.765-.468,1.513-.965,2.269-1.455-.174.187-.352.368-.523.555-1.049,1.171.358,3.346,1.784,2.31,1.759-1.275,3.566-2.488,5.386-3.682a31.127,31.127,0,0,0-1.9,2.662c-.752,1.187,1.042,2.63,1.978,1.526,3.256-3.83,6.373-7.7,10.307-10.871,1.1-.891-.326-2.7-1.507-1.952Z" transform="translate(-112.04 -212.702)" fill="#ba8b54"/>
    <path id="Path_18353" data-name="Path 18353" d="M228.009,326.776c-.687.084-1.1.5-1.691.652-1.239-1.636-2.791-2.43-4.763-1.184a1.9,1.9,0,0,0-.294-.416c-.284-4.792-6.857-.733-9.219.413-3.375-2.856-11,6.564-2.288,4.392,1.559,2.882,4.879.226,7.27.529,1.352,3.024,20.288-1.752,10.984-4.385Z" transform="translate(-158.651 -233.936)" fill="#eb8486"/>
    <path id="Path_18354" data-name="Path 18354" d="M289.7,169.805c-5.77-6.141-10.529,9.116-3.1,9.458C290.923,178.957,291.294,172.858,289.7,169.805Z" transform="translate(-210.849 -128.821)" fill="#75757c"/>
    <g id="Group_17241" data-name="Group 17241" transform="translate(35.812 41.8)">
      <path id="Path_18355" data-name="Path 18355" d="M181.919,198.19c-.142.058-.281.116-.419.177Z" transform="translate(-178.055 -190.832)" fill="#75757c"/>
      <path id="Path_18356" data-name="Path 18356" d="M177.761,176.448a1.881,1.881,0,0,0-1.439-.526c-2.456-2.488-6.054,4.431-5.424,6.5C173.637,185.464,180.281,179.713,177.761,176.448Z" transform="translate(-170.825 -175.389)" fill="#75757c"/>
    </g>
    <path id="Path_18357" data-name="Path 18357" d="M115.585,304.57a42.058,42.058,0,0,1-5.757-5.547c-.2.177-.387.358-.584.536.184-.194.368-.384.552-.574a41.468,41.468,0,0,1-4.011-5.424,148.245,148.245,0,0,0-11.51,12.679,1.388,1.388,0,0,0,1.962,1.962q1.515-1.346,3.03-2.694c-.484.739-.971,1.475-1.442,2.22-.858,1.362.784,2.623,2.039,2.039a34.137,34.137,0,0,0,4.573-2.607,14.729,14.729,0,0,0-4.011,7.167,1.5,1.5,0,0,0,2.488,1.449q5.591-4.6,11.22-9.155c.01.013.016.029.026.042-.255.271-.516.532-.771.8q-4.865,5.213-9.335,10.778a1.47,1.47,0,0,0,2.078,2.078c4.789-4.176,9.545-8.416,14.334-12.624a33.851,33.851,0,0,1-4.882-3.12Z" transform="translate(-82.924 -213.627)" fill="#eac485"/>
    <path id="Path_18358" data-name="Path 18358" d="M179.779,342.074c-.213.016-.423.035-.636.045a47.267,47.267,0,0,1-20.31-3.195l-.855.72c-.7.587-1.394,1.181-2.091,1.772q1.273-1.341,2.569-2.659-1.438-.6-2.814-1.326c-3.253,3.333-6.428,6.747-9.471,10.3a1.492,1.492,0,0,0,1.439,2.472,11.762,11.762,0,0,0,3.55-1.388q-1.384,1.6-2.727,3.233a1.436,1.436,0,0,0,2.03,2.03q4.787-3.974,9.581-7.932l-3.053,2.846a1.645,1.645,0,0,0,1.588,2.73c.09-.029.174-.065.261-.094a4.692,4.692,0,0,0-1.52,2.862A2.622,2.622,0,0,0,160.2,357.3c1.872-.148,3.411-1.875,4.766-2.991q2.561-2.11,5.115-4.224,4.85-4,9.7-8.009Z" transform="translate(-118.043 -243.341)" fill="#eac485"/>
    <path id="Path_18359" data-name="Path 18359" d="M92.52,276.593a138.631,138.631,0,0,0-14.173,18.774c-.916,1.488,1.246,3.214,2.449,1.888q7.033-7.745,14.156-15.418a24.34,24.34,0,0,1-2.433-5.247Z" transform="translate(-72.228 -202.133)" fill="#eac485"/>
    <path id="Path_18360" data-name="Path 18360" d="M285.366,233.822c1.194-1.184-.587-2.914-1.83-1.83-3.227,2.817-6.644,5.434-9.949,8.158q-3.18,2.619-6.354,5.244c4.256-4.414,8.487-8.851,12.64-13.359a1.224,1.224,0,0,0-1.73-1.73c-3.976,3.8-7.887,7.661-11.781,11.546-.5,2.591-2.317,4.986-3.769,7.135a63.426,63.426,0,0,1-9.671,11.223c-6.163,5.6-13.966,8.342-22.149,9.022q-3.316,3.383-6.628,6.764c-2.456,2.5-5.266,5.663-3.585,9.358a1.455,1.455,0,0,0,2.265.29c.094-.084.187-.165.278-.248.723-.048,1.442-.1,2.165-.148a1.584,1.584,0,0,0,1-2.675q8.577-7.682,17.241-15.263a1.747,1.747,0,0,0,1.375.458q-2.638,2.251-5.234,4.543c-3.453,3.062-6.838,6.2-10.1,9.458-1.523,1.523.765,3.766,2.349,2.349q1.975-1.767,3.95-3.53a1.535,1.535,0,0,0,2.252,1.039c1.239-.891,2.469-1.791,3.7-2.691.145,1.113,1.407,2.156,2.475,1.333.113-.087.223-.174.336-.258h0q1.767-1.36,3.53-2.73c.036,1.171,1.365,2.336,2.536,1.51,4.1-2.891,8.122-5.9,12.188-8.842q3.049-2.207,6.07-4.46c.965-.72,1.907-1.442,2.814-2.243a37.669,37.669,0,0,1,3-2.659c.678-.478.029-1.6-.655-1.12a35.147,35.147,0,0,1-3.282,1.807c-.545.3-1.078.61-1.607.929,2.946-2.656,5.9-5.305,8.826-7.98,1.262-1.152.039-2.73-1.31-2.646l5.767-5.1c1.565-1.4-.739-3.682-2.3-2.3l-7.312,6.457c-8.5,7.4-17.254,14.553-26.312,21.265q2.106-2.217,4.3-4.353c3.633-3.043,7.328-6.012,11.013-8.993s7.341-6,11.03-8.98q3.48-2.735,6.941-5.492l-.029-.029c.923-1.12-.277-3.078-1.626-2.114q-1.917,1.375-3.821,2.762l.865-.826c3.437-3.285,6.747-6.7,10.126-10.042Z" transform="translate(-168.354 -170.543)" fill="#eac485"/>
    <path id="Path_18361" data-name="Path 18361" d="M71.212,124.653q-1.505,2.028-3.011,4.059c-1.191,1.6,1.51,3.7,2.782,2.146q4.439-5.436,9.126-10.636a12.133,12.133,0,0,1-.581-4.537,2.982,2.982,0,0,1,1.065-2.088,2.869,2.869,0,0,1,3.272-1.462c2.749.639,5.754.51,8.564,1.071,1.407.281,2.775.52,4.143.716,3.259-4,6.66-7.887,10.116-11.723.042.023.087.039.132.058q-2.106,2.488-4.085,5.086l-.01.01h0c-.081.106-.168.213-.248.319a1.372,1.372,0,0,0,.374,1.985q-2.149,2.251-4.3,4.5c1.11.116,2.233.207,3.388.236.449.01.894.029,1.342.042,1.4-1.136,2.8-2.272,4.211-3.391q-1.641,1.7-3.259,3.421,2.469.077,4.937.174,4.758-4.69,9.574-9.323a1.605,1.605,0,0,0,.958,1.817c-3.356,2.462-6.67,4.982-9.961,7.528,3.727.145,7.454.281,11.184.274q4.555,0,9.116-.216,3.771-3.209,7.545-6.418-3.262,3.19-6.531,6.373c2.3-.116,4.6-.281,6.9-.481.823-.7,1.639-1.407,2.462-2.1-.72.684-1.423,1.388-2.139,2.075.687-.061,1.378-.11,2.065-.177,1.11-.11,2.272-.31,3.456-.536,5.834-5.389,11.778-10.655,17.974-15.628q-4.1,4.564-8.193,9.132a1.451,1.451,0,0,0-2.2-.232q-3.553,3.316-7.106,6.635c3.834-.749,7.916-1.714,11.5-.955a2.91,2.91,0,0,1,2.081,2.081,6.275,6.275,0,0,1,.116.971q3.19-2.865,6.386-5.728c3.485-3.124,6.983-6.234,10.452-9.374,1.613-1.462-.758-3.795-2.378-2.378q-4.6,4.027-9.21,8.051c3.014-3.32,5.925-6.738,8.674-10.281a1.343,1.343,0,0,0-1.9-1.9c-.862.674-1.7,1.371-2.549,2.062q3.224-3.592,6.441-7.18c1.055-1.178-.339-3.33-1.791-2.32-.168.116-.332.242-.5.358a1.437,1.437,0,0,0-2.123-.842c-6.457,4.424-12.714,9.116-18.848,13.969l10.078-9.807q6.041-5.876,12.075-11.752c1.468-1.433-.7-3.521-2.223-2.223q-9.09,7.735-18.18,15.473,5.547-5.615,11.1-11.23c1.455-1.471-.691-3.495-2.23-2.23q-4.424,3.625-8.845,7.254c.184-.171.368-.342.549-.513L163.6,74.949a1.608,1.608,0,0,0-.8-2.623c.8-1.068-.665-2.833-1.9-1.991-7.538,5.157-14.821,10.671-21.872,16.473a3.174,3.174,0,0,1,.09,2.036,2.221,2.221,0,0,1,.4.361,5.414,5.414,0,0,1,1.323,3.23,2.9,2.9,0,0,1-1.478,2.575,5.035,5.035,0,0,1-4.853.194,4.827,4.827,0,0,1-2.223-3.159c-.49-2.262.11-5.644,2.5-6.673a3.072,3.072,0,0,1,4.079,1.071c.023.035.032.077.052.113q10.116-10.2,20.236-20.4c1.378-1.384-.716-3.462-2.136-2.136L126.831,92.148c5.844-6.422,12-12.572,18.242-18.59,3.4-3.282,6.838-6.528,10.274-9.778a1.659,1.659,0,0,0-1.113-2.759c.278-.258.558-.516.836-.778,1.53-1.423-.732-3.64-2.278-2.278q-8.63,7.595-17.264,15.192a1,1,0,0,0-.023-.929c1.61-1.633,3.2-3.279,4.837-4.892q4.719-4.671,9.555-9.219c1.271-1.2-.471-3.588-1.914-2.478-.107.081-.21.168-.316.252l0,0a.5.5,0,0,1-.042.039q-2.26,1.752-4.463,3.572a1.907,1.907,0,0,0-.307-.449q2.3-2.159,4.624-4.3c1.388-1.275-.4-3.556-2-2.6-4.4,2.636-8.622,5.524-12.733,8.567q4.327-4.4,8.658-8.79c1.284-1.3-.652-3.2-2-2-7.257,6.528-14.6,12.966-21.93,19.407,1.949-2.472,3.969-4.889,6.038-7.264.949-.968,1.885-1.943,2.833-2.911a1.619,1.619,0,0,0,.445-.791c2.5-2.778,5.047-5.518,7.6-8.251,1.12-1.2-.413-3.488-1.846-2.391-.1.077-.2.161-.307.239h0s-.006.006-.01.01q-7.982,6.133-15.554,12.753c2.862-2.64,5.757-5.247,8.716-7.783,1.384-1.187-.468-3.643-1.972-2.556-.926.674-1.833,1.375-2.749,2.065l4.482-4.076c1.455-1.323-.678-3.4-2.143-2.143-7.1,6.1-13.979,12.53-20.746,19q-2.706,2.59-5.376,5.215-4.414,3.3-8.667,6.8,7.43-7.261,14.87-14.508L115.73,50.466c1.394-1.352-.655-3.3-2.1-2.1q-5.349,4.443-10.578,9.029c2.214-2.314,4.431-4.627,6.554-7.019a1.562,1.562,0,0,0-2.207-2.207q-5.959,5.184-11.965,10.3,4.652-4.41,9.277-8.845c1.081-1.042-.332-2.953-1.626-2.107a190.465,190.465,0,0,0-33.808,27.4.783.783,0,0,0,1.107,1.107c6.505-5.718,13.163-11.249,20.078-16.441q-4.424,4.279-8.851,8.551C74.545,74.945,67.378,81.641,60.27,88.4c-1.271,1.21.6,3,1.9,1.9l27.4-23.114Q81.514,75.8,73.448,84.4q-4.8,5.111-9.584,10.229a1.5,1.5,0,0,0,.31,2.31,16.587,16.587,0,0,0-3.756,7.519c-.232,1.284,1.394,2.62,2.427,1.413A202.536,202.536,0,0,1,82.006,86.391a1.389,1.389,0,0,0,.058.255C75,94.316,67.9,101.938,61.047,109.806c-1.071,1.233.671,3.024,1.81,1.81,3.143-3.35,6.3-6.715,9.516-10.023-2.388,3.046-4.737,6.125-6.983,9.277a1.361,1.361,0,0,0,.339,1.859q-2.222,2.885-4.353,5.841c-.949,1.32,1.149,2.9,2.239,1.73q8.722-9.424,17.958-18.368c-1.959,2.11-3.872,4.266-5.712,6.489a107.1,107.1,0,0,0-8.806,12.227,1.526,1.526,0,0,0,.774,2.165c-1.288,1.265-2.565,2.543-3.817,3.843a1.671,1.671,0,0,0,2.362,2.362c1.588-1.494,3.211-2.949,4.844-4.389Zm68.727-24.934q-1.012,1.021-2.02,2.046c-.791.52-1.584,1.036-2.372,1.562q2.193-1.805,4.392-3.608Zm-47.932,3.3q-3.3,3.074-6.483,6.28c-.526.365-1.042.742-1.562,1.113-.01-.006-.019-.019-.029-.026a1.479,1.479,0,0,0-.239-.152q6.515-6.67,13.024-13.346a2.765,2.765,0,0,1-1.388-.755,3.068,3.068,0,0,1-.465-3.614c.432-.849.929-1.665,1.388-2.5.239-.432.458-.871.681-1.313,0-.449.11-.52.074-.274a2.89,2.89,0,0,1,2.11-2.449,3.011,3.011,0,0,1,3.669,2.081,4.979,4.979,0,0,1-.116,2.236,2.739,2.739,0,0,1,.113.481c.239-.232.478-.468.72-.7-.236.265-.471.529-.707.8a3.832,3.832,0,0,1-.31,1.959,7.436,7.436,0,0,1-3.54,3.763,3.863,3.863,0,0,1-1.552.358l-5.389,6.067Zm25.186-17.057c-1.691,2.139-3.317,4.327-4.911,6.538-.594.678-1.194,1.346-1.784,2.026a1.687,1.687,0,0,0-1.843.339q-3.7,3.287-7.283,6.7a1.529,1.529,0,0,0-2.22-.933c-.384.223-.762.458-1.142.684a1.566,1.566,0,0,0,0-.174q1.186-1.341,2.375-2.678c.035,1.368,1.743,2.549,2.891,1.259q9.061-10.179,18.832-19.674c-1.678,1.936-3.33,3.9-4.921,5.912Zm5.5-13.069a1.5,1.5,0,0,0,.261-.487c2.2-1.836,4.421-3.64,6.68-5.389q-6.752,6.593-13.288,13.408c2.156-2.478,4.285-4.976,6.347-7.532Zm-27,9.51a1.5,1.5,0,0,0,2.249.281q3.834-3.272,7.686-6.538Q93.489,86.48,81.99,97.537C86.475,92.419,91.07,87.395,95.7,82.406Z" transform="translate(-59.845 -45.852)" fill="#eac485"/>
  </g>
  <g id="Group_17243" data-name="Group 17243">
    <path id="Path_18362" data-name="Path 18362" d="M157.939,255.867a83.505,83.505,0,0,0,29.955-5.1,4.858,4.858,0,0,0,3.527-3.646c.923-3.608.468-3.953-3.14-3.327a157.5,157.5,0,0,1-17.78,2.494,201.872,201.872,0,0,1-47.271-2.9c-5.1-.913-6.173.355-4.924,5.444a3.4,3.4,0,0,0,2.853,2.865c3.746.72,7.49,1.439,11.243,2.12,2.682.487,5.389.852,8.061,1.384,1.307.261,2.646.991,2.02,2.54a3.115,3.115,0,0,1-2.556,1.326c-2.707-.213-5.389-.791-8.08-1.217-1.975-.313-3.947-.691-5.931-.874a21.791,21.791,0,0,0-3.446.2,15.68,15.68,0,0,0,1.542,2.759,35.676,35.676,0,0,0,11.252,8.474,4.5,4.5,0,0,0,5.018-.358c9.161-5.779,18.706-5.137,28.116-.845,2.924,1.333,5.266,2.091,7.938-.068a3.1,3.1,0,0,1,1.994-.7,2.733,2.733,0,0,1,1.665,1.094,1.493,1.493,0,0,1-.1,1.462,17.638,17.638,0,0,1-3.395,2.633,44.846,44.846,0,0,1-26.935,4.979c-9.226-.994-17.69-4.147-24.837-10.258-7.654-6.544-11.681-14.711-10.852-24.976.242-3,.72-3.543,3.63-3.1,4.492.684,8.935,1.73,13.443,2.269,14.279,1.707,28.577,2.991,42.986,1.559,6-.594,11.9-1.3,17.47-3.863,2.775-1.281,5.366.416,5.092,3.353a33.356,33.356,0,0,1-9.781,21.365,2.767,2.767,0,0,1-1.346.862,2.687,2.687,0,0,1-1.959-.31,2.024,2.024,0,0,1-.365-1.9c.713-1.242,1.768-2.285,2.578-3.479a7.6,7.6,0,0,0,.652-1.872,6.969,6.969,0,0,0-2.091.013c-9.658,3.175-19.607,3.708-29.655,3.353a17.625,17.625,0,0,1-4.327-.378c-.845-.248-1.462-1.288-2.181-1.968.765-.61,1.51-1.7,2.3-1.736,2.53-.1,5.076.194,7.619.336ZM154.6,273c3.046-.4,6.451-.826,9.842-1.342.365-.055.652-.632.975-.968-.258-.242-.474-.594-.781-.713a25.682,25.682,0,0,0-19.094-.255c-.452.174-.758.72-1.133,1.094.39.319.745.858,1.178.926,2.856.455,5.725.81,9.016,1.255Z" transform="translate(-77.056 -161.064)" fill="#262c54"/>
    <path id="Path_18363" data-name="Path 18363" d="M106.72,187.576c-1.513-.413-2.394-.629-3.262-.891-3.653-1.1-7.277-2.3-10.952-3.311-24.792-6.793-37.777-28.048-39.73-51.137-1.329-15.731,3.417-29.349,12.1-42.011A44.132,44.132,0,0,1,75.71,79.575a6,6,0,0,1,2.407-1.142,2.162,2.162,0,0,1,1.8.768,2.071,2.071,0,0,1-.094,1.959,37.4,37.4,0,0,1-3.256,2.862c-13.543,12.033-20.72,26.87-19.733,45.219.2,3.617.733,7.225,1.268,10.817,1.381,9.258,5.624,17.19,11.488,24.347a40.884,40.884,0,0,0,17.954,12.872c5.463,1.975,11.033,3.656,16.564,5.444.862.278,1.778.384,2.649.639,1.246.368,2.765.916,2.333,2.414-.248.855-1.739,1.355-2.372,1.8Z" transform="translate(-35.596 -53.114)" fill="#262c54"/>
    <path id="Path_18364" data-name="Path 18364" d="M89.617,342.474a84.408,84.408,0,0,1-21.068-2.581C46.16,334.436,32.32,319.46,23.385,299.117a72.27,72.27,0,0,1-3.043-8.748c-.19-.649.507-1.559.794-2.349.91.352,2.243.449,2.64,1.11a25.921,25.921,0,0,1,2.043,5.031,65.837,65.837,0,0,0,9.916,18.719,66.194,66.194,0,0,0,5.157,5.579,20.667,20.667,0,0,1,2.743,2.633c3.646,5.653,9.274,8.713,15.15,11.142a77.8,77.8,0,0,0,56.481,1.775,37.744,37.744,0,0,1,4.663-1.442,2,2,0,0,1,1.652.991,2.044,2.044,0,0,1-.39,1.92,20.693,20.693,0,0,1-4.311,2.252,77.9,77.9,0,0,1-27.261,4.737Z" transform="translate(-13.756 -195.079)" fill="#262c54"/>
    <path id="Path_18365" data-name="Path 18365" d="M311.659,154.775c-.2-3.262-.374-6.525-.6-9.787-.461-6.7-2.433-12.817-6.96-17.951a4.706,4.706,0,0,1-1.155-1.81c-.145-.607-.032-1.717.329-1.9a3.165,3.165,0,0,1,2.414-.177A6,6,0,0,1,307.632,125a28.338,28.338,0,0,1,6.612,13.566c1.488,9.355,2.385,18.781.574,28.187-3.182,16.519-11.73,29.539-25.983,38.616a64.544,64.544,0,0,1-19.349,8.567,23.378,23.378,0,0,1-4.818.665,1.663,1.663,0,0,1-.691-3.078,32.74,32.74,0,0,1,4.621-1.539c11.239-3.195,21.252-8.532,29.113-17.3a52.478,52.478,0,0,0,13.947-37.9Z" transform="translate(-178.265 -83.296)" fill="#262c54"/>
    <path id="Path_18366" data-name="Path 18366" d="M212.222,3.946c-2.291.184-4.827.4-7.37.584a8.664,8.664,0,0,1-2.694-.01,2.16,2.16,0,0,1-1.417-1.326,2.009,2.009,0,0,1,.907-1.72A21.088,21.088,0,0,1,206.924.219c24.547-1.613,46,5.628,63.644,22.966,3.185,3.13,5.405,7.261,7.948,11.013a7.261,7.261,0,0,1,.887,3.085,1.563,1.563,0,0,1-.858,1.249,2.468,2.468,0,0,1-1.943-.158,6.562,6.562,0,0,1-1.552-2.181,47.521,47.521,0,0,0-14.615-16.7,78.593,78.593,0,0,0-48.21-15.547Z" transform="translate(-135.958 0)" fill="#262c54"/>
    <path id="Path_18367" data-name="Path 18367" d="M295.774,168.172c-5.441-1.068-10.42-2.033-15.392-3.033a12.154,12.154,0,0,1-2.059-.691c-6.528-2.611-7.851-8-2.556-12.553,3.653-3.143,8.119-5.36,12.333-7.8.632-.368,1.872.307,2.83.5a8.7,8.7,0,0,1-.552,2.42c-1.3,2.34-3.043,4.476-4.037,6.925-1.178,2.911-.329,4.769,2.433,6.4a52.576,52.576,0,0,0,5.428,2.481c.826.368,1.7.642,2.488,1.078,1.175.655,2.256,1.63,1.371,3.007-.465.726-1.691.962-2.291,1.271Zm-13.388-7.544c-.219-2.162-.387-3.93-.584-5.7-.074-.674-.213-1.342-.326-2.014a6.335,6.335,0,0,0-1.881.82,10.735,10.735,0,0,0-2.414,2.84,2.6,2.6,0,0,0,.2,2.423,18.938,18.938,0,0,0,4.24,2.094c.236.1.729-.445.765-.471Z" transform="translate(-184.562 -97.522)" fill="#262c54"/>
    <path id="Path_18368" data-name="Path 18368" d="M137.7,169.374c-.319-.223-1.4-.587-1.572-1.21a2.7,2.7,0,0,1,.92-2.214c1.959-1.6,4.285-2.782,6.092-4.518,4.556-4.379,4.34-7.645-.423-11.727a10.891,10.891,0,0,1-1.878-1.92,1.593,1.593,0,0,1-.081-1.488,5.222,5.222,0,0,1,1.755-.984.644.644,0,0,1,.523.065c4.456,2.772,9.193,5.192,13.263,8.448,3.356,2.685,2.888,6.473-.265,9.474a12.556,12.556,0,0,1-1.72,1.333c-3.059,2.046-12.407,4.792-16.615,4.737Zm11.368-7c1.952.3,5.45-2.74,5-4.321a3.967,3.967,0,0,0-1.952-2.381c-1.526-.61-1.52,1.016-1.9,1.914a35.258,35.258,0,0,0-1.352,3.553c-.116.378.139.868.21,1.233Z" transform="translate(-92.178 -98.401)" fill="#262c54"/>
    <path id="Path_18369" data-name="Path 18369" d="M186.807,42.182c-9.106.274-18.174.887-26.393,5.486a4.1,4.1,0,0,1-1.991.723,2.7,2.7,0,0,1-1.684-1.042,1.653,1.653,0,0,1,.065-1.481,4.326,4.326,0,0,1,1.478-1.546,29.373,29.373,0,0,1,4.85-2.456,69.2,69.2,0,0,1,24.647-3.921,30.5,30.5,0,0,1,6.422,1.113,2.006,2.006,0,0,1,.991,1.665,1.983,1.983,0,0,1-1.32,1.394c-2.346.148-4.708.065-7.064.065Z" transform="translate(-106.06 -25.686)" fill="#262c54"/>
    <path id="Path_18370" data-name="Path 18370" d="M0,150.05a63.248,63.248,0,0,1,6.1-25.3,20.973,20.973,0,0,1,2.907-4.589,2.413,2.413,0,0,1,2.307-.494c.529.326.733,1.5.72,2.3a4.812,4.812,0,0,1-.845,1.978A54.645,54.645,0,0,0,4.26,153.3c.016.365.055.729.042,1.091-.052,1.407.326,3.211-1.81,3.282C.836,157.727.6,156.194.426,154.936.207,153.319.136,151.68,0,150.05Z" transform="translate(0 -80.968)" fill="#262c54"/>
    <path id="Path_18371" data-name="Path 18371" d="M452.244,174.754c0,2.52.081,5.044-.032,7.557-.061,1.326-.713,2.7-2.259,2.369-.665-.145-1.339-1.523-1.5-2.43-.245-1.4.071-2.888-.071-4.314-.539-5.363-1.168-10.717-1.772-16.076-.061-.532-.342-1.117-.2-1.581.184-.613.568-1.417,1.071-1.613a2.042,2.042,0,0,1,1.894.394,8.559,8.559,0,0,1,1.559,3.362c.668,4.082,1.126,8.2,1.665,12.3-.116.013-.236.023-.352.035Z" transform="translate(-302.332 -107.408)" fill="#262c54"/>
    <path id="Path_18372" data-name="Path 18372" d="M330.875,68.4c-.929.5-1.742,1.317-2.32,1.175a9.4,9.4,0,0,1-3.32-1.717c-3.63-2.769-7.341-5.36-11.746-6.793a4.81,4.81,0,0,1-1.839-1.087,1.647,1.647,0,0,1-.436-1.436,2.517,2.517,0,0,1,1.442-1.317,5.609,5.609,0,0,1,2.665.239c5.473,1.778,9.984,5.153,14.289,8.829a8.96,8.96,0,0,1,1.268,2.11Z" transform="translate(-210.753 -38.71)" fill="#262c54"/>
    <path id="Path_18373" data-name="Path 18373" d="M407.167,331.478a8.844,8.844,0,0,1-1-2.575,3.913,3.913,0,0,1,.913-1.9c2.236-3.295,4.45-6.605,6.818-9.807a2.5,2.5,0,0,1,2.246-.781,2.668,2.668,0,0,1,.939,2.23,6.888,6.888,0,0,1-1.213,2.982c-1.839,2.691-3.737,5.347-5.76,7.9-.6.762-1.684,1.142-2.946,1.952Z" transform="translate(-275.103 -214.261)" fill="#262c54"/>
    <path id="Path_18374" data-name="Path 18374" d="M59.069,69.475c-.378-.558-1.2-1.213-1.22-1.891-.052-2.233,4.7-7.932,7.015-8.477a2.611,2.611,0,0,1,1.881.687,1.536,1.536,0,0,1,.274,1.465c-2.13,2.669-4.34,5.27-6.57,7.858-.187.219-.671.184-1.384.358Z" transform="translate(-39.181 -40.016)" fill="#262c54"/>
  </g>
</svg>
