<svg id="_43" data-name="43" xmlns="http://www.w3.org/2000/svg" width="144.147" height="143.358" viewBox="0 0 144.147 143.358">
  <g id="Group_17244" data-name="Group 17244" transform="translate(15.644 15.081)">
    <path id="Path_18375" data-name="Path 18375" d="M266.227,151.1c-1.184-.19-2.365-.41-3.553-.587l-1.707-.252a13.269,13.269,0,0,0-2.133-.255,1.548,1.548,0,0,0-1.517,1.339,1.572,1.572,0,0,0,1.107,1.694,10.442,10.442,0,0,0,1.659.432c.584.132,1.165.271,1.749.4,1.142.252,2.291.478,3.437.72a1.811,1.811,0,1,0,.962-3.492Z" transform="translate(-189.917 -116.676)" fill="#75757c"/>
    <path id="Path_18376" data-name="Path 18376" d="M149.5,152a1.854,1.854,0,0,0-2.314-1.542,2.229,2.229,0,0,0-.581.223c.055-.023.11-.048.168-.071a3.291,3.291,0,0,1-.432.09l-.865.184c-.552.116-1.1.236-1.659.352a8.633,8.633,0,0,0-3.469,1.11,1.319,1.319,0,0,0-.616,1.284,1.289,1.289,0,0,0,.923,1.071,9.185,9.185,0,0,0,3.914-.187c.561-.084,1.123-.171,1.684-.255.294-.045.587-.09.878-.132.058-.01.119-.019.177-.026a1.426,1.426,0,0,0,.371,0,2.1,2.1,0,0,0,1.31-.542,1.788,1.788,0,0,0,.51-1.555Z" transform="translate(-110.278 -116.941)" fill="#75757c"/>
    <path id="Path_18377" data-name="Path 18377" d="M257.906,250.093c-.839.371-1.678.736-2.52,1.1q1.031-1.016,2.03-2.059c.755-.791.013-2.436-1.152-1.981l-.323.129c.465-.419.926-.839,1.388-1.249a1.238,1.238,0,0,0-.384-2.046c.4-.339.81-.671,1.207-1.016.845-.739-.232-1.968-1.152-1.494-1.1.571-2.233,1.1-3.375,1.62.687-.707,1.371-1.417,2.068-2.117a1.089,1.089,0,0,0,.106-1.494.33.33,0,0,0,.035-.023.611.611,0,0,0-.616-1.055c-3.424,1.688-6.841,3.308-10.139,5.24a1.253,1.253,0,0,0,1.265,2.162c.839-.426,1.678-.855,2.517-1.281-.345.352-.694.7-1.039,1.049a1.213,1.213,0,0,0,.413,1.952c-.371.277-.739.561-1.091.858a1.328,1.328,0,0,0,.52,2.233,1.382,1.382,0,0,0,1.726,2.091c.3-.155.61-.29.916-.439-.894.823-1.784,1.646-2.682,2.465-1.258,1.149.342,2.791,1.691,2.191.668-.3,1.329-.6,1.994-.907-1.259,1.136-2.5,2.285-3.682,3.5-.994,1.02.261,2.836,1.52,2.107-.316.323-.642.639-.952.971a1.261,1.261,0,0,0,1.523,1.972c.491-.271.987-.529,1.481-.794-1.784,1.8-3.575,3.595-5.35,5.4a1.281,1.281,0,0,0,.336,2.023,1.3,1.3,0,0,0,2.085.52c.336-.29.665-.587,1-.881a10.8,10.8,0,0,1,3.191-1.678.561.561,0,0,0,.991.52c.323-.436.642-.874.965-1.31a.761.761,0,0,0-.655-1.139c-.187.016-.378.042-.565.068.868-.778,1.746-1.549,2.649-2.291l-.019-.019a1.081,1.081,0,0,0-.829-1.814c.907-.968,1.82-1.926,2.723-2.895a1.094,1.094,0,0,0-1.32-1.71l-1.113.542c1.017-1.042,2.036-2.081,3.085-3.088a1.213,1.213,0,0,0-.971-2.043c.674-.642,1.346-1.284,2.036-1.907,1.149-1.039-.313-2.527-1.533-1.988Z" transform="translate(-181.221 -176.502)" fill="#ba8b54"/>
    <path id="Path_18378" data-name="Path 18378" d="M197.168,215.892c-.136.1-.278.187-.413.287a1.461,1.461,0,0,0-1.139-1.023c.1-.119.19-.239.29-.358.962-1.139-.558-2.724-1.655-1.655-.365.352-.726.7-1.091,1.055a1.017,1.017,0,0,0-.378-.094,1.558,1.558,0,0,0-1.72-.665,1.524,1.524,0,0,0-1.53-1.084,1.556,1.556,0,0,0-2.049-.9c-.236.106-.471.216-.707.323a1.211,1.211,0,0,0-1.781-.681c-.129.065-.255.132-.384.2a1.181,1.181,0,0,0-1.833-.745c-.626.387-1.255.771-1.885,1.158a1.222,1.222,0,0,0-1.746-.878q-1.268.605-2.517,1.246a1.372,1.372,0,0,0-2.23-.839c-2.724,2.269-5.521,4.479-8.148,6.864q-1.075.857-2.172,1.688-.847.62-1.675,1.258c-.139.1-.271.21-.413.31h0c-.084.065-.168.126-.248.19-1.081.845.355,2.733,1.481,1.92.849-.613,1.7-1.242,2.543-1.868a1.2,1.2,0,0,0,1.784.994q3.572-2.193,7.183-4.314a1.247,1.247,0,0,0,1.639.219c.639-.371,1.288-.729,1.936-1.084a1.383,1.383,0,0,0,1.83.465l1.684-.784a1.554,1.554,0,0,0,2.026,1.033,1.575,1.575,0,0,0,.61.791c-.11.09-.216.184-.326.278-1.117.936.326,2.749,1.542,2,.281-.171.558-.349.839-.523a1.345,1.345,0,0,0,.981.968c-.035.032-.074.065-.11.1-1.11,1.029.3,2.691,1.565,2.03.452-.236.9-.484,1.346-.729a1.222,1.222,0,0,0,.574-.035,16.447,16.447,0,0,0,7.8-5.163c.826-.991-.271-2.83-1.5-1.943Z" transform="translate(-124.937 -157.535)" fill="#ba8b54"/>
    <path id="Path_18379" data-name="Path 18379" d="M158.475,84.65c-1.581.9-3.146,1.82-4.714,2.736a4.994,4.994,0,0,0,.968-1.43,7.586,7.586,0,0,0,1.291-1.394c.352-.513-.229-1-.716-.929A10.316,10.316,0,0,0,152.073,85c-.578.31-1.149.636-1.72.955a1.414,1.414,0,0,0-1.2-1.149,1.55,1.55,0,0,0-.184-.458l7.544-5c1.446-.958.136-3.262-1.371-2.343Q144.169,83.7,133.2,90.4q2.783-1.975,5.573-3.953,5.716-4.047,11.423-8.1a1.445,1.445,0,0,0-.526-2.6c.72-.413,1.436-.836,2.159-1.246a1.168,1.168,0,0,0-1.178-2.017q-12.023,6.747-24.1,13.424c3.007-1.736,6.012-3.479,9.035-5.186q7.115-4.018,14.3-7.925c1.584-.862.194-3.095-1.391-2.378-2.507,1.139-4.979,2.346-7.432,3.585.261-.184.526-.365.787-.545a1.281,1.281,0,0,0,.594-1.062c.136-.077.268-.158.4-.236a1.535,1.535,0,0,0-1.549-2.649Q137,71.86,132.773,74.327a1.152,1.152,0,0,0-.516-.1c3.275-2.52,6.5-5.111,9.752-7.667,1.184-.933-.339-2.82-1.591-2.062-.452.274-.91.539-1.362.813l2.995-2.11c1.471-1.036.081-3.479-1.426-2.44q-9.216,6.36-18.442,12.708c.242-.2.484-.4.729-.594q5.716-4.09,11.546-8.019a1.385,1.385,0,0,0,.478-1.784q2.6-2.12,5.205-4.243c1.042-.849-.432-2.272-1.465-1.465q-1.384,1.084-2.772,2.165c.187-.19.384-.374.561-.578.581-.678.042-2.117-.987-1.694-.319.132-.623.287-.929.442.242-.942-.949-2.152-1.923-1.459Q119.6,65.5,106.493,74.627q6.467-5.261,12.937-10.513c3.885-3.149,7.712-6.37,11.6-9.519,1.113-.9-.345-2.788-1.536-1.988q-5.431,3.645-10.862,7.286,4.724-3.577,9.452-7.154c1.21-.913.065-2.982-1.213-2.075l-4.94,3.5c1.016-.916-.229-2.707-1.426-2.32l.29-.2c1.3-.9.1-3.033-1.255-2.149-1.872,1.217-3.721,2.462-5.583,3.695q2.265-1.718,4.527-3.433c1.249-.945.148-3.037-1.268-2.165-2.062,1.265-4.1,2.565-6.144,3.856,1.181-.849,2.359-1.694,3.55-2.533s.071-2.84-1.165-1.994q-2.5,1.7-4.976,3.446a1.2,1.2,0,0,0-1.794-1.194l-.165.094a1.113,1.113,0,0,0-1.459-.726,24.145,24.145,0,0,0-3.947,2.075,1.111,1.111,0,0,0-1.649-.955c-.936.626-1.852,1.275-2.778,1.914l1.72-1.452c1.188-1-.507-2.623-1.688-1.688C93,51.38,89.41,54.472,85.7,57.418c-1.2.958-2.42,1.9-3.63,2.849q6.06-5.416,12.114-10.836A1.044,1.044,0,0,0,92.924,47.8q-2.972,1.931-5.854,3.972a.977.977,0,0,0-1.423-.429c-5.737,4.011-11.2,8.435-16.77,12.679-.707.539-1.4,1.1-2.1,1.642,4-3.656,8.177-7.119,12.495-10.378,1.142-.862.081-2.817-1.152-1.968A122.472,122.472,0,0,0,52.678,77.044a1.1,1.1,0,0,0,.894,1.839Q51.2,80.94,48.88,83.049c-1.078.913.468,2.42,1.542,1.542C56.64,79.5,62.575,74.036,68.657,68.78l8.267-7.144c.558-.432,1.129-.845,1.691-1.275q-13.3,11.7-26.59,23.4c-1.233,1.084.536,2.74,1.768,1.768.994-.781,1.972-1.578,2.962-2.362-2.749,2.549-5.457,5.134-7.993,7.9-.891.971.513,2.394,1.452,1.452,4.059-3.55,7.99-7.254,11.94-10.93,2.314-1.988,4.64-3.956,6.948-5.925q4.642-3.964,9.384-7.812L61.168,82.9c-3.592,3.12-7.173,6.238-10.652,9.481-.965.9.445,2.249,1.43,1.43q2.251-1.878,4.54-3.711a1.423,1.423,0,0,0,1.633,1.007q-3.955,2.759-7.912,5.515a1.208,1.208,0,0,0,.471,2.165c-.142.129-.287.258-.429.39-1.052.965.287,2.565,1.484,1.923.6-.323,1.184-.665,1.781-.991a1.241,1.241,0,0,0,.084.326q-1.684,1.317-3.372,2.636c-1.31,1.023.39,3.195,1.775,2.3q3-1.936,5.967-3.9-4.3,3.63-8.5,7.361a1.508,1.508,0,0,0,1.82,2.359c.465-.307.926-.62,1.388-.926-.152.116-.3.229-.455.345-1.491,1.136-.113,3.7,1.513,2.588q3.02-2.057,6.031-4.124-4.347,3.838-8.584,7.8c-1.055.987.365,2.927,1.578,2.046q5.019-3.65,10.049-7.277c-2.785,2.694-5.473,5.483-8.019,8.4-.9,1.029.313,2.956,1.565,2.03,3.924-2.9,7.89-5.741,11.865-8.567q-5.939,5.116-11.759,10.378l-.01.01-.006.006c-.313.284-.636.561-.949.849-1,.913.313,2.653,1.462,1.891q2.159-1.433,4.24-2.969,5.136-3.471,10.274-6.944-6.423,5.649-12.843,11.3a1.391,1.391,0,0,0,.174,2.11,1.408,1.408,0,0,0-.394,1.4c-.239.381-.481.755-.72,1.136-.636,1.007.694,2.5,1.72,1.72,6.493-4.9,13.13-9.61,19.733-14.366l9.4-6.767a3.447,3.447,0,0,1-2.11-1.181l-3.156,2.265c1-.833,1.985-1.681,2.975-2.523a2.334,2.334,0,0,1,.207-2.785c4.3-5.741,10.262-10.336,17.7-10.691a18.863,18.863,0,0,1,4.3.307c.084-.048.168-.094.252-.139l-.207.148a22.1,22.1,0,0,1,13.15,7.993c3.469,4.44,4.472,9.849,4.047,15.3q4.937-2.764,9.949-5.389-4.085,2.769-8.177,5.531c-.642.432-1.281.868-1.923,1.3-.029.248-.058.494-.1.742-.174,1.194-.384,2.465-.645,3.766.358-.242.716-.487,1.075-.729a1.141,1.141,0,0,0,.287.4c-.5.339-1,.684-1.5,1.023-1.013,4.718-2.788,9.684-6.367,12.569a3.265,3.265,0,0,1-5.215-2.068,2.443,2.443,0,0,1-.084-1.607q-4.274,2.662-8.561,5.308c-.378.232-.758.455-1.139.684a1.646,1.646,0,0,0-.307-.626c.407-.319.8-.649,1.21-.965q4.763-3.233,9.523-6.46c.594-1.633,1.162-3.311,1.633-5.015-2.456,1.72-4.9,3.456-7.312,5.234,2.475-2.052,4.992-4.053,7.525-6.034a25.428,25.428,0,0,0,.755-10.529c-.574-3.424-2.117-6.78-5.089-8.7a17.85,17.85,0,0,0-2.423-1.271,2.967,2.967,0,0,1-2.362-.723l-1.846-1.317q-3.509,2.507-7.009,5.018a1.731,1.731,0,0,0-.213.187.851.851,0,0,0-.71-.013c-.165.074-.323.158-.487.239q4.085-2.832,8.222-5.586a2.783,2.783,0,0,1-1.191-2.075,17.716,17.716,0,0,0-5.725,2.046q-2.4,1.883-4.763,3.808c-.39.432-.768.881-1.123,1.352a3.038,3.038,0,0,1-1.962,1.213c-.381.323-.771.632-1.149.955q-3.485,2.522-6.964,5.057c-3.256,2.375-6.515,4.747-9.752,7.154-1.6,1.194-3.22,2.375-4.8,3.6-1.43,1.117-3.356,2.278-4.3,3.853a.617.617,0,0,0,.691.9c1.633-.368,3.2-1.617,4.608-2.6-2.1,1.691-4.176,3.417-6.176,5.218a1.273,1.273,0,0,0-.452,1.239,67.423,67.423,0,0,0-5.2,4.6c-1.184,1.184.549,2.788,1.794,1.794,2.895-2.31,6.038-4.337,9.045-6.5,2-1.439,3.982-2.911,5.967-4.376-3.5,3.285-7.038,6.531-10.575,9.784-1.075.987.371,2.949,1.591,2.059,1.665-1.217,3.311-2.459,4.966-3.695q-3.258,2.885-6.525,5.76c-1.246,1.091.4,3.259,1.784,2.314,2.511-1.714,5-3.45,7.5-5.182a1.011,1.011,0,0,0,1.113.116c.006.013.01.023.016.036.052-.029.1-.061.148-.09-.055.042-.11.084-.161.126-.745.584-1.491,1.178-2.217,1.784-.849.71-1.559,1.568-2.388,2.281a.6.6,0,0,0,.158.962c-.181.152-.355.307-.536.455-1.242,1.036.413,3.214,1.743,2.259.374-.268.749-.539,1.123-.81-1.4,1.362-2.791,2.743-4.147,4.156-.945.984.29,2.756,1.507,1.952,3.153-2.094,6.325-4.163,9.494-6.241q-2.052,1.946-4.047,3.953a1.426,1.426,0,0,0,1.72,2.23c.1-.055.19-.11.29-.165-.833.7-1.665,1.407-2.488,2.12-1.194,1.036.352,3,1.681,2.178q3.645-2.256,7.27-4.547-1.346,1.263-2.669,2.546a1.263,1.263,0,0,0,1.523,1.975c.074-.045.148-.087.223-.132-.916,1.02.261,2.882,1.488,1.981,6.344-4.663,12.733-9.261,19.068-13.931,1.917-1.229,3.83-2.465,5.75-3.688q-2.7,2.265-5.324,4.611c-1.158,1.036.342,2.962,1.655,2.146q9.918-6.147,19.865-12.246-3.364,2.425-6.728,4.85-3.03,2.173-6.06,4.35-3.708,1.781-7.4,3.6c-2.9,1.3-5.757,2.691-8.555,4.2-1.5.81-.181,3,1.326,2.265q2.183-1.06,4.369-2.114a1.388,1.388,0,0,0,1.83.629c.678-.316,1.346-.668,2.017-1.007a1.356,1.356,0,0,0,2,1.323c.849-.442,1.688-.9,2.53-1.355a1.376,1.376,0,0,0,1.21-.123l3.343-1.868c.52.013,1.036.032,1.546.048l-.458.319a1.61,1.61,0,0,0,1.623,2.778c.3-.165.6-.336.907-.5a1.352,1.352,0,0,0,1.959.552c7.019-4.137,14.047-8.254,21.043-12.43a1.54,1.54,0,0,0,.558-1.933l2.317-1.533q5.1-3.272,10.107-6.686c1.662-1.139.1-3.863-1.591-2.724-1.255.845-2.52,1.684-3.782,2.52a1.406,1.406,0,0,0-2.056-1.61q-6,3.374-12.02,6.705,9.957-6.675,20.12-13.043c1.536-.958.139-3.379-1.423-2.436q-7.377,4.458-14.76,8.9l8.738-6.225c3.763-2.678,7.48-5.4,11.188-8.154,1.413-1.052.139-3.421-1.417-2.427-11.581,7.4-23.366,14.5-35.112,21.646,7.8-5.705,15.867-11.059,23.982-16.293q6.109-3.94,12.269-7.809c1.533-.965.119-3.408-1.423-2.436q-1.651,1.031-3.295,2.059a1.6,1.6,0,0,0-.739-1.175c.874-.662,1.752-1.317,2.617-1.988a35.317,35.317,0,0,0,4.05-3.337,1.326,1.326,0,0,0-1.6-2.072.024.024,0,0,0-.006-.013,22.379,22.379,0,0,0-2.352,1.636c-.623.358-1.252.7-1.83,1.062l-3.624,2.246-1.849,1.146q4.618-3.137,9.239-6.27a1.4,1.4,0,0,0,.665-1.12q1.292-.949,2.588-1.891c1.11-.807.1-2.653-1.1-1.878-1.581,1.023-3.175,2.03-4.769,3.043a.455.455,0,0,1-.058.026,1.362,1.362,0,0,0-.723.239c-.152.1-.3.2-.455.3q-3.6,1.651-7.161,3.372c2.659-1.678,5.331-3.333,8.035-4.94a1.309,1.309,0,0,0-1.32-2.259c-.613.361-1.22.733-1.83,1.094.616-.41,1.239-.81,1.849-1.226q3.65-2.231,7.3-4.46a1.4,1.4,0,0,0-1.413-2.42c-.894.439-1.778.91-2.665,1.359a.8.8,0,0,0-.01-.087c.645-.461,1.3-.916,1.933-1.391,1.284-.962.052-3.149-1.278-2.188-.484.29-.958.6-1.436.9a.867.867,0,0,0-1.258-.684c-1.181.532-2.346,1.107-3.508,1.694q5.136-3.345,10.271-6.686a1.518,1.518,0,0,0-1.53-2.62ZM126.864,66.443q1.447-1.055,2.888-2.114-1.776,1.389-3.553,2.775c-1.53,1.042-3.062,2.091-4.585,3.14q2.628-1.9,5.25-3.8Zm-18.584-5.931q4.371-3.18,8.8-6.28-7.411,5.339-14.8,10.713Q105.267,62.71,108.281,60.512ZM84.214,65.84q1.985-1.413,3.934-2.882l-6.986,5.547Zm-24.5,24.134q9.008-7.386,17.993-14.792a1.4,1.4,0,0,0,1.549,1.02q-5.015,3.291-9.8,6.886c-2.059,1.394-4.092,2.83-6.079,4.34l-3.656,2.549ZM66.863,111.7c2.481-2.327,5-4.611,7.59-6.831.278-.239.561-.471.842-.71a1.09,1.09,0,0,0,.4,1.336Q71.294,108.613,66.863,111.7Zm6.6.526c-.01-.039-.019-.077-.032-.116.855-.733,1.713-1.459,2.572-2.188a1.734,1.734,0,0,0,.11.5q-1.326.905-2.649,1.807Zm-.975-18.6q5.334-4.124,10.788-8.1a.991.991,0,0,0,1,.3q-5.881,3.921-11.788,7.8Zm14.063-8.645c-2.74.023-5.989.749-8.651-.106-3.646-1.171-2.078-6.928,1.584-5.75a1.937,1.937,0,0,0,.245.061c.232.019.465.023.7.029.662.013,1.323-.01,1.985-.035,1.378-.052,2.756-.148,4.137-.161,3.846-.032,3.837,5.931,0,5.963Zm4.827,17.512c-.668.526-1.342,1.042-2.01,1.572a1.139,1.139,0,0,0-.042-.429c.694-.458,1.384-.926,2.081-1.384A1.548,1.548,0,0,0,91.378,102.491Zm.261-21.511q7.812-5.228,15.621-10.458Q100.2,76.214,93.143,81.916A1.236,1.236,0,0,0,91.639,80.981Zm1.255,6.067q2.575-1.83,5.153-3.659-2.319,1.946-4.611,3.927a1.357,1.357,0,0,0-.542-.268Zm6.847-1.613c1.013-.613,2.026-1.236,3.03-1.862-2.039,1.478-4.085,2.956-6.115,4.447C97.68,87.15,98.713,86.3,99.742,85.434Zm25.36-1.359c-.987-.11-1.975-.216-2.966-.278-.449-.029-.9-.055-1.349-.048-.216,0-1.326.181-.445,0a2.966,2.966,0,0,1-3.311-1.584q-2.12,1.617-4.237,3.233c-.729.445-1.459.887-2.188,1.336q-6.089,3.461-12.056,7.144,8.34-5.881,16.68-11.765c.487-.287.978-.571,1.465-.858A2.567,2.567,0,0,1,118.758,78a13.505,13.505,0,0,1,3.746-.142c.245-.142.487-.284.732-.429-.194.145-.384.294-.578.439.387.032.771.068,1.158.1.862.084,1.723.19,2.585.284.449.048,2-.006.642.207-.058.035-.116.068-.174.1a2.867,2.867,0,0,1,3.1.645,3.005,3.005,0,0,1,0,4.218c-1.481,1.258-3.111.839-4.863.645Zm-17.248,36.964a.509.509,0,0,0,.148-.587c.058-.035.113-.074.171-.11a1.233,1.233,0,0,0,.884.2,36.261,36.261,0,0,0-4.524,3.688,1.412,1.412,0,0,0-.371.649q-4.884,3.495-9.774,6.977Q101.219,126.569,107.855,121.039Zm-27.816,9.168c3.937-3.734,7.89-7.435,11.727-11.262.119-.11.239-.21.358-.319,1.823-1.262,3.643-2.53,5.447-3.821a1.309,1.309,0,0,0,.248-.2,1.241,1.241,0,0,0,1.175-.136c1.191-.742,2.388-1.475,3.579-2.214a1.422,1.422,0,0,0-.026.232c-.423.31-.852.613-1.275.923-4.147,3.059-8.235,6.183-12.217,9.452a1.113,1.113,0,0,0-.423.874q-4.41,3.34-8.819,6.68l.219-.21Zm4.3,2.31-2.356,1.82-.142.1c.478-.426.955-.855,1.433-1.281C83.634,132.94,83.992,132.734,84.343,132.517Zm-5.528,15.734c5.3-4.644,10.813-9.029,16.425-13.3-.481.407-.962.813-1.423,1.239a1.174,1.174,0,0,0,.21,1.923q-7.609,5.068-15.212,10.139ZM96.9,149.92l-5.408,3.224c1.078-.845,2.168-1.675,3.269-2.5.778-.265,1.549-.552,2.307-.865l-.168.136Zm.487-8.2q-1.9,1.239-3.775,2.527-4.782,2.991-9.655,5.831,5.779-5.145,12-9.774,6.031-4.109,12.2-8l-.119.1q-5.426,4.545-10.655,9.316Zm21.546,11.517c-.229.006-.458.01-.684.01q1.7-.954,3.411-1.9-1.36.949-2.723,1.894Z" transform="translate(-48.479 -46.716)" fill="#eac485"/>
  </g>
  <g id="Group_17245" data-name="Group 17245">
    <path id="Path_18380" data-name="Path 18380" d="M184.506,196.944c.245,20.265-7.816,36.664-23.211,49.633a42.648,42.648,0,0,1-14.621,8.287,77.349,77.349,0,0,1-27.4,3.927c-2.872-.145-5.773-1.607-8.545-1.326s-5.318,2.239-8.09,3.011a15.27,15.27,0,0,1-17.022-6.744,46.639,46.639,0,0,1-3.214-6.9c-.207-.51.113-1.72.484-1.868.707-.284,2.017-.368,2.385.061a13.085,13.085,0,0,1,2.888,4.524c1.975,6.9,10.842,9.064,16.773,5.805,1.275-.7,2.469-1.546,3.75-2.233,4.8-2.565,9.623-5.092,14.437-7.635a46.9,46.9,0,0,0,6.667-3.65,11.06,11.06,0,0,0,2.991-4.353c.61-1.388-.674-2.452-2.114-1.872-1.346.542-2.627,1.246-3.924,1.9-1.32.671-2.962,1.6-3.888.023-1.139-1.946.816-2.84,2.162-3.659,1.394-.849,2.962-1.417,4.337-2.3a61.657,61.657,0,0,0,5.741-4.111,5.966,5.966,0,0,0,1.83-2.636,2.813,2.813,0,0,0-.461-2.427,2.59,2.59,0,0,0-2.4-.368c-2.417,1.255-4.7,2.772-7.038,4.169a15.19,15.19,0,0,1-3.35,1.788,2.489,2.489,0,0,1-2.265-.71,2.446,2.446,0,0,1,.5-2.336c1.855-1.442,4-2.511,5.879-3.927a55.989,55.989,0,0,0,7.012-5.938,4.708,4.708,0,0,0,.716-3.947c-.584-1.875-2.627-2-4.176-1.462a27.254,27.254,0,0,0-6.283,3.124c-2.088,1.423-3.788,3.4-5.847,4.882-.632.455-1.881.052-2.849.042.026-.836-.281-1.946.142-2.452a42.265,42.265,0,0,1,4.6-4.618c1.223-1.078,2.724-1.843,3.924-2.94.571-.52,1.226-1.875.987-2.178-.7-.891-1.91-2.091-2.775-1.988a10.507,10.507,0,0,0-4.973,1.946,80.734,80.734,0,0,0-7.667,6.931c-1.926,1.923-3.54,4.159-5.441,6.112a13.337,13.337,0,0,1-3.84,2.972c-3.3,1.494-6.286-.568-6.334-4.208-.013-1.084.307-2.172.3-3.256-.006-1.755.452-4.195-1.881-4.472-2.178-.258-2.6,2.13-3.143,3.83-.384,1.21-.584,2.475-.9,3.708q-2.343,9.25-4.711,18.49a4.662,4.662,0,0,1-.878,1.965,2.419,2.419,0,0,1-1.784.855A2.028,2.028,0,0,1,80.658,237a12.949,12.949,0,0,1,.407-3.75c1.633-6.709,3.288-13.414,5.034-20.1a17.958,17.958,0,0,1,1.836-4.518c1.7-2.882,4.166-4.056,6.8-3.4,2.891.716,4.037,2.936,4.4,5.615.219,1.613.087,3.269.223,4.9.035.413.458,1.078.768,1.113a1.581,1.581,0,0,0,1.346-.61,9.726,9.726,0,0,0,.807-3.069c.778-11.636,12.94-22.743,26.3-22.011a18.014,18.014,0,0,1,9.694,3.256c1.165.833,2.614,1.82,1.43,3.511-.965,1.378-2.194.568-3.372-.006-10.045-4.9-20.675-2.136-26.777,6.948a5.541,5.541,0,0,0-.8,1.42,4.688,4.688,0,0,0,.016,1.407,3.367,3.367,0,0,0,.965-.407,39.953,39.953,0,0,1,3.663-3.259,36.868,36.868,0,0,1,7.015-4.089c3.885-1.5,6.6-.61,9.039,2.778a5.944,5.944,0,0,0,4.269,2.724c5.321.923,7.2,4.237,5.837,9.535-.345,1.336-1.126,2.385-.187,4.043,2.969,5.253,2.733,6.612-1.146,11.094-1.091,1.259-2.252,2.278-1.643,4.25.626,2.014,1.41,2.378,2.956,1.01,7.3-6.451,9.752-19.313,5.36-28.145a20.8,20.8,0,0,1-1.755-3.366,2.533,2.533,0,0,1,.7-2.285,2.4,2.4,0,0,1,2.317.5,25.605,25.605,0,0,1,3.317,5.576c4.824,12.259-.584,27.519-11.911,34.273-5.773,3.443-11.385,7.154-17.787,9.406a9.926,9.926,0,0,0-2.4,1.284c-.365.258-.51.826-.755,1.255.432.236.871.684,1.3.674,4.54-.077,9.087-.126,13.618-.4,2.165-.129,4.292-.771,6.451-1.1,21.349-3.243,38.432-25.7,40.707-41.078,1.007-6.806,1.281-13.721,1.836-20.591.139-1.714-.7-4.153,1.943-4.234,2.217-.068,1.91,2.256,2,3.8.113,1.994.026,4,.026,6Z" transform="translate(-54.62 -126.756)" fill="#262c54"/>
    <path id="Path_18381" data-name="Path 18381" d="M39.082,96.428C38.975,66.834,59.356,43,88.115,38.5a83.218,83.218,0,0,1,9.2-.987c.833-.035,1.71.971,2.565,1.5-.649.762-1.152,1.855-1.975,2.207-1.123.478-2.5.316-3.743.552-4.453.845-8.974,1.475-13.334,2.669-26.1,7.157-40.22,34.331-37.581,56.516a77.658,77.658,0,0,0,5.5,22.108c.713,1.642,2.653,3.508.332,5.321-1.265.991-2.469-.165-4.143-3.979a67.828,67.828,0,0,1-5.857-27.971Z" transform="translate(-26.468 -25.398)" fill="#262c54"/>
    <path id="Path_18382" data-name="Path 18382" d="M389.265,164.067c-.09,16.783-2.991,30.162-9.126,42.792a46.841,46.841,0,0,1-10.4,14.54,29.371,29.371,0,0,1-5.324,3.717,2.44,2.44,0,0,1-2.336-.49c-.361-.478-.026-1.626.245-2.394.155-.439.765-.752,1.213-1.052,5.925-3.988,9.836-9.652,12.84-15.941,8.148-17.057,10.855-34.9,7.232-53.56-.449-2.3-1.4-4.511-1.868-6.812a2.451,2.451,0,0,1,1.029-2.127,2.426,2.426,0,0,1,2.227.752,14.84,14.84,0,0,1,1.717,3.966,58.412,58.412,0,0,1,2.556,16.609Z" transform="translate(-245.132 -96.629)" fill="#262c54"/>
    <path id="Path_18383" data-name="Path 18383" d="M.009,79.06c2.469-23.2,12.627-41.717,33.221-53.7a35.44,35.44,0,0,1,7.583-2.885,2.441,2.441,0,0,1,2.127,1.084c.232.52-.355,1.607-.868,2.194a4.759,4.759,0,0,1-1.939.923c-8.774,3.237-15.744,8.935-21.523,16.109C9.958,53.522,4.7,65.655,4.062,79.589a10.932,10.932,0,0,1-.452,3.191A2.1,2.1,0,0,1,2,83.868c-.561,0-1.175-.623-1.668-1.075A1.576,1.576,0,0,1,.022,81.78c-.042-.9-.013-1.81-.013-2.717Z" transform="translate(0 -15.2)" fill="#262c54"/>
    <path id="Path_18384" data-name="Path 18384" d="M120.463,147.926c-1.691,1.352-3.314,2.807-5.115,3.988a1.785,1.785,0,0,1-2.556-2.446c3.569-6.147,15.157-9.861,21.72-7.051a4.713,4.713,0,0,1,1.872,1.029c.839,1.068,1.949,2.278,2.043,3.5.129,1.71-1.594,2.146-3.056,2.443-3.359.687-6.718,1.368-10.074,2.072q-4.214.881-4.947-3.595c2.633-.423,5.27-.829,7.893-1.3.268-.048.468-.49.7-.752-.294-.142-.649-.468-.874-.4-2.546.8-5.073,1.665-7.606,2.511Z" transform="translate(-76.257 -95.809)" fill="#262c54"/>
    <path id="Path_18385" data-name="Path 18385" d="M249.209,145.031c-1.617-.365-3.8,1.046-4.756-1.32-.558-1.381.968-2.569,4.208-3.208,6.764-1.333,12.443.868,17.257,5.579a6.782,6.782,0,0,1,1.433,2.262,2.305,2.305,0,0,1-1.813,3.243,7.453,7.453,0,0,1-2.688.023c-4.072-.791-8.145-1.607-12.185-2.543-2.42-.561-2.582-2.178-1.555-4.14,2.1.323,4.195.674,6.3.952a6.129,6.129,0,0,0,1.53-.181,4.387,4.387,0,0,0-1.091-.907c-2.233-.852-4.473-1.113-6.641.236Z" transform="translate(-165.493 -94.898)" fill="#262c54"/>
    <path id="Path_18386" data-name="Path 18386" d="M193.711,3.856c-3.127.365-6.17.71-9.21,1.084-.894.11-1.775.394-2.669.432-1.291.058-2.833-.032-2.785-1.7.019-.736,1.155-1.855,1.978-2.075A42.993,42.993,0,0,1,189,.11c7.812-.545,15.5.736,23.16,2.065a4.514,4.514,0,0,1,1.926.884,1.673,1.673,0,0,1,.626,1.359c-.181.6-.684,1.452-1.178,1.546a10.666,10.666,0,0,1-3.178-.11c-5.56-.652-11.113-1.336-16.648-2.007Z" transform="translate(-121.27 0.019)" fill="#262c54"/>
    <path id="Path_18387" data-name="Path 18387" d="M254.793,94.153c8.88.071,15.147,4.369,20.471,10.449a4.437,4.437,0,0,1,.933,1.917,1.636,1.636,0,0,1-.413,1.42,2.5,2.5,0,0,1-1.923.407,6.439,6.439,0,0,1-2.056-1.691c-5.615-6.105-12.243-9.529-20.8-8.116-1.42.236-3.269.429-3.575-1.439-.3-1.826,1.462-2.31,2.9-2.546,1.6-.265,3.243-.3,4.466-.4Z" transform="translate(-167.563 -63.763)" fill="#262c54"/>
    <path id="Path_18388" data-name="Path 18388" d="M121.237,102.6c-6.186.032-12.369,3.275-18.048,7.754-.849.671-1.462,1.649-2.336,2.275-.494.355-1.6.6-1.894.329-.558-.526-1.171-1.623-.965-2.194a7.841,7.841,0,0,1,2.107-3.069,37.964,37.964,0,0,1,18.409-8.968c2.23-.429,4.679.132,7,.429,1.255.161,2.7.687,2.336,2.372-.352,1.646-1.878,1.4-3.137,1.368-.726-.019-1.449-.116-3.475-.294Z" transform="translate(-66.344 -66.754)" fill="#262c54"/>
    <path id="Path_18389" data-name="Path 18389" d="M256.837,41.727c8.3,1.488,16.147,4.021,22.427,10.016,1.126,1.075,2.995,2.252,1.572,3.995-1.475,1.807-2.943.187-4.079-.874-5.063-4.734-11.194-7.173-17.851-8.567a14.1,14.1,0,0,1-3.627-1.046c-.655-.342-.978-1.326-1.449-2.023.823-.532,1.643-1.078,2.481-1.584.116-.071.345.048.523.077Z" transform="translate(-171.921 -28.184)" fill="#262c54"/>
    <path id="Path_18390" data-name="Path 18390" d="M248.23,421.231a8.169,8.169,0,0,1-2.685-.061,10.382,10.382,0,0,1-2.365-1.736,11.706,11.706,0,0,1,2.043-2.068,4.5,4.5,0,0,1,2.123-.2,40.319,40.319,0,0,0,20.662-5.576,3.09,3.09,0,0,1,2.817-.042c1.258,1.075.5,2.42-.6,3.156a21.826,21.826,0,0,1-5.657,3.1c-5.341,1.552-10.788,2.74-16.189,4.072-.048-.216-.1-.432-.148-.649Z" transform="translate(-164.708 -278.522)" fill="#262c54"/>
    <path id="Path_18391" data-name="Path 18391" d="M364.721,115.505c-.71.194-2.149.878-2.365.6-2.507-3.217-4.866-6.554-7.141-9.942-.21-.313.278-1.452.739-1.752a2.088,2.088,0,0,1,1.952-.006,23.16,23.16,0,0,1,6.873,10.055,4.725,4.725,0,0,1-.061,1.039Z" transform="translate(-240.556 -70.549)" fill="#262c54"/>
    <path id="Path_18392" data-name="Path 18392" d="M329.989,30.277c-.655.3-1.778,1.226-2.256.968-3.127-1.7-6.147-3.621-9.116-5.6-.4-.265-.478-1.281-.387-1.9.055-.371.694-.849,1.136-.936,2.459-.478,9.849,4.066,10.568,6.434A6.638,6.638,0,0,1,329.989,30.277Z" transform="translate(-215.517 -15.417)" fill="#262c54"/>
    <path id="Path_18393" data-name="Path 18393" d="M33.828,332.337c-1.036.681-1.739,1.536-2.385,1.491-2.188-.148-5.586-5.931-4.989-8.206.265-1,2.007-1.617,2.636-.742,1.652,2.3,3.059,4.776,4.734,7.457Z" transform="translate(-17.871 -219.754)" fill="#262c54"/>
  </g>
</svg>
