<svg id="_44" data-name="44" xmlns="http://www.w3.org/2000/svg" width="144.888" height="144.566" viewBox="0 0 144.888 144.566">
  <g id="Group_17246" data-name="Group 17246" transform="translate(15.555 14.656)">
    <path id="Path_18394" data-name="Path 18394" d="M308.087,215.332a4.4,4.4,0,0,0-2.043-.955,2.726,2.726,0,0,0-.968-.6,3.459,3.459,0,0,0-2.607.1,4.73,4.73,0,0,0-2.649,4.311,5.367,5.367,0,0,0,1.784,3.953,4.659,4.659,0,0,0,4.46,1.023,5.132,5.132,0,0,0,3.385-3.185,4.356,4.356,0,0,0-1.362-4.647Z" transform="translate(-218.625 -159.311)" fill="#75757c"/>
    <path id="Path_18395" data-name="Path 18395" d="M152.69,217.7a3.6,3.6,0,0,0-2.236-3.3,4.948,4.948,0,0,0-.913-.436c-.094-.032-.194-.042-.29-.068a2.777,2.777,0,0,0-1.542-1.149,2.677,2.677,0,0,0-.978-.087,2.028,2.028,0,0,0-.6-.336,2.382,2.382,0,0,0-1.294-.042,2.981,2.981,0,0,0-1.7,1.171,3.516,3.516,0,0,0-.268,3.914,3.264,3.264,0,0,0,.216.332,5.552,5.552,0,0,0,.081.836,4.806,4.806,0,0,0,2.081,3.082,4.583,4.583,0,0,0,2.94.771h.042c.161,0,.319-.035.481-.055.035-.006.071-.006.1-.013A4.391,4.391,0,0,0,152.7,217.7Z" transform="translate(-111.999 -158.394)" fill="#75757c"/>
    <path id="Path_18396" data-name="Path 18396" d="M221.243,311.83a14.24,14.24,0,0,0-4.724-3.75,17.034,17.034,0,0,0-3.421-1.265,1.44,1.44,0,0,0-.794-.636c-3.282-.987-7.348.042-10.129,1.956a1.921,1.921,0,0,0-.384,2.978c2.152,2.023,4.969,1.714,7.69,1.872a36.472,36.472,0,0,1,4.392.516q1.084.194,2.159.452a12.36,12.36,0,0,1,2.056.536,2.477,2.477,0,0,0,.7.52,2.03,2.03,0,0,0,2.449-3.172Z" transform="translate(-151.855 -221.778)" fill="#ba8b54"/>
    <path id="Path_18397" data-name="Path 18397" d="M161.94,100.137c.92-.774.061-2.265-.926-2.285.594-.962-.842-2.165-1.878-1.346-13.053,10.336-25.918,20.9-38.82,31.424l-5.583,4.556c.268.171.536.339.784.532,3.03,2.349-1.22,6.541-4.218,4.218-.784-.61-3.724-1.055-5.115-1.229a19.223,19.223,0,0,0-3.337-.158c-.665.035-2.1.755-1.459-.113a3.085,3.085,0,0,1-3.262,1.194l-3.953,2.756q1.612-1.505,3.224-3.014c-1.459-.681-2.378-2.294-1.158-3.947.023-.029.048-.055.071-.084q-6.864,5.242-13.734,10.484c5.589-5.663,11.543-10.971,17.574-16.176q2.348-2.009,4.685-4.024a1.063,1.063,0,0,0,.4-1.029l2.646-1.92q4.671-3.258,9.339-6.512,4.472-3.117,8.942-6.231c-5.857,4.547-11.639,9.187-17.3,13.989-3.924,3.327-7.861,6.706-11.527,10.316-.042.042-.065.084-.1.126,1.985-1.688,4.773-1.914,7.4-1.755l1.62-1.513a1.216,1.216,0,0,0,.294-1.333q2.648-2.222,5.341-4.392c6.58-4.6,12.992-9.458,19.255-14.492-.045-.039-.1-.068-.142-.106a4.606,4.606,0,0,1-1.359-4.837,4.829,4.829,0,0,1,3.462-3.22,4.9,4.9,0,0,1,1.016-.071,3.543,3.543,0,0,1,2.094-.1,3.62,3.62,0,0,1,2.062,1.607,6.127,6.127,0,0,1,.878,2.527,2.3,2.3,0,0,1,.171.236,3.012,3.012,0,0,1,.3,2.3,6.477,6.477,0,0,1-1.171,2.11,3.635,3.635,0,0,1-1.726,1.091,3.4,3.4,0,0,1-1.484.087,3.507,3.507,0,0,1-.368.016,6.4,6.4,0,0,1-3.227-1.249Q119.21,119.321,106.8,130.1a20.511,20.511,0,0,1,6.938,1.82c10.491-8.325,21.13-16.46,31.672-24.725,3.859-3.027,7.567-6.234,11.33-9.381.494-.413-.165-1.281-.7-.9q-8.253,5.886-16.325,11.972,1.709-1.486,3.421-2.969,5.455-4.734,10.913-9.465a1.362,1.362,0,0,0,.394-.555,59.329,59.329,0,0,0,5.67-5.189,1.06,1.06,0,0,0,.161-1.258.98.98,0,0,0-.126-.177c-.013-.01-.023-.023-.035-.032a1.064,1.064,0,0,0-1.258-.161,51.556,51.556,0,0,0-4.811,3.372c.2-.171.39-.345.587-.516,1.049-.916-.326-2.711-1.494-1.936-.926.613-1.846,1.236-2.769,1.852,2.085-1.875,4.147-3.779,6.144-5.741a1.3,1.3,0,0,0-.3-1.981c.784-.629,1.575-1.242,2.359-1.878.691-.561-.207-1.707-.949-1.229-4.54,2.917-9.022,5.867-13.437,8.977s-8.8,6.263-13.182,9.413q-13.069,9.376-26.106,18.8-3.669,2.653-7.338,5.308c-2.2,1.591-4.521,3.108-6.647,4.811,2.978-2.782,6.025-5.492,9.11-8.141a291.407,291.407,0,0,0,27.129-20.907c.965-.655,1.93-1.313,2.895-1.965,2.759-1.859,5.505-3.73,8.2-5.683.807-.584,1.6-1.181,2.407-1.768a1.484,1.484,0,0,0,2.1.071q3.214-2.928,6.425-5.87a1.309,1.309,0,0,0,.439-.845l.5-.378a23.737,23.737,0,0,0,3.9-3.214c.561-.678.055-2.1-.978-1.681a22.784,22.784,0,0,0-4.23,2.662c-.833.578-1.655,1.168-2.478,1.755q-1.53.92-3.053,1.843l.006-.006a.626.626,0,0,0-.884-.884c-2.265,1.852-4.508,3.737-6.744,5.624q-7.866,5-15.515,10.339,7.711-6.481,15.492-12.872,7.982-6.564,16-13.082c1.094-.891-.368-2.817-1.523-1.972Q134.058,83.117,118,94.874q4.168-3.664,8.4-7.264c6.66-5.657,13.643-10.907,20.326-16.535.478-.4-.132-1.136-.652-.842A142.344,142.344,0,0,0,128.5,82.367c1.029-.955,2.062-1.907,3.085-2.869,4.443-4.169,8.887-8.342,13.376-12.459a1.31,1.31,0,0,0-1.581-2.049l-.09.058a1.277,1.277,0,0,0-.891-1.626c.216-.2.436-.394.645-.594a.712.712,0,0,0-.858-1.113,129.516,129.516,0,0,0-11.41,7.648c-3.753,2.643-7.47,5.334-11.2,8.016-7.457,5.373-14.889,10.791-22.2,16.364-1.236.942-2.452,1.9-3.663,2.875q2.754-2.7,5.531-5.353c.5-.481,1.013-.952,1.52-1.43q7.851-5.126,15.441-10.655c3.834-2.782,7.677-5.554,11.465-8.4,1.852-1.391,3.679-2.827,5.489-4.272a57.775,57.775,0,0,0,5.708-4.856.539.539,0,0,0-.652-.842,58.367,58.367,0,0,0-6.48,3.853c-1.988,1.265-3.972,2.549-5.915,3.885q-3.475,2.386-6.925,4.815c.849-.745,1.694-1.494,2.543-2.236q6.355-5.552,12.82-10.978c.971-.82-.29-2.427-1.355-1.755-4.221,2.662-8.351,5.453-12.414,8.338q5.755-4.845,11.568-9.629c1-.82-.278-2.346-1.349-1.746a197.016,197.016,0,0,0-17.629,11.265q7.972-7.3,15.944-14.6c1.333-1.22-.6-3.066-1.956-1.956L96.767,75q6.694-6.292,13.543-12.414,5.092-4.526,10.278-8.945c1.016-.868-.307-2.572-1.43-1.852q-7.454,4.8-14.721,9.861,6.341-5.17,12.824-10.191c1.207-.933-.387-3.027-1.646-2.133C101.952,59.036,88.654,69.359,75.85,80.2c6.454-6.638,13.188-13,20.271-19q5.721-4.84,11.736-9.3c1.039-.774.077-2.533-1.039-1.778C100.348,54.506,94.082,59.169,87.947,64q7.59-7.309,15.192-14.6c1.175-1.126-.549-2.765-1.759-1.759q-1.578,1.317-3.156,2.63a1.193,1.193,0,0,0-1.762-.6q-15.775,11.786-31.73,23.34a208.061,208.061,0,0,1,30.091-25.78c1-.7.116-2.288-.968-1.659A194.922,194.922,0,0,0,76.6,56.784,143.125,143.125,0,0,0,61.19,70.121c-.539.529.265,1.313.823.823,2.995-2.649,6.092-5.157,9.245-7.6A179.614,179.614,0,0,0,54.93,80.079c-.807.945.281,2.727,1.439,1.865q4.153-3.093,8.322-6.16-2.706,2.469-5.35,5.008-4.976,4.806-9.636,9.916a1.331,1.331,0,0,0,1.881,1.881l23.2-19.432Q67.234,80.394,59.7,87.649a1.128,1.128,0,0,0-.019,1.681c-1.171,1.046-2.343,2.094-3.5,3.153-1.22,1.113-2.462,2.214-3.653,3.362-1,.968-2.53,2.152-2.772,3.6a.523.523,0,0,0,.5.652c1.388-.055,2.5-1.175,3.54-1.985,1.307-1.02,2.549-2.13,3.811-3.2,1.62-1.378,3.22-2.782,4.818-4.189q-2.449,2.783-4.811,5.644a1.383,1.383,0,0,0,1.171,2.291c-1.3,1.288-2.569,2.6-3.766,3.972-2.259,2.588-4.511,5.179-6.686,7.838-.41.5.252,1.207.726.726q2.43-2.444,4.921-4.837-1.66,1.728-3.324,3.456c-1.323,1.378.645,3.266,2.068,2.068q4.381-3.688,8.745-7.39c-3.7,4.037-7.261,8.19-10.575,12.54l-.019.019h0c-.074.1-.155.2-.232.294-1.013,1.339,1.152,2.92,2.291,1.768,6.128-6.209,12.385-12.359,19.077-17.967A176.068,176.068,0,0,0,55.1,120.751c-.984,1.359,1.033,2.517,2.136,1.649q4.71-3.708,9.4-7.444a1.292,1.292,0,0,0,.416-.01c-3.9,3.985-7.686,8.093-11.249,12.4A1.311,1.311,0,0,0,57.65,129.2q2.319-1.917,4.644-3.83a1.74,1.74,0,0,0,.316,2.168c1.533,1.572,3.727.055,5.037-.936q2.909-2.2,5.812-4.408-7.12,6.631-14.244,13.263a1.335,1.335,0,0,0,1.291,2.214,16.558,16.558,0,0,0,3-1.107c-.471.516-.952,1.026-1.42,1.549a1.407,1.407,0,0,0,1.988,1.988q5.576-4.41,11.142-8.829c-3.172,3.291-6.238,6.683-9.113,10.252-.787.981.261,2.811,1.481,1.92q6.147-4.5,12.275-9.035a1.33,1.33,0,0,0,1.091-.352c.981-.887,1.975-1.759,2.969-2.636.674-.5,1.349-.991,2.023-1.491a162.542,162.542,0,0,0-14.369,15.147c-.891,1.081.219,2.83,1.572,2.036,1.814-1.062,3.582-2.191,5.334-3.346-2.317,2.452-4.569,4.969-6.712,7.59-.807.987.287,2.862,1.5,1.943Q79.12,148.852,85,144.43q-3.669,3.4-7.344,6.8c-1.165,1.084.381,3.179,1.73,2.243l9.894-6.883q-5.358,5.247-10.72,10.494a1.291,1.291,0,0,0-.31.465,6.753,6.753,0,0,1,2.875.655c.165.074.323.161.484.248q3.282-2.3,6.564-4.6-1.326,1.171-2.659,2.343c-1.246,1.1.365,3.14,1.765,2.288q4.066-2.473,8.045-5.086-2.9,2.957-5.692,6.028c-.994,1.094.29,3,1.642,2.13q3.766-2.41,7.528-4.821-.721.687-1.439,1.378a1.352,1.352,0,0,0,1.633,2.114q2.861-1.622,5.721-3.246c-.171.349-.329.7-.494,1.055a3.682,3.682,0,0,0-.655.852,1.346,1.346,0,0,0-.139,1.026c-.055.145-.119.284-.171.429-.371,1.02.72,1.778,1.61,1.61.949-.177,1.9-.358,2.846-.536,1.378-.258,1.113-2.052.029-2.456q1.084-.915,2.168-1.826,2.411-2.033,4.8-4.095c.429-.371.849-.755,1.275-1.129-.345,1.033,1.026,2.269,2,1.546,2.03-1.51,4.085-2.988,6.144-4.46q-2.633,2.11-5.273,4.218c-1.329,1.055.423,3.34,1.823,2.365q5.145-3.572,10.271-7.18c-2.21,1.775-4.356,3.65-6.622,5.35-1.162.871-.026,2.853,1.152,1.968,2.514-1.885,5.137-3.595,7.6-5.547q3.65-2.89,7.235-5.863,7.251-6.021,14.2-12.388c1.062-.971-.348-2.865-1.562-2.023-.732.51-1.471,1.013-2.207,1.52q4.511-3.679,8.98-7.409c1.107-.929-.378-2.895-1.562-2.023-6.809,5.011-13.824,9.765-20.743,14.628-3.6,2.53-7.18,5.086-10.778,7.619,3.295-3.188,6.731-6.234,10.155-9.281q10.644-9.468,21.285-18.932c1.052-.936-.374-2.846-1.526-1.978q-5.542,4.172-11.091,8.335c.865-.691,1.739-1.368,2.594-2.072a142.788,142.788,0,0,0,11.923-11.117c.91-.942-.3-2.7-1.455-1.885l-1.384.978c.271-.258.552-.507.823-.765,1.142-1.1,2.849-2.459,3.291-4.04a.737.737,0,0,0-.9-.9c-1.475.368-2.772,1.849-3.872,2.84-1.3,1.175-2.594,2.362-3.9,3.53-2.62,2.333-5.237,4.66-7.906,6.938-3.569,3.046-7.193,6.031-10.891,8.919q-2.957,2.091-5.915,4.182c7.151-6,14.324-11.975,21.42-18.042,4.211-3.6,8.4-7.222,12.64-10.788ZM130.052,76.855c.194-.136.387-.268.581-.4q-5.77,5.174-11.5,10.391-11.36,10.407-22.717,20.814a1.473,1.473,0,0,0-2.249-.465q-3.79,3.185-7.483,6.489,4.618-4.269,9.239-8.535a1.27,1.27,0,0,0,.319-1.388A424.286,424.286,0,0,1,130.052,76.855Zm-23.23,25.367q-.7.779-1.407,1.565a.706.706,0,0,0-.184.436l-2.972,2.178q2.28-2.086,4.56-4.176ZM96.5,89.908c-1.033.826-2.049,1.672-3.069,2.511a1.4,1.4,0,0,0-.716-.532c6.8-5.915,13.734-11.675,20.878-17.154C107.8,79.685,102.075,84.719,96.5,89.908ZM79.348,84.067a1.565,1.565,0,0,0,.355-.555c8.138-6.689,16.5-13.117,25.1-19.2Q95.587,72.56,86.673,81.141a1.429,1.429,0,0,0-1.9-.019q-6.617,5.562-13.237,11.117,3.911-4.08,7.819-8.164Zm10.365.148Q87.651,86.108,85.585,88a1.255,1.255,0,0,0-.229.113c-.616.381-1.223.774-1.83,1.168Q86.62,86.746,89.713,84.216ZM71.358,98.295c.8-.82,1.591-1.643,2.394-2.456a1.454,1.454,0,0,0,.365.223Q72.723,97.161,71.358,98.295ZM67,111.3q-1.312,1.026-2.623,2.049c6.351-7.432,13.366-14.289,20.413-21.062a1.5,1.5,0,0,0,.41-.242c10.281-8.7,20.591-17.409,31.608-25.163-12.724,10.552-25.4,21.149-37.526,32.4Q72.976,105.137,67,111.3Zm4.072,9.029c-.213.158-.423.319-.636.478q4.719-4.9,9.7-9.548c.358-.261.713-.526,1.071-.787a3.335,3.335,0,0,1-.449-.5,5.756,5.756,0,0,1-1.655-2.436c-.423.468-.852.936-1.275,1.407q-3.732,3.122-7.47,6.241c2.795-2.827,5.657-5.586,8.551-8.306a6.368,6.368,0,0,1,.713-4.792,4.329,4.329,0,0,1,4.653-2.1,4.247,4.247,0,0,1,2.427,1.607,4.655,4.655,0,0,1,.958,1.094,4.865,4.865,0,0,1,.707,2.536q4.2-3.1,8.406-6.2c-1.152.991-2.307,1.975-3.446,2.982q-2.585,2.28-5.137,4.6a6.383,6.383,0,0,1-2.475,3.617,3.1,3.1,0,0,1-2.446.929q-2.3,1.738-4.611,3.472-3.79,2.856-7.583,5.708Zm10.862,2.278-4.021,3.14q1.9-1.859,3.821-3.688a1.658,1.658,0,0,0,.2.545Zm-2.853,9.455q-1.965,1.428-3.924,2.856c8.248-8.767,17.364-16.686,26.477-24.55a1.077,1.077,0,0,0,.42-.9q7.348-5.392,14.724-10.746c-7.6,6.376-15.134,12.83-22.54,19.436Q86.563,125,79.083,132.068Zm10.668-2.633a1.515,1.515,0,0,0,.929,2.017c-3.675,2.953-7.415,5.815-11.288,8.506C82.7,136.317,86.173,132.819,89.751,129.431Zm19.487,9.707a1.819,1.819,0,0,0,.645.5c-2.375,1.791-4.769,3.559-7.2,5.273q3.272-2.89,6.551-5.776ZM93.21,146.769q3.529-3.456,7.054-6.915,1.113-.915,2.223-1.833a1.571,1.571,0,0,0,1.423,1.236Zm29.852-3.162a.552.552,0,0,0-.3.013,18.338,18.338,0,0,0-4.876,3.185c-1.659,1.3-3.314,2.611-4.95,3.943-1.055.862-2.1,1.733-3.149,2.6a1.176,1.176,0,0,0-.287-.755q10.736-8.321,21.627-16.448c-2.759,2.414-5.489,4.863-8.07,7.454Zm15.057-19.061q-1.075.813-2.152,1.62c-7.77,5.8-15.676,11.446-23.053,17.754q-1.612,1.379-3.195,2.8a1.255,1.255,0,0,0-.613.2q-4.8,3.069-9.6,6.138,2.014-1.98,4.079-3.908a1.294,1.294,0,0,0,.261-.155c7.06-5.408,14.36-10.471,21.64-15.583l12.63-8.868Z" transform="translate(-48.202 -45.423)" fill="#eac485"/>
  </g>
  <g id="Group_17247" data-name="Group 17247">
    <path id="Path_18398" data-name="Path 18398" d="M41.043,116.932c.181-16.105,5.457-28.968,15.473-39.794,3.553-3.84,7.825-7.022,11.833-10.423a7.2,7.2,0,0,1,2.9-1.423,1.75,1.75,0,0,1,1.739,2.746A17.868,17.868,0,0,1,70.043,70.4,60.823,60.823,0,0,0,48.375,97.806c-3.679,9.332-3.492,18.813-2.407,28.471a59.059,59.059,0,0,0,11.055,28.09c7.222,10.129,17.6,14.837,29.233,17.509a46.65,46.65,0,0,0,21.091-.219c1.688-.384,3.966-1.517,4.44,1.168.365,2.065-1.9,2.294-3.459,2.672A49.488,49.488,0,0,1,89.4,176.51c-25.793-3.7-41.2-19.349-46.7-45.1-1.094-5.124-1.223-10.455-1.662-14.482Z" transform="translate(-27.797 -44.209)" fill="#262c54"/>
    <path id="Path_18399" data-name="Path 18399" d="M325.288,129.62c-1.423,25.073-13.163,42.953-35.312,53.973-1.333.665-3.243,2.11-4.285.01-1.213-2.436,1.32-3.024,2.811-3.734a55.119,55.119,0,0,0,23.892-20.956c8.358-13.608,11.581-28.184,5.95-43.783-1.6-4.44-3.459-8.8-5.347-13.127a31.932,31.932,0,0,0-9.474-12.485,11.016,11.016,0,0,1-2.32-2.259,2.158,2.158,0,0,1-.055-1.975A2.091,2.091,0,0,1,303,84.637,9.22,9.22,0,0,1,305.81,86.2a31.772,31.772,0,0,1,8.874,10.239,94.923,94.923,0,0,1,9.687,25.4c.558,2.653.645,5.405.91,7.774Z" transform="translate(-193.285 -57.301)" fill="#262c54"/>
    <path id="Path_18400" data-name="Path 18400" d="M151.511,19.981a7.933,7.933,0,0,1-2.511.975,3.119,3.119,0,0,1-1.817-1.065c-7.97-8.183-18.309-11.83-28.971-14.263C102.375,2.014,87.1,4.679,72.662,11.891A78.8,78.8,0,0,0,49.783,28.42c-1.065,1.142-2.052,2.853-4.034,1.7-1.226-.713-.92-2.388,1.265-4.6A84.948,84.948,0,0,1,87.583,2.13C105.57-2.352,122.633.423,138.836,8.887c3.963,2.068,7.373,5.224,10.926,8.016.755.594,1.039,1.784,1.746,3.075Z" transform="translate(-30.502 -0.005)" fill="#262c54"/>
    <path id="Path_18401" data-name="Path 18401" d="M156.626,392.986c-8.99-.058-16.564-.816-23.9-3.2a12.894,12.894,0,0,1-3.517-1.413c-.726-.52-1.016-1.649-1.5-2.5a8.663,8.663,0,0,1,2.778-.958,12.43,12.43,0,0,1,3.114.92c18.187,5.37,35.97,3.972,53.273-3.514,6.909-2.988,13.069-7.173,17.638-13.35a8.368,8.368,0,0,1,.665-.862c.9-.939,1.859-1.981,3.217-.807,1.317,1.139.526,2.372-.216,3.382a44.259,44.259,0,0,1-3.8,4.627,50.957,50.957,0,0,1-16.2,10.884A79.245,79.245,0,0,1,156.626,392.986Z" transform="translate(-86.492 -248.419)" fill="#262c54"/>
    <path id="Path_18402" data-name="Path 18402" d="M198.946,311.975c-2.094-.365-4.608-.768-7.109-1.246a33.771,33.771,0,0,0-15.137.077c-1.943.507-4.74,1.52-5.986-.687-1.271-2.252,1.023-4.05,2.533-5.5A22.591,22.591,0,0,1,190.053,298a14.66,14.66,0,0,1,12.988,7.745C205,309.258,203.312,311.933,198.946,311.975Zm-9.987-10.016a36.066,36.066,0,0,0-4.737.936,23.6,23.6,0,0,0-3.672,1.946c1.236.307,2.456.707,3.711.9,3.911.594,7.828,1.149,11.756,1.62a8.288,8.288,0,0,0,2.365-.419,9.415,9.415,0,0,0-1.4-2.159,11.7,11.7,0,0,0-8.019-2.82Z" transform="translate(-115.375 -201.833)" fill="#262c54"/>
    <path id="Path_18403" data-name="Path 18403" d="M118.274,204.31c2.075.549,4.292.8,6.2,1.707a7.694,7.694,0,0,1,3.8,10.113,8.279,8.279,0,0,1-9.626,5.2,6.355,6.355,0,0,1-4.54-8.822,3.832,3.832,0,0,1,2.469-1.5c.294-.065.913,1.249,1.349,1.952.074.119-.019.355-.061.529-.423,1.8-.152,3.3,1.888,3.846a4.136,4.136,0,0,0,4.708-2.749c.632-1.8.119-3.95-1.575-4.724a11.511,11.511,0,0,0-5.176-1.22c-4.027.229-7.887,1.239-10.717,4.5a6.45,6.45,0,0,1-1.51,1.536c-.571.316-1.688.594-1.946.316-.52-.558-1.084-1.836-.8-2.243a20.082,20.082,0,0,1,4.169-4.834c3.288-2.436,7.2-3.295,11.375-3.614Z" transform="translate(-69.532 -138.383)" fill="#262c54"/>
    <path id="Path_18404" data-name="Path 18404" d="M271.951,202.591a14.107,14.107,0,0,1,8.8,2.281,8.7,8.7,0,0,1,3.682,9.961,7.053,7.053,0,0,1-8.119,4.747c-3.295-.839-5.4-3.592-4.96-6.783a6.237,6.237,0,0,1,1.32-2.853,1.712,1.712,0,0,1,2.927.887,12.974,12.974,0,0,1-.107,1.6c.165,2.333,1.062,3.362,2.643,3.114a3.319,3.319,0,0,0,2.5-3.669c-.19-2.343-2.094-4.292-5.16-4.834-4.408-.778-8.661-.426-12.427,2.41-1.2.907-2.368,2.682-4.137,1.087-1.129-1.016-.413-2.63,1.855-4.408a17.915,17.915,0,0,1,11.178-3.543Z" transform="translate(-175.008 -137.206)" fill="#262c54"/>
    <path id="Path_18405" data-name="Path 18405" d="M416.141,131.257a5.152,5.152,0,0,1-.326,1.817c-.374.536-.994,1.191-1.549,1.229a2.091,2.091,0,0,1-1.707-.971,24.407,24.407,0,0,1-.716-3.7c-1.407-7.112-2.949-14.2-6.631-20.562-1.078-1.865-2.6-3.469-3.692-5.331a2.449,2.449,0,0,1,.245-2.346,2.571,2.571,0,0,1,2.4-.055,9.253,9.253,0,0,1,2.672,2.64c5.657,8.3,7.816,17.79,9.3,27.28Z" transform="translate(-271.824 -68.454)" fill="#262c54"/>
    <path id="Path_18406" data-name="Path 18406" d="M272.324,144.73a27.789,27.789,0,0,1,17.225,5.85,9.349,9.349,0,0,1,2.239,2.314,2.09,2.09,0,0,1-.116,1.936,2.328,2.328,0,0,1-1.875.626,4.094,4.094,0,0,1-1.865-1.055c-6.515-5.479-14.108-6.1-22.1-4.953-1.52.216-3.3,1.368-4.2-.871-.532-1.329.842-2.594,3.675-3.127C267.613,145.017,269.985,144.956,272.324,144.73Z" transform="translate(-177.13 -98.029)" fill="#262c54"/>
    <path id="Path_18407" data-name="Path 18407" d="M98.535,155.817c-6.97.107-13.292,1.665-17.813,7.606a2.973,2.973,0,0,1-2.633.929c-1.413-.616-1.329-2.088-.542-3.24a17.083,17.083,0,0,1,2.824-3.266c6.005-5.221,13.146-6.576,20.839-5.908a2.633,2.633,0,0,1,1.542.413,17.909,17.909,0,0,1,1.707,2.391c-.71.455-1.388,1.207-2.143,1.3a19.553,19.553,0,0,1-3.788-.226Z" transform="translate(-52.142 -102.804)" fill="#262c54"/>
    <path id="Path_18408" data-name="Path 18408" d="M183.6,43.9q-8.272,1.254-16.538,2.514c-1.7.261-3.585,1.391-4.84-.7-.791-1.317.549-2.64,4-3.208,5.679-.933,11.4-1.665,17.132-2.188,1.688-.155,3.5.584,5.176,1.142a1.98,1.98,0,0,1,.855,1.726,2.089,2.089,0,0,1-1.43,1.329,32.229,32.229,0,0,1-4.292.065c-.023-.229-.045-.455-.065-.684Z" transform="translate(-109.722 -27.301)" fill="#262c54"/>
    <path id="Path_18409" data-name="Path 18409" d="M48.647,357.79a10.767,10.767,0,0,1,2.072,1.249c3.527,3.63,7.012,7.306,10.5,10.975.248.261.632.568.629.852a4.884,4.884,0,0,1-.368,2.4c-.21.342-1.291.294-1.936.184a2.784,2.784,0,0,1-1.352-.852c-3.279-3.369-6.557-6.738-9.758-10.178a3.951,3.951,0,0,1-1.094-2.388c-.006-.681.762-1.368,1.3-2.246Z" transform="translate(-32.064 -242.336)" fill="#262c54"/>
    <path id="Path_18410" data-name="Path 18410" d="M268.649,46.573c4.347,1.51,8.277,2.833,12.172,4.256,1.275.465,2.349,1.465,1.626,2.9-.71,1.413-2.159.975-3.391.6-3.633-1.091-7.293-2.114-10.875-3.362-.839-.294-1.407-1.368-2.1-2.085.816-.736,1.633-1.475,2.565-2.317Z" transform="translate(-180.218 -31.544)" fill="#262c54"/>
    <path id="Path_18411" data-name="Path 18411" d="M435.717,235.579c-1.026,3.046-1.749,5.634-2.824,8.067-.281.639-1.649,1.026-2.533,1.052-.323.01-1.094-1.459-.955-2.1a55,55,0,0,1,2.188-7.712c.294-.791,1.468-1.255,2.24-1.872C434.488,233.9,435.146,234.8,435.717,235.579Z" transform="translate(-290.829 -157.822)" fill="#262c54"/>
    <path id="Path_18412" data-name="Path 18412" d="M4.127,194.132c-.142,1.181-.31,3.35-.72,5.47-.1.52-1.084,1.326-1.484,1.233-.742-.174-1.936-.926-1.923-1.41a63.881,63.881,0,0,1,.8-8.555,2.371,2.371,0,0,1,2.01-1.213c.607.116,1.139,1.162,1.484,1.9.2.429-.045,1.058-.168,2.572Z" transform="translate(0 -128.45)" fill="#262c54"/>
  </g>
</svg>
