<svg id="_45" data-name="45" xmlns="http://www.w3.org/2000/svg" width="137.902" height="140.528" viewBox="0 0 137.902 140.528">
  <g id="Group_17248" data-name="Group 17248" transform="translate(9.576 15.468)">
    <path id="Path_18413" data-name="Path 18413" d="M193.781,306.4a21.81,21.81,0,0,0-18.145-8.242,21.581,21.581,0,0,0-15.186,7.532c-.261.165-.532.31-.784.484a2.06,2.06,0,0,0-.9,2.094c-.571,1.5,1.475,3.2,2.633,1.775.071-.087.145-.171.216-.258,3.04-.674,6.1-1.175,9.171-1.684l4.689-.774a8.719,8.719,0,0,0,2.217-.655c.526-.239.955-.594,1.439-.871a28.448,28.448,0,0,1,12,4.024,2.177,2.177,0,0,0,2.814-.561,2.231,2.231,0,0,0-.171-2.865Z" transform="translate(-117.041 -217.39)" fill="#ba8b54"/>
    <path id="Path_18414" data-name="Path 18414" d="M267.56,221.3a1.985,1.985,0,0,0-2.591-.516,9.782,9.782,0,0,1-1.746,1.055,6.562,6.562,0,0,1-4.676-.716,72.457,72.457,0,0,1-7.632-5.073,1.974,1.974,0,0,0-2.672.7,2,2,0,0,0,.7,2.672.057.057,0,0,1,.016.013c.91,2.991,4,5.324,6.783,6.351a12.437,12.437,0,0,0,9.1-.358,7.548,7.548,0,0,0,2.11-1.146c.013-.01.029-.016.042-.026v0c.136-.106.281-.194.41-.31a2,2,0,0,0,.158-2.64Z" transform="translate(-177.535 -161.617)" fill="#75757c"/>
    <path id="Path_18415" data-name="Path 18415" d="M133.025,217.264c-.507.313-1.026.642-1.555.971a1.579,1.579,0,0,0-1.491-.687,12.388,12.388,0,0,1-6.422-.871,12.7,12.7,0,0,1-2.775-1.636c-.952-.745-1.694-1.688-2.572-2.507a1.852,1.852,0,0,0-3.124,1.294,11.289,11.289,0,0,0,1.672,6.228,1.544,1.544,0,0,0,.09.436c1.184,3.166,5.2,4.479,8.309,4.311a14.545,14.545,0,0,0,4.934-1.242,12.331,12.331,0,0,0,5.405-3.095c1.623-1.61-.474-4.437-2.469-3.2Z" transform="translate(-87.525 -159.078)" fill="#75757c"/>
    <path id="Path_18416" data-name="Path 18416" d="M64.974,217a2.869,2.869,0,0,1,.019-1.672q-3.2,2.832-6.357,5.7c-5.363,4.869-10.652,9.819-15.928,14.786-1.507,1.42.723,3.595,2.256,2.256q10.542-9.211,21.078-18.422A12.271,12.271,0,0,1,64.971,217Z" transform="translate(-38.164 -161.313)" fill="#eac485"/>
    <path id="Path_18417" data-name="Path 18417" d="M75.521,255.557c3.069-2.985,6.138-5.967,9.168-8.987.707-.707,1.4-1.423,2.1-2.136a5.14,5.14,0,0,0,1.61-2.094q2.246-2.033,4.492-4.069c-4.9.807-10.165-.2-11.184-4.921a11.315,11.315,0,0,1-.978-1.22c-.629.594-1.265,1.184-1.894,1.781-4.921,4.7-9.732,9.519-14.379,14.5a1.713,1.713,0,0,0,.81,2.8,12.947,12.947,0,0,0-1.071,1.478.887.887,0,0,0,1.2,1.2,28.365,28.365,0,0,0,4.753-3.772c1.455-1.278,2.9-2.569,4.356-3.846.371-.326.745-.649,1.117-.975q-2.9,3.291-5.754,6.615a1.615,1.615,0,0,0-.339,1.594q-3.19,3.621-6.26,7.341a1.589,1.589,0,0,0,2.246,2.246c.029-.029.061-.055.09-.084a.773.773,0,0,0,.41.142c2.052.061,3.5-1.852,4.869-3.159,1.549-1.478,3.1-2.946,4.64-4.437Z" transform="translate(-52.15 -172.692)" fill="#eac485"/>
    <path id="Path_18418" data-name="Path 18418" d="M169.518,339.994q.968-.954,1.943-1.907,7.232-5.692,14.511-11.32a20.252,20.252,0,0,0-5.331-.684,23.269,23.269,0,0,0-2.917.265c-2.9,2.836-5.692,5.786-8.332,8.867l-6.554,5.3a1.738,1.738,0,0,0,0,2.44,1.763,1.763,0,0,0,2.44,0q1.573-1.234,3.143-2.472a1.536,1.536,0,0,0,1.1-.484Z" transform="translate(-119.529 -236.325)" fill="#eac485"/>
    <path id="Path_18419" data-name="Path 18419" d="M141.926,96.864q1.016-.828,2.03-1.655a45.2,45.2,0,0,1-.265-4.576c-.787.445-1.584.874-2.369,1.329a1.756,1.756,0,0,0-2.243-.749c-2.068,1.029-4.082,2.146-6.057,3.327,3.469-3.324,6.877-6.718,10.323-10.061,1.084-1.052-.529-2.627-1.646-1.646-4.276,3.779-8.671,7.461-12.856,11.333s-8.384,7.745-12.575,11.617c-.058.055-.116.106-.174.161,3.256-1.507,5.557,3.117,2.688,5.3-3.191,2.43-6.58,2.414-9.813,1.281l-1.581,1.462-.006-.006c.532-.481,1.058-.971,1.584-1.459a28.176,28.176,0,0,1-7.561-4.421,3.216,3.216,0,0,1-1.007-3.788c-7.412,5.715-14.56,11.785-21.5,18.067q7.706-7.275,15.515-14.44a236.132,236.132,0,0,1,24.341-17.1c1.023-.623,2.056-1.226,3.088-1.83q-1.283,1.012-2.565,2.026c-5.612,3.54-11.052,7.341-16.354,11.333a2.6,2.6,0,0,1,1.491.578c2.814,2.172,6.38,5.24,9.865,3.972.371-.2.739-.41,1.107-.616.52-.529,1.039-1.055,1.552-1.594a1.26,1.26,0,0,0,.316-1.171c4.147-3.582,8.122-7.328,12.178-11.013a1.412,1.412,0,0,0-.62-2.346c1.113-1.084,2.23-2.162,3.337-3.249a1.438,1.438,0,0,0-.013-2.1q2.769-2.178,5.541-4.356c1.478-1.162-.4-3.169-1.894-2.456a215.43,215.43,0,0,0-21.046,11.607q6.254-5.528,12.562-11a1.4,1.4,0,0,0,.2-1.943q2.924-2.449,5.85-4.9c1.488-1.246-.407-3.3-1.962-2.543q-1.97.963-3.9,1.985c.187-.165.374-.332.561-.5,1.494-1.326-.407-3.446-2.036-2.636-1.184.587-2.349,1.213-3.524,1.82.481-.394.968-.784,1.449-1.178q2.2-1.805,4.379-3.646c1.31-1.107,3.353-2.375,3.85-4.1a.849.849,0,0,0-.813-1.065c-1.752.123-3.288,1.694-4.621,2.724-1.481,1.142-2.962,2.291-4.427,3.456q-1.583,1.258-3.166,2.52a1.653,1.653,0,0,0-2.372-1.5c-.323.168-.639.345-.962.513,2.417-1.872,4.837-3.734,7.29-5.557,1.584-1.178.165-3.827-1.588-2.717-.671.423-1.326.865-1.994,1.294A16.586,16.586,0,0,0,121,58.728a1.132,1.132,0,0,0,0-1.155,1.148,1.148,0,0,0-.31-.339l-.1-.071a1.139,1.139,0,0,0-1.155,0,37.173,37.173,0,0,0-6.405,5.16,1.543,1.543,0,0,0-1.588-.1c-1.065.565-2.117,1.158-3.169,1.746q1.307-1.292,2.588-2.607c1.649-1.7,3.65-3.479,4.618-5.679a.631.631,0,0,0-.855-.855,9.02,9.02,0,0,0-.913.468,1.524,1.524,0,0,0-2.059-.478c-3.608,2.236-7.164,4.556-10.694,6.912q3.567-3.011,7.131-6.028c1.4-1.184-.39-3.3-1.907-2.472-3.627,1.991-7.164,4.118-10.639,6.338q4.2-3.374,8.464-6.673c1.462-1.133-.41-3.414-1.943-2.52q-1.752,1.021-3.482,2.081c.691-.571,1.381-1.149,2.072-1.72,1.413-1.168-.442-3.579-1.968-2.549-1.613,1.091-3.2,2.21-4.8,3.324a1.443,1.443,0,0,0-1.736-.219c-3.414,2.046-6.78,4.169-10.113,6.341q4.08-3.253,8.161-6.505c1.3-1.029-.361-3.033-1.736-2.249-1.636.936-3.249,1.907-4.86,2.885a1.489,1.489,0,0,0-2.214-.923q-12.072,8.95-24.134,17.919,7.328-6.351,14.9-12.414c1.488-1.188-.61-3.227-2.081-2.081q-3.984,3.1-7.967,6.2,1.738-1.428,3.511-2.82c1.1-.862-.384-2.814-1.507-1.956A199.24,199.24,0,0,0,38.974,78.464a1.336,1.336,0,0,0,.555,2.259c-1.891,1.784-3.775,3.575-5.641,5.392-1.2,1.171.426,3.443,1.846,2.391q4.056-3.011,8.109-6.028-5.654,5.5-10.894,11.394a1.508,1.508,0,0,0,.726,2.456,1.484,1.484,0,0,0,2.107,2.088A316.851,316.851,0,0,1,66.9,71.849c-8.306,7.009-16.428,14.227-24.173,21.869q-6.534,6.447-12.64,13.3c-1.313,1.481.823,3.656,2.188,2.188,1.62-1.739,3.266-3.456,4.915-5.17a1.609,1.609,0,0,0,2.675.842C46.125,98.948,52.4,93,58.8,87.209q-6.67,6.259-13.14,12.724-7.5,7.5-14.744,15.26c-1.368,1.462.774,3.624,2.2,2.2,17.693-17.59,35.522-35.322,55.974-49.743-11.246,9.584-22.372,19.3-33.156,29.4-.516.474-1.046.936-1.559,1.413q-7.454,6.917-14.521,14.234c-1.388,1.433.787,3.611,2.191,2.191q8.7-8.819,17.8-17.212A366.82,366.82,0,0,1,93.309,70.8q-7.173,6.268-14.347,12.533c-6.96,5.318-13.7,10.936-20.284,16.7a2.806,2.806,0,0,1,3.553,2c.01.039.026.068.039.106Q71.728,93.875,81.189,85.6q6.1-4.652,12.459-8.968c-10.526,8.619-20.93,17.387-30.949,26.59a5.945,5.945,0,0,0,2.7,2.669c4.014-3.6,8.074-7.154,12.22-10.607-2.494,2.336-4.931,4.731-7.344,7.148-.665.465-1.326.936-1.975,1.433-.91.7-1.81,1.41-2.7,2.127a10.987,10.987,0,0,0,8.874-.355,2.907,2.907,0,0,1,3.759.791q9.274-8.4,18.545-16.8c3.033-2.02,5.986-4.14,8.893-6.325.374-.236.745-.474,1.12-.707,2.785-1.717,5.612-3.369,8.458-4.976q-1.486,1.317-2.972,2.636a259.668,259.668,0,0,0-33.6,26.983,3.049,3.049,0,0,1-1.191,3.55A15.525,15.525,0,0,1,72.6,113.03q-2.125,2.062-4.227,4.143c-5.289,5.247-10.475,10.594-15.638,15.963a1.514,1.514,0,0,0-.319,1.788q-1.772,1.7-3.546,3.4c-1.51,1.455.71,3.575,2.269,2.268q11.665-9.763,23.331-19.523c-.148.142-.3.281-.452.423Q66.18,128.966,58.9,136.99a1.654,1.654,0,0,0,1.72,2.691q-4.013,3.935-7.987,7.909c-1.513,1.51.791,3.8,2.34,2.339q6.631-6.239,13.417-12.288a1.581,1.581,0,0,0-.019,1.965c-3.6,3.44-7.183,6.883-10.652,10.458a1.527,1.527,0,0,0,2.159,2.159c1.355-1.217,2.694-2.452,4.034-3.688a2.021,2.021,0,0,0,.245.352c-1.52,1.691-2.982,3.433-4.408,5.205a20.415,20.415,0,0,1,4.9,2.472q11.254-9.226,22.479-18.484c-4.621.826-9.139,2.733-13.724,3.546-3.282.581-5.247-3.566-2.3-5.45,3.653-2.333,6.589-5.305,10.878-6.463a31.879,31.879,0,0,1,9.852-.958c4.224.232,8.658,1.291,11.775,3.917,1.659-1.249,3.317-2.5,4.986-3.737q-2.357,1.985-4.682,4a11.39,11.39,0,0,1,1.817,2.085c.594.148,1.191.287,1.794.407,3.769.732,2.165,6.48-1.584,5.75a.226.226,0,0,1-.045-.01,3.04,3.04,0,0,1-4.3-1.149c-1.407-.442-2.811-.91-4.221-1.31q-4.172,3.732-8.28,7.532-6.365,5.886-12.656,11.849c-1.491,1.407.7,3.521,2.223,2.223l10.571-8.974q-1.094,1.288-2.13,2.636c-.01.006-.019.016-.029.023l.006.006c-.081.106-.168.2-.248.31-.971,1.278.671,2.627,1.93,2.194-.384.378-.771.752-1.155,1.129-1.491,1.465.723,3.608,2.269,2.269.319-.278.642-.555.962-.836a1.612,1.612,0,0,0,2.572.478q2.536-2.139,5.037-4.324a1.452,1.452,0,0,0,2.194.536c7.064-5.366,14.185-10.8,21.01-16.57q-1.694,1.5-3.4,2.978a126.064,126.064,0,0,0-10.165,8.638,1.525,1.525,0,0,0-.181,1.933c-.226.139-.452.281-.678.416a1.148,1.148,0,0,0,1.158,1.981,143.176,143.176,0,0,0,14.056-9.268,95,95,0,0,0,12.2-11.588,1.36,1.36,0,0,0-.51-2.165q2.052-2.033,4.076-4.092a1.578,1.578,0,0,0-1.83-2.507q2.227-2.309,4.356-4.714a1.356,1.356,0,0,0-1.636-2.12c-.829.442-1.652.9-2.472,1.355a1.658,1.658,0,0,0-.265-.423c1.5-1.3,3-2.594,4.485-3.9,1.229-1.081-.4-3.233-1.765-2.288q-10.779,7.435-21.178,15.4l9.077-8.1q5.779-5.16,11.559-10.316a1.366,1.366,0,0,0,.455-1.294q1.951-1.651,3.9-3.3c1.391-1.175-.4-3.382-1.917-2.485-3.727,2.2-7.39,4.5-11.026,6.841q6.549-5.334,13.1-10.658c1.175-.952.129-2.591-1.12-2.646Zm-24.77.2q-1.617,1.094-3.214,2.21c1.707-1.368,3.411-2.743,5.121-4.1.216-.174.436-.345.655-.52-.852.81-1.71,1.607-2.565,2.414ZM96.72,85.176c-2.462,1.659-4.9,3.35-7.306,5.1-1.094.794-2.178,1.6-3.259,2.417Q91.9,87.417,97.811,82.32c1.052-.758,2.107-1.513,3.175-2.249,1.655-1.139,3.34-2.23,5.037-3.3q-4.656,4.2-9.3,8.406Zm18.213-2.8c1.078-.7,2.156-1.4,3.246-2.078-.216.181-.432.365-.652.545-1.065.671-2.117,1.355-3.169,2.046.19-.171.384-.339.574-.51Zm-38.226,48.61c-.555.568-1.1,1.142-1.659,1.713-1.855,1.43-3.782,2.827-5.531,4.4a1.156,1.156,0,0,0-.287.039,1.778,1.778,0,0,0-.62.313q6.67-5.968,13.463-11.794-2.72,2.633-5.37,5.334Zm55.68-6c.106-.058.213-.113.319-.171q-4.013,3.79-8.167,7.422c-.349.219-.694.442-1.039.665q4.443-3.959,8.884-7.919Z" transform="translate(-29.677 -47.936)" fill="#eac485"/>
  </g>
  <g id="Group_17249" data-name="Group 17249">
    <path id="Path_18420" data-name="Path 18420" d="M90.261,254.271c8.667-.281,16.8-2.43,24.841-5.463,10.758-4.056,18.145-11.694,24.031-21.159a20.944,20.944,0,0,1,1.362-2.052,1.65,1.65,0,0,1,2.188-.561,1.7,1.7,0,0,1,.7,2.343,10.243,10.243,0,0,1-.865,1.71c-4.866,7.741-10.439,14.876-18.551,19.455a65.482,65.482,0,0,1-22.911,8.051,70.84,70.84,0,0,1-12,.981c-8.271-.236-16.4-1.539-23.892-5.363a48.433,48.433,0,0,1-19.781-18.5A60.26,60.26,0,0,1,37.239,208.9c-.31-2.814-.774-5.624-.871-8.445-.087-2.54.223-5.1.387-7.645a1.49,1.49,0,0,1,.368-1c.542-.4,1.268-.981,1.784-.868.532.113.942.939,1.326,1.5.123.181.016.532-.023.8-.678,4.857-.09,9.678.436,14.492a57.021,57.021,0,0,0,7.712,23.821c7.012,11.51,17.012,18.965,30.488,21.278,3.772.645,7.6.965,11.4,1.433Z" transform="translate(-24.622 -129.316)" fill="#262c54"/>
    <path id="Path_18421" data-name="Path 18421" d="M193.142,46.139a36.869,36.869,0,0,0-13.275,1.433c-1.778.545-2.724.219-3.085-.787-.413-1.162.2-2.156,2.056-2.643a44.122,44.122,0,0,1,8.029-1.649c9.277-.642,18.439-.139,27.193,3.521a44.626,44.626,0,0,1,13.192,8.729A57.411,57.411,0,0,1,243.672,80.57a52.069,52.069,0,0,1,1.42,21.711c-.478,3.8-1.246,7.561-1.914,11.333a19.866,19.866,0,0,1-.781,3.185,1.662,1.662,0,0,1-1.926,1.194,1.834,1.834,0,0,1-1.426-2.049c.119-1.084.442-2.146.61-3.227.8-5.137,1.852-10.252,2.3-15.421a42.9,42.9,0,0,0-3.511-20.6A56.253,56.253,0,0,0,221.168,54.4c-6.528-5.189-14.063-7.641-22.269-8.242-1.91-.139-3.837-.019-5.757-.019Z" transform="translate(-119.653 -28.62)" fill="#262c54"/>
    <path id="Path_18422" data-name="Path 18422" d="M.032,69.026A45.671,45.671,0,0,1,2.143,54.45,84.683,84.683,0,0,1,11.32,33.4c5.121-8.416,12.295-14.679,20.836-19.413A74.736,74.736,0,0,1,54.673,5.6a10.282,10.282,0,0,1,1.339-.252,1.932,1.932,0,0,1,2.117,1.381,1.757,1.757,0,0,1-1.326,2.1,20.063,20.063,0,0,1-2.653.668,68.589,68.589,0,0,0-30.507,14.85,47.5,47.5,0,0,0-11.72,15.4C8.393,46.8,5.347,54.047,4.146,61.9,3.569,65.686,2.972,69.5,3.685,73.35a6.763,6.763,0,0,1,.048,1.91,1.687,1.687,0,0,1-1.542,1.665A1.716,1.716,0,0,1,.368,75.564a7.294,7.294,0,0,1-.319-1.878C0,72.134.032,70.578.032,69.023Z" transform="translate(0 -3.62)" fill="#262c54"/>
    <path id="Path_18423" data-name="Path 18423" d="M182.734,303.068a9.632,9.632,0,0,0-.668-1.5c-4.121-5.634-9.736-8.29-16.628-7.57a24.172,24.172,0,0,0-15.289,7.848,11.814,11.814,0,0,0-1.075,1.649c1.31.41,2.168-.294,3.091-.513.975-.232,1.907-.642,2.888-.826a1.711,1.711,0,0,1,1.978,1.136c.365.92-.168,1.565-.894,2.059a3.56,3.56,0,0,1-.742.352c-2.649,1-5.286,2.033-7.954,2.969-2.8.981-3.985-.107-3.485-2.991A9.519,9.519,0,0,1,146.07,301c6.118-7.138,13.679-11.13,23.3-10.533a19.78,19.78,0,0,1,13.9,6.828,50.665,50.665,0,0,1,4.8,6.977c.739,1.175,1.226,2.675.168,3.837-1.152,1.262-2.53.394-3.775-.171a52.344,52.344,0,0,0-13.779-4.44,55.236,55.236,0,0,0-6.547-.287c-.729-.023-1.462.065-2.191.048-.829-.019-1.533-.481-1.5-1.281a3.31,3.31,0,0,1,.929-1.8c.245-.281.842-.258,1.288-.355,4.14-.91,8.183-.219,12.178.849,2.527.674,5.008,1.51,7.9,2.394Z" transform="translate(-97.427 -196.696)" fill="#262c54"/>
    <path id="Path_18424" data-name="Path 18424" d="M396.178,161.78c-.361,13.14-2.465,25.018-8.116,36.08-.787,1.542-1.791,2.972-2.714,4.443a7.381,7.381,0,0,1-.82,1.094,1.856,1.856,0,0,1-2.449.536c-.781-.432-.968-1.355-.5-2.427a6.917,6.917,0,0,1,.707-1.175c4.431-6.347,6.806-13.514,8.38-20.994a79.013,79.013,0,0,0,1.552-22.088c-.284-3.9-1.155-7.754-1.765-11.627-.113-.72-.284-1.433-.332-2.156a1.338,1.338,0,0,1,1.226-1.549,2.8,2.8,0,0,1,1.843.781,3.569,3.569,0,0,1,.694,1.759c.565,2.585,1.249,5.163,1.568,7.78C395.875,155.678,395.991,159.157,396.178,161.78Z" transform="translate(-258.276 -96.122)" fill="#262c54"/>
    <path id="Path_18425" data-name="Path 18425" d="M129.188,212.641c-2.827.213-5.534.558-8.245.571a7.331,7.331,0,0,1-5.447-2.22c-.965-1.01-.9-2.2.19-2.765a2.163,2.163,0,0,1,1.768-.071c4.611,2.678,8.977,1.384,13.314-.7.329-.158.639-.478.968-.494a5.111,5.111,0,0,1,2.317.158,1.839,1.839,0,0,1,.774,2.4A25.937,25.937,0,0,1,133,213.793a19.483,19.483,0,0,1-7,6.809,11.929,11.929,0,0,1-15.783-3.621,18.355,18.355,0,0,1-3.275-11.11c.061-1.713.642-2.691,1.639-2.785,1.078-.1,1.759.91,1.826,2.836a16.56,16.56,0,0,0,2.7,8.79,8.159,8.159,0,0,0,11.059,2.7,11.633,11.633,0,0,0,5.031-4.769Z" transform="translate(-72.42 -137.547)" fill="#262c54"/>
    <path id="Path_18426" data-name="Path 18426" d="M261.467,220.05c-2.64.09-5.073.236-7.509.239a7.849,7.849,0,0,1-4.857-1.617,4.1,4.1,0,0,1-1-.91,1.747,1.747,0,0,1,.106-2.275,1.6,1.6,0,0,1,2-.352,18.219,18.219,0,0,0,2.985,1.333c3.546,1,6.864-.019,10.084-1.41,1.075-.465,2.1-1.475,3.24-.465s.668,2.359.219,3.569a15.158,15.158,0,0,1-7,8.467,10.671,10.671,0,0,1-9.778.165,16.965,16.965,0,0,1-9.494-10.739,6.339,6.339,0,0,1-.294-1.875,1.485,1.485,0,0,1,1.239-1.581,1.548,1.548,0,0,1,1.865.787c.326.645.507,1.362.778,2.036,1.52,3.811,3.93,6.725,7.912,8.212a7.682,7.682,0,0,0,9.494-3.592Z" transform="translate(-162.676 -143.957)" fill="#262c54"/>
    <path id="Path_18427" data-name="Path 18427" d="M92.3,394.264a47.119,47.119,0,0,1-4.631-.923c-6.4-1.9-12.708-4-18.5-7.467-3.624-2.169-6.251-5.3-8.942-8.4a1.564,1.564,0,0,1,.045-2.236A1.5,1.5,0,0,1,62.481,375a14.091,14.091,0,0,1,2.359,2.259,27.208,27.208,0,0,0,7.586,6.183c5.169,3.1,10.839,4.8,16.538,6.46a31.454,31.454,0,0,0,3.508.6,3.955,3.955,0,0,1,1.584.348,2.974,2.974,0,0,1,1.262,1.559c.161.91-.581,1.484-1.442,1.717a9.669,9.669,0,0,1-1.575.139Z" transform="translate(-40.49 -253.735)" fill="#262c54"/>
    <path id="Path_18428" data-name="Path 18428" d="M48.58,110.2a20.276,20.276,0,0,1,.687-2.394c2.9-6.631,6.425-12.866,11.672-17.977.326-.316.652-.639,1-.926a1.819,1.819,0,0,1,2.275-.187,1.911,1.911,0,0,1,.4,2.475,6.81,6.81,0,0,1-1.239,1.439c-4.915,4.685-8.051,10.52-10.759,16.628a15.239,15.239,0,0,1-.639,1.5c-.439.749-1.133,1.417-1.991,1.013-.613-.287-.991-1.078-1.413-1.572Z" transform="translate(-32.904 -59.876)" fill="#262c54"/>
    <path id="Path_18429" data-name="Path 18429" d="M209.534,0a60.467,60.467,0,0,1,16.1,2.743,1.808,1.808,0,0,1,1.478,1.988c-.11,1.11-1.042,1.468-1.985,1.5a6.244,6.244,0,0,1-2.136-.361,43.859,43.859,0,0,0-15.057-2.026,11.093,11.093,0,0,1-2.172-.116,1.533,1.533,0,0,1-1.326-1.513A1.455,1.455,0,0,1,205.51.526c1.32-.278,2.678-.361,4.021-.526Z" transform="translate(-138.462 0)" fill="#262c54"/>
    <path id="Path_18430" data-name="Path 18430" d="M325.719,368.706a7.522,7.522,0,0,1-1.578-1.226c-.536-.71-.1-1.375.468-1.914a3.306,3.306,0,0,1,.655-.484,28.017,28.017,0,0,0,8.99-8.183c.258-.358.62-.858.968-.887a3.115,3.115,0,0,1,1.975.365,2.022,2.022,0,0,1,.426,1.668,4.1,4.1,0,0,1-.887,1.665,32.38,32.38,0,0,1-8.312,7.793,20.571,20.571,0,0,1-2.707,1.207Z" transform="translate(-219.379 -241.118)" fill="#262c54"/>
    <path id="Path_18431" data-name="Path 18431" d="M110.749,65.8c-1.32-.006-2.075-.774-1.9-1.772a2.753,2.753,0,0,1,.713-1.41,21.734,21.734,0,0,1,8.058-4.989,2.862,2.862,0,0,1,1.342-.1,1.437,1.437,0,0,1,1.046,2.262,5.72,5.72,0,0,1-1.613,1.413c-2.062,1.317-4.153,2.588-6.244,3.859-.529.319-1.1.578-1.4.736Z" transform="translate(-73.707 -38.943)" fill="#262c54"/>
    <path id="Path_18432" data-name="Path 18432" d="M301.22,15.31a6.65,6.65,0,0,1,1.488.826,14.307,14.307,0,0,0,5.079,3.088,3.723,3.723,0,0,1,1.149.7,1.514,1.514,0,0,1,.358,2.175,2.259,2.259,0,0,1-1.826.729,15.151,15.151,0,0,1-3.746-1.555,19.5,19.5,0,0,1-3.475-2.552,1.775,1.775,0,0,1-.313-2.469,5.731,5.731,0,0,1,1.288-.945Z" transform="translate(-202.896 -10.37)" fill="#262c54"/>
    <path id="Path_18433" data-name="Path 18433" d="M272.751,407.47c-1.3.01-2.172-.229-2.362-1.362a1.746,1.746,0,0,1,1.359-2.059c1.959-.749,3.879-1.6,5.821-2.391a2.424,2.424,0,0,1,1.3-.332c.645.165,1.53.445,1.746.929a2.038,2.038,0,0,1-.439,1.917A18.753,18.753,0,0,1,272.751,407.47Z" transform="translate(-183.114 -271.807)" fill="#262c54"/>
    <path id="Path_18434" data-name="Path 18434" d="M38.332,339.936c.248.19.894.461,1.175.942.955,1.639,1.791,3.346,2.64,5.047a1.437,1.437,0,0,1,.194,1.036,3.481,3.481,0,0,1-1.226,1.6,1.743,1.743,0,0,1-1.626-.523,59.536,59.536,0,0,1-3.224-6.27c-.426-.984.581-1.917,2.065-1.833Z" transform="translate(-24.495 -230.24)" fill="#262c54"/>
  </g>
</svg>
