<svg id="_46" data-name="46" xmlns="http://www.w3.org/2000/svg" width="135.92" height="146.084" viewBox="0 0 135.92 146.084">
  <g id="Group_17250" data-name="Group 17250" transform="translate(8.822 14.953)">
    <path id="Path_18435" data-name="Path 18435" d="M189.9,331.169c.048-.065.094-.132.142-.2.778-1.046-.784-2.633-1.83-1.83-.416.319-.833.645-1.249.968.245-.991-.965-2.156-1.9-1.436-.413.316-.826.639-1.236.955.158-1.049-1.249-1.81-2.223-1.229a1.213,1.213,0,0,0-1.949-.31c-.7.607-1.423,1.194-2.133,1.791.081-.126.158-.252.239-.378a1.34,1.34,0,0,0-1.82-1.82c-.387.258-.768.523-1.152.781a1.243,1.243,0,0,0-1.378-1.255,1.332,1.332,0,0,0-1.952-.949c-2.927,2.143-6.038,4.15-8.845,6.444l.016.016c-.987,1.075.274,3.053,1.646,2.139.336-.223.665-.468.994-.7a1.4,1.4,0,0,0,2.317,1.262c.032-.032.068-.061.1-.094a1.136,1.136,0,0,0,1.668.219c.765-.545,1.533-1.081,2.3-1.62-.378.581-.749,1.162-1.107,1.755a1.412,1.412,0,0,0,2.207,1.7c.52-.461,1.046-.92,1.565-1.381a1.39,1.39,0,0,0,2.091.419,1.694,1.694,0,0,0,2.617.723c.374-.316.749-.636,1.12-.952a1.572,1.572,0,0,0,2.475.758c.1-.087.21-.165.31-.252a1.576,1.576,0,0,0,2.194.965c.51-.284,1.01-.587,1.5-.9a1.229,1.229,0,0,0,.536.529,2.085,2.085,0,0,0,3.056-1.317.8.8,0,0,0-.1-.626c.478-.82.936-1.649,1.468-2.43.784-1.152-.639-2.217-1.694-1.755Z" transform="translate(-118.732 -235.796)" fill="#eb8486"/>
    <path id="Path_18436" data-name="Path 18436" d="M273.663,297.2a13.592,13.592,0,0,1-1.849,1.568c.426-.642.833-1.3,1.213-1.975a.734.734,0,0,0-1.149-.884c-2.217,2.288-4.247,4.734-6.425,7.06a87.645,87.645,0,0,1-6.944,6.6c-1.281,1.171.629,3.072,1.9,1.9,1.743-1.546,3.472-3.108,5.218-4.65a1.258,1.258,0,0,0,.252.642,1.448,1.448,0,0,0,1.11.539.729.729,0,0,0,1.029.481,11.174,11.174,0,0,0,3.646-3.227c1.087-1.265,2.178-2.52,3.2-3.837a1.259,1.259,0,0,0-.171-1.8c.261-.336.532-.668.791-1.007C276.3,297.555,274.557,296.258,273.663,297.2Z" transform="translate(-183.624 -215.226)" fill="#ba8b54"/>
    <path id="Path_18437" data-name="Path 18437" d="M251.614,299.927q-2.328,1.684-4.656,3.375c.258-.394.507-.794.742-1.2a.871.871,0,0,0,.106-.5c.174-.19.358-.371.532-.561.558-.613-.194-1.765-.939-1.217a72.4,72.4,0,0,0-6.564,5.476c-1.559,1.449-3.175,2.885-4.676,4.414a6.58,6.58,0,0,1,2.966.71c.226-.229.458-.458.684-.691a1.309,1.309,0,0,0,1.917.658c.232-.177.465-.352.7-.529a1.334,1.334,0,0,0,1.923,1.191h0l.006-.006a1.114,1.114,0,0,0,.31-.261,40.86,40.86,0,0,0,4.137-4.253c1.442-1.549,2.8-3.191,4.26-4.721.9-.939-.307-2.7-1.449-1.878Z" transform="translate(-168.773 -217.924)" fill="#ba8b54"/>
    <path id="Path_18438" data-name="Path 18438" d="M145.11,300.086c-.707.52-1.439,1.013-2.185,1.494a1.18,1.18,0,0,0-1.775-1.058c-.823.49-1.655.962-2.488,1.436a1.41,1.41,0,0,0-2.072-1.275c-.765.365-1.533.745-2.3,1.136a1.3,1.3,0,0,0-1.9-1.255q-1.515.77-3,1.594c.845-.981-.41-2.646-1.575-1.872-.671.445-1.323.913-1.985,1.371a1.191,1.191,0,0,0-1.784-.929c-1.51.9-3.033,1.788-4.563,2.669.539-.645,1.078-1.294,1.6-1.952a1.317,1.317,0,0,0-1.588-2.059c-1.607.891-3.172,1.865-4.7,2.891l.136-.2c.836-1.2-.9-2.23-1.875-1.446l-2.2,1.781c.294-.49.587-.984.884-1.475.687-1.133-.813-2.1-1.733-1.336-.355.294-.707.591-1.058.884a1.188,1.188,0,0,0-1.759-1.165c-.216.145-.429.294-.645.442-.026-.749-.726-1.452-1.53-.916-.177.119-.358.232-.536.349a1.111,1.111,0,0,0-1.626-1.075c-.184.123-.374.226-.565.336a.8.8,0,0,0-.975-.707c-.145.045-.3.084-.445.126a1.132,1.132,0,0,0-1.6.068l-1.078,1a1.145,1.145,0,0,0-.006,1.72,1.243,1.243,0,0,0,1.513,1.194c.126-.023.248-.065.374-.09-.174.245-.349.487-.51.742-.591.952.542,2.291,1.536,1.791-.026.778.794,1.21,1.565,1.171-.055.077-.113.155-.165.232-.791,1.165.668,2.469,1.772,1.991-.071.11-.145.213-.216.323-.91,1.41,1.062,2.72,2.217,1.71.471-.413.942-.823,1.413-1.236a1.506,1.506,0,0,0,2.123,1.178,1.537,1.537,0,0,0,2.214,1.61c1.452-.862,2.885-1.762,4.308-2.675-.942.962-1.875,1.93-2.788,2.917a1.411,1.411,0,0,0,1.994,1.994c1.313-1.268,2.669-2.488,4.043-3.685a1.176,1.176,0,0,0,1.749.442c1.581-1.133,3.2-2.2,4.847-3.227-.532,1.155.762,2.714,2.02,1.878,1.713-1.136,3.408-2.243,5.144-3.288a1.375,1.375,0,0,0,2.033,1.5c.158-.1.31-.2.468-.3a1.2,1.2,0,0,0,1.836.887c.733-.481,1.455-.981,2.181-1.488-.271.313-.542.629-.813.939-.626.723.187,2,1.084,1.4a21.211,21.211,0,0,0,6.518-6.938c.552-.913-.607-2.233-1.542-1.542Z" transform="translate(-75.055 -216.502)" fill="#ba8b54"/>
    <path id="Path_18439" data-name="Path 18439" d="M272.7,143.193a3.653,3.653,0,0,0-3.146-1.617,3.775,3.775,0,0,0-.384.045,2.946,2.946,0,0,0-1.762.123c-2.078.82-3.056,3.2-3.3,5.279a4.664,4.664,0,0,0,.568,2.94,3.923,3.923,0,0,0,2.643,1.817c.048.01.1.006.148.013a1.771,1.771,0,0,0,1.336.023,4.453,4.453,0,0,0,1.794-.584,5.68,5.68,0,0,0,2.123-2.327c.865-1.743,1.2-4.027-.016-5.712Z" transform="translate(-187.675 -110.819)" fill="#75757c"/>
    <path id="Path_18440" data-name="Path 18440" d="M118.588,141.932a3.74,3.74,0,0,0-4.737-.61,4.369,4.369,0,0,0-.829.271.352.352,0,0,0-.048.026,7.782,7.782,0,0,0-2.74.852,5.994,5.994,0,0,0-2.94,3.472,4.387,4.387,0,0,0,1.165,4.36,6.623,6.623,0,0,0,3.976,1.688h.048a4.444,4.444,0,0,0,1.455.339,4.956,4.956,0,0,0,3.872-1.62,6.094,6.094,0,0,0,1.22-2.294c.032-.094.061-.187.09-.281a5.005,5.005,0,0,0,.232-.952,4.915,4.915,0,0,0-.026-1.426,4.174,4.174,0,0,0-.739-3.827Z" transform="translate(-81.373 -110.291)" fill="#75757c"/>
    <path id="Path_18441" data-name="Path 18441" d="M294.36,105.939q-6.026,5.528-12.04,11.059c.11.048.219.094.326.152a4.321,4.321,0,0,1,.549.378,3.645,3.645,0,0,1,.642.326,4.4,4.4,0,0,1,1.4,1.481Q291,114.058,296.764,108.8a1.458,1.458,0,0,0-.742-2.5,1.042,1.042,0,0,0-1.659-.352Z" transform="translate(-200.038 -86.515)" fill="#eac485"/>
    <path id="Path_18442" data-name="Path 18442" d="M288.66,132.652q2.87-2.357,5.712-4.724c4.624-3.866,9.181-7.812,13.553-11.962,1.407-1.336-.668-3.343-2.107-2.107q-7.749,6.641-15.492,13.285a6.634,6.634,0,0,1-1.662,5.512Z" transform="translate(-204.332 -91.808)" fill="#eac485"/>
    <path id="Path_18443" data-name="Path 18443" d="M41.969,112.989c-1.636-3.453,3.508-6.476,5.15-3.011l.039.087c.023.01.045.013.068.023,1.084.465,2.194.874,3.314,1.262.478-.649.958-1.294,1.449-1.933C64.431,95.8,77.142,82.434,90.511,69.726q7.958-7.561,16.235-14.776c1.562-1.359-.684-3.508-2.246-2.246-1.455,1.175-2.882,2.385-4.321,3.579a1.619,1.619,0,0,0-2.172-.155Q83.772,67.314,70.63,79.733,76.608,73.677,82.8,67.841q7.73-7.314,15.609-14.469c1.207-1.1-.442-3.333-1.778-2.307l-.3.232h0l-.029.029c-.49.378-.968.765-1.459,1.146-.035-1.081-1.075-2.081-2.156-1.271Q76.574,63.33,61.63,76.909a5.027,5.027,0,0,1,4,2.759,3.217,3.217,0,0,1,.274,2.3,5.856,5.856,0,0,1-.1,2.74,5.958,5.958,0,0,1-8.677,3.44c-3.627-2.052-3.514-6.87-.629-9.487a6.765,6.765,0,0,1,4.6-1.784c5.286-5.244,10.739-10.333,16.277-15.318,4.682-4.218,9.419-8.371,14.16-12.524,1.342-1.175-.4-3.424-1.9-2.469-.975.62-1.936,1.252-2.895,1.891a1.475,1.475,0,0,0-2.343-.616L47.225,80.2c5.97-6.4,12.056-12.7,18.338-18.823q5.247-5.121,10.623-10.107c1.268-1.178-.584-2.956-1.875-1.875-.158.132-.313.268-.471.4a1.169,1.169,0,0,0-1.743-.92c-.865.523-1.713,1.065-2.559,1.613.168-.174.336-.355.5-.529,1.081-1.117-.361-3.2-1.723-2.233-2.23,1.584-4.431,3.211-6.615,4.86a1.154,1.154,0,0,0-1.681-.561,56.28,56.28,0,0,0-6.286,5.353q-3.229,2.861-6.376,5.808-6.22,5.818-12.078,11.991a1.409,1.409,0,0,0,1.991,1.991q9.414-9.158,19.681-17.383c-.258.287-.516.578-.774.865C48,67.758,40.536,75.741,33.124,83.618c-1.165,1.239.671,3.088,1.872,1.872q1.985-2.014,4-3.995-2.478,3.248-4.892,6.541a1.28,1.28,0,0,0-.132,1.349c-2.075,2.4-4.15,4.8-6.2,7.219-1.417,1.672.955,4.1,2.43,2.43.048-.055.1-.11.148-.168a1.883,1.883,0,0,0,.426-.271q4.937-4.269,9.849-8.561c-2.446,2.675-4.86,5.376-7.2,8.148-1.284,1.52.842,3.721,2.214,2.214.278-.3.552-.607.829-.91-2.388,3.095-4.689,6.254-6.854,9.513-.968,1.459,1.275,3.22,2.446,1.888.6-.684,1.22-1.355,1.83-2.036q-1.573,1.985-3.12,3.995c-.994,1.294.962,3.2,2.252,2.252a86.017,86.017,0,0,0,10.849-9.636A172.137,172.137,0,0,0,32.2,122.951c-.994,1.72,1.239,3.069,2.527,1.923a1.592,1.592,0,0,0,2.659.713q.973-1.089,1.949-2.172c-.252.523-.51,1.042-.749,1.572a1.805,1.805,0,0,0,.584,2.13c-.481.587-.971,1.165-1.449,1.752a.688.688,0,0,0-.071.794q-.862,1.1-1.726,2.207a1.671,1.671,0,0,0,2.362,2.362q2.667-2.425,5.328-4.863-3.563,3.906-6.912,7.987c.042.029.084.052.126.084a21.983,21.983,0,0,1,2.349,2.188q1.452-1.675,2.907-3.346-1.418,1.714-2.836,3.424a41.077,41.077,0,0,1,2.659,3.23c1.872-1.936,3.73-3.885,5.592-5.825q-2.565,3.224-5.124,6.447c.752,1.01,1.494,2.03,2.269,3.04,3.233-3.592,6.5-7.157,9.826-10.652-6.351-6.257-8.638-14.786-12.507-22.956Z" transform="translate(-27.332 -46.336)" fill="#eac485"/>
    <path id="Path_18444" data-name="Path 18444" d="M239.765,252.007a.047.047,0,0,1-.006-.013,64.119,64.119,0,0,0-6.576,5.773q-3.408,3.141-6.764,6.341c-1.362,1.294-2.765,2.591-4.156,3.911l-2.956,2.149q10.305-9.913,20.61-19.823c1.368-1.317-.416-3.717-2.056-2.662-4.218,2.714-8.316,5.589-12.346,8.555-1.239,2.172-2.5,4.331-3.711,6.531-2.4,4.379-4.653,8.722-8.525,12.017a39.715,39.715,0,0,1-26.406,8.984c-4.195,4.389-8.39,8.774-12.533,13.211a21.918,21.918,0,0,1,3.843.668c4.366-4.618,8.806-9.177,13.508-13.443-3.843,4.692-7.68,9.39-11.417,14.163.458.19.913.4,1.365.639,1.578-.023,3.153-.068,4.734-.2a2.605,2.605,0,0,1,1.513.3q2.977-2.943,5.87-5.963c.465-.445.936-.887,1.407-1.323-1.723,2.159-3.446,4.318-5.134,6.5l-.019.019h0c-.084.113-.174.219-.258.332-1.142,1.481,1.31,3.308,2.569,1.985,1.117-1.171,2.256-2.32,3.4-3.462a1.226,1.226,0,0,0,2.049.733c1.078-1.055,2.165-2.091,3.237-3.14a1.881,1.881,0,0,0,.452-.358,136.143,136.143,0,0,1,11.814-11.388q-1.907,1.893-3.814,3.782-3.49,3.277-6.8,6.741a1.753,1.753,0,0,0,2.478,2.478q3.529-3.495,7.057-6.983,1.2-1.123,2.42-2.23a1.861,1.861,0,0,0,2.985.945,102.5,102.5,0,0,0,13.182-13.824,1.781,1.781,0,0,0,.136-2.294,1.813,1.813,0,0,0-.636-.5c.507-.5,1.016-1.007,1.523-1.507a1.8,1.8,0,0,0-.862-2.972q2.449-2.023,4.9-4.037c1.268-1.042.174-3.027-1.178-3.169a64.4,64.4,0,0,0,6.057-6.5c.452-.61-.39-1.278-.968-.962Z" transform="translate(-126.902 -182.533)" fill="#eac485"/>
    <path id="Path_18445" data-name="Path 18445" d="M191.2,118.274c-2.791,1.865-5.534,3.795-8.261,5.75q1.926-2.077,3.769-4.224l2.778-2.256a1.519,1.519,0,0,0,.487-1.743c.3-.381.6-.758.887-1.146.839-1.12-.774-2.565-1.872-1.872-.874.552-1.759,1.084-2.643,1.617,2.275-2.033,4.556-4.063,6.857-6.063,1.184-1.029-.378-3.085-1.688-2.188q-3.146,2.144-6.241,4.376c1.284-1.459,2.552-2.933,3.775-4.44.81-1-.21-2.672-1.465-1.9-.749.461-1.484.939-2.227,1.413a1.981,1.981,0,0,0-.035-1.223l.8-.639a1.532,1.532,0,0,0,.616-1.168c.184-.239.371-.474.545-.72a1.345,1.345,0,0,0-.768-1.933,44.941,44.941,0,0,0,3.734-5.686.861.861,0,0,0-1.346-1.039,91.629,91.629,0,0,0-6.741,7.774c-.458.558-.926,1.11-1.391,1.662-3.633,2.414-7.17,4.957-10.642,7.593.552-.481,1.1-.955,1.655-1.436,1.459-1.281,2.9-2.578,4.35-3.869,1.352-1.065,2.7-2.139,4.063-3.188a2.448,2.448,0,0,0,.874-1.21c1.087-.971,2.172-1.946,3.214-2.959.687-.668,2.462-2.288,1.12-3.23-1.233-.868-2.853.9-3.727,1.63-.858.716-1.7,1.449-2.552,2.175a1.486,1.486,0,0,0-.878.271l-2.672,1.956a1.749,1.749,0,0,0-.361.2q-2.87,2.067-5.663,4.234c-5.979,4.424-11.907,8.922-17.674,13.618,6.263-5.908,12.759-11.581,19.319-17.125,4.96-4.189,9.968-8.313,14.979-12.437,1.417-1.165-.461-3.63-1.975-2.562C167.341,98.2,151.81,111.723,136.4,125.409c7.525-7.477,15.815-14.244,24.024-20.985a5.768,5.768,0,0,1-1.384.71,5.292,5.292,0,0,1-4.05-.258c-6.434,5.257-12.817,10.568-18.819,16.3q-5.566,4.773-11.13,9.542a.951.951,0,0,0-.368-.077c1.165-1.265,2.323-2.533,3.508-3.775q12.628-11.539,25.215-23.124a6.084,6.084,0,0,1-1.6-2.791,5.418,5.418,0,0,1-.161-1.491c-4.369,3.6-8.642,7.332-12.833,11.133q-4.913,4.453-9.719,9.035,5.915-6.409,12.072-12.588,5.823-5.557,11.652-11.107a7.066,7.066,0,0,1,2.262-2.156c1.12-1.065,2.236-2.136,3.359-3.2q7.057-6.7,14.1-13.411c1.51-1.446-.765-3.7-2.288-2.288-.11.1-.219.2-.329.3a1.425,1.425,0,0,0-2.046-.636c-14.134,9.5-27.1,20.536-39.449,32.224,6.622-6.747,13.479-13.275,20.446-19.674q7.1-6.525,14.292-12.959a1.354,1.354,0,0,0,.378-1.452c.126-1.155-1.252-2.465-2.407-1.636a289.371,289.371,0,0,0-43.418,38.4q-4.39,4.744-8.551,9.69-2.841,2.9-5.657,5.828c-.987,1.029-1.959,2.075-2.933,3.117,11.423,3.846,24.421,3.982,36.245,3.853a114.56,114.56,0,0,0,20.336-1.681q2.439-2.1,4.879-4.2a1.529,1.529,0,0,0,1,.361c-1.3,1.133-2.582,2.281-3.863,3.433,5.289-1.136,12.824-2.159,16.541-6.247,2.485-2.736,5.908.768,4.682,3.614a83.606,83.606,0,0,1-3.953,7.816q2.967-2.556,5.976-5.066c3.608-3,7.244-5.973,10.881-8.942,1.52-1.239-.471-3.817-2.1-2.727Zm-85.878,9.69a1.309,1.309,0,0,0-.113-.394c.936-.991,1.855-2,2.794-2.982-.91,1.113-1.794,2.246-2.685,3.375Zm12.495-6.706q-1.505,1.738-2.972,3.514a1.482,1.482,0,0,0-.39-.436c1.991-2.023,3.972-4.053,5.989-6.05C119.557,119.271,118.682,120.259,117.814,121.259ZM150.822,93.03q-8.8,8.4-17.3,17.112-5.092,4.879-10.2,9.736a336.958,336.958,0,0,1,27.5-26.848Zm23.618,24.1c-2.84,2.094-5.6,4.3-8.293,6.573.636-.668,1.275-1.339,1.9-2.014.478-.481.965-.952,1.478-1.407q2.962-2.619,6.079-5.06c1.136-.891,2.294-1.755,3.462-2.6q-2.3,2.27-4.634,4.5Z" transform="translate(-76.93 -62.893)" fill="#eac485"/>
    <path id="Path_18446" data-name="Path 18446" d="M166.654,357.846h-.1c-1.5-.068-3.043-.2-4.6-.387-.626.626-1.258,1.242-1.872,1.881q.77-.958,1.533-1.923c-1.246-.158-2.5-.352-3.756-.587-.571.681-1.146,1.359-1.717,2.043a111.74,111.74,0,0,0-10.178,12.185,88.224,88.224,0,0,1,9.148.026c2.733-2.982,5.408-6.021,8.041-9.081q1.772-2.062,3.495-4.153Z" transform="translate(-107.687 -256.637)" fill="#eac485"/>
    <path id="Path_18447" data-name="Path 18447" d="M109.513,343.853c2.433-2.665,4.9-5.4,7.451-8.058a56.655,56.655,0,0,1-12.249-3.911c-.061.068-.123.129-.184.194.055-.068.113-.132.171-.2a40.377,40.377,0,0,1-6.673-3.821,25.919,25.919,0,0,1-2.459-2.017,74.469,74.469,0,0,0-5.334,6.641,1.287,1.287,0,0,0-.045,1.449c-1.1,1.394-2.162,2.807-3.23,4.218q1.365,1,2.707,2.033l.2-.261a1.468,1.468,0,0,0-.065.368c.694.532,1.384,1.075,2.072,1.62a1.71,1.71,0,0,0,.481-.349c.658-.652,1.336-1.291,2.01-1.93-.642.907-1.275,1.82-1.917,2.727,1.872,1.488,3.724,3,5.57,4.527.942.565,1.855,1.181,2.769,1.8.261-.316.52-.632.781-.949,1.817-1.546,3.566-3.188,5.27-4.869a1.635,1.635,0,0,0,2.675.787Zm-16.277-8.041q1.651-2.13,3.288-4.266a1.273,1.273,0,0,0,.168.313c-1.165,1.307-2.323,2.62-3.459,3.95Z" transform="translate(-67.719 -235.782)" fill="#eac485"/>
  </g>
  <g id="Group_17253" data-name="Group 17253">
    <g id="Group_17251" data-name="Group 17251" transform="translate(7.607 11.757)">
      <path id="Path_18448" data-name="Path 18448" d="M145.541,248.984c-12.017,4.35-23.815,5.947-35.857,6.325-11.92.374-23.7-.278-35.828-3.985,4.982,6.906,11.5,10.768,18.3,14.55,4.108-5.224,9.839-6.764,15.831-7.138,6.709-.42,13.1,1.013,18.616,5.2a3.186,3.186,0,0,0,3.811.194c.474-.274.958-.532,1.446-.781a1.619,1.619,0,0,1,2.2.442,1.8,1.8,0,0,1-.1,2.494,3.478,3.478,0,0,1-.823.716c-4.811,2.843-9.713,5.541-15.189,6.848-5.266,1.255-10.539.687-15.754-.536A57.432,57.432,0,0,1,74.63,258.236c-5.718-5.592-8.98-12.6-10.917-20.268a45.885,45.885,0,0,1-.926-4.563,8.255,8.255,0,0,1,.013-2.717,2.115,2.115,0,0,1,2.549-1.92,12.027,12.027,0,0,1,2.907.7c4.137,1.436,8.051,3.5,12.42,4.3a1.822,1.822,0,0,1,1.684,2.333,1.978,1.978,0,0,1-2.381,1.365,34.3,34.3,0,0,1-5.034-1.294c-2.582-.887-5.108-1.93-7.838-2.975a4.377,4.377,0,0,0-.145,1.452c.929,3.146,1.907,6.283,2.885,9.413a3.654,3.654,0,0,0,2.094,2.03c4.427,2.372,9.264,3.33,14.137,4.153,9.716,1.639,19.516,1.507,29.291.962a90.875,90.875,0,0,0,22.382-3.769c3.553-1.123,6.941-2.772,10.374-4.25a3.054,3.054,0,0,0,1.394-1.252,33.169,33.169,0,0,0,3.246-8.974,14.449,14.449,0,0,0-4.027,1.136c-4.437,1.41-8.809,3.088-13.33,4.159-4.337,1.026-8.819,1.471-13.25,2.085a92.074,92.074,0,0,1-16.709.542,36.562,36.562,0,0,1-4.35-.5c-1.6-.265-2.414-1.142-2.23-2.23s1.194-1.681,2.8-1.552c1.455.116,2.9.42,4.356.461,14.589.426,28.829-1.3,42.421-6.967,1.265-.526,2.562-.981,3.869-1.4,3.037-.971,4.966.565,4.414,3.711a35.375,35.375,0,0,1-1.933,7.122c-3.346,8.3-7.835,15.9-14.376,22.146a14.414,14.414,0,0,1-1.439,1.265,1.7,1.7,0,0,1-2.272,0,1.839,1.839,0,0,1-.339-2.488,12.677,12.677,0,0,1,1.439-1.639c2.181-2.578,4.363-5.157,6.515-7.757a18,18,0,0,0,1.217-2.075Zm-21.514,18.093c-6.654-6.083-22.914-5.9-27.635.132C104.6,271.2,117.08,272.357,124.027,267.078Z" transform="translate(-50.06 -166.464)" fill="#262c54"/>
      <path id="Path_18449" data-name="Path 18449" d="M295.263,100.212a80.821,80.821,0,0,1-3.724,23.656A58.31,58.31,0,0,1,283.9,141.09a49.839,49.839,0,0,1-21.94,18.042,16.033,16.033,0,0,1-2.859.942,1.975,1.975,0,0,1-2.423-1.278,1.836,1.836,0,0,1,1.133-2.233,13.686,13.686,0,0,1,1.526-.61A44.691,44.691,0,0,0,282.5,135.9c3.9-6.822,5.918-14.334,7.564-21.943,2.23-10.3,1.53-20.533-1.1-30.669a34.705,34.705,0,0,0-8.884-15.847,70.8,70.8,0,0,0-22.943-15.7c-1.591-.681-3.288-1.107-4.937-1.646a11.882,11.882,0,0,1-1.555-.52,1.889,1.889,0,0,1-1.187-2.223,1.7,1.7,0,0,1,2.091-1.313,12.529,12.529,0,0,1,1.865.416c7.393,1.9,13.876,5.65,19.929,10.129a98.686,98.686,0,0,1,9.335,8.045,35.711,35.711,0,0,1,9.31,15.308,74.511,74.511,0,0,1,3.275,20.271Z" transform="translate(-176.525 -42.932)" fill="#262c54"/>
      <path id="Path_18450" data-name="Path 18450" d="M78.623,234.3c-6.241-.1-12.869-.62-19.129-3.3a46.919,46.919,0,0,1-16.212-11.946c-3.249-3.579-6.283-7.373-9.2-11.23a50.474,50.474,0,0,1-10.213-26.467,73.8,73.8,0,0,1,1.262-21.782,46.8,46.8,0,0,1,2.63-7.754c.7-1.733,1.81-2.278,2.885-1.843s1.371,1.652.626,3.343c-3.74,8.522-4.192,17.47-3.6,26.58a44.7,44.7,0,0,0,4.95,18.364,85.556,85.556,0,0,0,11.339,15.763,54.975,54.975,0,0,0,13.666,11.72,32.328,32.328,0,0,0,12.4,4.1,66.35,66.35,0,0,0,20.739-.426c1.255-.236,2.481-.613,3.73-.871a3.7,3.7,0,0,1,1.872-.142,2.5,2.5,0,0,1,1.484,1.352,2.437,2.437,0,0,1-.765,1.833,4.162,4.162,0,0,1-1.749.684c-5.305,1.578-10.758,1.968-16.719,2.014Z" transform="translate(-23.568 -113.243)" fill="#262c54"/>
      <path id="Path_18451" data-name="Path 18451" d="M110.154,151c-4.563.029-7.428-2.065-8.177-5.786-.491-2.43.468-4.518,1.82-6.4a11.437,11.437,0,0,1,6.809-4.314,2.529,2.529,0,0,1,2.759.7,1.75,1.75,0,0,0,1.349.442,3.191,3.191,0,0,1,3.02,1.526c2.623,3.249,2.346,7.183-.219,10.3a8.932,8.932,0,0,1-7.361,3.53Zm2.895-13.366c-1.43.561-2.646.952-3.785,1.507a5.966,5.966,0,0,0-3.317,4.108,2.725,2.725,0,0,0,1.258,3.275c2.049,1.3,5.373.652,7.209-1.4,1.672-1.865,1.607-3.817-.207-6.118-.332-.42-.691-.82-1.158-1.375Z" transform="translate(-76.587 -102.761)" fill="#262c54"/>
      <path id="Path_18452" data-name="Path 18452" d="M269.326,142.735a7.031,7.031,0,0,1-4.4,7.1,8.024,8.024,0,0,1-8.848-1.791c-4.05-4.25-3.369-10.9,2.443-13.33.723-.3,1.868-.7,2.314-.368,1.752,1.3,4.224-.71,5.8,1.591,1.475,2.159,2.888,4.214,2.7,6.793Zm-7.144-5.663c-.949.523-1.717,1-2.53,1.388-2.859,1.352-3,5.073-.316,7.2a3.861,3.861,0,0,0,4.35.436,3.2,3.2,0,0,0,1.746-3.666,10.649,10.649,0,0,0-1.317-3.195,14.475,14.475,0,0,0-1.933-2.159Z" transform="translate(-179.308 -102.668)" fill="#262c54"/>
      <path id="Path_18453" data-name="Path 18453" d="M58.621,83.331c-1.652.068-2.665-.952-2.333-2.091a10.444,10.444,0,0,1,1.5-3.191c3.511-4.831,7.48-9.213,12.63-12.391,1.084-.671,2.075-1.491,3.137-2.2a13.111,13.111,0,0,1,1.9-1.078,1.813,1.813,0,0,1,2.014,2.911,8.739,8.739,0,0,1-1.478,1.2c-1.868,1.31-3.8,2.533-5.621,3.911a40.7,40.7,0,0,0-10.391,11.52,7.61,7.61,0,0,1-1.346,1.417Z" transform="translate(-45.687 -53.89)" fill="#262c54"/>
      <path id="Path_18454" data-name="Path 18454" d="M141.92,46.277c-1.329.042-2.327-.574-2.469-1.5a1.874,1.874,0,0,1,1.355-2.123c1.188-.461,2.42-.823,3.646-1.168q3.553-1,7.128-1.923A12.5,12.5,0,0,1,154,39.194a1.542,1.542,0,0,1,1.655,1.162,1.79,1.79,0,0,1-.784,2.143,3.523,3.523,0,0,1-.994.439q-5.523,1.583-11.049,3.14C142.479,46.177,142.117,46.235,141.92,46.277Z" transform="translate(-102.038 -38.301)" fill="#262c54"/>
      <path id="Path_18455" data-name="Path 18455" d="M137.891,254.48a17.543,17.543,0,0,1-2.7-.874,1.731,1.731,0,0,1-1.013-2.268,1.794,1.794,0,0,1,2.185-1.2c.991.145,1.972.352,2.946.581,1.436.339,2.033,1.1,1.83,2.256-.181,1.02-.842,1.465-2.259,1.507-.184.006-.365,0-.994,0Z" transform="translate(-98.402 -181.153)" fill="#262c54"/>
      <path id="Path_18456" data-name="Path 18456" d="M207.945,40.679c-1.107-.245-2.1-.416-3.056-.687a1.6,1.6,0,0,1-1.22-1.63,1.57,1.57,0,0,1,1.155-1.675,8.624,8.624,0,0,1,5.328.432c1.007.361.981,2.127-.006,2.769a9.484,9.484,0,0,1-2.2.787Z" transform="translate(-145.552 -36.434)" fill="#262c54"/>
    </g>
    <g id="Group_17252" data-name="Group 17252">
      <path id="Path_18457" data-name="Path 18457" d="M75.9,4.055c-3.743-.065-7.49-.284-11.223-.168a64,64,0,0,0-34.967,11.33,62.936,62.936,0,0,0-11.255,10.4A73.068,73.068,0,0,0,7.744,40.49c-1.368,2.672-2.488,5.479-3.65,8.254-.868,2.081-1.765,2.824-3.059,2.31-1.107-.439-1.342-1.6-.652-3.592A60.334,60.334,0,0,1,8.631,31.742c5.341-7.354,11.2-14.247,18.687-19.529A66.3,66.3,0,0,1,54.46,1.048,86.618,86.618,0,0,1,72.217.07c1.549.048,3.095.248,4.634.449,1.565.2,2.181.807,2.146,1.952C78.962,3.6,78.2,4.223,76.722,4.316c-.274.016-.549,0-.823,0,0-.09,0-.177,0-.268Z" transform="translate(0.006 0.002)" fill="#262c54"/>
      <path id="Path_18458" data-name="Path 18458" d="M359.476,249.053c-1.668,13.582-4.924,26.757-14.063,37.745a58.287,58.287,0,0,1-10.833,10.41,7.669,7.669,0,0,1-1.891,1.078,1.778,1.778,0,0,1-2.372-.755,1.75,1.75,0,0,1,.445-2.227,10.42,10.42,0,0,1,1.281-1.023,54.978,54.978,0,0,0,21.562-34.147c.745-3.753,1.355-7.528,2.026-11.294.016-.09.013-.184.026-.274.271-1.875.965-2.736,2.12-2.633,1.213.106,1.778,1.078,1.7,3.124Z" transform="translate(-223.567 -166.566)" fill="#262c54"/>
      <path id="Path_18459" data-name="Path 18459" d="M35.346,337.7c-.087,1.368-.591,2.036-1.526,2.043a3.876,3.876,0,0,1-2.03-.574c-6.273-4.03-11.9-8.722-15.786-15.254-2.562-4.3-5.305-8.5-7.941-12.759a7.1,7.1,0,0,1-.874-1.981,1.565,1.565,0,0,1,.994-2,2.657,2.657,0,0,1,1.981.358,5.809,5.809,0,0,1,1.246,1.759q4.535,7.159,9.068,14.324a36.451,36.451,0,0,0,9.577,9.645c1.323.971,2.727,1.836,4.008,2.856A8.01,8.01,0,0,1,35.346,337.7Z" transform="translate(-4.824 -208.007)" fill="#262c54"/>
      <path id="Path_18460" data-name="Path 18460" d="M302.428,27.971c.1,1.6-1.12,2.617-2.359,2.2a6.614,6.614,0,0,1-2.152-1.168,53.274,53.274,0,0,0-14.334-8.448,11.944,11.944,0,0,1-2.62-1.455,1.723,1.723,0,0,1-.516-2.43,1.711,1.711,0,0,1,2.362-.755c4.8,2.407,9.965,4.143,14.256,7.532,1.362,1.075,2.8,2.056,4.147,3.146A9.233,9.233,0,0,1,302.428,27.971Z" transform="translate(-189.743 -10.636)" fill="#262c54"/>
      <path id="Path_18461" data-name="Path 18461" d="M257.4,427.991a4.846,4.846,0,0,1-1.336-.323,1.676,1.676,0,0,1-.2-2.924,3.675,3.675,0,0,1,1.494-.581,44.821,44.821,0,0,0,12.572-4.382,16.909,16.909,0,0,1,2.256-.962,1.778,1.778,0,0,1,2.285.974,1.711,1.711,0,0,1-.565,2.188,3.179,3.179,0,0,1-.662.474,51.519,51.519,0,0,1-14.786,5.434c-.268.048-.542.055-1.055.1Z" transform="translate(-172.784 -283.589)" fill="#262c54"/>
      <path id="Path_18462" data-name="Path 18462" d="M369.622,84.011c-.326-.2-1.023-.413-1.336-.878-1.42-2.1-2.762-4.253-4.072-6.425a1.641,1.641,0,0,1,.532-2.188,1.791,1.791,0,0,1,2.272.029,1.29,1.29,0,0,1,.416.345c1.342,2.149,2.775,4.253,3.966,6.486A1.854,1.854,0,0,1,369.622,84.011Z" transform="translate(-246.527 -50.205)" fill="#262c54"/>
      <path id="Path_18463" data-name="Path 18463" d="M197.937,440.315c.907,0,1.817-.019,2.72.006.942.026,1.672.552,1.672,1.446a2.245,2.245,0,0,1-.929,1.749,9.253,9.253,0,0,1-7.128.155,1.735,1.735,0,0,1,.671-3.295c1-.048,2-.013,2.995-.013v-.052Z" transform="translate(-130.915 -298.224)" fill="#262c54"/>
    </g>
  </g>
</svg>
