<svg id="_47" data-name="47" xmlns="http://www.w3.org/2000/svg" width="145.114" height="144.293" viewBox="0 0 145.114 144.293">
  <g id="Group_17254" data-name="Group 17254" transform="translate(15.273 13.226)">
    <path id="Path_18464" data-name="Path 18464" d="M151.428,210.395c-.975-1.578-2.975-2.753-4.837-2.036a3.663,3.663,0,0,0-.507.245c-.123.016-.242.026-.361.045a4.962,4.962,0,0,0-3.537,2.617,4.849,4.849,0,0,0,.613,5.06,5.075,5.075,0,0,0,4.337,2.056,5.578,5.578,0,0,0,4.3-2.814,5.064,5.064,0,0,0-.006-5.173Z" transform="translate(-111.269 -154.202)" fill="#75757c"/>
    <path id="Path_18465" data-name="Path 18465" d="M327.469,289.635l-.265.216.071-.081a1.345,1.345,0,0,0-1.9-1.9q-3.838,3.248-7.625,6.554,4.158-4.661,8.558-9.126a1.311,1.311,0,0,0-1.852-1.852q-2.377,2.159-4.75,4.321c1.1-1.226,2.194-2.456,3.295-3.679a1.281,1.281,0,0,0-1.81-1.81c-.762.674-1.51,1.362-2.265,2.043.31-.326.616-.655.926-.981,1.113-1.168-.526-2.691-1.73-1.73-2.249,1.794-4.485,3.608-6.725,5.418q2.285-2.5,4.527-5.044c.991-1.129-.574-2.736-1.665-1.665-2.327,2.288-4.721,4.511-7.125,6.725,1.388-1.781,2.772-3.566,4.176-5.331.655-.823-.184-2.278-1.226-1.588-.778.516-1.53,1.068-2.294,1.6,1.029-1.1,2.062-2.207,3.108-3.3.713-.742-.239-2.127-1.142-1.481q-3.63,2.58-7.264,5.163c-.045.032-.09.061-.136.094,1.588-1.7,3.233-3.346,4.957-4.911.968-.878-.342-2.649-1.42-1.843q-2.091,1.563-4.169,3.137c.578-.758,1.152-1.52,1.707-2.3.655-.92-.668-2.278-1.588-1.588-2.636,1.981-5.144,4.034-7.593,6.238-.545.491.158,1.375.778,1.007q.794-.474,1.572-.958-2.164,2.42-4.45,4.731c-1.142,1.155.523,2.672,1.733,1.733.8-.62,1.613-1.226,2.417-1.839-.529.652-1.062,1.3-1.575,1.965-.723.945.694,2.314,1.636,1.636,2.017-1.446,3.953-2.995,5.934-4.485-2.6,2.688-5.215,5.37-7.777,8.1-.978,1.039.565,2.594,1.571,1.572a99.51,99.51,0,0,1,8.974-8.048q-4,5-8.022,10a1.186,1.186,0,0,0,.41,1.859c-.139.148-.274.3-.413.445a1.288,1.288,0,0,0,1.82,1.82q3.4-2.769,6.8-5.531c-2.465,2.611-4.927,5.218-7.412,7.809a1.256,1.256,0,0,0,1.775,1.775c2.349-2.046,4.666-4.134,6.977-6.225q-2.188,2.469-4.376,4.94a1.2,1.2,0,0,0,1.7,1.7c1.768-1.6,3.553-3.185,5.328-4.776q-1.626,2.047-3.214,4.118h0l-.194.252c-.91,1.191.955,2.362,1.955,1.51q3.766-3.209,7.551-6.4a1.23,1.23,0,0,0,2.059,1.068l5.573-4.676a.637.637,0,0,0,1.029.248,60.419,60.419,0,0,0,4.673-5.034,1.144,1.144,0,0,0-1.617-1.617Z" transform="translate(-212.884 -199.156)" fill="#eb8486"/>
    <path id="Path_18466" data-name="Path 18466" d="M161.852,107.93a51.84,51.84,0,0,1-9.177,6.5c.916-1.065,1.849-2.114,2.83-3.127,2.375-2.449,4.937-4.656,7.509-6.889,1.191-1.036-.378-3.1-1.7-2.2-3.095,2.1-6.28,4.114-9.51,6.034a111.589,111.589,0,0,1,9.991-8.987c1.1-.9.2-2.562-.965-2.743.071-.074.155-.139.219-.213a.891.891,0,0,0-.616-1.5c.629-.442,1.258-.891,1.878-1.346,1.652-1.22.132-4-1.646-2.814a73.075,73.075,0,0,1-8.993,4.731,1.847,1.847,0,0,0-.962-1.665c1.688-1.194,3.372-2.394,5.069-3.579,1.623-1.133.3-3.7-1.32-3.062q3.374-2.619,6.744-5.24c1.407-1.087-.423-3.433-1.9-2.465q-6.142,4.022-12.288,8.048,1.544-1.3,3.085-2.591a1.8,1.8,0,0,0-.358-2.83q3.5-3.088,7.012-6.173c1.375-1.21-.374-3.12-1.852-2.4-2.285,1.11-4.521,2.307-6.728,3.559a1.646,1.646,0,0,0-.329.148c-.429.252-.852.52-1.278.774q-2.207,1.292-4.379,2.653c-3.4,2.12-6.754,4.331-10.065,6.6,1.068-.891,2.139-1.775,3.208-2.665,5.357-4.466,10.688-8.961,16.086-13.376,1.32-1.078-.4-3.275-1.817-2.356q-7.682,4.971-15.237,10.142c.129-.119.261-.236.39-.355,3.966-3.659,7.9-7.361,11.72-11.168,1.21-1.2-.429-3.524-1.885-2.443-5.2,3.859-10.3,7.854-15.444,11.8.716-.6,1.436-1.191,2.152-1.791a1.343,1.343,0,0,0,.452-1.368l1.181-1.026q5.547-4.831,11.1-9.665c1.281-1.113-.419-3.366-1.833-2.375q-5.16,3.625-10.307,7.267c1.8-1.471,3.6-2.933,5.386-4.418.991-.823-.355-2.6-1.391-1.8q-5.46,4.192-10.852,8.464a1.9,1.9,0,0,0-.116-.3q1.476-1.22,2.946-2.436l5.1-4.221c1.843-1.526,3.64-3.2,5.586-4.589,1.365-.975.158-3.182-1.339-2.291-4.666,2.772-9.21,5.773-13.727,8.8q1.4-1.05,2.807-2.094,4.356-3.18,8.713-6.363c1.613-1.181.058-3.911-1.588-2.717q-10.189,7.4-20.21,15.083-1.568,1.171-3.143,2.34,9.2-8.606,18.358-17.245c1.252-1.181-.387-3.379-1.862-2.41-.416.274-.826.558-1.242.833a1.066,1.066,0,0,0-.132.074c-.058.042-.116.087-.174.132-.6.4-1.187.8-1.781,1.2a1.371,1.371,0,0,0-2.068-1.359q-3.122,1.985-6.231,4,5.276-4.366,10.558-8.726c1.21-1-.39-3.1-1.691-2.191l-2.888,2.014c.058-1.046-.939-2.091-2.043-1.339-8.132,5.531-16.109,11.3-23.963,17.228q.494-.494.991-.981,2.265-1.849,4.527-3.7c4.243-3.472,8.529-6.9,12.688-10.471a1.273,1.273,0,0,0,.181-1.752q1.772-1.544,3.543-3.085c1.055-.916-.329-2.724-1.5-1.946C107.385,46.764,99.376,51.963,91.467,57.3a.91.91,0,0,0-.287-.058c1.772-1.378,3.55-2.746,5.318-4.124,4.143-3.233,8.277-6.483,12.456-9.674,1.281-.978.129-3.162-1.3-2.233l-20.5,13.3q5.721-4.7,11.443-9.41c1.258-1.033-.394-3.182-1.749-2.265q-4.255,2.885-8.448,5.857a1.591,1.591,0,0,0-2.278-.881q-13.776,8.93-26.948,18.742c-1.333.994-.055,3.262,1.323,2.265.245-.177.5-.349.742-.526q-4.729,4.168-9.316,8.5c-1.336,1.265.623,3.14,1.991,1.991q5.324-4.468,10.768-8.793a1.631,1.631,0,0,0,.278.655,79.773,79.773,0,0,0-10.942,9.552,1.284,1.284,0,0,0,.181,1.852l-2.252,1.733a1.547,1.547,0,0,0-.536,2.043,1.5,1.5,0,0,0,2.043.536q3.567-2.623,7.025-5.4c.123-.094.245-.19.368-.284A156.964,156.964,0,0,0,49.566,91.628a1.32,1.32,0,0,0,1.865,1.865q8.233-7.159,16.886-13.814-2.377,2.057-4.711,4.163Q58.451,88.5,53.57,93.451c-1.291,1.313.613,3.108,1.981,1.981.2-.165.4-.326.6-.487-.119.1-.239.2-.355.307-2.507,2.172-5.186,4.256-7.5,6.628a1.266,1.266,0,0,0,.313,2.03c-.016.023-.032.042-.048.065-.542.732.51,1.71,1.233,1.233a46.371,46.371,0,0,0,5.76-4.727,1.784,1.784,0,0,0,.248.268c-2.84,2.5-5.541,5.166-8.145,7.922-.942,1,.294,2.8,1.523,1.975,2.8-1.878,5.566-3.8,8.325-5.744-2.265,2.233-4.456,4.54-6.554,6.944-.916,1.052.329,3.037,1.6,2.075q6.433-4.855,12.908-9.655-7.115,6.138-14.176,12.33c-1.246,1.1.429,3.337,1.8,2.333,1.936-1.42,3.882-2.827,5.825-4.243-1.791,1.823-3.537,3.692-5.244,5.628-1.087,1.233.72,3.053,1.814,1.814.549-.623,1.117-1.226,1.678-1.836a1.8,1.8,0,0,0,.862.878c-2.01,1.591-4,3.2-5.96,4.856-.862.733.265,2.191,1.21,1.568,4.531-2.975,8.929-6.16,13.295-9.39q-3.853,3.688-7.615,7.451c-1.362,1.362.632,3.217,2.065,2.065q9.414-7.551,18.842-15.083-1.776,1.844-3.5,3.73c-.465.381-.933.758-1.4,1.139-2.9,2.391-5.776,4.818-8.58,7.325-2.84,2.536-5.873,5.015-8.129,8.1-.49.671.449,1.494,1.1,1.1,3.159-1.9,5.86-4.543,8.677-6.909q3.756-3.156,7.541-6.276a1.575,1.575,0,0,0,1.055-.381c2.043-1.681,4.069-3.379,6.105-5.069a.731.731,0,0,0,1.02.1c.958-.781,2.191-1.329,3.23-2.014.865-.568,1.7-1.187,2.54-1.791.536-.384,1.075-.765,1.613-1.149-.778.613-1.555,1.233-2.333,1.846a1.212,1.212,0,0,0-.226.239l-3.772,2.933a.806.806,0,0,0-.833.139c-1.926,1.626-4.069,3.027-6.05,4.585s-3.959,3.124-5.9,4.737q-5.8,4.831-11.61,9.661c-1.3,1.081.468,3.411,1.823,2.365l.3-.236h0l.023-.019Q70.8,130.418,79,123.981c-2.188,1.917-4.372,3.83-6.538,5.773-1.413,1.271-2.843,2.527-4.23,3.824a22.161,22.161,0,0,0-3.876,4.13c-.468.745.423,1.407,1.1,1.1a21.736,21.736,0,0,0,4.485-3.185c1.481-1.2,2.933-2.436,4.392-3.663l.568-.484a1.963,1.963,0,0,0,.742.791l-.045.039a111.911,111.911,0,0,0-9.381,8.964c-.452.516.126,1.394.768.994a83.255,83.255,0,0,0,9.068-6.883q4.3-3.558,8.525-7.209,3.592-3.1,7.135-6.247c-3.188,3-6.312,6.07-9.339,9.219-3.1,3.227-6.086,6.522-8.864,10.032-.716.907.41,2.12,1.3,1.3,3.637-3.369,7.177-6.841,10.746-10.284a1.728,1.728,0,0,0,2.553,1.41q-5,4.545-9.771,9.345c-1.394,1.41.532,3.237,2.039,2.272-.916,1.133-1.823,2.278-2.7,3.446-.833,1.107.794,2.662,1.9,1.9q3.78-2.619,7.577-5.221c-1.62,1.613-3.2,3.262-4.74,4.966-1.217,1.352.4,3.837,2.056,2.665Q92.9,147,101.316,140.98a152.813,152.813,0,0,0-10.71,11.436,1.416,1.416,0,0,0,2,2c.2-.158.4-.313.594-.468-.629.771-1.252,1.552-1.859,2.346-.778,1.016.507,2.465,1.626,2.114a28.016,28.016,0,0,0,8.064-4.343,1.545,1.545,0,0,0,2.1.587c.4-.207.787-.436,1.181-.649a1.615,1.615,0,0,0,2.285,1.926c1.81-.878,3.592-1.81,5.36-2.769-.358.407-.723.8-1.075,1.217a1.624,1.624,0,0,0,1.959,2.54q2.788-1.481,5.492-3.1a1.579,1.579,0,0,0,2.272,1.517,61.382,61.382,0,0,0,7.667-4.727,2.746,2.746,0,0,0,3.143.113,1.606,1.606,0,0,0,.248-2.536c.165-.229.329-.458.5-.684a1.39,1.39,0,0,0-.878-2.2q.61-.571,1.213-1.149c-.481-.858-.994-1.807-1.5-2.817q-4.647,3.693-9.642,6.912c1.113-1.013,2.239-2,3.4-2.962,2.043-1.417,4.037-2.9,6.005-4.421-.5-1-.984-2.049-1.439-3.12q-3.587,2.483-6.938,5.273-3.737,2.575-7.635,4.9,1.379-1.278,2.785-2.523c3.834-2.895,7.541-5.967,11.223-9.045a26.457,26.457,0,0,1-1.726-6.47,133.638,133.638,0,0,0-17.39,13.766c-2.911,2.288-5.815,4.585-8.735,6.864-.923.72-1.862,1.43-2.827,2.1a155.575,155.575,0,0,1,19.581-17.948c2.281-1.8,4.566-3.585,6.844-5.389,1.475-1.168-.6-3.211-2.065-2.065-2.411,1.891-4.818,3.788-7.2,5.715q-3.069,2.435-6.138,4.869c7.06-6.292,14.5-12.178,21.924-18.022,1.375-1.084-.442-3.459-1.885-2.443q-12.764,9-25.535,17.987c5.805-4.647,11.823-9.045,17.825-13.427,1.459-1.065.471-3.324-.962-3.14q2.851-1.931,5.657-3.937c-.281.252-.561.507-.842.758-1.284,1.155.423,3.437,1.872,2.427l12.733-8.9a59.048,59.048,0,0,0-4.65,4.647c-1.062,1.2.371,3.44,1.823,2.365,3.056-2.259,6.189-4.424,9.352-6.547a26.281,26.281,0,0,0-1.888,3.056c-.591,1.129.665,2.675,1.865,1.865,1.807-1.22,3.646-2.394,5.5-3.553a64.268,64.268,0,0,0-5.131,6.463c-.842,1.223.745,2.343,1.843,1.843,1.652-.752,3.285-1.5,4.889-2.32-.136.161-.281.316-.416.478-.674.807-.345,2.588,1,2.411a9.452,9.452,0,0,0,6.825-3.779c.461-.645-.455-1.559-1.1-1.1-.378.268-.768.513-1.168.742,1.743-1.917,3.443-3.876,5.2-5.776a1.377,1.377,0,0,0-1.946-1.946ZM118.167,94.087c1.491-1.087,2.978-2.172,4.476-3.25q-4,3.258-8,6.509,1.743-1.651,3.524-3.259Zm-13.04,15.96q-1.452,1.21-2.891,2.436c.907-.823,1.81-1.652,2.714-2.478A1.18,1.18,0,0,0,105.127,110.047ZM86.54,62.94a.985.985,0,0,0,.171.065c-.891.6-1.775,1.217-2.662,1.826C84.878,64.2,85.707,63.566,86.54,62.94ZM80.854,78.8a1.4,1.4,0,0,0,.358-.429q8.006-5.576,16.031-11.126-3.562,2.914-7.122,5.834-9.066,6.312-17.945,12.888,4.313-3.611,8.68-7.167ZM59.459,99.992q1.81-1.7,3.656-3.379c3.5-2.63,7.006-5.27,10.523-7.877a1.747,1.747,0,0,0,1,.413q-3.049,2.188-6.1,4.369Q64,96.752,59.459,99.992Zm24.725-14.04a1.7,1.7,0,0,0,.455.3q-8.8,6.646-17.561,13.353C72.564,94.806,78.324,90.311,84.184,85.951Zm2.956,15.883a2.392,2.392,0,0,1-.332.265,3.9,3.9,0,0,1-1.9,2.456,5.619,5.619,0,0,1-6.331-.878,4.5,4.5,0,0,1,.545-7.135,5.775,5.775,0,0,1,2.73-.8,3.091,3.091,0,0,1,3.02.155l1.442-1.036c-.439.371-.878.745-1.317,1.117a2.645,2.645,0,0,1,.474.416,4.922,4.922,0,0,1,1.662,1.217,3.045,3.045,0,0,1,0,4.218Zm-9.49-4.289q6.055-5.31,12.14-10.587a1.672,1.672,0,0,0,.742,1.217Q84.089,92.855,77.649,97.546ZM90.273,78.526a1.2,1.2,0,0,0-1,.219q-3.7,2.57-7.367,5.2Q93,75.335,104.494,67.258q-7.212,5.5-14.221,11.272Zm6.812,56.4q3.359-2.793,6.741-5.55a1.639,1.639,0,0,0,1.581-.365q4.748-4.109,9.594-8.1a.983.983,0,0,0,1.171.613q-9.555,6.685-19.084,13.4Zm17.7-19.352c-.348.316-.691.642-1.036.958a1.27,1.27,0,0,0,.11-1.375q6.326-5.324,12.679-10.613,2.362-1.544,4.724-3.091c-5.592,4.585-11.1,9.271-16.473,14.121Zm19.649-25.276q-4.269,3.572-8.542,7.144-2.972,2.038-5.954,4.079a2.167,2.167,0,0,0-.765-1.149l6.957-5.015c3.866-2.785,7.738-5.563,11.675-8.245q-1.675,1.607-3.372,3.188Z" transform="translate(-47.32 -40.982)" fill="#eac485"/>
  </g>
  <g id="Group_17255" data-name="Group 17255">
    <path id="Path_18467" data-name="Path 18467" d="M160.49,188.142c-10.768.071-20.339-1.723-29.271-6.309a24.252,24.252,0,0,1-4.443-3.085,2.027,2.027,0,0,1-.187-1.943,2.07,2.07,0,0,1,1.794-.794,19.28,19.28,0,0,1,3.433,1.565c15.037,7.557,30.6,8.564,46.632,3.737.694-.21,1.365-.5,2.036-.778,6.386-2.611,6.428-2.743,3.4-8.968-1.271-2.617-2.549-5.234-3.727-7.893a22.685,22.685,0,0,1-1.881-10.646c.294-4.979,2.611-8.651,7.138-10.775,4.556-2.136,8.861-1.371,12.862,1.5a7.431,7.431,0,0,1,2.01,1.823c1.733,2.711,3.959,2.682,6.98,2.459,3.517-.258,4.785-1.788,5.473-4.744,5.034-21.643-.148-40.281-16.331-55.7a39.327,39.327,0,0,1-3.169-2.949,2,2,0,0,1,.071-1.926,2.053,2.053,0,0,1,1.865-.613,27.07,27.07,0,0,1,4.911,3.356c9.942,9.058,15.45,20.5,17.784,33.6a53.883,53.883,0,0,1-1.943,27.455c-.652,1.894-.571,3.32,1.039,4.844,3.517,3.327,3.556,7.373,1.61,11.533a20.72,20.72,0,0,1-7.309,8.648,10.337,10.337,0,0,1-3.417,1.613,2.822,2.822,0,0,1-2.162-1.016c-.274-.313-.026-1.478.371-1.888.736-.765,1.875-1.136,2.63-1.888a47.8,47.8,0,0,0,5.489-5.957c1.626-2.3,2.456-5.069.394-7.59-1.988-2.43-5.082-3.9-7.78-2.588-4.269,2.078-6.628,1.11-8.632-2.856a8.325,8.325,0,0,0-3.185-2.895,8.219,8.219,0,0,0-12.462,5.179,14.817,14.817,0,0,0,1.1,9.594c1.678,4.024,3.75,7.88,5.5,11.875.862,1.968,2.156,2.172,3.953,1.649a48.446,48.446,0,0,1,6.334-1.607c.845-.123,1.82.658,2.736,1.029-.471.849-.833,2.343-1.436,2.449-8.045,1.4-14.6,6.434-22.179,8.916a53.428,53.428,0,0,1-18.045,2.582Z" transform="translate(-85.626 -55.563)" fill="#262c54"/>
    <path id="Path_18468" data-name="Path 18468" d="M84.343,47.543c.332.268,1.136.6,1.307,1.133a2.735,2.735,0,0,1-.468,1.93,3.022,3.022,0,0,1-1.349.874c-.823.381-1.678.691-2.52,1.029-24.415,9.778-35.454,28.9-37.271,54.105a40.26,40.26,0,0,0,7.883,27.738c2.724,3.627,5.721,7.048,8.551,10.6a18.187,18.187,0,0,1,2.036,3.159,1.514,1.514,0,0,1-.423,1.423,2.456,2.456,0,0,1-1.9.429,6.215,6.215,0,0,1-2.094-1.662c-1.83-2.017-3.582-4.108-5.386-6.15-12.624-14.318-15.2-30.9-10.862-48.946a89.371,89.371,0,0,1,3.982-11.862c6.5-16.457,18.913-26.7,35.031-32.973.674-.261,1.362-.5,2.059-.694a9.417,9.417,0,0,1,1.426-.136Z" transform="translate(-27.017 -32.197)" fill="#262c54"/>
    <path id="Path_18469" data-name="Path 18469" d="M160.259,4.136c-4.779-.174-13.179,1.9-21.32,5.279a27.684,27.684,0,0,1-4.614,1.546,2.016,2.016,0,0,1-1.633-1.02,2.112,2.112,0,0,1,.352-1.933,10.145,10.145,0,0,1,2.791-1.63q30.247-13.287,59.995,1.11c7.683,3.727,13.679,9.5,19.171,15.86.9,1.042,2.307,2.314.836,3.73-1.442,1.388-2.633.09-3.682-.933-.52-.507-.994-1.058-1.468-1.61-12.194-14.173-27.958-20.2-50.427-20.4Z" transform="translate(-89.803 0.006)" fill="#262c54"/>
    <path id="Path_18470" data-name="Path 18470" d="M6.02,254.159c.084-.5.013-1.149.3-1.542a3.115,3.115,0,0,1,1.575-1.155,1.528,1.528,0,0,1,1.326.7,39.947,39.947,0,0,1,1.249,4.718c3.288,15.741,11.42,28.558,23.679,38.784,2.627,2.194,5.757,3.782,8.642,5.67a17.592,17.592,0,0,1,2.594,1.885,1.528,1.528,0,0,1,.184,1.475c-.355.523-1.188,1.255-1.578,1.129a23.817,23.817,0,0,1-5.492-2.246c-17.212-10.826-27.645-26.412-32.082-46.135a31.259,31.259,0,0,1-.4-3.288Z" transform="translate(-4.074 -170.306)" fill="#262c54"/>
    <path id="Path_18471" data-name="Path 18471" d="M231.973,274.857c-.574,1.772-1.917,4.127-1.943,6.5-.023,2.178,1.881,4.334,2.043,6.567a7.072,7.072,0,0,1-7.722,7.845c-3.359-.339-6.625-1.72-9.881-2.785-.481-.158-1.117-1.355-.942-1.678.361-.674,1.22-1.526,1.865-1.52a18.615,18.615,0,0,1,4.221.829c1.055.265,2.062.723,3.124.945,2.569.536,4.263-.2,4.992-2.065a4.662,4.662,0,0,0-1.546-5.347,13.965,13.965,0,0,0-1.41-.8c-2.956-1.855-2.969-2.175-.168-4.466a20.456,20.456,0,0,0,1.71-1.326c1.223-1.252,2.107-2.972.984-4.36-.658-.813-2.556-.955-3.85-.842-2.143.184-4.234.994-6.373,1.158-.732.055-1.552-1.046-2.333-1.617.565-.626,1.023-1.61,1.713-1.814a49.226,49.226,0,0,1,8.955-2.156c3.9-.387,6.554,2.417,6.567,6.931Z" transform="translate(-144.601 -181.442)" fill="#262c54"/>
    <path id="Path_18472" data-name="Path 18472" d="M139.762,198.61c3.95.145,6.964,4.15,6.77,9-.194,4.963-3.614,8.3-8.329,8.125a7.856,7.856,0,0,1-7.683-8.2C130.684,202.7,135.1,198.439,139.762,198.61Zm2.753,8.519c-.01-2.2-1.517-4.224-3.24-4.343-2.139-.148-4.7,2.6-4.673,5.031a4.054,4.054,0,0,0,3.711,3.911c2.288.135,4.218-1.975,4.2-4.6Z" transform="translate(-88.396 -134.515)" fill="#262c54"/>
    <path id="Path_18473" data-name="Path 18473" d="M233.027,424.991a23.37,23.37,0,0,1-3.6-.41c-.545-.129-1.355-1.071-1.271-1.481a3.16,3.16,0,0,1,1.423-1.956,6.245,6.245,0,0,1,2.659-.339c9.181-.152,17.925-2.388,26.493-5.486a7.968,7.968,0,0,1,2.543-.881,9.238,9.238,0,0,1,2.727.933A13.005,13.005,0,0,1,262.617,418a4.767,4.767,0,0,1-1.936.923,95.172,95.172,0,0,1-27.655,6.076Z" transform="translate(-154.526 -280.701)" fill="#262c54"/>
    <path id="Path_18474" data-name="Path 18474" d="M119.364,143.767a25.109,25.109,0,0,0-19.878,9.406c-.965,1.175-1.607,3.214-3.734,2.085-1.288-.684-1.091-2.578.716-4.763a29.022,29.022,0,0,1,22.7-10.907,10.572,10.572,0,0,1,4.108,1.078,2,2,0,0,1,.781,1.765,2.176,2.176,0,0,1-1.468,1.278,16.863,16.863,0,0,1-3.233.058Z" transform="translate(-64.291 -94.541)" fill="#262c54"/>
    <path id="Path_18475" data-name="Path 18475" d="M274.942,176.994c-2.662.52-5.311,1.168-8,1.481-.829.1-1.765-.733-2.652-1.136.542-.829.9-2.094,1.659-2.417,7.964-3.375,20.133-2.372,26.8,4.96a9.615,9.615,0,0,1,1.807,2.682c.219.529.016,1.713-.352,1.9a4.047,4.047,0,0,1-2.423.142c-.449-.087-.787-.71-1.184-1.081C285.262,178.514,281.786,177.12,274.942,176.994Z" transform="translate(-179.003 -117.22)" fill="#262c54"/>
    <path id="Path_18476" data-name="Path 18476" d="M270.658,218.693c4.634.006,7.961.787,9.958,4.14a3.379,3.379,0,0,1,.139,2.891c-.691,1.175-2,.755-2.785-.1-4-4.376-8.4-3.285-12.911-1.062-.484.239-.887.816-1.365.862-.8.074-2,.129-2.352-.329a2.478,2.478,0,0,1-.016-2.417,11.722,11.722,0,0,1,3.953-2.736,34.588,34.588,0,0,1,5.376-1.249Z" transform="translate(-176.787 -148.119)" fill="#262c54"/>
    <path id="Path_18477" data-name="Path 18477" d="M208.163,39.17c3.014.449,6.054.771,9.016,1.449.652.148,1.02,1.559,1.517,2.388-.732.394-1.572,1.249-2.185,1.113-5.779-1.281-11.5-.271-17.241.181a3.248,3.248,0,0,1-1.6-.106c-.584-.287-1.491-.907-1.446-1.284.09-.739.62-1.878,1.187-2.026a50.366,50.366,0,0,1,6.383-1.068c1.43-.184,2.878-.216,4.321-.319.016-.106.032-.216.048-.323Z" transform="translate(-132.902 -26.528)" fill="#262c54"/>
    <path id="Path_18478" data-name="Path 18478" d="M423.737,132.726c-.481.536-1.013,1.546-1.82,1.859-.419.165-1.4-.826-1.968-1.436-.339-.361-.358-1.007-.552-1.51-1.743-4.55-3.566-9.074-5.176-13.672-.277-.794.336-1.9.536-2.856.936.332,2.285.384,2.736,1.046,3.327,4.86,5.121,10.352,6.244,16.57Z" transform="translate(-280.505 -77.963)" fill="#262c54"/>
    <path id="Path_18479" data-name="Path 18479" d="M-.007,169.938c1.313-4.511,2.591-9.035,3.966-13.53a5.027,5.027,0,0,1,1.417-2.262,2.489,2.489,0,0,1,1.959-.207,1.65,1.65,0,0,1,.852,1.236,6.656,6.656,0,0,1-.316,2.107c-1.139,4.747-2.327,9.481-3.424,14.237-.3,1.291-.484,2.678-2.165,2.53-1.636-.145-1.736-1.6-1.846-2.882A8.2,8.2,0,0,1,.48,170.08c-.165-.048-.326-.1-.49-.142Z" transform="translate(0.01 -104.194)" fill="#262c54"/>
    <path id="Path_18480" data-name="Path 18480" d="M292.16,56.5c-.542.371-1.42,1.368-1.852,1.2a67.381,67.381,0,0,1-7.816-3.562c-.974-.523-.481-2.256.6-2.6,2.165-.681,8.158,2.043,8.919,4.059A6.552,6.552,0,0,1,292.16,56.5Z" transform="translate(-190.977 -34.839)" fill="#262c54"/>
    <path id="Path_18481" data-name="Path 18481" d="M440.981,208.838c-.148.745-.081,1.613-.478,2.117a3.585,3.585,0,0,1-2.085,1.284c-.394.058-1.258-.849-1.349-1.413a14,14,0,0,1-.113-4.324c.107-.694.991-1.723,1.584-1.765.616-.045,1.523.8,1.9,1.475a8.661,8.661,0,0,1,.539,2.627Z" transform="translate(-295.87 -138.667)" fill="#262c54"/>
  </g>
</svg>
