<svg id="_48" data-name="48" xmlns="http://www.w3.org/2000/svg" width="145.208" height="144.975" viewBox="0 0 145.208 144.975">
  <g id="Group_17256" data-name="Group 17256" transform="translate(14.682 17.498)">
    <path id="Path_18482" data-name="Path 18482" d="M189.92,297.445c-.068.058-.136.116-.2.177a1.574,1.574,0,0,0-2.552-1.107c-.371.313-.745.626-1.116.942a1.411,1.411,0,0,0-2.191-.981l-8.393,5.992c.381-.481.758-.965,1.142-1.446a1.527,1.527,0,0,0-2.159-2.159q-2.309,1.926-4.614,3.853c.526-.668,1.062-1.329,1.584-2a1.5,1.5,0,0,0-2.114-2.114c-2.33,1.949-4.653,3.9-6.993,5.828q1.123-1.641,2.249-3.279c.965-1.394-1.049-2.6-2.178-1.681-2.733,2.214-5.512,4.372-8.283,6.538,1.265-1.765,2.591-3.488,4-5.144a1.436,1.436,0,0,0-2.03-2.03c-1.868,1.684-3.759,3.346-5.654,5,.733-.891,1.481-1.765,2.265-2.614a1.37,1.37,0,0,0-1.936-1.936c-1.843,1.655-3.724,3.266-5.605,4.879a15.534,15.534,0,0,1,2.272-2.527c1.32-1.246-.655-3.2-1.985-1.985-.736.668-1.5,1.288-2.281,1.884.29-.41.581-.823.871-1.233.865-1.226-.836-2.862-2.052-2.052-.626.416-1.249.833-1.875,1.246-.084-1.123-1.646-2.03-2.546-.991a5.794,5.794,0,0,1-2.333,1.655c.49-1.317-1.642-2.168-2.31-.942-.374.691-.752,1.381-1.126,2.072a1.419,1.419,0,0,0,1.21,2.107,7.379,7.379,0,0,0,1.281-.019l-.21.316a1.52,1.52,0,0,0,2.065,2.065c.265-.177.529-.355.8-.532l-.474.678c-.92,1.313.82,2.643,2.033,2.033.574-.287,1.129-.61,1.688-.929a19.567,19.567,0,0,0-.862,2.562,1.528,1.528,0,0,0,2.433,1.565c-.2.332-.42.652-.613.984a1.525,1.525,0,0,0,2.385,1.839q2.13-1.878,4.234-3.782c-.384.626-.781,1.246-1.146,1.881-.926,1.61,1.11,2.891,2.41,1.862,2.475-1.959,4.908-3.966,7.344-5.973q-1.113,1.568-2.22,3.133c-1.026,1.462,1.133,2.843,2.34,1.8,1.307-1.126,2.63-2.236,3.956-3.337q-1.239,1.539-2.475,3.078a1.559,1.559,0,0,0,2.2,2.2q2.924-2.454,5.847-4.911a1.433,1.433,0,0,0,.313,1.036,1.534,1.534,0,0,0,2,.4q2.386-1.709,4.773-3.421c-.081.087-.165.174-.245.261a1.475,1.475,0,0,0,2.085,2.085c1.6-1.326,3.156-2.7,4.74-4.053-.1.129-.2.258-.3.387-1.081,1.4,1.136,2.827,2.327,1.794,1.694-1.471,3.372-2.959,5.053-4.443a1.085,1.085,0,0,0,2.1.529,20.244,20.244,0,0,1,3.072-5.073,1.409,1.409,0,0,0-1.991-1.991Z" transform="translate(-103.809 -218.1)" fill="#ba8b54"/>
    <path id="Path_18483" data-name="Path 18483" d="M274.915,170.738c-1.371-1.885-3.711-7.564-6.38-4.3-6.654-2.346-14.4,8.087-6.347,5.321a2.124,2.124,0,0,0,2.169.084c2.8-1.549,11.723,5.434,10.555-1.11Z" transform="translate(-189.934 -129.559)" fill="#75757c"/>
    <path id="Path_18484" data-name="Path 18484" d="M158.758,173.957c-.649-5.844-14.7-10.458-13.779-2.165a1.792,1.792,0,0,0,2.582.1c2.239-.055,4.26,2.362,6.367,1.436,1.3,1.323,4.169,4.024,4.818.623h.013Z" transform="translate(-112.849 -130.803)" fill="#75757c"/>
    <path id="Path_18485" data-name="Path 18485" d="M335.352,290.994c-.945.684-1.855,1.426-2.749,2.191a1.343,1.343,0,0,0-2.127-1.578,133.715,133.715,0,0,0-9.958,10.416c-1.517,1.759-3,3.553-4.421,5.392a54.162,54.162,0,0,0-4.321,6,1.4,1.4,0,0,0,.355,1.762c-.345.432-.684.865-1.013,1.31-.352.474-.691.949-1.01,1.446a2.988,2.988,0,0,0-.658,1.607.506.506,0,0,0,.632.481,2.99,2.99,0,0,0,1.371-.926c.426-.413.836-.833,1.246-1.265.816-.862,1.6-1.746,2.4-2.62.658-.72,1.262-1.475,1.852-2.239a.689.689,0,0,0,.8-.019,119.638,119.638,0,0,0,9.92-9.568c1.61-1.639,3.217-3.279,4.8-4.937s3.085-3.443,4.815-4.931c1.359-1.171-.458-3.579-1.939-2.511Z" transform="translate(-224.275 -214.415)" fill="#eac485"/>
    <path id="Path_18486" data-name="Path 18486" d="M230.54,171.617q-5.31,3.485-10.268,7.454.615-.644,1.226-1.288a1.335,1.335,0,0,0,.842-.481q1.96-2.256,3.917-4.514c1.265-1.459-.784-3.569-2.143-2.143q-5.77,6.075-11.53,12.159,1.326-1.467,2.649-2.933l10.01-11.084a1.486,1.486,0,0,0-2.1-2.1q-3.156,2.459-6.247,5,5.455-5.755,10.907-11.517a1.557,1.557,0,0,0-2.2-2.2q-4.468,4.313-8.935,8.629c2.172-2.833,4.285-5.712,6.309-8.655,1.039-1.51-1.21-3.091-2.465-1.9q-8.171,7.764-16.341,15.525,1.694-1.709,3.388-3.417c.694-.662,1.391-1.317,2.081-1.981q6.283-6.046,12.436-12.22a1.568,1.568,0,0,0-2.217-2.217q-8.8,8.364-17.341,16.98-9.487,9.022-19.278,17.712c1.446-.1,2.891-.223,4.337-.378,2.272-.245,4.547-.542,6.815-.868l14.224-13.511c-3.737,4.5-7.641,8.848-11.646,13.114.9-.139,1.8-.265,2.691-.416,2.5-.42,5.211-1.087,7.77-.707.587-.523,1.165-1.052,1.755-1.572l-1.471,1.623c.158.029.316.045.471.084,12.33,2.94-6.544,20.784-10.213,23.663a32.323,32.323,0,0,1-20.023,7.035,40.477,40.477,0,0,1-12.069,1.271c-.229.219-.461.436-.687.658.174-.226.361-.445.539-.668a27.458,27.458,0,0,1-3.656-.494c-1.162-.239-2.452-.571-3.792-.978q-4.831,5.237-9.655,10.478a1.523,1.523,0,0,0,2.152,2.152q4.516-4.071,9.013-8.164a60.875,60.875,0,0,0-4.785,8.409c-.665,1.433,1.139,3.185,2.352,1.817.874-.987,1.768-1.959,2.662-2.927-.278.478-.558.952-.826,1.439a1.51,1.51,0,0,0,1.691,2.162,1.552,1.552,0,0,0,2.54.942q6.97-5.939,13.937-11.875a1.513,1.513,0,0,0,.339.394q-4.221,4.487-8.448,8.977a1.6,1.6,0,0,0,2.256,2.256l6.48-6.26-3.788,4.282c-1.291,1.459.778,3.579,2.159,2.159l2.953-3.03c-.452,1.436,1.391,2.988,2.591,1.649.4-.449.81-.9,1.213-1.346a1.651,1.651,0,0,0,2.617.484q3.127-2.9,6.26-5.8a1.274,1.274,0,0,0,1.126.349l-3.775,4.23c-1.187,1.329.336,3.611,1.985,2.572a23.133,23.133,0,0,0,6.631-6.331,1.367,1.367,0,0,0,.242-1.21q14.439-16.085,28.874-32.169a1.726,1.726,0,0,0-.687-2.807c.19-.194.381-.387.571-.578a1.5,1.5,0,0,0-1.081-2.565,24.186,24.186,0,0,0,4.9-7.367,1.194,1.194,0,0,0,.006-.813c.5-.626,1-1.255,1.5-1.881.945-1.184-.261-3.266-1.762-2.281Zm-34.218,47.629q1.225-1.525,2.456-3.046c.5-.468,1.01-.936,1.513-1.4Q198.307,217.022,196.322,219.246Z" transform="translate(-115.059 -119.966)" fill="#eac485"/>
    <path id="Path_18487" data-name="Path 18487" d="M151.084,341.71a110.819,110.819,0,0,0-7.048,9.4c-.849,1.284,1.126,2.84,2.149,1.659,2.872-3.311,5.886-6.493,9.01-9.565a43.452,43.452,0,0,1-4.111-1.5Z" transform="translate(-112.099 -248.942)" fill="#eac485"/>
    <path id="Path_18488" data-name="Path 18488" d="M134.92,334.32q-3.9,4.071-7.7,8.235a1.35,1.35,0,0,0,.542,2.246,1.177,1.177,0,0,0,1.636-.087l1.907-1.907q3.863-3.166,7.728-6.328a31.529,31.529,0,0,1-4.111-2.159Z" transform="translate(-100.575 -243.937)" fill="#eac485"/>
    <path id="Path_18489" data-name="Path 18489" d="M300.44,137.45a14.728,14.728,0,0,1,2.759,2.085,2.716,2.716,0,0,1,.9,1.743q1.849-1.917,3.695-3.837,5.837-6.065,11.659-12.146a1.607,1.607,0,0,0-2.272-2.272q-8.374,7.2-16.735,14.427Z" transform="translate(-218.173 -100.533)" fill="#eac485"/>
    <path id="Path_18490" data-name="Path 18490" d="M144.83,86.3c-8.267,6.409-16.312,13.095-24.241,19.916q3.834-3.979,7.661-7.958a2.843,2.843,0,0,1-1.946-.816c-2.736-2.575-4.679-.965-7.332.971-3.1,2.269-6.08-2.907-3.011-5.15,2.133-1.559,4.456-3.108,7.177-3.275a8.152,8.152,0,0,1,4.573,1.126q3.209-3.219,6.415-6.444,5.044-5.063,10.084-10.126c1.468-1.475-.726-3.614-2.265-2.265q-8.016,7.033-16.031,14.069,2.4-2.294,4.818-4.579,5.107-4.826,10.242-9.626c1.539-1.442-.726-3.637-2.294-2.294q-14.8,12.687-29.6,25.37,8.8-9.09,18.093-17.687,5.32-4.913,10.791-9.658c1.362-1.181-.468-3.614-1.949-2.527Q126.59,72.263,117.42,79.54q2.546-2.348,5.1-4.679,5.048-4.6,10.12-9.177a1.518,1.518,0,0,0-1.833-2.375A229.4,229.4,0,0,0,111.1,77.694q7.812-8.035,15.618-16.073c1.42-1.462-.7-3.5-2.207-2.207q-12.241,10.475-24.489,20.949Q109.06,71.059,118.34,62a1.584,1.584,0,0,0-.449-2.578l.032-.029c1.475-1.342-.678-3.417-2.165-2.165-2.236,1.878-4.453,3.779-6.68,5.673q2.957-2.982,5.915-5.96c1.5-1.517-.713-3.614-2.3-2.3Q105.384,60.667,98.262,66.9q3.926-3.756,7.9-7.467c1.507-1.4-.668-3.4-2.2-2.2q-11.414,8.9-22.391,18.332,3.863-3.558,7.77-7.051,6.171-5.508,12.407-10.939c1.346-1.181-.426-3.511-1.926-2.5-1.378.929-2.74,1.885-4.1,2.836a1.475,1.475,0,0,0-.762-.342c.855-1.033-.649-2.869-1.859-2q-7.4,5.305-14.824,10.568L83,61.866c1.371-1.236-.658-3.256-2.023-2.023L58.22,80.411c-1.181,1.068.4,3.188,1.726,2.236q5.087-3.63,10.165-7.273Q63.5,81.5,57.11,87.881q-4.511,4.177-8.89,8.493c-1.475,1.462.723,3.592,2.256,2.256,7.128-6.205,14.266-12.417,21.54-18.458-5.36,5.16-10.575,10.471-15.55,16.015q-5.431,6.05-10.4,12.482l-.019.019h0l-.252.319c-1.117,1.446,1.255,3.179,2.494,1.923q13.33-13.5,27.487-26.141-7.285,7.44-14.411,15.031Q55.6,106,49.959,112.28a1.562,1.562,0,0,0,1.949,2.4,1.557,1.557,0,0,0,2.559,1.433q3.388-2.73,6.776-5.463-2.59,2.827-5.128,5.7a1.531,1.531,0,0,0-.187,1.833q-4.24,4.226-8.461,8.474c-1.42,1.433.707,3.511,2.2,2.2q5.087-4.5,10.174-8.99a116.423,116.423,0,0,0-7.712,10.917c-.962,1.552,1.171,3.053,2.449,1.891q2.028-1.839,4.056-3.682c-1.1,1.475-2.185,2.962-3.23,4.479-1.075,1.562,1.242,3.166,2.54,1.959q3.088-2.87,6.17-5.737c-1.891,2.491-3.721,5.031-5.453,7.632-1.036,1.555,1.226,3.143,2.511,1.936q1.7-1.592,3.4-3.191c-.148.316-.3.632-.432.962a17.068,17.068,0,0,1-1.213,2.985q-1.07,1.675-2.136,3.35c-.887,1.391,1.259,3.124,2.327,1.794,2.291-2.843,4.66-5.624,7.067-8.374a9.68,9.68,0,0,1-1.378-2.423c-3.569-1.552-3.9-8.751-3.2-11.862.523-2.32,2.92-2.591,4.476-1.575a4.446,4.446,0,0,1,1.417-.329,3.028,3.028,0,0,1,2.491-.513c.658.136,1.32.265,1.981.394,3.566-3.982,7.264-7.851,11.052-11.627a1.648,1.648,0,0,0,.855-.413q11.743-10.484,23.95-20.462-3.364,3.383-6.657,6.844a1.436,1.436,0,0,0-1.5.345q-13.572,12.73-27.187,25.415,3.8.731,7.69,1.291c1.481-1.475,2.956-2.953,4.466-4.4q-1.941,2.236-3.879,4.485,1.931.271,3.879.494,2.314-2.7,4.637-5.392a1.633,1.633,0,0,0,2.407.155c.616-.542,1.233-1.081,1.846-1.623-2.394,2.32-4.744,4.682-7.073,7.064.278.029.555.048.833.074a2.76,2.76,0,0,1,2.446-1.394c2.043-.039,4.082-.068,6.121-.1q2.865-3.049,5.737-6.1a1.4,1.4,0,0,0,.407-1.152q7.866-6.762,15.731-13.518-9.206,9.618-18.416,19.236c-.478.5-.952.994-1.43,1.491,2.2-.042,4.4-.1,6.605-.19q1.1-.978,2.2-1.956c-.632.645-1.258,1.3-1.888,1.943,1.51-.065,3.02-.155,4.531-.258,7.028-7.1,14.24-14.024,21.543-20.843q6.084-5.683,12.211-11.317c1.546-1.426-.681-3.466-2.249-2.249ZM82.876,84.8q-5.223,5.286-10.449,10.568a1.553,1.553,0,0,0-.445.829q-5.271,4.182-10.258,8.709,10.4-10.247,21.152-20.11ZM63.305,120.512c6.783-8.361,14.557-15.922,22.408-23.308a2.143,2.143,0,0,0-1.981-.784,11.1,11.1,0,0,0-3.143,1.323c-3.427,1.71-6.444-3.437-3.011-5.15,2.107-1.052,4.285-2.2,6.7-2.146A8.2,8.2,0,0,1,89.963,93.1l10.842-9.3Q95.839,88.9,90.889,94.025c2.4,2.675-1.465,6.589-4.124,4.256q-2.057,2.125-4.118,4.247a1.5,1.5,0,0,0-.413.765L63.308,120.515ZM96.7,94.935q-11.9,11.07-23.8,22.149c4.34-4.621,8.9-9.039,13.543-13.353q6.06-5.5,12.12-11a1.4,1.4,0,0,0,.5-.987q4.753-4.211,9.629-8.277Q102.63,89.127,96.7,94.938Z" transform="translate(-45.499 -54.227)" fill="#eac485"/>
    <path id="Path_18491" data-name="Path 18491" d="M121.434,318.677a18.734,18.734,0,0,1-2.859-2.214c-.4.465-.81.926-1.21,1.394.313-.536.652-1.062,1.007-1.575-.123-.119-.229-.255-.345-.381a10.982,10.982,0,0,1-2.2-1.572c-2.1,2.991-3.756,6.36-3.488,10.113a1.8,1.8,0,0,0,.671,1.226c-.542.681-1.094,1.352-1.63,2.036-1.21,1.539.8,3.717,2.214,2.214q4.7-4.986,9.387-9.971a17.029,17.029,0,0,1-1.542-1.271Z" transform="translate(-89.868 -230.397)" fill="#eac485"/>
  </g>
  <g id="Group_17257" data-name="Group 17257">
    <path id="Path_18492" data-name="Path 18492" d="M130.115,263.9c-6.689-.642-13.931-1.352-21.178-2.01a3.962,3.962,0,0,0-1.417.455c.19.468.252,1.094.6,1.381,2.088,1.749,4.331,3.324,6.315,5.176.613.571.587,1.83.855,2.775-.978.129-2.12.655-2.907.329-8.032-3.34-16.418-16.535-16.089-25.092.006-.181.013-.365.029-.545.313-3.214,1.346-3.959,4.656-3.343a136.758,136.758,0,0,0,36.406,2.336c12.317-1.02,24.56-2.933,36.835-4.466.539-.068,1.058-.29,1.594-.365,2.962-.413,4.134.407,3.947,3.511a22.048,22.048,0,0,1-1.642,7.935c-6.038,12.811-15.166,22.179-29.662,24.979a63.774,63.774,0,0,1-22.814.407,20.194,20.194,0,0,1-4.576-1.584,1.536,1.536,0,0,1-.616-1.381c.236-.581.865-1.384,1.359-1.4a23.686,23.686,0,0,1,4.3.378,62.01,62.01,0,0,0,25.957-1.5c5.828-1.649,10.323-5.244,14.311-9.6.3-.332.3-.949.436-1.433a5.24,5.24,0,0,0-1.523-.307c-2.349.255-4.692.594-7.035.9a8.358,8.358,0,0,1-2.675.3c-.762-.165-1.8-.81-1.965-1.439-.148-.581.545-1.652,1.162-2.081a6.3,6.3,0,0,1,2.6-.681q4.318-.629,8.648-1.168c6.034-.755,7.754-2.269,9.193-8.161.645-2.636.165-3.22-2.672-2.859q-10.015,1.278-20.013,2.694a169.675,169.675,0,0,1-46.8-.065c-1.081-.145-2.172-.242-3.259-.349-1.433-.142-1.972.558-1.82,1.93.555,5.021,2.239,7.028,7.419,7.9,11.881,2,23.831,3,35.88,1.691a11.834,11.834,0,0,1,3.249-.2c.758.132,1.407.887,2.1,1.365a9.1,9.1,0,0,1-1.8,2.307,5.566,5.566,0,0,1-2.64.52c-4.721.268-9.448.487-14.76.752Z" transform="translate(-65.212 -162.847)" fill="#262c54"/>
    <path id="Path_18493" data-name="Path 18493" d="M43.213,134.44c.4-17.654,7.057-32.243,20.3-43.77A16.951,16.951,0,0,1,67.1,88.253a2.053,2.053,0,0,1,1.855.587,2,2,0,0,1,.165,1.9,36.6,36.6,0,0,1-3.482,3.411c-15.147,13.94-21.3,31.178-17.148,51.272,4.153,20.11,16.635,33.624,36.125,40.207,13.543,4.576,26.893,3.295,39.807-2.782a34.036,34.036,0,0,1,4.485-1.9,1.692,1.692,0,0,1,1.555,2.778,22.359,22.359,0,0,1-4.085,2.636c-32.789,16.315-72.954-2.42-81.5-38.013a53.158,53.158,0,0,1-1.168-6.434c-.29-2.527-.349-5.076-.5-7.483Z" transform="translate(-29.267 -59.73)" fill="#262c54"/>
    <path id="Path_18494" data-name="Path 18494" d="M113.908,0c16.8.529,30.823,4.308,43.273,13.05a21.037,21.037,0,0,1,3.595,3.262,1.984,1.984,0,0,1-.142,1.9,2.053,2.053,0,0,1-1.855.587,33.877,33.877,0,0,1-4.111-2.633C130.294-.878,93.075.268,69.867,18.832c-1.981,1.584-3.772,3.408-5.657,5.115a16.345,16.345,0,0,1-2.452,2.127c-.5.3-1.684.319-1.917,0-.445-.61-.849-1.849-.526-2.31a27.867,27.867,0,0,1,3.908-4.5C74.8,8.474,88.69,2.714,104.247.745,108.025.268,111.849.152,113.908,0Z" transform="translate(-40.096)" fill="#262c54"/>
    <path id="Path_18495" data-name="Path 18495" d="M184.191,347.284c-7.909-.342-13.666-1.11-19.068-3.521-1.552-.694-4.076-1.265-3.269-3.543.933-2.636,3.059-.907,4.573-.268,8.913,3.766,18.1,3.895,27.329,1.83,17.7-3.956,32.33-12.992,43.2-27.587,2.891-3.885,4.753-8.538,7.044-12.866.668-1.262,1.11-3.137,2.911-2.511,2.162.752,1.355,2.64.758,4.163a42.965,42.965,0,0,1-2.588,6.005c-14.063,24.1-35.544,36.022-60.885,38.3Z" transform="translate(-109.52 -202.308)" fill="#262c54"/>
    <path id="Path_18496" data-name="Path 18496" d="M363.188,169.126c-.368,16.535-7.5,29.81-18.739,41.246a6.633,6.633,0,0,1-2.249,1.43,1.581,1.581,0,0,1-1.459-.361,2.683,2.683,0,0,1-.5-1.891,4.514,4.514,0,0,1,1.158-1.8c1.075-1.233,2.22-2.4,3.317-3.611,11.607-12.846,15.792-27.877,13.214-44.9-.816-5.392-1.572-10.8-4.44-15.615a4.448,4.448,0,0,1-.5-2.068,1.623,1.623,0,0,1,2.4-1.255,5.473,5.473,0,0,1,1.83,1.933c1.181,2.64,2.627,5.276,3.162,8.067,1.194,6.221,1.9,12.54,2.8,18.819Z" transform="translate(-230.43 -94.878)" fill="#262c54"/>
    <path id="Path_18497" data-name="Path 18497" d="M132.145,164.675c3.195-.213,6.18.4,8.538,2.675a2.87,2.87,0,0,1,.316,2.394c-.1.368-1.194.591-1.855.636a3.044,3.044,0,0,1-1.513-.513c-4.085-2.269-7.651-1.217-10.978,1.626-1.191,1.016-2.349,2.785-4.143,1.572-1.814-1.229-1.246-3.3-.726-5,1.613-5.26,4.337-9.642,10.174-10.965,10.016-2.272,15.576,6.767,14.5,14.008-.126.852-1.21,1.562-1.849,2.336-.691-.687-1.733-1.262-1.991-2.085-.426-1.349-.226-2.878-.494-4.3a7.484,7.484,0,0,0-12.572-4.25,4.512,4.512,0,0,0-.736,1.342,8.867,8.867,0,0,0,1.72.671,6.065,6.065,0,0,0,1.617-.148Z" transform="translate(-82.138 -106.164)" fill="#262c54"/>
    <path id="Path_18498" data-name="Path 18498" d="M268.734,166.736c-.058,2.895-.716,3.443-3.485,2.82-2.252-.507-4.489-1.075-6.738-1.6a8.18,8.18,0,0,0-7.141,1.694c-.707.545-1.158,1.478-1.914,1.9-1.023.568-2.369,1.339-3.32,1.081-1.7-.461-1.555-2.239-1.329-3.688a18.42,18.42,0,0,1,4.724-10.187c3.559-3.753,8.267-5.053,12.3-3.417,4.118,1.668,7,6.431,6.9,11.4Zm-10.61-7.932a7.765,7.765,0,0,0-6.525,4.037,1.2,1.2,0,0,0-.119,1.01,1.028,1.028,0,0,0,.923.365,13.1,13.1,0,0,1,10.484,1.01c.177.094,1.223-.749,1.191-1.1a6.06,6.06,0,0,0-5.957-5.328Z" transform="translate(-165.719 -104.738)" fill="#262c54"/>
    <path id="Path_18499" data-name="Path 18499" d="M185.622,50.86c-5.205-2.062-10.262-2.391-15.389-2.246-8.79.248-17.351,1.588-25.438,5.253a4.843,4.843,0,0,1-2.033.668,2.36,2.36,0,0,1-1.736-.949,2,2,0,0,1,.223-1.9,20.537,20.537,0,0,1,5.124-2.985c11.023-3.572,22.288-5.257,33.86-3.5a25.821,25.821,0,0,1,6.231,1.846c.732.316,1.046,1.607,1.552,2.456l-2.4,1.346Z" transform="translate(-95.423 -30.143)" fill="#262c54"/>
    <path id="Path_18500" data-name="Path 18500" d="M418.291,120.124c-.113.8-.006,1.488-.3,1.843a4.269,4.269,0,0,1-1.968,1.491c-.394.1-1.149-.684-1.53-1.22a4.062,4.062,0,0,1-.339-1.575c-1.665-9.377-4.389-18.342-10.126-26.141-.323-.436-.81-.9-.833-1.378a18.741,18.741,0,0,1,.274-2.924c.958.242,2.152.213,2.817.791a15.388,15.388,0,0,1,2.649,3.437C414,102.385,416.658,111.192,418.291,120.124Z" transform="translate(-273.083 -61.107)" fill="#262c54"/>
    <path id="Path_18501" data-name="Path 18501" d="M0,172.305c.736-4.627,1.455-9.258,2.227-13.879A12.21,12.21,0,0,1,3,155.835c.552-1.346,1.223-2.953,3.011-2.417,1.965.591,1.3,2.2.845,3.614a56.318,56.318,0,0,0-2.4,17.648c.01,1.591.187,3.421-1.891,3.992-1.359.371-2.107-1.058-2.236-4.153-.029-.723,0-1.446,0-2.168-.11-.016-.219-.029-.326-.045Z" transform="translate(0 -103.84)" fill="#262c54"/>
    <path id="Path_18502" data-name="Path 18502" d="M92.029,397.373c-6.683-1.894-11.72-4.947-15.583-9.794a4.645,4.645,0,0,1-1.052-1.865,2.359,2.359,0,0,1,.445-1.894,2.266,2.266,0,0,1,1.926-.287,4.029,4.029,0,0,1,1.636,1.359,26.006,26.006,0,0,0,12.507,8.3c.171.055.345.113.52.165,1.3.4,2.649,1.12,1.962,2.6-.387.833-1.875,1.152-2.359,1.417Z" transform="translate(-51.04 -259.706)" fill="#262c54"/>
    <path id="Path_18503" data-name="Path 18503" d="M316.221,71.77a16.807,16.807,0,0,1,2.027.687A32.688,32.688,0,0,1,330.4,82.309a4.416,4.416,0,0,1,1.023,1.875,2.339,2.339,0,0,1-.616,1.881c-.432.332-1.3.116-1.978.1a.724.724,0,0,1-.455-.278A46,46,0,0,0,315.44,75.2c-.484-.278-.529-1.568-.5-2.378.013-.339.758-.645,1.275-1.049Z" transform="translate(-213.308 -48.61)" fill="#262c54"/>
    <path id="Path_18504" data-name="Path 18504" d="M45.046,341.877a8.041,8.041,0,0,1-1.83,1.178,1.645,1.645,0,0,1-1.442-.516c-2.172-3.037-4.324-6.092-6.3-9.258-.261-.419.323-1.659.852-2.178a1.931,1.931,0,0,1,1.9.161c2.3,3.172,4.46,6.444,6.654,9.694A3.753,3.753,0,0,1,45.046,341.877Z" transform="translate(-23.984 -224.137)" fill="#262c54"/>
  </g>
</svg>
