<svg id="_49" data-name="49" xmlns="http://www.w3.org/2000/svg" width="144.15" height="136.678" viewBox="0 0 144.15 136.678">
  <g id="Group_17259" data-name="Group 17259" transform="translate(12.742 12.504)">
    <path id="Path_18505" data-name="Path 18505" d="M285.7,287.9c.058-.92-1.249-1.749-1.956-.9-.952,1.149-1.926,2.278-2.907,3.4.258-.384.5-.778.768-1.152.623-.874-.784-1.965-1.491-1.152q-1.162,1.336-2.327,2.672c.245-.419.487-.839.745-1.246.558-.871-.784-1.955-1.459-1.126-1.165,1.433-2.336,2.859-3.572,4.234.481-.739.978-1.468,1.507-2.178.745-1-.939-2.31-1.739-1.342-.165.2-.345.378-.52.565a.468.468,0,0,0-.523.013,10.662,10.662,0,0,0-3.727,3.853,1.183,1.183,0,0,0,.568,1.61c-.4.7-.768,1.426-1.107,2.162a1.322,1.322,0,0,0,.2,1.546,1.283,1.283,0,0,0,1.507.216l-1.255,1.894c-.813,1.229,1.217,2.43,1.981,1.158.281-.416.558-.836.839-1.252a28.59,28.59,0,0,1,1.9-2.336c-.161.4-.313.81-.432,1.22-.394,1.333,1.41,1.952,2.139.9a15.032,15.032,0,0,1,1.052-1.317c-.2.4-.4.8-.565,1.207-.52,1.294,1.494,2.02,2.181.92a46.475,46.475,0,0,1,3.459-4.6.676.676,0,0,0,.971.026,42.767,42.767,0,0,0,4.879-7.361,1.146,1.146,0,0,0-1.126-1.633Z" transform="translate(-194.131 -206.652)" fill="#ba8b54"/>
    <path id="Path_18506" data-name="Path 18506" d="M137.833,295.618c.265-.442.536-.884.8-1.329.642-1.091-.894-2.34-1.781-1.375-.4.432-.82.842-1.239,1.255.452-.91.894-1.823,1.317-2.749.442-.968-.729-2.091-1.568-1.21-1.213,1.275-2.472,2.533-3.785,3.727.252-.607.507-1.213.774-1.81a1.051,1.051,0,0,0-1.642-1.268c-.5.423-1.007.862-1.513,1.3a15.507,15.507,0,0,1,.829-1.617.981.981,0,0,0-1.533-1.184c-.574.594-1.181,1.146-1.794,1.688a6.665,6.665,0,0,1,.319-.978c.426-.987-.72-2.162-1.6-1.3.039-.061.077-.126.116-.187a.873.873,0,0,0-1.184-1.184,5.87,5.87,0,0,0-2.853,4.492,1.263,1.263,0,0,0,1.826,1.4c.023-.01.042-.026.061-.035a10.518,10.518,0,0,0-.439,1.229,1.343,1.343,0,0,0,1.571,1.613c-.378,1.239,1.449,2.388,2.307,1.31.252-.319.539-.616.816-.916-.194.4-.39.8-.565,1.207a1.3,1.3,0,0,0,2.026,1.565q1.075-.958,2.127-1.933a16.773,16.773,0,0,0-1.117,2.378,1.159,1.159,0,0,0,1.923,1.12c.323-.387.674-.752,1.036-1.113-.058.21-.126.419-.168.632a1.287,1.287,0,0,0,1.171,1.6,12.938,12.938,0,0,0-.581,2.256.921.921,0,0,0,1.675.707c1.652-2.285,2.64-4.989,3.924-7.493a1.226,1.226,0,0,0-1.258-1.794Z" transform="translate(-95.026 -207.09)" fill="#ba8b54"/>
    <path id="Path_18507" data-name="Path 18507" d="M155.477,181.842a2.647,2.647,0,0,0-.255-1.936,3.365,3.365,0,0,0-1.93-1.481c-.055-.016-.113-.019-.168-.032a3.406,3.406,0,0,0-.72-.358,3.716,3.716,0,0,0-3.769.936,3.338,3.338,0,0,0-1.149.368,4.028,4.028,0,0,0-1.536,1.507,3.831,3.831,0,0,0,.055,4.037,4.719,4.719,0,0,0,3.537,2.043,4.257,4.257,0,0,0,2.165-.4,2.951,2.951,0,0,0,1.546.01,3.508,3.508,0,0,0,2.414-3.311,3.437,3.437,0,0,0-.194-1.371Z" transform="translate(-111.231 -132.966)" fill="#75757c"/>
    <path id="Path_18508" data-name="Path 18508" d="M204.212,312.455q-2.338,2.425-4.679,4.847c1.636-2.233,3.272-4.46,4.889-6.709.781-1.084-.9-2.288-1.81-1.4l-2.717,2.662q2.459-2.759,4.95-5.492c1.1-1.207-.642-2.975-1.8-1.8l-5.873,5.95c1.668-2.252,3.327-4.508,4.953-6.789.865-1.213-1.016-2.582-2.03-1.565q-2.512,2.522-5.037,5.027c2.4-2.862,4.786-5.731,7.09-8.667.923-1.178-.613-2.849-1.694-1.694q-2.222,2.381-4.482,4.724c.936-1.207,1.875-2.414,2.8-3.63.72-.945-.82-2.068-1.623-1.252-3.017,3.066-6.209,5.976-9.332,8.939q2.585-3.461,5.176-6.912c.839-1.123-1.016-2.543-1.943-1.5-.239.271-.491.526-.733.794a.955.955,0,0,0-1.481-1.175c-1.63,1.407-3.288,2.778-4.953,4.143q1.35-1.96,2.7-3.921c.839-1.213-.987-2.517-1.994-1.539-2.7,2.62-5.2,5.392-7.664,8.232a.642.642,0,0,0,.907.907c.223-.177.442-.358.665-.539q-1,1.447-1.965,2.907c-.823,1.246.958,2.456,1.985,1.533q.658-.59,1.31-1.181c-1.22,1.433-2.446,2.856-3.653,4.3a1.2,1.2,0,0,0,1.7,1.7c1.023-.852,2.023-1.73,3.02-2.607-1.333,1.781-2.672,3.556-4,5.341-.855,1.149.968,2.456,1.939,1.5q3.427-3.379,6.857-6.754-2.614,3.291-5.231,6.583c-.9,1.133.571,2.727,1.633,1.633.213-.219.426-.442.642-.661-1.455,1.733-2.907,3.469-4.327,5.231-1,1.236.613,2.966,1.784,1.784q5.426-5.455,10.91-10.846c-1.914,2.678-3.827,5.354-5.776,8-.645.878.329,1.852,1.223,1.746-.7.913-1.41,1.82-2.1,2.736-.842,1.123.952,2.411,1.9,1.468q4.356-4.308,8.709-8.613c-2.052,2.891-4.218,5.7-6.283,8.58-.778,1.084.923,2.343,1.826,1.41.032-.036.068-.071.1-.1a1.263,1.263,0,0,0,2.085,1.291q2.919-2.711,5.805-5.45c-.571,1.039-1.155,2.072-1.7,3.13a.933.933,0,0,0,1.61.939c2.323-3.362,4.482-6.8,6.6-10.294a1.278,1.278,0,0,0-2-1.542c-.113.107-.226.21-.339.316,1.046-1.346,2.081-2.7,3.127-4.047.91-1.171-.587-2.814-1.681-1.681Z" transform="translate(-131.847 -212.417)" fill="#eb8486"/>
    <g id="Group_17258" data-name="Group 17258">
      <path id="Path_18509" data-name="Path 18509" d="M148.283,360.7a1.425,1.425,0,0,0,2.014,2.014q4.3-3.785,8.6-7.57c-.307-1.452-.668-3.075-.975-4.773Q153.1,355.535,148.283,360.7Z" transform="translate(-112.901 -249.813)" fill="#eac485"/>
      <path id="Path_18510" data-name="Path 18510" d="M120.607,330.55q-5.368,5.547-10.445,11.365a1.537,1.537,0,0,0,2.172,2.172q1.883-1.747,3.763-3.5c-.032.045-.068.087-.1.132-.984,1.307,1.071,2.691,2.178,1.681.587-.536,1.178-1.071,1.765-1.607-.671.752-1.359,1.494-2.023,2.252a1.521,1.521,0,0,0,2.149,2.149q5.334-4.821,10.684-9.629a46.243,46.243,0,0,1-10.136-5.015Z" transform="translate(-87.081 -236.388)" fill="#eac485"/>
      <path id="Path_18511" data-name="Path 18511" d="M103.241,305.315a18.713,18.713,0,0,1-6.8-9.048,2.791,2.791,0,0,1-.1-1.217c-3.34,3.792-6.512,7.732-9.548,11.769-.958,1.275,1.01,2.491,2.072,1.6,2.262-1.9,4.547-3.782,6.815-5.679-1.875,2.12-3.727,4.26-5.528,6.441-1.094,1.326.678,3.2,1.923,1.923.971-1,1.956-1.981,2.936-2.969-.874.984-1.759,1.962-2.623,2.956a1.6,1.6,0,0,0,2.256,2.256q4.313-4,8.6-8.032Z" transform="translate(-71.361 -212.344)" fill="#eac485"/>
      <path id="Path_18512" data-name="Path 18512" d="M41.756,99.156a587.491,587.491,0,0,1,49.52-45q-2.643,2.643-5.282,5.292-7.536,6.118-14.711,12.662a11.971,11.971,0,0,1,3.592-.858,2.781,2.781,0,0,1,1.381.219c3.656-1.82,8.383-.468,12.175,2.085L98.2,65.732q8.146-6.525,16.289-13.046c.991-.794.077-2.365-.978-2.385,2.065-1.668,4.137-3.33,6.2-5.008.92-.749.1-2.2-.874-2.278a8.482,8.482,0,0,0,.258-1.191,1.054,1.054,0,0,0-1.526-1.171c-.207.106-.413.219-.62.326a1.2,1.2,0,0,0-1.417-.2A147.383,147.383,0,0,0,97.055,52q5.474-5.508,10.962-11.007c.987-.991-.358-2.9-1.549-2.007Q91.11,50.559,76.516,63.1c3.166-3.011,6.338-6.015,9.487-9.045q6.467-6.225,13.121-12.24c.994-.9-.316-2.636-1.446-1.872A275.66,275.66,0,0,0,73.886,58.22q6.476-6.612,13.043-13.137c1.4-1.384-.658-3.333-2.123-2.123Q73.349,52.437,62.459,62.621a146.444,146.444,0,0,1,13.479-13.03c1.3-1.1-.39-3.266-1.82-2.359A100.849,100.849,0,0,0,50.439,68.194c-.9,1.084.607,2.649,1.571,1.572,1.007-1.129,2.046-2.233,3.1-3.317A149.79,149.79,0,0,0,45.689,79.24C44.731,80.7,46.9,82.344,48.1,81.1c1.01-1.052,2.033-2.091,3.053-3.133-2.375,2.6-4.756,5.2-7.106,7.832-1.191,1.333.684,3.246,1.975,1.975,9.942-9.8,20.052-19.474,30.685-28.529-.836.784-1.678,1.559-2.507,2.349-7.638,7.257-15.147,14.657-22.379,22.32q-6.157,6.525-11.965,13.35c-1.1,1.3.671,3.146,1.9,1.9ZM115.994,43.8l.339-.174a10.582,10.582,0,0,1-1.288,1.952c-.991.755-1.985,1.5-2.969,2.262q2.009-1.975,3.917-4.04Z" transform="translate(-39.505 -38.748)" fill="#eac485"/>
      <path id="Path_18513" data-name="Path 18513" d="M64.407,178.3a21.112,21.112,0,0,1,1.968-15.8q-4.269,4.114-8.4,8.374Q53.4,175.6,49.014,180.5a1.332,1.332,0,0,0-.023,1.852c-1.155,1.162-2.317,2.32-3.462,3.488a1.283,1.283,0,0,0-.129,1.723c-.823.958-1.652,1.914-2.469,2.878a1.256,1.256,0,0,0,1.21,2.081,22.4,22.4,0,0,0,7.3-3.795c-1.549,1.594-3.1,3.182-4.644,4.786a1.294,1.294,0,0,0,1.83,1.83c4.321-3.84,8.687-7.625,13.069-11.4L46.307,199.574c-1.229,1.249.594,3,1.9,1.9q2.067-1.743,4.13-3.488c-1.617,1.791-3.214,3.6-4.773,5.441-1.026,1.213.636,2.949,1.772,1.772q9.724-10.112,19.587-20.107A14.57,14.57,0,0,1,64.4,178.3Zm-13.159,7.341c-.855.684-1.73,1.355-2.633,1.975,1.02-1.178,2.056-2.34,3.085-3.511a1.483,1.483,0,0,0,.865.471q-.658.532-1.32,1.062Z" transform="translate(-41.61 -122.566)" fill="#eac485"/>
      <path id="Path_18514" data-name="Path 18514" d="M89.654,233.31a174.41,174.41,0,0,0-15.47,16.648,1.294,1.294,0,0,0,1.233,2.133c-.742.8-1.475,1.61-2.22,2.4a1.436,1.436,0,0,0,2.03,2.03c2-1.7,3.985-3.417,5.97-5.134q-4,4.347-7.819,8.855c-1.236,1.468.739,3.533,2.136,2.136q12.938-12.909,26.519-25.147a18.641,18.641,0,0,1-12.382-3.924Z" transform="translate(-62.04 -170.527)" fill="#eac485"/>
      <path id="Path_18515" data-name="Path 18515" d="M211.646,97.651c-7.054,5.173-14.066,10.42-21.143,15.567q2.41-2.711,4.821-5.415c4.779-5.337,9.568-10.665,14.311-16.031a1.432,1.432,0,0,0-2.023-2.023q-4.792,4.022-9.6,8.009,5.344-5.174,10.752-10.278c1.146-1.075-.371-3.133-1.707-2.21q-5.165,3.562-10.3,7.173c3.533-2.907,7.09-5.789,10.691-8.609.965-.755-.142-2.369-1.171-2,.313-.319.642-.626.945-.955a.607.607,0,0,0-.732-.949,101.8,101.8,0,0,0-10.946,8.032q-2.643,2.1-5.286,4.192a1.257,1.257,0,0,0-1.452.029c-.552.384-1.094.778-1.642,1.168a102.2,102.2,0,0,0,12.717-12.791c.933-1.155-.329-3.353-1.755-2.275-5.731,4.347-11.4,8.777-17.067,13.211,1.91-1.92,3.811-3.846,5.686-5.8a1.191,1.191,0,0,0-.51-1.988q6.346-5.639,12.691-11.275a11.466,11.466,0,0,0-1.155-1.249,4.934,4.934,0,0,0-.432-.278,2.638,2.638,0,0,1-.394-.268q-7.231,5.286-14.489,10.542c3.895-3.269,7.809-6.512,11.781-9.694,1.262-1.013-.52-2.749-1.772-1.772Q179.506,79.866,167,90.6c-.729.587-1.465,1.171-2.194,1.762q1.4-1.21,2.791-2.423a1.215,1.215,0,0,0,.129-1.7q2.788-2.493,5.579-4.982,9.037-8.074,18.071-16.157c1.329-1.191-.6-3.046-1.939-1.939q-11.975,9.894-24.015,19.707c2.323-2,4.637-4,6.973-5.989q7.962-6.762,16.031-13.4c1.262-1.042-.432-3.275-1.765-2.288l-8.832,6.547a.988.988,0,0,0-1,.142c-.729.52-1.449,1.055-2.175,1.578q4.511-4.09,9.022-8.174c1.43-1.291-.632-3.217-2.075-2.075l-3.188,2.527a1.154,1.154,0,0,0-1.055.207l-.3.232h0a.353.353,0,0,0-.032.026q-7.711,5.91-15.083,12.227-7.851,6.36-15.7,12.724a17.84,17.84,0,0,1,4.318,4.527q1.283-.954,2.569-1.91c-.81.707-1.613,1.426-2.42,2.136.029.045.065.094.09.139,4.992,8.487,2.133,20.684-7.309,24.815a19.23,19.23,0,0,1-6.283,1.52q-7.12,6.539-13.6,13.672a3.156,3.156,0,0,1,1.61-.065c4.566,1.029,9.426,1.3,13.8,2.775q3.582-3.3,7.215-6.544,9.042-8.054,18.371-15.783a1.177,1.177,0,0,0,.413-.074l-4.621,4.318c-6.631,6.2-13.3,12.362-19.826,18.671a17.444,17.444,0,0,1,3.695,2.094,8.54,8.54,0,0,1,3.227-1.578q3.654-3.432,7.432-6.744,1.031-.9,2.065-1.784,4.4-3.78,8.906-7.432c3.937-3.2,7.909-6.363,11.885-9.516.868-.687.29-1.975-.565-2.333q7.841-5.576,15.683-11.152-7.89,7.522-15.763,15.07a1.136,1.136,0,0,0-1.062.2c-.1.077-.2.158-.3.236h0l-.132.106c-9.6,7.415-18.845,15.266-27.932,23.3,3.711-.9,8.216-.026,11.6.41.361.045.707.1,1.042.161q5.765-6.142,11.523-12.288,5.363-5.716,10.723-11.433a1.467,1.467,0,0,0,.432-1.075q5.77-4.787,11.559-9.548-.726.8-1.449,1.6c-4.815,5.3-9.719,10.529-14.373,15.97a1.642,1.642,0,0,0-.21,1.694q-8.64,7.643-17.28,15.283a9.624,9.624,0,0,1,4.834,2.562,2.555,2.555,0,0,1,1.42-2.307c.62-.313,1.242-.587,1.868-.842.494-.539.981-1.084,1.478-1.617a1.349,1.349,0,0,0,.536-.252q5.828-4.376,11.652-8.751l-6.2,5.463c-1.578,1.391-3.175,2.775-4.756,4.176,1.542-.487,3.111-.9,4.715-1.342,2.536-.7,4.969-1.662,7.474-2.436q1.312-1.263,2.636-2.52,5.6-4.066,11.207-8.122-5.024,4.918-10.058,9.823A3.023,3.023,0,0,1,190.794,136a3.108,3.108,0,0,1-.329,1.191c-1.975,3.972-3.5,7.828-7.357,10.339a28.937,28.937,0,0,1-7.064,3.182q-3.287,3.2-6.567,6.4a17.627,17.627,0,0,1-1.1,4.679,1.645,1.645,0,0,0,1.026-.355q3.209-2.493,6.415-5-4.26,3.771-8.519,7.538a13.954,13.954,0,0,1-1.552,2.1c-.055.061-.113.106-.171.161.1,1.058,1.294,2.075,2.32,1.307q7.382-5.533,14.741-11.1c-2.882,2.591-5.6,5.353-8.477,7.948-1.307,1.178.629,3.1,1.93,1.93,2.885-2.6,5.931-5.024,8.809-7.638l8.616-7.832c5.744-5.221,11.472-10.462,17.245-15.65,1.223-1.1-.432-3.327-1.784-2.314q-7.019,5.261-14.047,10.516,7.265-6.515,14.521-13.033c1.323-1.191-.578-2.949-1.91-1.91Q197.5,136.3,187.338,144q11.723-11.452,23.437-22.914c1.381-1.349-.649-3.272-2.085-2.085q-8.461,7-16.915,14,5.692-5.683,11.378-11.372,4.874-4.879,9.765-9.739c1.049-1.042-.365-3.043-1.633-2.117q-3.48,2.541-6.964,5.076c.639-.571,1.271-1.146,1.91-1.717a1.446,1.446,0,0,0-.094-2.281c1.962-1.736,3.921-3.482,5.886-5.215,1.223-1.081-.429-3.291-1.768-2.294l-11.262,8.38q7.1-6,14.373-11.81c1.255-1-.419-3.2-1.73-2.243Zm-56.761,16.641a1.207,1.207,0,0,0-1.736-.378c-.09.071-.181.145-.271.213h0l-.084.068q-2.759,2.115-5.45,4.321,6.835-6.346,13.908-12.43-1.864,1.791-3.73,3.575a1.5,1.5,0,0,0,.132,2.388c-.923.745-1.849,1.484-2.769,2.239Zm9-3.049q-2.885,2.377-5.741,4.786,3.011-2.648,6.076-5.237C164.1,110.939,163.994,111.091,163.882,111.243Zm-3.559,11.649c-.032.029-.068.055-.1.084q5.048-4.724,10.1-9.442a1.474,1.474,0,0,0,1,.419Q165.766,118.353,160.322,122.892Zm8.035-17.609c.813-.642,1.623-1.291,2.44-1.93-.752.733-1.488,1.484-2.207,2.246A1.854,1.854,0,0,0,168.357,105.282Zm-.165-9.452q-2.73,2.372-5.457,4.747-1.413.91-2.807,1.849,2.575-2.575,5.15-5.147l9.742-7.212-6.625,5.76Z" transform="translate(-96.463 -53.726)" fill="#eac485"/>
      <path id="Path_18516" data-name="Path 18516" d="M267.706,341.792a2.821,2.821,0,0,1-1.846-.139,31.573,31.573,0,0,1,.106,3.169c1.513-1.265,3.037-2.52,4.553-3.782-.942.268-1.885.513-2.817.752Z" transform="translate(-192.817 -243.493)" fill="#eac485"/>
    </g>
  </g>
  <g id="Group_17260" data-name="Group 17260">
    <path id="Path_18517" data-name="Path 18517" d="M96.583,271.44a10.678,10.678,0,0,1-3.959-1.146c-3.6-2.375-7.761-2.8-11.688-4.079-20.665-6.722-34.389-20.449-40.607-41.369a52.962,52.962,0,0,1-2.372-17.228,13.038,13.038,0,0,1,.349-3.227c.177-.581,1.033-1.449,1.413-1.371.745.155,1.843.787,1.965,1.388a35.44,35.44,0,0,1,.4,5.412c1,22.33,11.843,38.449,31.156,49.136a54.367,54.367,0,0,0,8.08,3.246c1.178.419,2.259.213,1.681-1.517a15.586,15.586,0,0,1-.965-2.543c-.636-4.618-3.03-7.241-7.393-9.432-6.241-3.137-10.578-8.768-13.9-14.983a13.61,13.61,0,0,1-1.2-3.03c-.784-3.1,1.139-4.9,4.272-4.1,4.74,1.2,9.442,2.653,14.247,3.517a141.925,141.925,0,0,0,32.072,1.868c.726-.036,1.452-.158,2.178-.145,2.995.052,3.711,1.075,1.868,3.4-1.52,1.923-.4,3.375-.1,5.063.884,5.044.532,6.764,6.844,2.636,3.675-2.4,7.012-5.228,9.035-9.264a7.182,7.182,0,0,0,.355-2.023,6.467,6.467,0,0,0-2-.126c-1.926.513-3.792,1.275-5.728,1.743-1.226.294-2.836.407-3.046-1.268-.087-.694.949-1.914,1.752-2.262,3.327-1.459,6.722-2.778,10.158-3.95,3.114-1.058,4.585.2,4.143,3.43a20.218,20.218,0,0,1-5.7,11.543,36.277,36.277,0,0,1-11.965,8.429,4.74,4.74,0,0,0-3.146,4.008c-.316,1.965-.949,3.876-1.362,5.828a10.563,10.563,0,0,0-.042,2.049,5.723,5.723,0,0,0,1.994-.1,82.911,82.911,0,0,0,7.854-3.782c14.073-8.18,24.315-19.484,28.681-35.528.4-1.468.584-3.866,2.743-3.33,2.481.616,1.488,2.991,1.081,4.624a52.066,52.066,0,0,1-9.171,19.045,67.108,67.108,0,0,1-36.693,25.044,14.673,14.673,0,0,0-3.785,1.988,14.6,14.6,0,0,1-9.487,2.407Zm14.592-24.554c-.407-1.675-1.187-5-2.023-8.306a2.677,2.677,0,0,0-2.682-2.236c-5.786-.248-11.568-.607-17.354-.694a3.959,3.959,0,0,0-2.953,1.707c-4.037,7.325-1.965,20.439,4.017,26.451,5.14,5.166,11.965,4.824,16.473-.929C109.913,258.719,111.049,253.831,111.175,246.886ZM81.717,236.215c-.578-.468-1.242-1.423-2.088-1.623-2.63-.623-5.324-.965-8-1.4-2.1-.342-4.2-.661-6.305-.991-.245,2.895,2.159,4.321,3.595,6.225a29.9,29.9,0,0,0,4.566,4.6,22.836,22.836,0,0,0,4.476,2.988,2.25,2.25,0,0,0,2.01-.858c.694-2.791,1.133-5.644,1.743-8.945Z" transform="translate(-25.691 -137.504)" fill="#262c54"/>
    <path id="Path_18518" data-name="Path 18518" d="M148.354,54.764c-1.091.345-2.091,1.023-2.82.8a7.563,7.563,0,0,1-2.523-1.975A56.9,56.9,0,0,0,110.3,38.713c-8.771-1.058-17.354,1.081-25.547,4.408-2.185.887-4.276,2.007-6.415,3.011C66.391,51.74,58.291,60.924,53.286,73a30.817,30.817,0,0,1-2.117,4.4,2,2,0,0,1-1.849.532,2.058,2.058,0,0,1-1.113-1.594,12.306,12.306,0,0,1,.865-3.659C54.083,60.1,62.021,50.13,74.219,43.667c9.29-4.921,18.91-8.477,29.475-8.955a44.647,44.647,0,0,1,10.3.419,64.6,64.6,0,0,1,29.471,13.392,34.918,34.918,0,0,1,3.837,3.856A10.1,10.1,0,0,1,148.354,54.764Z" transform="translate(-32.656 -23.441)" fill="#262c54"/>
    <path id="Path_18519" data-name="Path 18519" d="M117.673,129.32c10.391.016,18.339,5.8,21.039,14.376a20.722,20.722,0,1,1-39.071-1.184,13.142,13.142,0,0,1,2.1-3.785c.578-.668,1.784-.787,2.711-1.152a7.994,7.994,0,0,1,.613,2.8,14.187,14.187,0,0,1-1.365,2.943,16.644,16.644,0,0,0,23.773,20.965,16.842,16.842,0,0,0,7.793-17.8,16.667,16.667,0,0,0-14.934-13.1c-2.3-.168-4.653.523-6.983.813-1.262.155-2.73.484-3.082-1.255-.326-1.62,1.029-2.262,2.246-2.578,2.094-.545,4.25-.858,5.163-1.036Z" transform="translate(-66.529 -87.59)" fill="#262c54"/>
    <path id="Path_18520" data-name="Path 18520" d="M44,14.91c.745.552,1.681.9,1.743,1.368a2.957,2.957,0,0,1-.691,2.281,11.6,11.6,0,0,1-2.888,1.455C20.99,30.093,9.276,47.34,4.739,69.848c-.816,4.047-.584,8.306-.826,12.466A10.98,10.98,0,0,1,3.758,85a2.132,2.132,0,0,1-1.471,1.249A2.09,2.09,0,0,1,.573,85.3,7.293,7.293,0,0,1,.031,82.12C.393,76.7.2,71.129,1.422,65.9,6.295,45.1,17.592,28.8,36.5,18.253,38.854,16.94,41.439,16.039,44,14.91Z" transform="translate(-0.018 -10.099)" fill="#262c54"/>
    <path id="Path_18521" data-name="Path 18521" d="M383.756,101.571c-.616,4.86-1.187,9.726-1.878,14.573a9.675,9.675,0,0,1-1.184,3.585,2.849,2.849,0,0,1-2.2.9c-.378-.006-1.062-1.046-1.046-1.6a27.535,27.535,0,0,1,.649-4.292,68.662,68.662,0,0,0-7.367-46.977,49.3,49.3,0,0,0-14.14-16.406c-1.346-1-3.611-1.707-2.556-4.121.6-1.375,2.317-.987,5.179,1.068a50.555,50.555,0,0,1,13.5,14.837,75.555,75.555,0,0,1,11.049,38.432Z" transform="translate(-239.609 -31.441)" fill="#262c54"/>
    <path id="Path_18522" data-name="Path 18522" d="M145.686,167.13a7.475,7.475,0,0,1,7.27,7.338,8.559,8.559,0,0,1-8.464,8.793,7.5,7.5,0,0,1-7.319-7.338A8.637,8.637,0,0,1,145.686,167.13Zm3.078,7.593a3.216,3.216,0,0,0-3.5-3.282,4.208,4.208,0,0,0-3.9,4.353,3.514,3.514,0,0,0,3.517,3.372,4.4,4.4,0,0,0,3.885-4.443Z" transform="translate(-92.913 -113.198)" fill="#262c54"/>
    <path id="Path_18523" data-name="Path 18523" d="M69.784,366.435c-.671.565-1.133,1.236-1.72,1.371a3.259,3.259,0,0,1-2.043-.394c-9.6-5.044-18.329-11.143-24.463-20.355-2.156-3.237-2.514-5.111-.894-5.592,2.778-.826,3.217,1.855,4.214,3.34,5,7.441,11.9,12.666,19.5,17.119,1.41.826,2.846,1.623,4.166,2.575.52.378.755,1.149,1.239,1.936Z" transform="translate(-26.866 -231.173)" fill="#262c54"/>
    <path id="Path_18524" data-name="Path 18524" d="M269.621,194.484c5.092.081,8.745,1.058,11.882,3.453.571.436.636,1.536.936,2.327a11.467,11.467,0,0,1-2.778.823c-.642.029-1.31-.555-1.972-.858-5.347-2.459-10.591-2.062-15.763.555a18.067,18.067,0,0,1-3.456,1.533,2.087,2.087,0,0,1-1.83-.752,2.207,2.207,0,0,1,.2-1.962,6,6,0,0,1,2.027-1.759C262.567,195.791,266.452,194.319,269.621,194.484Z" transform="translate(-173.727 -131.717)" fill="#262c54"/>
    <path id="Path_18525" data-name="Path 18525" d="M373.129,336.728c-.616-1.058-1.452-1.865-1.43-2.646.023-.726.933-1.449,1.5-2.127,3.475-4.124,6.928-8.267,10.491-12.317.607-.691,1.846-1.484,2.543-1.3,1.536.41,1.523,1.926.9,3.114a24.544,24.544,0,0,1-2.946,4.511c-2.456,2.878-5.031,5.66-7.657,8.38a23.1,23.1,0,0,1-3.4,2.381Z" transform="translate(-251.761 -215.597)" fill="#262c54"/>
    <path id="Path_18526" data-name="Path 18526" d="M379.654,132.783c-.865.984-1.4,1.985-2.21,2.346-.381.168-1.6-.762-1.926-1.439-.687-1.452-.868-3.143-1.559-4.592-1.462-3.078-3.2-6.028-4.624-9.122-.352-.771.081-1.9.152-2.865.965.184,2.227.052,2.827.62a12.758,12.758,0,0,1,2.817,3.924c1.613,3.6,2.988,7.3,4.524,11.133Z" transform="translate(-250.067 -79.32)" fill="#262c54"/>
    <path id="Path_18527" data-name="Path 18527" d="M181.035,0a25.393,25.393,0,0,1,4.389.487,2.535,2.535,0,0,1,1.588,1.759c.023.555-.962,1.555-1.61,1.652-1.943.294-3.947.158-5.915.342-2.323.216-4.631.745-6.951.807-.81.019-1.643-.958-2.465-1.481.668-.729,1.233-1.923,2.023-2.1C175.062.791,178.108.452,181.032,0Z" transform="translate(-115.196 0)" fill="#262c54"/>
    <path id="Path_18528" data-name="Path 18528" d="M400.811,198.8c-.239,2.2.41,4.7-2,4.879-2.778.213-1.991-2.433-2.117-4.063a22.408,22.408,0,0,1,.168-4.853,2.008,2.008,0,0,1,1.446-1.294,2.042,2.042,0,0,1,1.646,1.065,34.516,34.516,0,0,1,.862,4.266Z" transform="translate(-268.646 -131.036)" fill="#262c54"/>
    <path id="Path_18529" data-name="Path 18529" d="M325.975,396.982c-.987-.639-1.781-.881-2.049-1.4s-.239-1.655.094-1.884c2.036-1.394,4.176-2.646,6.341-3.837a1.457,1.457,0,0,1,1.352.436c.242.758.552,2.049.184,2.362-1.849,1.568-3.9,2.891-5.925,4.327Z" transform="translate(-219.284 -264.027)" fill="#262c54"/>
  </g>
</svg>
