<svg id="_50" data-name="50" xmlns="http://www.w3.org/2000/svg" width="140.095" height="144.242" viewBox="0 0 140.095 144.242">
  <g id="Group_17264" data-name="Group 17264" transform="translate(14.699 16.189)">
    <path id="Path_18551" data-name="Path 18551" d="M267.45,230.184a1.932,1.932,0,0,0-2.256-.29,10.669,10.669,0,0,1-2.078.752,10.048,10.048,0,0,1-2.194.326,23.313,23.313,0,0,1-4.724-.394,1.788,1.788,0,0,0-.826.058,2.925,2.925,0,0,0-.584-.3,1.984,1.984,0,0,0-1.981.523,3.51,3.51,0,0,0-.691,1.168,2.012,2.012,0,0,0,.529,2,10.048,10.048,0,0,0,7.9,2.627,10.567,10.567,0,0,0,7.2-4.218,1.868,1.868,0,0,0-.29-2.256Z" transform="translate(-185.399 -171.741)" fill="#75757c"/>
    <path id="Path_18552" data-name="Path 18552" d="M149.72,237.267a1.78,1.78,0,0,0-1.655-1.113,31.62,31.62,0,0,1-4.389.139c-.716-.019-1.433-.055-2.146-.113a10.2,10.2,0,0,0-2.469-.061,1.56,1.56,0,0,0-1.129,1.31,1.69,1.69,0,0,0,.126.865,2.663,2.663,0,0,0,1.72,3.059,8.579,8.579,0,0,0,4.776.174,10.313,10.313,0,0,0,2.068-.62,6.859,6.859,0,0,0,2.246-1.294c.161-.123.319-.245.478-.371a1.793,1.793,0,0,0,.374-1.978Z" transform="translate(-108.115 -176.074)" fill="#75757c"/>
    <path id="Path_18553" data-name="Path 18553" d="M212.039,314.461c-.594-1.242-.261-3.546-2.317-3.275-1.907-3.546-11.336,3.63-7.18,6.357.561,6.815,11.026,2.423,9.5-3.078Z" transform="translate(-151.175 -226.305)" fill="#ba8b54"/>
    <g id="Group_17263" data-name="Group 17263">
      <path id="Path_18554" data-name="Path 18554" d="M303.754,172.588c-3.14,2.3-6.244,4.656-9.281,7.093q-3.809,2.657-7.574,5.382c.348-.094.7-.187,1.042-.29.6-.184,1.4-.478,1.575-.558a2.991,2.991,0,0,1,3.3.413c.2-.145.4-.294.6-.436,1.191-.842,2.372-1.7,3.55-2.565q5.518-3.824,11.039-7.645a1.433,1.433,0,0,0,.636-1.042c.374-.284.755-.561,1.129-.845,1.339-1.013,2.656-2.049,3.972-3.091.616-.487,1.229-.981,1.833-1.484a6.613,6.613,0,0,0,.487-.452,19.379,19.379,0,0,0,2.581-2.34.525.525,0,0,0-.507-.871,30.817,30.817,0,0,0-7.186,3.84c-2.44,1.568-4.86,3.178-7.2,4.889Z" transform="translate(-209.021 -127.153)" fill="#eac485"/>
      <path id="Path_18555" data-name="Path 18555" d="M167.253,333.8a5.764,5.764,0,0,1-3.637-4.453c-2.594,2.21-5.15,4.463-7.635,6.8-.29.271-.571.555-.858.826a103.374,103.374,0,0,0-7.632,7.161.459.459,0,0,0-.119.471c-.239.242-.481.478-.716.72-.758.774.378,1.884,1.181,1.181.1-.09.207-.177.307-.265a1.379,1.379,0,0,0,2.091.716q8.635-6.6,17.419-13.021c-.132-.045-.268-.081-.4-.136Z" transform="translate(-113.863 -239.261)" fill="#eac485"/>
      <path id="Path_18556" data-name="Path 18556" d="M156.289,103.809a10.291,10.291,0,0,0,1.814-2.227.652.652,0,0,0-.568-.955l.184-.194a1.117,1.117,0,0,0-1.346-1.746,21.006,21.006,0,0,0-3.359,1.772c-1.058.7-2.1,1.417-3.153,2.13-1.968,1.336-3.917,2.7-5.87,4.056q-5.862,4.08-11.694,8.2-3.267,2.309-6.483,4.669a1.851,1.851,0,0,0-.674-.929q10.329-7.27,20.649-14.553a1.5,1.5,0,0,0,.41-2.062c.791-.5,1.578-1,2.356-1.513a24.566,24.566,0,0,0,5-3.872.534.534,0,0,0-.516-.884,22.757,22.757,0,0,0-5.876,2.385c-1.959.991-3.879,2.081-5.773,3.188q-5.5,3.214-10.884,6.6l-.581.368a2.6,2.6,0,0,1-.862,4.134,25.553,25.553,0,0,1-8.971,2.359c-3.621,2.533-7.148,5.2-10.513,8.083a.627.627,0,0,0-.013.952q-4.506,3.083-8.968,6.228,3.838-3.238,7.625-6.534c3.63-2.985,7.338-5.879,11.088-8.716a6.872,6.872,0,0,1-3.921-1.107l-24.276,16.8c1.188-1.013,2.391-2.014,3.592-3.011q6.394-4.792,12.791-9.587c2.4-1.61,4.786-3.243,7.17-4.86a4.685,4.685,0,0,1-.984-1.943c-.871-3.433,3.937-5.031,5.437-2.356a2.315,2.315,0,0,0,.265.016,15.676,15.676,0,0,0,1.878-.168c6.209-4.179,12.411-8.371,18.526-12.679q3.316-2.338,6.622-4.7c1.92-1.371,4.463-2.807,5.718-4.85a.513.513,0,0,0-.571-.745c-2.175.371-4.2,1.972-6.041,3.12-2.017,1.262-4.018,2.556-6.018,3.843-1.5.968-2.991,1.949-4.482,2.93-.023-.035-.052-.061-.074-.094q3.17-2.367,6.27-4.818c1.82-1.446,3.592-2.982,5.315-4.543.916-.829,1.814-1.662,2.685-2.54.887-.891,1.578-1.885,2.378-2.846.378-.452-.042-1.246-.581-1.068a15.618,15.618,0,0,0,2.043-1.872.5.5,0,0,0-.487-.836,25.8,25.8,0,0,0-6.251,3.156c-1.307.8-2.607,1.6-3.908,2.4.413-.394.816-.8,1.22-1.2a9.347,9.347,0,0,0,2.6-2.578.842.842,0,0,0-.965-1.233l-.01-.039a5.219,5.219,0,0,0-1.158.429,16.377,16.377,0,0,0,1.71-1.63c.294-.329.016-1.023-.478-.823a19.745,19.745,0,0,0-2.152,1.049c1.794-1.329,4.076-2.717,5.2-4.627a.716.716,0,0,0-.8-1.039c-2.075.474-3.94,2.168-5.657,3.359-1.888,1.31-3.746,2.672-5.615,4.011q-5.518,3.95-10.988,7.964c-7.38,5.392-14.741,10.807-21.975,16.4-2.859,2.207-5.686,4.46-8.513,6.712L77.74,122.028c2.385-2.236,4.818-4.418,7.277-6.573a12.088,12.088,0,0,1-8.761-.106,3.055,3.055,0,0,1-2.081-3.669c.39-1.42,2.178-2.694,3.669-2.081a9.626,9.626,0,0,0,2.4.645l.836-.687q2.3-1.418,4.576-2.865-2.527,1.791-5.053,3.585a4.479,4.479,0,0,0,2.349-.378,3.152,3.152,0,0,1,4.437,3.475q5.126-4.414,10.407-8.658c1.723-1.181,3.43-2.4,5.144-3.6,5.992-3.627,11.749-7.638,17.406-11.772,3.772-2.759,7.538-5.57,11.159-8.525,3.575-2.92,7.641-5.663,10.587-9.252a.487.487,0,0,0-.587-.762,38.324,38.324,0,0,0-5.528,3.453c-.923.578-1.823,1.194-2.717,1.784q-2.861,1.883-5.689,3.827c-3.708,2.546-7.415,5.092-11.091,7.683l-3.64,2.556a.992.992,0,0,0-.642.194q-6.05,4.313-12.014,8.748-2.778,1.985-5.537,4c-.4.294-.8.6-1.2.9a1.37,1.37,0,0,0-.868-1.762c11.078-7.348,21.92-15.073,33.047-22.34,4.456-2.911,9.122-5.686,13.195-9.122.549-.461-.039-1.533-.726-1.246A96.322,96.322,0,0,0,125.679,76.3c-4.118,2.481-8.183,5.06-12.227,7.664q-2.11,1.36-4.214,2.733,7.091-5.3,14.263-10.5c2.333-1.688,4.685-3.35,7.019-5.037,2.214-1.6,4.811-3.1,6.6-5.189.387-.452.032-1.284-.623-1.071a14.483,14.483,0,0,0-2.552,1.155,10.9,10.9,0,0,0,2.385-2.327.777.777,0,0,0-.868-1.129,12.7,12.7,0,0,0-3.614,2.036c1.075-1.113-.423-2.849-1.765-2.133-3.066,1.636-6.063,3.382-9.035,5.173.962-.749,1.91-1.51,2.878-2.249,1.223-.933,2.452-1.852,3.672-2.788,1.091-.839,2.588-1.684,3.179-2.975a.648.648,0,0,0-.555-.965,6.154,6.154,0,0,0-2.936,1.271,1.371,1.371,0,0,0-2.014-1.02q-3.524,2.275-7.041,4.553a1.239,1.239,0,0,0-1.107.158Q114.2,65.5,111.306,67.4c4.453-3.437,8.951-6.812,13.534-10.081,1.326-.945.119-3.13-1.3-2.223q-2.551,1.631-5.1,3.269c.581-.668,1.149-1.355,1.691-2.065.791-1.039-.707-2.291-1.707-1.707q-3.558,2.072-7.122,4.134a1.229,1.229,0,0,0-.019-.878Q112.54,57,113.8,56.161a.477.477,0,0,0-.481-.823c-.662.319-1.326.629-1.991.942l4.5-3.746c.955-.794-.313-2.459-1.336-1.733-5.16,3.65-10.507,7.028-15.683,10.649a1.392,1.392,0,0,0-.481,1.733c-3.014,1.691-5.967,3.459-8.9,5.273,1.368-1.062,2.736-2.13,4.114-3.182q5.518-4.221,11.078-8.383a1.365,1.365,0,0,0,.439-1.636c1.7-1.1,5.757-3.782,3.93-4.866-1.129-.671-2.433.352-3.391.942-1.3.8-2.565,1.649-3.834,2.491-.72.478-1.433.971-2.146,1.459-.013.01-.029.013-.042.023l-.048.039c-.745.507-1.488,1.016-2.223,1.536a1.045,1.045,0,0,0-.581-.407c1.187-.794,2.375-1.591,3.572-2.372,1.3-.849.1-2.94-1.226-2.094q-8.3,5.3-16.512,10.717,6.433-5,12.9-9.974c1.129-.865.132-2.772-1.152-1.972-2.53,1.572-5.037,3.182-7.535,4.808a1.263,1.263,0,0,0-1.791-1.552c-9.487,5.4-18.9,10.93-28.352,16.393a.985.985,0,0,0,.994,1.7q5.063-2.812,10.139-5.615A182.655,182.655,0,0,0,51.976,81.034a1.252,1.252,0,0,0,.336,2.056c-.048.035-.094.071-.142.11-1.126.875.355,2.8,1.533,1.988,1.73-1.2,3.469-2.381,5.2-3.575l-.248.2q-5.484,4.56-10.817,9.3c-1.078.958.361,2.882,1.562,2.023q3.253-2.333,6.493-4.676c-1.868,1.694-3.721,3.4-5.541,5.153a1.22,1.22,0,0,0-.374.975q-1.975,1.423-3.953,2.843c-1.117.8-.048,2.678,1.091,1.865l12.243-8.713c-1.575,1.513-3.133,3.043-4.66,4.6a1.3,1.3,0,0,0-.271,1.391q-2.614,2.343-5.218,4.7c-1.039.945.349,2.817,1.526,1.978.629-.449,1.255-.9,1.885-1.342-1.1.926-2.21,1.846-3.311,2.775a1.568,1.568,0,0,0,.542,2.527c-1.175,1.058-2.352,2.11-3.521,3.172-1.294,1.178.442,3.521,1.9,2.465q5.954-4.308,11.894-8.629-5.552,4.923-11.107,9.845c-1.046.926.349,2.782,1.51,1.955l11.488-8.141a1.414,1.414,0,0,0,.165.1,42.653,42.653,0,0,0-8.758,8.667.462.462,0,0,0,.106.636c-1.249,1.194-2.488,2.4-3.74,3.588a1.354,1.354,0,0,0,1.249,2.278,27.377,27.377,0,0,0-2.088,1.914.846.846,0,0,0,1.02,1.323,58.428,58.428,0,0,0,8.855-5.486l.126-.087c-.171.152-.345.3-.516.449a29.833,29.833,0,0,0-5,5.292c-.326.474.3,1.007.755.755.071-.039.132-.084.2-.123a1.276,1.276,0,0,0,.439,1.013c-.742.658-1.5,1.3-2.239,1.965-1.2,1.068.4,3.2,1.736,2.252q5.755-4.1,11.485-8.238-5.145,4.782-10.1,9.761c-1.113,1.123.532,2.691,1.71,1.71q7.314-6.113,14.766-12.056c-3.317,3.188-6.557,6.463-9.645,9.874a1.484,1.484,0,0,0-.058,1.817c-1.178,1.055-2.349,2.123-3.482,3.227-1.01.987-2.959,2.375-2.985,3.9a.7.7,0,0,0,.687.687c1.507.055,3.049-1.846,4.124-2.762l.349-.3a1.178,1.178,0,0,0,1.417-.032q4.453-3.325,8.906-6.654c-1.481,1.478-2.946,2.975-4.376,4.5a1.407,1.407,0,0,0-.355,1.165c-1.739,1.213-3.472,2.44-5.221,3.64-1.2.82-.106,2.762,1.152,1.968q6.757-4.255,13.3-8.787c-1.039.868-2.085,1.73-3.117,2.6-1.452,1.229-2.911,2.456-4.321,3.734a18.821,18.821,0,0,0-3.9,4.337.538.538,0,0,0,.1.626,7.533,7.533,0,0,0-.484.716.761.761,0,0,0,.849,1.107c2.094-.642,3.979-2.31,5.728-3.592.781-.571,1.549-1.152,2.32-1.736a1.691,1.691,0,0,0,.791,1.288c-.487.423-.975.845-1.459,1.275-.662.584-1.32,1.181-1.949,1.8a7.826,7.826,0,0,0-.91.968,4.478,4.478,0,0,0-.445,1.207c-.165.436.316.794.707.707a5.857,5.857,0,0,0,1.071-.187,5.747,5.747,0,0,0,1.155-.8c.7-.545,1.417-1.084,2.114-1.642,1.346-1.078,2.7-2.149,4.043-3.224-.365.345-.729.687-1.091,1.036-1.368,1.32-3.182,2.814-4.034,4.534-.245.494.174,1.284.8,1.039a9.1,9.1,0,0,0,1.891-1.058c-.248.223-.5.439-.742.668-.965.92-1.823,1.962-2.8,2.859a.532.532,0,0,0,.642.833c.916-.591,1.933-1.052,2.869-1.62,1.007-.613,2-1.242,2.959-1.93,1.859-1.329,3.7-2.682,5.55-4.024,3.688-2.672,7.29-5.476,10.91-8.238a6.192,6.192,0,0,1,.6-2.294c1.184-2.507,4.114-4.289,6.886-3.446,1.539-1.181,3.082-2.356,4.614-3.54a1.261,1.261,0,0,0,.436.274c-.9.7-1.807,1.4-2.7,2.114-.591.465-1.175.939-1.762,1.407a3.1,3.1,0,0,1,.949.794,4.286,4.286,0,0,1,2.959,3.178,6.514,6.514,0,0,1-1.7,5.834,5.738,5.738,0,0,1-5.344,1.6c-.636.468-1.278.936-1.907,1.41-2.882,2.181-5.734,4.4-8.529,6.7-1.378,1.129-2.762,2.252-4.095,3.437-1.187,1.058-3.043,2.285-3.317,3.963a.53.53,0,0,0,.5.661c1.626,0,2.985-1.436,4.2-2.372.171-.132.339-.268.507-.4a1.384,1.384,0,0,0,2.1.871c.61-.423,1.213-.852,1.823-1.275a1.268,1.268,0,0,0,1.31-.136c.068-.048.136-.1.2-.148-.274.245-.555.484-.826.729-1.265,1.142.4,3.343,1.836,2.381l1.384-.929c-.7,1.22.787,3.03,2.117,2.091q5.571-3.935,11.239-7.745-2.135,1.868-4.224,3.782c-1.22,1.116.436,3.359,1.8,2.333.084-.061.168-.123.248-.184.21.952,1.323,1.8,2.265,1.107q3.921-2.89,7.954-5.634c-.571,1.126.529,2.707,1.839,1.865,2.233-1.43,4.472-2.846,6.709-4.269a1.329,1.329,0,0,0,1.73.2c5.347-3.54,10.526-7.322,15.705-11.107a1.594,1.594,0,0,0-.074-2.607,1.536,1.536,0,0,0-.284-2.085q1.457-.891,2.9-1.81c.778-.5,1.552-.991,2.307-1.52.771-.542,1.388-1.249,2.143-1.8a.6.6,0,0,0-.61-1.042c-.749.339-1.539.539-2.294.865a1.673,1.673,0,0,0-.313-.31c.339-.271.684-.536,1.023-.807.978-.784,1.933-1.6,2.878-2.42a23.537,23.537,0,0,0,2.682-2.94c.4-.487-.1-1.265-.7-.913a29.063,29.063,0,0,0-3.1,1.9c-.923.7-1.836,1.413-2.753,2.123-.074.058-.148.113-.223.171.5-.578.984-1.165,1.455-1.762.965-1.217,1.891-2.456,2.749-3.75.845-1.278,1.962-2.791,2.172-4.34a.691.691,0,0,0-.652-.813,8.707,8.707,0,0,0,2.623-3.521.509.509,0,0,0-.6-.623,26.457,26.457,0,0,0,2.323-2.882c.332-.484-.307-1.046-.774-.774a30.324,30.324,0,0,0-2.724,1.8,8.729,8.729,0,0,0,2.34-2.678.628.628,0,0,0-.7-.91c-1.93.465-3.517,2.039-5.047,3.22-1.63,1.258-3.243,2.559-4.8,3.9q-2.29,1.97-4.563,3.956c-6.573,4.34-13.13,8.716-19.607,13.208q2.841-2.241,5.644-4.534c3.763-2.44,7.454-5,11.072-7.625q4.23-3.074,8.429-6.189c1.378-1.029,2.765-2.043,4.111-3.117,1.258-1.007,2.611-2.014,3.13-3.6a.592.592,0,0,0-.455-.733,46.55,46.55,0,0,0,3.834-3.646ZM135.634,90.74c1.888-1.313,3.782-2.627,5.634-3.985,1.362-1,3.227-2.072,4.3-3.514.313-.21.626-.423.939-.632.507-.336,1.023-.668,1.542-1-.926.758-1.826,1.546-2.723,2.34-1.794,1.588-3.579,3.185-5.373,4.776q-1.912,1.694-3.827,3.382a1.128,1.128,0,0,0-1.459-.11q-6.041,3.795-12.014,7.68c4.343-2.949,8.664-5.941,12.975-8.935ZM77.156,98.027c.507-.494,1.013-.984,1.52-1.478,4.84-3.727,9.719-7.409,14.66-11q-6.564,5.3-12.975,10.768-1.612.833-3.2,1.71Zm42.65-26.3c-.1.094-.21.184-.316.278Q99.872,86.1,80.254,100.2q5.557-4.768,11.223-9.41a1.161,1.161,0,0,0,.91-.219c8.987-6.489,18.006-12.985,27.419-18.845ZM98.889,69.2l1.362-1.123q6.026-3.509,12.056-7.006a117.269,117.269,0,0,1-10.268,7.858,1.3,1.3,0,0,0-.552.855Q91.114,76.994,80.741,84.2q9.076-7.5,18.148-15.005ZM80.8,80.282c.668-.468,1.339-.933,2.007-1.4-.636.523-1.268,1.049-1.9,1.572A1.888,1.888,0,0,0,80.8,80.282Zm2.569-6.76a1.05,1.05,0,0,0,.3-.49l.745-.6a.617.617,0,0,0,.807.19c2.285-1.152,4.55-2.314,6.806-3.5-.065.055-.132.106-.2.161L75.523,80.666q3.93-3.562,7.845-7.141Zm.529,52.366q2.957-2.623,5.979-5.166c.326-.2.649-.416.975-.626a.58.58,0,0,0,.684.016c.045-.032.094-.061.139-.094a.7.7,0,0,0,.652.013C89.508,121.977,86.691,123.919,83.894,125.888Zm65.622-4.982c-.252.323-.5.642-.742.942-.294.358-.6.713-.894,1.071a1.657,1.657,0,0,0-.226-.31c.636-.552,1.239-1.136,1.862-1.7Zm-3.43-3.017c1.123-.829,2.227-1.688,3.324-2.559-.778.645-1.552,1.294-2.333,1.923q-1.205.968-2.4,1.939c-.029-.068-.065-.132-.1-.2.507-.371,1.013-.736,1.517-1.107ZM135.663,132.88l8.635-5.808q-1.433,1.588-2.933,3.111a1.479,1.479,0,0,0-.791.232c-6.689,4.082-13.3,8.283-19.875,12.54q7.483-5.039,14.963-10.074Z" transform="translate(-45.557 -50.168)" fill="#eac485"/>
    </g>
  </g>
  <g id="Group_17265" data-name="Group 17265">
    <path id="Path_18557" data-name="Path 18557" d="M35.792,123.2c-.171-11.6,2.207-21.165,7.231-30.088A43.133,43.133,0,0,1,57.512,77.855a7.542,7.542,0,0,1,2.365-1.3,2.834,2.834,0,0,1,2.349.5,2.529,2.529,0,0,1-.236,2.343,10.016,10.016,0,0,1-2.54,2.01c-13.066,8.932-18.622,21.807-19.5,37.126a63.08,63.08,0,0,0,6.938,32.676,51.439,51.439,0,0,0,31.6,26.616c3.249,1.02,6.776,1.165,10.181,1.675a22.816,22.816,0,0,1,3.22.358,2.1,2.1,0,0,1,1.255,1.471,1.993,1.993,0,0,1-1.078,1.588,14.049,14.049,0,0,1-3.753.449,36.769,36.769,0,0,1-14.9-2.846c-13.3-5.683-23.837-14.5-30.275-27.7-4.766-9.774-7.419-20.075-7.354-29.626Z" transform="translate(-24.238 -51.814)" fill="#262c54"/>
    <path id="Path_18558" data-name="Path 18558" d="M289.287,182.052c-2.033,25.948-13.621,45.409-37.255,56.842-4,1.936-8.658,2.556-13.037,3.682a5.585,5.585,0,0,1-2.659-.171c-.423-.106-1.013-.742-1-1.12a2.507,2.507,0,0,1,.778-1.82,7.572,7.572,0,0,1,2.565-.752c23.95-4.947,37.642-20.565,44.457-43.092a46.261,46.261,0,0,0,.6-24.266c-.365-1.546-1.217-3.582.965-4.159,2.123-.561,2.623,1.542,2.888,3.108.665,3.927,1.152,7.883,1.7,11.746Z" transform="translate(-159.399 -113.18)" fill="#262c54"/>
    <path id="Path_18559" data-name="Path 18559" d="M.016,132.917c-.081-17.567,3.624-30.072,11.446-41.3a18.078,18.078,0,0,1,3.24-3.624,2.746,2.746,0,0,1,2.365.142c.361.184.571,1.378.339,1.878a21.12,21.12,0,0,1-2.085,3.169C6.6,105.546,3.191,119.2,4.333,134.33c.81,10.729,4.05,20.591,8.3,30.275.219.5.513.962.733,1.459.549,1.239.855,2.63-.6,3.308-1.468.687-2.314-.607-3.007-1.668a19.242,19.242,0,0,1-1.533-2.882C3.252,153.4-.223,141.63.016,132.917Z" transform="translate(-0.004 -59.45)" fill="#262c54"/>
    <path id="Path_18560" data-name="Path 18560" d="M202.043,368.628c5.915-.891,11.862-1.6,17.735-2.723a34.791,34.791,0,0,0,16.722-8.742c5.844-5.234,11.236-10.865,15.26-17.693.839-1.423,1.613-3.963,3.93-2.472,1.807,1.162.468,3.017-.4,4.337-9.316,14.176-20.31,26.377-38.126,29.3-6.954,1.142-14.1,1.162-21.165,1.52-1.694.087-4.259.171-4.263-2.227,0-2.711,2.569-1.8,4.227-1.862,2-.077,4-.019,6-.019Z" transform="translate(-129.869 -227.944)" fill="#262c54"/>
    <path id="Path_18561" data-name="Path 18561" d="M338.539,46.029a4.48,4.48,0,0,0-1.149-.91c-2.227-.781-4.492-1.449-6.718-2.227a46.813,46.813,0,0,1-4.55-1.807c-1.158-.545-2.449-1.323-1.8-2.869.639-1.52,2.085-1.168,3.3-.762,5.166,1.717,10.349,3.391,15.447,5.3,1.194.445,2.849,1.7,2.891,2.64.045,1.042-1.32,2.446-2.414,3.185-5.266,3.553-10.681,6.88-15.964,10.407a25.464,25.464,0,0,0-3.395,3.288c1.417.662,2.8,1.4,4.256,1.972,3.033,1.2,6.138,2.227,9.129,3.521.616.268.858,1.4,1.271,2.127-.881.429-1.759,1.181-2.649,1.2-1.023.023-2.049-.645-3.091-.942-4.179-1.2-8.364-2.372-12.549-3.553-1.523-.429-3.511-.278-4.04-2.207-.607-2.217,1.281-3.253,2.7-4.272,5.163-3.7,10.4-7.3,15.615-10.926,1.042-.726,2.139-1.375,3.166-2.117.245-.177.316-.594.539-1.046Z" transform="translate(-214.301 -25.132)" fill="#262c54"/>
    <path id="Path_18562" data-name="Path 18562" d="M257.289,103.471c-2.895-.284-5.818-.407-8.674-.9-2.624-.455-3.262-2.349-1.388-4.318,3.511-3.682,7.273-7.122,10.855-10.736a40.342,40.342,0,0,0,2.933-3.724c-1.5-.361-2.988-.826-4.511-1.058-1.972-.3-4.014-.248-5.944-.694-.858-.2-2.088-1.191-2.159-1.92-.168-1.72,1.417-1.83,2.694-1.814,2,.026,4,.139,5.989.31,2.9.252,5.805.474,8.677.923,2.985.468,3.643,2.243,1.591,4.534-2.178,2.433-4.631,4.621-6.964,6.915-.649.639-1.349,1.229-1.936,1.92-1.588,1.875-3.13,3.795-4.689,5.7,2.127.31,4.269.542,6.373.958,1.517.3,3.827.136,3.734,2.307-.1,2.307-2.323,1.665-3.856,1.691-.907.016-1.814-.106-2.72-.165a.531.531,0,0,1-.006.071Z" transform="translate(-166.721 -53.037)" fill="#262c54"/>
    <path id="Path_18563" data-name="Path 18563" d="M131.485,232.822a12.089,12.089,0,0,1-8.18-4.308c-.436-.494-.913-1.5-.694-1.933,1.1-2.175.62-3.592-1.407-4.924-.523-.342-.278-1.852-.384-2.824a7.661,7.661,0,0,1,2.472-.168c2.6.713,5.1,1.923,7.728,2.346a13.984,13.984,0,0,0,10.358-2.456c1.949-1.326,3.575-.142,3.45,2.162-.3,5.56-7.38,12.152-13.34,12.1Zm-.542-7.57c-.507-.084-2.117-.365-3.734-.591a1.329,1.329,0,0,0-.991.239c-.129.123-.019.684.155.913a6.673,6.673,0,0,0,8.751,1.933,10.091,10.091,0,0,0,1.926-1.765,13.507,13.507,0,0,0-2.259-.7,35.83,35.83,0,0,0-3.85-.029Z" transform="translate(-81.834 -147.655)" fill="#262c54"/>
    <path id="Path_18564" data-name="Path 18564" d="M259.242,228.221c-2.582-.239-5.334-.613-7.235-2.865a2.847,2.847,0,0,1-.048-2.414c.155-.381,1.3-.652,1.881-.5,1.217.313,2.314,1.078,3.527,1.4a7.857,7.857,0,0,0,8.38-2.485,1.176,1.176,0,0,0,.274-.971c-.071-.2-.6-.4-.884-.349-1.6.294-3.208,1-4.782.936a43.78,43.78,0,0,1-7.964-1.184,4.423,4.423,0,0,1-2.465-2.017c-.436-.765-.187-1.917-.242-2.9.833-.016,1.952-.394,2.449.006,3.195,2.562,6.738,2.475,10.362,1.536a18.657,18.657,0,0,0,3.93-1.839c1.426-.762,3.062-2.2,4.35-.565a6.36,6.36,0,0,1,.816,4.531c-1,5.721-6.234,9.742-12.343,9.677Z" transform="translate(-169.1 -144.444)" fill="#262c54"/>
    <path id="Path_18565" data-name="Path 18565" d="M111.423,3.05a5.025,5.025,0,0,1,1.455.242c.439.2,1.055.662,1.065,1.02.016.636-.184,1.63-.616,1.859a12.129,12.129,0,0,1-3.592,1.175A65.256,65.256,0,0,0,80.651,20.253a17.255,17.255,0,0,1-3.675,2.307c-.658.278-1.626-.184-2.456-.31.161-.955.31-1.91.5-2.859.029-.142.252-.252.394-.361C85.443,11.208,96.392,5.36,109.119,3.344,109.835,3.231,110.561,3.16,111.423,3.05Z" transform="translate(-50.474 -2.066)" fill="#262c54"/>
    <path id="Path_18566" data-name="Path 18566" d="M208.871,306.835a8.9,8.9,0,0,1-8.809,9.087,7.985,7.985,0,0,1-8.364-7.5c-.258-4.986,4.15-10.358,8.445-10.294a9.078,9.078,0,0,1,8.729,8.709Zm-4.208.258a4.358,4.358,0,0,0-4.327-4.543c-2.207-.061-4.337,2.427-4.447,5.192a3.934,3.934,0,0,0,3.985,4.166A4.813,4.813,0,0,0,204.663,307.093Z" transform="translate(-129.832 -201.925)" fill="#262c54"/>
    <path id="Path_18567" data-name="Path 18567" d="M198.008,119.108a34.714,34.714,0,0,1,3.8.026c2.268.252,3.243,1.768,2.262,3.788a35.587,35.587,0,0,1-3,4.5c-.413.6-.91,1.136-1.3,1.746-.855,1.346-1.668,2.724-2.5,4.085,1.488.287,2.975.581,4.463.852.355.065.807-.071,1.068.106.82.552,1.568,1.207,2.346,1.823-.774.613-1.488,1.649-2.33,1.765-3.4.461-6.847.729-10.284.865a3.515,3.515,0,0,1-2.753-1.042,3.287,3.287,0,0,1,.49-2.849c2.217-3.088,4.682-6,6.944-9.058,1.239-1.675,1.016-2.072-.929-2.465-.177-.035-.365-.019-.542-.048-1.7-.287-4.314.058-3.959-2.491.326-2.346,2.875-1.5,4.585-1.636.539-.045,1.087-.006,1.63-.006v.045Z" transform="translate(-128.431 -80.624)" fill="#262c54"/>
    <path id="Path_18568" data-name="Path 18568" d="M164.011,44.41a68.954,68.954,0,0,0-24.983,5.018A22.272,22.272,0,0,1,135.5,50.8a1.706,1.706,0,0,1-1.546-2.8,12.977,12.977,0,0,1,3.624-2.359c9.413-3.682,19.116-5.857,29.307-5.182a8.864,8.864,0,0,1,2.63.545,1.542,1.542,0,0,1,.823,1.22c-.1.62-.532,1.6-.962,1.678-1.762.319-3.572.358-5.366.5Z" transform="translate(-90.494 -27.324)" fill="#262c54"/>
    <path id="Path_18569" data-name="Path 18569" d="M122.293,418.06c-.813.578-1.317,1.2-1.9,1.284a5.633,5.633,0,0,1-2.659-.255c-4.26-1.562-8.506-3.156-12.7-4.882a8.077,8.077,0,0,1-3.011-2.223,2.752,2.752,0,0,1-.077-2.362,2.033,2.033,0,0,1,1.881-.5q8.345,3.3,16.6,6.831c.687.294,1.1,1.22,1.865,2.114Z" transform="translate(-68.899 -277.057)" fill="#262c54"/>
    <path id="Path_18570" data-name="Path 18570" d="M421.707,162.811a5.965,5.965,0,0,1-.31,1.868c-.345.581-.987,1.471-1.4,1.42-.752-.094-1.946-.684-2.056-1.246-.871-4.437-1.617-8.906-2.156-13.392-.081-.671,1.126-1.5,1.739-2.252.645.526,1.723.955,1.865,1.591.9,4.063,1.6,8.171,2.32,12.007Z" transform="translate(-281.612 -101.061)" fill="#262c54"/>
    <path id="Path_18571" data-name="Path 18571" d="M284.923,53.6c-1.288.487-2.394,1.342-3.027,1.075-3.83-1.613-7.6-3.4-11.265-5.353-.652-.345-.933-1.739-.971-2.665a2.772,2.772,0,0,1,2.156-.823c3.814,1.636,7.567,3.421,11.268,5.3.681.345,1.029,1.342,1.839,2.462Z" transform="translate(-182.645 -31.013)" fill="#262c54"/>
    <path id="Path_18572" data-name="Path 18572" d="M234.933,0c3.44.92,6.422,1.581,9.287,2.578.678.236.965,1.6,1.433,2.443-.9.368-1.852,1.152-2.678,1.033a61.667,61.667,0,0,1-8.4-1.82c-.823-.242-1.388-1.368-2.072-2.091.829-.733,1.662-1.462,2.433-2.143Z" transform="translate(-157.476)" fill="#262c54"/>
  </g>
</svg>
