<svg id="_51" data-name="51" xmlns="http://www.w3.org/2000/svg" width="145.56" height="141.908" viewBox="0 0 145.56 141.908">
  <g id="Group_17267" data-name="Group 17267" transform="translate(15.967 13.291)">
    <path id="Path_18573" data-name="Path 18573" d="M262.12,302.621a2.013,2.013,0,0,0-.258-.545c-.006-.01-.013-.016-.019-.026a2.352,2.352,0,0,0-1.5-1.013,6.409,6.409,0,0,0-6.567-.194,10.651,10.651,0,0,0-2.969,3.13,9.9,9.9,0,0,1-.694.871,1.276,1.276,0,0,0-1.158-.668,2.44,2.44,0,0,0-1.349.387,1.341,1.341,0,0,0-.407,1.82c-.045.148-.1.294-.139.445a1.549,1.549,0,0,0,1.471,1.933,5.085,5.085,0,0,0,3.769-1.381,26.278,26.278,0,0,0,2.391-2.849,3.3,3.3,0,0,1,1.107-.887c.019-.01.026-.016.039-.023a.018.018,0,0,0,.016-.006,4.175,4.175,0,0,1,.4-.126c.081-.023.165-.039.248-.055.023,0,.148-.023.219-.026a4.621,4.621,0,0,1,.733.016c.026,0,.055.01.084.016.139.032.274.065.41.1.113.036.21.084.31.126a2.575,2.575,0,0,0,.933,1.107,1.905,1.905,0,0,0,1.991,0c.023-.016.045-.035.068-.052a1.953,1.953,0,0,0,.858-2.11Z" transform="translate(-183.264 -216.501)" fill="#ba8b54"/>
    <path id="Path_18574" data-name="Path 18574" d="M188.269,294.324c-1.555-1-3.417-.3-4.886.494a17.608,17.608,0,0,0-4.292,3.275c-1.068,1.1-1.839,2.523-3.011,3.527s-2.94-1.346-3.737-2.065c-1.252-1.129-2.456-2.3-3.653-3.482-.01-1.268-1.362-2.614-2.627-1.684-.3.219-.591.442-.874.684a1.758,1.758,0,0,0,0,2.485c.026.019.052.042.077.061a1.568,1.568,0,0,0,1.081,1.075,1.411,1.411,0,0,0,.313.048c1.033.832,2.059,1.675,3.053,2.556a27.134,27.134,0,0,0,3.876,3.253,4.262,4.262,0,0,0,3.23.474,1.764,1.764,0,0,0,1.065.087,7.155,7.155,0,0,0,2.485-1.152c1.107-.545,2.2-1.113,3.275-1.73a21.959,21.959,0,0,0,4.8-3.166c1.313-1.339,1.568-3.617-.177-4.737Z" transform="translate(-127.503 -212.302)" fill="#ba8b54"/>
    <path id="Path_18575" data-name="Path 18575" d="M279.233,221.483c-1.562-8.07-10.817-3.6-8.587,2.84C273.2,228.721,280.943,227.094,279.233,221.483Z" transform="translate(-199.044 -160.355)" fill="#75757c"/>
    <path id="Path_18576" data-name="Path 18576" d="M164.092,218.545a1.545,1.545,0,0,0-1.555-.416c-2.882-4.321-8.906,8.038-5.282,9.829,4.408,1.891,10.552-5.473,6.838-9.41Z" transform="translate(-121.713 -160.412)" fill="#75757c"/>
    <g id="Group_17266" data-name="Group 17266">
      <path id="Path_18577" data-name="Path 18577" d="M134.747,302.61q-5.794,6.5-11.372,13.192c-1.071,1.288.7,3.143,1.868,1.868q5.586-6.094,11.239-12.14A2.718,2.718,0,0,1,134.747,302.61Z" transform="translate(-99.306 -218.249)" fill="#eac485"/>
      <path id="Path_18578" data-name="Path 18578" d="M144.211,323.425q2.836-2.8,5.679-5.6a24.856,24.856,0,0,0-2.446-2.085c-.691-.523-1.41-1.02-2.149-1.471l-.152-.09q-4.371,5.237-8.622,10.571a1.581,1.581,0,0,0,.5,2.362,25.949,25.949,0,0,0-3.659,4.689c-.352.629.384,1.484,1.039,1.039a36.029,36.029,0,0,0,5.082-4.666c1.572-1.588,3.14-3.182,4.727-4.753Z" transform="translate(-106.23 -226.085)" fill="#eac485"/>
      <path id="Path_18579" data-name="Path 18579" d="M86.4,123.11q3.834-3.848,7.719-7.645-3.379,3.621-6.7,7.3a3.053,3.053,0,0,1,1.178.084,10.324,10.324,0,0,1,2.394,1.02c6.322-6.654,12.75-13.208,19.381-19.552-6.15,6.68-12.211,13.44-18.1,20.349.536.365,1.055.742,1.555,1.12a32.9,32.9,0,0,1,3.6,2.982c6.673-6.328,13.64-12.349,19.987-19.006a.657.657,0,0,0-.52-1.091c1.471-1.375,2.966-2.72,4.45-4.082-.016-.058-.039-.113-.055-.171a6.383,6.383,0,0,1,3.172-7.309,3.047,3.047,0,0,1,4.047,1.026c1.875-1.659,3.74-3.327,5.637-4.96q-2.72,2.7-5.415,5.428a2.971,2.971,0,0,1-1.258,3.656l-.278.142a.393.393,0,0,1-.045.032,1.245,1.245,0,0,1-.026.152,2.768,2.768,0,0,1,1.591.232q8.074-8.316,16.4-16.4,6.525-6.336,13.1-12.624c1.133-1.084-.407-3.217-1.72-2.23q-5.3,3.988-10.478,8.135c1.026-1.042,2.043-2.1,3.03-3.175q2.2-2.4,4.34-4.847c.694-.794,1.375-1.6,2.039-2.42a4.7,4.7,0,0,0,1.371-2.578.538.538,0,0,0-.536-.536,4.372,4.372,0,0,0-2.3,1.388c-.82.742-1.594,1.565-2.362,2.362-.929.965-1.836,1.949-2.753,2.93a1.683,1.683,0,0,0-.774-.745c1.539-1.423,3.082-2.843,4.6-4.3.813-.781-.374-1.891-1.213-1.213-.452.365-.887.742-1.336,1.11,1.329-1.555,2.646-3.12,3.924-4.7a1.178,1.178,0,0,0-1.665-1.665c-1.965,1.736-3.959,3.437-5.954,5.14q1.428-1.859,2.795-3.785a1.243,1.243,0,0,0-.561-1.772.852.852,0,0,0-1.271-.242c-1.762,1.333-3.485,2.714-5.189,4.121-6.631,4.931-13.021,10.187-19.177,15.7.368-.387.729-.784,1.1-1.171a1.625,1.625,0,0,0,.361-.591q5.174-4.647,10.368-9.268a104.926,104.926,0,0,0,9.855-9.377c.494-.571-.132-1.513-.839-1.087a75.826,75.826,0,0,0-9.465,7.08q-4.623,3.853-9.158,7.806c-.248.216-.5.432-.742.649q8.02-8.824,15.757-17.9a1.4,1.4,0,0,0,.042-1.9c.026-.026.055-.052.081-.077.855-.839,2-1.684,2.294-2.891a.789.789,0,0,0-.955-.955c-1.107.158-1.946,1.1-2.782,1.788-1.016.839-2.017,1.7-3.011,2.565-1.923,1.681-3.817,3.4-5.7,5.14-.116.11-.236.219-.352.329q2.323-2.653,4.653-5.3a1.346,1.346,0,0,0-1.087-2.233c.077-.068.155-.132.232-.2.7-.613,1.394-1.236,2.068-1.875a5.365,5.365,0,0,0,1.575-2.072c.148-.465-.3-.762-.707-.707a5.44,5.44,0,0,0-2.278,1.22c-.716.532-1.42,1.084-2.12,1.639a1.448,1.448,0,0,0-2.427-.916c-1.672,1.6-3.314,3.237-4.96,4.866a1.219,1.219,0,0,0-1.83-1.591,197.661,197.661,0,0,0-17.106,15.3c.6-.691,1.2-1.381,1.794-2.072l1.016-1.178c2.943-2.381,5.715-5.008,8.471-7.525,2.214-2.023,4.44-4.03,6.618-6.089,1.146-1.084,2.285-2.172,3.385-3.3.881-.9,1.875-1.807,1.681-3.159a.654.654,0,0,0-.468-.468c-1.326-.339-2.391.713-3.35,1.488-1.168.945-2.31,1.92-3.443,2.911-.252.219-.5.445-.749.665a1.3,1.3,0,0,0-1.933-.229c-7.486,6.041-14.576,12.514-21.462,19.2q4.148-4.739,8.3-9.477,6.583-7.512,13.172-15.021a1.361,1.361,0,0,0-1.923-1.923q-4.134,3.945-8.209,7.945l3.537-4.05c1.165-1.333-.7-3.253-1.965-1.965Q88.319,66.944,66.254,89.4c-.342.349-.687.7-1.029,1.046,2.472-3.124,5.037-6.18,7.622-9.21.416-.49.836-.978,1.252-1.465a.719.719,0,0,0,.916-.055c6.228-6.05,12.011-12.511,18.051-18.748s12.285-12.278,18.1-18.745c.426-.474-.145-1.355-.723-.936A121.559,121.559,0,0,0,98.5,51.225q2.556-2.991,5.115-5.983a1.306,1.306,0,0,0-1.846-1.846c-5.66,4.453-11.1,9.161-16.383,14.04q.755-.857,1.51-1.717Q91.92,50.013,96.948,44.3a1.3,1.3,0,0,0-1.839-1.839L70.245,66.391Q80.618,54.755,92.059,44.1c1.081-1.01-.387-3.02-1.617-2.094A323.169,323.169,0,0,0,54.656,73.277a1.053,1.053,0,0,0,1.488,1.488Q64.73,66.5,73.8,58.75,63.707,69.7,54.579,81.467c-.933,1.2.552,2.833,1.72,1.72Q65.544,74.344,74.792,65.5q-7.444,8.446-14.9,16.886-5.029,5.7-10.061,11.407c-1.126,1.278.71,3.153,1.885,1.885q2.667-2.88,5.344-5.754c-.881,1.168-1.765,2.33-2.63,3.508-1.268,1.733-2.9,3.63-3.437,5.747a.61.61,0,0,0,.887.681c1.8-1.155,3.075-3.191,4.366-4.863q2.178-2.827,4.421-5.6c2.849-3.521,5.718-7.022,8.687-10.442,5.518-6.36,11.507-12.3,16.909-18.761q2.561-2.381,5.17-4.715-4.879,5.7-9.755,11.4C75.321,74.3,68.8,81.622,62.756,89.305a125.543,125.543,0,0,0-9.077,12.956,1.337,1.337,0,0,0,2.091,1.613Q67.26,92.209,78.758,80.547q-6.418,7.314-12.83,14.624-1.772,2.018-3.543,4.04-4.521,5.092-8.98,10.236c-1.246,1.442.836,3.553,2.107,2.107q5.528-6.3,11.026-12.611,10.368-11.66,21.114-22.972Q78.774,86.044,69.9,96.124q-6.6,7.5-13.172,15.021c-1.184,1.355.739,3.33,1.994,1.994q4.564-4.845,9.11-9.726c-.881,1.029-1.765,2.056-2.64,3.091q-2.793,3.321-5.531,6.683a65.942,65.942,0,0,0-5.366,7.09c-.426.7.523,1.365,1.1.849a66.179,66.179,0,0,0,5.286-5.637l5.286-5.963q5.208-5.886,10.471-11.73,6.975-7.745,14.131-15.325Q81.731,92.645,72.9,102.823q-6.525,7.536-13.05,15.066c-1.091,1.258.694,3.091,1.846,1.846q12.348-13.345,24.679-26.7c7.812-8.451,15.534-17.009,23.8-25.028.542-.526,1.094-1.039,1.642-1.562q-6.026,6.994-12.049,13.985c-.155.145-.313.281-.468.426-3.5,3.3-6.873,6.747-10.245,10.178q-10.126,10.3-19.726,21.1c-1.755,1.965-3.466,3.969-5.173,5.976-1.684,1.978-3.863,4.072-4.9,6.48-.242.561.284,1.288.907.907a20.186,20.186,0,0,0,4.247-4.008c-.726,1.178.862,2.691,1.878,1.562l2.172-2.41a1.453,1.453,0,0,0,1.278.184c-1.755,2.236-3.472,4.5-5.111,6.822a.4.4,0,0,0,.058.539c-.584.765-1.175,1.52-1.752,2.288a.713.713,0,0,0,.4,1.062c-.023.029-.045.055-.065.084a.044.044,0,0,0-.01.013h0c-.065.084-.129.168-.194.248-.862,1.12.991,2.5,1.943,1.5q6.476-6.859,13-13.672a1.455,1.455,0,0,0,.561-.4c.226-.255.452-.51.678-.768q-5.654,7.58-11.072,15.347c-.833,1.194,1.007,2.565,1.994,1.539l1.772-1.839q-1.413,1.7-2.83,3.4c-1.129,1.362.726,3.311,1.978,1.978q7.057-7.527,14.331-14.841a2.9,2.9,0,0,1,1-1.007Zm52.292-37.429c-1.336,1.113-2.675,2.227-4,3.353.123-.129.248-.255.371-.384l3.7-3.869c-.045.061-.094.119-.139.181a.518.518,0,0,0,.061.72Zm1.068-10.416c-.261.271-.52.549-.784.82-1.9,1.939-3.843,3.83-5.808,5.7a1.566,1.566,0,0,0-.691-.229c.21-.2.423-.39.629-.591,1.814-1.539,3.627-3.075,5.421-4.631.41-.358.82-.713,1.233-1.071Zm-4.263-.478c-.2.2-.4.4-.6.6-1.262,1.236-2.559,2.43-3.866,3.614-.061-.019-.126-.032-.187-.045,1.549-1.391,3.107-2.775,4.66-4.166Zm-37.9,33.35q3.388-3.8,6.8-7.57a1.774,1.774,0,0,0,.8.4q-3.829,3.558-7.6,7.167Zm9.371-30.22q5.334-5.658,10.739-11.246c1.407-1.455,2.824-2.895,4.234-4.347a93.749,93.749,0,0,0,7.506-5.805c.507-.423,1-.862,1.5-1.288q-15.083,15.247-30.162,30.5a1.491,1.491,0,0,0-.623-.31Q103.558,81.659,106.971,77.917ZM101.43,88.866q-3.166,3.582-6.328,7.167a1.213,1.213,0,0,0-.652-.094Q97.94,92.4,101.43,88.866Zm-16.473,14.75c-.494.381.155-.155.252-.239.19-.171.378-.352.561-.532s.81-.881.687-.723c.158-.2.287-.423.426-.639.023-.039.042-.081.065-.119a2.91,2.91,0,0,1,.549-3.343,3.008,3.008,0,0,1,4.218,0,4.847,4.847,0,0,1,.82,5.373,3.715,3.715,0,0,1-.82,1.988c-1.3,1.62-2.975,3.792-5.25,3.792a3.037,3.037,0,0,1-2.875-2.188,3.119,3.119,0,0,1,1.371-3.369Zm16.974-8.99a1.383,1.383,0,0,0,.2-1.565c6.793-7.3,13.74-14.45,20.981-21.3Q113.3,82.542,103.043,92.919a1.354,1.354,0,0,0-.229,1.7c-1.568,1.672-3.1,3.379-4.618,5.124a.776.776,0,0,0,1.1,1.1l.281-.223q-8.974,9.5-17.945,18.99c6.5-8.542,13.311-16.848,20.3-24.979Z" transform="translate(-49.48 -41.179)" fill="#eac485"/>
      <path id="Path_18580" data-name="Path 18580" d="M238.112,185.013l-22.007,18.4a1.428,1.428,0,0,0-.849-.378l9.5-9.4q5.929-5.871,11.862-11.743c1.455-1.442-.694-3.495-2.217-2.217q-12.256,10.276-24.479,20.588,7.648-7.483,15.305-14.95,6.564-6.389,13.127-12.775c1.165-1.136-.436-3.369-1.791-2.323l-.3.232h0c-.006,0-.01.01-.016.013q-12.73,9.84-25,20.252,4.352-4.1,8.735-8.171,6.714-6.23,13.469-12.411c1.349-1.236-.636-3.175-1.994-1.994q-12.648,11-25.293,21.991a2.812,2.812,0,0,1-1.843,4,6.165,6.165,0,0,1-2.853.077q-4.279,3.722-8.561,7.441c1.065-1.236,2.1-2.491,3.091-3.795a.52.52,0,0,0,.1-.287c1.246-1.336,2.511-2.652,3.766-3.976a5.373,5.373,0,0,1-2.065-2.143q-5.421,5.658-10.668,11.481-1.573,1.757-3.13,3.527c-2.714,2.62-5.363,5.308-8.048,7.954-.3.3-.6.6-.91.9.032,0,.061,0,.094,0,1.959.284,5.676-5.5,8.067-6.06,2.333-.549,3.869.365,5.405,1.936,1.862,1.907,2.982,2.885,5.431,1.488,1.191-.678,2.139-1.733,3.366-2.385,2.259-1.2,4.611-1.368,6.728.158,3.088,2.227.106,7.4-3.011,5.15-1.146-.826-5.576,3.395-6.906,3.892-2.791,1.046-5.008.381-7.257-1.4-.365-.29-2.827-3.311-3.046-3.275.055-.01-2.343,3.1-2.749,3.459-2.081,1.849-3.995,2.962-6.589,2.875-1.413,1.468-2.817,2.943-4.195,4.443a123.27,123.27,0,0,0-8.6,10.368c-.465.636.52,1.313,1.055.813,3.195-2.985,6.289-6.079,9.371-9.184a1.525,1.525,0,0,0,.494.6c-.913.868-1.826,1.73-2.724,2.617a18.484,18.484,0,0,0-3.566,4.327.488.488,0,0,0,.662.661,18.515,18.515,0,0,0,4.476-3.078c.032-.026.065-.055.1-.081-.432.591-.855,1.194-1.258,1.807-.92,1.4,1.036,2.611,2.172,1.675.491-.407.978-.816,1.471-1.223-.816.92-1.636,1.833-2.44,2.762a1.267,1.267,0,0,0,1.791,1.791q3.49-3.083,7.019-6.138c-.91,1.278.891,2.859,2.194,1.778.236-.194.471-.39.707-.584-.048.978.842,2.007,1.839,1.255.6-.449,1.188-.91,1.781-1.359-.5.516-1,1.033-1.494,1.555a1.217,1.217,0,0,0,1.72,1.72c5.934-5.566,12.243-10.746,18.551-15.88.62-.5,1.252-.991,1.872-1.494q-9.216,8.437-18.442,16.861c-1.175,1.068.52,2.656,1.71,1.71,2.3-1.833,4.627-3.646,6.944-5.463-1.362,1.21-2.733,2.414-4.092,3.627-1.139,1.016.5,2.533,1.639,1.639,5.986-4.669,12.059-9.232,18.151-13.769-3.227,3.149-6.46,6.3-9.729,9.4-1.262,1.2.607,3.02,1.894,1.894,3.947-3.453,7.948-6.854,11.852-10.358a1.11,1.11,0,0,0,.549-.323c.9-.933,1.862-1.817,2.791-2.724a1.157,1.157,0,0,0,.355-1.194c3.963-3.7,7.916-7.412,11.8-11.194,1.475-1.436-.668-3.388-2.2-2.2l-1.42,1.113q2.74-2.377,5.486-4.747c1.452-1.258-.623-3.208-2.075-2.075-2.882,2.252-5.741,4.537-8.59,6.828q6.06-5.411,12.072-10.881a1.6,1.6,0,0,0-1.2-2.656c.349-.294.7-.581,1.046-.875,1.329-1.129-.468-3.511-1.885-2.443q-2.2,1.66-4.376,3.359l5.776-4.8a1.247,1.247,0,0,0,1.762-.281q1.447-1.786,2.891-3.582a1.543,1.543,0,0,0-2.181-2.181ZM200.46,204.964a.812.812,0,0,0-.726-.539h-.016c4.327-3.846,8.687-7.657,13.111-11.391Q206.643,199,200.46,204.964Zm3.982,12.52q-4.564,3.664-9.177,7.27c-.219.171-.445.339-.665.51.239-.242.474-.487.713-.729q8.427-6.994,16.854-13.992Q208.266,213.976,204.442,217.485Z" transform="translate(-125.464 -126.915)" fill="#eac485"/>
      <path id="Path_18581" data-name="Path 18581" d="M160.781,335.427c1.668-1.584,3.317-3.185,4.969-4.782a2.76,2.76,0,0,1-1-.358,2.6,2.6,0,0,1-2.146-.716c-1.175,1.162-2.352,2.32-3.517,3.495-1.568,1.578-3.12,3.162-4.66,4.769-1.378,1.439-3.317,3.036-4.127,4.882-.213.481.158,1.307.8,1.039,1.823-.755,3.353-2.465,4.8-3.779q2.469-2.246,4.879-4.547Z" transform="translate(-117.728 -236.509)" fill="#eac485"/>
    </g>
  </g>
  <g id="Group_17268" data-name="Group 17268">
    <path id="Path_18582" data-name="Path 18582" d="M100.065,177.619c-27.713,1.11-48.652-18.687-55.3-37.661-.781-2.23-1.62-4.437-2.349-6.683-6.473-19.887-1.594-37.213,12.043-52.453a95.107,95.107,0,0,1,8.713-8.229,3.017,3.017,0,0,1,2.84-.323c1.346.981.587,2.285-.361,3.23-2.833,2.82-5.825,5.489-8.564,8.4-8.868,9.419-13.927,20.743-13.321,33.586,1.288,27.3,19.119,50.472,44.457,55.019,11.649,2.091,23.566,2.307,34.663-3.421a2.746,2.746,0,0,1,1.523-.507,3.923,3.923,0,0,1,2.146,1.065,1.963,1.963,0,0,1-.432,1.878,25.477,25.477,0,0,1-4.676,2.724c-6.831,2.917-14.073,3.4-21.385,3.385Z" transform="translate(-26.811 -48.791)" fill="#262c54"/>
    <path id="Path_18583" data-name="Path 18583" d="M194.324,298.119c-2.333-.623-4.5-1.02-6.515-1.785-2.4-.913-4.214-.691-5.524,1.694a8.115,8.115,0,0,1-1.339,1.71c-2.575,2.63-4.815,2.785-7.654.532a7.614,7.614,0,0,1-1.533-1.539c-1.294-1.855-2.569-2.194-4.385-.513a15.473,15.473,0,0,1-4.124,2.582,7.424,7.424,0,0,1-8.98-1.642c-.639-.642-1.194-1.365-1.814-2.03q-2.995-3.2-6.757-.8c-.307.194-.587.429-.891.626-1.207.778-2.433,1.9-3.93.826-1.649-1.178-1.471-2.982-.616-4.4a35.288,35.288,0,0,1,5.024-7c2.481-2.465,5.16-2.223,7.751.119a34.353,34.353,0,0,1,2.485,2.878c2.191,2.482,2.74,2.511,5.144.035,1.388-1.43,2.569-3.075,4.014-4.44,2.656-2.507,4.96-2.339,7.506.349.126.132.223.287.342.423q3.721,4.192,7.938.461c3.056-2.7,5.186-2.924,8.148-.352a85.648,85.648,0,0,1,7.716,7.667,4.033,4.033,0,0,1,.6,3.353c-.207.649-1.752.874-2.607,1.249Zm-12.93-5.75c-1.681.52-3.359,1.049-5.047,1.552-.755.226-1.526.4-2.288.594a9.115,9.115,0,0,0,1.859,2.446,2.35,2.35,0,0,0,2.236-.4,42.461,42.461,0,0,0,3.133-4.3c1.92-.142,3.843-.245,5.754-.458.307-.035.845-.655.784-.845-.636-1.988-3.22-2.966-4.579-1.639a14.063,14.063,0,0,0-1.855,3.049Zm-21.627,5.215c.552-.152,1.255-.3,1.93-.536,3.653-1.268,5.276-4.827,7.98-7.173.158-.139-.094-1.036-.394-1.346-.323-.332-1.081-.671-1.384-.51a11.336,11.336,0,0,0-2.062,1.672c-2.288,2.02-4.582,4.027-6.825,6.1a1.7,1.7,0,0,0-.313,1.271c.016.177.584.3,1.071.526Zm-10.936-7.577c.3-.132.607-.268.913-.4-.106-.142-.207-.394-.319-.4a5.182,5.182,0,0,0-.987.116C148.57,289.549,148.7,289.778,148.831,290.007Z" transform="translate(-94.567 -191.803)" fill="#262c54"/>
    <path id="Path_18584" data-name="Path 18584" d="M356.586,116.3a56.851,56.851,0,0,1-4.653,23.369,79.268,79.268,0,0,1-18.187,25.644,8.084,8.084,0,0,1-2.127,1.662c-.561.252-1.723.258-1.949-.074a2.776,2.776,0,0,1-.423-2.349,17.986,17.986,0,0,1,2.843-3.266,80.668,80.668,0,0,0,12.659-16.351c12.382-21.469,9.748-44.2-7.228-62.25-1.868-1.985-3.911-3.8-5.805-5.766-.781-.81-1.442-2.023-.255-2.791a3.068,3.068,0,0,1,2.856.048,60.642,60.642,0,0,1,6.351,5.967C350.5,90.824,356.386,103.2,356.586,116.3Z" transform="translate(-222.914 -49.985)" fill="#262c54"/>
    <path id="Path_18585" data-name="Path 18585" d="M0,154.442c-.016-8.087,1.123-15.954,4.5-23.382,1.423-3.133,2.911-4.343,4.027-3.337,1.852,1.665.319,3.33-.326,4.921C1.36,149.5,3.151,166.159,9.689,182.564c1.665,4.176,4.347,7.948,6.593,11.888.358.626.9,1.146,1.3,1.752.778,1.184,2.075,2.475.458,3.779s-2.765-.132-3.563-1.275a88.162,88.162,0,0,1-6.228-9.584A73.466,73.466,0,0,1,0,154.442Z" transform="translate(0.002 -86.27)" fill="#262c54"/>
    <path id="Path_18586" data-name="Path 18586" d="M425.2,143.923c-.633,11.946-1.359,20.484-4.369,28.59a62.938,62.938,0,0,1-4.4,8.722c-.642,1.142-1.949,2.039-3.137.878a3.072,3.072,0,0,1-.142-2.84c9.287-17.112,9.2-35.212,5.628-53.634-.581-2.991-2.046-5.812-3.078-8.719-.439-1.236-.833-2.649.713-3.295,1.507-.629,2.446.568,2.911,1.759,1.326,3.375,3.014,6.725,3.611,10.245,1.216,7.148,1.807,14.4,2.269,18.3Z" transform="translate(-279.644 -76.84)" fill="#262c54"/>
    <path id="Path_18587" data-name="Path 18587" d="M130.739,214.986c-1.255-.933-2.769-1.526-3.23-2.582-.313-.716.616-2.31,1.4-3.1,1.262-1.268,3.011-2.052,4.289-3.308a14.771,14.771,0,0,0,3.211-4.276c1.217-2.717.3-4.773-2.356-6.318-.62-.361-1.465-.429-1.955-.894-.461-.439-.987-1.439-.784-1.81a4.063,4.063,0,0,1,1.939-1.484c.413-.178,1.062.087,1.572.252a30.829,30.829,0,0,1,12.127,7.022c4.5,4.372,3.792,9.861-1.92,12.307-4.437,1.9-9.31,2.772-14.3,4.189Zm7.554-5.518a65.936,65.936,0,0,0,6.676-3.75c.513-.365.581-2.178.142-2.875a12.992,12.992,0,0,0-3.091-2.785c-.081-.065-.658.265-.787.523-1.21,2.372-2.4,4.76-3.517,7.177-.123.268.242.762.578,1.713Z" transform="translate(-86.32 -129.47)" fill="#262c54"/>
    <path id="Path_18588" data-name="Path 18588" d="M278.668,214.782c-4.6-.949-9.206-1.855-13.785-2.882a9.039,9.039,0,0,1-2.927-1.378c-3.037-2.026-3.65-4.879-1.749-7.961a6.745,6.745,0,0,1,1.72-2.072c4.021-2.753,8.061-5.486,12.214-8.032.684-.419,1.959.119,2.959.213a9.662,9.662,0,0,1-.674,2.878c-.823,1.384-2.1,2.5-2.924,3.885-1.688,2.82-1.4,4.547,1.1,6.647a39.885,39.885,0,0,0,4.063,2.691,18.189,18.189,0,0,1,3.133,2.1,3.117,3.117,0,0,1,.658,2.356c-.068.474-.962,1-1.581,1.191a7.425,7.425,0,0,1-2.146.045l-.058.319Zm-11.391-13.2a18.451,18.451,0,0,0-2.866,2.294,6,6,0,0,0-.745,2.391c-.032.129.132.329.242.468,1.013,1.265,5.686,2.53,5.786,1.717.152-1.217-.626-2.543-.994-3.827-.2-.687-.326-1.4-.574-2.072-.11-.3-.439-.52-.849-.974Z" transform="translate(-175.507 -130.244)" fill="#262c54"/>
    <path id="Path_18589" data-name="Path 18589" d="M167.662,32.8c2.1.181,4.282.281,6.422.623.513.081,1.323,1.062,1.242,1.484a2.857,2.857,0,0,1-1.378,1.946,7.408,7.408,0,0,1-3.208.2c-8.361-.794-16.2,1.226-23.85,4.318-1.01.407-1.959.968-2.982,1.326-1.21.423-2.623.823-3.253-.765-.613-1.549.665-2.349,1.788-2.92A57.514,57.514,0,0,1,167.659,32.8Z" transform="translate(-95.159 -22.213)" fill="#262c54"/>
    <path id="Path_18590" data-name="Path 18590" d="M180.865,422.636a41.343,41.343,0,0,1-18.51-3.359c-1.417-.571-3.508-1.291-2.746-3.362.833-2.272,2.678-1.029,4.111-.439a40.618,40.618,0,0,0,18.564,3.114c2.165-.155,4.34-.181,6.512-.261,1.294-.048,2.856-.113,3.078,1.462.271,1.914-1.481,2.233-2.885,2.53a18.387,18.387,0,0,1-3.237.307c-1.626.048-3.256.013-4.886.013Z" transform="translate(-107.995 -280.811)" fill="#262c54"/>
    <path id="Path_18591" data-name="Path 18591" d="M44.431,47.5c-.484-.949-1.175-1.694-1.162-2.423a4.751,4.751,0,0,1,1.062-2.452c5.441-7.4,11.581-14.027,20.139-17.925a6.98,6.98,0,0,1,2.517-.945,3.088,3.088,0,0,1,2.143,1.062c.261.323-.058,1.446-.461,1.9A6.793,6.793,0,0,1,66.423,28.2c-7.69,3.517-13.24,9.468-18.28,16a20.8,20.8,0,0,1-1.591,2.2,9.019,9.019,0,0,1-2.123,1.1Z" transform="translate(-29.306 -16.083)" fill="#262c54"/>
    <path id="Path_18592" data-name="Path 18592" d="M265.992,36.65c4.234,1.571,8.177,2.93,12.007,4.556.681.29.887,1.694,1.313,2.585-.933.294-1.985,1.026-2.782.81-3.85-1.042-7.632-2.346-11.439-3.546-1.275-.4-2.714-.994-2.036-2.517.384-.862,1.862-1.239,2.94-1.888Z" transform="translate(-178.052 -24.82)" fill="#262c54"/>
    <path id="Path_18593" data-name="Path 18593" d="M158.055,6.809c-.716-.636-1.7-1.171-2.052-1.981-.161-.371.82-1.7,1.481-1.885,4.024-1.11,8.093-2.062,12.175-2.936.539-.116,1.7.432,1.759.807a5.053,5.053,0,0,1-.539,2.4,1.392,1.392,0,0,1-.891.584c-3.866.994-7.738,1.956-11.93,3.007Z" transform="translate(-105.65 0.009)" fill="#262c54"/>
    <path id="Path_18594" data-name="Path 18594" d="M353.7,367.2c-.336-.271-1.107-.6-1.31-1.149a2.215,2.215,0,0,1,.313-1.93c2.627-2.707,5.311-5.366,8.106-7.9a3.039,3.039,0,0,1,2.43-.313,1.959,1.959,0,0,1,.671,1.778c-1.975,4.218-4.882,7.574-9.326,9.364a6.189,6.189,0,0,1-.887.148Z" transform="translate(-238.611 -240.984)" fill="#262c54"/>
  </g>
</svg>
