<svg id="_07" data-name="07" xmlns="http://www.w3.org/2000/svg" width="143.478" height="141.765" viewBox="0 0 143.478 141.765">
  <g id="Group_17272" data-name="Group 17272" transform="translate(13.895 16.022)">
    <path id="Path_18619" data-name="Path 18619" d="M287.824,207.06c-2.21-4.024-9.081-2.843-7.912,2.369C281.064,214.95,290.183,212.333,287.824,207.06Z" transform="translate(-203.392 -154.636)" fill="#75757c"/>
    <path id="Path_18620" data-name="Path 18620" d="M134.266,203.85c-3.333-5.318-11.781-.978-7.432,4.56C129.8,211.959,136.705,208.255,134.266,203.85Z" transform="translate(-98.976 -152.455)" fill="#75757c"/>
    <path id="Path_18621" data-name="Path 18621" d="M212.953,319.105a12.964,12.964,0,0,0-10.726,1.033C197.109,329.131,222.963,325.636,212.953,319.105Z" transform="translate(-150.405 -231.678)" fill="#ba8b54"/>
    <path id="Path_18622" data-name="Path 18622" d="M234.168,205.6c.339-.307.681-.61,1.023-.916a16.137,16.137,0,0,1,.413-2.849c-.807.923-1.617,1.849-2.436,2.762a.708.708,0,0,0,1,1Z" transform="translate(-171.689 -152.723)" fill="#eac485"/>
    <path id="Path_18623" data-name="Path 18623" d="M157.447,98.315c-.494.236-.987.471-1.471.72a.63.63,0,0,0-.6.006,10.93,10.93,0,0,0-2.2,1.549,94.318,94.318,0,0,0-9.113,6.273l-.065.048c.881-.929,1.752-1.865,2.6-2.827.613-.691,1.223-1.394,1.83-2.094a16.655,16.655,0,0,0,2.659-2.649,1.068,1.068,0,0,0,.213-.536c.326-.342.652-.687.987-1.016a1.06,1.06,0,0,0,.207-1.242c.239-.232.484-.461.723-.694a1.153,1.153,0,0,0-.481-1.888c.294-.439.568-.891.855-1.355.294-.481-.323-1.184-.816-.816-.142.106-.284.207-.423.31.1-.184.207-.361.3-.545.465-.91.755-1.843,1.139-2.782.265-.649-.713-.955-1.065-.449-.539.778-1.171,1.491-1.71,2.275-.565.82-1.117,1.652-1.678,2.472q-1.583,2.314-3.3,4.527c-1.355.829-2.714,1.662-4.056,2.507,3.379-3.737,6.609-7.622,9.678-11.6a1.1,1.1,0,0,0-.707-1.691c.2-.207.41-.416.616-.623a1.011,1.011,0,0,0-1.22-1.581c-2.54,1.449-5.008,3.014-7.415,4.673,1.236-1.226,2.478-2.449,3.711-3.679,1.378-1.375-.636-3.233-2.085-2.085L143,84.775c1.83-1.688,3.653-3.385,5.483-5.069a1.244,1.244,0,0,0-1.5-1.946c-.929.565-1.839,1.162-2.759,1.746.774-.742,1.555-1.478,2.33-2.223,1.046-1.01-.345-2.933-1.591-2.062-.094.065-.187.136-.281.2.584-.513,1.158-1.036,1.743-1.546,1.139-1-.342-2.9-1.613-2.094-.478.3-.949.62-1.423.926a1.332,1.332,0,0,0-2.072-.426q-4.5,3.988-8.99,7.98-5,3.621-9.823,7.5a2.392,2.392,0,0,1,1.594.549,17.954,17.954,0,0,1,8.719,2.1c.581-.432,1.162-.862,1.743-1.294-.513.468-1.026.939-1.536,1.407a19.9,19.9,0,0,1,6.612,5.6,14.265,14.265,0,0,1-.82,18.093q.639-.508,1.281-1.016c-.845.82-1.684,1.646-2.546,2.446a.648.648,0,0,0-.045.862c-3.595,3.049-7.07,6.251-10.507,9.442a1.249,1.249,0,0,0-.139,1.63l-5.576,5.208a1.506,1.506,0,0,0-2.323-.407c-1.581,1.378-3.172,2.746-4.756,4.121q8.393-8.035,16.79-16.064l2.836-2.256a17.108,17.108,0,0,1-6.686,1.826q-7.217,6.878-14.437,13.75c1-1.11,1.988-2.223,2.985-3.327a.6.6,0,0,0,.152-.607q4.337-4.627,8.868-9.061c.307-.232.6-.474.91-.71A20.584,20.584,0,0,1,117.4,118.2q-8.684,8.127-17.364,16.251,7.227-7.73,14.986-14.937c.584-.539,1.178-1.068,1.772-1.6a20.4,20.4,0,0,1-3.846-2.462,1.444,1.444,0,0,0,.229.742c-.632.52-1.268,1.029-1.9,1.555a.587.587,0,0,0-.894-.21c-2.249,1.681-4.489,3.35-6.689,5.076q3.926-4.211,7.951-8.329a17.846,17.846,0,0,1-2.591-3.169,15.979,15.979,0,0,1-1.968-4.485q-11.244,10.247-21.627,21.388-3.466,3.306-6.928,6.615c5.821-6.977,12.275-13.443,18.693-19.868a1.5,1.5,0,0,0,.394-.658,1.357,1.357,0,0,0,1.02-.368q4.182-3.727,8.361-7.457a16.182,16.182,0,0,1-.439-4.524c-.061.058-.126.116-.187.174-.694.668-1.365,1.362-2.049,2.039a1.439,1.439,0,0,0-2.349-.7l-4.853,4.376.332-.319.013-.013c1.284-1.213,2.572-2.42,3.876-3.614,1.862-1.7,3.75-3.375,5.647-5.037a16.224,16.224,0,0,1,1.029-2.982c2.785-6.07,7.283-7.209,13.2-7.838.607-.607,1.22-1.21,1.82-1.82.829-.839,1.649-1.688,2.475-2.53.8-.607,1.588-1.22,2.388-1.82,3.482-2.6,7.015-5.134,10.5-7.741a1.393,1.393,0,0,0-1.175-2.5c.626-.5,1.255-1,1.868-1.51l-.023-.023a1.525,1.525,0,0,0,.058-1.891.7.7,0,0,0-.549-.455,1.239,1.239,0,0,0-1.2.139c-1.3.829-2.562,1.73-3.811,2.649a4.73,4.73,0,0,0,1.317-2.049c.681-.552,1.349-1.117,2.036-1.662,1.113-.887.013-2.307-1.155-2.191.555-.665,1.107-1.333,1.63-2.033a.515.515,0,0,0-.081-.678.58.58,0,0,0,.045-.042c-.381-.239-.765-.468-1.136-.729-.058-.032-.113-.068-.171-.1a.07.07,0,0,1,.013-.016c-.2-.145-.41-.287-.61-.445-.013-.01-.023-.026-.035-.036q-9.55,6.931-19.061,13.914c2.449-2.175,4.9-4.356,7.319-6.564,1.5-1.365,3.011-2.72,4.476-4.121,1.326-1.268,3.256-2.694,3.711-4.553.065-.265-.136-.639-.455-.6-1.675.219-3.024,1.494-4.295,2.569a1.113,1.113,0,0,0-1.6-.361q-2.948,2.231-5.892,4.466c.552-.539,1.11-1.065,1.659-1.607,1.8-1.788,4.185-3.656,5.128-6.076a.6.6,0,0,0-.736-.736c-2.375.862-4.256,3.13-6.034,4.844-2,1.926-3.963,3.879-5.928,5.837-2.717,2.707-5.379,5.489-8.012,8.293l-.045.035-4.482,3.4c7.025-6.931,13.985-13.934,20.578-21.252A1.025,1.025,0,0,0,120.3,56.41q-2.222,1.994-4.408,4.03a1.579,1.579,0,0,0-.81-.991c1.455-1.288,2.907-2.582,4.366-3.863,1.284-1.129-.574-2.924-1.859-1.859q-6.762,5.6-13.524,11.191,5.053-4.516,10.255-8.864c1.352-1.129-.568-2.949-1.91-1.91q-7,5.426-13.879,11c.084-.081.168-.161.248-.245,3.159-3.12,6.354-6.218,9.432-9.416a1.358,1.358,0,0,0-.939-2.223c.326-.307.652-.61.978-.913.987-.929-.481-2.375-1.481-1.481q-7.217,6.462-14.389,12.979,3.441-3.548,6.88-7.1a1.363,1.363,0,0,0-1.133-2.291c.51-.549,1.029-1.175.833-1.93a.6.6,0,0,0-.432-.432c-.91-.148-1.452.513-2.046,1.129-.71.742-1.381,1.517-2.059,2.288-.891,1.013-1.788,2.02-2.685,3.03-.694.52-1.384,1.046-2.052,1.6-.784.649-1.546,1.323-2.32,1.985q1.888-1.733,3.782-3.459c1.075-.978-.1-2.456-1.255-2.21Q92.3,54.1,94.706,51.731c1.158-1.136-.555-2.785-1.759-1.759q-4.211,3.6-8.348,7.277c.307-.326.616-.649.92-.975.791-.842-.455-2.1-1.271-1.271-1.578,1.6-3.146,3.211-4.718,4.815.42-.465.842-.926,1.249-1.4.481-.558-.171-1.61-.849-1.1-.907.681-1.8,1.388-2.675,2.107,1.165-1.126,2.33-2.252,3.475-3.4.916-.916-.323-2.675-1.433-1.855a151.533,151.533,0,0,0-11.923,9.878,107.872,107.872,0,0,0,9.061-9.519c.452-.571-.123-1.575-.849-1.1C71.35,56.2,67.874,59.834,64.36,63.455a80.509,80.509,0,0,0-9.719,11.491c-.407.616.468,1.191.975.752.116-.1.226-.21.342-.313a76.576,76.576,0,0,0-6.3,7.932.6.6,0,0,0,.255.884c-1.488,1.536-2.956,3.088-4.385,4.673-.971,1.078.555,2.633,1.6,1.6,5.518-5.428,11.32-10.594,16.983-15.867,3.256-3.03,6.612-6,9.839-9.084C66.3,73.387,58.671,81.277,50.988,89.112c-1.465,1.455-2.92,2.917-4.334,4.418a1.253,1.253,0,0,0,.174,1.926c-.871.849-1.752,1.691-2.611,2.552-1.191,1.191.616,2.982,1.843,1.843,3.1-2.875,6.228-5.725,9.342-8.587q-3.233,3.621-6.422,7.28a1.31,1.31,0,0,0,.187,1.959,53.482,53.482,0,0,0-5.957,6.373c-.429.565.407,1.355.968.968a85.165,85.165,0,0,0,7.78-6.48c.871-.765,1.736-1.536,2.6-2.3q-3.262,3.374-6.515,6.754a1.233,1.233,0,0,0,.116,1.836c-1.681,2.133-3.32,4.3-4.882,6.522-.855,1.217.955,2.414,1.965,1.517q5.111-4.545,10.226-9.087-2.836,2.957-5.67,5.912a1.367,1.367,0,0,0-.336.581,30.17,30.17,0,0,0-2.833,3.695c-.774,1.2.962,2.491,1.956,1.507.336-.332.678-.658,1.016-.987l-2.081,2.256a1.436,1.436,0,0,0,2.03,2.03q.939-.833,1.872-1.672c-1.349,1.442-2.7,2.875-4.047,4.327a1.347,1.347,0,0,0,1.9,1.9q6.041-5.387,12.088-10.775A17.488,17.488,0,0,1,57.183,101.6l-3.746,3.359c.532-.662,1.058-1.329,1.572-2.014.674-.9,1.342-1.855,2.049-2.769.165-.171.329-.339.5-.51.126-.494.265-.984.439-1.471A18.728,18.728,0,0,1,68.058,87.534a16.106,16.106,0,0,1,1.868-.581l.636-.655a1.287,1.287,0,0,0,1.455-.242q.712-.653,1.417-1.31l-1.423,1.82c2.394-.294,4.944-.061,6.418,1.391.01.01.016.023.029.035a9.223,9.223,0,0,1,6.054,2.143c.339-.319.681-.632,1.02-.952a1.077,1.077,0,0,0,.365-1.046q8.538-7.667,17.083-15.321l1.484-1.323c-5.7,5.666-11.317,11.42-16.967,17.122a1.578,1.578,0,0,0-.213.158q-1.065.949-2.127,1.891a17.123,17.123,0,0,1,2.068,2.162c.039-.032.081-.065.123-.1l0,0,.039-.039c1.568-1.226,3.017-2.6,4.611-3.795.384-.29.771-.578,1.155-.868l-5.621,5.2a23.635,23.635,0,0,1,3.127,5.605c.5-.465.994-.942,1.5-1.4a1.291,1.291,0,0,0-.352-2.149c2.13-1.691,4.256-3.379,6.454-4.992q4.821-3.543,9.645-7.083,5.291-3.887,10.581-7.77c-1.123,1-2.252,1.988-3.372,2.991-3.472,3.1-6.97,6.18-10.455,9.271a1.25,1.25,0,0,0-1.665.11Q96.92,93.629,90.927,99.538a18.882,18.882,0,0,1,1.21,6.838c.42-.384.842-.765,1.258-1.149a1.013,1.013,0,0,0,1.01-.174c.087-.068.174-.139.261-.207h0l.035-.029c.842-.658,1.665-1.329,2.494-2a1,1,0,0,0-.039.236c-.558.516-1.12,1.029-1.672,1.552-1.146,1.081-2.388,2.149-3.511,3.295-1,5.815-5.453,9.571-10.762,11.362-4.469,4.324-8.939,8.651-13.514,12.856q-2.125,1.955-4.356,3.779a177.516,177.516,0,0,1,13.695-15.647,23.668,23.668,0,0,1-6.667.016c-.187-.026-.368-.065-.552-.1-.474.458-.942.92-1.42,1.375.42-.474.852-.933,1.275-1.4a14.734,14.734,0,0,1-7.68-4.108l-5.353,5.77a1.326,1.326,0,0,0,.584,2.188q-3.4,3.335-6.8,6.67c-1.275,1.249.626,3.1,1.943,1.943q5.934-5.242,11.865-10.487-4.5,5.208-8.764,10.613a1.555,1.555,0,0,0,.7,2.381c-.607.645-1.22,1.284-1.826,1.93a1.336,1.336,0,0,0,1.888,1.888c1.378-1.213,2.74-2.443,4.111-3.663-1.465,1.955-2.888,3.947-4.247,5.979-.778,1.162.742,2.588,1.888,1.888,1.007-.616,1.985-1.271,2.946-1.949a1.352,1.352,0,0,0,2.243.7q6.259-5.62,12.517-11.243-3.65,3.993-7.244,8.038-4.047,4.564-8,9.2a25.555,25.555,0,0,1,2.133,2.088c1.726-1.933,3.459-3.863,5.215-5.77-.436.661-.868,1.326-1.288,2a1.433,1.433,0,0,0,1.442,2.13c-1.081,1.349-2.146,2.711-3.211,4.072.349.394.7.781,1.058,1.165.326.3.639.591.945.881q3.563-4.2,7.209-8.325a1.482,1.482,0,0,0,2.2.265q8.127-8.156,16.522-16.038-3,3.495-5.857,7.109-3.122,2.841-6.241,5.689-2.43,2.222-4.827,4.479c-1.459,1.365-3.375,2.9-4.176,4.773-.271.639.181,1.51.975,1.268,1.914-.587,3.582-2.223,5.066-3.514.833-.723,1.659-1.455,2.488-2.181a1.951,1.951,0,0,0,.148.184,28.12,28.12,0,0,0-5.821,6.376.752.752,0,0,0,1.02,1.02,25.755,25.755,0,0,0,6.292-4.6c-.645.816-1.3,1.62-1.936,2.443-1.2,1.552.7,3.633,2.214,2.214q4.318-4.037,8.632-8.074c-.752,1-1.517,1.994-2.246,3.017a1.475,1.475,0,0,0,.752,2.217,69.231,69.231,0,0,0-4.876,5.147c-.636.762.219,2.188,1.152,1.494.236-.174.468-.358.7-.539a1.184,1.184,0,0,0,1.058-.242l.074-.058a6.092,6.092,0,0,0,2.03-1.423q1.312-1.089,2.64-2.168a1.666,1.666,0,0,0,.355.4c-.242.223-.481.449-.726.668a1.367,1.367,0,0,0,.591,2.336q-1.041,1.012-2.081,2.02a1.683,1.683,0,0,0,2.03,2.633,63.988,63.988,0,0,0,7.406-5.515,1.524,1.524,0,0,0,.758,1.446l-1.039.9c-1.31,1.133.471,3.508,1.878,2.433.107-.081.207-.165.313-.245h0c.016-.016.035-.029.052-.045,2.449-1.888,4.834-3.856,7.235-5.805-.833,1.158.691,3.03,2.007,2.12,4.421-3.066,8.893-6.06,13.379-9.035q-7.319,5.76-14.64,11.52c-1.349,1.058.423,3.359,1.839,2.385,2.978-2.049,5.912-4.163,8.842-6.283a1.731,1.731,0,0,0,.187.158c-.077.052-.148.11-.226.161-.994.671-.058,2.294.945,1.617,2.052-1.381,4.353-2.5,6.5-3.737,2.165-1.246,4.192-2.753,6.254-4.159,4.143-2.824,8.29-5.637,12.391-8.522,1.41-.994.132-3.3-1.375-2.352l-.574.361c1.73-1.32,3.459-2.64,5.176-3.979a.048.048,0,0,0,.01-.006h0c.081-.061.161-.123.242-.187,1.055-.826-.352-2.675-1.446-1.875-1.371.955-2.727,1.926-4.092,2.895,2.349-1.885,4.7-3.766,7.028-5.67,1.158-.945-.355-2.9-1.6-2.078l-1.565,1.036c.032-.039.068-.074.1-.113.871-1.02,1.726-2.049,2.556-3.1a8.446,8.446,0,0,0,2.01-3.388c.161-.865-.971-1.565-1.53-.92a5.377,5.377,0,0,0-.762.49.888.888,0,0,0-.649-.975,2.8,2.8,0,0,0-2.278.284.664.664,0,0,0-.319.694l-3.785,2.9c.652-.739,1.307-1.478,1.946-2.23.2-.232.394-.465.591-.7,1.188-1.042,2.375-2.081,3.556-3.133a1.225,1.225,0,0,0,.319-1.565c1.281-1.623,2.511-3.282,3.633-5,.171-.142.339-.287.51-.429a1.175,1.175,0,0,0,.436-1.087c.4-.674.794-1.355,1.158-2.049a.77.77,0,0,0-.168-.926c.713-.778,1.4-1.575,2.1-2.362a25.241,25.241,0,0,1,.039-8.642ZM80.5,78.973l1.6-2.13q3.093-2.754,6.228-5.46Q84.425,75.188,80.5,78.973ZM98.843,119.99q4.255-4.153,8.609-8.2a1.239,1.239,0,0,0,1.023.261q-7.943,7.014-15.686,14.25Q95.761,123.089,98.843,119.99Zm7.777,23.053a25.142,25.142,0,0,1-9.732.168,2.856,2.856,0,0,1-.842-.313c-2.172-.132-4.26-1.184-3.385-3.985a2.918,2.918,0,0,1,3.827-1.888,3.648,3.648,0,0,0,.407-.029c.371-.077.742-.158,1.113-.249,1.01-.242,2-.539,3.03-.707,2.543-.419,5.2-.074,6.889,2.072,1.242,1.575,1.11,4.46-1.3,4.931Zm29.3-19.52c-.319.329-.645.652-.962.984-.61.642-1.239,1.262-1.875,1.878-.532.452-1.071.9-1.6,1.355Q133.7,125.631,135.923,123.523Zm5.773,8.658a10.133,10.133,0,0,0-1.778,2.691q-1.2,1.292-2.375,2.6-4.976,3.287-9.965,6.557c5.186-4.537,10.336-9.113,15.525-13.643-.468.6-.936,1.2-1.4,1.8Zm9.758-25.841c-.739.436-1.459.9-2.185,1.362,1.046-.987,2.075-1.988,3.082-3.014.649-.662,1.362-1.362,2.026-2.107.6-.368,1.2-.749,1.817-1.094-1.5,1.684-3.095,3.295-4.744,4.85Z" transform="translate(-43.059 -49.65)" fill="#eac485"/>
  </g>
  <g id="Group_17273" data-name="Group 17273">
    <path id="Path_18624" data-name="Path 18624" d="M96.224,217.35c6.776.155,13.211-1.513,19.578-3.559a23.823,23.823,0,0,1,4.153-1.078,1.658,1.658,0,0,1,1.191,2.9,13.614,13.614,0,0,1-3.346,1.662c-24.282,8.774-45.654,3.172-64.648-13.382a34.622,34.622,0,0,1-6.786-8.335,65.8,65.8,0,0,1-9-42.508c.762-6.341,3.4-12.094,6.386-17.677a4.415,4.415,0,0,1,1.3-1.678,2.326,2.326,0,0,1,1.923-.271,2.071,2.071,0,0,1,.949,1.684A9.577,9.577,0,0,1,46.8,138.1c-9.723,18.106-6.831,35.844,1.791,53.273a32.2,32.2,0,0,0,6.754,9.022c11.465,10.729,25,16.78,40.888,16.964Z" transform="translate(-24.961 -90.293)" fill="#262c54"/>
    <path id="Path_18625" data-name="Path 18625" d="M95.446,191.083c5.789.01,9.519-1.22,12.927-3.379,4.853-3.075,6.847-7.712,4.918-13.017-2.643-7.273-7.006-13.008-15.521-13.924a3.5,3.5,0,0,1-1.565-.294c-.526-.378-1.168-1.013-1.184-1.559a2.037,2.037,0,0,1,1.042-1.643,9.461,9.461,0,0,1,3.675-.329c9.49,1.265,18.952,13,18.193,22.508a13.448,13.448,0,0,1-5.018,9.832c-6.757,5.35-14.344,7.425-22.775,4.789-9.881-3.088-14.689-12.695-11.5-22.85a19.619,19.619,0,0,1,7.219-10.484A3.134,3.134,0,0,1,88.7,160.5c1.384.984.529,2.165-.368,3.175a40.712,40.712,0,0,0-3.83,4.5c-3.32,5.063-3.824,10.549-1.049,15.9,2.8,5.4,8.054,6.754,11.988,7.006Z" transform="translate(-52.6 -106.254)" fill="#262c54"/>
    <path id="Path_18626" data-name="Path 18626" d="M252.687,163.877a25.16,25.16,0,0,1-3.759-.058c-.561-.084-1.5-.868-1.442-1.194a3.311,3.311,0,0,1,1.229-2.039,6.411,6.411,0,0,1,2.581-.661c7.574-1.1,16.012,2.82,19.791,9.471a17.228,17.228,0,0,1,2.159,6.57c1.068,10.662-7.312,20.452-17.961,20.739-9.006.242-16.66-2.74-21.278-11.12a16.678,16.678,0,0,1,3.3-20.739,7.209,7.209,0,0,1,2.236-1.41,1.542,1.542,0,0,1,1.433.381c.355.5.7,1.413.478,1.855a21.521,21.521,0,0,1-2.214,3.024c-5.612,7.338-3.863,16.354,4.137,21.188a21.139,21.139,0,0,0,10.278,2.911c8.487.329,15.063-5.805,15.66-14.511.484-7.077-5.944-13.737-13.934-14.4-.894-.074-1.8-.01-2.7-.01v.01Z" transform="translate(-156.987 -108.193)" fill="#262c54"/>
    <path id="Path_18627" data-name="Path 18627" d="M350.3,126.912c.2,17.454-7.031,31.64-19.139,43.679a5.851,5.851,0,0,1-2.091,1.63,3.087,3.087,0,0,1-2.34-.471c-.326-.226-.336-1.433-.035-1.914a28.441,28.441,0,0,1,2.42-2.859c2.633-3.178,5.447-6.234,7.838-9.587,13.666-19.161,12-46.522-2.943-64.758-2.243-2.736-5.331-4.769-7.89-7.264-.639-.623-1.275-2.01-1-2.649.626-1.449,2.162-1.271,3.2-.432,2.914,2.365,6.083,4.563,8.461,7.406,8.98,10.733,13.172,23.321,13.518,37.222Z" transform="translate(-220.161 -55.297)" fill="#262c54"/>
    <path id="Path_18628" data-name="Path 18628" d="M0,58.871c1.136-4.14,1.968-8.4,3.466-12.4,3.269-8.748,8.761-16.1,15.376-22.6A86.594,86.594,0,0,1,59.766.88,33.137,33.137,0,0,1,66.158,0,2.372,2.372,0,0,1,67.9,1.564a2.489,2.489,0,0,1-1.378,1.91,35.192,35.192,0,0,1-4.718,1.1,80.986,80.986,0,0,0-44.5,26.906c-7.18,8.338-12.4,17.68-12.872,29.068-.058,1.4-.077,3.317-1.968,3.262C.187,63.75.636,61.623.5,60.09c-.032-.358,0-.72,0-1.081-.165-.048-.332-.094-.5-.142Z" transform="translate(0 0.002)" fill="#262c54"/>
    <path id="Path_18629" data-name="Path 18629" d="M189.019,374.215c-1.02-.145-2.985-.329-4.892-.762-.5-.113-1.258-1.129-1.142-1.5a2.75,2.75,0,0,1,1.536-1.71,16.4,16.4,0,0,1,3.746-.165,92.035,92.035,0,0,0,45.719-12.575c5.647-3.243,10.813-7.1,14.586-12.559.4-.584.833-1.339,1.423-1.559a3.405,3.405,0,0,1,2.391.052c.365.168.607,1.342.4,1.862a9.167,9.167,0,0,1-1.914,3.2c-3.475,3.35-6.747,7.054-10.7,9.739-15.1,10.262-32.04,15.079-51.146,15.967Z" transform="translate(-123.929 -232.45)" fill="#262c54"/>
    <path id="Path_18630" data-name="Path 18630" d="M124.624,45.65c-.836.768-1.352,1.6-2.056,1.814a23.378,23.378,0,0,1-4.26.662C105.634,49.442,95,55.085,85.646,63.466a22.351,22.351,0,0,1-3.291,2.765,2.391,2.391,0,0,1-2.294-.184c-.416-.494-.248-1.607-.094-2.407.087-.461.613-.871,1-1.242,10.975-10.584,23.7-17.451,39.194-18.409a7.8,7.8,0,0,1,2.659.194c.584.174,1.029.81,1.81,1.471Z" transform="translate(-54.048 -29.773)" fill="#262c54"/>
    <path id="Path_18631" data-name="Path 18631" d="M199.121,322.344c-4.827.239-8.1-2.875-11.7-5.076-.491-.3-.591-1.588-.507-2.378a3.868,3.868,0,0,1,1.068-1.82c3.6-4.208,13.492-5.483,17.993-2.349,4.092,2.849,3.821,7.7-.71,9.858a37.54,37.54,0,0,1-6.141,1.765Zm-.39-4.45c3.627-.045,5.847-1.091,5.731-2.507s-2.527-2.472-5.489-2.43c-3.54.052-7.093,1.494-6.486,2.452,1.5,2.378,4.14,2.4,6.247,2.485Z" transform="translate(-126.581 -209.273)" fill="#262c54"/>
    <path id="Path_18632" data-name="Path 18632" d="M121.6,205.84a6.7,6.7,0,0,1-7.041-7.08c0-4.124,3.111-7.79,6.576-7.741,5.547.077,9.832,3.159,9.852,7.086.023,4.037-4.514,7.774-9.384,7.735Zm5.1-7.674c-.013-1.539-1.694-2.575-4.024-2.472-2.569.11-4.166,1.336-4.118,3.159a3.187,3.187,0,0,0,3.059,3.043c2.336.1,5.1-1.923,5.086-3.73Z" transform="translate(-77.593 -129.378)" fill="#262c54"/>
    <path id="Path_18633" data-name="Path 18633" d="M118.742,106.739c-.368.281-.852.926-1.41,1a6.61,6.61,0,0,1-2.617-.29,25.067,25.067,0,0,0-14.811.684c-3.566,1.175-7.186,2.478-8.306,6.831a2.293,2.293,0,0,1-2.01,1.062,2.7,2.7,0,0,1-1.31-2,6.26,6.26,0,0,1,3-5.95,29.205,29.205,0,0,1,24.563-4.443c1.381.352,2.743.978,2.907,3.1Z" transform="translate(-59.767 -69.519)" fill="#262c54"/>
    <path id="Path_18634" data-name="Path 18634" d="M285.377,196.92c-.219,6.225-5.5,9.681-10.132,7.854a5.634,5.634,0,0,1-3.627-5.482c.074-4.179,4.4-8.7,8.6-8.835a3.069,3.069,0,0,1,2.372.836c1.249,2.117,2.2,4.4,2.791,5.625ZM277.229,201c2.53.071,4.263-1.365,3.911-3.117a3.33,3.33,0,0,0-1.917-2.1c-1.42-.471-3.395,1.413-3.34,3.253.023.758.994,1.488,1.342,1.962Z" transform="translate(-183.969 -128.997)" fill="#262c54"/>
    <path id="Path_18635" data-name="Path 18635" d="M430.941,185.2c-.713,4.379-1.317,8.629-2.165,12.827-.168.826-1.268,2.046-1.968,2.065-1.668.052-1.7-1.5-1.649-2.765a20.916,20.916,0,0,1,.436-3.73c1.481-6.438.942-12.8-.5-19.158a28.482,28.482,0,0,1-.674-5.276,1.986,1.986,0,0,1,1.3-1.417,2.672,2.672,0,0,1,1.8.781,2.492,2.492,0,0,1,.716,1.4c.929,5.1,1.817,10.2,2.711,15.27Z" transform="translate(-287.463 -113.603)" fill="#262c54"/>
    <path id="Path_18636" data-name="Path 18636" d="M95.7,393.725c-4.431-1.9-9.019-3.5-13.237-5.8-3.443-1.868-6.467-4.524-9.616-6.912a9.594,9.594,0,0,1-2.1-2.388,1.515,1.515,0,0,1,.113-1.468,2.521,2.521,0,0,1,1.83-.742,6.748,6.748,0,0,1,2.317,1.271c2.2,1.559,4.418,3.095,6.528,4.766a34.556,34.556,0,0,0,12.988,6.309,11.91,11.91,0,0,1,3.075.929c.639.378,1.394,1.413,1.275,1.985-.126.62-1.178,1.1-1.888,1.526-.255.155-.7-.006-1.055-.023-.077.181-.155.361-.236.542Z" transform="translate(-47.827 -254.939)" fill="#262c54"/>
    <path id="Path_18637" data-name="Path 18637" d="M263.836,95.246c7.1.6,13.021,3.085,17.445,8.667a8.5,8.5,0,0,1,1.32,2.281,1.554,1.554,0,0,1-.31,1.43c-.52.358-1.465.726-1.878.484a12.964,12.964,0,0,1-2.827-2.394c-4.811-5.153-10.694-6.9-17.554-5.628-.349.065-.752.358-1.02.255-.745-.287-1.862-.594-2.03-1.139a2.434,2.434,0,0,1,.771-2.233,57.5,57.5,0,0,1,6.079-1.73Z" transform="translate(-174.024 -64.506)" fill="#262c54"/>
    <path id="Path_18638" data-name="Path 18638" d="M255.991,5.213a29.248,29.248,0,0,1,12.895,3.279c1.21.581,2.278,1.594,1.284,2.92a3,3,0,0,1-2.753.62c-4.372-1.743-8.777-3.095-13.566-2.82-1.32.074-2.672-.4-2.672-1.956,0-1.536,1.342-1.933,2.662-2.033C254.555,5.168,255.275,5.213,255.991,5.213Z" transform="translate(-170.127 -3.519)" fill="#262c54"/>
    <path id="Path_18639" data-name="Path 18639" d="M242.146,42.91c5.073,1.63,10.162,3.211,15.192,4.96.594.207.858,1.355,1.275,2.068a11.222,11.222,0,0,1-2.549,1.262c-.613.136-1.352-.336-2.043-.513-4.482-1.158-8.99-2.243-13.434-3.533-.82-.239-1.4-1.317-2.088-2.007.8-.555,1.575-1.152,2.411-1.639.265-.155.7-.026,1.055-.026.058-.19.119-.381.177-.571Z" transform="translate(-161.538 -29.063)" fill="#262c54"/>
    <path id="Path_18640" data-name="Path 18640" d="M43.225,335.463c-.774.336-1.8,1.188-2.423.958a5.985,5.985,0,0,1-2.814-2.285,38.931,38.931,0,0,1-3.362-6.622c-.255-.662.639-1.765,1-2.665.742.332,1.784.461,2.172,1.033,1.791,2.643,3.408,5.4,5.063,8.138a6.573,6.573,0,0,1,.358,1.446Z" transform="translate(-23.422 -220.023)" fill="#262c54"/>
    <path id="Path_18641" data-name="Path 18641" d="M356.668,53.5c-.658.332-1.865,1.32-2.23,1.071-2.8-1.917-5.466-4.03-8.071-6.209-.31-.258-.126-1.352.123-1.933a1.652,1.652,0,0,1,1.326-.658c2.123.074,8.125,4.744,8.738,6.706a8.037,8.037,0,0,1,.11,1.02Z" transform="translate(-234.488 -30.999)" fill="#262c54"/>
  </g>
</svg>
