<svg id="_08" data-name="08" xmlns="http://www.w3.org/2000/svg" width="136.843" height="141.111" viewBox="0 0 136.843 141.111">
  <g id="Group_17276" data-name="Group 17276" transform="translate(10.922 15.049)">
    <g id="Group_17274" data-name="Group 17274" transform="translate(80.305 49.141)">
      <path id="Path_18642" data-name="Path 18642" d="M289.526,219.639c-.032-.013-.058-.029-.09-.042-.081-.032-.161-.061-.245-.1.11.048.223.094.332.142Z" transform="translate(-287.094 -212.861)" fill="#75757c"/>
      <path id="Path_18643" data-name="Path 18643" d="M289.777,201.173a3.431,3.431,0,0,0-1.365-1.739,3.585,3.585,0,0,0-2.691-.41c-.065,0-.129-.01-.194-.01a1.957,1.957,0,0,0-.987.226,2.643,2.643,0,0,0-.339.219,3.652,3.652,0,0,0-.994,1.068,3.386,3.386,0,0,0-.439,1.113,3.442,3.442,0,0,0,.413,2.507,3.6,3.6,0,0,0,.713.833,4.4,4.4,0,0,0,1.146.678,3.681,3.681,0,0,0,1.391.3,3.791,3.791,0,0,0,1.684-.429,3.585,3.585,0,0,0,1.846-2.933,3.156,3.156,0,0,0-.184-1.426Z" transform="translate(-282.696 -198.926)" fill="#75757c"/>
    </g>
    <path id="Path_18644" data-name="Path 18644" d="M137.6,198.757c-.065-.042-.136-.065-.2-.1a1.516,1.516,0,0,0,.016-.174.4.4,0,0,0-.01-.061c.016-.084.032-.168.042-.258l-.029.039a1.365,1.365,0,0,0-1.02-1.42c-1.51-.374-2.753,1.207-3.459,2.34a7.591,7.591,0,0,0-1.11,3.369,2.967,2.967,0,0,0,2.039,3.282,4.78,4.78,0,0,0,.481.068l-.142-.019c-.281-.039-.19-.026.274.035a1.856,1.856,0,0,0,.268.006,3.057,3.057,0,0,0,.9-.165,3.613,3.613,0,0,0,1.575-1.01,3.465,3.465,0,0,0,.591-1.023,3.013,3.013,0,0,0-.21-4.915Z" transform="translate(-100.197 -148.295)" fill="#75757c"/>
    <path id="Path_18645" data-name="Path 18645" d="M194.17,298.957c-.1.068-.2.132-.3.2.207-.261.4-.532.629-.771.691-.739-.09-2.068-.971-1.781a1.163,1.163,0,0,0-1.9-1.233c-.155.132-.313.261-.468.394.726-1-.787-1.881-1.61-1.226-.7.558-1.407,1.1-2.127,1.636.532-.707,1.071-1.407,1.63-2.091a1.126,1.126,0,0,0-1.591-1.591q-1.491,1.22-2.978,2.443c.526-.668,1.046-1.342,1.575-2.007.794-.991-.5-2.385-1.43-1.43-.116.116-.232.229-.345.348.11-.126.213-.255.326-.381a1.21,1.21,0,0,0-1.71-1.71c-.629.594-1.271,1.178-1.9,1.772.3-.394.587-.791.887-1.184.639-.839-.439-2.062-1.342-1.781a1.1,1.1,0,0,0-1.549-.213c-1.194,1.036-2.43,2.01-3.659,2.988a1.129,1.129,0,0,0-1.865-1.107c-.061.052-.119.11-.177.161a1.11,1.11,0,0,0-1.678-.181c-1.846,1.578-3.637,3.217-5.4,4.885.465-.7.936-1.4,1.4-2.11.691-1.049-.926-2.33-1.755-1.355q-2.212,2.595-4.424,5.192a.685.685,0,0,0-1.075.094c-1.4,2.014-2.888,3.988-4.169,6.079a1.1,1.1,0,0,0,1.41,1.526,1.141,1.141,0,0,0,1.907.642c.116-.129.239-.255.355-.384a1,1,0,0,0,1.71.4q1.457-1.655,2.966-3.259c-.245.371-.5.733-.739,1.107-.878,1.368,1.217,2.507,2.139,1.252.539-.733,1.091-1.452,1.649-2.165a1.149,1.149,0,0,0,1.956.371c.287-.326.578-.649.868-.975-.461,1.107,1.213,2.152,2.149,1.271q1.263-1.191,2.523-2.385a1.377,1.377,0,0,0,1.075,1.146c-.207.242-.413.484-.616.726a1.283,1.283,0,0,0,1.814,1.814l2.459-2.1c-.278,1.081,1.336,1.9,2.269,1.136q.615-.5,1.223-1.013c-.1.123-.2.245-.3.365a1.279,1.279,0,0,0,1.807,1.807c.2-.158.4-.329.6-.49a1.291,1.291,0,0,0,2.146.545c.481-.413.962-.823,1.442-1.236a1.249,1.249,0,0,0,1.878,1.042c.074-.045.145-.1.216-.142a1.27,1.27,0,0,0,2.475.478,9.335,9.335,0,0,1,2.052-3.666c.855-.945-.274-2.669-1.436-1.862Z" transform="translate(-116.603 -210.194)" fill="#ba8b54"/>
    <g id="Group_17275" data-name="Group 17275">
      <path id="Path_18646" data-name="Path 18646" d="M62.988,140.133q4.419-4.066,8.835-8.138a1.5,1.5,0,0,0-.035.413Q67.6,137.446,63.4,142.488a1.523,1.523,0,0,0,2.152,2.152q3.456-2.948,6.915-5.892a7.846,7.846,0,0,1,.177-2.659,2.528,2.528,0,0,1,2.656-2.1c3.35-4.547,10.291-7.515,16.112-8.432q6.781-7.449,13.563-14.9c-3.182-3.843-4.886-8.861-3.869-13.695q-7.343,8.708-14.682,17.412l-8.1,7.444q3.233-3.863,6.47-7.725a1.6,1.6,0,0,0,.394-1.168q8.04-8.229,16.044-16.489c1.739-6.583,11.714-15.518,18.961-12.995q1.418-1.733,2.833-3.469,5.363-6.564,10.733-13.127c1.078-1.31-.726-3.195-1.894-1.894l-5.947,6.609c1.133-1.346,2.256-2.7,3.391-4.043,1.1-1.3-.668-3.143-1.894-1.894q-12.183,12.4-24.366,24.789,7.6-9.134,15.205-18.264,5.5-6.6,11-13.2c1.091-1.31-.684-3.175-1.9-1.9q-2.444,2.546-4.886,5.092c-.035-.029-.065-.055-.1-.084a1.3,1.3,0,0,0-1.562.2c-2.817,2.7-5.405,5.689-8.032,8.577-2.582,2.843-5.173,5.683-7.722,8.558q-4.134,4.656-8.19,9.374c-1.326,1.375-2.646,2.756-3.976,4.127q8.117-9.8,16.235-19.591,5.862-7.067,11.723-14.131A1.368,1.368,0,0,0,118.9,57.23c-1.336,1.113-2.649,2.256-3.95,3.414,1.42-1.713,2.836-3.427,4.224-5.166a1.094,1.094,0,0,0-1.546-1.546c-.6.532-1.2,1.075-1.8,1.613a.89.89,0,0,0-1.491-.194q-4.124,4.627-8.287,9.213-2.72,2.59-5.4,5.228,2.827-3.432,5.657-6.86c2.94-3.575,5.831-7.193,8.771-10.768.987-1.2-.62-2.9-1.743-1.743q-.949.983-1.894,1.965c.077-1.123-1.3-2.152-2.133-1.081q-5.315,6.868-10.9,13.5-1.471,1.51-2.92,3.04c4.192-5.192,8.329-10.433,12.178-15.873a.741.741,0,0,0,.132-.568c.458-.487.913-.981,1.371-1.468a1.144,1.144,0,0,0-1.617-1.617c-.339.29-.671.591-1.01.881-.084-.336-.452-.613-.778-.361A54.03,54.03,0,0,0,98.31,56.4q-4.894,4.356-9.69,8.813,2.672-3.02,5.347-6.034c3.13-3.514,6.228-7.044,9.264-10.639.9-1.065-.623-2.614-1.542-1.542-4.969,5.221-9.839,10.542-14.676,15.893q4.351-5.629,8.709-11.252a1.3,1.3,0,0,0-1.83-1.83c-.184.152-.361.31-.545.461a1.24,1.24,0,0,0-1.187.361q-2.938,2.841-5.86,5.7-3.214,2.856-6.341,5.808,5.668-6.622,11.336-13.25c.636-.742-.423-1.826-1.084-1.084L87.745,50.56c.807-1.171-.678-2.72-1.762-1.617-1.446,1.471-2.84,3.007-4.282,4.489q.987-1.118,1.978-2.236a1.167,1.167,0,0,0-1.649-1.649q-8.8,7.735-17.18,15.928,1.839-2.9,3.688-5.789c.126-.129.252-.258.374-.387C72.65,55.44,76.8,51.909,80.32,47.853c.432-.5-.116-1.326-.733-.949a58.424,58.424,0,0,0-10.132,8.371.9.9,0,0,0-.823.307q-5.8,6.554-11.588,13.111c2.165-3.224,4.237-6.515,6.144-9.894A1.238,1.238,0,0,0,61.252,57.3,158.97,158.97,0,0,0,40.1,82.3c-.523.791.72,1.781,1.333,1.029,4.608-5.654,9.248-11.249,14.156-16.612-1.752,2.817-3.563,5.6-5.46,8.329A178.6,178.6,0,0,1,37.07,91.242c-.913,1.023.591,2.54,1.51,1.513Q49.326,80.548,60.136,68.4c.139-.145.278-.287.416-.432L57.119,73.22Q51.91,78.568,46.873,84.082,42.134,89.29,37.56,94.65c-.939,1.1.591,2.685,1.607,1.607,1.294-1.371,2.594-2.733,3.892-4.1a169.531,169.531,0,0,0-9.09,15.7c-.616,1.21,1.039,2.73,2,1.546Q52.8,88.7,69.626,68q2.827-2.812,5.657-5.628,2.987-2.962,5.97-5.925c1.255-1.249,2.594-2.42,3.934-3.588a.978.978,0,0,0,.526-.032q-6.273,7-12.533,14.024Q64.432,76.34,56.067,86.176A16.788,16.788,0,0,1,67.325,82.62a2.884,2.884,0,0,1,.345.042q3.955-4.506,7.9-9.019-3.548,4.618-7.083,9.239a2.8,2.8,0,0,1,.816.568,17.4,17.4,0,0,1,13.843,7.8c.536-.574,1.071-1.146,1.607-1.72-.516.607-1.029,1.217-1.542,1.823a15.141,15.141,0,0,1,.9,1.613,18.094,18.094,0,0,1,.971,2.549q3.243-3.727,6.489-7.451,5.692-6.539,11.355-13.114,2.454-2.348,4.966-4.634L85.454,96.992a16.061,16.061,0,0,1-.281,7.59q3.175-3.35,6.376-6.673,5.562-5.75,11.126-11.494-7.27,8.65-14.534,17.3-4.981,5.929-9.965,11.859a1.394,1.394,0,0,0-.307-1.868,16.137,16.137,0,0,1-5.624,1.778c-9.129,1.171-18.739-3.169-21.13-12.23-1.639,1.981-3.285,3.959-4.9,5.957-2.265,2.8-4.9,5.634-6.531,8.858-.326.645.558,1.462,1.068.826a.025.025,0,0,1,.013-.013c2.8-2.152,5.066-5.089,7.37-7.748.336-.387.665-.784,1-1.171-.042.152-.09.3-.119.452a.506.506,0,0,0,.594.613q-2.812,3.775-5.621,7.551c-1.133,1.546,1.436,3.007,2.562,1.5,1.6-2.194,3.272-4.331,5-6.415-.3.452-.607.9-.91,1.352-.029.035-.065.071-.094.106-1.081,1.294-2.146,2.6-3.153,3.956-1.078,1.446-1.923,2.982-2.872,4.508a.473.473,0,0,0,0,.52q-1.4,2.077-2.8,4.156c-.971,1.439,1.229,3.13,2.4,1.855q6.791-7.367,13.563-14.757-3.974,5.412-8.306,10.549c-1.2,1.494.868,3.643,2.143,2.143a79.835,79.835,0,0,1,7.448-8.038l-11.02,14.46c-1.029,1.349,1.188,3,2.33,1.8.781-.823,1.568-1.642,2.349-2.465a1.576,1.576,0,0,0,2.249.177l9.232-7.248Q58,134.055,52.394,141.792c-1.062,1.465,1.223,3.108,2.452,1.894q3.277-3.238,6.554-6.473l-.623.742a1.557,1.557,0,0,0,2.2,2.2Zm38.768-31.54q-2.836,3.374-5.676,6.751Q93.708,118.166,91.35,121a1.678,1.678,0,0,0-.671-.6q5.542-5.9,11.078-11.807ZM83.463,123.137q3.766-4.211,7.528-8.425-3.771,4.593-7.545,9.184a1.486,1.486,0,0,0-.21,1.613q-3.025,2.585-6.054,5.169,3.141-3.771,6.276-7.541Zm-5.7-7.077-.665.791a1.605,1.605,0,0,0-.374.836q-2.4,2.367-4.8,4.734,2.866-3.224,5.837-6.36Z" transform="translate(-33.835 -46.64)" fill="#eac485"/>
      <path id="Path_18647" data-name="Path 18647" d="M250.375,171.974q-1.7,1.97-3.4,3.937c.51-.8,1.016-1.61,1.51-2.423.816-1.346-1.152-2.378-2.052-1.2-.026.035-.052.071-.077.1q2.2-3.267,4.353-6.567a1.263,1.263,0,0,0-.639-1.881,1.342,1.342,0,0,0-2.259-.629q-2.328,2.265-4.66,4.527c.407-.629.823-1.252,1.223-1.885A34.436,34.436,0,0,0,247.8,160c.319-.842-.913-1.5-1.491-.868a35.723,35.723,0,0,0-3.295,4.792q-1.694,2.609-3.443,5.182c-.649.955-1.31,1.9-1.972,2.846a13.964,13.964,0,0,1,1.391,5.65c.229-.265.458-.526.687-.787-.226.323-.458.639-.684.958.068,6.215-4.45,11.481-10.433,14q-6.355,8.146-13.082,16.009a8.262,8.262,0,0,1,1.61,4.431c.229,3.537-2.294,6.086-5.641,6.609-.223.036-.455.048-.684.077-.1.084-.207.158-.3.242.068-.077.139-.152.207-.229a35.733,35.733,0,0,1-5.75.132c-.6.445-1.213.878-1.814,1.326.455-.452.916-.9,1.375-1.342-2.63-.126-5.279-.361-7.754-.329-.4,0-.865.029-1.365.068q-3.664,3.829-7.335,7.648a1.475,1.475,0,0,0-.052,1.943c-.342.39-.694.774-1.033,1.171a1.47,1.47,0,0,0,1.439,2.427c0,.006-.01.01-.013.016a1.418,1.418,0,0,0,2,2c.762-.626,1.539-1.226,2.3-1.843a1.274,1.274,0,0,0,.845.026c.7-.213,1.391-.458,2.081-.7l-.407.452a1.425,1.425,0,0,0,2.014,2.014c1.9-1.668,3.888-3.237,5.931-4.718-.313.745-.6,1.5-.855,2.278a1.155,1.155,0,0,0-.052.387l-1.271,1.142c-1.2,1.081.39,3.2,1.749,2.269q2.251-1.554,4.36-3.282a.519.519,0,0,0,.058.032,1.305,1.305,0,0,0,1.972.916c1.094-.784,2.168-1.594,3.24-2.411a32.916,32.916,0,0,0,8.248-5.36,1.679,1.679,0,0,0,.436.236,1.447,1.447,0,0,0,2.343.923q2.362-1.951,4.647-3.988a1.338,1.338,0,0,0,2.175.365c4.6-5.821,9.4-11.384,14.489-16.783a1.324,1.324,0,0,0-.742-2.2,80.063,80.063,0,0,0,7.461-11.249c.3-.561-.484-1.258-.926-.716-1.484,1.826-2.924,3.682-4.36,5.547.513-.836,1.013-1.672,1.5-2.517a1.428,1.428,0,0,0-1.336-2.139,39.465,39.465,0,0,0,5.428-9.261c.216-.591-.594-.962-1-.581a32.156,32.156,0,0,0-3.575,4.056,1.644,1.644,0,0,0-.207-.087c.345-.481.694-.958,1.039-1.439a13.941,13.941,0,0,0,1.381-2.017c.3-.632.4-1.61-.455-1.865a1.261,1.261,0,0,0-1.21.287c1.688-2.656,3.279-5.363,4.824-8.112.726-1.294-1.087-2.836-2.123-1.639Zm-41.02,53.486-2.23,2c.342-.574.7-1.136,1.091-1.681.49-.3.981-.613,1.478-.907-.113.2-.226.39-.336.587Zm12.9-8.467c-.035.032-.071.068-.1.1q-1.733,1.423-3.472,2.836a1.169,1.169,0,0,0-.439-1.775q6.96-7.28,14.121-14.382-5.058,6.607-10.1,13.221Zm1.078-9.3c3.433-4.066,6.857-8.138,10.329-12.172q1.723-2,3.443-4C232.727,197.093,228.058,202.453,223.334,207.69Z" transform="translate(-137.261 -122.658)" fill="#eac485"/>
      <path id="Path_18648" data-name="Path 18648" d="M141.544,337.228c-5.137.2-10.129-.449-10.81-4.508q-5.334,6.355-10.413,12.924l-.006.006h0l-.232.3c-1.084,1.41,1.136,2.811,2.323,1.794q6.239-5.339,12.472-10.681c-1.53,1.749-3.043,3.511-4.527,5.3a1.45,1.45,0,0,0,2.049,2.049q4.574-3.592,9.142-7.183Z" transform="translate(-92.054 -240.405)" fill="#eac485"/>
      <path id="Path_18649" data-name="Path 18649" d="M166.1,345.454q-5.034,5.087-10.068,10.174a1.425,1.425,0,0,0,2.014,2.014q7.14-6.636,14.724-12.762c-1.968.194-4.321.468-6.667.574Z" transform="translate(-116.314 -248.641)" fill="#eac485"/>
      <path id="Path_18650" data-name="Path 18650" d="M260.4,258.421a19.883,19.883,0,0,1-2.862.532,15.757,15.757,0,0,1-10.755-3.033q-2.885,3.606-5.766,7.212l-3.424,4.282c3.846.623,8.19,1.975,11.026,4.508Q254.507,265.17,260.4,258.421Zm-13.892,9.519q2.807-2.74,5.618-5.479c-1.168,1.375-2.333,2.756-3.482,4.15-.465.561-.913,1.136-1.375,1.7A1.273,1.273,0,0,0,246.506,267.94Z" transform="translate(-171.84 -188.387)" fill="#eac485"/>
      <path id="Path_18651" data-name="Path 18651" d="M230.1,247.82c-3.311,3.695-6.667,7.351-9.987,11.039a1.443,1.443,0,0,0-.365.745c-.791.665-1.572,1.336-2.362,2a19.256,19.256,0,0,1,2.827-.077c.478.026.984.065,1.5.116.206-.2.407-.4.613-.594a1.3,1.3,0,0,0,.429-.826q4.777-5.184,9.552-10.371a19.347,19.347,0,0,1-2.21-2.03Z" transform="translate(-158.158 -182.901)" fill="#eac485"/>
      <path id="Path_18652" data-name="Path 18652" d="M304.44,132.935a8.4,8.4,0,0,1,2.652,2.165,18.946,18.946,0,0,1,2.375,1.349c.177-.194.352-.387.526-.581-.158.207-.326.4-.484.61a27.706,27.706,0,0,1,4.4,3.682l1.63-2.043q5.436-6.815,10.884-13.621c1.058-1.32-.7-3.2-1.9-1.9l-8.106,8.755c2.469-3.421,4.869-6.889,7.17-10.426a1.208,1.208,0,0,0-1.888-1.459q-6.307,6.878-12.614,13.76,4.942-5.9,9.894-11.8c1.1-1.3-.7-3.178-1.9-1.9l-12.637,13.411Z" transform="translate(-217.118 -95.716)" fill="#eac485"/>
      <path id="Path_18653" data-name="Path 18653" d="M345.234,146.548q-5.315,6.1-10.684,12.156a22.515,22.515,0,0,1,2.207,2.678c.468-.584.936-1.165,1.4-1.749q4.492-5.6,8.939-11.223c1.029-1.3-.729-3.166-1.865-1.865Z" transform="translate(-237.512 -114.008)" fill="#eac485"/>
      <path id="Path_18654" data-name="Path 18654" d="M55.275,200.17c1.775-1.894,3.521-3.817,5.27-5.737a16.681,16.681,0,0,1-.361-2.107,17.327,17.327,0,0,1,1.943-10.455c-.184.219-.371.436-.555.655-3.546,3.947-7.093,7.893-10.539,11.92a1.338,1.338,0,0,0-.242,1.391c-.707.9-1.417,1.788-2.12,2.688-.945,1.213.652,2.946,1.739,1.739.281-.313.568-.623.849-.933a10.891,10.891,0,0,0-1.655,2.93.491.491,0,0,0,.045.423,25.591,25.591,0,0,0-1.61,2.223c-.6.952.91,1.868,1.488,1.049a57.5,57.5,0,0,0,5.744-5.783Z" transform="translate(-43.36 -138.232)" fill="#eac485"/>
    </g>
  </g>
  <g id="Group_17277" data-name="Group 17277">
    <path id="Path_18655" data-name="Path 18655" d="M261.961,143.9c-.468-10.229-3-19.636-8.777-28.084-.61-.891-1.21-1.791-1.746-2.724-.581-1.01-.842-2.291.407-2.743a3.453,3.453,0,0,1,2.775.755,13.36,13.36,0,0,1,2.249,3.007c6.664,9.949,9.271,21.052,8.58,32.837-1.455,24.908-14.8,41.759-36.654,52.44A56.142,56.142,0,0,1,209.173,205a26.785,26.785,0,0,1-6.418-.352c-.561-.087-1.187-1.236-1.323-1.981-.071-.394.774-1.2,1.352-1.4a8.642,8.642,0,0,1,2.662-.236c11.549-.181,21.978-4.1,31.22-10.61,11.146-7.851,19.542-18.122,22.988-31.646,1.233-4.84,1.562-9.91,2.307-14.873Z" transform="translate(-136.424 -74.685)" fill="#262c54"/>
    <path id="Path_18656" data-name="Path 18656" d="M99.567,186c-11.252.032-18.555-5.831-20.081-15.334-1.562-9.732,4.218-19.916,13.1-22.879,1.488-.5,3.337-1,4.7-.552,4.389,1.459,8.98,2.811,12.846,5.231,5.837,3.656,8.622,9.555,8.622,16.464,0,6.464-3.011,11.336-8.751,14.408a21.738,21.738,0,0,1-10.442,2.659ZM83.352,166.029c.09,9.4,4.563,14.87,12.475,15.757a25.148,25.148,0,0,0,10.016-1.1c6.615-2.068,9.916-7.738,8.79-14.173-1.333-7.615-7.59-13.614-13.666-12.737-1.481.213-2.956.381-3.817-1.146-1.129-1.994-2.64-1.494-4.137-.723-6.322,3.249-9.581,8.429-9.661,14.118Z" transform="translate(-53.66 -99.604)" fill="#262c54"/>
    <path id="Path_18657" data-name="Path 18657" d="M66.391,63.036c.574.371,1.246.565,1.388.952a2.414,2.414,0,0,1,.013,1.936,11.834,11.834,0,0,1-2.449,2.033c-2.614,1.9-5.382,3.614-7.854,5.686C42.034,86.59,36.326,103.082,39.949,122.828a100.624,100.624,0,0,0,2.74,10.975c2.4,7.916,6.425,14.818,13.1,19.962,1.246.958,3.146,2.081,1.8,3.846-1.323,1.743-3.082.4-4.169-.707-3.13-3.191-6.77-6.15-8.987-9.923-8.409-14.3-11.446-29.842-8.322-46.2C39.307,84.089,50.008,72.775,63.98,64.114a19.321,19.321,0,0,1,2.414-1.084Z" transform="translate(-23.646 -42.692)" fill="#262c54"/>
    <path id="Path_18658" data-name="Path 18658" d="M254.684,194.674a22.9,22.9,0,0,1-13.3-3.717c-5.766-3.772-8.487-9.155-7.861-16.051a20.671,20.671,0,0,1,5.357-12.688c1.781-1.872,4.292-3.127,6.635-4.347.645-.339,1.875.439,2.836.707-.41.874-.774,1.775-1.255,2.607-.152.261-.61.352-.933.507-5.679,2.685-7.835,7.667-8.525,13.45-.694,5.8,1.762,10.126,6.8,12.975a19.925,19.925,0,0,0,15.144,1.9c7.738-1.965,11.9-10.781,9.151-19.119a14.71,14.71,0,0,0-8.845-9.568c-.833-.329-1.888-.355-2.5-.9a8.681,8.681,0,0,1-1.4-2.478c.916-.368,1.936-1.194,2.727-1.016a19.9,19.9,0,0,1,5.5,2.085c7.267,4.189,10.959,13.6,8.777,21.972-2.256,8.655-8.922,13.64-18.3,13.682Z" transform="translate(-158.105 -106.28)" fill="#262c54"/>
    <path id="Path_18659" data-name="Path 18659" d="M107.465.009a75.17,75.17,0,0,1,35.8,8.687c2.669,1.388,3.527,2.8,2.546,3.917-1.526,1.733-3.014.29-4.343-.381-10.445-5.273-21.436-8.387-33.2-8.138-18.684.394-35.225,6.441-49.143,19.145a20.935,20.935,0,0,1-3.295,2.756A2.39,2.39,0,0,1,53.54,25.8a2.659,2.659,0,0,1-.048-2.385,9.723,9.723,0,0,1,2.149-2.385A75.03,75.03,0,0,1,99.93.683c2.323-.255,4.656-.419,7.535-.674Z" transform="translate(-36.052 -0.003)" fill="#262c54"/>
    <path id="Path_18660" data-name="Path 18660" d="M164.016,297.652c5.082.62,9.181,1.265,13.3,1.568a29.961,29.961,0,0,0,8.048-.281c3.872-.781,4.727-3.792,2.269-6.851a10.317,10.317,0,0,0-1.126-1.158,21.921,21.921,0,0,0-33.744,4.553c-.855,1.368-1.572,2.843-2.543,4.118a1.976,1.976,0,0,1-1.846.491A4.72,4.72,0,0,1,147.2,298c-.1-.265.136-.691.274-1.017,3.785-8.884,13.666-17.993,26.2-15.576,4.824.933,9.552,2.146,13.527,5.082a18.471,18.471,0,0,1,5.024,5.473,6.619,6.619,0,0,1-2.914,9.642,16.616,16.616,0,0,1-7.2,1.791,101.326,101.326,0,0,1-12.346-1.065,34.268,34.268,0,0,0-13.4.545,2.963,2.963,0,0,1-2.636-.949c-.82-1.475.445-2.433,1.688-2.711,3.133-.7,6.325-1.168,8.606-1.572Z" transform="translate(-99.677 -190.336)" fill="#262c54"/>
    <path id="Path_18661" data-name="Path 18661" d="M89.438,361.5c-24.192-1.542-43.815-11.559-58.472-30.952-1-1.326-2.927-3.169-.936-4.6,2.462-1.775,3.275,1.207,4.311,2.575,10.481,13.876,24.266,22.685,41.03,26.964a53.814,53.814,0,0,0,19.762,1.475c.536-.065,1.065-.2,1.6-.216,1.317-.042,2.788.113,2.688,1.762a3,3,0,0,1-2,1.975c-2.627.532-5.328.713-7.987,1.029Z" transform="translate(-19.749 -220.391)" fill="#262c54"/>
    <path id="Path_18662" data-name="Path 18662" d="M192.545,41.515a33.221,33.221,0,0,0-16.283-1.93c-4.608.581-9.193,1.368-13.782,2.107a21.505,21.505,0,0,1-3.127.723,6.417,6.417,0,0,1-2.243-.952c.407-.865.768-1.755,1.252-2.578.145-.248.623-.326.962-.432,9.916-3.033,19.962-4.292,30.23-2.03a11,11,0,0,1,3.537,1.22c.758.484,1.136,1.562,1.684,2.378l-2.233,1.494Z" transform="translate(-106.408 -23.888)" fill="#262c54"/>
    <path id="Path_18663" data-name="Path 18663" d="M348.9,316.424c-.536-1.229-1.413-2.33-1.152-2.83a14.319,14.319,0,0,1,2.772-3.2c5.224-5.2,10.542-10.316,14.266-16.777,1.252-2.168,2.3-4.456,3.414-6.7.574-1.155,1.223-2.475,2.73-1.959,1.872.645,1.568,2.294.862,3.6-2.217,4.088-4.156,8.422-6.973,12.065-3.608,4.666-7.925,8.787-12.03,13.056a26.911,26.911,0,0,1-3.888,2.74Z" transform="translate(-235.498 -192.928)" fill="#262c54"/>
    <path id="Path_18664" data-name="Path 18664" d="M106.867,110.953c1.026.216,2.982.516,4.869,1.065a6.01,6.01,0,0,1,2.714,1.607,2.906,2.906,0,0,1,.342,2.356c-.11.4-1.126.7-1.762.765-.474.048-.984-.374-1.494-.539-8.587-2.765-16.638-1.426-24.25,3.188-1.191.723-2.3,2.03-3.795.732-1.133-.987-.416-2.891,1.891-4.279a33.756,33.756,0,0,1,21.485-4.9Z" transform="translate(-56.188 -75.029)" fill="#262c54"/>
    <path id="Path_18665" data-name="Path 18665" d="M278.059,201.425c-4.014-.074-6.66-2.594-6.512-6.2.155-3.734,3.724-7.4,7.19-7.393a7.544,7.544,0,0,1,7.08,7.322c-.087,3.866-3.169,6.36-7.758,6.276Zm3.579-6.605c-.158-1.684-1.462-2.114-2.956-2.2a2.522,2.522,0,0,0-2.885,2.43c-.2,1.633.949,2.114,2.307,2.2C280.147,197.391,281.612,196.414,281.638,194.819Z" transform="translate(-183.914 -127.22)" fill="#262c54"/>
    <path id="Path_18666" data-name="Path 18666" d="M274.07,109.29a24.96,24.96,0,0,1,16.225,6.451,11.119,11.119,0,0,1,2.34,2.869,2.019,2.019,0,0,1-.419,1.872,2.133,2.133,0,0,1-1.891.271,7.664,7.664,0,0,1-2.139-1.581,20.681,20.681,0,0,0-16.828-5.47,28.282,28.282,0,0,1-4.818.113c-.555-.039-1.533-.8-1.491-1.139.087-.736.587-1.9,1.12-2.026,2.6-.607,5.263-.929,7.9-1.355Z" transform="translate(-179.514 -74.024)" fill="#262c54"/>
    <path id="Path_18667" data-name="Path 18667" d="M370,66.84a11.457,11.457,0,0,1,2.582,1.388,34.415,34.415,0,0,1,4.3,4.8c2.43,3.553,4.653,7.251,6.9,10.926a19.551,19.551,0,0,1,1.63,3.395c.49,1.326,1.191,2.985-.52,3.792-1.82.858-2.456-.845-3.085-2.123-3.191-6.467-6.812-12.643-11.843-17.893A3.144,3.144,0,0,1,368.94,69.3,7.71,7.71,0,0,1,370,66.84Z" transform="translate(-249.882 -45.272)" fill="#262c54"/>
    <path id="Path_18668" data-name="Path 18668" d="M134.875,372.163c-4.137-1.672-8.261-3.282-12.33-5.031a3.731,3.731,0,0,1-1.839-1.843,3.022,3.022,0,0,1,.316-2.349,1.914,1.914,0,0,1,1.855-.248c3.917,2.653,8.325,3.985,12.84,5.121,1.236.313,2.562,1.058,1.9,2.591-.313.723-1.565,1.042-2.74,1.759Z" transform="translate(-81.669 -245.563)" fill="#262c54"/>
    <path id="Path_18669" data-name="Path 18669" d="M6.661,259.4c-.184.219-.6,1.068-1.262,1.368-.413.187-1.275-.352-1.8-.752a2.4,2.4,0,0,1-.813-1.359c-.8-4.2-1.61-8.406-2.217-12.637-.074-.529.968-1.655,1.578-1.72a2.39,2.39,0,0,1,1.91,1.365c.945,4.36,1.691,8.764,2.6,13.73Z" transform="translate(-0.381 -165.467)" fill="#262c54"/>
    <path id="Path_18670" data-name="Path 18670" d="M310.869,68.093c-1.039.394-2.056,1.133-2.469.878q-5.242-3.2-10.245-6.783c-.39-.281-.29-1.668.019-2.346a1.955,1.955,0,0,1,1.862-.471c3.211,1.93,6.37,3.95,9.445,6.086C310.1,65.886,310.285,66.931,310.869,68.093Z" transform="translate(-201.767 -40.156)" fill="#262c54"/>
    <path id="Path_18671" data-name="Path 18671" d="M4.122,205.154a21.347,21.347,0,0,1-.762,3.627,2.075,2.075,0,0,1-1.652,1c-.552-.019-1.513-.678-1.549-1.117a30.236,30.236,0,0,1,0-6.392c.094-.7,1.407-1.242,2.162-1.855A7.845,7.845,0,0,1,3.8,202.453a9.182,9.182,0,0,1,.058,2.669c.087.01.171.023.258.032Z" transform="translate(0.013 -135.747)" fill="#262c54"/>
    <path id="Path_18672" data-name="Path 18672" d="M134.991,195.683c.006,4.321-1.733,6.534-5.228,6.664a6.8,6.8,0,0,1-7.186-6.392,7.309,7.309,0,0,1,7.273-7.086c3.208.061,5.137,2.617,5.144,6.815ZM128.7,192.32c-.907,1.9-1.726,2.862-1.749,3.846a1.933,1.933,0,0,0,2.536,1.9,2.748,2.748,0,0,0,1.43-2.272C130.809,194.86,129.848,194.024,128.7,192.32Z" transform="translate(-83.018 -127.922)" fill="#262c54"/>
  </g>
</svg>
