<svg id="_09" data-name="09" xmlns="http://www.w3.org/2000/svg" width="144.407" height="143.002" viewBox="0 0 144.407 143.002">
  <g id="Group_17278" data-name="Group 17278" transform="translate(12.149 16.703)">
    <path id="Path_18673" data-name="Path 18673" d="M142.172,261.914a6.7,6.7,0,0,0,3.159,2.933,3.923,3.923,0,0,0,3.846-.852,4.277,4.277,0,0,0,1.236-3.324,4.329,4.329,0,0,0-.555-1.878,4.087,4.087,0,0,0-1.394-1.384,4.226,4.226,0,0,0-2.01-.565,4.614,4.614,0,0,0-2.107.478l.4-.171a5.3,5.3,0,0,0-1.1.491,3.28,3.28,0,0,0-1.152,1.207,4.563,4.563,0,0,0-.484,1.726,2.153,2.153,0,0,0,0,.432,4.358,4.358,0,0,0,.152.91Z" transform="translate(-108.331 -190.664)" fill="#75757c"/>
    <path id="Path_18674" data-name="Path 18674" d="M274.088,254.972a3.791,3.791,0,0,0,1.93,2.53,5.192,5.192,0,0,0,.5.207,2.478,2.478,0,0,0,1.759.2,2.356,2.356,0,0,0,.729-.319,2.822,2.822,0,0,0,.726-.49,2.908,2.908,0,0,0,.82-1.455,3.264,3.264,0,0,0,.068-.771c.026-.129.048-.258.068-.39a6.025,6.025,0,0,0,.087-1.523,4.566,4.566,0,0,0-.507-1.772A3.71,3.71,0,0,0,279.157,250a2.918,2.918,0,0,0-1.275-.523,3.421,3.421,0,0,0-1.242,0,3.037,3.037,0,0,0-.839.316l.41-.174a3.33,3.33,0,0,0-1.359.887,3.534,3.534,0,0,0-.771,1.526,6.461,6.461,0,0,0,.006,2.94Z" transform="translate(-197.674 -185.636)" fill="#75757c"/>
    <path id="Path_18675" data-name="Path 18675" d="M39.954,101.058q7.14-5.184,14.26-10.4c-1.91,1.6-3.8,3.233-5.634,4.934-1.781,1.649-3.563,3.3-5.311,4.979s-3.817,3.375-5.037,5.5a.7.7,0,0,0,.949.949c2.156-1.023,3.979-2.924,5.744-4.492.029-.026.058-.055.087-.081-.432.984.694,2.349,1.762,1.946-.442.358-.887.71-1.329,1.068-1.258,1.029-2.52,2.072-3.746,3.143a16.232,16.232,0,0,0-3.456,3.659.632.632,0,0,0,.707.92c3.043-1.029,5.689-3.543,8.209-5.5q4.017-3.112,7.925-6.357,1.825-1.51,3.627-3.049-2,1.738-3.995,3.472-6.588,5.721-13.169,11.446c-1.313,1.142.461,3.508,1.885,2.443q1.384-1.036,2.769-2.075c-.326.265-.655.526-.981.791-1.326,1.071.432,3.379,1.836,2.381L95.334,82.374C83.9,92.452,71.9,101.9,59.76,111.11a.137.137,0,0,1-.023.016q5.92-4.71,11.691-9.606c.6-.51-.184-1.526-.839-1.087q-7.885,5.247-15.55,10.826Q51.288,114,47.6,116.834q-1.854,1.438-3.7,2.875c-1.165.907-2.662,1.881-3.324,3.237a.883.883,0,0,0,.984,1.278,6.284,6.284,0,0,0,2.378-1.113c-.933,1.246.413,3.324,1.855,2.272q1.515-1.108,3.033-2.214c-.207.181-.413.358-.62.539-1.113.978-2.236,1.943-3.324,2.949a12.339,12.339,0,0,0-2.8,3.056c-.255.487.171,1.184.758.987a11.584,11.584,0,0,0,3.285-2.136c1.107-.871,2.185-1.775,3.269-2.675,2.281-1.9,4.553-3.808,6.777-5.77,4.172-3.685,8.216-7.509,12.3-11.281l23.953-17.47c-10.22,9.458-21,18.326-31.892,26.98q-6.718,5.339-13.492,10.617c-1.2.939.384,3.014,1.639,2.127q1.258-.891,2.517-1.778c-1.907,1.475-3.8,2.972-5.6,4.569a1.118,1.118,0,0,0,1.349,1.749c3.54-2.317,6.864-4.989,10.252-7.522q5-3.742,9.955-7.567c.329-.255.658-.516.987-.771Q59.71,127.53,51.277,135.3c-1.4,1.294.616,3.143,2.039,2.039q5.165-4.008,10.329-8.022-3.127,2.7-6.247,5.408c-1.3,1.133-.032,2.795,1.349,2.7-2.256,1.83-4.514,3.656-6.751,5.508-1.178.975.381,3.014,1.646,2.13q2.377-1.66,4.727-3.372-1.157.929-2.31,1.862c-1.136.913.352,2.836,1.562,2.027q4.719-3.156,9.435-6.322a.8.8,0,0,0,.01.087c-.207.148-.41.3-.616.449-3.775,2.707-7.7,5.231-11.423,8a1.2,1.2,0,0,0,1.21,2.068c3.546-2.085,6.922-4.518,10.3-6.86q2.241-1.549,4.456-3.13c2.049-1.317,4.095-2.63,6.121-3.963q3.291-2.164,6.586-4.324c-5.169,4.792-10.3,9.626-15.315,14.573C65.6,147.974,62.5,149.6,60,151.8c-.845.745.048,2.4,1.142,1.959,3.127-1.249,5.986-3.353,8.816-5.16,2.849-1.817,5.663-3.7,8.451-5.612a156.941,156.941,0,0,0,15.825-12.285c.571-.358,1.149-.71,1.717-1.071-.171.145-.339.3-.51.442q-8.8,7.5-17.858,14.692c-3.479,2.759-6.922,5.56-10.449,8.258-1.417,1.081-.126,3.5,1.439,2.465q7.633-5.073,15.283-10.116a1.4,1.4,0,0,0,1.478.055c.307-.177.61-.361.916-.539-4.408,3.595-8.926,7.054-13.263,10.736-.862.733.216,1.868,1.117,1.439a.216.216,0,0,0,.023.035q5.116-3.412,10.074-7.18l6.157-4.347q.958-.678,1.917-1.352c-5.1,4.818-10.213,9.629-15.376,14.379-1.042.958.355,2.849,1.542,2,.907-.652,1.82-1.288,2.736-1.923a1.208,1.208,0,0,0,1.626.39q6.583-3.621,12.869-7.693-4.719,3.882-9.448,7.761c-1.326,1.084.458,3.437,1.849,2.4q12.28-9.192,24.544-18.406-4.516,3.8-9.035,7.6-6.776,5.687-13.553,11.372c-1.2,1.01.342,2.9,1.649,2.136q15.315-8.921,29.868-19.048-6.065,4.99-12.188,9.907t-12.327,9.752c-1.136.884.31,2.549,1.484,1.923,7.209-3.843,14.153-8.135,20.946-12.662q-4.865,4.206-9.729,8.413c-1.32,1.146.436,3.469,1.885,2.443q14.773-10.445,29.458-21c1.381-1,.081-3.308-1.355-2.317-1.872,1.288-3.737,2.588-5.608,3.882q6.118-5.315,12.236-10.629c1.268-1.1-.452-3.395-1.823-2.362-10.094,7.615-20.207,15.237-30.778,22.185,9.435-7.483,18.8-15.041,27.826-23.034q5.881-5.208,11.575-10.617c1.242-1.184-.587-2.943-1.862-1.862a413.147,413.147,0,0,1-45.551,33.292q17.082-14.294,34.173-28.581,6.791-5.668,13.55-11.375c1.21-1.023-.426-3.191-1.713-2.22Q139.709,119.4,127.59,128.39q5.4-4.792,10.671-9.713,6.835-6.409,13.385-13.108c1.481-1.52-.694-3.537-2.275-2.275-7.412,5.912-14.615,12.082-22.137,17.851q-6.249,4.792-12.617,9.426c8-6.689,15.918-13.482,23.644-20.494q6.331-5.746,12.472-11.7c1.42-1.378-.649-3.291-2.12-2.12q-5.508,4.39-11.026,8.768,2.817-2.507,5.6-5.06c1.542-1.423,3.085-2.843,4.589-4.308,1.488-1.449,3.359-2.943,4.311-4.821a.662.662,0,0,0-.9-.9,18.085,18.085,0,0,0-4.311,3.233c-1.478,1.275-2.943,2.562-4.411,3.85q-4.23,3.708-8.5,7.37-3.717,3.19-7.5,6.305,3.248-2.924,6.454-5.9,6.38-5.944,12.524-12.14a1.318,1.318,0,0,0-.019-2c1.175-1.21,2.346-2.423,3.485-3.663a1.329,1.329,0,0,0-1.878-1.878c-6.37,5.986-12.691,12.017-19.223,17.832-.51.455-1.029.9-1.539,1.352-6.941,5.447-13.972,10.775-21.2,15.822,9.122-7.557,18.055-15.337,26.5-23.66l.123-.123c.823-.626,1.636-1.262,2.462-1.885,4.627-3.5,9.293-6.944,13.6-10.836.532-.481-.148-1.31-.752-.975-1.872,1.049-3.682,2.181-5.47,3.353.636-.71,1.275-1.417,1.9-2.13,1.1-1.252-.374-3.582-1.9-2.469q-4.148,3.025-8.3,6.047,5.988-5.257,11.836-10.671c1.452-1.349-.7-3.459-2.162-2.162q-9.323,8.243-19.01,16.06,5.111-4.506,10.055-9.2a71.79,71.79,0,0,0,9.529-10.229c.507-.713-.5-1.707-1.21-1.21a103.034,103.034,0,0,0-10.617,9.139q-2.2,2.028-4.437,4.017,5.421-5.818,10.478-11.962c.936-1.142-.3-3.253-1.723-2.233l-17.59,12.6c1.3-1.152,2.6-2.3,3.885-3.469q6.147-5.615,11.952-11.588c1.407-1.455-.665-3.391-2.175-2.175C124.4,70.538,116.741,76.7,109,82.742q4.134-3.8,8.145-7.741,5.276-5.213,10.252-10.717a1.53,1.53,0,0,0-1.846-2.391q-5.988,3.18-11.623,6.928a1.624,1.624,0,0,0-.316-1.478q1.4-1.06,2.811-2.12c1.2-.9,2.4-1.82,3.566-2.775.92-.752,2.423-1.691,2.627-2.943.039-.242-.061-.584-.355-.626a4.2,4.2,0,0,0-2.791,1.016c.687-.607,1.384-1.2,2.049-1.83a.829.829,0,0,0-1-1.3c-2.514,1.517-4.94,3.191-7.325,4.927a1.366,1.366,0,0,0-1.981-.5Q93.36,74.638,75.421,87.957q5.939-5.15,11.881-10.3c3.03-2.139,6-4.379,8.974-6.631q4.4-3.335,8.79-6.7,2.183-1.68,4.334-3.4a16.33,16.33,0,0,0,3.714-3.708.543.543,0,0,0-.542-.8c.716-.723,1.436-1.439,2.123-2.185.933-1.01-.313-2.888-1.546-2-2.491,1.788-5.108,3.424-7.751,5.018a22.309,22.309,0,0,0,3.8-3.7c.626-.82-.532-1.539-1.242-1.242-2.53,1.068-4.744,3.011-6.935,4.644-.4.3-.791.6-1.188.9.632-.639,1.275-1.262,1.9-1.907a1.476,1.476,0,0,0-.933-2.417,2.038,2.038,0,0,0,.355-1.039.694.694,0,0,0-.5-.655c-1.394-.429-3.175,1.207-4.289,1.923-1.568,1.01-3.1,2.081-4.621,3.156-.387.274-.774.552-1.165.826.678-.655,1.365-1.3,2.039-1.962,1.165-1.142-.384-3.3-1.788-2.317l-12.63,8.848q3.383-3.093,6.7-6.263a1.466,1.466,0,0,0-1.768-2.294q-5.634,3.495-11.13,7.186c.336-.345.678-.687,1.013-1.036a1.42,1.42,0,0,0-1.713-2.22A117.091,117.091,0,0,0,49.863,71.506c-1.317,1.062.552,2.907,1.855,1.855a106.391,106.391,0,0,1,11.9-8.29c-4.656,4.318-9.49,8.448-14.5,12.33l.026.026a1.426,1.426,0,0,0-.252,1.739,1.465,1.465,0,0,0,1.991.523c.1-.074.194-.152.294-.229h0Q60.254,72.379,69.8,65.9,59.735,74.686,49.053,82.736c-1.484,1.117-.087,3.653,1.491,2.549Q62.669,76.79,74.8,68.292c-8.087,7.141-16.4,14.027-24.786,20.817q-5.929,4.8-11.891,9.568c-1.333,1.068.442,3.4,1.839,2.385ZM82.142,137l1.307-1.2a1.957,1.957,0,0,0,.21.19C83.152,136.325,82.649,136.66,82.142,137Zm-2.791-13.63a4.227,4.227,0,0,1-2.1,1.739,2.509,2.509,0,0,1-1.707.545,5.651,5.651,0,0,1-3.517-1.323,4.051,4.051,0,0,1-1.278-2.92,4.863,4.863,0,0,1,2.53-4.137,4.675,4.675,0,0,1,5.637.61,4.62,4.62,0,0,1,.436,5.482Zm-2.369-8.032q1.51-1.409,3.024-2.807,3.79-2.711,7.583-5.424-5.305,4.114-10.6,8.232Zm51.027,8.454c-5.466,4.934-11.033,9.755-16.644,14.521A1.525,1.525,0,0,0,109.6,138q-1.907,1-3.792,2.043c7.538-5.224,14.889-10.707,22.2-16.247Zm-14.415-6.021a4.514,4.514,0,0,1,2.762-2.11,4.607,4.607,0,0,1,5.082,2.446,5.287,5.287,0,0,1-.591,6,4.051,4.051,0,0,1-3.969,1.41,3.544,3.544,0,0,1-.452-.171q-4.671,3.969-9.381,7.893a1.62,1.62,0,0,0-.787-1.058c3.32-2.278,6.6-4.624,9.855-6.993a4.405,4.405,0,0,1-1.914-2.494,3.989,3.989,0,0,1-.542-.8,4.441,4.441,0,0,1-.065-4.121Zm-6.957,10.1a.661.661,0,0,0,.042.394q-1.1.77-2.207,1.536l-.055-.065Q105.526,128.8,106.638,127.874Zm22.83-33.8.094-.068c-.578.578-1.168,1.142-1.752,1.717q-3.137,2.294-6.254,4.624-8.529,6.384-16.9,12.962c.6-.561,1.191-1.126,1.762-1.707a1.311,1.311,0,0,0,.413-1.029l22.637-16.5ZM118,69.77c-3.056,3.1-6.192,6.118-9.377,9.084a1.447,1.447,0,0,0-1.61-1.488q5.31-4.056,10.988-7.6Zm6.025,11.275q1.864-1.331,3.724-2.665c-3.372,3.714-6.857,7.322-10.41,10.862-.061-.81-.791-1.575-1.617-.939q-4.114,3.156-8.193,6.357a1.441,1.441,0,0,0-.829-1.22Q115.36,87.244,124.021,81.045Zm-11.594,13c-5.77,5.541-11.707,10.913-17.712,16.193a1.349,1.349,0,0,0-1.565.21c-.829.7-1.688,1.371-2.533,2.056.042-.048.084-.1.126-.148a.669.669,0,0,0,.152-.581q6.825-5.562,13.643-11.136,3.974-3.267,7.893-6.593ZM93.307,79.48c.426-.239.842-.494,1.258-.742-.465.4-.936.8-1.394,1.21a.566.566,0,0,0-.194.468q-3.5,2.488-7.009,4.979ZM70.725,87.847a.613.613,0,0,0-.045-.632q2.27-1.631,4.534-3.269-2.246,1.951-4.489,3.9Zm14.844-20.1C76.553,76.066,67.2,84.017,57.75,91.832q-5.441,4.5-10.913,8.958c1.21-1.1,2.423-2.2,3.627-3.3,3.679-3.395,7.09-7.028,10.571-10.617a.664.664,0,0,0-.142-1.075Q73.231,76.777,85.566,67.75Z" transform="translate(-37.649 -51.761)" fill="#eac485"/>
  </g>
  <g id="Group_17279" data-name="Group 17279">
    <path id="Path_18676" data-name="Path 18676" d="M203.664,42.023c14.376.261,27.119,5.176,38.687,13.427a24.471,24.471,0,0,1,4.04,3.572c29.533,33.053,16.68,73.99-10.152,91.935-1.249.836-2.795,2.523-4.192.671-1.378-1.83.532-2.83,1.778-3.814.565-.449,1.155-.858,1.739-1.284,15.373-11.175,22.585-26.7,23.756-45.261.232-3.708-.62-7.509-1.187-11.236a43.15,43.15,0,0,0-1.617-5.708c-9.132-30.456-37.432-39.475-57.923-38.161-3.659.236-5.076-.274-4.718-1.82.565-2.44,2.753-1.843,4.414-2.036,1.784-.21,3.595-.2,5.379-.287Z" transform="translate(-131.278 -28.46)" fill="#262c54"/>
    <path id="Path_18677" data-name="Path 18677" d="M113.345,382.152c-12.63.077-24.715-2.385-35.819-8.5-4.218-2.32-7.987-5.466-11.891-8.332a9.141,9.141,0,0,1-2.5-2.775,2.542,2.542,0,0,1,.132-2.365c.374-.426,1.578-.358,2.314-.148a4.733,4.733,0,0,1,1.659,1.329c8.98,8.667,19.891,13.534,32.014,15.579,21.869,3.688,42.224-.449,60.675-12.9,3.546-2.394,6.58-5.547,9.842-8.361a25.227,25.227,0,0,1,2.833-2.446,2.028,2.028,0,0,1,1.888.232,2,2,0,0,1,.494,1.839,22.323,22.323,0,0,1-2.969,3.792c-10.213,10.478-22.766,16.783-36.771,20.439a83.193,83.193,0,0,1-21.9,2.611Z" transform="translate(-42.605 -239.151)" fill="#262c54"/>
    <path id="Path_18678" data-name="Path 18678" d="M105.553,0c7.1-.006,14.014.984,20.384,4.279a33.976,33.976,0,0,1,6.076,4.379,2.353,2.353,0,0,1,.236,2.314,2.66,2.66,0,0,1-2.3.5,7.277,7.277,0,0,1-2.227-1.462,29.328,29.328,0,0,0-16.093-5.615C87.247,3.188,66.462,11.152,49.8,29.262a14.214,14.214,0,0,1-2.262,2.272c-.468.316-1.655.355-1.9.042a3.127,3.127,0,0,1-.591-2.307,5.486,5.486,0,0,1,1.43-2.243c1.923-2.136,3.792-4.347,5.9-6.289C65.788,8.364,87.247.042,105.553,0Z" transform="translate(-30.482 0)" fill="#262c54"/>
    <path id="Path_18679" data-name="Path 18679" d="M35.954,108.365c1.8-24.77,13.075-43.528,35.357-55.274a40.125,40.125,0,0,1,3.969-1.672c1.388-.555,2.927-1.075,3.646.794.6,1.562-.752,2.191-1.9,2.733s-2.317.978-3.456,1.513C52.063,66.541,38.238,90.452,40.407,114a79.65,79.65,0,0,0,1.649,8.438,16.721,16.721,0,0,1,.623,3.143,2.082,2.082,0,0,1-1.071,1.594,2.067,2.067,0,0,1-1.878-.461,9.267,9.267,0,0,1-1.391-2.872,47.485,47.485,0,0,1-2.385-15.476Z" transform="translate(-24.35 -34.478)" fill="#262c54"/>
    <path id="Path_18680" data-name="Path 18680" d="M172.676,134.96c6.564.1,12.546,1.849,17.558,5.973,1.846,1.52,3.088,3.834,4.376,5.925.242.394-.442,1.623-1,2.136-.274.252-1.455-.052-1.862-.461-1.375-1.4-2.385-3.208-3.9-4.4a22.131,22.131,0,0,0-14.434-5.069c-9.213.2-17.825,2.1-24.231,9.539a3.437,3.437,0,0,1-1.723,1.184,2.764,2.764,0,0,1-1.9-.549,1.482,1.482,0,0,1-.294-1.413,15.742,15.742,0,0,1,2.068-3.088c4.64-5.208,10.8-7.544,17.406-8.884,2.623-.532,5.341-.613,7.935-.887Z" transform="translate(-98.337 -91.41)" fill="#262c54"/>
    <path id="Path_18681" data-name="Path 18681" d="M140.163,379.058c.549-.265,1.294-.936,1.962-.868a9.033,9.033,0,0,1,2.985,1.136c12.027,6.128,24.547,6.309,37.335,3.1,3.362-.845,5.131-.726,5.108.649-.039,2.411-2.156,2.691-3.814,3.1-13.853,3.443-27.451,3.424-40.469-3.34-1.394-.726-3.062-1.3-3.111-3.779Z" transform="translate(-94.932 -256.148)" fill="#262c54"/>
    <path id="Path_18682" data-name="Path 18682" d="M140.707,260.227c-5.347.026-8.477-2.456-8.551-6.78-.084-4.992,2.465-8.419,6.286-8.448,4.253-.029,8.467,3.937,8.538,8.032.071,4.15-2.569,7.177-6.273,7.193Zm1.317-5.4a2.258,2.258,0,0,0,.865-1.213c.332-2.01-1.555-4.021-3.827-4.34-1.662-.232-2.92,1.233-2.824,3.646a2.429,2.429,0,0,0,1.355,1.82c1.123.294,2.378.084,4.431.084Z" transform="translate(-89.509 -165.94)" fill="#262c54"/>
    <path id="Path_18683" data-name="Path 18683" d="M273.517,239.673a15.046,15.046,0,0,1,3.856,2.594c2.749,3.111,2.152,8.939-.891,11.756-1.775,1.642-3.575,1.875-5.873.755-4.792-2.336-6.231-5.547-4.673-10.449.952-2.991,3.275-4.679,7.58-4.66Zm-4.017,7.512a2.529,2.529,0,0,0,2.83,2.966c1.759,0,2.54-.965,2.6-2.636.081-2.143-1.191-3.853-2.8-3.763-1.481.084-2.543,1.468-2.636,3.437Z" transform="translate(-179.714 -162.33)" fill="#262c54"/>
    <path id="Path_18684" data-name="Path 18684" d="M417.659,131.354c.013.177.032.358.035.536.016,1.436.21,3.159-1.723,3.372-1.991.219-2.239-1.488-2.256-2.936-.09-8.626-3.608-15.951-8.419-22.837-2.094-3-2.291-4.537-.894-5.021,2.346-.813,3.088,1.278,4.059,2.64,5.182,7.267,9.1,15.041,9.2,24.244Z" transform="translate(-273.3 -70.633)" fill="#262c54"/>
    <path id="Path_18685" data-name="Path 18685" d="M0,258.624a8.383,8.383,0,0,1,.607-2.381,2.448,2.448,0,0,1,1.613-1.113,2.059,2.059,0,0,1,1.617,1.026,13.081,13.081,0,0,1,.5,3.162c.774,6.938,2.924,13.266,7.751,18.542a16.085,16.085,0,0,1,2.714,4.589,2.417,2.417,0,0,1-.662,2.268,2.375,2.375,0,0,1-2.31-.426c-3.208-4.724-7.554-8.774-9.219-14.424C1.5,266.1.816,262.2,0,258.618Z" transform="translate(0 -172.801)" fill="#262c54"/>
    <path id="Path_18686" data-name="Path 18686" d="M83.784,337.88a9.837,9.837,0,0,1-1.93-.881c-4.192-3.146-8.145-6.541-10.759-11.194a10.3,10.3,0,0,1-1.039-3,1.516,1.516,0,0,1,.639-1.317,3.243,3.243,0,0,1,1.981-.032,2.283,2.283,0,0,1,1.107,1.11c2.423,4.566,6.183,7.89,10.132,11.059a4.4,4.4,0,0,1,1.43,1.559,2.717,2.717,0,0,1-.129,1.933c-.165.361-.868.481-1.43.762Z" transform="translate(-47.442 -217.633)" fill="#262c54"/>
    <path id="Path_18687" data-name="Path 18687" d="M.777,195.49c.29-1.388.726-4.008,1.449-6.544.177-.616,1.3-.965,1.985-1.436.507.8,1.481,1.63,1.433,2.394a58.126,58.126,0,0,1-1.181,8.4,3.04,3.04,0,0,1-1.923,2.017c-1.594.184-1.888-1.22-1.933-2.54-.013-.352.048-.707.171-2.294Z" transform="translate(-0.41 -127.002)" fill="#262c54"/>
  </g>
</svg>
