<svg id="coins" xmlns="http://www.w3.org/2000/svg" width="24.305" height="24" viewBox="0 0 24.305 24">
  <path id="Path_2089" data-name="Path 2089" d="M175.087,5.171v.048c5.492,0,10.594,2.913,12.536,7.895a11.671,11.671,0,0,1-4.962,14.04,10.784,10.784,0,0,1-4.094,1.653,1.843,1.843,0,0,0,.921-.1,13.26,13.26,0,0,0,2.405-.8,12.27,12.27,0,0,0,6.836-7.713,11.84,11.84,0,0,0-6.887-13.945A16.177,16.177,0,0,0,175.087,5.171Z" transform="translate(-164.864 -5.171)" fill="#bf9101"/>
  <path id="Path_2090" data-name="Path 2090" d="M21.5,24.241H21.45a10.728,10.728,0,0,1-3.244,3.548,11.629,11.629,0,0,1-7.1,2.182C4.087,29.656-1.213,22.755.161,15.717a11.932,11.932,0,0,1,1.7-4.19,11.664,11.664,0,0,1,9.952-5.394,11.035,11.035,0,0,1,5.172,1.412c.681.377,1.275.869,1.928,1.286-.239-.483-1.009-.851-1.458-1.115A11.538,11.538,0,0,0,12.47,6.128,11.9,11.9,0,0,0-.129,17.5c-.3,6.97,5.658,13.166,12.552,12.482a11.839,11.839,0,0,0,7.429-3.476A5.989,5.989,0,0,0,21.5,24.241Z" transform="translate(0.139 -6.033)" fill="#d9a509"/>
  <path id="Path_2091" data-name="Path 2091" d="M12.214,6.285A12.58,12.58,0,0,0,4.869,9.5,11.954,11.954,0,0,0,2.393,12.91a12.074,12.074,0,0,0,7.688,16.836,11.487,11.487,0,0,0,4.36.245,11.94,11.94,0,0,0,.806-23.477A9.442,9.442,0,0,0,12.214,6.285Z" transform="translate(-1.11 -6.165)" fill="#e9c34f"/>
  <path id="Path_2092" data-name="Path 2092" d="M35.142,31.306a10.662,10.662,0,0,0-5.817,2.4,10.2,10.2,0,0,0-2.208,2.833,10.579,10.579,0,0,0,2.208,12.723,10.053,10.053,0,0,0,7.731,2.362A9.94,9.94,0,0,0,41.3,50.078a10.557,10.557,0,0,0,2.426-14.961,10.178,10.178,0,0,0-4.947-3.4A8.752,8.752,0,0,0,35.142,31.306Z" transform="translate(-24.096 -29.468)" fill="#d7a301"/>
  <path id="Path_2093" data-name="Path 2093" d="M43.676,37.3A10.456,10.456,0,0,0,38.4,39.35,9.956,9.956,0,0,0,38.2,54.7a9.482,9.482,0,0,0,11.288.692,9.126,9.126,0,0,0,2.363-2.183,10.106,10.106,0,0,0-1.8-14,9.7,9.7,0,0,0-3.025-1.532A8.375,8.375,0,0,0,43.676,37.3Z" transform="translate(-32.28 -35.061)" fill="#e9c34f"/>
  <path id="Path_2094" data-name="Path 2094" d="M339.832,94.562a30.822,30.822,0,0,1,1.439,2.95,9.044,9.044,0,0,1-.331,6.16c-.292.712-.808,1.34-1.108,2.039a4.79,4.79,0,0,0,1.211-2.082,9.291,9.291,0,0,0,.085-6.767A5.159,5.159,0,0,0,339.832,94.562Z" transform="translate(-318.196 -88.116)" fill="#d9a505"/>
  <path id="Path_2095" data-name="Path 2095" d="M183.953,113.031a8.636,8.636,0,0,0,1.171,2.093,15.931,15.931,0,0,0,1.285,2.152c.071-.365-.268-.758-.45-1.061-.453-.751-.869-1.522-1.321-2.274C184.466,113.653,184.293,113.136,183.953,113.031Z" transform="translate(-172.228 -106.068)" fill="#bf8f01"/>
  <path id="Path_2096" data-name="Path 2096" d="M94.26,113.77l-1.4,2.881-.576,1.263-.088-.1c-.268.17-.736-.112-1.008-.2a10.2,10.2,0,0,0-2.541-.757V117c.34.222.5.971.668,1.364l1.4,3.234c.145.335.318,1.045.587,1.262.164.132.525.052.717.052.616,0,1.225-.051,1.84-.051.844,0,1.694.051,2.541.051.273,0,.742.1.991-.03.31-.168.557-1.138.707-1.486.437-1.008.845-2.031,1.293-3.032a6.737,6.737,0,0,0,.646-1.567c-.155.023-.415.054-.438.253a2.577,2.577,0,0,0-1.271.3c-.65.229-1.316.4-1.972.608a8.373,8.373,0,0,0-.74-1.524A14.1,14.1,0,0,0,94.26,113.77Z" transform="translate(-82.501 -106.889)" fill="#d7a301"/>
  <path id="Path_2097" data-name="Path 2097" d="M86.436,155.88c.192.3.822.364,1.155.459a24.652,24.652,0,0,0,3.144.8c-.2-.258-.815-.324-1.126-.411A15.327,15.327,0,0,0,86.436,155.88Z" transform="translate(-80.962 -146.078)" fill="#bf8f01"/>
  <path id="Path_2098" data-name="Path 2098" d="M142.577,157.357c-.72,1.493-1.49,2.968-2.239,4.447-.214.423-.5,1.41-.9,1.666s-1.5.052-1.976.052h-5.22v.051c1.794,0,3.582.051,5.374.051h1.382c.168,0,.436.049.582-.052.411-.283.692-1.275.915-1.717.745-1.471,1.6-2.93,2.239-4.447Z" transform="translate(-124.185 -147.596)" fill="#bf9101"/>
  <path id="Path_2099" data-name="Path 2099" d="M88.652,161.051a50.432,50.432,0,0,0,3.02,5.913h.051a9.71,9.71,0,0,0-.755-1.567l-1.484-2.931C89.3,162.1,89.058,161.188,88.652,161.051Z" transform="translate(-83.01 -151.04)" fill="#dfb123"/>
  <path id="Path_2101" data-name="Path 2101" d="M163.267,246.748v.051H164.7Z" transform="translate(-152.822 -230.998)" fill="#e3b735"/>
  <path id="Path_2102" data-name="Path 2102" d="M132.239,248.225v.051h3.685l-1.177-.051Z" transform="translate(-123.848 -232.379)" fill="#d9ad25"/>
</svg>
