<svg id="correct" xmlns="http://www.w3.org/2000/svg" width="19" height="19" viewBox="0 0 19 19">
  <rect id="back" width="19" height="19" fill="none"/>
  <path id="Path_13783" data-name="Path 13783" d="M18.992,9.49c0,1.171-.025,2.342.006,3.513a4.29,4.29,0,0,1-1.424,3.324A8.62,8.62,0,0,1,14.1,18.283a15.2,15.2,0,0,1-6.615.57,12.576,12.576,0,0,1-4.317-1.291A6.389,6.389,0,0,1,.576,15.282a3.789,3.789,0,0,1-.576-2V5.717A4.228,4.228,0,0,1,1.6,2.494,9.025,9.025,0,0,1,5.083.639a15.392,15.392,0,0,1,6.1-.551,12.866,12.866,0,0,1,4.533,1.272,6.586,6.586,0,0,1,2.532,2.083A3.963,3.963,0,0,1,18.992,5.8c-.013,1.234,0,2.463,0,3.7ZM8.615,10.554c-.07-.082-.114-.152-.171-.209L6.507,8.408a.959.959,0,0,0-.817-.317.9.9,0,0,0-.791.627.917.917,0,0,0,.253,1.019c.912.912,1.823,1.83,2.741,2.741a.96.96,0,0,0,1.5,0q1.092-1.092,2.19-2.184l2.437-2.437A.951.951,0,1,0,12.692,6.5L8.836,10.358c-.057.057-.114.114-.209.2Z" transform="translate(0 0.008)" fill="#45536d"/>
</svg>
