<svg xmlns="http://www.w3.org/2000/svg" width="200.003" height="150" viewBox="0 0 200.003 150">
  <g id="delete" transform="translate(0.083 1.726)">
    <rect id="back" width="200" height="150" transform="translate(-0.079 -1.726)" fill="none"/>
    <path id="design" d="M0,47.414A13.351,13.351,0,0,0,13.319,60.733h60.2a12.786,12.786,0,1,1,0,25.572H29.834a8.524,8.524,0,0,0,0,17.048h42.62a8.524,8.524,0,1,1,0,17.048H34.1a5.327,5.327,0,0,0,0,10.655h92.7a5.327,5.327,0,0,0,0-10.655H111.876a8.524,8.524,0,1,1,0-17.048h75.65a8.524,8.524,0,0,0,0-17.048h-11.72a12.786,12.786,0,0,1,0-25.572h6.926a13.319,13.319,0,0,0,0-26.637H118.8a9.057,9.057,0,0,1,0-18.113h26.637a7.987,7.987,0,0,0,7.522-5.327,7.657,7.657,0,0,0,.469-2.664A8,8,0,0,0,145.439,0H61.266a8.008,8.008,0,0,0-7.991,7.991,7.657,7.657,0,0,0,.469,2.664,7.975,7.975,0,0,0,7.522,5.327H78.313a9.057,9.057,0,0,1,0,18.113H13.319A13.351,13.351,0,0,0,0,47.414" transform="translate(2.716 12.195)" fill="rgba(69,83,109,0.5)" opacity="0.11"/>
    <g id="circles">
      <path id="Path_17194" data-name="Path 17194" d="M109.112,141.836a53.612,53.612,0,0,1-34.7-94.477,2.291,2.291,0,0,1,2.967,3.492,49.03,49.03,0,1,0,69.209,68.992,2.291,2.291,0,1,1,3.5,2.957,53.533,53.533,0,0,1-40.974,19.036" transform="translate(-4.72 -3.93)"/>
      <path id="Path_17195" data-name="Path 17195" d="M163.932,89.4a2.291,2.291,0,0,1-2.291-2.291,49.074,49.074,0,0,0-61.394-47.458,2.291,2.291,0,0,1-1.152-4.435,53.655,53.655,0,0,1,67.128,51.892,2.291,2.291,0,0,1-2.291,2.291" transform="translate(-8.22 -2.817)"/>
    </g>
    <g id="eliments">
      <path id="Path_17196" data-name="Path 17196" d="M45.5,131.749a2.749,2.749,0,1,0-2.749,2.749,2.749,2.749,0,0,0,2.749-2.749" transform="translate(-3.425 -10.797)" fill="#1a496d"/>
      <path id="Path_17197" data-name="Path 17197" d="M67.666,26.833a1.833,1.833,0,1,0-1.833,1.833,1.832,1.832,0,0,0,1.833-1.833" transform="translate(-5.431 -2.107)" fill="#1a496d"/>
      <path id="Path_17198" data-name="Path 17198" d="M174.666,157.833a1.833,1.833,0,1,0-1.833,1.833,1.832,1.832,0,0,0,1.833-1.833" transform="translate(-14.372 -13.054)" fill="#1a496d"/>
      <path id="Path_17199" data-name="Path 17199" d="M186.415,130.83a6.415,6.415,0,1,1,6.415-6.415,6.422,6.422,0,0,1-6.415,6.415m0-11A4.582,4.582,0,1,0,191,124.415a4.587,4.587,0,0,0-4.582-4.582" transform="translate(-15.124 -9.878)" fill="#ef5456"/>
      <path id="Path_17200" data-name="Path 17200" d="M176.582,47.164a4.582,4.582,0,1,1,4.582-4.582,4.587,4.587,0,0,1-4.582,4.582m0-7.332a2.749,2.749,0,1,0,2.749,2.749,2.753,2.753,0,0,0-2.749-2.749" transform="translate(-14.455 -3.193)" fill="#ef5456"/>
      <path id="Path_17201" data-name="Path 17201" d="M86.5,11A5.5,5.5,0,1,1,92,5.5,5.5,5.5,0,0,1,86.5,11m0-9.164A3.666,3.666,0,1,0,90.164,5.5,3.669,3.669,0,0,0,86.5,1.833" transform="translate(-6.851 -0.018)" fill="#ef5456"/>
      <path id="Path_17202" data-name="Path 17202" d="M4.582,80.164a4.582,4.582,0,1,1,4.582-4.582,4.587,4.587,0,0,1-4.582,4.582m0-7.332a2.749,2.749,0,1,0,2.749,2.749,2.753,2.753,0,0,0-2.749-2.749" transform="translate(-0.083 -5.951)" fill="#ef5456"/>
      <path id="Path_17203" data-name="Path 17203" d="M133.581,12.04a.919.919,0,0,1-.916.916h-3.208v3.208a.916.916,0,1,1-1.833,0V12.957h-3.208a.916.916,0,1,1,0-1.833h3.208V7.916a.916.916,0,1,1,1.833,0v3.208h3.208a.919.919,0,0,1,.916.916" transform="translate(-10.402 -0.603)" fill="#2fdf84"/>
      <path id="Path_17204" data-name="Path 17204" d="M37.332,41.666a.668.668,0,0,1-.666.666H34.332v2.333a.666.666,0,1,1-1.332,0V42.332H30.666a.666.666,0,1,1,0-1.333H33V38.666a.666.666,0,1,1,1.332,0V41h2.333a.668.668,0,0,1,.666.666" transform="translate(-2.589 -3.193)" fill="#2fdf84"/>
      <path id="Path_17205" data-name="Path 17205" d="M217.164,79.582a.835.835,0,0,1-.833.833h-2.916v2.916a.833.833,0,1,1-1.666,0V80.415h-2.916a.833.833,0,0,1,0-1.666h2.916V75.833a.833.833,0,0,1,1.666,0v2.916h2.916a.835.835,0,0,1,.833.833" transform="translate(-17.463 -6.285)" fill="#2fdf84"/>
    </g>
    <g id="bin">
      <path id="Path_17207" data-name="Path 17207" d="M54,10H8a6,6,0,0,0-6,6v5.472A1.528,1.528,0,0,0,3.528,23H58.472A1.528,1.528,0,0,0,60,21.472V16a6,6,0,0,0-6-6" transform="translate(73.92 49.274)" fill="#ed5588"/>
      <path id="Path_17208" data-name="Path 17208" d="M9,16v5.47A1.524,1.524,0,0,0,10.53,23h-7A1.524,1.524,0,0,1,2,21.47V16a6,6,0,0,1,6-6h7a6,6,0,0,0-6,6" transform="translate(73.92 49.274)" fill="#b53a69"/>
      <path id="Path_17209" data-name="Path 17209" d="M54,8H45V4.76A4.771,4.771,0,0,0,40.24,0H21.76A4.771,4.771,0,0,0,17,4.76V8H8a8.011,8.011,0,0,0-8,8v5.47A3.529,3.529,0,0,0,3.53,25H5V60a8.011,8.011,0,0,0,8,8H48a8.011,8.011,0,0,0,8-8V25h2.47A3.529,3.529,0,0,0,62,21.47V16a8.011,8.011,0,0,0-8-8M21,4.76A.76.76,0,0,1,21.76,4H40.24a.76.76,0,0,1,.76.76V8H21ZM58,21H47a2,2,0,0,0,0,4h5V60a4,4,0,0,1-4,4H13a4,4,0,0,1-4-4V25H37a2,2,0,0,0,0-4H4V16a4,4,0,0,1,4-4H54a4,4,0,0,1,4,4Z" transform="translate(73.92 49.274)"/>
      <path id="Path_17210" data-name="Path 17210" d="M19,52a2,2,0,0,1-2-2V40a2,2,0,0,1,4,0V50a2,2,0,0,1-2,2" transform="translate(73.92 49.274)"/>
      <path id="Path_17211" data-name="Path 17211" d="M31,56a2,2,0,0,1-2-2V36a2,2,0,0,1,4,0V54a2,2,0,0,1-2,2" transform="translate(73.92 49.274)"/>
      <path id="Path_17212" data-name="Path 17212" d="M43,52a2,2,0,0,1-2-2V40a2,2,0,0,1,4,0V50a2,2,0,0,1-2,2" transform="translate(73.92 49.274)"/>
    </g>
  </g>
</svg>
