<svg id="coins" xmlns="http://www.w3.org/2000/svg" width="19" height="19" viewBox="0 0 19 19">
  <rect id="back" width="19" height="19" fill="none"/>
  <path id="Path_13778" data-name="Path 13778" d="M10.1,11.337a2.979,2.979,0,0,0-.361-.158,1.545,1.545,0,0,1-.215-.089.344.344,0,0,1-.165-.139.152.152,0,0,1,.07-.114.3.3,0,0,1,.152-.038h.006a.6.6,0,0,1,.31.095.33.33,0,1,0,.342-.564,1.531,1.531,0,0,0-.348-.152.316.316,0,0,0-.31-.228.327.327,0,0,0-.317.247.762.762,0,0,0-.19.1.771.771,0,0,0-.348.842.907.907,0,0,0,.513.551c.089.044.177.076.266.114a2.092,2.092,0,0,1,.272.12.671.671,0,0,1,.063.044.151.151,0,0,1-.019.133.313.313,0,0,1-.241.095H9.57a.725.725,0,0,1-.1-.006,1.028,1.028,0,0,1-.323-.133.33.33,0,1,0-.342.564,1.347,1.347,0,0,0,.45.19.327.327,0,0,0,.317.241.332.332,0,0,0,.317-.253.826.826,0,0,0,.431-.279.772.772,0,0,0,.019-.963.8.8,0,0,0-.247-.2Z" fill="#45536d"/>
  <path id="Path_13779" data-name="Path 13779" d="M7.062,7.138h5.048a.527.527,0,0,0,.519-.526V6.327a.526.526,0,0,0-.519-.519H7.062a.527.527,0,0,0-.526.519v.285A.528.528,0,0,0,7.062,7.138Z" fill="#45536d"/>
  <path id="Path_13780" data-name="Path 13780" d="M18.994,9.5c0-1.235-.006-2.464,0-3.7a3.93,3.93,0,0,0-.741-2.356,6.655,6.655,0,0,0-2.54-2.084A12.871,12.871,0,0,0,11.178.089C10.6.032,10.026,0,9.456,0A14.972,14.972,0,0,0,5.079.64,9.049,9.049,0,0,0,1.6,2.5,4.329,4.329,0,0,0,0,5.472V13.56a3.807,3.807,0,0,0,.57,1.735,6.375,6.375,0,0,0,2.584,2.28A12.477,12.477,0,0,0,7.48,18.867a16.813,16.813,0,0,0,2.1.133,14.7,14.7,0,0,0,4.516-.7,8.713,8.713,0,0,0,3.477-1.963A4.291,4.291,0,0,0,19,13.148v-.133c-.032-1.172,0-2.343,0-3.515Zm-3.927,3.059a3.3,3.3,0,0,1-3.293,3.293H7.22a3.294,3.294,0,0,1-3.287-3.293v-1a3.347,3.347,0,0,1,.849-2.305L6.327,7.537a1.158,1.158,0,0,1-.456-.925V6.327A1.182,1.182,0,0,1,6.992,5.149L6.587,4.123a.712.712,0,0,1,.659-.975h4.636a.719.719,0,0,1,.6.317.7.7,0,0,1,.063.671l-.418,1a1.177,1.177,0,0,1,1.159,1.184v.285a1.159,1.159,0,0,1-.557,1L14.2,9.24a3.347,3.347,0,0,1,.855,2.312v.994Z" fill="#45536d"/>
  <path id="Path_13781" data-name="Path 13781" d="M7.708,5.143h3.711l.564-1.33h-4.8l.025.07Z" fill="#45536d"/>
  <path id="Path_13782" data-name="Path 13782" d="M12.021,7.8H6.986L5.276,9.69a2.685,2.685,0,0,0-.684,1.856v1.007a2.649,2.649,0,0,0,2.635,2.635H11.78a2.641,2.641,0,0,0,2.635-2.635v-1a2.643,2.643,0,0,0-.684-1.862L12.027,7.8ZM9.576,14.168A2.676,2.676,0,1,1,12.255,11.5a2.679,2.679,0,0,1-2.679,2.673Z" fill="#45536d"/>
</svg>
