<svg xmlns="http://www.w3.org/2000/svg" width="47" height="47" viewBox="0 0 47 47">
  <g id="profile_placeholder" transform="translate(-29.611 -17)">
    <path id="Path_14597" data-name="Path 14597" d="M47,23.494A23.5,23.5,0,1,1,23.245,0,23.486,23.486,0,0,1,47,23.494ZM40.352,34.881A20.348,20.348,0,0,0,7.874,10.442C.993,18.724,2.527,29.36,6.707,34.854a23.611,23.611,0,0,1,33.644.027Z" transform="translate(29.611 17.001)" fill="silver"/>
    <path id="Path_14598" data-name="Path 14598" d="M32.514,15.471A9.2,9.2,0,1,1,23.37,6.257a9.214,9.214,0,0,1,9.145,9.214Z" transform="translate(29.81 16.871)" fill="silver"/>
  </g>
</svg>
