<svg xmlns="http://www.w3.org/2000/svg" width="132.9" height="119.227" viewBox="0 0 132.9 119.227">
  <g id="image_frame" transform="translate(-206.55 -146.2)">
    <g id="Group_3746" data-name="Group 3746" transform="translate(206.55 146.2)">
      <g id="Group_3745" data-name="Group 3745">
        <path id="Path_13775" data-name="Path 13775" d="M311.465,153.262A15.615,15.615,0,0,0,299.22,146.2H246.706a15.615,15.615,0,0,0-12.246,7.062L208.24,198.714a15.754,15.754,0,0,0,0,14.2l26.219,45.452a15.615,15.615,0,0,0,12.246,7.062H299.22a15.615,15.615,0,0,0,12.246-7.062l26.295-45.452a15.754,15.754,0,0,0,0-14.2Zm-2.78,100.3a15.615,15.615,0,0,1-12.246,7.062H249.56a15.615,15.615,0,0,1-12.246-7.062l-23.44-40.569a15.754,15.754,0,0,1,0-14.2l23.44-40.569a15.615,15.615,0,0,1,12.246-7.062H296.44a15.615,15.615,0,0,1,12.246,7.062l23.44,40.569a15.754,15.754,0,0,1,0,14.2Z" transform="translate(-206.55 -146.2)" fill="#a93a6f"/>
      </g>
    </g>
    <path id="Subtraction_17" data-name="Subtraction 17" d="M-4334.631,8181.6h-44.863a16.214,16.214,0,0,1-12.7-7.322l-22.508-38.943a16.3,16.3,0,0,1,0-14.72l22.433-38.865a16.2,16.2,0,0,1,12.693-7.322h44.863a16.222,16.222,0,0,1,12.7,7.322l22.508,38.943a16.3,16.3,0,0,1,0,14.72l-22.432,38.865A16.214,16.214,0,0,1-4334.631,8181.6Zm-40.294-96.095a12.857,12.857,0,0,0-10.072,5.807l-17.794,30.833a12.929,12.929,0,0,0,0,11.677l17.855,30.892a12.866,12.866,0,0,0,10.072,5.809h35.588a12.863,12.863,0,0,0,10.071-5.809l17.794-30.831a12.926,12.926,0,0,0,0-11.677l-17.855-30.894a12.863,12.863,0,0,0-10.071-5.807Z" transform="translate(4630.063 -7922.159)" fill="#a93a6f"/>
  </g>
</svg>
