<svg xmlns="http://www.w3.org/2000/svg" xmlns:xlink="http://www.w3.org/1999/xlink" width="81.626" height="89.005" viewBox="0 0 81.626 89.005">
  <defs>
    <linearGradient id="linear-gradient" x1="0.5" x2="0.5" y2="1" gradientUnits="objectBoundingBox">
      <stop offset="0" stop-color="#ba72ad"/>
      <stop offset="1" stop-color="#6b4796"/>
    </linearGradient>
    <linearGradient id="linear-gradient-2" x1="0.5" x2="0.5" y2="1" gradientUnits="objectBoundingBox">
      <stop offset="0" stop-color="#8b3d8f"/>
      <stop offset="1" stop-color="#5b368b"/>
    </linearGradient>
  </defs>
  <g id="frame_a" transform="translate(-1.015 -0.941)">
    <path id="Path_13935" data-name="Path 13935" d="M33.956,3.071,9.432,17.021A16.288,16.288,0,0,0,1.2,31.074L1.015,59.288A16.288,16.288,0,0,0,9.067,73.446L33.41,87.711a16.289,16.289,0,0,0,16.288.105l24.525-13.95a16.289,16.289,0,0,0,8.236-14.054L82.64,31.6a16.286,16.286,0,0,0-8.052-14.158L50.244,3.176a16.289,16.289,0,0,0-16.288-.105" fill="url(#linear-gradient)"/>
    <path id="Path_13938" data-name="Path 13938" d="M34.979,8.578,13.642,20.715A14.172,14.172,0,0,0,6.477,32.942L6.319,57.489a14.171,14.171,0,0,0,7.006,12.318L34.5,82.218a14.171,14.171,0,0,0,14.171.091L70.013,70.172a14.172,14.172,0,0,0,7.165-12.227L77.336,33.4A14.173,14.173,0,0,0,70.33,21.08L49.15,8.669a14.174,14.174,0,0,0-14.171-.091" fill="url(#linear-gradient-2)"/>
    <g id="desing" opacity="0.05">
      <path id="Path_13939" data-name="Path 13939" d="M52.735,10.633l-1.4,4.35-9.8,30.43,6.23-32.488.9-4.67c.165.089.331.182.494.277Z" fill="#fff"/>
      <path id="Path_13940" data-name="Path 13940" d="M60.367,15.105,58.04,18.853,41.549,45.405l-.005.008L54.729,16.938,56.6,12.9Z" fill="#fff"/>
      <path id="Path_13941" data-name="Path 13941" d="M75.263,25.831,71.019,28.3,41.546,45.419,68.366,25.1l3.791-2.872a14.161,14.161,0,0,1,3.108,3.607" fill="#fff"/>
      <path id="Path_13942" data-name="Path 13942" d="M43.648,83.794a14.019,14.019,0,0,1-4.686-.122l.293-4.355.887-13.174,1.391-20.681v-.016L43.4,79.385Z" fill="#fff"/>
      <path id="Path_13943" data-name="Path 13943" d="M41.525,45.427,10.555,58.674l-3.886,1.66a14.258,14.258,0,0,1-.312-3.048l.011-1.676,3.9-1.131Z" fill="#fff"/>
      <path id="Path_13944" data-name="Path 13944" d="M41.53,45.421,6.506,33.47l.005-.689a14.036,14.036,0,0,1,.613-4.024l3.856,1.866L39.544,44.462Z" fill="#fff"/>
      <path id="Path_13945" data-name="Path 13945" d="M41.528,45.416,12.95,26.967,9.213,24.553a14.127,14.127,0,0,1,3.363-3.3l3.417,2.85Z" fill="#fff"/>
      <path id="Path_13946" data-name="Path 13946" d="M41.527,45.412,19.577,22,16.643,18.87l3.878-2.2,2.462,3.368Z" fill="#fff"/>
      <path id="Path_13947" data-name="Path 13947" d="M41.533,45.417,35.027,33.756,26.3,18.119l-2.007-3.6,3.78-2.151L29.635,16.2Z" fill="#fff"/>
      <path id="Path_13948" data-name="Path 13948" d="M41.533,45.413,33.083,14.2l-1.1-4.06,3-1.706a13.011,13.011,0,0,1,1.172-.594l.629,4.388Z" fill="#fff"/>
      <path id="Path_13949" data-name="Path 13949" d="M18.219,68.063,41.525,45.435,21.69,70.067l-2.416,3L15.4,70.8Z" fill="#fff"/>
      <path id="Path_13950" data-name="Path 13950" d="M41.53,45.421h0L10.273,42.772l-3.821-.325.027-4.38,3.794.8L33.9,43.824Z" fill="#fff"/>
      <path id="Path_13951" data-name="Path 13951" d="M51.092,80.708h0L48.676,82.08a13.55,13.55,0,0,1-1.765.846l-.618-4.315L41.536,45.442v.016L35.305,77.923,34.524,82,34.5,81.99l-3.985-2.337,1.22-3.788,9.8-30.433-.005.005L28.345,73.91l-1.63,3.513L23,75.255,25.028,72l16.494-26.56L14.7,65.752l-3.281,2.487a14.157,14.157,0,0,1-3.04-3.558l3.666-2.132L41.525,45.423,10.273,50.456,6.4,51.08l.027-4.339,3.848-.146,18.262-.686,13-.488h.01L50.7,79.235Z" fill="#fff"/>
      <path id="Path_13952" data-name="Path 13952" d="M58.78,76.336,55,78.487l-1.562-3.835-11.9-29.22v.005l15.222,27.29Z" fill="#fff"/>
      <path id="Path_13953" data-name="Path 13953" d="M43.817,11.531,41.536,45.419,39.665,11.464,39.41,6.827a14.05,14.05,0,0,1,4.727-.073Z" fill="#fff"/>
      <path id="Path_13954" data-name="Path 13954" d="M66.434,71.985l-3.881,2.207-2.465-3.376L41.544,45.441,63.491,68.847Z" fill="#fff"/>
      <path id="Path_13955" data-name="Path 13955" d="M74.084,66.439a14,14,0,0,1-3.544,3.189l-3.46-2.885L41.545,45.43,70.123,63.882Z" fill="#fff"/>
      <path id="Path_13956" data-name="Path 13956" d="M77.14,57.576v.165a14.218,14.218,0,0,1-.781,4.551l-4.271-2.066L51.931,50.461,41.545,45.43l15.067,5.142L72.8,56.1Z" fill="#fff"/>
      <path id="Path_13957" data-name="Path 13957" d="M77.2,48.448,77.17,52.9,48.381,46.859l-6.837-1.435L72.8,48.073Z" fill="#fff"/>
      <path id="Path_13958" data-name="Path 13958" d="M72.8,36.369,41.565,45.416,72.8,40.388l4.458-.719-.03,4.412-4.428.168L42.81,45.374l-1.266.049h.007L72.515,32.178,77,30.261a14.141,14.141,0,0,1,.3,2.98l-.011,1.833Z" fill="#fff"/>
      <path id="Path_13959" data-name="Path 13959" d="M41.544,45.418h-.005l.005,0,0-.008L64.161,17.326,68.1,19.634l-3.246,3.151Z" fill="#fff"/>
    </g>
  </g>
</svg>
