<svg id="skip" xmlns="http://www.w3.org/2000/svg" width="56" height="30" viewBox="0 0 56 30">
  <rect id="back" width="56" height="30" fill="none"/>
  <path id="Path_2782" data-name="Path 2782" d="M332.842,5980.1v21.669a1.376,1.376,0,0,1-2.719,0V5980.1a1.376,1.376,0,0,1,2.719,0Z" transform="translate(-288.976 -5975.934)" fill="#45536d"/>
  <path id="Path_2783" data-name="Path 2783" d="M332.842,5980.1v21.669a1.376,1.376,0,0,1-2.719,0V5980.1a1.376,1.376,0,0,1,2.719,0Z" transform="translate(-288.976 -5975.934)" fill="#45536d"/>
  <path id="Path_2784" data-name="Path 2784" d="M226.78,5979.568l-22.111-13.644a1.359,1.359,0,0,0-2.073,1.155v27.285a1.357,1.357,0,0,0,2.073,1.153l22.111-13.64a1.358,1.358,0,0,0,0-2.317Zm-21.462,12.365v-22.416l18.164,11.205Z" transform="translate(-190.462 -5965.722)" fill="#45536d"/>
  <path id="Path_2785" data-name="Path 2785" d="M226.78,5979.568l-22.111-13.644a1.359,1.359,0,0,0-2.073,1.155v27.285a1.357,1.357,0,0,0,2.073,1.153l22.111-13.64a1.358,1.358,0,0,0,0-2.317Zm-21.462,12.365v-22.416l18.164,11.205Z" transform="translate(-190.462 -5965.722)" fill="#45536d"/>
</svg>
