<svg id="audiencepoll" xmlns="http://www.w3.org/2000/svg" width="56" height="30" viewBox="0 0 56 30">
  <rect id="back" width="56" height="30" fill="none"/>
  <path id="Path_17242" data-name="Path 17242" d="M45.232,27.716H41.517V21.668a6.248,6.248,0,0,0-6.227-6.218h-.2A6.169,6.169,0,0,0,31.3,16.929l-.379.332-.227.2-.133-.275-.227-.445A7.841,7.841,0,0,0,23.3,12.408v-.123h-.009l-.019.123h-.2a7.9,7.9,0,0,0-6.815,4.332l-.237.445-.133.265-.227-.2-.379-.322a6.238,6.238,0,0,0-4.019-1.479h-.209A6.313,6.313,0,0,0,5.024,21.8v5.905H1.147a1.147,1.147,0,1,0,0,2.294H45.128a1.144,1.144,0,0,0,.1-2.284ZM15.185,27.64H7.318V21.773a4.034,4.034,0,0,1,3.773-4.028h.161a3.936,3.936,0,0,1,3.934,3.934Zm13.716,0H17.64v-7.2a5.72,5.72,0,0,1,5.45-5.744h.18a5.662,5.662,0,0,1,5.63,5.63Zm10.332,0H31.365V21.773a4.027,4.027,0,0,1,3.773-4.028H35.3a3.936,3.936,0,0,1,3.934,3.934Z" transform="translate(4.863)" fill="#45536d"/>
  <path id="Path_2758" data-name="Path 2758" d="M38.18,6.73a4.1,4.1,0,1,0,1.194,2.9,4.076,4.076,0,0,0-1.194-2.9ZM35.3,11.573A1.943,1.943,0,1,1,37.242,9.63,1.946,1.946,0,0,1,35.3,11.573Z" transform="translate(4.863)" fill="#45536d"/>
  <path id="Path_2760" data-name="Path 2760" d="M14.142,6.739a4.045,4.045,0,0,0-2.891-1.2,4.094,4.094,0,1,0,2.891,1.2Zm-2.891,4.834A1.943,1.943,0,1,1,13.194,9.63,1.946,1.946,0,0,1,11.251,11.573Z" transform="translate(4.863)" fill="#45536d"/>
  <path id="Path_17243" data-name="Path 17243" d="M23.27,0A5.128,5.128,0,1,0,28.4,5.128,5.125,5.125,0,0,0,23.27,0Zm0,7.63a2.5,2.5,0,1,1,2.5-2.5A2.5,2.5,0,0,1,23.27,7.63Z" transform="translate(4.863)" fill="#45536d"/>
</svg>
