<svg xmlns="http://www.w3.org/2000/svg" width="56" height="30.002" viewBox="0 0 56 30.002">
  <g id="fiftyfifty" transform="translate(0 0.003)">
    <rect id="back" width="56" height="29.998" fill="none"/>
    <g id="fiftyfifty-2" data-name="fiftyfifty" transform="translate(13.164 0.004)">
      <path id="Path_2764" data-name="Path 2764" d="M210.714,6096.37l-.507,3.684.36.013c2.3.083,4.008.907,4.8,2.323a5.434,5.434,0,0,1,.554,4.382,4.73,4.73,0,0,1-2.624,2.833,7.977,7.977,0,0,1-3.228.563,17.013,17.013,0,0,1-3.227-.33,1.142,1.142,0,0,1,.237-2.258,1.289,1.289,0,0,1,.241.027,14.84,14.84,0,0,0,2.76.281,5.863,5.863,0,0,0,2.286-.358,2.406,2.406,0,0,0,1.382-1.463,3.188,3.188,0,0,0-.375-2.554c-.538-.959-2.023-1.164-3.173-1.164a8.976,8.976,0,0,0-1.145.071.989.989,0,0,1-.178.017,1.142,1.142,0,0,1-1.125-1.3l.837-6.058a1.145,1.145,0,0,1,1.125-.982h6.057a1.142,1.142,0,1,1,0,2.283Z" transform="translate(-204.103 -6094.104)" fill="#45536d"/>
      <path id="Path_2766" data-name="Path 2766" d="M252.136,6194.29a4.731,4.731,0,0,1-2.625,2.83,8.011,8.011,0,0,1-3.228.563,17.228,17.228,0,0,1-3.228-.332,1.141,1.141,0,0,1,.237-2.257,1.108,1.108,0,0,1,.244.027,14.756,14.756,0,0,0,2.756.282,5.909,5.909,0,0,0,2.287-.367,2.393,2.393,0,0,0,1.383-1.462,3.191,3.191,0,0,0-.375-2.552c-.417-.742-1.584-1.169-3.206-1.169a7.962,7.962,0,0,0-1.115.078,1.038,1.038,0,0,1-.174.016,1.122,1.122,0,0,1-.8-.33,1.145,1.145,0,0,1-.329-.972l.275-2,2.418-2.437.257-.258-.036.258-.463,3.356.362.014c2.3.082,4.006.907,4.8,2.323a5.432,5.432,0,0,1,.555,4.384Z" transform="translate(-233.887 -6167.692)" fill="#45536d"/>
      <path id="Path_2767" data-name="Path 2767" d="M274.917,6172.14a1.143,1.143,0,0,1-1.141,1.146H268.77l.316-.318,1.953-1.969h2.737a1.142,1.142,0,0,1,1.141,1.142Z" transform="translate(-255.729 -6157.073)" fill="#45536d"/>
      <path id="Path_2769" data-name="Path 2769" d="M307.92,6173.81c-2.419,0-4.312,2.517-4.312,5.727s1.9,5.729,4.312,5.729,4.312-2.515,4.312-5.729S310.34,6173.81,307.92,6173.81Zm0,9.172c-1.084,0-2.032-1.609-2.032-3.448s.951-3.445,2.032-3.445,2.034,1.61,2.034,3.445-.951,3.449-2.034,3.449Z" transform="translate(-284.396 -6159.388)" fill="#45536d"/>
      <path id="Path_2770" data-name="Path 2770" d="M276.243,6103.43c-.207-2.955-2.034-5.163-4.3-5.163-2.419,0-4.312,2.516-4.312,5.729a5.924,5.924,0,0,0,2.718,5.335l1.942-1.94a1.164,1.164,0,0,1-.34.052c-1.084,0-2.032-1.608-2.032-3.446s.951-3.443,2.032-3.443,2.034,1.608,2.034,3.443a4.98,4.98,0,0,1-.489,2.188Z" transform="translate(-254.816 -6097.515)" fill="#45536d"/>
    </g>
  </g>
</svg>
