<svg xmlns="http://www.w3.org/2000/svg" width="200.208" height="150" viewBox="0 0 200.208 150">
  <g id="logout2" transform="translate(0.083 1.726)">
    <rect id="Rectangle_17641" data-name="Rectangle 17641" width="200" height="150" transform="translate(-0.079 -1.726)" fill="none"/>
    <g id="design" transform="translate(3.897 13.07)" opacity="0.11">
      <path id="back" d="M196.05,47.414a13.351,13.351,0,0,1-13.319,13.319h-60.2a12.786,12.786,0,1,0,0,25.572h43.685a8.524,8.524,0,0,1,0,17.048H123.6a8.524,8.524,0,1,0,0,17.048h38.358a5.327,5.327,0,0,1,0,10.655h-92.7a5.327,5.327,0,0,1,0-10.655H84.174a8.524,8.524,0,0,0,0-17.048H8.524a8.524,8.524,0,0,1,0-17.048h11.72a12.786,12.786,0,1,0,0-25.572H13.319a13.319,13.319,0,0,1,0-26.637H77.248a9.057,9.057,0,0,0,0-18.113H50.611a7.987,7.987,0,0,1-7.522-5.327,7.657,7.657,0,0,1-.469-2.664A8,8,0,0,1,50.611,0h84.174a8.008,8.008,0,0,1,7.991,7.991,7.657,7.657,0,0,1-.469,2.664,7.975,7.975,0,0,1-7.522,5.327H117.737a9.057,9.057,0,0,0,0,18.113h64.995A13.351,13.351,0,0,1,196.05,47.414" transform="translate(0.178 -0.875)" fill="rgba(69,83,109,0.5)"/>
    </g>
    <g id="circle">
      <path id="Path_17194" data-name="Path 17194" d="M109.112,141.836a53.612,53.612,0,0,1-34.7-94.477,2.291,2.291,0,0,1,2.967,3.492,49.03,49.03,0,1,0,69.209,68.992,2.291,2.291,0,1,1,3.5,2.957,53.533,53.533,0,0,1-40.974,19.036" transform="translate(-4.72 -3.93)"/>
      <path id="Path_17195" data-name="Path 17195" d="M163.932,89.4a2.291,2.291,0,0,1-2.291-2.291,49.074,49.074,0,0,0-61.394-47.458,2.291,2.291,0,0,1-1.152-4.435,53.655,53.655,0,0,1,67.128,51.892,2.291,2.291,0,0,1-2.291,2.291" transform="translate(-8.22 -2.817)"/>
    </g>
    <g id="elements">
      <path id="Path_17196" data-name="Path 17196" d="M45.5,131.749a2.749,2.749,0,1,0-2.749,2.749,2.749,2.749,0,0,0,2.749-2.749" transform="translate(-3.425 -10.797)" fill="#1a496d"/>
      <path id="Path_17197" data-name="Path 17197" d="M67.666,26.833a1.833,1.833,0,1,0-1.833,1.833,1.832,1.832,0,0,0,1.833-1.833" transform="translate(-5.431 -2.107)" fill="#1a496d"/>
      <path id="Path_17198" data-name="Path 17198" d="M174.666,157.833a1.833,1.833,0,1,0-1.833,1.833,1.832,1.832,0,0,0,1.833-1.833" transform="translate(-14.372 -13.054)" fill="#1a496d"/>
      <path id="Path_17199" data-name="Path 17199" d="M186.415,130.83a6.415,6.415,0,1,1,6.415-6.415,6.422,6.422,0,0,1-6.415,6.415m0-11A4.582,4.582,0,1,0,191,124.415a4.587,4.587,0,0,0-4.582-4.582" transform="translate(-15.124 -9.878)" fill="#ef5456"/>
      <path id="Path_17200" data-name="Path 17200" d="M176.582,47.164a4.582,4.582,0,1,1,4.582-4.582,4.587,4.587,0,0,1-4.582,4.582m0-7.332a2.749,2.749,0,1,0,2.749,2.749,2.753,2.753,0,0,0-2.749-2.749" transform="translate(-14.455 -3.193)" fill="#ef5456"/>
      <path id="Path_17201" data-name="Path 17201" d="M86.5,11A5.5,5.5,0,1,1,92,5.5,5.5,5.5,0,0,1,86.5,11m0-9.164A3.666,3.666,0,1,0,90.164,5.5,3.669,3.669,0,0,0,86.5,1.833" transform="translate(-6.851 -0.018)" fill="#ef5456"/>
      <path id="Path_17202" data-name="Path 17202" d="M4.582,80.164a4.582,4.582,0,1,1,4.582-4.582,4.587,4.587,0,0,1-4.582,4.582m0-7.332a2.749,2.749,0,1,0,2.749,2.749,2.753,2.753,0,0,0-2.749-2.749" transform="translate(-0.083 -5.951)" fill="#ef5456"/>
      <path id="Path_17203" data-name="Path 17203" d="M133.581,12.04a.919.919,0,0,1-.916.916h-3.208v3.208a.916.916,0,1,1-1.833,0V12.957h-3.208a.916.916,0,1,1,0-1.833h3.208V7.916a.916.916,0,1,1,1.833,0v3.208h3.208a.919.919,0,0,1,.916.916" transform="translate(-10.402 -0.603)" fill="#2fdf84"/>
      <path id="Path_17204" data-name="Path 17204" d="M37.332,41.666a.668.668,0,0,1-.666.666H34.332v2.333a.666.666,0,1,1-1.332,0V42.332H30.666a.666.666,0,1,1,0-1.333H33V38.666a.666.666,0,1,1,1.332,0V41h2.333a.668.668,0,0,1,.666.666" transform="translate(-2.589 -3.193)" fill="#2fdf84"/>
      <path id="Path_17205" data-name="Path 17205" d="M217.164,79.582a.835.835,0,0,1-.833.833h-2.916v2.916a.833.833,0,1,1-1.666,0V80.415h-2.916a.833.833,0,0,1,0-1.666h2.916V75.833a.833.833,0,0,1,1.666,0v2.916h2.916a.835.835,0,0,1,.833.833" transform="translate(-17.463 -6.285)" fill="#2fdf84"/>
    </g>
    <g id="logout">
      <path id="Path_17190" data-name="Path 17190" d="M108.745,73.853v43.3a2.249,2.249,0,0,1-.744,1.833,2.024,2.024,0,0,1-1.782.275l-11.988-2.947a3.8,3.8,0,0,1-1.013-.416,5.051,5.051,0,0,1-2.444-4.122v-43.3a2.248,2.248,0,0,1,.744-1.833,2.01,2.01,0,0,1,1.779-.275l11.991,2.945a4.934,4.934,0,0,1,3.457,4.541" transform="translate(-7.667 -5.556)" fill="#ed5588"/>
      <path id="Path_17191" data-name="Path 17191" d="M125.9,81.709a1.957,1.957,0,0,0,1.957-1.956V67.786a6.89,6.89,0,0,0-6.88-6.88H93.384a6.89,6.89,0,0,0-6.88,6.88v43.536a8.862,8.862,0,0,0,6.437,8.34l11.991,2.945a6.543,6.543,0,0,0,1.578.2,5.722,5.722,0,0,0,3.55-1.191A6.147,6.147,0,0,0,112.3,116.7v-1.229h8.669a6.89,6.89,0,0,0,6.88-6.88v-11.8a1.958,1.958,0,0,0-3.915,0v11.8a2.969,2.969,0,0,1-2.966,2.966H112.3V73.406a8.857,8.857,0,0,0-6.44-8.34l-1-.245h16.1a2.969,2.969,0,0,1,2.966,2.966V79.75a1.957,1.957,0,0,0,1.954,1.959ZM104.933,68.865a4.934,4.934,0,0,1,3.457,4.541V116.7a2.248,2.248,0,0,1-.744,1.833,2.024,2.024,0,0,1-1.782.275L93.876,115.86a3.8,3.8,0,0,1-1.013-.416,5.052,5.052,0,0,1-2.444-4.124V68.026a2.249,2.249,0,0,1,.744-1.833,2.01,2.01,0,0,1,1.779-.275Z" transform="translate(-7.311 -5.107)"/>
      <path id="Path_17192" data-name="Path 17192" d="M97.85,117.2l-3.619-.891a4.931,4.931,0,0,1-3.457-4.539v-43.3a2.248,2.248,0,0,1,.744-1.833,2.012,2.012,0,0,1,1.779-.275l1.143.282v44.172a7.881,7.881,0,0,0,3.41,6.379" transform="translate(-7.667 -5.556)" fill="rgba(69,83,109,0.3)"/>
      <path id="Path_17193" data-name="Path 17193" d="M151.727,89.726v0c0,.051,0,.1-.007.154a.4.4,0,0,1,0,.047,1.485,1.485,0,0,1-.022.152c-.01.052-.025.113-.039.169s-.034.113-.056.169a1.551,1.551,0,0,1-.078.179c-.025.049-.051.1-.081.145s-.066.1-.1.152-.076.092-.117.142l-9.05,9.968a1.957,1.957,0,0,1-2.935-2.59l.038-.043,6.06-6.674-20.029.049h0a1.958,1.958,0,0,1,0-3.915l20.023-.049-6.048-6.579a1.957,1.957,0,0,1,2.882-2.648l9.048,9.843,0,0a1.516,1.516,0,0,1,.127.152,1.788,1.788,0,0,1,.183.3l.015.025c.022.051.044.1.063.152a1.969,1.969,0,0,1,.1.345,1.419,1.419,0,0,1,.022.152v.041c0,.051.007.105.007.157" transform="translate(-10.39 -6.529)"/>
    </g>
  </g>
</svg>
