<svg id="night" xmlns="http://www.w3.org/2000/svg" xmlns:xlink="http://www.w3.org/1999/xlink" width="76" height="28" viewBox="0 0 76 28">
  <defs>
    <linearGradient id="linear-gradient" x1="0.5" y1="1" x2="0.5" gradientUnits="objectBoundingBox">
      <stop offset="0" stop-color="#4c7392"/>
      <stop offset="1" stop-color="#282f6c"/>
    </linearGradient>
    <linearGradient id="linear-gradient-2" x1="0.168" y1="1.357" x2="0.168" y2="0.357" xlink:href="#linear-gradient"/>
    <linearGradient id="linear-gradient-3" x1="-11.777" x2="-11.777" y2="1" gradientUnits="objectBoundingBox">
      <stop offset="0" stop-color="#fff"/>
      <stop offset="0.51" stop-color="#fff" stop-opacity="0.478"/>
      <stop offset="1" stop-color="#fff" stop-opacity="0"/>
    </linearGradient>
    <linearGradient id="linear-gradient-7" x1="1.12" y1="1" x2="1.12" gradientUnits="objectBoundingBox">
      <stop offset="0" stop-color="#19205c"/>
      <stop offset="1" stop-color="#376182"/>
    </linearGradient>
    <linearGradient id="linear-gradient-8" x1="1.369" y1="1" x2="1.369" y2="0" xlink:href="#linear-gradient-7"/>
    <linearGradient id="linear-gradient-9" y1="0.5" x2="1" y2="0.5" gradientUnits="objectBoundingBox">
      <stop offset="0" stop-color="#364460"/>
      <stop offset="1" stop-color="#1d2840"/>
    </linearGradient>
    <linearGradient id="linear-gradient-10" x1="0.38" y1="1" x2="0.38" y2="0" xlink:href="#linear-gradient-7"/>
    <linearGradient id="linear-gradient-11" x1="1.717" y1="1.672" x2="0.102" y2="-0.076" xlink:href="#linear-gradient-7"/>
    <linearGradient id="linear-gradient-12" x1="0" y1="0.5" x2="1" y2="0.5" xlink:href="#linear-gradient-9"/>
    <linearGradient id="linear-gradient-13" x1="0.818" y1="1" x2="0" y2="0.084" xlink:href="#linear-gradient-9"/>
    <linearGradient id="linear-gradient-14" x1="-1.837" y1="0.812" x2="-1.712" y2="-0.508" gradientUnits="objectBoundingBox">
      <stop offset="0" stop-color="#030228"/>
      <stop offset="1" stop-color="#13435e"/>
    </linearGradient>
    <linearGradient id="linear-gradient-19" x1="1" y1="1" x2="0.741" y2="0.152" xlink:href="#linear-gradient-14"/>
    <linearGradient id="linear-gradient-20" x1="0.17" y1="0.808" x2="0.339" y2="0.338" xlink:href="#linear-gradient-14"/>
  </defs>
  <g id="Group_17003" data-name="Group 17003">
    <path id="Path_16091" data-name="Path 16091" d="M13.766,0A13.945,13.945,0,0,0,.02,13.256c0,.081-.01.152-.01.223C0,13.691,0,13.9,0,14.117a14.265,14.265,0,0,0,2.289,7.575A13.434,13.434,0,0,0,4.6,24.385a13.78,13.78,0,0,0,9.167,3.605H62.243a13.7,13.7,0,0,0,6.326-1.6,13.914,13.914,0,0,0,5.5-5.276,3.676,3.676,0,0,0,.241-.435A14.05,14.05,0,0,0,71.933,4.1a15.3,15.3,0,0,0-1.486-1.306c-.161-.122-.331-.243-.5-.365-.341-.233-.693-.446-1.054-.658-.181-.1-.372-.192-.552-.294A14.636,14.636,0,0,0,66.6.749c-.2-.071-.4-.132-.6-.192C65.667.456,65.336.375,65,.3c-.442-.091-.9-.172-1.356-.223A12.936,12.936,0,0,0,62.243,0Z" fill="url(#linear-gradient)"/>
    <g id="moon" transform="translate(28.175)">
      <path id="Path_16092" data-name="Path 16092" d="M56.76,5.79a14.451,14.451,0,0,1-.23,2.57,10.96,10.96,0,0,1-.33,1.4,12.555,12.555,0,0,1-.69,1.89,14.594,14.594,0,0,1-3.29,4.63c-.33.3-.67.6-1.03.87a3.375,3.375,0,0,1-.38.28H50.8a.078.078,0,0,1-.04.04,14.309,14.309,0,0,1-8.39,2.7h-.09a14.185,14.185,0,0,1-5.86-1.29h-.01a13.2,13.2,0,0,1-2.33-1.35h-.01a.21.21,0,0,1-.08-.06,13.791,13.791,0,0,1-1.46-1.19,14.487,14.487,0,0,1-1.76-2h-.01A14.018,14.018,0,0,1,29,11.08a6.035,6.035,0,0,1-.26-.71,14.187,14.187,0,0,1-.75-4.58c0-.5.03-1,.07-1.49A14.092,14.092,0,0,1,29.21,0H55.54a14.167,14.167,0,0,1,1.22,5.79" transform="translate(-27.99)" fill="#fff" opacity="0.1"/>
      <path id="Path_16093" data-name="Path 16093" d="M54,5.79v.03a4.7,4.7,0,0,1-.02.53,11.093,11.093,0,0,1-.67,3.37v.01a1.427,1.427,0,0,1-.08.22c-.07.18-.14.36-.22.53a10.677,10.677,0,0,1-.59,1.17,11.8,11.8,0,0,1-2.1,2.62,11.642,11.642,0,0,1-2.93,2.01c-.21.1-.42.19-.64.28a11.311,11.311,0,0,1-1.65.52h-.01a11.073,11.073,0,0,1-2.72.33,11.668,11.668,0,0,1-1.98-.17,11.593,11.593,0,0,1-3.04-.96c-.35-.18-.69-.36-1.02-.57-.01.01-.01.01-.02,0l-.01-.01a11.686,11.686,0,0,1-4.15-4.37v-.01c-.04-.08-.09-.16-.12-.24a11.481,11.481,0,0,1-1.28-5.29,4.52,4.52,0,0,1,.02-.52V5.26A11.455,11.455,0,0,1,32.29,0H52.46A11.59,11.59,0,0,1,54,5.79" transform="translate(-27.99)" fill="#fff" opacity="0.1"/>
      <path id="Path_16094" data-name="Path 16094" d="M51.24,5.79c0,.19-.01.37-.02.56a8.788,8.788,0,0,1-1.31,4.12.01.01,0,0,0-.01.01,8.583,8.583,0,0,1-.89,1.17,8.857,8.857,0,0,1-13.75-.57,8.642,8.642,0,0,1-1.39-2.8,8.569,8.569,0,0,1-.36-2.49A8.77,8.77,0,0,1,35.67,0H49.08a8.7,8.7,0,0,1,1.8,3.28,1.413,1.413,0,0,1,.06.22,8.665,8.665,0,0,1,.3,2.29" transform="translate(-27.99)" fill="#fff" opacity="0.1"/>
      <path id="Path_16095" data-name="Path 16095" d="M48.48,5.79a5.253,5.253,0,0,1-.03.56,6.06,6.06,0,0,1-2.29,4.23,7.519,7.519,0,0,1-.75.5,3.191,3.191,0,0,1-.45.23.313.313,0,0,0-.1.05,6.073,6.073,0,0,1-2.49.53,5.967,5.967,0,0,1-3.03-.81,6.153,6.153,0,0,1-2.79-3.44,6.226,6.226,0,0,1-.28-1.85A6.111,6.111,0,0,1,40.42,0h3.9a6.121,6.121,0,0,1,4.16,5.79" transform="translate(-27.99)" fill="#fff" opacity="0.1"/>
      <path id="Path_16096" data-name="Path 16096" d="M42.375,2.44a3.349,3.349,0,1,1-3.35,3.349,3.348,3.348,0,0,1,3.35-3.349" transform="translate(-27.99)" fill="#fff"/>
    </g>
    <path id="Path_16097" data-name="Path 16097" d="M4.58,16.28v7.8a13.893,13.893,0,0,0,9.174,3.56h12.37a.076.076,0,0,0,.04.01v-.01h.181l.04.01.01-.01H62.269A13.856,13.856,0,0,0,68.6,26.06V16.28Z" transform="translate(0 0.35)" fill="url(#linear-gradient-2)"/>
    <path id="Path_16100" data-name="Path 16100" d="M47.634,2.244a1.183,1.183,0,0,0-.516.955A1.808,1.808,0,0,0,45.743,4.87a1.2,1.2,0,0,0-1.2.048,1.2,1.2,0,0,0-2.383-.249,1.75,1.75,0,0,0-2.062.954.918.918,0,0,0-1.28.161.662.662,0,0,0-.907.232.536.536,0,0,0-.028.053.643.643,0,0,0-.064.282H55.8a.427.427,0,0,0-.427-.428h0a.428.428,0,0,0-.341.169.928.928,0,0,0-.846,0,.732.732,0,0,0-.563-.466,1.382,1.382,0,0,0-.687-.567,1.188,1.188,0,0,0,.034-.285,1.24,1.24,0,0,0-1.732-1.139.63.63,0,0,0-.3-.129,1.207,1.207,0,0,0-.1-.321,1.225,1.225,0,0,0-1.112-.714,1.239,1.239,0,0,0-.446.084,1.184,1.184,0,0,0-1.645-.31" transform="translate(0.203)" fill="url(#linear-gradient-3)"/>
    <path id="Path_16098" data-name="Path 16098" d="M26.435,5.832a1.078,1.078,0,0,0-.14-.006,1.513,1.513,0,0,0-1.485,1.8,1.027,1.027,0,0,0-.308.665,1.51,1.51,0,0,0-1.736,1.5,1.5,1.5,0,0,0,.086.5.807.807,0,0,0-.381.467.241.241,0,0,0-.038,0,.332.332,0,0,0-.3.191.515.515,0,0,0-.218-.047.549.549,0,0,0-.219.047l0,0a.494.494,0,0,0-.181.139h26.2a.345.345,0,0,0-.619-.208.746.746,0,0,0-.679,0,.59.59,0,0,0-1.089-.039.764.764,0,0,0-.233-.039.743.743,0,0,0-.279.056.535.535,0,0,0-.481-.3.53.53,0,0,0-.269.073.739.739,0,0,0-1.028-.128,1.4,1.4,0,0,0-1.273-.818,1.421,1.421,0,0,0-.379.053.966.966,0,0,0-1.913.2.97.97,0,0,0-.514-.146.95.95,0,0,0-.444.109,1.455,1.455,0,0,0-1.108-1.339.95.95,0,0,0-1.734-.516.974.974,0,0,0-.358-.069.984.984,0,0,0-.892.575.827.827,0,0,0-.621-.279.842.842,0,0,0-.166.017,1.021,1.021,0,0,0-1.018-.947A1.514,1.514,0,0,0,31.1,5.826h-.048a2.452,2.452,0,0,0-4.622.006" transform="translate(0.135 0.071)" fill="url(#linear-gradient-3)"/>
    <path id="Path_16099" data-name="Path 16099" d="M62.874,4.9a2.449,2.449,0,0,0-1.492,1.489h-.048A1.513,1.513,0,0,0,59.822,7.9a1.023,1.023,0,0,0-1.018.948.85.85,0,0,0-.166-.017.823.823,0,0,0-.621.279.983.983,0,0,0-.892-.574.965.965,0,0,0-.358.067.95.95,0,0,0-1.734.518,1.453,1.453,0,0,0-1.108,1.338.957.957,0,0,0-.444-.11.972.972,0,0,0-.514.148.967.967,0,0,0-1.913-.2,1.4,1.4,0,0,0-1.652.765.739.739,0,0,0-1.028.129.51.51,0,0,0-.27-.074.532.532,0,0,0-.48.3.743.743,0,0,0-.28-.055.705.705,0,0,0-.232.038.59.59,0,0,0-.782-.291.6.6,0,0,0-.307.329.746.746,0,0,0-.679,0,.345.345,0,0,0-.624.211H70.926a.494.494,0,0,0-.181-.139l0,0a.518.518,0,0,0-.219-.048.488.488,0,0,0-.218.048.33.33,0,0,0-.3-.192h-.038a.807.807,0,0,0-.381-.467,1.51,1.51,0,0,0-1.426-2.012,1.525,1.525,0,0,0-.224.017,1.029,1.029,0,0,0-.308-.665,1.533,1.533,0,0,0,.027-.287,1.513,1.513,0,0,0-1.512-1.511,1.07,1.07,0,0,0-.14.006A2.45,2.45,0,0,0,62.874,4.9" transform="translate(0.31 0.08)" fill="url(#linear-gradient-3)"/>
    <path id="Path_16101" data-name="Path 16101" d="M13.1,2.869a.938.938,0,0,0-.853.549.921.921,0,0,0-.073.245.471.471,0,0,0-.23.1.954.954,0,0,0-1.3,1.094,1.057,1.057,0,0,0-.527.435.568.568,0,0,0-.432.358.716.716,0,0,0-.65,0,.33.33,0,0,0-.262-.129l-.006-.006a.33.33,0,0,0-.329.331h13.8a.5.5,0,0,0-.047-.218.506.506,0,0,0-.459-.291.514.514,0,0,0-.259.07.7.7,0,0,0-.982-.122A1.341,1.341,0,0,0,19.267,4.5a1.385,1.385,0,0,0-.362.049.925.925,0,0,0-1.829.192.926.926,0,0,0-.918-.036A1.388,1.388,0,0,0,15.1,3.427a.908.908,0,0,0-.908-.891.915.915,0,0,1-1.093.333" fill="url(#linear-gradient-3)"/>
    <path id="Path_16102" data-name="Path 16102" d="M7.068,17.473H58.137c-20.051,0-25.667-7.185-28.859-7.185-2.6,0-9.382,7.185-22.21,7.185" transform="translate(0 0.176)" fill="url(#linear-gradient-7)"/>
    <path id="Path_16103" data-name="Path 16103" d="M3.37,11.42c-.03.02-.06.03-.09.05-.05.03-.1.05-.15.08-.01.01-.02.01-.04.02-.08.04-.16.09-.25.13l-.01.01c-.04.02-.09.05-.14.07s-.08.05-.13.07l-.02.01c-.02.01-.03.02-.05.02l-.02.01c-.77.4-1.59.79-2.45,1.2,0,.08-.01.15-.01.22-.01.21-.01.42-.01.63a13.993,13.993,0,0,0,2.28,7.48c.78.11,1.55.21,2.3.29a57.693,57.693,0,0,0,6.69.49c.13,0,.26,0,.38-.01.32-.01.62-.02.89-.05a1.948,1.948,0,0,0,.25-.02h.01c.08-.01.14-.02.21-.03a2.662,2.662,0,0,0,.44-.08,1.419,1.419,0,0,0,.22-.05c.05-.01.09-.02.13-.03h.01l.06-.03a.185.185,0,0,0,.07-.02,1.009,1.009,0,0,0,.15-.07h.01a.946.946,0,0,0,.2-.11c.09-.06.19-.12.29-.19a2.116,2.116,0,0,0,.21-.11l.06-.03c.11-.06.23-.12.35-.18.06-.02.12-.05.18-.07.01-.01.02-.02.03-.02a.612.612,0,0,1,.12-.05.758.758,0,0,1,.16-.06.355.355,0,0,1,.09-.04c.39-.15.8-.28,1.22-.4l.23-.06h.01a.037.037,0,0,1,.03-.01l.12-.03c0-.01.01-.01.02-.01.05-.01.11-.03.16-.04.26-.06.51-.12.77-.17.08-.02.16-.03.24-.05.01,0,.02-.01.04-.01a1.766,1.766,0,0,0,.2-.04h.03a1.046,1.046,0,0,0,.17-.04h.01c.23-.04.46-.08.68-.11,2.78-.45,4.93-.51,2.99-1.06-2.2-.63-4.18-1.08,5.63-1.3.34-.01.69-.01,1.06-.02.18,0,.36-.01.55-.01l1.81-.03,2.31-.03h.01c.75-.01,1.53-.01,2.36-.02.44-.01.89-.01,1.35-.01.6-.01,1.22-.01,1.86-.02a1.275,1.275,0,0,1,.19.01s.01.01.01,0a1.21,1.21,0,0,1,.19-.01c.73,0,1.48-.01,2.25-.01H53.22c-.59,0-1.16-.01-1.73-.02-.23,0-.45-.01-.68-.02H50.8c-.21,0-.41-.01-.62-.02-.48-.01-.96-.03-1.43-.06s-.95-.05-1.42-.09c-.38-.02-.76-.05-1.13-.08s-.74-.06-1.1-.1h-.01c-.47-.04-.93-.09-1.39-.15-.19-.02-.38-.04-.57-.07-.43-.05-.86-.1-1.27-.16a2.336,2.336,0,0,1-.26-.04h-.01c-.8-.11-1.59-.24-2.36-.38-.31-.05-.62-.11-.93-.17-.38-.06-.75-.14-1.12-.22a3.149,3.149,0,0,1-.42-.09c-.14-.02-.28-.05-.42-.08a.01.01,0,0,1-.01-.01c-.01.01-.01.01-.02,0-.11-.02-.22-.05-.32-.07-.39-.08-.76-.17-1.13-.26-.48-.11-.95-.23-1.41-.35-.92-.23-1.82-.48-2.68-.75h-.01c-.53-.16-1.04-.32-1.54-.48a.5.5,0,0,1-.13-.04c-.95-.31-1.87-.63-2.74-.94-.48-.18-.94-.35-1.39-.52h-.01c-.26-.11-.52-.21-.77-.31-.11-.05-.23-.09-.34-.14-.4-.15-.78-.31-1.15-.47-.24-.1-.48-.2-.71-.3-.1-.05-.2-.09-.3-.13-.58-.25-1.13-.49-1.66-.73-.41-.18-.81-.36-1.19-.54-1.59-.72-2.95-1.34-4.09-1.78-.17-.07-.35-.14-.51-.19s-.32-.12-.48-.17h-.02c-.15-.05-.3-.09-.44-.13a5.721,5.721,0,0,0-.82-.17,2.186,2.186,0,0,0-.36-.03.615.615,0,0,0-.13-.01c-1.64,0-4.43,1.99-8.61,4.22" transform="translate(0 0.199)" fill="url(#linear-gradient-8)"/>
    <path id="Path_16104" data-name="Path 16104" d="M11.978,7.2c4.564,0,16.6,10.269,41.247,10.269H42.291c-6.2.023-10.714.073-13.948.145-6.461-.5-12.582-6.4-13-7.194s4.665,1.444,4.029.533S13.234,7.2,11.978,7.2Z" transform="translate(0.108 0.146)" opacity="0.1" fill="url(#linear-gradient-9)"/>
    <path id="Path_16105" data-name="Path 16105" d="M54.56,9.33a.031.031,0,0,0-.02.01.22.22,0,0,0-.08.01.784.784,0,0,0-.14.02,2.774,2.774,0,0,0-.33.09h-.01c-.13.04-.27.1-.41.15-.08.03-.17.07-.26.11v.01a3.021,3.021,0,0,0-.36.18c-.04.02-.08.04-.13.06a2.247,2.247,0,0,0-.21.12c-.18.09-.36.19-.55.3-.56.32-1.19.71-1.87,1.16a1.4,1.4,0,0,1-.16.1h-.01c-.94.6-1.98,1.28-3.11,1.99-.57.35-1.17.71-1.79,1.08s-1.25.73-1.91,1.09H43.2c-.29.16-.58.32-.88.47-.24.13-.48.25-.72.38h-.01c-.39.2-.79.39-1.2.58-.16.08-.34.16-.51.23l-.01.01c0,.01-.01,0-.01,0l-.01.01c0,.01-.01,0-.01,0a.076.076,0,0,1-.04.02c-.5.23-1.02.45-1.54.67-.05.02-.1.04-.16.06-.54.22-1.09.43-1.65.62a.04.04,0,0,1-.04.02c-.43.16-.86.3-1.3.43-.25.08-.5.16-.75.23-.36.11-.71.2-1.07.29s-.72.18-1.08.26c-.86.19-1.73.35-2.62.48-.45.06-.9.11-1.36.15-.37.04-.74.06-1.12.08l-.5.03c-.38.01-.77.02-1.16.02.69,0,1.36,0,2.01.01q1.485,0,2.85.03c.55.01,1.09.03,1.62.04.23,0,.47.01.69.02.11,0,.21.01.32.01l3.74.16,2.14.15h.02c5.48.43,7.6,1.18,4.98,2.09l-.09.03c-.03.01-.05.02-.08.03a.235.235,0,0,0-.08.02c-.07.02-.13.05-.21.07h-.02c-.01,0-.01,0-.02.01s-.04.01-.06.02-.02,0-.02.01c-.11.03-.2.06-.29.09a.442.442,0,0,0-.16.06h-.01c-.96.35-.9.63-.23.88a1.543,1.543,0,0,1,.17.05c.05.02.1.03.16.05.03.01.06.01.09.02h.01c.06.02.11.04.18.06h.01a.353.353,0,0,1,.14.03c.13.02.27.05.42.08a.5.5,0,0,0,.12.02l.04.01c.05.01.1.02.16.03h.01c.12.02.24.04.37.06l.14.03h.01c.08.01.16.02.25.04h.06l.39.06a.22.22,0,0,0,.08.01h.01c.09.02.18.03.27.05h.01a1.8,1.8,0,0,1,.22.02c.23.04.47.07.71.09.1.02.2.03.3.05s.22.02.33.04a.875.875,0,0,1,.16.02h.03c.14.02.26.04.4.05a1.114,1.114,0,0,0,.17.02H48c.14.03.28.04.42.06.02,0,.05.01.07.01.05.01.09.01.14.02a.585.585,0,0,1,.13.02h.01a1.108,1.108,0,0,1,.19.02c.02,0,.03.01.05.01h.01c.11.01.22.03.32.04l.04.01c.04,0,.08.01.12.01h.01c.48.07.94.13,1.39.21h.01a1.46,1.46,0,0,1,.22.03,13.1,13.1,0,0,1,2.74.64c2.94,1.24,12.82-5.7,12.82-5.7h7.08a3.622,3.622,0,0,0,.24-.43,22.234,22.234,0,0,1-5.72-2.2c-.87-.48-1.71-.99-2.52-1.52-.11-.07-.22-.15-.33-.22-.09-.07-.19-.13-.28-.19a.01.01,0,0,0-.01-.01c-.08-.05-.16-.11-.24-.16-.09-.07-.18-.13-.27-.19s-.18-.13-.26-.19l-.09-.06-.01-.01-.09-.06a.176.176,0,0,0-.05-.04h-.01c-.04-.03-.07-.06-.11-.09-.06-.04-.11-.08-.16-.12-.22-.15-.44-.31-.65-.47l-.01-.01a.176.176,0,0,1-.05-.04l-.36-.27a.7.7,0,0,1-.1-.08c-.06-.04-.12-.09-.18-.13l-.01-.01-.12-.09h-.01a.176.176,0,0,0-.05-.04c-.01-.02-.02-.02-.03-.03a.031.031,0,0,0-.02-.01.47.47,0,0,0-.12-.09.55.55,0,0,0-.09-.07c-1.1-.85-2.11-1.67-3.03-2.37A18.464,18.464,0,0,0,56.2,9.76a3.482,3.482,0,0,0-1.5-.44.708.708,0,0,0-.14.01" transform="translate(0.31 0.35)" fill="url(#linear-gradient-10)"/>
    <path id="Path_16250" data-name="Path 16250" d="M7.16,12.63a5,5,0,0,0-1.84.5c-.04.02-.09.04-.14.07H5.17a.338.338,0,0,0-.12.06H5.04a.037.037,0,0,0-.03.01c-.09.04-.19.08-.29.13-.24.12-.5.24-.77.39-.06.03-.13.06-.2.1s-.17.09-.26.14a.536.536,0,0,0-.11.05c-.01.01-.03.02-.04.03-.06.03-.12.06-.19.1-.27.15-.56.3-.85.46l-.15.09c-.16.09-.31.18-.47.25l-.01.01c-.48.28-.98.57-1.51.86a13.731,13.731,0,0,0,2.12,5.54,13.3,13.3,0,0,0,2.3,2.66,13.788,13.788,0,0,0,9.13,3.56h2.36c.08-.66,1.47-1.23,3.58-1.69l.13-.03a1.062,1.062,0,0,1,.19-.04,2.722,2.722,0,0,1,.33-.07c.06-.01.12-.03.19-.04.18-.03.35-.07.55-.11h.04a2,2,0,0,0,.24-.04.5.5,0,0,0,.12-.02c.1-.01.2-.03.3-.05a.5.5,0,0,0,.12-.02h.01a.425.425,0,0,0,.11-.02,1.113,1.113,0,0,0,.17-.02c.09-.01.18-.03.27-.04.04-.01.08-.01.13-.02l.64-.09c.03,0,.06-.01.09-.01l.25-.03.21-.03c.48-.06.98-.11,1.48-.17a.41.41,0,0,0,.11-.01c.08-.01.15-.01.23-.02h.01c.02,0,.04-.01.07-.01h.02c.06-.01.13-.01.2-.02.03,0,.06-.01.09-.01a1.62,1.62,0,0,1,.22-.01.277.277,0,0,1,.09-.01q.3-.045.6-.06a.487.487,0,0,1,.12-.01,1.948,1.948,0,0,1,.25-.02h.01s0-.01.01,0h.01c.04,0,.07-.01.12-.01h.02c.07-.01.15-.01.23-.02h.11c1.7-.13,3.44-.21,5.1-.25.51-.01,1.03-.01,1.55-.01-.38,0-.76-.01-1.13-.03-.31-.02-.62-.04-.92-.07s-.59-.06-.88-.11a.389.389,0,0,1-.15-.02c-.16-.01-.31-.04-.46-.06a2.838,2.838,0,0,1-.31-.06c-.24-.03-.46-.08-.69-.13a27.721,27.721,0,0,1-5.99-1.99c-.36-.16-.72-.34-1.07-.51-.29-.14-.58-.29-.86-.44-.76-.39-1.5-.8-2.21-1.23-.21-.12-.42-.25-.62-.38-1.16-.7-2.26-1.43-3.29-2.13-.43-.29-.85-.58-1.25-.86-.17-.11-.32-.22-.48-.33-.35-.25-.7-.49-1.03-.71-.17-.12-.33-.23-.5-.34-.31-.21-.61-.41-.89-.6s-.56-.37-.83-.53c-.42-.25-.82-.48-1.19-.68a8.318,8.318,0,0,0-1.08-.49,3.844,3.844,0,0,0-.4-.14H8.15a.977.977,0,0,0-.23-.06,2.765,2.765,0,0,0-.54-.09,1.087,1.087,0,0,0-.18-.01Z" transform="translate(0 0.35)" fill="url(#linear-gradient-11)"/>
    <path id="Path_16251" data-name="Path 16251" d="M49.586,13.867c3.121-1.083-3.227,5.82-10.77,7.4-3.326-.264-7.882-.412-13.363-.412C40.575,20.855,51.378,9.33,54.7,9.33c-1.482,0-8.24,5.618-5.118,4.537" transform="translate(0.17 0.208)" opacity="0.1" fill="url(#linear-gradient-12)"/>
    <path id="Path_16252" data-name="Path 16252" d="M7.166,12.627c4.467,0,14.151,12,27.222,12a76.948,76.948,0,0,0-14.916,1.356,31.66,31.66,0,0,1-8.2-8.953c-.555-1.315,4.393,2.756,4,1.673s-6.087-6.074-8.111-6.074Z" transform="translate(0 0.35)" opacity="0.1" fill="url(#linear-gradient-13)"/>
  </g>
  <g id="trees" transform="translate(1.328 9.234)">
    <path id="Path_16397" data-name="Path 16397" d="M56.44,7.8l.22-.05-.45.62.22-.05-.07.13.18-.06-.48.66.27-.06-.09.16.16-.05-.37.51-.47-.64.19.06-.08-.14.25.05-.51-.69.26.06-.59-.79-.59.79.27-.06-.51.69.24-.05-.08.14.2-.06-.54.73.3-.06-.1.17.17-.05-.67.91.39-.09-.13.24.23-.07-.79,1.07.47-.1-.16.28.36-.11-.86,1.17-.32-.44.2.06-.11-.21.34.08-.6-.82.15.05-.09-.16.27.06-.48-.65.18.05-.07-.13.22.05-.46-.62.23.05-.52-.71-.53.71.24-.05-.46.62.22-.05-.07.13.17-.05-.2.28-.34-.49.2.06-.08-.15.24.06-.51-.73.27.06-.58-.84-.57.84.26-.06-.5.73.24-.06-.08.15.19-.06-.52.77.28-.07L50,11.7l.17-.06-.66.97.38-.09-.12.24.22-.07-.72,1.05-.33-.45.16.05-.07-.13.22.05-.44-.59.22.05-.5-.68-.5.68.22-.05-.44.59.21-.05-.07.13.17-.05-.46.62.25-.05-.08.14.15-.04-.58.78.34-.08-.11.21.19-.06-.3.41-.39-.58.17.06-.09-.18.28.07-.51-.74.19.06-.08-.15.23.05-.48-.7.24.06-.55-.81-.56.81.25-.06-.48.7.24-.05-.08.15.18-.06-.5.74.28-.07-.09.18.16-.05-.64.93.36-.09-.12.24.23-.08-.75,1.11.44-.11-.14.28.34-.11-.85,1.24-.29-.38.3.09-.13-.23.39.09-.66-.89.2.06-.1-.19.31.07-.56-.75.15.04-.08-.14.24.05-.45-.6.17.05-.06-.11.2.04-.42-.57.21.05-.48-.65-.48.65.21-.05-.42.57.2-.04-.06.11.17-.05-.45.6.24-.05-.08.14.15-.04-.37.49L42.57,16l.17.06-.09-.18.28.07-.49-.74.17.06-.08-.16.23.06-.47-.71.24.06-.54-.82-.55.82.25-.06-.48.71.24-.06-.08.16.17-.06-.49.74.27-.07-.09.18.18-.06-.64.96.35-.09-.11.23.22-.07-.74,1.11.44-.11-.14.29.33-.11-.35.53h2.44l-.02-.04.56-.17.7.21h.45l-.06-.11.45.1-.46-.62.45-.11-.17.34,1.42-.46,1.43.46L47.79,18l.52.13-.79-1.16.19-.06.05.02-.01-.03.78-.23,1.29.38-.15-.28.47.11-.81-1.09.31.09-.13-.24.4.09-.28-.37,1.16-.38,1.48.48-.17-.34.53.13-.46-.67.05-.02,1.35.4-.16-.29.49.11-.85-1.15.33.1-.14-.25.43.1-.33-.44.41-.09-.18.32,1.51-.45,1.51.45-.18-.32.55.12-.74-1.01.75-.22,1.35.4-.16-.29.49.11-.85-1.15.33.1-.14-.25.43.09-.71-.96.2.06-.11-.2.35.08-.61-.83.15.05-.09-.16.27.06-.48-.65.17.05-.07-.13.23.05-.46-.62.23.05-.53-.71Z" transform="translate(0.31)" fill="url(#linear-gradient-14)"/>
    <path id="Path_16398" data-name="Path 16398" d="M66.99,0l-.52.7L66.7.65l-.45.61.21-.05-.07.13.18-.05-.48.65.26-.06-.08.15.15-.04-.6.81.34-.08-.11.2.22-.06-.72.96.43-.1-.14.26.32-.1-.57.77-.26-.36.16.05-.08-.15.26.06-.48-.65.18.05-.07-.12.21.04-.45-.6.23.05-.52-.71-.52.71.22-.05-.45.6.22-.05-.07.13.18-.05-.48.65.26-.06-.08.15.16-.05-.28.38-.27-.37.18.04-.41-.56-.41.56.18-.04-.36.48.17-.04-.05.1.14-.04-.37.5.2-.04-.07.12.13-.04-.48.64.27-.06-.09.16.16-.05-.55.75.34-.08-.11.2.25-.08-.46.63-.39-.54.19.06-.1-.18.32.07-.58-.79.16.05-.08-.15.25.06-.45-.61.16.05-.07-.13.21.05-.43-.58.23.05-.5-.67-.5.67.22-.05-.43.58.21-.05-.07.13.17-.05-.46.61.25-.06-.08.15.16-.05-.42.58-.36-.49.2.05-.44-.59-.44.59.2-.04-.39.51.19-.04-.06.11.14-.04-.4.54.22-.05-.07.13.14-.04-.51.69.28-.06-.09.16.17-.05-.59.8.36-.08-.12.21.27-.08-.71.96.41-.09-.13.24,1.13-.34,1.13.34-.13-.24.41.09-.64-.86.14-.04.06.02-.02-.03.6-.18,1.27.38-.15-.27.46.1-.8-1.08.31.09-.13-.24.22.05-.04.08.17-.05.05.01-.02-.02.85-.26,1.05.32-.13-.23.39.09-.36-.49.39-.12,1.34.4-.16-.29.49.11L65.6,6.2l.32.09-.14-.25.42.09-.7-.95.2.06-.03-.06.25-.07h.01l1.06-.32,1.34.4-.15-.28.48.11-.84-1.14.32.1L68,3.72l.43.1-.72-.96.22.06-.11-.2.34.08-.6-.81.15.04-.08-.15.26.06-.48-.65.18.05-.07-.13.21.05L67.28.65l.23.05Z" transform="translate(0.31)" fill="url(#linear-gradient-14)"/>
    <path id="Path_16399" data-name="Path 16399" d="M1.12,2.4l.22-.05L.9,2.94l.22-.05-.07.13.16-.05L.75,3.6l.26-.06-.08.15.15-.04-.59.79.34-.07-.11.19.2-.06-.69.93.41-.09-.13.24.31-.09L0,6.6l.47-.1-.15.27,1.31-.39,1.03.31.25.07-.03.06.21-.06-.69.93.4-.09-.13.24.32-.1L2.17,8.85l.48-.11-.16.29L3.8,8.64l.38.11-.35.48.37-.09-.12.23L5.1,9.06l.83.25-.02.03.07-.02.15.05L6.09,9.3l.22-.05-.13.23.29-.09-.78,1.05.46-.1L6,10.61l1.24-.37.58.17-.02.04.07-.02.12.03-.62.84.4-.09-.13.24,1.1-.33,1.1.33-.13-.24.4.09-.69-.93.27.08-.11-.21.34.08-.58-.78.17.05-.09-.16.28.06-.49-.67.12.04-.07-.13.22.05-.4-.53.15.04-.06-.1.18.04-.37-.5.19.04-.43-.58-.42.58.18-.04-.33.46-.41-.55.14.04-.08-.14.25.05-.45-.6.17.05-.06-.12.19.05L7.5,6.4l.22.05L7.24,5.8l-.49.65.22-.05-.42.57.2-.05-.06.12.15-.05-.44.6.25-.05-.08.14.15-.04-.56.75.31-.07-.1.19.2-.06-.39.52-.44-.6.24.07-.11-.19.33.07-.54-.73.16.05-.09-.16.26.06-.46-.63.12.04-.06-.11.2.04-.36-.49.13.04-.05-.1.16.04L5.32,5.9l.18.04L5.1,5.4l-.4.54.18-.04-.26.37L4.35,5.9l.15.05-.09-.16.26.06L4.2,5.22l.18.05-.06-.12.2.05-.44-.6.22.05-.5-.69-.51.69.23-.05-.45.6.21-.05-.06.12.17-.05-.47.63.27-.06-.09.16.15-.05-.26.34-.55-.75.31.09-.13-.24.41.09L2.34,4.5l.2.06-.11-.19.34.07-.59-.79.15.04-.08-.15.25.06-.46-.63.17.05-.07-.13.21.05-.44-.59.23.05-.51-.69Z" fill="url(#linear-gradient-14)"/>
    <path id="Path_16400" data-name="Path 16400" d="M10.88,9.32l.24-.05-.45.6.21-.05-.07.13.17-.05-.47.63.27-.06-.09.16.15-.05-.59.8.34-.07-.11.2.19-.06-.69.94.42-.1-.13.25.31-.09-.83,1.11.49-.11-.16.29,1.32-.4.73.22-.73.99.53-.12-.17.31,1.47-.44,1.47.44-.17-.31.4.09-.32.42.42-.09-.14.25.32-.1-.83,1.12.49-.11-.16.29,1.32-.4.05.01-.45.66.52-.13-.17.34,1.43-.47,1.13.37-.27.36.4-.09-.13.23.3-.09-.79,1.07.46-.1-.15.27,1.26-.38.76.23-.01.03.05-.02.19.06-.33.49h2.58l-.43-.63.33.1-.14-.27.43.1-.73-1.07.22.07-.11-.22.35.08-.62-.91.15.05-.09-.18.28.07L22,15.2l.18.06-.07-.14.23.05-.47-.68.24.06-.54-.79-.54.79.24-.06-.47.68.22-.05-.07.14.19-.06-.5.73.27-.06-.09.17.16-.05-.38.55-.3-.4.2.06-.1-.19.32.07-.57-.76.15.04-.08-.15.25.06-.45-.61.16.05-.06-.12.2.05-.43-.58.22.05-.49-.66-.49.66.22-.05-.43.58.2-.05-.06.12.17-.05-.33.45-.71-1.03.22.07-.12-.23.37.09-.64-.94.16.05-.09-.18.28.07-.51-.75.19.06-.08-.16.24.06-.48-.7.24.06-.56-.82-.55.82.24-.06-.48.7.24-.06-.08.16.18-.06-.32.47-.19-.27.16.05-.07-.13.22.05-.45-.6.23.05-.51-.69-.52.69.24-.05-.45.6.21-.05-.07.13.17-.05-.47.63.27-.06-.09.16.15-.04-.59.79.34-.07-.11.2.19-.06-.31.43-.85-1.15.36.11-.15-.27.46.1-.78-1.05.23.07-.12-.22.38.09-.66-.9.17.05-.09-.16.28.06-.52-.71.19.06-.08-.15.24.05-.49-.66.25.05-.57-.77-.58.77.25-.05-.49.66.24-.05-.08.15.19-.06-.45.61-.36-.49.15.05-.09-.16.26.06-.46-.63.16.05-.07-.13.22.05-.44-.6.22.05-.51-.7Z" fill="url(#linear-gradient-14)"/>
    <path id="Path_16401" data-name="Path 16401" d="M25.46,15.87l.24-.06-.46.69.22-.06-.07.15.18-.06-.49.73.27-.07-.09.18.17-.06-.27.41-.36-.48.14.04-.07-.13.23.05-.43-.59.16.05-.07-.12.2.04-.4-.54.2.04-.47-.64-.47.64.2-.04-.4.54.2-.04-.07.12.16-.05-.43.59.23-.05-.07.13.14-.04-.55.73.31-.07-.1.19.18-.05-.18.24-.34.46h1.6a.076.076,0,0,0,.04.01v-.01h.18l.04.01.01-.01h2.06l-.29-.43.21.07-.11-.23.34.09-.61-.92.16.05-.09-.18.27.07-.48-.73.17.06-.07-.15.22.06-.45-.69.23.06-.53-.8Z" transform="translate(0.111)" fill="url(#linear-gradient-14)"/>
  </g>
  <path id="Path_16249" data-name="Path 16249" d="M70.31,11.5a2.222,2.222,0,0,0-.23.15q-.36.24-.75.51a2.027,2.027,0,0,0-.18.13c-.08.05-.16.11-.25.17a.424.424,0,0,1-.07.05c-.01.01-.02.01-.03.03-.04.02-.09.06-.14.09-.46.33-.95.68-1.45,1.04-.05.04-.09.07-.13.1a1.054,1.054,0,0,0-.11.07l-.01.01a.317.317,0,0,0-.06.05c-.01.01-.02.01-.03.02a1.047,1.047,0,0,0-.11.08.209.209,0,0,1-.06.04c-.02.02-.04.03-.06.05-.1.07-.2.14-.3.22-.02.01-.03.02-.05.03-.21.15-.42.31-.64.47-.01,0-.01.01-.02.01a.01.01,0,0,1-.01.01c-.01.01-.03.02-.04.03a.834.834,0,0,1-.12.08l-.03.03c-.02.01-.04.03-.06.04a.359.359,0,0,1-.1.07c0,.01,0,.01-.01.01v.01h-.01l-.21.15a.085.085,0,0,1-.05.03c-.07.06-.14.11-.21.16a2.306,2.306,0,0,1-.19.14c-.07.05-.14.1-.21.16-.06.04-.12.09-.19.14h-.01c-.14.1-.28.2-.42.31a1.462,1.462,0,0,0-.13.09c-.01,0-.02.02-.02.02a2.426,2.426,0,0,0-.2.14,1.092,1.092,0,0,0-.17.13c-.01,0-.02,0-.03.02a.47.47,0,0,0-.12.09.037.037,0,0,0-.03.01c-.35.25-.7.5-1.06.75-.06.04-.12.09-.18.13a.351.351,0,0,1-.08.05.55.55,0,0,1-.09.07.076.076,0,0,1-.04.02l-.03.03c-.02.01-.03.02-.05.03a.906.906,0,0,1-.16.11q-.48.345-.99.69c-.15.1-.28.2-.43.3a.01.01,0,0,1-.01.01h-.01c-.2.13-.4.27-.61.41-.06.04-.12.08-.19.13s-.16.11-.25.16l-.09.06c0,.01-.01.01-.02.01a.906.906,0,0,1-.16.11c-.29.19-.57.38-.87.57a2.129,2.129,0,0,1-.25.16.567.567,0,0,1-.13.08.218.218,0,0,1-.08.05c-.01.02-.02.02-.04.03a.746.746,0,0,1-.12.07c-.01.02-.02.03-.04.03a5.656,5.656,0,0,1-.48.31c-.46.29-.92.57-1.4.86-.05.03-.1.07-.16.1-.09.05-.18.11-.27.16s-.16.09-.24.14a.435.435,0,0,1-.07.04,1.093,1.093,0,0,1-.15.08.179.179,0,0,1-.07.05.251.251,0,0,1-.07.04c-.31.19-.63.37-.94.55h-.01a1.48,1.48,0,0,0-.21.13c-.22.11-.44.24-.66.36h-.01a.01.01,0,0,0-.01.01,1.125,1.125,0,0,0-.21.12H52.1c-.01,0-.01.01-.02.01-.27.16-.55.3-.83.45a.01.01,0,0,1-.01.01c-.08.04-.16.08-.25.13-.07.03-.14.07-.22.11-.05.03-.1.05-.15.08a.594.594,0,0,1-.08.04c-.04.02-.09.05-.14.07v.01c-.43.21-.86.43-1.3.64-.07.04-.14.07-.21.11h-.01c-.02,0-.02.01-.03.01-.08.04-.15.07-.22.11a.076.076,0,0,0-.04.02c-.03.01-.07.03-.1.04l-.06.03c-.02.01-.03.02-.05.02a.01.01,0,0,1-.01.01q-.7.33-1.44.66c-.15.07-.31.13-.46.2-.03.01-.07.03-.1.04-.01.01-.02.01-.03.02h-.01a2.287,2.287,0,0,0-.23.1.142.142,0,0,0-.06.02.612.612,0,0,1-.12.05c-.06.03-.12.05-.18.08-.46.19-.94.38-1.41.56-.07.03-.15.06-.22.09l-.09.03c-.16.06-.32.12-.48.17,0,0-.01.02-.02.01a.035.035,0,0,1-.02.01H61.99a13.817,13.817,0,0,0,11.78-6.79,3.622,3.622,0,0,0,.24-.43A13.829,13.829,0,0,0,75.03,9.59a2.453,2.453,0,0,0-.46-.04c-1.01,0-2.44.74-4.26,1.95" transform="translate(0.31 0.35)" fill="url(#linear-gradient-19)"/>
  <path id="Path_16396" data-name="Path 16396" d="M0,13.94a13.993,13.993,0,0,0,2.28,7.48,13.3,13.3,0,0,0,2.3,2.66,13.788,13.788,0,0,0,9.13,3.56H26.02c-.12-.04-.24-.09-.37-.13-.01-.01-.02-.01-.04-.01l-.3-.12-.09-.03c-.09-.03-.19-.07-.28-.1-.06-.02-.12-.05-.18-.07-.27-.1-.53-.2-.79-.31-.08-.03-.15-.05-.22-.08l-.01-.01a1.668,1.668,0,0,1-.2-.08c-.07-.03-.14-.05-.21-.08-.25-.1-.49-.2-.73-.3a.689.689,0,0,0-.08-.03l-.33-.15c-.05-.02-.1-.04-.16-.06v-.01h-.01c-.01,0-.01,0-.02-.01-.1-.04-.21-.09-.32-.14h-.01a2.557,2.557,0,0,1-.24-.11c-.1-.04-.19-.08-.28-.12h-.01a.031.031,0,0,0-.02-.01h-.01l-.01-.01c-.01-.01-.01-.01-.02-.01-.14-.06-.28-.13-.42-.19a.594.594,0,0,1-.08-.04.536.536,0,0,1-.11-.05,1.416,1.416,0,0,1-.18-.08c-.05-.02-.11-.05-.16-.07-.08-.04-.17-.08-.25-.12-.43-.2-.86-.41-1.28-.62-.15-.07-.29-.14-.44-.22a.536.536,0,0,1-.11-.05h-.01c-.05-.03-.1-.05-.15-.08a.035.035,0,0,0-.02-.01c-.07-.04-.15-.08-.23-.12-.01,0-.02-.01-.03-.02-.08-.04-.16-.08-.25-.13a1.494,1.494,0,0,1-.25-.13,2,2,0,0,1-.21-.1v-.01a.612.612,0,0,1-.12-.05c-.08-.05-.17-.09-.25-.14-.06-.03-.11-.06-.17-.09h-.01c-.01,0-.02-.01-.03-.02s-.03-.01-.04-.02c-.21-.11-.42-.22-.62-.33q-.795-.435-1.56-.87a.219.219,0,0,1-.05-.03.435.435,0,0,1-.07-.04h-.01a.6.6,0,0,1-.13-.09l-.01.01v-.01c-.01,0-.02,0-.02-.01H13.8c-.08-.05-.16-.09-.23-.14s-.16-.09-.24-.14q-.435-.24-.84-.48c-.06-.04-.12-.07-.17-.11-.02-.01-.03-.01-.04-.02-.04-.02-.08-.05-.11-.06-.08-.06-.16-.1-.24-.15h-.01l-.18-.12c-.2-.12-.41-.24-.6-.37-.01,0-.01-.01-.02-.01-.18-.1-.35-.2-.52-.31a.01.01,0,0,1-.01-.01c-.28-.16-.55-.34-.82-.51-.09-.05-.17-.1-.25-.15a.913.913,0,0,0-.13-.08,1.629,1.629,0,0,0-.17-.11l-.01-.01a.035.035,0,0,1-.02-.01c-.06-.04-.11-.07-.16-.1-.37-.24-.72-.46-1.07-.69a1.054,1.054,0,0,1-.11-.07c-.01-.01-.02-.01-.03-.02a1.739,1.739,0,0,0-.18-.11H7.63v-.01c-.02-.01-.04-.03-.06-.04-.05-.03-.1-.07-.16-.1a.991.991,0,0,0-.17-.11c-.25-.17-.5-.33-.75-.5a.01.01,0,0,1-.01-.01H6.47a3.257,3.257,0,0,1-.34-.22.555.555,0,0,1-.08-.06l-.06-.03c-.01-.01-.02-.02-.03-.02a.031.031,0,0,0-.02-.01c-.06-.04-.11-.07-.16-.11s-.11-.07-.16-.1c-.21-.14-.41-.27-.61-.4-.05-.03-.09-.06-.14-.09H4.86c-.03-.02-.05-.04-.08-.06-.01-.01-.03-.02-.04-.03l-.09-.06c-.09-.05-.17-.11-.26-.17a1.629,1.629,0,0,1-.17-.11c-.24-.16-.47-.31-.71-.46a.01.01,0,0,0-.01-.01c-.14-.09-.29-.18-.43-.27a.01.01,0,0,1-.01-.01c-.26-.16-.51-.33-.76-.49-.03-.01-.05-.03-.08-.04a1.629,1.629,0,0,0-.17-.11c-.04-.02-.08-.05-.12-.07a.209.209,0,0,0-.06-.04,1.739,1.739,0,0,0-.18-.11.922.922,0,0,0-.08-.05c-.57-.35-1.11-.67-1.6-.94-.01.21-.01.42-.01.63" transform="translate(0 0.35)" fill="url(#linear-gradient-20)"/>
</svg>
