<svg xmlns="http://www.w3.org/2000/svg" width="200" height="150" viewBox="0 0 200 150">
  <g id="not_found" transform="translate(0 1.726)">
    <rect id="Rectangle_17641" data-name="Rectangle 17641" width="199.792" height="150" transform="translate(0.003 -1.726)" fill="none"/>
    <g id="design" transform="translate(4.158 12.195)">
      <path id="back" d="M195.842,47.414a13.344,13.344,0,0,1-13.3,13.319H122.4a12.786,12.786,0,0,0,0,25.572H166.04a8.524,8.524,0,0,1,0,17.048H123.466a8.524,8.524,0,0,0,0,17.048h38.317a5.32,5.32,0,0,1,3.757,9.089,5.282,5.282,0,0,1-3.757,1.566h-92.6a5.32,5.32,0,0,1-3.757-9.089,5.282,5.282,0,0,1,3.757-1.566h14.9a8.524,8.524,0,0,0,0-17.048H8.515a8.524,8.524,0,0,1,0-17.048H20.223a12.786,12.786,0,0,0,0-25.572H13.3a13.319,13.319,0,0,1,0-26.637H77.166a9.057,9.057,0,0,0,0-18.113H50.557a7.979,7.979,0,0,1-7.514-5.327,7.664,7.664,0,0,1-.468-2.664A8,8,0,0,1,50.557,0h84.084a8,8,0,0,1,7.983,7.991,7.664,7.664,0,0,1-.468,2.664,7.968,7.968,0,0,1-7.514,5.327h-17.03a9.057,9.057,0,0,0,0,18.113h64.926a13.344,13.344,0,0,1,13.3,13.319" transform="translate(0 0)" fill="#fff"/>
    </g>
    <g id="circle" transform="translate(50.749 30.683)">
      <path id="Path_17194" data-name="Path 17194" d="M109.112,141.836a53.612,53.612,0,0,1-34.7-94.477,2.291,2.291,0,0,1,2.967,3.492,49.03,49.03,0,1,0,69.209,68.992,2.291,2.291,0,1,1,3.5,2.957,53.533,53.533,0,0,1-40.974,19.036" transform="translate(-55.5 -34.612)"/>
      <path id="Path_17195" data-name="Path 17195" d="M163.932,89.4a2.291,2.291,0,0,1-2.291-2.291,49.074,49.074,0,0,0-61.394-47.458,2.291,2.291,0,0,1-1.152-4.435,53.655,53.655,0,0,1,67.128,51.892,2.291,2.291,0,0,1-2.291,2.291" transform="translate(-59 -33.5)"/>
    </g>
    <g id="elements" transform="translate(0 -0.018)">
      <path id="Path_17196" data-name="Path 17196" d="M45.5,131.749a2.749,2.749,0,1,0-2.749,2.749,2.749,2.749,0,0,0,2.749-2.749" transform="translate(-3.382 -10.78)" fill="#1a496d"/>
      <path id="Path_17197" data-name="Path 17197" d="M67.666,26.833a1.833,1.833,0,1,0-1.833,1.833,1.832,1.832,0,0,0,1.833-1.833" transform="translate(-5.41 -2.089)" fill="#1a496d"/>
      <path id="Path_17198" data-name="Path 17198" d="M174.666,157.833a1.833,1.833,0,1,0-1.833,1.833,1.832,1.832,0,0,0,1.833-1.833" transform="translate(-14.455 -13.036)" fill="#1a496d"/>
      <path id="Path_17199" data-name="Path 17199" d="M186.415,130.83a6.415,6.415,0,1,1,6.415-6.415,6.422,6.422,0,0,1-6.415,6.415m0-11A4.582,4.582,0,1,0,191,124.415a4.587,4.587,0,0,0-4.582-4.582" transform="translate(-15.249 -9.86)" fill="#ef5456"/>
      <path id="Path_17200" data-name="Path 17200" d="M176.582,47.164a4.582,4.582,0,1,1,4.582-4.582,4.587,4.587,0,0,1-4.582,4.582m0-7.332a2.749,2.749,0,1,0,2.749,2.749,2.753,2.753,0,0,0-2.749-2.749" transform="translate(-14.544 -3.176)" fill="#ef5456"/>
      <path id="Path_17201" data-name="Path 17201" d="M86.5,11A5.5,5.5,0,1,1,92,5.5,5.5,5.5,0,0,1,86.5,11m0-9.164A3.666,3.666,0,1,0,90.164,5.5,3.669,3.669,0,0,0,86.5,1.833" transform="translate(-6.85)" fill="#ef5456"/>
      <path id="Path_17202" data-name="Path 17202" d="M4.582,80.164a4.582,4.582,0,1,1,4.582-4.582,4.587,4.587,0,0,1-4.582,4.582m0-7.332a2.749,2.749,0,1,0,2.749,2.749,2.753,2.753,0,0,0-2.749-2.749" transform="translate(0 -5.933)" fill="#ef5456"/>
      <path id="Path_17203" data-name="Path 17203" d="M133.581,12.04a.919.919,0,0,1-.916.916h-3.208v3.208a.916.916,0,1,1-1.833,0V12.957h-3.208a.916.916,0,1,1,0-1.833h3.208V7.916a.916.916,0,1,1,1.833,0v3.208h3.208a.919.919,0,0,1,.916.916" transform="translate(-10.444 -0.585)" fill="#2fdf84"/>
      <path id="Path_17204" data-name="Path 17204" d="M37.332,41.666a.668.668,0,0,1-.666.666H34.332v2.333a.666.666,0,1,1-1.332,0V42.332H30.666a.666.666,0,1,1,0-1.333H33V38.666a.666.666,0,1,1,1.332,0V41h2.333a.668.668,0,0,1,.666.666" transform="translate(-2.507 -3.176)" fill="#2fdf84"/>
      <path id="Path_17205" data-name="Path 17205" d="M217.164,79.582a.835.835,0,0,1-.833.833h-2.916v2.916a.833.833,0,1,1-1.666,0V80.415h-2.916a.833.833,0,0,1,0-1.666h2.916V75.833a.833.833,0,0,1,1.666,0v2.916h2.916a.835.835,0,0,1,.833.833" transform="translate(-17.589 -6.268)" fill="#2fdf84"/>
    </g>
    <g id="pie-chart_1_" data-name="pie-chart (1)" transform="translate(66.361 45.855)">
      <g id="Group_17171" data-name="Group 17171" transform="translate(2.203 2.749)">
        <path id="Path_17533" data-name="Path 17533" d="M125.576,297.434a1.129,1.129,0,0,1-1.642.349q-5.614-3.257-11.324-6.553a.228.228,0,0,0-.229,0L87.46,305.678" transform="translate(-76.681 -250.284)" fill="none"/>
        <path id="Path_17534" data-name="Path 17534" d="M75.135,388.75l-2.111,1.219a.076.076,0,0,0-.036.05.079.079,0,0,0,.012.061,34.3,34.3,0,0,0,5.657,6.509,1.15,1.15,0,0,1,.178,1.637" transform="translate(-64.356 -333.356)" fill="none"/>
        <path id="Path_17535" data-name="Path 17535" d="M360.641,343.29a1.119,1.119,0,0,0-.033,1.055,1.86,1.86,0,0,0,.721.62q4.319,2.511,8.682,5.057" transform="translate(-309.185 -294.644)" fill="none"/>
        <path id="Path_17536" data-name="Path 17536" d="M137.508,388.65a33.215,33.215,0,0,1-22.62,11.094,29.313,29.313,0,0,1-2.969.086,33.311,33.311,0,0,1-18.21-5.756,35.524,35.524,0,0,1-6.249-5.409" transform="translate(-76.681 -333.271)" fill="none"/>
        <path id="Path_17537" data-name="Path 17537" d="M128.25,399.915a1.069,1.069,0,0,1,1.253-.442,5.052,5.052,0,0,1,1.044.528q.794.476,1.006.594a32.385,32.385,0,0,0,31.752-.187q1.3-.738,2.509-1.587a32.855,32.855,0,0,0,8.571-8.847.072.072,0,0,0,.011-.056.069.069,0,0,0-.033-.045l-2.118-1.223" transform="translate(-111.416 -333.271)" fill="none"/>
        <path id="Path_17538" data-name="Path 17538" d="M154.454,208.731a1.1,1.1,0,0,1-.059-1.063,1.849,1.849,0,0,1,.723-.626q4.645-2.713,9.289-5.358a.149.149,0,0,0,.077-.131L164.478,197" transform="translate(-133.586 -170.068)" fill="none"/>
        <path id="Path_17539" data-name="Path 17539" d="M45.733,42.492l.006-26.868a.064.064,0,0,0-.067-.064,30.68,30.68,0,0,0-17.141,6.12q-1.159.864-2.286,1.888A34.651,34.651,0,0,0,16.154,39.7a30.518,30.518,0,0,0,.571,19.417" transform="translate(-14.841 -15.56)" fill="none"/>
        <path id="Path_17540" data-name="Path 17540" d="M27.54,286.2a33.63,33.63,0,0,0,1.637,3.7.072.072,0,0,0,.044.036.075.075,0,0,0,.057-.006q6.408-3.7,12.782-7.368a2.062,2.062,0,0,1,.935-.34,1.1,1.1,0,0,1,.941.567" transform="translate(-25.655 -242.638)" fill="none"/>
        <path id="Path_17541" data-name="Path 17541" d="M281.46,80.75a1.223,1.223,0,0,1,1.11.948q.01.05.007,1.3-.019,7.607.031,15.112" transform="translate(-241.885 -71.073)" fill="none"/>
        <path id="Path_17542" data-name="Path 17542" d="M289.03,197.7l-.03,4.536a.132.132,0,0,0,.067.114l27.218,15.727a.074.074,0,0,0,.1-.031,28.606,28.606,0,0,0,1.576-3.709" transform="translate(-248.305 -170.664)" fill="none"/>
        <path id="Path_17543" data-name="Path 17543" d="M311.545,59.418a31.776,31.776,0,0,0,1.909-11.137,32.724,32.724,0,0,0-3.393-14.168,32.42,32.42,0,0,0-27.349-18.335.123.123,0,0,0-.132.123V20.85a2.651,2.651,0,0,1-.135,1.033,1.145,1.145,0,0,1-.984.607" transform="translate(-241.885 -15.745)" fill="none"/>
        <path id="Path_17544" data-name="Path 17544" d="M56.547,197Q32.8,210.666,28.091,213.4a1.567,1.567,0,0,1-.551.223" transform="translate(-25.655 -170.068)" fill="none"/>
        <path id="Path_17545" data-name="Path 17545" d="M318.136,214.337,289.2,197.7" transform="translate(-248.476 -170.664)" fill="none"/>
      </g>
      <path id="Path_17546" data-name="Path 17546" d="M23.071,41.412a1.1,1.1,0,0,1-.059-1.063,1.849,1.849,0,0,1,.723-.626q4.645-2.713,9.289-5.358a.149.149,0,0,0,.077-.131l-.006-4.552L33.1,2.813a.064.064,0,0,0-.067-.064,30.68,30.68,0,0,0-17.141,6.12q-1.159.864-2.286,1.888A34.651,34.651,0,0,0,3.516,26.889a30.518,30.518,0,0,0,.571,19.417,33.628,33.628,0,0,0,1.637,3.7.072.072,0,0,0,.044.036.075.075,0,0,0,.057-.006q6.408-3.7,12.782-7.368a2.062,2.062,0,0,1,.935-.34,1.1,1.1,0,0,1,.941.567,1.2,1.2,0,0,1-.221,1.349q-.073.07-1.039.631-6.493,3.763-13,7.5a2.047,2.047,0,0,1-.858.324,1.05,1.05,0,0,1-.658-.2,1.631,1.631,0,0,1-.41-.514A32.6,32.6,0,0,1,0,36.909v-1.93a35.949,35.949,0,0,1,.52-5A36.588,36.588,0,0,1,12.408,8.917,32.949,32.949,0,0,1,24.64,1.961,32.116,32.116,0,0,1,33.807.517a2.15,2.15,0,0,1,.94.134,1.017,1.017,0,0,1,.485.533,1.84,1.84,0,0,1,.095.678q0,16.507.01,33.015a1.09,1.09,0,0,1-.626,1.042q-4.9,2.883-9.835,5.7a2.053,2.053,0,0,1-.894.33A1.092,1.092,0,0,1,23.071,41.412Z" transform="translate(0 0)"/>
      <path id="Path_17547" data-name="Path 17547" d="M309.278,34.78v1.707a35.334,35.334,0,0,1-4.069,15.375,2.129,2.129,0,0,1-.741.905,1.151,1.151,0,0,1-1.244-.108l-.353-.227q-14.2-8.2-28.393-16.408a.991.991,0,0,1-.456-.58,2.638,2.638,0,0,1-.064-.7q-.015-10.016-.009-20.031,0-1.228.013-1.291a1.114,1.114,0,0,1,2.2,0q.01.05.007,1.3-.019,7.607.031,15.112l-.03,4.536a.132.132,0,0,0,.067.114l27.218,15.727a.074.074,0,0,0,.1-.031,28.621,28.621,0,0,0,1.576-3.709,31.776,31.776,0,0,0,1.909-11.137,32.724,32.724,0,0,0-3.393-14.168A32.42,32.42,0,0,0,276.31,2.825a.123.123,0,0,0-.132.123V7.9a2.651,2.651,0,0,1-.135,1.033,1.144,1.144,0,0,1-.984.607,1.227,1.227,0,0,1-.864-.459,1.437,1.437,0,0,1-.215-.845q-.049-2.841-.033-5.684A7.459,7.459,0,0,1,274,1.388a1.057,1.057,0,0,1,.583-.695,1.818,1.818,0,0,1,.839-.125,34.129,34.129,0,0,1,20.934,7.79A34.61,34.61,0,0,1,304.8,18.537,35.471,35.471,0,0,1,309.278,34.78Z" transform="translate(-233.28 -0.043)"/>
      <path id="Path_17548" data-name="Path 17548" d="M45.733,42.492q-23.742,13.666-28.456,16.4a1.567,1.567,0,0,1-.551.223A30.518,30.518,0,0,1,16.154,39.7,34.651,34.651,0,0,1,26.245,23.568q1.127-1.024,2.286-1.888a30.68,30.68,0,0,1,17.141-6.12.064.064,0,0,1,.067.064Z" transform="translate(-12.638 -12.81)" fill="#ef5388"/>
      <path id="Path_17549" data-name="Path 17549" d="M311.545,59.418,282.609,42.781q-.05-7.5-.031-15.112,0-1.248-.007-1.3a1.223,1.223,0,0,0-1.11-.948V22.49a1.145,1.145,0,0,0,.984-.607,2.651,2.651,0,0,0,.135-1.033V15.9a.123.123,0,0,1,.132-.123A32.42,32.42,0,0,1,310.06,34.113a32.724,32.724,0,0,1,3.393,14.168A31.776,31.776,0,0,1,311.545,59.418Z" transform="translate(-239.682 -12.996)" fill="#2edffc"/>
      <path id="Path_17550" data-name="Path 17550" d="M56.547,197l.006,4.552a.149.149,0,0,1-.077.131q-4.645,2.645-9.289,5.358a1.849,1.849,0,0,0-.723.626,1.1,1.1,0,0,0,.059,1.063l-2.587,1.486a1.1,1.1,0,0,0-.941-.567,2.062,2.062,0,0,0-.935.34q-6.374,3.672-12.782,7.368a.075.075,0,0,1-.057.006.072.072,0,0,1-.044-.036,33.631,33.631,0,0,1-1.637-3.7,1.567,1.567,0,0,0,.551-.223Q32.8,210.666,56.547,197Z" transform="translate(-23.452 -167.319)" fill="#da4a7b"/>
      <path id="Path_17551" data-name="Path 17551" d="M289.03,197.7l28.936,16.637a28.606,28.606,0,0,1-1.576,3.709.074.074,0,0,1-.1.031L289.067,202.35a.132.132,0,0,1-.067-.114Z" transform="translate(-246.102 -167.915)" fill="#27bdf3"/>
      <path id="Path_17552" data-name="Path 17552" d="M97.752,283.531a1.129,1.129,0,0,1-1.642.349q-5.614-3.257-11.324-6.553a.228.228,0,0,0-.229,0l-24.922,14.45-2.111,1.219a.076.076,0,0,0-.036.05.08.08,0,0,0,.012.061,34.3,34.3,0,0,0,5.657,6.509,1.15,1.15,0,0,1,.178,1.637,1.217,1.217,0,0,1-1.061.318,2.041,2.041,0,0,1-.853-.531,35.093,35.093,0,0,1-6.406-7.714,1.123,1.123,0,0,1-.1-1.2,2.237,2.237,0,0,1,.825-.684q13.858-8.03,27.719-16.055.733-.425.769-.438a1.222,1.222,0,0,1,.632-.053,1.838,1.838,0,0,1,.568.239q5.89,3.393,11.768,6.8A1.183,1.183,0,0,1,97.752,283.531Z" transform="translate(-46.653 -233.631)"/>
      <path id="Path_17553" data-name="Path 17553" d="M125.576,297.434l2.56,1.5a1.119,1.119,0,0,0-.033,1.055,1.86,1.86,0,0,0,.721.62q4.319,2.512,8.682,5.057a33.215,33.215,0,0,1-22.62,11.094,29.286,29.286,0,0,1-2.969.086,33.312,33.312,0,0,1-18.21-5.756,35.522,35.522,0,0,1-6.249-5.409l24.922-14.45a.228.228,0,0,1,.229,0q5.71,3.3,11.324,6.553A1.129,1.129,0,0,0,125.576,297.434Z" transform="translate(-74.478 -247.534)" fill="#93ddb7"/>
      <path id="Path_17554" data-name="Path 17554" d="M127.331,358.008a1.069,1.069,0,0,1,1.253-.442,5.053,5.053,0,0,1,1.044.528q.794.476,1.006.594a32.385,32.385,0,0,0,31.752-.187q1.3-.738,2.509-1.587a32.854,32.854,0,0,0,8.571-8.847.072.072,0,0,0,.011-.056.069.069,0,0,0-.033-.045l-2.118-1.223q-4.363-2.546-8.682-5.057a1.86,1.86,0,0,1-.721-.62,1.119,1.119,0,0,1,.033-1.055,1.064,1.064,0,0,1,1.559-.377q10.114,5.838,12.1,7.014a1,1,0,0,1,.566,1.026,2.583,2.583,0,0,1-.428.954,34.567,34.567,0,0,1-29.53,16.347q-1.489,0-2.963-.14a34.818,34.818,0,0,1-15.134-5.023,3.183,3.183,0,0,1-.619-.494A1.025,1.025,0,0,1,127.331,358.008Z" transform="translate(-108.294 -288.614)"/>
      <path id="Path_17555" data-name="Path 17555" d="M125.182,388.65l2.118,1.223a.069.069,0,0,1,.033.045.072.072,0,0,1-.011.056,32.854,32.854,0,0,1-8.571,8.847q-1.207.849-2.509,1.587a32.385,32.385,0,0,1-31.752.187q-.212-.117-1.006-.594a5.053,5.053,0,0,0-1.043-.528,1.069,1.069,0,0,0-1.253.442l-2.354-1.774a1.15,1.15,0,0,0-.178-1.637A34.3,34.3,0,0,1,73,389.995a.079.079,0,0,1-.012-.061.076.076,0,0,1,.036-.05l2.111-1.219a35.524,35.524,0,0,0,6.249,5.409,33.311,33.311,0,0,0,18.21,5.756,29.313,29.313,0,0,0,2.969-.086A33.215,33.215,0,0,0,125.182,388.65Z" transform="translate(-62.153 -330.521)" fill="#5ed297"/>
    </g>
  </g>
</svg>
