<svg xmlns="http://www.w3.org/2000/svg" xmlns:xlink="http://www.w3.org/1999/xlink" width="335" height="220" viewBox="0 0 335 220">
  <defs>
    <clipPath id="clip-path">
      <path id="Path_13400" data-name="Path 13400" d="M559.987,251.667q-.215,0-.428.01v.01h-.172q-.184.012-.366.031h0l-.22.027v.005h-.037l-.153.022v.01h-.06l-.162.027v0h-.024q-.212.039-.42.088v.008h-.032l-.095.024v.008h-.033l-.094.024v.008h-.029l-.1.027v0h-.017q-.2.056-.4.122v0h-.016l-.079.027v.005h-.015l-.08.029v0h-.008l-.087.031h0l-.062.024v.008h-.021l-.074.029v0H556.7l-.15.061v0h-.006c-.072.03-.144.061-.216.093v0h-.005l-.059.026v.006h-.013l-.051.024v.008h-.017l-.046.022v.01h-.02l-.043.02v.011h-.024q-.328.16-.641.345v0H555.4l-.089.053v.01H555.3l-.047.029v0h0l-.09.057v.007h-.01q-.188.12-.37.248v.005h-.007l-.088.063h0l-.031.023v.009h-.012l-.083.062v0h0l-.029.022v.01h-.013l-.114.089v.006h-.008q-.173.137-.341.282v0h0l-.028.024v.008h-.008l-.023.021v.01h-.012c-.093.083-.184.166-.273.252h0l-.031.03v0h0l-.03.03v0h0l-.029.029v0h0l-.092.093v0h0l-.029.03h0l-.03.031h0q-.113.117-.222.238v.015h-.013l-.018.021v.01h-.009l-.022.025v.007h-.005l-.026.029v0h0c-.1.112-.192.226-.284.343v.006h0l-.091.117v.009h-.007l-.088.117v.009h-.006l-.089.122v0h0q-.129.183-.25.373v.007h0c-.031.048-.061.1-.091.146v.012H552.2l-.056.094h0l-.031.053v.011h-.006c-.03.051-.06.1-.089.156v0h0q-.115.209-.221.423v.02h-.01l-.022.044v.019h-.009l-.023.049v.015h-.007l-.025.053v.01h0l-.027.058v.005h0c-.055.122-.106.245-.156.37v.01h0l-.027.071v.025h-.009l-.023.059v0h0l-.03.08v.015h-.005l-.026.075v.02h-.007l-.025.07v.025h-.009c-.042.124-.081.25-.118.377v0h0c-.01.036-.021.072-.031.108v.019h-.005l-.027.1v.028h-.007c-.008.032-.016.064-.024.1v.031h-.008l-.024.1v.027h-.006c-.009.039-.017.077-.025.116v.011h0c-.022.1-.042.2-.061.306v.042H551c-.008.049-.016.1-.024.148v.042h-.007c-.009.058-.017.117-.025.175v.047h-.007q-.014.108-.025.216v.005h0c-.013.125-.023.25-.031.376v.194h-.01c-.006.132-.009.264-.009.4v114.57q0,.2.009.408h.01v.182q.02.307.059.61h.005v.036c.007.051.014.1.021.155h.01v.063q.013.079.026.159H551v.031c.009.053.02.106.03.159h0v.006c.019.093.038.186.06.279h0v.016c.009.037.018.074.027.111h0v.019l.027.107h0v.017c.01.037.019.073.03.11h0v.008q.03.108.062.214h0v0c.019.062.039.124.059.186h0v.013c.009.027.018.055.027.082h0v.014l.028.081h0v.009c.01.028.02.058.03.086h0v0l.023.059h.009v.024l.027.071h.005v.013q.116.3.252.589h0v0l.028.06h0v.008c.009.019.018.037.027.055h0v.009l.027.055h0v.01l.027.054h.005v.01l.027.053h0v.008l.029.056h0v.005q.074.141.153.28h.005v.009l.088.15h.007v.012l.031.051h0l.058.094h.005v.008q.119.189.246.372h.007v.011l.06.084h0v.005c.029.041.058.082.088.122h.007v.01c.029.039.059.078.089.117h.006v.008l.093.119h0v0c.051.063.1.126.154.188h.005v.006q.091.109.187.216h0v0l.025.028h.007v.007l.023.025h.009v.01l.02.022h.012v.012q.252.274.525.526h.013v.013l.021.019h.01v.009l.025.023h.007v.006l.029.026h0v0q.125.112.253.219h0l.116.095h.01v.008l.029.024h0v0l.12.093h.007v.006l.119.089h.008v.006l.122.089h0v0q.182.13.369.25h.011v.007l.089.057h.006v0l.044.028h.019v.011l.087.052h.008v0l.155.09h0v0q.172.1.347.188h0l.062.031h0l.061.031h0l.063.03h0q.244.118.5.222h.011v0l.148.059h.011v0l.071.028h.024v.009l.061.023h0l.086.031h.009v0l.08.029h.015v0c.093.032.187.061.281.09h0v0l.1.03h.026v.008l.087.024h.008v0l.107.029h.019v.005l.107.026h.02v.005l.111.027h.016v0c.094.022.188.041.283.06h0l.167.031h.055v.009l.136.023h.055v.007l.17.024h.051v.006c.079.01.158.018.237.026h.048v0c.135.012.27.021.407.027h.2v.007l.206,0h54.786c.069,0,.139,0,.208,0v-.007h.194q.2-.009.408-.027v0h.047c.08-.008.159-.016.238-.026v-.006h.05l.171-.024v-.007h.053l.137-.023v-.009h.054l.168-.031h0c.1-.019.19-.038.284-.06v0h.015l.112-.027v0h.019l.108-.027v0h.018l.077-.021v-.01h.038l.088-.024v-.007h.025l.1-.031h0l.187-.059v0h.013l.083-.027v0h.013l.082-.029v0h.007l.088-.031h0l.062-.023v-.008h.022l.073-.028v0h.009l.149-.06v0h.009l.149-.062h0q.207-.09.41-.19h0l.062-.031h0q.209-.106.411-.221v0h0l.156-.091v0h.007l.088-.053v-.01h.018l.046-.029v0h0l.091-.057v-.006h.009q.189-.121.371-.251v0h0l.123-.09v0h.007l.12-.09v0h.006l.026-.02v-.012h.015l.08-.062v0h0l.03-.024v-.007h.009q.19-.153.371-.315v0h0l.03-.027v0h.005l.027-.023V382.3h.009l.023-.02v-.011h.012l.02-.019v-.013h.014q.256-.238.493-.5v-.011h.01l.021-.023V381.7h.008l.024-.026v-.006h.005l.026-.029v0h0q.1-.107.188-.217v0h0c.052-.062.1-.125.155-.189h0c.032-.04.063-.08.094-.121V381.1h0l.09-.119v-.008h.006l.058-.079v-.016h.011l.021-.028v0h0l.061-.086v-.009h.006q.094-.135.184-.274v-.011h.007l.056-.089v-.006h0c.031-.049.061-.1.091-.148v-.01h.006l.089-.152v-.007h0c.053-.093.1-.188.155-.283v0h0l.03-.058v-.005h0l.029-.055v-.008h0l.028-.056v-.007h0l.028-.057v-.006h0l.028-.058v-.006h0l.029-.062h0c.044-.093.086-.187.126-.282v0h0q.031-.074.062-.148v-.01h0c.02-.05.04-.1.059-.149v-.01h0l.028-.074v-.021h.008l.024-.063h0l.031-.09v-.005h0l.03-.085v-.01h0l.028-.085v-.01h0q.048-.148.092-.3v-.019h.006l.026-.092V377.9h.009c.007-.028.015-.055.022-.083V377.8h0l.029-.113v-.014h0c.009-.039.019-.077.028-.116v-.01h0q.052-.224.093-.451v-.024h0c.01-.055.019-.111.028-.166v-.055h.009q.012-.082.023-.164v-.058h.008c.025-.2.043-.4.055-.6v-.194h.01c.005-.125.008-.25.008-.376V260.893c0-.122,0-.244-.008-.365h-.01v-.205c-.013-.208-.031-.415-.058-.619h-.005v-.038c-.007-.051-.014-.1-.021-.152h-.01v-.067c-.008-.052-.017-.1-.026-.155h-.006v-.036c-.009-.051-.019-.1-.029-.155h0v-.011c-.01-.049-.02-.1-.031-.147h0v-.005c-.009-.04-.017-.081-.026-.122h-.005V258.8c-.008-.035-.017-.07-.026-.105h-.006v-.026l-.026-.1H623.6v-.023c-.009-.035-.018-.069-.028-.1h0v-.014q-.069-.249-.151-.493h-.007v-.021l-.026-.074h-.006v-.017l-.027-.079h0v-.012l-.031-.083h0l-.024-.063h-.008v-.021l-.029-.074h0v-.007q-.075-.188-.158-.373h0v0l-.028-.061h0v-.007l-.026-.056h-.006v-.012l-.024-.051H623V256.9l-.023-.047h-.008v-.018l-.023-.046h-.009v-.019q-.132-.265-.28-.52h0v-.009c-.029-.05-.059-.1-.089-.15h-.006v-.01l-.092-.148h0v-.005l-.059-.09h0v-.007c-.04-.062-.081-.123-.123-.183h0v-.006l-.062-.089h0v0l-.09-.124h-.006v-.007c-.029-.04-.059-.08-.089-.119h-.006v-.008l-.092-.119h0v0q-.138-.176-.285-.344h0l-.027-.031h0v-.005l-.024-.027h-.008v-.009l-.019-.023h-.012v-.014q-.139-.155-.284-.3h0l-.061-.062h0v0l-.03-.03h0v0l-.031-.03h0l-.031-.031h0l-.031-.031h0c-.09-.086-.181-.17-.274-.253h-.011v-.009l-.025-.022h-.007v-.006l-.029-.025h0v0q-.167-.145-.341-.283h-.007v-.006l-.115-.09h-.011v-.009l-.03-.023h0l-.084-.062h-.011v-.008l-.121-.087h-.006v0q-.135-.1-.273-.186H619.7v-.008l-.086-.055h-.009v-.006l-.091-.058h0v0l-.048-.029h-.015v-.009l-.091-.055h0v0l-.048-.029h-.015v-.008q-.253-.147-.515-.277h-.023v-.012l-.041-.02h-.023v-.011l-.044-.021h-.019v-.009l-.048-.023h-.016V252.5l-.052-.024H618.5v-.005l-.06-.027h0v0c-.072-.032-.144-.063-.217-.094h0v0l-.152-.061h-.007v0l-.075-.029h-.019v-.007l-.063-.024h0l-.088-.031H617.8v0l-.082-.029h-.013v0l-.081-.027h-.015v0l-.182-.059h-.008v0l-.206-.061H617.2v0l-.1-.027h-.027v-.007l-.095-.024h-.032v-.008l-.1-.024h-.031V251.9q-.208-.049-.421-.088h-.022v0l-.163-.028h-.059v-.01l-.154-.022h-.036v-.005c-.073-.01-.147-.019-.222-.027h0c-.122-.013-.244-.024-.367-.031H615.2v-.01q-.213-.01-.429-.01Z" transform="translate(-550.857 -251.667)" fill="none"/>
    </clipPath>
    <linearGradient id="linear-gradient" x1="-1.93" y1="1.018" x2="-1.926" y2="1.018" gradientUnits="objectBoundingBox">
      <stop offset="0" stop-color="#3851a2"/>
      <stop offset="1" stop-color="#71b5e3"/>
    </linearGradient>
    <clipPath id="clip-path-2">
      <rect id="Rectangle_787" data-name="Rectangle 787" width="11.414" height="11.414" fill="none"/>
    </clipPath>
  </defs>
  <g id="onboadin_c" transform="translate(-8.323 20)">
    <rect id="safe_area" data-name="safe area" width="335" height="220" transform="translate(8.323 -20)" fill="none"/>
    <g id="mobile" transform="translate(8.068)">
      <g id="Group_3698" data-name="Group 3698" transform="translate(140.963 64.401)">
        <g id="Group_3697" data-name="Group 3697" clip-path="url(#clip-path)">
          <rect id="Rectangle_785" data-name="Rectangle 785" width="73.046" height="133.023" transform="translate(0 0)" fill="url(#linear-gradient)"/>
        </g>
      </g>
      <path id="Path_13401" data-name="Path 13401" d="M627.43,270.153c2.618,0,4.777,2.531,4.777,5.6V387.841c0,3.07-2.159,5.6-4.777,5.6H572.644c-2.618,0-4.777-2.531-4.777-5.6V275.754c0-3.071,2.159-5.6,4.777-5.6Z" transform="translate(-422.551 -201.021)" fill="#ecf4ff" fill-rule="evenodd"/>
      <g id="Group_17113" data-name="Group 17113">
        <path id="Path_13402" data-name="Path 13402" d="M581.357,711.032H623.6a3.624,3.624,0,0,1,3.615,3.615h0a3.625,3.625,0,0,1-3.615,3.615H581.357a3.626,3.626,0,0,1-3.615-3.615h0a3.626,3.626,0,0,1,3.615-3.615" transform="translate(-429.899 -529.081)" fill="#ef5388" fill-rule="evenodd"/>
        <g id="Group_17112" data-name="Group 17112">
          <path id="Path_13403" data-name="Path 13403" d="M587.187,718.465a1.713,1.713,0,1,1-1.663,1.712,1.687,1.687,0,0,1,1.663-1.712" transform="translate(-435.69 -534.611)" fill="#fff" fill-rule="evenodd"/>
          <path id="Path_13404" data-name="Path 13404" d="M604.12,721.261H628.8a1,1,0,0,1,1,1h0a1,1,0,0,1-1,1H604.12a1,1,0,0,1-1-1h0a1,1,0,0,1,1-1" transform="translate(-448.785 -536.692)" fill="#fff" fill-rule="evenodd"/>
          <path id="Path_13405" data-name="Path 13405" d="M742.248,716.462h2.592a1.024,1.024,0,0,1,1.021,1.021v2.285a1.024,1.024,0,0,1-1.021,1.02h-2.592a1.024,1.024,0,0,1-1.021-1.02v-2.285a1.024,1.024,0,0,1,1.021-1.021" transform="translate(-551.549 -533.121)" fill="#fff" fill-rule="evenodd"/>
          <path id="Path_13406" data-name="Path 13406" d="M746.939,720.292a1.184,1.184,0,1,1-1.149,1.183,1.165,1.165,0,0,1,1.149-1.183" transform="translate(-554.944 -535.971)" fill="#5b285b" fill-rule="evenodd"/>
        </g>
      </g>
      <g id="Group_17114" data-name="Group 17114">
        <path id="Path_13407" data-name="Path 13407" d="M780.915,711.631a3.683,3.683,0,1,1-3.684,3.683,3.683,3.683,0,0,1,3.684-3.683" transform="translate(-578.34 -529.526)" fill="#5b285b" fill-rule="evenodd"/>
        <path id="Path_13408" data-name="Path 13408" d="M787.982,721.122a1.254,1.254,0,1,1-1.253,1.254,1.254,1.254,0,0,1,1.253-1.254" transform="translate(-585.407 -536.589)" fill="#fff" fill-rule="evenodd"/>
      </g>
      <g id="Group_17111" data-name="Group 17111">
        <path id="Path_13424" data-name="Path 13424" d="M600.855,632.05h45.929a.747.747,0,0,1,0,1.495H600.855a.747.747,0,0,1,0-1.495" transform="translate(-446.542 -470.311)" fill="#ef5388" fill-rule="evenodd"/>
        <path id="Path_13425" data-name="Path 13425" d="M600.855,652.954h45.929a.749.749,0,0,1,.747.747h0a.75.75,0,0,1-.747.747H600.855a.75.75,0,0,1-.747-.747h0a.75.75,0,0,1,.747-.747" transform="translate(-446.542 -485.865)" fill="#ef5388" fill-rule="evenodd"/>
        <path id="Path_13426" data-name="Path 13426" d="M600.855,675.116h45.929a.75.75,0,0,1,.747.747h0a.75.75,0,0,1-.747.747H600.855a.75.75,0,0,1-.747-.747h0a.75.75,0,0,1,.747-.747" transform="translate(-446.542 -502.355)" fill="#ef5388" fill-rule="evenodd"/>
      </g>
      <g id="Group_17109" data-name="Group 17109">
        <path id="Path_13419" data-name="Path 13419" d="M552.56,543.829H521.353a7.62,7.62,0,0,0-7.62,7.62v1.462a7.619,7.619,0,0,0,7.62,7.619H552.56a7.619,7.619,0,0,0,7.62-7.619v-1.462a7.62,7.62,0,0,0-7.62-7.62" transform="translate(-382.27 -404.665)" fill="#ef5388" fill-rule="evenodd"/>
        <path id="Path_13422" data-name="Path 13422" d="M577.673,565.648h24.942a.622.622,0,0,1,0,1.243H577.673a.622.622,0,0,1,0-1.243" transform="translate(-429.386 -420.9)" fill="#f6fbfd" fill-rule="evenodd"/>
        <path id="Path_13423" data-name="Path 13423" d="M577.673,582.184h24.942a.622.622,0,0,1,0,1.244H577.673a.622.622,0,0,1,0-1.244" transform="translate(-429.386 -433.205)" fill="#f6fbfd" fill-rule="evenodd"/>
        <g id="Group_17108" data-name="Group 17108">
          <path id="Path_13421" data-name="Path 13421" d="M529.713,554.717a5.583,5.583,0,1,1-5.582,5.583,5.582,5.582,0,0,1,5.582-5.583" transform="translate(-390.007 -412.767)" fill="#fff" fill-rule="evenodd"/>
          <path id="Path_13483" data-name="Path 13483" d="M539.966,568.273l-.215-1.136a.561.561,0,0,0-.557-.454h-.477a.561.561,0,0,0-.557.454.819.819,0,0,1,.04.15l.262,1.37a.682.682,0,0,1-.072.47v.008l.088,1.05a.283.283,0,0,0,.278.258h.383a.272.272,0,0,0,.278-.258l.088-1.05a.38.38,0,0,1,.048-.133l.358-.509a.253.253,0,0,0,.056-.219m-5.227-1.99a.656.656,0,1,0-.668-.658.667.667,0,0,0,.668.658h0m4.24,0a.656.656,0,1,0-.668-.658.657.657,0,0,0,.656.658h.012Zm-4.025.4h-.477a.561.561,0,0,0-.557.454l-.207,1.136a.257.257,0,0,0,.048.211l.35.509a.21.21,0,0,1,.048.133l.088,1.05a.283.283,0,0,0,.278.258h.382a.272.272,0,0,0,.279-.258l.087-1.05v-.008a.739.739,0,0,1-.072-.47l.262-1.37a1.36,1.36,0,0,1,.039-.15.547.547,0,0,0-.549-.446" transform="translate(-397.133 -420.397)" fill="#5b285b"/>
          <path id="Path_13484" data-name="Path 13484" d="M542.413,565.753a.784.784,0,1,0-.8-.783.781.781,0,0,0,.779.783h.016m1.185,2.389-.263-1.371a.686.686,0,0,0-.668-.549H542.1a.679.679,0,0,0-.668.549l-.262,1.371a.312.312,0,0,0,.056.251l.429.611a.292.292,0,0,1,.056.165l.1,1.261a.335.335,0,0,0,.334.306h.462a.33.33,0,0,0,.332-.306l.1-1.261A.409.409,0,0,1,543.1,569l.43-.611a.324.324,0,0,0,.063-.251Z" transform="translate(-402.683 -419.813)" fill="#5b285b"/>
        </g>
      </g>
      <g id="Group_17110" data-name="Group 17110">
        <path id="Path_13420" data-name="Path 13420" d="M720.812,543.829h-4.359a7.62,7.62,0,0,0-7.62,7.62v1.462a7.619,7.619,0,0,0,7.62,7.619h4.359a7.619,7.619,0,0,0,7.62-7.619v-1.462a7.62,7.62,0,0,0-7.62-7.62" transform="translate(-527.445 -404.665)" fill="#ef5388" fill-rule="evenodd"/>
        <g id="Group_3702" data-name="Group 3702" transform="translate(185.263 142.094)">
          <g id="Group_3701" data-name="Group 3701" clip-path="url(#clip-path-2)">
            <path id="Path_13485" data-name="Path 13485" d="M739.2,556.942a1.284,1.284,0,0,0-.541-1.052,1.652,1.652,0,0,0-.6-.253h-5.62c-.009.006-.018.015-.027.016a1.348,1.348,0,0,0-1.119,1.388c.017,1.116,0,2.231.008,3.347a3.99,3.99,0,0,0,.065.774,3.888,3.888,0,0,0,2.791,3.1c.21.068.431.1.647.147V566h-1.279a.439.439,0,1,0-.053.877h3.507a.439.439,0,1,0,.048-.878.4.4,0,0,0-.05,0H735.7v-1.6c.063-.009.121-.016.178-.025a3.954,3.954,0,0,0,3.327-3.882c.008-1.182,0-2.363,0-3.545m-.876,3.481a3.071,3.071,0,0,1-6.1.56,3.877,3.877,0,0,1-.044-.568c0-1.13,0-2.261,0-3.391a.449.449,0,0,1,.5-.508h5.147a.446.446,0,0,1,.5.494v3.413Z" transform="translate(-729.422 -555.544)" fill="#fff"/>
            <path id="Path_13486" data-name="Path 13486" d="M725.674,564.868v.659a.44.44,0,0,1-.862.161.2.2,0,0,0-.016-.028v-2.81c.009-.02.018-.04.025-.06a.442.442,0,0,1,.489-.285.437.437,0,0,1,.363.444c0,.642,0,1.28,0,1.92" transform="translate(-724.586 -560.649)" fill="#fff"/>
            <path id="Path_13487" data-name="Path 13487" d="M766.16,562.972v2.568a.44.44,0,0,1-.878.065.424.424,0,0,1,0-.065v-2.565a.44.44,0,0,1,.878-.069.455.455,0,0,1,0,.065" transform="translate(-754.71 -560.652)" fill="#fff"/>
            <path id="Path_13488" data-name="Path 13488" d="M742.712,564.029a.447.447,0,0,0-.4-.309c-.261-.037-.523-.073-.78-.118a.208.208,0,0,1-.129-.09c-.125-.235-.242-.476-.36-.714a.446.446,0,0,0-.829,0c-.117.238-.234.48-.36.714a.2.2,0,0,1-.129.093c-.259.048-.52.082-.78.118a.446.446,0,0,0-.4.307.437.437,0,0,0,.135.475c.19.186.38.377.571.561a.159.159,0,0,1,.052.164c-.053.3-.1.591-.143.856a.441.441,0,0,0,.63.435c.26-.124.512-.266.771-.394a.174.174,0,0,1,.138,0c.255.126.506.262.761.39a.417.417,0,0,0,.465-.038.428.428,0,0,0,.17-.436c-.044-.274-.1-.548-.135-.822a.19.19,0,0,1,.044-.143c.185-.19.377-.38.571-.564a.444.444,0,0,0,.141-.486m-1.632,1.3a.687.687,0,0,0-.9.005.653.653,0,0,0-.275-.84,1.643,1.643,0,0,0,.454-.151,1.486,1.486,0,0,0,.274-.362,1.423,1.423,0,0,0,.267.359,1.59,1.59,0,0,0,.458.154.647.647,0,0,0-.274.835" transform="translate(-734.797 -560.664)" fill="#fff"/>
          </g>
        </g>
      </g>
      <g id="Group_17102" data-name="Group 17102">
        <path id="Path_13409" data-name="Path 13409" d="M607.886,303.072a12.848,12.848,0,1,1-16.992,6.438,12.846,12.846,0,0,1,16.992-6.438" transform="translate(-438.841 -224.671)" fill="#5b285b" fill-rule="evenodd"/>
        <g id="Group_17101" data-name="Group 17101">
          <path id="Path_13497" data-name="Path 13497" d="M632.074,304.368c-.092,1.065-7.584,23.331-7.772,23.268-.2-.068,7.18-22.37,7.772-23.268" transform="translate(-464.542 -226.481)" fill="#ecf4ff" fill-rule="evenodd"/>
          <path id="Path_13498" data-name="Path 13498" d="M641.241,355.328h.216v.058h.029v-.058h.7q.3,0,.3.576l-.029.029q.11,0,.211.216a2.036,2.036,0,0,0,.547.364v.058h.034v-.058l.3.058-.062.091.034.034a1.617,1.617,0,0,0-.456.456q-.125.015-.125.091l.034.029h-.034l-.24-.029v.029l-.033.182h-.211l-.062.124-.029-.034h-.029c-.122.013-.182.043-.182.091l.091.183H642.1l-.091.091a.417.417,0,0,1-.3-.182h-.034v.062l-.3-.183v-.029l.029-.034v-.029h-.029l-.034.029H641.3a2.059,2.059,0,0,1-.576-.849l.029-.034h-.029l-.033.034-.211-.854.3-.211h.062l.029.029h.034l.149-.183q0-.149.182-.149m-.667.058.029.034v.029l-.029.029h-.062v-.029Zm.182.336.029.029v.034c-.061,0-.091.04-.091.12H640.6l.062.062c.035,0,.065-.051.091-.154h.154l-.062-.12Zm2.707-6.024h.365a3.284,3.284,0,0,1,1.766.456l-.062.062.091-.062.182.091-.028.029v.034l.057.058.034-.029v-.029q.638.466.638.667l-.029-.029h-.034c-.074.1-.144.154-.211.154v.029l.274.029.029-.029.034.182-.062.062h.062c0-.06.019-.091.058-.091h.091l.216.638H646.9a1.341,1.341,0,0,1,.091.513q0,.216-.3.216l-.211-.125v.034l.091.091h-1.31a.241.241,0,0,1-.245-.183l.336-.244-.3.154h-.034a1,1,0,0,0-.485-.763l-.211-.058.091-.091v-.034l.029.034h.029c0-.041.03-.062.091-.062v-.062h-.029l-.245.182-.513-.029h-.307l-.336.029H643.1v-.029l.274-.12v-.062h-.029l-.125.091-.12-.029-.154.183h.062v.029c-.3.1-.456.264-.456.485v.216c0,.106.1.246.3.422l-.211.091v.034h.029l.245-.125a12.436,12.436,0,0,0,2.1.581q1.608.542,1.766.974l-.211.12.029.029c0,.055-.122.145-.365.273h-.154v.034l.034.091h-.034a1.179,1.179,0,0,0-.518.336q-.081,0-.394.273a1.981,1.981,0,0,0-1.094-.49,8.428,8.428,0,0,1-1.43-.364l.029-.029v-.063l-.058-.062v.125l-.034-.034h-.029l-.091.034-.091-.034v-.058l.153.029v-.029l.029-.034h.029l-.091-.211c-.1.013-.149.064-.149.154q-.063,0-.062.091a2.434,2.434,0,0,1-.638-.274v-.124h.182v-.058c0-.041-.061-.062-.182-.062,0-.061-.021-.091-.062-.091l-.028.029v.034l-.034-.034h-.058l-.125.091-.029-.029V353.9c.032-.084.062-.125.091-.125l.029.034.062-.091-.062-.062-.029.029-.029-.029h-.091l.029.154-.029.029h-.033a1.036,1.036,0,0,1-.394-.576v-.034l.029-.029v-.029h-.029l-.029.029h-.034a3.5,3.5,0,0,1-.149-.854v-.149a.2.2,0,0,0,.182-.125l.029.034h.062c-.01-.083-.04-.125-.091-.125v-.058l.058-.091h-.029l-.091.091h-.062l-.029-.153.029-.091h.125l-.034.029v.034h.034a.418.418,0,0,1,.24-.062l-.029-.029v-.034q.211-.068.245-.211l-.153-.12q-.182.067-.182.211l-.029.029h-.062l-.029-.029-.034.029h-.058v-.029a2.123,2.123,0,0,1,.85-1.219,1.894,1.894,0,0,1,.821-.365V350h.062q0-.3,1-.3m-2.678,2.616v.029l.062.062.029-.029v-.062Zm.091.7.034.091.058-.062v-.058h-.029l-.029.029Zm.091-1.218c0,.061-.019.091-.058.091v.034h.182v-.034L641,351.8Zm.125-.332v.058H641v-.029Zm-.062.485-.029.091h.058l.034-.091Zm.062.518-.062.058.029.034v.029c.093-.038.144-.078.154-.12h-.029v.029l-.034-.029Zm0,3.009h.029l.062-.058v-.034Zm.667-4.257v.062q-.125,0-.518.365l-.029-.034h-.029l-.062.273v.034l.153-.153.029.029v-.029l-.029-.029a.171.171,0,0,0,.149-.182c.041,0,.062.04.062.12h.029a.44.44,0,0,1,.154-.274v.091h.062a.212.212,0,0,1,.091-.154v-.12Zm-.576,2.068v.029h.091v-.091h-.033Zm.091-.672.12-.091V352.5Zm.058-1.642v.034a.211.211,0,0,0,.182.12v.091l-.058.091h.029a.389.389,0,0,0,.245-.336l-.029-.029h-.034l-.058.062-.1-.062Zm0,2.222h.063l.12-.091v-.029h-.029Zm.063-.883v.062h.062a.373.373,0,0,1,.211-.125v-.058h-.058Zm0,1.641h.091v.062h-.029Zm.336-.6.029.029c-.038.092-.078.144-.12.154v-.125q-.216.13-.216.182h.034l.12-.029v.029l.034-.029h.029l.274.091.062-.182a.081.081,0,0,1-.091-.091Zm-.182,4.1h.028l.062-.058h-.029Zm.062-5.749v.034h.091v-.062Zm0,.912v.034l.12.029c0-.041-.031-.062-.091-.062Zm.029,1.128v.062h.029l.125-.091h-.034Zm.12-1.186v.058l.091.034-.029-.091Zm.062,5.2v.029l.091.029.029-.029v-.029l-.029-.034Zm.062-5.721v.062l.12-.034v-.091Zm0,1.43.058.062-.029.028h-.029Zm.058,4.2v.029l.154.029V357.7l-.062-.062Zm.034-5.994v.062h.058l.062-.062Zm0,.974h.091l.029-.034.028.034-.091.149v.125l.062.062c.045-.223.1-.336.154-.336l-.034-.091.034-.153q-.274.139-.274.245m.029-1.521v.062l.091-.034v-.029Zm.029,2.371.034.034h.029l.028-.125Zm0,2.74v.058l.125.034h.091V356.3Zm.034-2.616v.058l.091.034v-.062Zm.24-2.011v.154l-.091.12.091.062-.029.12v.034h.029c.022-.182.053-.273.091-.273l-.029-.034v-.183Zm.034,1.339c0,.06-.042.091-.125.091v.034h.062c.08-.032.12-.062.12-.091l-.029-.033Zm-.062-1.762.029.029v.029c0,.1-.019.153-.058.153l.058.182h.062l-.029-.154h.029l-.029-.029v-.153l.029-.029v-.029Zm0-.7.182.12.062-.091H642.4v-.029l.034-.034v-.029h-.091Zm4.5,3.892.062.062.029-.034h.029a2.749,2.749,0,0,1,.336,1.339,2.621,2.621,0,0,1-.427,1.43l-.029-.029h-.062l-.029.029h.091q0,.058-.245.182l-.029.034v.029h.029a.415.415,0,0,1-.365.273l.034.029v.034a3.04,3.04,0,0,1-1.19.485v-.029a1.781,1.781,0,0,1-.821.12h-.331a5.738,5.738,0,0,1-1.584-.245l.029-.029v-.091l-.029-.029v-.034a.327.327,0,0,0,.3-.24c.074,0,.146-.051.216-.154H642.7v-.028l.331-.062V357.4h-.058v-.034a1.3,1.3,0,0,0,.638-.518.439.439,0,0,1,.274-.091V356.7h-.062v-.034l.821-.149a2.246,2.246,0,0,0,.729-.581l-.029-.029v-.029c.061,0,.091-.021.091-.063a.373.373,0,0,0-.211.154v-.244l.058-.062.154-.058v-.034h-.062c0,.048-.049.079-.149.091v-.029c0-.041.04-.062.12-.062a.106.106,0,0,1,.12-.12,2.407,2.407,0,0,1,.518-.456v-.034l.034.034h.029l.427-.335v-.062l.029.034h.091a.08.08,0,0,1,.091-.091c.007-.1.037-.154.091-.154m-4.32-1.584-.029.034.029.029v.062H642.4l.034.091.149-.091v-.062Zm.062-1.459v.034l.12.058h.091V351.4Zm.058,2.8-.029.125.274.183.029-.034v-.029a.251.251,0,0,1-.182-.245Zm0-3.374.062.062h.029v-.062Zm.062,7.147-.062.091.125.034.029-.034v-.091l-.029.034h-.033Zm.062-7.545.029.034.091-.034v-.058h-.062Zm0,.245v.029l.029.034v.029l.091-.029-.062-.062Zm.274,3.225-.062.063-.029.029c-.042,0-.062.031-.062.091v.029h.029v-.058h.034l.091.029.058-.183Zm-.091.518v.058h.058c0-.038.03-.058.091-.058v-.062h-.029Zm0,3.408.12-.034v-.058h-.029Zm.12.183.062.058h.12l.062-.058v-.034h-.091Zm.336-1.282v.062l.091-.091Zm.058.854h.154l.183-.153q-.3.072-.336.153m.307-2.8h.062a.08.08,0,0,1,.091-.091l.149-.216h-.029Zm.091,2.616v.029h.091l.062-.058h-.062Zm0,.244h.12v-.034h-.12Zm.211.274h.153v-.034h-.153Zm.182-7v.091l.182.029-.091-.091v-.029Zm.182,3.984h.154v-.029h-.154Zm.062,2.525-.062.062v.029l.062.062.062-.12v-.034Zm.183-.029h.029l.062-.062v-.062Zm.3-2.707v.029h.034l.149-.029-.029-.125h-.029Zm.216-3.744-.034-.029h-.029l-.12.029v.062h.091l.12-.029.154.058v-.091l.029.034h.029l.062-.062-.062-.062v-.029a.235.235,0,0,0,.182-.124,1.54,1.54,0,0,0-.422.245m-.125,1.277v.034h.062l.029-.091h-.029Zm.091-1.55.365-.154v-.029h-.029q-.336.111-.336.183m0,3.345.062.062h.029l-.058-.062Zm.062-2.764h.062l.149-.034v-.029l-.091-.029Zm.062-.975v.029h.058v-.091Zm.029,3.8v.029l.062.062h.091v-.028Zm.029-2.434h.125v-.091h-.034Zm.034,2.8-.034.029v.034l.091.029v-.029Zm.73-2.981-.029-.029-.034.091-.182-.062h-.028l-.062.12.029.091h-.058v.062h.149l.062.062-.154.091a.148.148,0,0,1-.12-.154l.029-.029h-.091q0,.091-.211.091l-.029.029v.062l.058.057h.125c0-.061.049-.091.149-.091.032.083.062.124.091.124l.552-.365-.034-.034v-.029l.153-.154v-.029h-.153a.338.338,0,0,0-.211.091m-.672,1.094v.062l.182-.034V352.5l-.029-.029v-.034Zm.034-.336v.034l.12-.125h.029v-.058c-.051.013-.1.062-.149.149m0,3.59h.029c.182-.071.274-.12.274-.149l-.029-.034h-.034Zm.149-4.987v.029l.091-.029V350.7h-.029Zm.034-.244.029.091.029-.029h.034l-.034-.091-.029.029Zm.029,7.026v.062h.029l.062-.062Zm.182-2.1v.029h.125l.029-.029v-.029h-.029Zm.062,1.579v.034h.063l.029-.034V357Zm.029-6.172h.062v-.125H645.9Zm0,.154v.029l.034.091-.034.029h.062l.062-.058v-.034l-.062-.058Zm.034,5.654.029.034v.029l-.029.029h.029c0-.038.04-.058.12-.058l-.057-.062Zm.12-1.459c0,.041-.031.062-.091.062v.029h.029l.125-.029-.034.029v.062l.091-.091Zm.12,0v.033h.034l.091-.091h-.062Zm.125-.12v.029l.029.034h.062v-.034Zm.091-3.134-.062.154.12.091h.091l.062-.062V352.1h-.091l.029-.034v-.029Zm-.062,4.8.029.091.062-.058-.029-.034Zm.484-2.433.063.062v.029l-.063-.058Zm0,2.284.091.058.033-.029V356.6l-.062-.062Zm.034-.216v.034l.149.029h.034v-.062h-.062v-.028Z" transform="translate(-476.585 -260.211)" fill="#ecf4ff"/>
          <path id="Path_13499" data-name="Path 13499" d="M613.17,325.779h.034a.3.3,0,0,1,.259.192h.029V326l-.158.034c0-.045-.108-.088-.322-.129v.129l.1-.067.254.1.034-.029.163.159v-.029l-.034-.2.034-.1.029.034h.067c.01-.087.042-.13.1-.13l.034.034-.225.451h.062l.129-.1.034.029h.029l.034-.029V326.1h-.062v-.034h.029c.132.016.2.038.2.067l.322-.13v.062c0,.035-.086.1-.259.2v.029h.1l.163-.124v-.034l.034.034h.029l.034-.034v.034c-.058.105-.111.158-.159.158l.062.1-.062.067.062.062-.1.034v.1h.034c0-.064.021-.1.062-.1h.034c0,.128.032.192.1.192l.033-.034h.029l-.029-.029v-.067h.062v.067l.192-.067v-.029h-.063v-.067l.158-.034h.1v-.029l-.034-.034v-.034h.034c.278.038.417.18.417.422l.062.226-.158.062V327.1l-.067-.226h-.029l-.067.13v.034c.09,0,.154.055.192.163v.225h.067v.029l-.034.034v.034a.085.085,0,0,1,.1.1l.034.034h.1l-.034-.034.034-.1h.034l.226.807-.067.062.034.034h-.034l-.029-.034h-.034c-.1.041-.154.085-.163.129l.034.034h.034v-.1l.034.034h.029l.067-.063v.029a.27.27,0,0,1-.225.163c-.029-.109-.061-.163-.1-.163-.029.1-.072.157-.129.163v-.034l-.1.067-.034-.034h-.067v.034c.054,0,.088.043.1.129h.1v-.034H615.2v-.067h.067l.288.13q.293-.177.293-.255h.062l.1.384-.192.067v-.034l.034-.034V328.9h-.034l-.067.067.067.062h-.067v.033h.034l.163-.033v.033l-.034.034.034.158h.063l.033-.029h.034l.029.226-.1-.067v.034l-.034-.034h-.062l-.033.164h.033l.1-.1.1.029-.13.355q.067,0,.067-.13h.034v.067c.086-.038.129-.082.129-.13h.029l.293,1-.034.034h.034l.029-.034.067.293q.053,0,.225-.518l.355-.288V330.1l-.164.129H617l.067-.1H617q0,.091-.125.158v-.063l.547-1.708h.062v-.067l-.034.034h-.029v-.034l.835-2.611a.834.834,0,0,1,.355-.062h1.449a.338.338,0,0,1,.355.226l-.321,1-.034-.029h-.029l-.034.1h-.062l-.034-.034h-.034l-.033.034v.029l.163.1-.033.159h-.029v.067h-.067l.034.029v.13h-.034l-.033-.034-.029.034h-.067l.067-.1v-.034a.085.085,0,0,0-.1.1h-.034l-.034-.029-.192.062v-.1l-.034.034h-.034l-.029-.1.029-.034v-.067h-.029v.067h-.1l-.034-.129-.067.062.034.034h-.062l-.034-.034h-.034v.034l.2.163.028.029h.034l-.034.034v.034l.034-.034h.13a.217.217,0,0,1-.225.13h-.067l-.029-.034H619.1v.034l-.034-.034h-.062l-.033.1-.034-.029h-.029q-.077,0-.164.225h-.033v-.067l-.062.067a.085.085,0,0,1,.1.1h-.1l-.1-.067h-.067l-.125.226v.034h.029V328.2h.034v.062h.034l.1-.062h.034q0,.1-.1.1v.1l.034.163h.1l.129-.422-.033-.029.163-.1.226-.1v.163l.163-.034v-.129l-.1-.029-.029.029v-.062l.451-.192h.13v.158l-.2.163-.1.1q.226,0,.225.13a15.136,15.136,0,0,1-.739,2.188h.029l-.48,1.421q-.379,1.257-.485,1.257-.163,0-.163.192l-.288.163.062.062h.033q.259-.206.259-.288h.1q-.087.47-.192.484l-.163.062v.034l.13.13q-.134.48-.259.48h-.158a.115.115,0,0,0-.129-.13c-.013-.083-.045-.124-.1-.124l.159-.13.1-.163v-.062h-.1l-.034.029H617.2l-.1-.1h-.067l-.1.1v.034l.225.034-.13.288-.288-.062v.1q.255.034.255.1v.034c0,.041-.107.074-.322.1-.15-.016-.225-.037-.225-.063l-.029.029H616.2l-.033-.029-.259.063q-.355,0-.355-.418l.1-.163-.029-.034h-.034l-.1.1-.067-.2v-.029l.163-.067h.034c.064,0,.1.043.1.13h.1c-.093-.191-.179-.288-.259-.288l-.13.124h-.062l-.034-.124.034-.034q-.1,0-.1-.2l.1-.029.034.029.1-.125v-.067h-.034c-.109.038-.163.093-.163.164h-.062l-.062-.292v-.029h.062q0,.076.129.1a.2.2,0,0,0,.158-.2c-.128-.045-.192-.109-.192-.192l-.288.034v-.034l-.067-.158c.108,0,.163-.023.163-.067H615.1l.1-.13h.034v.067l.034-.034.029.034h.034l.293-.034-.034.034v.029l.062.067v.034h-.029l-.226-.034c0,.041-.034.062-.1.062l.1.163.322-.163v-.028l-.034-.034v-.034l.192-.034.033.034v-.034l-.033-.029q.086,0,.163-.163V332.1l-.389.13-.158-.13c-.016.109-.048.163-.1.163l-.1-.034V332.2l.293-.355h-.163l-.029.029-.034-.029h-.034l-.13.158-.13.034c0-.035-.075-.067-.225-.1l-.029.034-.067-.259h.067v-.034c-.109,0-.163-.087-.163-.259.112,0,.176-.032.192-.1h-.062v-.028h.062v-.034h-.029l-.034.034h-.033l-.1-.034v-.067h.067l.029.034h.033v-.062l-.192-.034.029-.034v-.062l-.029.029h-.034q-.062,0-.225-.61v-.034h.034v.067c.192-.022.288-.056.288-.1h-.062l-.034.034h-.034v-.062h-.158l-.067-.067v-.029q.048-.129.259-.129l-.034-.163h-.029q0,.106-.259.225l-.226-.676.034-.1h-.034l.062-.164h-.062v-.029h.062l-.029-.034v-.062a.274.274,0,0,1,.254-.163l.034.034.1-.034.1-.034V328.9h-.1v-.062h.067l-.067-.062h-.034l-.029.029h-.034l.034.034v.062h-.034l-.1-.029v.029l-.034-.029h-.034q-.159,0-.322.225l-.1-.355.034.034h.063v-.067l-.062-.062q-.115,0-.2-.389h.034c.109.045.163.109.163.192l.158.034.1-.034-.034.034v.033l.034.034c.106,0,.158-.1.158-.292V328.2q-.154-.293-.259-.293l.067.1-.067.389c-.038,0-.1-.055-.192-.163h-.034V328.2h.163v-.1l-.1-.034c-.032.086-.064.13-.1.13,0-.045-.054-.067-.163-.067l-.163-.48h.034l.13.062h.034v-.034q-.164,0-.163-.129l-.034.034h-.028l-.13-.485h.034l.029.034h.034v-.1h.1l-.034.034v.062l.034-.034c.045,0,.067-.053.067-.158h.1l-.034-.034v-.034q.418-.259.417-.355h-.13a.214.214,0,0,1,.2-.125l-.067-.1c-.064,0-.1.034-.1.1l-.034-.034h-.062l.034.159h-.067v-.062h-.225l-.1-.063h-.034v.063h-.028l-.13-.13v-.034l.062-.1-.384-.226h-.034v-.029a.313.313,0,0,1,.322-.163m-.192.451h.034v.033l-.034.1h-.067v-.067Zm.062-.1h.034v.034l-.13.029c0-.042.032-.062.1-.062m.067.192v.034a.222.222,0,0,0-.1.159h-.034v-.125Zm0,.293h.1l-.1.1h-.033Zm.48-.034v.1h-.029l-.034-.034h-.034c0,.064-.043.1-.13.1v-.029a.218.218,0,0,1,.226-.13m-.029-.807v.062l-.13.034c0-.032.043-.063.13-.1m.225,1.32h-.034v-.062h-.192l.1.1v.034l.158-.034-.029.034v.034l.063.063-.1.1v.033l.034.034v.029a.224.224,0,0,0-.163.1h-.034v-.1h-.1v.067c0,.051.087.083.259.1,0-.063.044-.1.13-.1l.034-.1h.028l.034.125a1.267,1.267,0,0,0-.355.451h.067a.085.085,0,0,1,.1-.1l.029-.029v-.034l-.029-.034.225-.1.034.034c0-.064.021-.1.062-.1l.034.029h.1v-.029c-.086,0-.129-.022-.129-.067l.034-.034v-.029h-.034l-.1.029v-.029a.153.153,0,0,1,.159-.13l-.029.034v.029h.029l.034-.029v.029l-.034.1h.067l.062-.125-.029-.1.1-.029v-.034H614.3l-.062.062h-.1V327.3l.062-.1-.034-.129-.192.062h-.034l-.062-.062v-.1l.163-.13h.1q0,.1-.13.1v.034l.322.029c.016.151.08.226.192.226V327.2l.13.1-.033.029v.034l.033.033h.034v-.033l-.034-.034h.034l.226.1.034-.292V327.1h-.034c0,.086-.055.13-.163.13l-.029-.1h.062l-.033-.192h-.029c-.045,0-.067.043-.067.13h-.033c0-.055-.042-.087-.125-.1l-.225-.2v-.034l.029.034h.034v-.034l-.034-.029h-.029l-.034.029H614.2l-.1-.062q-.322.211-.322.417m-.293.677v.034l.13.034v-.067Zm.225.711v.033l.1.1v-.034l-.029-.1Zm.2-1.867-.034.1.1-.034v-.062Zm.158.125.067.067h-.13Zm-.029,1.516h.029v.13h-.062v-.034Zm0-.451.029.1h.067v-.062Zm.062-2h.163q0,.1-.13.1v.062h-.034Zm.388,2.031c0,.054-.065.107-.2.158l-.029-.029-.034.029v.034l.1.034c0-.044.075-.077.225-.1v-.129Zm-.225,2.064-.034.029v.034l.034.034h.1v-.067Zm.159-4.128.163.034v-.034l.192.062.034-.029v-.034c.064,0,.1.043.1.13l.1-.067h.034l.029.163-.1.062v-.029l.034-.034v-.034l-.034-.029h-.029l-.163.062c0,.036.064.067.192.1,0,.087.022.13.067.13V326.2l-.034-.1q.062,0,.062-.1h.034l.1.388h-.029l-.034.029H615.1l-.225-.062v.034c-.15-.073-.225-.128-.225-.163l.163-.062v-.034l-.067-.067-.1.1-.033-.034h-.029l-.1.034.029-.034V326.1l-.029.034h-.033l-.067-.067v-.029l.034-.034v-.034l-.159-.029q.053-.163.159-.163m-.1,1.579v.163l.063-.067v-.1Zm0,2.481v.034l.034.034h.1v-.034Zm.614-.547.029.034v.034l-.029.029h-.1v-.062h-.1a.571.571,0,0,1-.355.1l-.029-.034v.034l.029.034v.029l-.029.034c.035,0,.067.064.1.192l-.034.1h.1l-.029-.163.029-.1h.067c0,.086.021.129.062.129l-.1.13h.034c.064-.022.1-.087.1-.2h.063l-.029.033v.034h.029v-.034l.033.034h.1l.067-.225c.041,0,.062.043.062.13l.062-.067-.029-.226.029-.034h-.029Zm-.485-.288.062.062-.029.034v.062l.062-.062-.034-.1h.067v-.034h-.034Zm.033.288.062.067h.063v-.067Zm.125-3.029v.159h-.029l-.034-.13.034-.029Zm-.063,2.352q.072.216.192.259v-.1c-.065,0-.1-.066-.1-.2h-.033l-.029.034Zm.063.355V329h.067l.034-.034v-.034Zm.067-1-.034.029v.034l.1-.034v-.029Zm-.034,2.222v.034h.034c.032,0,.064-.043.1-.129q-.129.048-.13.1m0,.519.034.029h.034l.029-.1h-.029Zm.034-.259v.1h.1v-.034l-.062-.062Zm.034-4.094.062.062v.067l-.062-.067Zm.125.677-.029.1h.029l.067-.1Zm-.029,3.254v.067h.1v-.034Zm.029-2.29h.034l.192-.158c-.15.073-.225.126-.225.158m.034,4.065.034.029.158-.029h.13v.029l-.062.067h-.1l-.163-.034Zm.13-4.387-.034.13h.034q0-.072.163-.1v-.034Zm0-.355v.129h.034l.029-.029h.034c0,.084.023.125.067.125v-.062l-.034-.163-.034.034-.034-.034Zm.034.225v.1l.062-.067v-.034Zm.029,1.229v.1l.067-.067-.034-.029Zm.1.384v.067h.029l.067-.067Zm0,2.549h.1l.1-.163h-.034a.085.085,0,0,1,.1-.1l.034-.034v-.029H615.4c-.073.013-.148.12-.225.322m.029-2.227h.034v-.125H615.2Zm.034,1.55v.1l.062-.067v-.029Zm.034.936h.062v.063l-.062.062Zm.192-2.965q0,.062.1.062v.034h-.062l-.034.034-.1-.1h-.034c.045.134.1.21.163.225V329.2h.029c.045,0,.067.033.067.1h.034a.222.222,0,0,1,.1-.159v-.067h-.067l-.029.034h-.034v-.067h-.034l.034-.029v-.067h-.067Zm-.034-1.872h.034l.1.355q-.192-.163-.192-.288h.034l.029-.034Zm0,3.738-.029.1.1-.029Zm.034.192v.1l.163.029v-.062l-.1-.1V331Zm.614,1.161h.063l.192-.1v.067a.15.15,0,0,0-.158.125l.033.1.1-.067h.062v.129l-.1.034v-.067l-.1.1-.034-.029H616.1l-.062.062-.033-.034h-.062l-.034.034-.033-.034h-.029l-.163.067-.1-.034v.034l.062.062.034-.029c0,.083.032.125.1.125v.1l-.062.062h-.067l-.029-.034h-.034l-.034.034v.034l.1.062.067-.062h.029v.129q.058,0,.259-.388l.13-.062v.125h.067l.1-.062.062.062h.067l-.1-.192q.067,0,.067-.1h.062c.045,0,.067.032.067.1.064-.022.1-.086.1-.192,0-.064-.043-.1-.13-.1l.062-.226h-.1l-.1.062v-.062l.034-.034V332a.832.832,0,0,0-.322.226m-.451-1.45.029.034v.029l.034-.029h.062l.2.029.1-.029c0,.042.043.062.13.062v.067h.033l.029-.034h.034l.062.062V330.9l-.062-.067-.034.034H616.2l-.422-.129v-.029l.034-.034h-.034q-.159.043-.158.1m.125-1.612-.062.389h.062v-.164l.067-.192-.034-.034Zm-.062.423v.1l.062-.067-.029-.029Zm.13,3.575q.048,0,.158.322c.109.016.164.048.164.1H616.1l-.029-.028h-.034l-.13.028.062.1-.062.062h.062l.23-.13v.034l.029-.034h.1l.034.034h.034v-.034l.13.067.029-.1-.062-.062-.163.062-.029-.028v-.034a.237.237,0,0,0,.225-.163l.13-.029v-.067h-.1q0,.072-.288.2v.062H616.2l-.033-.13.033-.034v-.029q0-.105-.259-.259c-.086.032-.129.064-.129.1m.034-3.513v.062l.062.067.062-.163h-.029l-.034.033v-.062Zm.1,2.16v.034c0,.032.043.064.13.1V331.9l-.034-.033.034-.029Zm.063-2.774h.033l.034.163h-.067Zm.033,2.937V332l.063.067h.034l.034-.13Zm.063-1.516h.067l.1-.163H616.2c-.051,0-.085.055-.1.163m.163,1.838h.034l-.067.062H616.2Zm.1-.1.067.125-.034.034h-.034l-.062-.062v-.034Zm0-1.291v.034l.129.029-.034-.029.034-.034v-.067h-.062Zm.129.965-.062.129h.062v-.062c.064,0,.1-.022.1-.067h-.034l-.029.033Zm.1,1.775-.034.034c.045.132.1.207.164.226h.062v-.067h.034q.1,0,.1.13h.034V333.9a.644.644,0,0,0-.355-.259m0,.485-.034.028v.034l.034.034h.034l.1-.034v-.034Zm.034-2.357v.1h.034l.1-.1Zm.034.648v.028h.125v-.062h-.029Zm0,.773.029.1.2-.13v-.034h-.034Zm.029.129-.029.159v.034h.029l.067-.192Zm.1-1.579v.029l.259-.255a.551.551,0,0,0-.259.226m.1,1.608v.034h.029l.067-.163.029.034h.067v-.034c-.045,0-.067-.032-.067-.1-.032,0-.074.076-.125.226m.225-.48c0,.063-.065.128-.2.192v.062l.1-.062.1.062V333.1l-.033-.034c.035-.109.088-.163.158-.163v-.029Zm-.129-1.454.062.067h.034v-.067Zm.129,1.128h.125v-.029h-.125Zm.159-1.319h.129l-.062-.062Zm.067-.547-.034.034v.062h.034l.062-.062-.034-.034Zm0,2.092.226-.125v-.034h-.034a.309.309,0,0,0-.192.159m.1-1.253-.067.062v.034h.067l.029-.034v-.062Zm0-.259h.13v-.034h-.13Zm.029,2.418.067.062h.034l.062-.062v-.034l-.033-.034v-.034Zm0,.125v.1l.067-.067V333.8Zm.13-5.447-.062.1v.034h.034v-.063l.029.029h.033v-.029l-.033-.034.033-.034Zm-.062.518v.062l.1.034v-.034Zm.062-.13v.034h.067c0-.086.021-.129.063-.129h.034l.158.029a.406.406,0,0,0,.13-.225l-.029.034h-.034v-.063h-.129Zm.1.13.034.029v.1q0,.062-.1.062v.034h.062l.067-.067v.033l-.067.1.067.067.034-.034h.029l-.029-.034v-.029l.029-.129c-.042,0-.062-.055-.062-.164l-.034.034Zm.067,2.514v.029l.1.034v-.034l-.034-.029Zm.034-3.935v.163h.062l.033-.034h.029l.067.067h.1c0-.045-.032-.067-.1-.067v-.034h.063v-.029l-.062-.067-.034.1a.085.085,0,0,1-.1-.1Zm0,4.32v.034h.029v-.062q.115,0,.259-.226a.255.255,0,0,0-.259.226Zm.125-3.931.034.1h.067v-.1Zm.067,4.382v.034l.063.062.034-.029v-.034l-.034-.034Zm.13-5.351v.1l.259.255-.034.034v.034l.034.1h.029v-.033l-.029-.1c.041,0,.062.043.062.129h.1q0-.124-.226-.355a.085.085,0,0,1-.1-.1Zm.062,4.708.1.1h.034l-.1-.1Zm.034-3.964.034.034v.029l.029-.029.163.029h.13v-.029l-.1-.034-.034.034h-.034Zm0,.259v.029l.13.033v-.033l-.034-.1h-.034Zm.13-1.742v.034h.129V326.1h-.034Zm0,.129.1.192h.062l.067-.063v-.1q-.129,0-.13-.1h-.034Zm0,5.482h.034l.062-.067h-.034Zm.192-3.643.067.063-.13.034v-.034Zm.1-1.128V327l.034.1h.034v-.029l-.034-.1Zm.163,1.253v.034l.158.163h.13v-.034c-.064,0-.1-.043-.1-.13Zm.034-.868v.033l.029.034h.067v-.034Zm0,2.836v.034l.125.034v-.067Zm.062-1.612-.034.034v.034l.1.029.034-.029v-.034Zm.062.778v.029l.034.034c-.058.007-.1.061-.13.163h.1l-.029-.034v-.034l.1-.1Zm-.062.706.034.1h.062v-.029l-.062-.067Zm.129-2.318h.062v.029l-.062.067Zm.1,1.771a.085.085,0,0,1-.1.1l.062.067.067-.129v-.034Zm.062-1.032.034.1-.034.034h.1l.028-.192h-.062Zm.1.388v.1l.062.062v-.062l-.034-.1Zm.028-.485.034.034h.1v-.1h-.062Zm.322-1.19v.029l.034.1v.034h-.034V327.3h-.029v.1h-.033v-.1h-.034v.062l-.029.033.029.034h.067v.029c-.064,0-.1.023-.1.067h.062c.086-.045.13-.1.13-.163l.034.033h.062l-.034-.033V327.3h.1c0-.052-.053-.083-.158-.1l-.034.029Zm.1-.422.029.129h.034v-.1l-.034-.033Zm.1.129v.1l.1-.1h-.034l-.033.034Z" transform="translate(-456.022 -242.413)" fill="#ecf4ff"/>
        </g>
      </g>
      <g id="Group_17103" data-name="Group 17103">
        <path id="Path_13429" data-name="Path 13429" d="M784.7,282.982h4.364a.344.344,0,0,1,0,.688H784.7a.344.344,0,1,1,0-.688" transform="translate(-583.644 -210.567)" fill="#ef5388" fill-rule="evenodd"/>
        <path id="Path_13430" data-name="Path 13430" d="M784.7,289.388h4.364a.344.344,0,0,1,.344.344h0a.344.344,0,0,1-.344.343H784.7a.344.344,0,0,1-.344-.343h0a.344.344,0,0,1,.344-.344" transform="translate(-583.644 -215.334)" fill="#ef5388" fill-rule="evenodd"/>
        <path id="Path_13431" data-name="Path 13431" d="M784.7,295.8h4.364a.344.344,0,0,1,.344.344h0a.345.345,0,0,1-.344.344H784.7a.345.345,0,0,1-.344-.344h0a.344.344,0,0,1,.344-.344" transform="translate(-583.644 -220.104)" fill="#ef5388" fill-rule="evenodd"/>
      </g>
      <g id="Group_17104" data-name="Group 17104">
        <path id="Path_13410" data-name="Path 13410" d="M595.876,427.083l1.343,2.81,3.088.409-2.257,2.145.565,3.063-2.739-1.484-2.737,1.484.565-3.063-2.257-2.145,3.086-.409Z" transform="translate(-440.098 -317.794)" fill="#eb6e03" fill-rule="evenodd"/>
        <path id="Path_13411" data-name="Path 13411" d="M637.889,427.083l1.342,2.81,3.088.409-2.257,2.145.565,3.063-2.739-1.484-2.737,1.484.565-3.063L633.46,430.3l3.087-.409Z" transform="translate(-471.359 -317.794)" fill="#eb6e03" fill-rule="evenodd"/>
        <path id="Path_13412" data-name="Path 13412" d="M679.9,427.083l1.344,2.81,3.087.409-2.257,2.145.565,3.063-2.739-1.484-2.737,1.484.565-3.063-2.258-2.145,3.087-.409Z" transform="translate(-502.622 -317.794)" fill="#eb6e03" fill-rule="evenodd"/>
        <path id="Path_13413" data-name="Path 13413" d="M721.917,427.083l1.344,2.81,3.087.409-2.257,2.145.565,3.063-2.739-1.484-2.737,1.484.565-3.063-2.257-2.145,3.087-.409Z" transform="translate(-533.885 -317.794)" fill="#eb6e03" fill-rule="evenodd"/>
        <path id="Path_13414" data-name="Path 13414" d="M763.93,427.083l1.344,2.81,3.086.409-2.257,2.145.565,3.063-2.739-1.484-2.737,1.484.565-3.063L759.5,430.3l3.087-.409Z" transform="translate(-565.146 -317.794)" fill="#eb6e03" fill-rule="evenodd"/>
      </g>
      <g id="Group_17105" data-name="Group 17105">
        <path id="Path_13415" data-name="Path 13415" d="M600.855,481.9h45.929a.747.747,0,1,1,0,1.495H600.855a.747.747,0,1,1,0-1.495" transform="translate(-446.542 -358.587)" fill="#ef5388" fill-rule="evenodd"/>
        <path id="Path_13416" data-name="Path 13416" d="M600.855,481.9h24.4V483.4h-24.4a.75.75,0,0,1-.747-.747h0a.749.749,0,0,1,.747-.747" transform="translate(-446.542 -358.587)" fill="#5b285b" fill-rule="evenodd"/>
      </g>
      <g id="Group_17106" data-name="Group 17106">
        <path id="Path_13417" data-name="Path 13417" d="M600.855,502.808h45.929a.747.747,0,1,1,0,1.494H600.855a.747.747,0,1,1,0-1.494" transform="translate(-446.542 -374.141)" fill="#ef5388" fill-rule="evenodd"/>
        <path id="Path_13427" data-name="Path 13427" d="M600.855,502.808h33.282V504.3H600.855a.747.747,0,1,1,0-1.494" transform="translate(-446.542 -374.141)" fill="#5b285b" fill-rule="evenodd"/>
      </g>
      <g id="Group_17107" data-name="Group 17107">
        <path id="Path_13418" data-name="Path 13418" d="M600.855,523.712h45.929a.747.747,0,1,1,0,1.494H600.855a.747.747,0,1,1,0-1.494" transform="translate(-446.542 -389.695)" fill="#ef5388" fill-rule="evenodd"/>
        <path id="Path_13428" data-name="Path 13428" d="M600.855,523.712H617.5v1.494h-16.64a.747.747,0,1,1,0-1.494" transform="translate(-446.542 -389.695)" fill="#5b285b" fill-rule="evenodd"/>
      </g>
    </g>
    <g id="floating_icons" data-name="floating icons" transform="translate(8.068)">
      <g id="Group_17100" data-name="Group 17100">
        <path id="Path_13470" data-name="Path 13470" d="M296.393,302.225a8.912,8.912,0,1,1-8.913,8.912,8.912,8.912,0,0,1,8.913-8.912" transform="translate(-213.915 -224.887)" fill="#5b285b" fill-rule="evenodd"/>
        <path id="Path_13495" data-name="Path 13495" d="M321.82,312.568a1.042,1.042,0,0,0-1.282.727l0,.007a1.037,1.037,0,0,0,.716,1.279l.018,0a1.046,1.046,0,0,0,.563-2.014l-.013,0" transform="translate(-238.482 -232.555)" fill="#fff"/>
        <path id="Path_13496" data-name="Path 13496" d="M301.687,326.814a.768.768,0,0,0-.525-.95l-.024-.006a.768.768,0,0,0-.95.526l-.007.025a.768.768,0,0,0,.526.95l.025.007a.8.8,0,0,0,.956-.55m2.858,4.652a3.52,3.52,0,0,0,5.111-2.909,18.74,18.74,0,0,1-2.437,1.638,19.478,19.478,0,0,1-2.673,1.272m6.395-6.211c-.393-.669-1.652-.459-3.014.026a3.516,3.516,0,0,0-5.307,2.988,4.687,4.687,0,0,0-1.625,1.913.808.808,0,0,0,.066.642,1.039,1.039,0,0,0,.983.419,12.568,12.568,0,0,0,4.8-1.743c1.874-1.049,3.879-2.568,4.167-3.6a.808.808,0,0,0-.065-.642m-9.212,5.176c0-.183.328-.642,1-1.232a3.523,3.523,0,0,0,.354.865c.039.066.079.118.118.184a2.673,2.673,0,0,1-1.468.183m3.381-3.9a2.049,2.049,0,0,0-1.035,1.663.328.328,0,0,1-.328.3h-.026a.321.321,0,0,1-.3-.34h0a2.713,2.713,0,0,1,1.363-2.175.323.323,0,0,1,.443.113l0,0a.311.311,0,0,1-.108.427l-.011.006m4.219.3a1.5,1.5,0,0,0-.131-.249,3.589,3.589,0,0,0-.537-.708,2.865,2.865,0,0,1,1.6-.21c0,.17-.314.6-.93,1.166" transform="translate(-223.343 -241.676)" fill="#fff"/>
      </g>
      <g id="Group_17099" data-name="Group 17099">
        <path id="Path_13471" data-name="Path 13471" d="M489.171,247.841a5.231,5.231,0,1,1-5.231,5.231,5.232,5.232,0,0,1,5.231-5.231" transform="translate(-360.101 -184.419)" fill="#5b285b" fill-rule="evenodd"/>
        <g id="Group_17098" data-name="Group 17098">
          <path id="Path_13491" data-name="Path 13491" d="M500.172,270.118c0-.028,0-.056,0-.083v-2.946c0-.191.078-.269.268-.269h1.63a.224.224,0,0,1,.255.257v2.959c0,.028,0,.056,0,.083Z" transform="translate(-372.179 -198.539)" fill="#fff"/>
          <path id="Path_13492" data-name="Path 13492" d="M491.9,272.621a.2.2,0,0,1-.132-.216c0-.657,0-1.314,0-1.971a.22.22,0,0,1,.252-.251h1.47v2.361c0,.026,0,.051,0,.076Z" transform="translate(-365.925 -201.042)" fill="#fff"/>
          <path id="Path_13493" data-name="Path 13493" d="M510.261,275.122q0-.748,0-1.5v-.082h1.469a.219.219,0,0,1,.252.251c0,.37,0,.741,0,1.111a.2.2,0,0,1-.132.217Z" transform="translate(-379.687 -203.543)" fill="#fff"/>
          <path id="Path_13494" data-name="Path 13494" d="M499.052,256.637c.026-.151.054-.317.082-.484.014-.082.033-.164.041-.246a.114.114,0,0,0-.029-.082q-.247-.248-.5-.489a.218.218,0,0,1-.072-.242.223.223,0,0,1,.2-.151c.227-.032.457-.067.685-.1a.087.087,0,0,0,.075-.055c.1-.208.2-.414.306-.621a.22.22,0,0,1,.416,0c.1.206.2.41.3.615a.091.091,0,0,0,.079.06c.231.031.461.067.692.1a.219.219,0,0,1,.13.387c-.168.162-.333.326-.5.487a.1.1,0,0,0-.031.1c.042.229.081.459.12.688a.218.218,0,0,1-.326.236c-.206-.109-.413-.216-.618-.326a.1.1,0,0,0-.112,0q-.313.17-.63.331a.215.215,0,0,1-.317-.214" transform="translate(-370.982 -189.016)" fill="#fff"/>
        </g>
      </g>
      <g id="Group_17097" data-name="Group 17097">
        <path id="Path_13469" data-name="Path 13469" d="M1002.54,255.983a6.8,6.8,0,1,1-6.8,6.8,6.8,6.8,0,0,1,6.8-6.8" transform="translate(-740.933 -190.478)" fill="#5b285b" fill-rule="evenodd"/>
        <path id="Path_17240" data-name="Path 17240" d="M1009.755,294.474h-.51a.514.514,0,0,0-.439.247H1006.7a.754.754,0,0,1-.759-.75v0a.25.25,0,0,0-.249-.247.26.26,0,0,0-.261.247,1.266,1.266,0,0,0,1.269,1.262h2.111a.49.49,0,0,0,.439.247h.51a.5.5,0,0,0,.023-1h-.023Z" transform="translate(-748.14 -218.558)" fill="#fff"/>
        <path id="Path_17241" data-name="Path 17241" d="M1014.566,267.995h-.069v-2.11a3.762,3.762,0,1,0-7.523,0V268h-.081a.5.5,0,0,0-.5.5v.762a.5.5,0,0,0,.488.507h.249v.247a.5.5,0,0,0,.488.507h1a.5.5,0,0,0,.5-.5v-2.271a.5.5,0,0,0-.488-.507h-.676v-1.356a2.777,2.777,0,1,1,5.552,0v1.356h-.668a.5.5,0,0,0-.5.5v2.282a.5.5,0,0,0,.488.507h1a.5.5,0,0,0,.5-.5v-.255h.242a.5.5,0,0,0,.5-.5v-.762a.5.5,0,0,0-.482-.518h-.013" transform="translate(-748.864 -194.978)" fill="#fff"/>
      </g>
      <g id="Group_17096" data-name="Group 17096">
        <path id="Path_13468" data-name="Path 13468" d="M875.978,284.528h12.365a3.189,3.189,0,0,1,3.179,3.18v12.365a3.189,3.189,0,0,1-3.179,3.179H875.978a3.189,3.189,0,0,1-3.18-3.179V287.708a3.19,3.19,0,0,1,3.18-3.18" transform="translate(-649.451 -211.718)" fill="#ef6aa0" fill-rule="evenodd"/>
        <g id="Group_17095" data-name="Group 17095">
          <path id="Path_13474" data-name="Path 13474" d="M916.972,329.44a.5.5,0,0,1-.275-.529,2.3,2.3,0,0,1,2.079-2.232.426.426,0,0,0,.049-.017,1.34,1.34,0,0,1-1.028-.777,1.268,1.268,0,0,1-.069-.875,1.314,1.314,0,0,1,2.575.177c.1.665-.286,1.181-1.11,1.477.151.032.3.053.446.1a2.289,2.289,0,0,1,1.633,1.914.9.9,0,0,0,.023.106v.354a.555.555,0,0,1-.278.3Z" transform="translate(-682.112 -241.113)" fill="#fff"/>
          <path id="Path_13475" data-name="Path 13475" d="M884.367,329.44a.469.469,0,0,1-.278-.476,2.315,2.315,0,0,1,2.107-2.3,1.381,1.381,0,0,1-.9-.589,1.274,1.274,0,0,1-.178-1.051,1.313,1.313,0,0,1,2.555.033,1.292,1.292,0,0,1-.037.709,1.123,1.123,0,0,1-.412.592,5.594,5.594,0,0,1-.586.317,2.264,2.264,0,0,1,1.783,1.216,2.331,2.331,0,0,1,.269,1.13.448.448,0,0,1-.275.415Z" transform="translate(-657.852 -241.113)" fill="#fff"/>
          <path id="Path_13476" data-name="Path 13476" d="M900.707,297.87c-.044.273-.09.547-.128.821a.426.426,0,0,0,.017.215c.272.643.553,1.283.828,1.924a.374.374,0,0,1-.168.5.358.358,0,0,1-.074.027.557.557,0,0,1-.27-.019q-.922-.264-1.84-.538a.327.327,0,0,0-.25.019,3.265,3.265,0,0,1-2.866,0,.31.31,0,0,0-.2-.017c-.643.182-1.285.37-1.928.556a.37.37,0,0,1-.471-.228.364.364,0,0,1-.016-.061.532.532,0,0,1,.048-.278c.264-.627.541-1.251.807-1.878a.382.382,0,0,0,.017-.227,3.286,3.286,0,1,1,6.363-1.64,3.251,3.251,0,0,1,.086.48c.012.113.017.227.025.34l.02,0m-2.313,1.262c.545.007.907-.31.894-.71a.691.691,0,0,0-.476-.624c-.159-.072-.329-.13-.49-.2a.143.143,0,0,1-.081-.1.154.154,0,0,1,.074-.106.211.211,0,0,1,.143-.034,2.013,2.013,0,0,1,.374.131.26.26,0,0,0,.357-.067.24.24,0,0,0-.052-.335l-.015-.01a1.48,1.48,0,0,0-.358-.181.818.818,0,0,0-.771.1.6.6,0,0,0,.113,1.057c.081.036.164.066.245.1a3.078,3.078,0,0,1,.345.154c.123.072.12.182,0,.258a.375.375,0,0,1-.164.053.578.578,0,0,1-.458-.171.252.252,0,1,0-.346.364,1.02,1.02,0,0,0,.669.317m-1.973-.958c-.021-.053-.033-.086-.044-.117-.119-.341-.235-.684-.357-1.023a.253.253,0,0,0-.313-.173l-.008,0a.25.25,0,0,0-.163.314.2.2,0,0,0,.008.023q.3.864.6,1.727a.28.28,0,0,0,.284.207.283.283,0,0,0,.274-.2q.291-.866.575-1.733a.251.251,0,0,0-.468-.184c0,.008-.006.017-.008.025-.011.028-.02.053-.029.083l-.351,1.057" transform="translate(-664.736 -219.196)" fill="#fff"/>
          <path id="Path_13477" data-name="Path 13477" d="M926.389,304.09c-.313.005-.481-.135-.5-.343a.383.383,0,0,1,.332-.409q.486-.079.972-.151a.385.385,0,0,1,.435.3.37.37,0,0,1-.272.438c-.35.071-.7.122-.968.167" transform="translate(-688.956 -225.599)" fill="#fff"/>
          <path id="Path_13478" data-name="Path 13478" d="M887.3,304.085c-.268-.044-.617-.095-.964-.163a.37.37,0,0,1-.278-.443v0a.384.384,0,0,1,.428-.3q.487.07.972.151a.384.384,0,0,1,.339.416c-.022.207-.188.344-.5.337" transform="translate(-659.314 -225.594)" fill="#fff"/>
          <path id="Path_13479" data-name="Path 13479" d="M889.3,294.511a.952.952,0,0,1,.224.1q.4.323.778.663a.37.37,0,0,1,.042.522h0a.37.37,0,0,1-.52.06l-.009-.007c-.264-.216-.522-.438-.778-.664a.37.37,0,0,1-.092-.428.428.428,0,0,1,.355-.249" transform="translate(-661.445 -219.146)" fill="#fff"/>
          <path id="Path_13480" data-name="Path 13480" d="M925.447,295.013a.813.813,0,0,1-.138.225c-.244.225-.5.439-.756.65a.377.377,0,1,1-.494-.57c.253-.223.509-.44.768-.656a.356.356,0,0,1,.412-.046.4.4,0,0,1,.208.4" transform="translate(-687.497 -219.191)" fill="#fff"/>
        </g>
      </g>
      <g id="Group_17094" data-name="Group 17094">
        <path id="Path_13473" data-name="Path 13473" d="M701.1,115.634h12.365a3.19,3.19,0,0,1,3.18,3.18v12.365a3.189,3.189,0,0,1-3.18,3.179H701.1a3.189,3.189,0,0,1-3.18-3.179V118.814a3.19,3.19,0,0,1,3.18-3.18" transform="translate(-519.323 -86.044)" fill="#ef6aa0" fill-rule="evenodd"/>
        <path id="Path_13481" data-name="Path 13481" d="M724.173,138.332a2.817,2.817,0,0,1,.38-1.59,5.618,5.618,0,0,1,1.362-1.224,2.472,2.472,0,0,0,.8-.791,2.023,2.023,0,0,0,.293-1.088,1.467,1.467,0,0,0-.342-1.019,1.242,1.242,0,0,0-.971-.38,1.216,1.216,0,0,0-.852.312,1.235,1.235,0,0,0-.357.927h-2.5l-.015-.046a2.76,2.76,0,0,1,1.008-2.377,4.331,4.331,0,0,1,2.719-.8,4.163,4.163,0,0,1,2.848.913,3.115,3.115,0,0,1,1.04,2.464,2.96,2.96,0,0,1-.567,1.75,4.024,4.024,0,0,1-1.442,1.255,1.745,1.745,0,0,0-.658.688,2.41,2.41,0,0,0-.171,1Zm2.567,3.164h-2.556v-2.054h2.556Z" transform="translate(-537.211 -96.923)" fill="#fff"/>
      </g>
      <g id="Group_17115" data-name="Group 17115">
        <path id="Path_13467" data-name="Path 13467" d="M446.292,331.338h12.365a3.19,3.19,0,0,1,3.18,3.179v12.365a3.19,3.19,0,0,1-3.18,3.18H446.292a3.189,3.189,0,0,1-3.179-3.18V334.517a3.188,3.188,0,0,1,3.179-3.179" transform="translate(-329.722 -246.55)" fill="#ef6aa0" fill-rule="evenodd"/>
        <path id="Path_13482" data-name="Path 13482" d="M466.424,349.536a4.565,4.565,0,1,0,4.565,4.565,4.565,4.565,0,0,0-4.565-4.565m1.051,6.445-1.624-1.179a.222.222,0,0,1-.09-.178v-3.1a.221.221,0,0,1,.221-.221h.884a.221.221,0,0,1,.221.221v2.535l1.169.851a.221.221,0,0,1,.049.308h0l-.519.714a.222.222,0,0,1-.309.048Z" transform="translate(-343.671 -260.091)" fill="#fff"/>
      </g>
    </g>
    <g id="women" transform="translate(8.068)">
      <path id="Path_13432" data-name="Path 13432" d="M901.274,576.782h26.639A21.241,21.241,0,0,1,948.83,594.2c1.654,8.065,2.091,21.053.65,33.51H887.643v-46a21.255,21.255,0,0,1,13.631-4.934" transform="translate(-660.498 -429.185)" fill="#269dd8" fill-rule="evenodd"/>
      <path id="Path_13433" data-name="Path 13433" d="M928.788,576.853a21.238,21.238,0,0,1,20.042,17.4,90.677,90.677,0,0,1,1.505,16.052H928.788v-.36H887.643v-4.734h41.145v-2.985H887.643V597.5h41.145Z" transform="translate(-660.498 -429.238)" fill="#0b6487" fill-rule="evenodd"/>
      <path id="Path_13434" data-name="Path 13434" d="M842.7,595.861C834,603.611,830.328,609.768,827.238,621l5.351,3.859,4.632.281,5.474-.177Z" transform="translate(-615.55 -443.382)" fill="#0b6487" fill-rule="evenodd"/>
      <path id="Path_13435" data-name="Path 13435" d="M803.935,545.661h23.053l15.874,32.418H819.809Z" transform="translate(-598.21 -406.027)" fill="#273373" fill-rule="evenodd"/>
      <path id="Path_13436" data-name="Path 13436" d="M843.263,576.024l.368-.527-15.694-32.418-22.951-.18-.513.707h22.916Z" transform="translate(-598.61 -403.973)" fill="#fff" fill-rule="evenodd"/>
      <path id="Path_13437" data-name="Path 13437" d="M964.517,612.409H943.622v5.763l-.447.166s-2.64-4.127-11.9-9.788-17.29-10.7-17.29-10.7l1.287,2.7s-6.842-5.12-7.049-5.145a.752.752,0,0,0-.385,1.081c.309.54,4.863,5.043,4.863,5.043l-3.756-2.7a1.2,1.2,0,0,0,.128,1.312,41,41,0,0,0,3.293,3.627l-3.036-2.135s-.207.9.232,1.338,2.263,2.161,2.263,2.161l-2.187-1.312c.864,2.647,3.169,3.276,5.456,4.554,2.391,1.338,2.752.978,5.273,3.036s12.093,20.326,16.777,24.288,9.731,5.874,10.4,5.874h6.822s3.562-1.833,6.547-7.378c2.789-5.176,5.869-11.562,3.606-21.781" transform="translate(-675.449 -443.04)" fill="#f4b1b0" fill-rule="evenodd"/>
      <path id="Path_13438" data-name="Path 13438" d="M920.515,492.343c-3.061,5.466,2.2,13.088,8.669,12.534l-.017,3.395a6.632,6.632,0,0,0,6.305,6.555c2.845.023,5.649-2.067,6.013-7.8v-6.378a4.406,4.406,0,0,0,.979-.432c.982-.6,1.365-2.06,1.1-3.569s-2.357-.488-2.357-.488h0c1.819-4.473,4.145-8.332-.539-10.818s-14.134-2.3-14.134-2.3l-4.288,1.437c-.185,4.161.393,4.08-1.733,7.87" transform="translate(-684.292 -359.426)" fill="#f4b1b0" fill-rule="evenodd"/>
      <path id="Path_13439" data-name="Path 13439" d="M952.873,563.242a7.775,7.775,0,0,0,1.054-.017l-.017,3.394a7.792,7.792,0,0,0,.138,1.067,19.216,19.216,0,0,0,3.765-1.314,8.874,8.874,0,0,0,4.606-4.927A23.875,23.875,0,0,1,954,563.179l-1.086.025Z" transform="translate(-709.035 -417.773)" fill="#ea9091" fill-rule="evenodd"/>
      <path id="Path_13440" data-name="Path 13440" d="M938.286,542.169c-.733,1.237,1.212,3.065,2.282,3.355,2.493.677,5.264-.263,5.561-3.063-1.259-.348-3.293.469-5.4.139-1.614-.253-2.447-.431-2.447-.431" transform="translate(-698.061 -403.43)" fill="#fff" fill-rule="evenodd"/>
      <path id="Path_13441" data-name="Path 13441" d="M821.447,628.556c-3.4.424-4.649,0-4.649,0s-10.881-2.358-10.091-20.914,3.6-22.653,4.144-24.083a9.485,9.485,0,0,1,.747-1.708l.409,2a33.21,33.21,0,0,1,3.137-3.8c.84-.642,1.555-.715,1.6-.42a1.161,1.161,0,0,1-.149,1.259c-.469.74-2.64,4.54-2.64,4.54s2.566-2.418,3.109-2.22.569.468.394.839-3.083,5.33-3.083,5.33a42.748,42.748,0,0,1,3.381-3.085c.3-.049.636.269.493.567a.869.869,0,0,0-.024.617l-2.862,4.1a11.364,11.364,0,0,1,2.516-1.431c.495,0,.642.493.37.913s-3.947,4.91-3.947,4.91c.8,5.523,3.955,13.019,6.372,15.776a3.651,3.651,0,0,0,1.6,1.184l5.112-.165c-.257,3.925-2.5,15.362-5.941,15.791" transform="translate(-600.243 -431.185)" fill="#f4b1b0" fill-rule="evenodd"/>
      <path id="Path_13442" data-name="Path 13442" d="M985.693,382.386c-1.693-5.881.107-10.335,3.314-12.848,5.114-4.011,14.51-2.566,18.287,5.384,2,4.212,5.022,15.541,12.288,9.295-1.394,10.978-10.425,14.208-19.46,13.828-5.568-.234-14.133-9.219-14.133-9.219Z" transform="translate(-732.974 -273.365)" fill="#272a3d" fill-rule="evenodd"/>
      <path id="Path_13443" data-name="Path 13443" d="M1003.645,419.8l-2.091,3.281a1.945,1.945,0,1,0,3.28,2.094l2.095-3.281a1.955,1.955,0,0,0-.593-2.687h0a1.953,1.953,0,0,0-2.687.593" transform="translate(-745.032 -311.703)" fill="#f4b1b0" fill-rule="evenodd"/>
      <path id="Path_13444" data-name="Path 13444" d="M909.6,435.706s-7.512.927-8.129-6.792,6.484-12.659,9.57-13.79c9.171-3.363,22.751,1.326,27.84,8.942,9.351,13.994-4.636,24.306-4.636,26.307,0,1.338,2.063,3.087,2.063,3.087-3.242.314-7.96-1.134-8.464-4.734a2.038,2.038,0,0,0,1.851-2.084c.038-1.946-.206-1.518-.542-1.594a9.148,9.148,0,0,0-1.619.077c.241-3.463,1.1-9.82-3.578-10.548l1.081,1.595-15.437-.463" transform="translate(-670.758 -308.072)" fill="#363552" fill-rule="evenodd"/>
      <path id="Path_13445" data-name="Path 13445" d="M965.925,576.782c-.364,5.736-3.169,7.827-6.013,7.8-3.3-.027-6.645-2.986-6.3-7.8h-1.084c-1.192,11.171,14.81,13.581,14.537,0Z" transform="translate(-708.732 -429.185)" fill="#fff" fill-rule="evenodd"/>
      <path id="Path_13446" data-name="Path 13446" d="M915.82,530.96c-1.179,0-2.134.329-2.134.733s.956.733,2.134.733,2.136-.329,2.136-.733-.958-.733-2.136-.733m13.894,0c-1.179,0-2.136.329-2.136.733s.957.733,2.136.733,2.134-.329,2.134-.733-.956-.733-2.134-.733" transform="translate(-679.876 -395.089)" fill="#eb8081" fill-rule="evenodd"/>
      <path id="Path_13447" data-name="Path 13447" d="M917.579,495.383a2.273,2.273,0,0,1,4.091,0,6.392,6.392,0,0,1,0,6.579,2.274,2.274,0,0,1-4.091,0,6.4,6.4,0,0,1,0-6.579m8.176,0a2.272,2.272,0,0,1,4.089,0,6.389,6.389,0,0,1,0,6.579,2.274,2.274,0,0,1-4.091,0,6.383,6.383,0,0,1,0-6.579m-6.13-2.287a3.448,3.448,0,0,0-2.791,1.692,7.457,7.457,0,0,0,0,7.769,3.147,3.147,0,0,0,5.58,0,7.462,7.462,0,0,0,0-7.77,3.446,3.446,0,0,0-2.789-1.693m12.006,6.485H938.4l-.054-1.006h-6.665a6.912,6.912,0,0,0-1.092-3.786,3.146,3.146,0,0,0-5.58,0,7.459,7.459,0,0,0,0,7.769,3.147,3.147,0,0,0,5.58,0,6.739,6.739,0,0,0,1.041-2.978" transform="translate(-681.406 -366.914)" fill="#fff" fill-rule="evenodd"/>
      <path id="Path_13448" data-name="Path 13448" d="M872.682,599.886a2,2,0,1,0,2.151,1.074,1.736,1.736,0,0,0-2.151-1.074" transform="translate(-648.848 -446.289)" fill="#fff" fill-rule="evenodd"/>
    </g>
    <g id="man" transform="translate(8.068)">
      <path id="Path_13449" data-name="Path 13449" d="M244,575.1H217.185a21.38,21.38,0,0,0-21.053,17.536h0c-1.665,8.117-2.105,21.19-.651,33.729h62.239v-46.3A21.4,21.4,0,0,0,244,575.1" transform="translate(-144.802 -427.938)" fill="#f9a719" fill-rule="evenodd"/>
      <path id="Path_13450" data-name="Path 13450" d="M215.071,575.512a21.371,21.371,0,0,0-18.941,17.432h0a100.066,100.066,0,0,0-1.512,20.533h20.454Z" transform="translate(-144.8 -428.24)" fill="#da7a27" fill-rule="evenodd"/>
      <path id="Path_13451" data-name="Path 13451" d="M298.7,682.048h-8.444v8.618a4.664,4.664,0,0,0,4.651,4.65H298.7a4.664,4.664,0,0,0,4.65-4.65v-8.618Z" transform="translate(-215.978 -507.514)" fill="#da7a27" fill-rule="evenodd"/>
      <path id="Path_13452" data-name="Path 13452" d="M214.622,708.621l-20.1-.156s-.829,10.41,5.231,13.467a28.817,28.817,0,0,0,13,2.648h44.128s-3.729-6.169-10.1-6.688-5.8-.31-5.8-.31-6.267-6.681-13.155-7.717a128.557,128.557,0,0,0-13.207-1.243" transform="translate(-144.719 -527.171)" fill="#f4b1b0" fill-rule="evenodd"/>
      <path id="Path_13453" data-name="Path 13453" d="M335.8,485.579c3.311,5.909-2.375,14.148-9.37,13.55l.01,1.875,3.816,5.438-3.759,5.59-3.913,1.423-9.45-2.432v-16.47a4.728,4.728,0,0,1-1.062-.467c-1.061-.647-1.476-2.227-1.191-3.859s2.549-.528,2.549-.528h0c-1.966-4.836-4.482-9.007.583-11.7s15.279-2.486,15.279-2.486l4.636,1.554c.2,4.5-.424,4.41,1.871,8.508" transform="translate(-231.263 -353.832)" fill="#f4b1b0" fill-rule="evenodd"/>
      <path id="Path_13454" data-name="Path 13454" d="M348.277,562.746a8.4,8.4,0,0,1-1.025-.025,24.016,24.016,0,0,1-8.476-1.744,8.931,8.931,0,0,0,4.635,4.959,15.306,15.306,0,0,0,5.927,1.62l-2.077-2.959-.01-1.875Z" transform="translate(-252.084 -417.425)" fill="#ea9091" fill-rule="evenodd"/>
      <path id="Path_13455" data-name="Path 13455" d="M311.033,412.708c1.243,6.318-1.3,11.964-7.51,13-3.907.651-7.062.09-9.452.38a6.825,6.825,0,0,0-3.444,1.64c-2.434,1.968-3.885,9.375-3.885,9.375l-.259,1.528s-2.823-1.968-3.677-1.424a1.653,1.653,0,0,0-.829,1.838,4.118,4.118,0,0,0,.777,1.813c.388.336,1.137.858,1.137.858a5.778,5.778,0,0,1-4.763-1.195c-2.279-1.838-8.028-7.3-7.614-15.382s3.626-9.944,4.868-10.669c.807-.471,7.246-2.437,12.1-4.092,5.916-2.015,6.4-3.583,10.19-5.317,4.865-2.227,11.375,2.651,12.357,7.647" transform="translate(-202.019 -300.995)" fill="#363552" fill-rule="evenodd"/>
      <path id="Path_13456" data-name="Path 13456" d="M294.158,495.526c-2.878,1.877-3.665,6.494-1.757,10.312s5.787,5.393,8.665,3.516,3.665-6.493,1.757-10.312-5.787-5.393-8.665-3.516" transform="translate(-216.802 -368.133)" fill="#e41f26" fill-rule="evenodd"/>
      <path id="Path_13457" data-name="Path 13457" d="M290.11,440.826c-2.878,1.876-3.665,6.493-1.757,10.311s5.787,5.393,8.665,3.516,3.664-6.493,1.757-10.312a7.3,7.3,0,0,0-5.481-4.279h0l.667-.6a15.275,15.275,0,0,1,.525-10.125c1.726-4.094,3.717-6.337,7.662-7.8l1-.425-.008-.662c-9.859-.185-16.669,10.225-11.991,19.8l.23-.02a4.847,4.847,0,0,0-1.265.59" transform="translate(-213.789 -312.863)" fill="#ee4a72" fill-rule="evenodd"/>
      <path id="Path_13458" data-name="Path 13458" d="M366.962,539.441c.792,1.337-1.31,3.313-2.467,3.627-2.7.731-5.69-.285-6.013-3.312,1.362-.376,3.561.506,5.834.15,1.743-.273,2.645-.465,2.645-.465" transform="translate(-266.747 -401.399)" fill="#fff" fill-rule="evenodd"/>
      <path id="Path_13459" data-name="Path 13459" d="M441.254,594.511c8.751,7.8,12.448,14,15.559,25.3l-5.387,3.885-4.662.282-5.51-.178Z" transform="translate(-328.338 -442.377)" fill="#da7a27" fill-rule="evenodd"/>
      <path id="Path_13460" data-name="Path 13460" d="M319.316,597.083a1.036,1.036,0,1,0,1.036,1.035,1.036,1.036,0,0,0-1.036-1.035m0-6.008a1.036,1.036,0,1,0,1.036,1.035,1.036,1.036,0,0,0-1.036-1.035m4-15.97c3.59,6.132-.325,10.487-3.856,12.456-4.976-3.231-9.45-6.38-9.45-12.456,0,0-1.718-.032-2.831,2.694-1.839,4.413,1.243,14.324,1.243,14.324s3.457-4.473,6.332-4.715a10.114,10.114,0,0,1,4.739.628c3.677-2.7,6.182.8,8.642,3.361.775-6.537.676-11.234-4.214-16.292Z" transform="translate(-228.134 -427.938)" fill="#fff" fill-rule="evenodd"/>
      <path id="Path_13461" data-name="Path 13461" d="M470.047,556.985h-11.4l-5,22.582h11.393Z" transform="translate(-337.565 -414.454)" fill="#241916" fill-rule="evenodd"/>
      <path id="Path_13462" data-name="Path 13462" d="M470.047,556.985h-11.4l-5,22.582h11.393Z" transform="translate(-337.565 -414.454)" fill="#273373" fill-rule="evenodd"/>
      <path id="Path_13463" data-name="Path 13463" d="M470.047,556.985h-11.4l-5,22.582h11.393Z" transform="translate(-337.565 -414.454)" fill="none"/>
      <path id="Path_13464" data-name="Path 13464" d="M449.25,620.766c3.573.444,4.557.444,4.557.444s11.809-2.622,10.98-22.1-3.78-23.773-4.349-25.275a10.084,10.084,0,0,0-.784-1.793l-.428,2.1a34.842,34.842,0,0,0-3.295-3.985c-.88-.673-1.631-.751-1.683-.44a1.213,1.213,0,0,0,.156,1.321c.491.777,2.771,4.766,2.771,4.766s-2.695-2.539-3.264-2.331-.595.492-.414.881,3.237,5.594,3.237,5.594a45,45,0,0,0-3.548-3.237c-.311-.052-.668.282-.517.6a.924.924,0,0,1,.026.647l3,4.3a11.914,11.914,0,0,0-2.642-1.5c-.517,0-.673.518-.386.958s4.142,5.153,4.142,5.153c-.322,8.412-5.337,14.406-7.873,17.3a3.837,3.837,0,0,1-1.676,1.243l-6.008-.181c.7,4.011,4.382,15.086,7.995,15.538" transform="translate(-328.339 -423.802)" fill="#f4b1b0" fill-rule="evenodd"/>
      <path id="Path_13465" data-name="Path 13465" d="M346.4,528.873c-1.187,0-2.15.33-2.15.738s.962.738,2.15.738,2.149-.33,2.149-.738-.962-.738-2.149-.738m13.453-.038c-1.187,0-1.735.291-1.735.7s.548.777,1.735.777,2.149-.331,2.149-.738-.962-.738-2.149-.738" transform="translate(-256.156 -393.508)" fill="#eb8081" fill-rule="evenodd"/>
      <path id="Path_13466" data-name="Path 13466" d="M508.846,559.222c-.35-.083-.8.54-1,1.391s-.082,1.61.268,1.692.8-.54,1-1.391.082-1.609-.269-1.693" transform="translate(-377.816 -416.113)" fill="#fff" fill-rule="evenodd"/>
    </g>
    <path id="ground" d="M122.792,771.5h271.9a.733.733,0,0,1,0,1.456h-271.9a.732.732,0,0,1,0-1.456" transform="translate(-82.816 -574.072)" fill="#092978" fill-rule="evenodd"/>
  </g>
</svg>
