<svg xmlns="http://www.w3.org/2000/svg" width="335" height="220" viewBox="0 0 335 220">
  <g id="onboadin_b" transform="translate(-1 21)">
    <rect id="safe_area" data-name="safe area" width="335" height="220" transform="translate(1 -21)" fill="none"/>
    <path id="Path_13287" data-name="Path 13287" d="M164.329,771.4H435.214a.727.727,0,0,1,0,1.446H164.329a.727.727,0,0,1,0-1.446" transform="translate(-131.678 -575.343)" fill="#092978" fill-rule="evenodd"/>
    <path id="Path_13288" data-name="Path 13288" d="M1080.531,653.159a1.727,1.727,0,0,0,2.22-2.037c-.311-3.24-6.06-5.518-7.684-5.875q-.66-.635-1.326-1.265,1.266-1.508,2.62-2.968,1.339.305,2.65.654c1.618,1.41,7.368,6.634,11.468,6.005,1.906-.3,2.738-1.823,1.84-3.5-1.9-3.838-10.685-3.526-13.1-2.964q-1.217-.328-2.459-.619,2.139-2.271,4.492-4.412,1.173.083,2.332.2c1.6.88,7.848,4.971,11.778,3.845,1.8-.527,2.441-2.01,1.351-3.374-2.44-3.2-11.113-1.532-13.034-.792q-1.037-.106-2.087-.185,2.412-2.167,5.04-4.179,1.181-.109,2.356-.185c1.747.524,7.874,2.894,11.228,1.389,1.558-.71,1.881-2.038.613-2.984-2.833-2.175-10.087.344-11.812,1.25q-.933.059-1.87.14,2.583-1.943,5.365-3.72c2.456-.68,10.466-2.1,12.831-5.165,1.1-1.478.266-2.8-1.961-2.855-4.891-.146-10.041,5.763-11.218,7.631q-2.6,1.663-5.032,3.477.224-.79.464-1.579c1.161-1.453,6.35-6.684,5.362-9.673-.5-1.372-2.279-1.585-3.891-.416-3.561,2.6-2.271,8.561-1.88,10.061q-.3,1-.574,2-2.772,2.1-5.31,4.38-.123-.962-.233-1.928c.556-1.749,4.174-9.292,1.35-12.046-1.323-1.224-3.54-.752-4.778,1.05-2.721,4.051,2.043,9.76,3.049,11.088q.127,1.075.27,2.145-2.494,2.263-4.752,4.679-.551-1.024-1.1-2.05c-.047-2.155.728-10.515-3.638-12.17a3.745,3.745,0,0,0-4.841,2.683c-1.091,4.695,6.208,8.583,7.978,9.767q.6,1.1,1.2,2.2-1.353,1.468-2.617,2.984-.9-.4-1.815-.779c-.911-1.195-4.692-5.921-8.688-4.812-1.8.508-2.655,2.01-1.9,3.247,1.717,2.636,8.68,1.875,10.389,1.88q.892.368,1.772.753a78.158,78.158,0,0,0-6.872,9.736l.462.222a77.725,77.725,0,0,1,6.96-9.819q.652.611,1.3,1.227c.388,1.51,2.535,7.076,5.732,7.664" transform="translate(-800.147 -461.112)" fill="#ef6aa0"/>
    <path id="Path_13289" data-name="Path 13289" d="M1004.873,446.108c3.472-1.764,15.55-6.045,17.81-10.762,1-2.283-1.066-3.825-4.656-3.234-7.858,1.289-12.871,10.766-13.879,13.6q-3.282,3.053-6.209,6.28-.01-1.11-.006-2.223c1.124-2.308,6.718-10.929,3.452-14.406-1.558-1.581-4.509-1.176-6.373.924-4.042,4.644,1.045,11.745,2.275,13.591q0,1.406.027,2.807-3.321,3.724-6.168,7.628l-1.193-2.422c.105-2.475,2.062-13.589-3.965-15.847a5.416,5.416,0,0,0-6.842,3.352c-1.846,6.111,8.235,11.328,10.274,12.756l1.343,2.688q-2.786,3.866-5.107,7.858-1.235-1.132-2.494-2.245c-.923-2.783-3.765-13.78-11.478-13.728-3.541.07-6.286,2.7-5.916,5.573.977,6.086,13.69,7.752,16.775,8.709q1.365,1.189,2.7,2.4-1.38,2.417-2.591,4.865-1.467-.185-2.956-.325c-1.768-1.246-9.549-5.659-14.959-2.349-2.405,1.477-2.9,3.723-1.183,4.88,3.8,2.379,13.492-1.433,15.991-2.049q1.45.132,2.88.308a88.383,88.383,0,0,0-5.77,15.176q.367.061.732.124a87.84,87.84,0,0,1,5.89-15.322q1.19.559,2.358,1.143c1.2,1.815,6.223,8.558,10.773,8.481a2.439,2.439,0,0,0,2.488-3.459c-1.369-4.42-10.475-5.591-12.972-5.444q-1.2-.6-2.417-1.183,1.222-2.436,2.613-4.844,2.09-.092,4.15-.09c3.029,1.213,13.011,6.506,18.752,4.543,2.708-.953,3.584-3.309,1.759-5.375-4.018-4.8-17.121-1.491-20.384.146q-1.919-.005-3.865.069,2.216-3.756,4.848-7.411,1.8-.317,3.59-.568c2.829.534,13.613,4.056,19.239,1.47,2.592-1.223,3.139-3.435.971-4.988-4.982-3.714-17.674,1.375-20.2,3.061q-1.608.224-3.22.5,2.714-3.708,5.86-7.266,1.763-.557,3.542-1.055c2.932.049,13.329,1.327,18.052-1.582,2.188-1.385,2.178-3.277-.233-4.2-5.455-2.171-15.7,3.523-17.924,5.322q-1.414.395-2.818.828,3.111-3.447,6.631-6.708" transform="translate(-727.148 -322.194)" fill="#ef6aa0"/>
    <g id="Group_17088" data-name="Group 17088">
      <path id="Path_13290" data-name="Path 13290" d="M262.642,373.285a4.407,4.407,0,0,1-5.191,2.138l-2.466,4.644a2.555,2.555,0,0,1,.417,2.963,2.576,2.576,0,1,1-1.863-3.726l2.466-4.644a4.379,4.379,0,0,1-1.145-5.482c.046-.086.1-.166.149-.249l-3.895-3.545a2.566,2.566,0,1,1,1.1-1.2l3.894,3.544a4.4,4.4,0,0,1,6.531,5.561" transform="translate(-184.247 -268.937)" fill="#ef6aa0"/>
      <path id="Path_13291" data-name="Path 13291" d="M326.9,447.19a4.689,4.689,0,0,1-1.718-5.79l-7.8-5.148a8.04,8.04,0,1,1-4.389-12.9l3.043-8.812a4.721,4.721,0,1,1,1.547.531l-3.043,8.812a7.954,7.954,0,0,1,3.743,11.009l7.8,5.148a4.706,4.706,0,1,1,.815,7.151" transform="translate(-225.829 -302.613)" fill="#ef6aa0"/>
    </g>
    <g id="Group_17082" data-name="Group 17082">
      <path id="Path_13292" data-name="Path 13292" d="M1005.247,256.8H991.974a.532.532,0,0,0-.532.53v3.255a2.283,2.283,0,0,0,2.284,2.277h.237v1.1a2.353,2.353,0,0,0,2.353,2.346h4.589a2.353,2.353,0,0,0,2.354-2.346v-1.1h.237a2.283,2.283,0,0,0,2.284-2.277v-3.255a.532.532,0,0,0-.532-.53m-7.969,5a.531.531,0,1,0,0,1.061h4.916v1.1a1.289,1.289,0,0,1-1.289,1.285h-4.589a1.288,1.288,0,0,1-1.289-1.285v-1.632a.532.532,0,0,0-.532-.53.452.452,0,0,1-.279,0h-.489a1.219,1.219,0,0,1-1.22-1.216V257.86h12.209v2.724a1.22,1.22,0,0,1-1.22,1.216Z" transform="translate(-738.684 -191.533)" fill="#5b285b"/>
      <path id="Path_13293" data-name="Path 13293" d="M1004.774,205.236a.532.532,0,0,0,.532-.53v-8.1a6.751,6.751,0,0,0,4.371-1.953.531.531,0,0,0-.753-.75,5.675,5.675,0,0,1-4.034,1.663h0a5.677,5.677,0,0,1-4.035-1.664l-.232-.231a.531.531,0,1,0-.752.751l.232.231a6.775,6.775,0,0,0,4.139,1.939v8.117a.532.532,0,0,0,.532.53" transform="translate(-744.847 -144.331)" fill="#5b285b"/>
      <path id="Path_13294" data-name="Path 13294" d="M993.74,142.608a.532.532,0,0,0-.532.53,12.012,12.012,0,0,1-2.764,7.655,13.2,13.2,0,0,0-3.221,8.456v.1H975.014v-.1a13.308,13.308,0,0,0-3.241-8.483,12.017,12.017,0,0,1-2.744-7.543,12.283,12.283,0,0,1,11.743-12.134c.117,0,.234,0,.35,0a12.109,12.109,0,0,1,11.039,7.14.534.534,0,0,0,.487.314.532.532,0,0,0,.485-.747,13.18,13.18,0,0,0-12.017-7.768q-.186,0-.373.005a13.092,13.092,0,0,0-9.791,21.412,12.264,12.264,0,0,1,3,7.809v.629a.532.532,0,0,0,.532.531h13.273a.532.532,0,0,0,.532-.531v-.632a12.154,12.154,0,0,1,2.976-7.779,13.072,13.072,0,0,0,3.009-8.331.532.532,0,0,0-.532-.53" transform="translate(-721.192 -96.979)" fill="#5b285b"/>
      <path id="Path_13295" data-name="Path 13295" d="M1018.071,76.614a.509.509,0,0,1-.51-.508V67.29a.51.51,0,0,1,1.02,0v8.815a.509.509,0,0,1-.51.508" transform="translate(-758.144 -49.81)" fill="#5b285b"/>
      <path id="Path_13296" data-name="Path 13296" d="M957.061,116.061a.509.509,0,0,1-.361-.149l-2.828-2.819a.509.509,0,0,1,.721-.719l2.828,2.819a.508.508,0,0,1-.36.868" transform="translate(-710.581 -83.703)" fill="#5b285b"/>
      <path id="Path_13297" data-name="Path 13297" d="M954.233,232.645a.508.508,0,0,1-.361-.868l2.828-2.819a.509.509,0,0,1,.721.719l-2.828,2.819a.509.509,0,0,1-.36.149" transform="translate(-710.581 -170.657)" fill="#5b285b"/>
      <path id="Path_13298" data-name="Path 13298" d="M1073.645,232.645a.509.509,0,0,1-.36-.149l-2.828-2.819a.509.509,0,0,1,.721-.719l2.827,2.819a.508.508,0,0,1-.36.868" transform="translate(-797.443 -170.657)" fill="#5b285b"/>
      <path id="Path_13299" data-name="Path 13299" d="M1070.817,116.061a.508.508,0,0,1-.36-.868l2.828-2.819a.509.509,0,0,1,.721.719l-2.827,2.819a.509.509,0,0,1-.361.149" transform="translate(-797.443 -83.703)" fill="#5b285b"/>
      <path id="Path_13300" data-name="Path 13300" d="M917.633,177.079H908.79a.508.508,0,1,1,0-1.017h8.843a.508.508,0,1,1,0,1.017" transform="translate(-676.723 -131.315)" fill="#5b285b"/>
      <path id="Path_13301" data-name="Path 13301" d="M1101.508,177.079h-8.843a.508.508,0,1,1,0-1.017h8.843a.508.508,0,1,1,0,1.017" transform="translate(-813.721 -131.315)" fill="#5b285b"/>
    </g>
    <g id="Group_17081" data-name="Group 17081">
      <path id="Path_13302" data-name="Path 13302" d="M807.964,196.516h12.319a3.173,3.173,0,0,1,3.168,3.158v12.281a3.172,3.172,0,0,1-3.168,3.158H807.964a3.173,3.173,0,0,1-3.168-3.158V199.674a3.173,3.173,0,0,1,3.168-3.158" transform="translate(-599.621 -146.571)" fill="#ef6aa0" fill-rule="evenodd"/>
      <path id="Path_13303" data-name="Path 13303" d="M828.682,222.412a2.79,2.79,0,0,1,.379-1.579,5.6,5.6,0,0,1,1.357-1.216,2.458,2.458,0,0,0,.8-.785,2.005,2.005,0,0,0,.292-1.08,1.452,1.452,0,0,0-.341-1.012,1.239,1.239,0,0,0-.967-.378,1.145,1.145,0,0,0-1.2,1.231H826.5l-.015-.046a2.737,2.737,0,0,1,1-2.361,4.327,4.327,0,0,1,2.709-.79,4.156,4.156,0,0,1,2.838.907,3.089,3.089,0,0,1,1.037,2.447,2.931,2.931,0,0,1-.565,1.738,4,4,0,0,1-1.436,1.247,1.737,1.737,0,0,0-.655.683,2.389,2.389,0,0,0-.171.993Zm2.557,3.142h-2.546v-2.04h2.546Z" transform="translate(-615.774 -160.73)" fill="#fff"/>
    </g>
    <g id="Group_17086" data-name="Group 17086">
      <path id="Path_13304" data-name="Path 13304" d="M489.611,172.815h-3.09a.37.37,0,0,1-.371-.37v-3.08a.37.37,0,0,1,.371-.37h3.09a.37.37,0,0,1,.371.37v3.08a.37.37,0,0,1-.371.37m-2.719-.739h2.348v-2.341h-2.348Z" transform="translate(-362.212 -126.045)" fill="#5b285b"/>
      <path id="Path_13305" data-name="Path 13305" d="M489.611,197.353h-3.09a.37.37,0,0,1-.371-.37V193.9a.37.37,0,0,1,.371-.37h3.09a.371.371,0,0,1,.371.37v3.08a.37.37,0,0,1-.371.37m-2.719-.739h2.348v-2.341h-2.348Z" transform="translate(-362.212 -144.347)" fill="#5b285b"/>
      <path id="Path_13306" data-name="Path 13306" d="M489.611,221.892h-3.09a.37.37,0,0,1-.371-.37v-3.08a.37.37,0,0,1,.371-.37h3.09a.37.37,0,0,1,.371.37v3.08a.37.37,0,0,1-.371.37m-2.719-.739h2.348v-2.341h-2.348Z" transform="translate(-362.212 -162.649)" fill="#5b285b"/>
      <path id="Path_13307" data-name="Path 13307" d="M529.107,169.735H516.254a.37.37,0,1,1,0-.739h12.853a.37.37,0,1,1,0,.739" transform="translate(-384.364 -126.045)" fill="#5b285b"/>
      <path id="Path_13308" data-name="Path 13308" d="M524.163,179.915h-7.91a.37.37,0,1,1,0-.739h7.91a.37.37,0,1,1,0,.739" transform="translate(-384.364 -133.638)" fill="#5b285b"/>
      <path id="Path_13309" data-name="Path 13309" d="M582.666,169.735h-4.037a.37.37,0,1,1,0-.739h4.037a.37.37,0,1,1,0,.739" transform="translate(-430.837 -126.045)" fill="#5b285b"/>
      <path id="Path_13310" data-name="Path 13310" d="M525.894,194.273h-9.64a.37.37,0,1,1,0-.739h9.64a.37.37,0,1,1,0,.739" transform="translate(-384.364 -144.347)" fill="#5b285b"/>
      <path id="Path_13311" data-name="Path 13311" d="M530.508,204.453H516.254a.37.37,0,1,1,0-.739h14.254a.37.37,0,1,1,0,.739" transform="translate(-384.364 -151.939)" fill="#5b285b"/>
      <path id="Path_13312" data-name="Path 13312" d="M573.275,194.273h-7.25a.37.37,0,1,1,0-.739h7.25a.37.37,0,1,1,0,.739" transform="translate(-421.446 -144.347)" fill="#5b285b"/>
      <path id="Path_13313" data-name="Path 13313" d="M529.107,218.812H516.254a.37.37,0,1,1,0-.739h12.853a.37.37,0,1,1,0,.739" transform="translate(-384.364 -162.649)" fill="#5b285b"/>
      <path id="Path_13314" data-name="Path 13314" d="M524.163,228.992h-7.91a.37.37,0,1,1,0-.739h7.91a.37.37,0,1,1,0,.739" transform="translate(-384.364 -170.242)" fill="#5b285b"/>
      <path id="Path_13315" data-name="Path 13315" d="M582.666,218.812h-4.037a.37.37,0,1,1,0-.739h4.037a.37.37,0,1,1,0,.739" transform="translate(-430.837 -162.649)" fill="#5b285b"/>
    </g>
    <g id="Group_17085" data-name="Group 17085">
      <path id="Path_13316" data-name="Path 13316" d="M521.444,98.691h-3.09a.37.37,0,0,1-.371-.37v-3.08a.37.37,0,0,1,.371-.37h3.09a.37.37,0,0,1,.371.37v3.08a.37.37,0,0,1-.371.37m-2.719-.739h2.348V95.611h-2.348Z" transform="translate(-385.928 -70.76)" fill="#5b285b"/>
      <path id="Path_13317" data-name="Path 13317" d="M521.444,123.23h-3.09a.37.37,0,0,1-.371-.37v-3.08a.37.37,0,0,1,.371-.37h3.09a.37.37,0,0,1,.371.37v3.08a.37.37,0,0,1-.371.37m-2.719-.739h2.348V120.15h-2.348Z" transform="translate(-385.928 -89.063)" fill="#5b285b"/>
      <path id="Path_13318" data-name="Path 13318" d="M555.363,95.611h-7.276a.37.37,0,1,1,0-.739h7.276a.37.37,0,1,1,0,.739" transform="translate(-408.081 -70.76)" fill="#5b285b"/>
      <path id="Path_13319" data-name="Path 13319" d="M562.41,105.791H548.087a.37.37,0,1,1,0-.739H562.41a.37.37,0,1,1,0,.739" transform="translate(-408.081 -78.353)" fill="#5b285b"/>
      <path id="Path_13320" data-name="Path 13320" d="M606.565,95.611h-17.98a.37.37,0,1,1,0-.739h17.98a.37.37,0,1,1,0,.739" transform="translate(-438.255 -70.76)" fill="#5b285b"/>
      <path id="Path_13321" data-name="Path 13321" d="M559.958,120.15H548.087a.37.37,0,1,1,0-.739h11.871a.37.37,0,1,1,0,.739" transform="translate(-408.081 -89.063)" fill="#5b285b"/>
      <path id="Path_13322" data-name="Path 13322" d="M554.533,130.33h-6.446a.37.37,0,1,1,0-.739h6.446a.37.37,0,1,1,0,.739" transform="translate(-408.081 -96.655)" fill="#5b285b"/>
      <path id="Path_13323" data-name="Path 13323" d="M613.858,120.15h-7.25a.37.37,0,1,1,0-.739h7.25a.37.37,0,1,1,0,.739" transform="translate(-451.683 -89.063)" fill="#5b285b"/>
    </g>
    <g id="Group_17087" data-name="Group 17087">
      <path id="Path_13324" data-name="Path 13324" d="M443.548,319.9H433.016a2.7,2.7,0,0,1-2.7-2.693v-5.134a2.7,2.7,0,0,1,2.7-2.693h10.531a2.7,2.7,0,0,1,2.7,2.693v5.134a2.7,2.7,0,0,1-2.7,2.693m-10.531-9.884a2.063,2.063,0,0,0-2.064,2.058v5.134a2.063,2.063,0,0,0,2.064,2.058h10.531a2.063,2.063,0,0,0,2.064-2.058v-5.134a2.063,2.063,0,0,0-2.064-2.058Z" transform="translate(-320.61 -230.754)" fill="#5b285b"/>
      <path id="Path_13325" data-name="Path 13325" d="M458.356,322.955l-3.886,2.238a.269.269,0,0,1-.4-.233v-4.477a.269.269,0,0,1,.4-.233l3.886,2.238a.268.268,0,0,1,0,.465" transform="translate(-338.306 -238.831)" fill="#5b285b"/>
    </g>
    <g id="Group_17091" data-name="Group 17091">
      <path id="Path_13326" data-name="Path 13326" d="M204.245,639.163a.348.348,0,0,0,.349-.348v-4.909a.349.349,0,0,0-.7,0v4.909a.348.348,0,0,0,.349.348" transform="translate(-151.915 -472.538)" fill="#ed5588"/>
      <path id="Path_13327" data-name="Path 13327" d="M214.678,664h2.374a.348.348,0,1,0,0-.7h-2.374a.348.348,0,1,0,0,.7" transform="translate(-159.688 -494.725)" fill="#ed5588"/>
      <path id="Path_13328" data-name="Path 13328" d="M204.245,679.344a.348.348,0,0,0,.349-.348v-4.909a.349.349,0,0,0-.7,0V679a.348.348,0,0,0,.349.348" transform="translate(-151.915 -502.507)" fill="#ed5588"/>
      <path id="Path_13329" data-name="Path 13329" d="M184.5,664h2.375a.348.348,0,1,0,0-.7H184.5a.348.348,0,1,0,0,.7" transform="translate(-137.201 -494.725)" fill="#ed5588"/>
    </g>
    <g id="Group_17084" data-name="Group 17084">
      <path id="Path_13330" data-name="Path 13330" d="M1129.246,337.495a.233.233,0,0,0,.233-.232v-3.277a.233.233,0,0,0-.466,0v3.277a.233.233,0,0,0,.233.232" transform="translate(-841.182 -248.929)" fill="#ed5588"/>
      <path id="Path_13331" data-name="Path 13331" d="M1136.212,354.078h1.585a.232.232,0,1,0,0-.464h-1.585a.232.232,0,1,0,0,.464" transform="translate(-846.372 -263.742)" fill="#ed5588"/>
      <path id="Path_13332" data-name="Path 13332" d="M1129.246,364.322a.233.233,0,0,0,.233-.232v-3.277a.233.233,0,0,0-.466,0v3.277a.233.233,0,0,0,.233.232" transform="translate(-841.182 -268.938)" fill="#ed5588"/>
      <path id="Path_13333" data-name="Path 13333" d="M1116.062,354.078h1.585a.232.232,0,1,0,0-.464h-1.585a.232.232,0,1,0,0,.464" transform="translate(-831.359 -263.742)" fill="#ed5588"/>
    </g>
    <g id="Group_17083" data-name="Group 17083">
      <path id="Path_13334" data-name="Path 13334" d="M850.777,52.056a.233.233,0,0,0,.233-.232V48.546a.233.233,0,0,0-.466,0v3.277a.233.233,0,0,0,.233.232" transform="translate(-633.706 -36.035)" fill="#ed5588"/>
      <path id="Path_13335" data-name="Path 13335" d="M857.743,68.64h1.585a.232.232,0,1,0,0-.464h-1.585a.232.232,0,1,0,0,.464" transform="translate(-638.896 -50.849)" fill="#ed5588"/>
      <path id="Path_13336" data-name="Path 13336" d="M850.777,78.883a.233.233,0,0,0,.233-.232V75.373a.233.233,0,0,0-.466,0V78.65a.233.233,0,0,0,.233.232" transform="translate(-633.706 -56.044)" fill="#ed5588"/>
      <path id="Path_13337" data-name="Path 13337" d="M837.592,68.64h1.586a.232.232,0,1,0,0-.464h-1.586a.232.232,0,1,0,0,.464" transform="translate(-623.883 -50.849)" fill="#ed5588"/>
    </g>
    <g id="Group_17090" data-name="Group 17090">
      <path id="Path_13338" data-name="Path 13338" d="M494.129,414.953a.233.233,0,0,0,.233-.232v-3.277a.233.233,0,0,0-.466,0v3.277a.233.233,0,0,0,.233.232" transform="translate(-367.982 -306.7)" fill="#ed5588"/>
      <path id="Path_13339" data-name="Path 13339" d="M501.1,431.536h1.585a.232.232,0,1,0,0-.464H501.1a.232.232,0,1,0,0,.464" transform="translate(-373.172 -321.514)" fill="#ed5588"/>
      <path id="Path_13340" data-name="Path 13340" d="M494.129,441.779a.233.233,0,0,0,.233-.232v-3.277a.233.233,0,0,0-.466,0v3.277a.233.233,0,0,0,.233.232" transform="translate(-367.982 -326.709)" fill="#ed5588"/>
      <path id="Path_13341" data-name="Path 13341" d="M480.944,431.536h1.585a.232.232,0,1,0,0-.464h-1.585a.232.232,0,1,0,0,.464" transform="translate(-358.158 -321.514)" fill="#ed5588"/>
    </g>
    <g id="Group_17076" data-name="Group 17076" transform="translate(-3.885)">
      <path id="Path_13342" data-name="Path 13342" d="M421.955,714.944H550.023V695.6H421.955a4.522,4.522,0,0,0-4.529,4.515v10.319a4.522,4.522,0,0,0,4.529,4.515" transform="translate(-311.007 -518.808)" fill="#5b285b"/>
      <path id="Path_13344" data-name="Path 13344" d="M835.774,695.6h7.648a4.522,4.522,0,0,0-4.529,4.515v10.319a4.522,4.522,0,0,0,4.529,4.515h-7.648a4.522,4.522,0,0,1-4.529-4.515V700.111a4.522,4.522,0,0,1,4.529-4.515" transform="translate(-629.327 -518.808)" fill="#fff"/>
      <path id="Path_13345" data-name="Path 13345" d="M961.543,719.346v-14.8H917.861a2.246,2.246,0,0,0-2.246,2.24v10.318a2.246,2.246,0,0,0,2.246,2.24Z" transform="translate(-692.188 -525.484)" fill="#fff"/>
      <path id="Path_13346" data-name="Path 13346" d="M906.662,700.111a4.522,4.522,0,0,1,4.529-4.515h44.823a1.138,1.138,0,1,1,0,2.275H911.191a2.243,2.243,0,0,0-2.246,2.239v10.319a2.243,2.243,0,0,0,2.246,2.239h44.762a1.183,1.183,0,0,1,1.187.947,1.14,1.14,0,0,1-1.126,1.329H911.191a4.522,4.522,0,0,1-4.529-4.515Z" transform="translate(-685.518 -518.808)" fill="#79357c"/>
      <rect id="Rectangle_768" data-name="Rectangle 768" width="25.384" height="2.542" transform="translate(166.032 182.488)" fill="#fff"/>
      <rect id="Rectangle_769" data-name="Rectangle 769" width="40.107" height="2.542" transform="translate(120.101 182.488)" fill="#fff"/>
      <rect id="Rectangle_770" data-name="Rectangle 770" width="58.144" height="2.542" transform="translate(133.272 187.895)" fill="#fff"/>
      <path id="Path_13343" data-name="Path 13343" d="M445.94,695.6h7.648a4.522,4.522,0,0,0-4.529,4.515v10.319a4.522,4.522,0,0,0,4.529,4.515H445.94a4.522,4.522,0,0,1-4.529-4.515V700.111a4.522,4.522,0,0,1,4.529-4.515" transform="translate(-334.992 -518.808)" fill="#fff"/>
    </g>
    <g id="Group_17075" data-name="Group 17075">
      <path id="Path_13347" data-name="Path 13347" d="M763.761,633.26H671.287V612.018h92.474a4.522,4.522,0,0,1,4.529,4.515v12.212a4.522,4.522,0,0,1-4.529,4.515" transform="translate(-510.149 -456.472)" fill="#f78c19"/>
      <path id="Path_13348" data-name="Path 13348" d="M513.057,637.661V620.97h43.682a2.246,2.246,0,0,1,2.246,2.24v12.212a2.246,2.246,0,0,1-2.246,2.24Z" transform="translate(-392.258 -463.148)" fill="#fff"/>
      <path id="Path_13349" data-name="Path 13349" d="M552.316,630.92v11.074a2.243,2.243,0,0,1-2.246,2.239H505.307a1.183,1.183,0,0,0-1.187.947,1.139,1.139,0,0,0,1.126,1.329h44.823a4.522,4.522,0,0,0,4.529-4.515V630.92a1.141,1.141,0,0,0-2.282,0" transform="translate(-385.588 -469.721)" fill="#d3761a"/>
      <rect id="Rectangle_771" data-name="Rectangle 771" width="2.55" height="10.504" transform="translate(250.098 160.915)" fill="#fff"/>
      <rect id="Rectangle_772" data-name="Rectangle 772" width="5.809" height="10.505" transform="translate(175.602 160.915)" fill="#fff"/>
      <rect id="Rectangle_773" data-name="Rectangle 773" width="48.033" height="10.504" transform="translate(191.929 160.916)" fill="#fff"/>
      <path id="Path_13350" data-name="Path 13350" d="M550.068,612.017H505.306a1.183,1.183,0,0,0-1.187.947,1.14,1.14,0,0,0,1.126,1.329h44.823a2.243,2.243,0,0,1,2.247,2.24v4.431a1.141,1.141,0,0,0,2.282,0v-4.431a4.522,4.522,0,0,0-4.529-4.515" transform="translate(-385.588 -456.471)" fill="#d3761a"/>
    </g>
    <g id="Group_17074" data-name="Group 17074">
      <path id="Path_13351" data-name="Path 13351" d="M486.026,549.682H574.7V528.44H486.026a4.522,4.522,0,0,0-4.529,4.515v12.212a4.522,4.522,0,0,0,4.529,4.515" transform="translate(-368.744 -394.136)" fill="#269dd8"/>
      <path id="Path_13352" data-name="Path 13352" d="M872.613,554.083V537.392h-45.2a2.246,2.246,0,0,0-2.246,2.24v12.212a2.246,2.246,0,0,0,2.246,2.24Z" transform="translate(-624.797 -400.813)" fill="#fff"/>
      <path id="Path_13353" data-name="Path 13353" d="M818.495,547.342v11.074a2.243,2.243,0,0,0,2.246,2.239h46.282a1.183,1.183,0,0,1,1.187.947,1.14,1.14,0,0,1-1.126,1.329H820.741a4.522,4.522,0,0,1-4.529-4.515V547.342a1.141,1.141,0,0,1,2.282,0" transform="translate(-618.127 -407.385)" fill="#177ba3"/>
      <path id="Path_13354" data-name="Path 13354" d="M820.741,528.439h46.281a1.183,1.183,0,0,1,1.187.947,1.14,1.14,0,0,1-1.126,1.329H820.741a2.243,2.243,0,0,0-2.247,2.24v4.431a1.141,1.141,0,0,1-2.282,0v-4.431a4.522,4.522,0,0,1,4.529-4.515" transform="translate(-618.127 -394.135)" fill="#177ba3"/>
      <rect id="Rectangle_774" data-name="Rectangle 774" width="10.537" height="2.542" transform="translate(179.351 140.951)" fill="#fff"/>
      <rect id="Rectangle_775" data-name="Rectangle 775" width="10.537" height="2.542" transform="translate(162.978 140.951)" fill="#fff"/>
      <rect id="Rectangle_776" data-name="Rectangle 776" width="40.107" height="2.542" transform="translate(118.573 140.951)" fill="#fff"/>
      <rect id="Rectangle_777" data-name="Rectangle 777" width="22.85" height="2.542" transform="translate(167.038 146.357)" fill="#fff"/>
      <rect id="Rectangle_778" data-name="Rectangle 778" width="29.239" height="2.542" transform="translate(131.999 146.357)" fill="#fff"/>
    </g>
    <g id="Group_17078" data-name="Group 17078">
      <path id="Path_13355" data-name="Path 13355" d="M919.614,450.8H907.171A2.166,2.166,0,0,1,905,448.64v-12.4a2.166,2.166,0,0,1,2.17-2.163h12.443a2.166,2.166,0,0,1,2.17,2.163v12.4a2.166,2.166,0,0,1-2.17,2.163" transform="translate(-674.28 -323.751)" fill="#ef6aa0"/>
      <g id="Group_17077" data-name="Group 17077">
        <path id="Path_13356" data-name="Path 13356" d="M931.463,447.168a3.355,3.355,0,1,0-5.783,2.308,2.056,2.056,0,0,1,.56,1.424v.7h3.736v-.7a2.036,2.036,0,0,1,.555-1.416,3.327,3.327,0,0,0,.935-2.317" transform="translate(-688.996 -331.024)" fill="#fff"/>
        <rect id="Rectangle_779" data-name="Rectangle 779" width="3.736" height="0.86" transform="translate(237.221 121.229)" fill="#fff"/>
        <rect id="Rectangle_780" data-name="Rectangle 780" width="3.736" height="0.86" transform="translate(237.221 122.543)" fill="#fff"/>
        <rect id="Rectangle_781" data-name="Rectangle 781" width="1.006" height="0.86" transform="translate(238.586 123.713)" fill="#fff"/>
      </g>
    </g>
    <g id="Group_17080" data-name="Group 17080">
      <path id="Path_13357" data-name="Path 13357" d="M909.52,316.9a5.2,5.2,0,1,1-5.212,5.2,5.2,5.2,0,0,1,5.212-5.2" transform="translate(-673.764 -236.355)" fill="#5b285b" fill-rule="evenodd"/>
      <g id="Group_17079" data-name="Group 17079">
        <path id="Path_13358" data-name="Path 13358" d="M920.226,341.165c0-.027,0-.055,0-.083v-2.926c0-.19.077-.268.267-.268h1.624a.223.223,0,0,1,.254.255v2.939c0,.027,0,.055,0,.083Z" transform="translate(-685.624 -252.012)" fill="#fff"/>
        <path id="Path_13359" data-name="Path 13359" d="M911.956,343.673a.2.2,0,0,1-.131-.215c0-.652,0-1.3,0-1.957a.219.219,0,0,1,.251-.249h1.465V343.6c0,.026,0,.051,0,.075Z" transform="translate(-679.362 -254.52)" fill="#fff"/>
        <path id="Path_13360" data-name="Path 13360" d="M930.315,346.18q0-.743,0-1.485v-.082h1.463a.218.218,0,0,1,.251.249c0,.368,0,.735,0,1.1a.2.2,0,0,1-.131.215Z" transform="translate(-693.14 -257.026)" fill="#fff"/>
        <path id="Path_13361" data-name="Path 13361" d="M919.1,327.689c.026-.15.054-.315.082-.48.014-.082.033-.163.041-.245a.113.113,0,0,0-.029-.082q-.246-.246-.5-.486a.216.216,0,0,1-.072-.24.223.223,0,0,1,.2-.15c.226-.031.455-.067.683-.1a.087.087,0,0,0,.075-.055c.1-.206.2-.411.3-.617a.219.219,0,0,1,.414,0c.1.2.2.407.3.611a.09.09,0,0,0,.079.06c.23.03.46.066.689.1a.218.218,0,0,1,.13.385c-.167.161-.332.324-.5.484a.1.1,0,0,0-.031.1c.042.227.08.455.119.684a.216.216,0,0,1-.16.261.218.218,0,0,1-.164-.026c-.2-.108-.411-.214-.616-.324a.1.1,0,0,0-.111,0q-.312.169-.628.329a.215.215,0,0,1-.291-.086.212.212,0,0,1-.024-.127" transform="translate(-684.425 -242.466)" fill="#fff"/>
      </g>
    </g>
    <g id="Group_17089" data-name="Group 17089">
      <path id="Path_13397" data-name="Path 13397" d="M450.476,484.4h-8.693a2.207,2.207,0,0,1-2.211-2.2v-8.666a2.207,2.207,0,0,1,2.211-2.2h8.693a2.207,2.207,0,0,1,2.211,2.2V482.2a2.207,2.207,0,0,1-2.211,2.2" transform="translate(-327.508 -351.538)" fill="#ef6aa0"/>
      <path id="Path_13398" data-name="Path 13398" d="M452.708,491.115h1.581l1.633-2.245,1.607,2.245h1.594l-2.423-3.351,2.016-2.784h-1.607l-1.186,1.7-1.186-1.691h-1.607l2.016,2.784Z" transform="translate(-337.294 -361.721)" fill="#fff"/>
    </g>
    <g id="man">
      <g id="Group_17070" data-name="Group 17070">
        <path id="Path_13362" data-name="Path 13362" d="M699.666,306.7l-2.2-7.385h-7.305l-2.2,7.385s-2.639,8.33,5.857,8.33,5.857-8.33,5.857-8.33" transform="translate(-512.276 -223.24)" fill="#f4b1b0"/>
        <path id="Path_13363" data-name="Path 13363" d="M693.568,305.834c3.626,5.134,10.122,2.326,10.122,2.326l-.846-2.832-4.563-2.038-4.563,2.038Z" transform="translate(-516.75 -226.208)" fill="#e78284"/>
        <path id="Path_13364" data-name="Path 13364" d="M678.583,230.183c-2.44,2.579-2.308,9.052-1.5,13.6,1.058,5.949,5.968,9.114,8.525,9.114s7.467-3.165,8.526-9.114c.809-4.546.941-11.019-1.5-13.6Z" transform="translate(-504.077 -171.682)" fill="#f4b1b0"/>
        <path id="Path_13365" data-name="Path 13365" d="M671.354,210.987c2.881,6.858,9.5,10.726,18.583,4.162-4.5-6.008-12.968-6.711-18.583-4.162" transform="translate(-500.199 -156.324)"/>
        <path id="Path_13366" data-name="Path 13366" d="M690.5,201.645c1.47,4.367,7.1,7.781,10.144,8.914,3.559.435,4.4,5.276,4.4,5.276,2.65-4.01,1.445-12.959-1.848-12.138-2.675-3.964-10.127-3.48-12.7-2.052" transform="translate(-514.461 -149.62)"/>
        <path id="Path_13367" data-name="Path 13367" d="M679.307,230.952c-2.844,1.072-3.683,5.327-3.683,5.327-.891-3.354.211-7.024,1.247-8.079s2.435,2.753,2.435,2.753" transform="translate(-503.137 -170.063)"/>
        <path id="Path_13368" data-name="Path 13368" d="M671.481,260.45c-1.323-.725-2.815.352-1.918,3.5.781,2.743,2.182,2.583,2.381,2.1.221-.533-.463-5.6-.463-5.6" transform="translate(-498.661 -194.094)" fill="#f4b1b0"/>
        <path id="Path_13369" data-name="Path 13369" d="M744.753,260.45c1.323-.725,2.815.352,1.918,3.5-.781,2.743-2.182,2.583-2.381,2.1-.221-.533.463-5.6.463-5.6" transform="translate(-554.508 -194.094)" fill="#f4b1b0"/>
      </g>
      <g id="Group_17071" data-name="Group 17071">
        <path id="Path_13370" data-name="Path 13370" d="M622.039,361.15a38.8,38.8,0,0,1-11.317-4.209,2.929,2.929,0,0,1-1.385-3.34,111.426,111.426,0,0,1,7.251-19.441,6.2,6.2,0,0,1,3.284-3.008,54.731,54.731,0,0,1,9.714-2.781c-.889,3.934,4.035,7.136,5.857,7.136s6.734-3.179,5.858-7.136a54.72,54.72,0,0,1,9.714,2.781,6.2,6.2,0,0,1,3.285,3.008,111.446,111.446,0,0,1,7.251,19.441,2.929,2.929,0,0,1-1.385,3.34,38.8,38.8,0,0,1-11.317,4.209Z" transform="translate(-453.912 -244.914)" fill="#f9a719"/>
        <path id="Path_13371" data-name="Path 13371" d="M610.722,423.436a38.707,38.707,0,0,0,10.235,3.967c.316-1.284.978-5.058-1.358-7.583-.529-2.9-9.025-3.312-10.262.276a2.929,2.929,0,0,0,1.385,3.34" transform="translate(-453.912 -311.409)" fill="#f4b1b0"/>
        <path id="Path_13372" data-name="Path 13372" d="M778.218,423.436a38.7,38.7,0,0,1-10.235,3.967c-.316-1.284-.978-5.058,1.358-7.583.529-2.9,9.025-3.312,10.262.276a2.929,2.929,0,0,1-1.385,3.34" transform="translate(-571.945 -311.409)" fill="#f4b1b0"/>
        <path id="Path_13373" data-name="Path 13373" d="M664.064,383.46l.22,3.209H662.94Z" transform="translate(-493.93 -286.003)" fill="#ef9360"/>
        <path id="Path_13374" data-name="Path 13374" d="M756.123,383.46l-.221,3.209h1.345Z" transform="translate(-563.192 -286.003)" fill="#ef9360"/>
        <path id="Path_13375" data-name="Path 13375" d="M690.2,334.715c-1.823,0-5.5-2.315-5.857-6.345q-.816.157-1.586.327a6.133,6.133,0,0,0,.224,2.455c1.225,3.732,4.8,6.025,7.219,6.025s5.994-2.293,7.219-6.025a6.133,6.133,0,0,0,.224-2.455q-.769-.17-1.586-.327c-.36,4.03-4.035,6.345-5.857,6.345" transform="translate(-508.666 -244.914)" fill="#fff"/>
      </g>
      <g id="Group_17072" data-name="Group 17072">
        <rect id="Rectangle_782" data-name="Rectangle 782" width="25.712" height="9.671" transform="translate(168.676 118.404)" fill="#071659"/>
        <path id="Path_13376" data-name="Path 13376" d="M676.314,395.308H643.638a1.059,1.059,0,0,0-.913.522l-.57.97H677.8l-.57-.97a1.059,1.059,0,0,0-.914-.522" transform="translate(-478.444 -294.839)" fill="#fff"/>
        <path id="Path_13377" data-name="Path 13377" d="M672.535,418.406H646.669a1.2,1.2,0,0,1-1.169-.938l-3.819-17.451a1.209,1.209,0,0,1,1.184-1.466h33.474a1.209,1.209,0,0,1,1.184,1.466L673.7,417.467a1.2,1.2,0,0,1-1.169.938" transform="translate(-478.07 -297.258)" fill="#1b77c4"/>
        <path id="Path_13378" data-name="Path 13378" d="M684.119,433.095l2.929-13.385c-4.73,7.505-18.431,14.368-30.467,9.961l.749,3.424a.475.475,0,0,0,.461.371h25.866a.475.475,0,0,0,.461-.371" transform="translate(-489.192 -313.039)" fill="#1e8eda"/>
        <path id="Path_13379" data-name="Path 13379" d="M703.52,434.9H698.9a1.4,1.4,0,1,1,0-2.8h4.617a1.4,1.4,0,1,1,0,2.8" transform="translate(-519.679 -322.285)" fill="#fff"/>
      </g>
      <g id="Group_17073" data-name="Group 17073">
        <path id="Path_13380" data-name="Path 13380" d="M756.933,512.849c9.355,1.508,15.44-.515,15.44-3.6,0-1.245-1.909-5.993-15.145-.487Z" transform="translate(-563.96 -377.521)" fill="#1e8eda"/>
        <path id="Path_13381" data-name="Path 13381" d="M758.424,518.273c6.145.739,9.191-.252,9.235-2.317.016-.741-1.089-2.852-9.008-.107Z" transform="translate(-565.071 -383.724)" fill="#1b77c4"/>
        <path id="Path_13382" data-name="Path 13382" d="M796.607,509.456c0-.861-.881-3.345-5.535-3.159,5.712-.716,6.737,2.059,6.737,2.969,0,1.742-1.945,3.145-5.326,3.763,2.635-.729,4.124-2.019,4.124-3.573" transform="translate(-589.396 -377.533)" fill="#fff"/>
        <path id="Path_13383" data-name="Path 13383" d="M781.649,512.623a2.685,2.685,0,0,1,1.961,1.94,3.106,3.106,0,0,1-.638,2.7,7.007,7.007,0,0,0,.278-1.315,3.667,3.667,0,0,0-.085-1.271,3.091,3.091,0,0,0-.55-1.132,4.978,4.978,0,0,0-.967-.92" transform="translate(-582.375 -382.338)" fill="#fff"/>
        <path id="Path_13384" data-name="Path 13384" d="M773.63,514.753a2.23,2.23,0,0,1,1.033.71,2.488,2.488,0,0,1,.531,1.175,2.63,2.63,0,0,1-.112,1.28,2.258,2.258,0,0,1-.708,1.032,4.124,4.124,0,0,0,.39-1.117,3.271,3.271,0,0,0,.013-1.127,2.963,2.963,0,0,0-.382-1.053,3.946,3.946,0,0,0-.765-.9" transform="translate(-576.401 -383.927)" fill="#fff"/>
        <path id="Path_13385" data-name="Path 13385" d="M766.231,516.905a1.519,1.519,0,0,1,.819.663,2.136,2.136,0,0,1,.308,1.036,2.333,2.333,0,0,1-.207,1.055,1.736,1.736,0,0,1-.688.794,2.866,2.866,0,0,0,.43-.89,3.013,3.013,0,0,0,.113-.946,2.322,2.322,0,0,0-.775-1.713" transform="translate(-570.888 -385.532)" fill="#fff"/>
        <path id="Path_13386" data-name="Path 13386" d="M636,476.918a92.441,92.441,0,0,0-25.586-10.8c-10.174-2.461-16.917-1.71-17.752,0s.531,7.332,5.26,9.677c9.123,4.524,36.888,6.257,36.888,6.257A14.982,14.982,0,0,0,636,476.918" transform="translate(-441.4 -346.475)" fill="#273373"/>
        <path id="Path_13387" data-name="Path 13387" d="M672.921,504.658c10.553,1.686,21.86,2.392,21.86,2.392a14.986,14.986,0,0,0,1.189-5.131,67.493,67.493,0,0,0-6.9-3.86Z" transform="translate(-501.366 -371.476)" fill="#071659"/>
        <path id="Path_13388" data-name="Path 13388" d="M598.035,477.973c-5.563-2.226-5.6-5.9-5.429-6.645-.7,1.865.722,7.247,5.323,9.528,3.256,1.615,8.888,2.874,14.785,3.825l11.75-4.76-1.744-4.5c-5.382,1.879-16.777,5.719-24.685,2.553" transform="translate(-441.402 -351.538)" fill="#071659"/>
        <path id="Path_13389" data-name="Path 13389" d="M622.06,512.849c-9.355,1.508-15.44-.515-15.44-3.6,0-1.245,1.909-5.993,15.145-.487Z" transform="translate(-451.968 -377.521)" fill="#1e8eda"/>
        <path id="Path_13390" data-name="Path 13390" d="M638.705,518.273c-6.145.739-9.191-.252-9.235-2.317-.016-.741,1.089-2.852,9.008-.107Z" transform="translate(-468.993 -383.724)" fill="#1b77c4"/>
        <path id="Path_13391" data-name="Path 13391" d="M607.821,509.456c0-.861.881-3.345,5.535-3.159-5.712-.716-6.737,2.059-6.737,2.969,0,1.742,1.945,3.145,5.326,3.763-2.635-.729-4.124-2.019-4.124-3.573" transform="translate(-451.968 -377.533)" fill="#fff"/>
        <path id="Path_13392" data-name="Path 13392" d="M636.487,512.623a4.979,4.979,0,0,0-.967.92,3.1,3.1,0,0,0-.55,1.132,3.676,3.676,0,0,0-.084,1.271,7.012,7.012,0,0,0,.278,1.315,3.106,3.106,0,0,1-.638-2.7,2.685,2.685,0,0,1,1.961-1.94" transform="translate(-472.696 -382.338)" fill="#fff"/>
        <path id="Path_13393" data-name="Path 13393" d="M645.821,514.753a3.945,3.945,0,0,0-.765.9,2.962,2.962,0,0,0-.382,1.053,3.27,3.27,0,0,0,.013,1.127,4.124,4.124,0,0,0,.39,1.117,2.258,2.258,0,0,1-.708-1.032,2.631,2.631,0,0,1-.112-1.28,2.489,2.489,0,0,1,.531-1.175,2.231,2.231,0,0,1,1.033-.71" transform="translate(-479.985 -383.927)" fill="#fff"/>
        <path id="Path_13394" data-name="Path 13394" d="M654.589,516.905a2.323,2.323,0,0,0-.775,1.713,3.011,3.011,0,0,0,.113.946,2.863,2.863,0,0,0,.43.89,1.735,1.735,0,0,1-.688-.794,2.334,2.334,0,0,1-.207-1.055,2.137,2.137,0,0,1,.308-1.036,1.52,1.52,0,0,1,.819-.663" transform="translate(-486.868 -385.532)" fill="#fff"/>
        <path id="Path_13395" data-name="Path 13395" d="M660.788,476.918a92.439,92.439,0,0,1,25.586-10.8c10.174-2.461,16.917-1.71,17.752,0s-.531,7.332-5.26,9.677c-9.123,4.524-36.888,6.257-36.888,6.257a14.983,14.983,0,0,1-1.189-5.131" transform="translate(-492.327 -346.475)" fill="#273373"/>
        <path id="Path_13396" data-name="Path 13396" d="M704.37,471.935c-3.1,5.706-9.814,10.79-23.793,12.7-11.95,1.636-17.712,2-19.611-1.638a14.376,14.376,0,0,0,1.143,4.565s27.766-1.733,36.889-6.257c4.481-2.222,5.941-7.383,5.372-9.374" transform="translate(-492.459 -351.991)" fill="#071659"/>
      </g>
    </g>
  </g>
</svg>
