<svg xmlns="http://www.w3.org/2000/svg" xmlns:xlink="http://www.w3.org/1999/xlink" width="62" height="62" viewBox="0 0 62 62">
  <defs>
    <clipPath id="clip-path">
      <rect id="Rectangle_17697" data-name="Rectangle 17697" width="46" height="46" rx="5" transform="translate(-0.147 -0.147)" fill="#4a65a0"/>
    </clipPath>
  </defs>
  <g id="paytm" transform="translate(0.094 0.094)">
    <rect id="Rectangle_119" data-name="Rectangle 119" width="62" height="62" rx="5" transform="translate(-0.094 -0.094)" fill="#f3f7fa"/>
    <g id="Mask_Group_3765" data-name="Mask Group 3765" transform="translate(8.054 8.054)" clip-path="url(#clip-path)">
      <g id="paytm_icon-icons.com_62731" transform="translate(0.347 15.599)">
        <path id="Path_17630" data-name="Path 17630" d="M22.505,11.244l.372-.3a2.746,2.746,0,0,1,4.059.326c.112.13.168.14.279.028.074-.084.158-.149.233-.233a2.818,2.818,0,0,1,4.822,2c.019,2.672.009,5.334.009,8.006a1.428,1.428,0,0,1-1.527,1.545c-.372,0-.745-.028-1.117.009s-.493-.084-.493-.484c.019-2.607.009-5.213.009-7.82V14c-.009-.605-.251-.856-.829-.884a.849.849,0,0,0-.94.819c-.009.121,0,.251,0,.372v6.75a1.412,1.412,0,0,1-1.555,1.555c-.5-.009-1.182.223-1.471-.1-.251-.279-.084-.94-.084-1.434V14.139c0-.819-.531-1.238-1.22-.959a.925.925,0,0,0-.568.968c.009,2.16,0,4.31,0,6.47v.512a1.422,1.422,0,0,1-1.5,1.48c-.372.009-.745-.028-1.117.009-.4.037-.521-.074-.512-.5.019-3.659.009-7.317.009-10.985,0-.158.009-.307,0-.465-.019-.2.065-.27.27-.27.856.009,1.7.009,2.56,0,.214,0,.317.056.3.289A3.864,3.864,0,0,0,22.505,11.244Z" transform="translate(12.73 -8.179)" fill="#02b9ef"/>
        <path id="Path_17631" data-name="Path 17631" d="M12.9,16.212v3.817a2.265,2.265,0,0,1-2.532,2.523c-.726,0-1.462.009-2.188,0a2.525,2.525,0,0,1-2.625-2.467,29.916,29.916,0,0,1-.009-3.165A2.68,2.68,0,0,1,8.3,14.332c.4-.009.81,0,1.21,0s.54-.233.531-.605-.168-.54-.54-.521q-.628.014-1.257,0a1.437,1.437,0,0,1-1.583-1.583c0-.41-.186-.959.084-1.2.233-.2.763-.074,1.164-.074,1.043-.009,2.076,0,3.119,0A1.784,1.784,0,0,1,12.9,12.218C12.908,13.54,12.9,14.881,12.9,16.212ZM10.05,18.326V17.86c0-.95,0-.95-.95-.912a.688.688,0,0,0-.745.754c-.009.391-.009.773,0,1.164.009.67.307.847,1.275.875.717.019.354-.484.419-.763A5.073,5.073,0,0,0,10.05,18.326Z" transform="translate(2.601 -8.101)" fill="#06306f"/>
        <path id="Path_17632" data-name="Path 17632" d="M17.678,15.181c0,1.424.019,2.858-.009,4.282a2.8,2.8,0,0,1-1.341,2.681,2.992,2.992,0,0,1-1.378.372c-1.071.019-2.141,0-3.212.019-.261,0-.317-.093-.307-.326.019-.391-.009-.773.009-1.164a1.357,1.357,0,0,1,1.331-1.341c.484-.019.959-.009,1.443,0,.391,0,.605-.158.605-.577s-.2-.577-.6-.587a7.575,7.575,0,0,1-1.946-.112,2.594,2.594,0,0,1-1.946-2.393c-.056-1.815-.019-3.631-.028-5.446,0-.2.065-.27.27-.261.763.009,1.517.019,2.281,0,.335-.009.289.177.289.382v4.1c0,.6.279.912.8.931.614.019.884-.233.884-.856,0-1.378.009-2.765-.009-4.143,0-.326.084-.419.41-.41.68.028,1.369.037,2.048,0,.372-.019.428.121.419.447C17.668,12.239,17.678,13.71,17.678,15.181Z" transform="translate(6.107 -8.085)" fill="#06306f"/>
        <path id="Path_17633" data-name="Path 17633" d="M.887,17.306V12.745a2.215,2.215,0,0,1,2.411-2.4,16.131,16.131,0,0,1,2.923.074,2.429,2.429,0,0,1,2.03,2.476c.009,1.35,0,2.7,0,4.05a2.55,2.55,0,0,1-2.69,2.774c-.512.019-1.024.009-1.536,0-.233-.009-.335.065-.326.317.019.372.009.745,0,1.117a1.36,1.36,0,0,1-1.378,1.387c-.465.009-1.052.2-1.35-.074C.692,22.212.9,21.617.887,21.17.878,19.885.887,18.591.887,17.306ZM3.7,15.025v.884c0,1.052,0,1.052,1.052.959a.646.646,0,0,0,.68-.717c.009-.521-.019-1.052.009-1.573.056-1.508-.223-1.359-1.452-1.369-.223,0-.3.065-.3.289C3.708,14,3.7,14.513,3.7,15.025Z" transform="translate(-0.824 -8.097)" fill="#06306f"/>
        <path id="Path_17634" data-name="Path 17634" d="M16.817,18.261c0-1.238-.009-2.486.009-3.724,0-.289-.065-.41-.382-.4-.419.019-.978.14-1.21-.065-.289-.27-.065-.847-.1-1.294v-.093c0-.438-.14-.95.047-1.275s.754-.121,1.154-.223A3.373,3.373,0,0,0,18.2,9.891,2.131,2.131,0,0,1,19.5,9.053c.289-.056.465-.019.447.354-.028.521,0,1.052-.009,1.583-.009.223.074.3.3.289.372-.009.745.009,1.117-.009.223-.009.3.074.289.3-.009.763-.009,1.517,0,2.281,0,.214-.056.326-.289.3a.7.7,0,0,0-.14,0c-.41.037-.978-.186-1.192.093-.2.261-.074.8-.074,1.22,0,2.532-.009,5.055.009,7.587,0,.354-.093.465-.447.438-.335-.028-.68,0-1.024-.009a1.633,1.633,0,0,1-1.666-1.722Q16.817,20.006,16.817,18.261Z" transform="translate(9.603 -9.033)" fill="#02b9ef"/>
      </g>
    </g>
  </g>
</svg>
