<svg xmlns="http://www.w3.org/2000/svg" xmlns:xlink="http://www.w3.org/1999/xlink" width="333" height="157" viewBox="0 0 333 157">
  <defs>
    <linearGradient id="linear-gradient" x1="0.5" y1="1" x2="0.5" gradientUnits="objectBoundingBox">
      <stop offset="0" stop-color="#fd9a11"/>
      <stop offset="1" stop-color="#fac935"/>
    </linearGradient>
    <linearGradient id="linear-gradient-2" x1="0.5" x2="0.5" y2="1" gradientUnits="objectBoundingBox">
      <stop offset="0" stop-color="#fafafa"/>
      <stop offset="1" stop-color="#c1c1c1"/>
    </linearGradient>
    <linearGradient id="linear-gradient-9" x1="0.785" y1="0.377" x2="0.068" y2="1" gradientUnits="objectBoundingBox">
      <stop offset="0" stop-color="#b31217"/>
      <stop offset="1" stop-color="#e52d27"/>
    </linearGradient>
    <linearGradient id="linear-gradient-10" x1="0.335" x2="0.88" y2="1" gradientUnits="objectBoundingBox">
      <stop offset="0" stop-color="#d1913c"/>
      <stop offset="1" stop-color="#ffd194"/>
    </linearGradient>
    <linearGradient id="linear-gradient-12" x1="1.039" y1="0.236" x2="0" y2="0.943" gradientUnits="objectBoundingBox">
      <stop offset="0" stop-color="#15569e"/>
      <stop offset="1" stop-color="#29abe2"/>
    </linearGradient>
    <linearGradient id="linear-gradient-14" x1="0.166" y1="0" x2="1" y2="1" xlink:href="#linear-gradient-12"/>
    <linearGradient id="linear-gradient-15" x1="0.005" y1="1" x2="0.699" y2="0.207" xlink:href="#linear-gradient-9"/>
  </defs>
  <g id="refer_friends" data-name="refer friends" transform="translate(-21 -171)">
    <rect id="back" width="333" height="157" transform="translate(21 171)" fill="none"/>
    <g id="giftbox" transform="translate(130.307 178.989)">
      <path id="Path_14615" data-name="Path 14615" d="M17.106,71.044a5.4,5.4,0,0,0-5.6,5.71l0,.053.528,5.367,5.85,59.633a5.487,5.487,0,0,0,5.6,4.76h78.6a5.484,5.484,0,0,0,5.611-4.823l5.055-59.57.455-5.367.011-.117a5.405,5.405,0,0,0-5.61-5.646Z" transform="translate(-4.253 -26.326)" fill="url(#linear-gradient)"/>
      <rect id="Rectangle_17623" data-name="Rectangle 17623" width="22.435" height="75.721" transform="translate(46.885 44.52)" fill="url(#linear-gradient-2)"/>
      <path id="Path_14616" data-name="Path 14616" d="M1.944,43.89A1.956,1.956,0,0,0,.108,45.281a2.14,2.14,0,0,0-.1.809L1.145,65.008a2,2,0,0,0,1.94,1.936H113.138a2,2,0,0,0,1.94-1.916l1.3-18.918c0-.045.005-.09.005-.135v-.031a2.185,2.185,0,0,0-.106-.663,1.958,1.958,0,0,0-1.837-1.391Z" transform="translate(0 -16.264)" fill="url(#linear-gradient)"/>
      <path id="Path_14617" data-name="Path 14617" d="M43.195,12.937C40.688,10.206,39.773,7.578,40.8,6.08a3.155,3.155,0,0,1,2.7-1.707c.043,0,.087,0,.131,0,1.7.06,5.581,1.467,12.5,10.223,2.316,2.929,4.317,5.875,5.645,7.925-8.963-1.993-15.359-6.068-18.587-9.586m31.04,1.7C79.3,8.217,83.868,4.476,86.766,4.375c.042,0,.086,0,.131,0A3.153,3.153,0,0,1,89.6,6.08c1.03,1.5.113,4.127-2.393,6.857-3.227,3.518-9.623,7.592-18.586,9.586,1.319-2.038,3.309-4.968,5.617-7.889M86.843,0c-.078,0-.154,0-.23.005-4.429.154-9.6,4.054-15.81,11.92-2.28,2.889-4.237,5.738-5.6,7.831-1.365-2.093-3.323-4.942-5.6-7.831C53.387,4.059,48.215.159,43.787.005A7.454,7.454,0,0,0,37.2,3.6c-2.279,3.317-1.244,7.913,2.775,12.29a33.7,33.7,0,0,0,10.634,7.465,71.129,71.129,0,0,1-27.12-9.218,2.184,2.184,0,0,0-2.979.823,1.976,1.976,0,0,0-.157.346,2.185,2.185,0,0,0,.978,2.633c14.087,8,26.548,10.172,35.921,10.172a58.519,58.519,0,0,0,6.846-.4q.555-.066,1.1-.143.549.077,1.1.143a58.538,58.538,0,0,0,6.847.4c9.373,0,21.834-2.17,35.921-10.172a2.183,2.183,0,0,0,.908-2.8,1.879,1.879,0,0,0-.088-.174,2.184,2.184,0,0,0-2.979-.823,71.149,71.149,0,0,1-27.121,9.218,33.725,33.725,0,0,0,10.634-7.465C94.445,11.516,95.481,6.921,93.2,3.6A7.483,7.483,0,0,0,86.908,0Z" transform="translate(-7.494)" fill="url(#linear-gradient-2)"/>
      <path id="Path_14618" data-name="Path 14618" d="M66.3,36.431c-18.2.67-35.325-6.493-45.952-12.209a2.185,2.185,0,0,0,.978,2.633c14.087,8,26.548,10.172,35.921,10.172a58.518,58.518,0,0,0,6.846-.4q.555-.066,1.1-.143.549.077,1.1.143a58.538,58.538,0,0,0,6.847.4c9.373,0,21.834-2.17,35.921-10.172a2.183,2.183,0,0,0,.908-2.8c-4.794,3.181-19.537,11.492-43.676,12.38" transform="translate(-7.494 -8.912)" fill="url(#linear-gradient-2)"/>
      <rect id="Rectangle_17628" data-name="Rectangle 17628" width="25.241" height="23.054" transform="translate(45.583 27.626)" fill="url(#linear-gradient-2)"/>
      <path id="Path_14619" data-name="Path 14619" d="M116.343,45.281H.171A1.956,1.956,0,0,1,2.008,43.89h112.5a1.958,1.958,0,0,1,1.837,1.391" transform="translate(-0.064 -16.264)" fill="url(#linear-gradient)"/>
      <rect id="Rectangle_17630" data-name="Rectangle 17630" width="25.241" height="1.402" transform="translate(45.582 27.615)" fill="url(#linear-gradient-2)"/>
    </g>
    <g id="design">
      <path id="Path_14615-2" data-name="Path 14615" d="M2.185,0a6.337,6.337,0,0,0-1.024.08,1.4,1.4,0,0,0,.448,2.758c.208-.031,5.137-.685,7.175,6.011,2.715,8.918,9.1,9.021,9.367,9.021a1.4,1.4,0,0,0,0-2.794c-.046,0-4.577-.08-6.695-7.04C9.51,1.641,5.04.011,2.224,0Z" transform="translate(292.402 301.862)" fill="url(#linear-gradient-9)"/>
      <path id="Union_11" data-name="Union 11" d="M-5140.787,12547.809v-3.833h-3.83a1.38,1.38,0,0,1-1.382-1.38,1.38,1.38,0,0,1,1.382-1.382h3.83v-3.833a1.382,1.382,0,0,1,1.382-1.38,1.382,1.382,0,0,1,1.383,1.38v3.833h3.83a1.382,1.382,0,0,1,1.383,1.382,1.382,1.382,0,0,1-1.383,1.38h-3.83v3.833a1.383,1.383,0,0,1-1.383,1.383A1.382,1.382,0,0,1-5140.787,12547.809Z" transform="matrix(0.951, -0.309, 0.309, 0.951, 1130.584, -13221.613)" fill="url(#linear-gradient-10)"/>
      <path id="Path_14620" data-name="Path 14620" d="M5.488,3.189,9.059,8.336l-6.243.52ZM5.285,0,5.223,0a1.066,1.066,0,0,0-.875.608L.1,9.617a1.066,1.066,0,0,0,.964,1.52c.029,0,.059,0,.089,0l9.921-.826a1.065,1.065,0,0,0,.786-1.669L6.186.459A1.066,1.066,0,0,0,5.342,0Z" transform="translate(240.672 308.868) rotate(-43)" fill="url(#linear-gradient-9)"/>
      <path id="Path_14621" data-name="Path 14621" d="M2.432,7.836a5.4,5.4,0,1,1,5.4,5.4,5.409,5.409,0,0,1-5.4-5.4M7.835,0a7.835,7.835,0,1,0,7.836,7.836A7.844,7.844,0,0,0,7.835,0Z" transform="translate(284.567 265.639)" fill="url(#linear-gradient-12)"/>
      <path id="Path_14622" data-name="Path 14622" d="M8.217,4.074,10.6,2.819l-.455,2.658a1,1,0,0,0,.286.883l1.932,1.882L9.7,8.631a1,1,0,0,0-.75.545L7.752,11.595,6.558,9.175a1,1,0,0,0-.75-.545l-2.67-.389L5.071,6.36a1,1,0,0,0,.287-.883L4.9,2.819,7.289,4.074a1,1,0,0,0,.928,0M11.463.115,7.752,2.066,4.041.115A1,1,0,0,0,2.594,1.165L3.3,5.3.3,8.225a1,1,0,0,0,.553,1.7l4.149.6,1.856,3.759a1,1,0,0,0,1.788,0L10.5,10.528l4.15-.6a1,1,0,0,0,.553-1.7L12.2,5.3l.708-4.133A1,1,0,0,0,11.463.115" transform="matrix(0.454, 0.891, -0.891, 0.454, 266.622, 281.31)" fill="url(#linear-gradient-10)"/>
      <path id="Path_14623" data-name="Path 14623" d="M.177.629a1.271,1.271,0,0,0,.45,1.744c.222.139,2.128,1.448.764,4.683-2.213,5.242.818,7.848.947,7.957a1.278,1.278,0,0,0,2.1-.964v-.037a1.271,1.271,0,0,0-.46-.962c-.017-.015-1.689-1.54-.229-5a8.07,8.07,0,0,0,.689-3.111V4.888A5.493,5.493,0,0,0,1.933.176,1.287,1.287,0,0,0,.177.629" transform="matrix(0.819, -0.574, 0.574, 0.819, 95.511, 266.471)" fill="url(#linear-gradient-14)"/>
      <path id="Path_14624" data-name="Path 14624" d="M4.8,2.792,7.93,7.3l-5.465.456ZM4.627,0,4.572,0a.933.933,0,0,0-.766.532L.089,8.418a.933.933,0,0,0,.844,1.33c.026,0,.051,0,.078,0L9.7,9.023a.933.933,0,0,0,.688-1.461L5.416.4A.933.933,0,0,0,4.677,0Z" transform="translate(91.271 305.891) rotate(8)" fill="url(#linear-gradient-15)"/>
    </g>
  </g>
</svg>
