<?xml version="1.0" encoding="UTF-8" standalone="no"?>
<!DOCTYPE svg PUBLIC "-//W3C//DTD SVG 1.1//EN" "http://www.w3.org/Graphics/SVG/1.1/DTD/svg11.dtd">
<svg xmlns="http://www.w3.org/2000/svg" version="1.1" viewBox="0 0 512 512">
<path fill="#000000" d="
  M 504.46 255.99
  A 248.46 248.46 0.0 0 1 256.00 504.45
  A 248.46 248.46 0.0 0 1 7.54 255.99
  A 248.46 248.46 0.0 0 1 256.00 7.53
  A 248.46 248.46 0.0 0 1 504.46 255.99
  Z
  M 114.44 103.19
  C 33.50 178.39 24.77 302.45 94.87 388.18
  A 0.40 0.39 -41.7 0 0 95.45 388.21
  L 139.43 344.19
  A 0.40 0.39 48.5 0 1 140.03 344.23
  Q 152.02 359.75 167.62 371.64
  A 0.71 0.71 0.0 0 1 167.69 372.70
  L 123.78 416.57
  A 0.41 0.41 0.0 0 0 123.81 417.17
  C 224.82 498.83 375.29 471.53 438.46 356.77
  C 479.79 281.69 471.28 190.34 417.17 123.83
  A 0.41 0.41 0.0 0 0 416.56 123.80
  L 372.83 167.55
  Q 372.30 168.08 371.84 167.49
  Q 359.80 152.14 344.36 140.22
  A 0.60 0.59 41.4 0 1 344.30 139.32
  L 388.07 95.57
  A 0.62 0.61 42.0 0 0 388.02 94.66
  C 306.67 29.26 191.26 31.80 114.44 103.19
  Z"
/>
<path fill="#000000" d="
  M 373.67 255.98
  A 117.66 117.66 0.0 0 1 256.01 373.64
  A 117.66 117.66 0.0 0 1 138.35 255.98
  A 117.66 117.66 0.0 0 1 256.01 138.32
  A 117.66 117.66 0.0 0 1 373.67 255.98
  Z
  M 228.57 289.09
  C 230.12 293.70 231.72 299.77 235.30 302.68
  C 245.12 310.69 257.07 300.15 252.95 288.61
  Q 240.65 254.13 228.15 219.72
  Q 226.13 214.17 224.34 211.99
  C 218.90 205.34 207.75 205.15 202.08 211.14
  Q 199.59 213.78 197.10 220.60
  Q 184.58 254.95 172.33 289.41
  C 168.09 301.34 182.40 310.69 191.12 301.77
  C 194.12 298.71 195.39 293.43 197.02 289.15
  Q 197.27 288.50 197.96 288.50
  L 227.75 288.50
  Q 228.37 288.50 228.57 289.09
  Z
  M 266.77 292.21
  C 266.79 308.31 283.98 305.61 295.09 305.17
  Q 303.24 304.84 307.46 303.78
  C 352.33 292.49 351.76 216.80 305.07 207.53
  C 297.96 206.12 288.58 206.79 280.63 206.77
  C 269.80 206.75 266.76 211.93 266.75 222.45
  Q 266.73 257.34 266.77 292.21
  Z"
/>
<path fill="#000000" d="
  M 298.00 230.08
  C 320.82 230.06 322.26 267.21 308.45 278.08
  C 303.21 282.20 297.08 282.34 290.35 281.91
  Q 289.75 281.87 289.75 281.27
  L 289.75 230.32
  A 0.49 0.48 1.7 0 1 290.27 229.84
  Q 294.14 230.08 298.00 230.08
  Z"
/>
<path fill="#000000" d="
  M 205.64 265.07
  L 212.43 246.12
  A 0.33 0.33 0.0 0 1 213.05 246.12
  L 219.91 265.04
  A 0.33 0.33 0.0 0 1 219.60 265.48
  L 205.95 265.51
  A 0.33 0.33 0.0 0 1 205.64 265.07
  Z"
/>
</svg>
