<svg xmlns="http://www.w3.org/2000/svg" width="150.009" height="66.521" viewBox="0 0 150.009 66.521">
  <g id="desing" transform="translate(0 0)">
    <path id="Path_17135" data-name="Path 17135" d="M150,1.261v55.26a10,10,0,0,1-10,10H10a10,10,0,0,1-10-10V42.741c25.92-18,33.75-21.47,56.96-31.64,36.5-15.97,90.82-10.09,93.04-9.84" fill="#fdedf3"/>
    <g id="doodle">
      <path id="Path_17136" data-name="Path 17136" d="M91.531,61.923c.561.274,1.848-.365,3.465-1.72.87-.729,1.427-1.338,1.346-1.469s-.232-.07-2.155.833C91.5,60.827,91.224,61,91.226,61.4a.727.727,0,0,0,.305.523" fill="#f4a0bd"/>
      <path id="Path_17137" data-name="Path 17137" d="M141.384,24.815a6.2,6.2,0,0,0-1.8-6,5.2,5.2,0,0,0-1.518-1.124,6.858,6.858,0,0,0-2.649-1.1,5.788,5.788,0,0,0-4.719,1.278,4.132,4.132,0,0,0-.838,1.006,3.437,3.437,0,0,0-.707,1.792c-.056.707.309,1.658.643,1.676.209.009.294-.174.274-.586a2.868,2.868,0,0,1,.559-1.778,3.188,3.188,0,0,1,1.469-1.261,4.866,4.866,0,0,1,3.949.129,7.758,7.758,0,0,1,1.977,1.3,4.43,4.43,0,0,1,1.255,3.372,3.1,3.1,0,0,1-1.466,2.492,2.4,2.4,0,0,1-2.392.242,2.766,2.766,0,0,1-1.273-.923,3.537,3.537,0,0,1-.456-1.881,1.821,1.821,0,0,1,.721-1.358,1.409,1.409,0,0,1,1.589.154c.218.194.234.417.064.94-.148.457-.128.657.081.782s.406.044.686-.271a1.562,1.562,0,0,0,.427-1.037,1.5,1.5,0,0,0-.977-1.54,2.7,2.7,0,0,0-2.649.029,2.914,2.914,0,0,0-1.043,1.487,4.817,4.817,0,0,0,.093,2.847,4.452,4.452,0,0,0,1.819,2.178,3.9,3.9,0,0,0,1.788.579,4.476,4.476,0,0,0,3.543-1.043,6.764,6.764,0,0,0,1.553-2.389" fill="#f4a0bd"/>
      <path id="Path_17138" data-name="Path 17138" d="M103.4,3.25a.748.748,0,0,0-.239.808.671.671,0,0,0,.7.487.712.712,0,0,0,0-1.424.726.726,0,0,0-.456.129" fill="#f4a0bd"/>
      <path id="Path_17139" data-name="Path 17139" d="M142.641,3.393a15.137,15.137,0,0,0-3.478,3.993,10.675,10.675,0,0,0-1.406,3.052c.091.146.246,0,1.048-.994a42.911,42.911,0,0,1,3.5-3.809l1.444-1.461v-.29c0-.548-.53-.784-1.1-.492" fill="#f4a0bd"/>
      <path id="Path_17140" data-name="Path 17140" d="M15.841,23.732a.867.867,0,0,0-.363.916,2.7,2.7,0,0,0,.4,1.129c1.151,2.274,3.59,4.384,5.269,4.559.556.059.523-.072-.2-.83a16.113,16.113,0,0,1-2.057-2.7c-.728-1.146-1.663-2.526-1.887-2.78a.891.891,0,0,0-1.153-.295" fill="#f4a0bd"/>
      <path id="Path_17141" data-name="Path 17141" d="M121.641,10.365c-.567.152-.8.621-.456.937.138.129.259.157.888.2a17.213,17.213,0,0,1,5.4,1c.635.227.851.226.662-.007a8.091,8.091,0,0,0-1.833-1.224,7.825,7.825,0,0,0-4.66-.9" fill="#f4a0bd"/>
      <path id="Path_17142" data-name="Path 17142" d="M14.34,31.365c-.567.152-.8.621-.456.937.138.129.259.157.888.2a17.213,17.213,0,0,1,5.4,1c.635.227.851.226.662-.007A8.091,8.091,0,0,0,19,32.271a7.825,7.825,0,0,0-4.66-.9" fill="#f4a0bd"/>
      <path id="Path_17143" data-name="Path 17143" d="M56.271,43.965a1.3,1.3,0,0,0-.7.8,1.059,1.059,0,0,0,2.084.378,1.1,1.1,0,0,0,.016-.236A1.3,1.3,0,0,0,57.2,44.1a1.254,1.254,0,0,0-.924-.136" fill="#f4a0bd"/>
      <path id="Path_17144" data-name="Path 17144" d="M142.347,29.273c-.083.134.134.238,1.268.611a23.763,23.763,0,0,1,4.148,1.81,6.72,6.72,0,0,0,1.627.742.625.625,0,0,0,.543-.924c-.34-.813-2.929-1.915-5.191-2.212a8.614,8.614,0,0,0-2.4-.027" fill="#f4a0bd"/>
      <path id="Path_17145" data-name="Path 17145" d="M144.416,44.83a.442.442,0,0,0-.089.574.6.6,0,0,0,.489.3c.162,0,.481-.364.481-.548a.562.562,0,0,0-.518-.487.518.518,0,0,0-.364.16" fill="#f4a0bd"/>
      <path id="Path_17146" data-name="Path 17146" d="M143.477,48.97a10.685,10.685,0,0,0-3.7,2.262c-1.134,1.092-1.507,1.588-1.263,1.684a6.861,6.861,0,0,0,1.146-.465c.588-.274,1.874-.825,2.866-1.23s1.888-.785,2-.847a.8.8,0,0,0,.456-.724c-.027-.662-.592-.917-1.5-.679" fill="#f4a0bd"/>
      <path id="Path_17147" data-name="Path 17147" d="M136.227,57.134c-.125.125.019.287.579.654a10.389,10.389,0,0,1,2.41,2.292c1,1.159,1.2,1.316,1.621,1.249a.807.807,0,0,0,.625-.953,5.372,5.372,0,0,0-1.963-2.252,5.922,5.922,0,0,0-1.9-.841,4.311,4.311,0,0,0-1.375-.149" fill="#f4a0bd"/>
      <path id="Path_17148" data-name="Path 17148" d="M131.674,38.575a3.408,3.408,0,0,0-.879,2.62,3.128,3.128,0,0,0,5.075,2.034c.585-.535.769-1.321.321-1.371-.107-.012-.169.057-.386.422a1.7,1.7,0,0,1-1.325.925,2.966,2.966,0,0,1-1.664-.354,2.341,2.341,0,0,1-1.008-2.575,2.3,2.3,0,0,1,1.849-1.706,1.4,1.4,0,0,1,1.381,2.012.941.941,0,0,1-.463.585.681.681,0,0,1-.916-.017c-.343-.216-.413-.416-.238-.68.164-.244.288-.27.675-.133.519.181.586-.122.109-.493a.848.848,0,0,0-1.1-.131,1.016,1.016,0,0,0-.5.775.925.925,0,0,0,.15.8,1.7,1.7,0,0,0,1.068.634,2.134,2.134,0,0,0,.609-.1,1.793,1.793,0,0,0,1.02-.861,2.683,2.683,0,0,0,.183-1.121,3.213,3.213,0,0,0-.527-1.284,2.277,2.277,0,0,0-2.687-.473,1.776,1.776,0,0,0-.745.493" fill="#f4a0bd"/>
      <path id="Path_17149" data-name="Path 17149" d="M44.023,31.966a3.409,3.409,0,0,0-2.177,1.7A3.127,3.127,0,0,0,44.96,38.16c.783-.124,1.37-.678,1.023-.967-.083-.069-.173-.046-.555.14a1.7,1.7,0,0,1-1.615.041,2.957,2.957,0,0,1-1.194-1.211,2.34,2.34,0,0,1,.578-2.7,1.978,1.978,0,0,1,1.14-.566,1.956,1.956,0,0,1,1.344.161,1.4,1.4,0,0,1,.043,2.44.943.943,0,0,1-.709.233c-.425-.006-.567-.1-.755-.519-.167-.37-.116-.575.176-.7.271-.114.389-.066.637.26.333.438.556.222.362-.351-.169-.5-.424-.715-.846-.715a1.013,1.013,0,0,0-.846.37.926.926,0,0,0-.312.746,1.7,1.7,0,0,0,.542,1.117,2.065,2.065,0,0,0,.561.256,1.8,1.8,0,0,0,1.325-.156,2.7,2.7,0,0,0,.771-.834,3.221,3.221,0,0,0,.268-1.362,2.275,2.275,0,0,0-1.981-1.876,1.759,1.759,0,0,0-.894,0" fill="#f4a0bd"/>
      <path id="Path_17150" data-name="Path 17150" d="M13.735,57.073a3.409,3.409,0,0,0-2.177,1.7,3.127,3.127,0,0,0,3.114,4.494c.783-.124,1.37-.678,1.023-.967-.083-.069-.173-.046-.555.14a1.7,1.7,0,0,1-1.615.041,2.957,2.957,0,0,1-1.194-1.211,2.34,2.34,0,0,1,.578-2.7,1.983,1.983,0,0,1,1.14-.565,1.955,1.955,0,0,1,1.344.16,1.4,1.4,0,0,1,.043,2.44.948.948,0,0,1-.709.234c-.425-.007-.567-.1-.755-.52-.167-.37-.116-.575.176-.7.271-.114.389-.066.637.26.333.438.556.223.362-.351-.169-.5-.424-.715-.846-.715a1.013,1.013,0,0,0-.846.37.927.927,0,0,0-.312.746,1.7,1.7,0,0,0,.542,1.117,2.065,2.065,0,0,0,.561.256,1.8,1.8,0,0,0,1.325-.156,2.691,2.691,0,0,0,.771-.833,3.227,3.227,0,0,0,.268-1.362,2.275,2.275,0,0,0-1.981-1.876,1.759,1.759,0,0,0-.894,0" fill="#f4a0bd"/>
      <path id="Path_17151" data-name="Path 17151" d="M65.477,52.731a10.627,10.627,0,0,0-5.566,2.849c-.678.67-.847.991-.789,1.5a.763.763,0,0,0,1.165.576,5.616,5.616,0,0,0,.789-.562c1.048-.856,3.22-2.511,4-3.051,1.313-.906,1.566-1.109,1.566-1.248,0-.111-.046-.132-.324-.139a5.511,5.511,0,0,0-.841.075" fill="#f4a0bd"/>
      <path id="Path_17152" data-name="Path 17152" d="M115.74,63.363a.622.622,0,0,0-.427.478.546.546,0,0,0,.4.662.552.552,0,0,0,.14.016.6.6,0,0,0,.3-1.137,1.932,1.932,0,0,0-.234-.087c-.01,0-.092.033-.179.067" fill="#f4a0bd"/>
      <path id="Path_17153" data-name="Path 17153" d="M76.709,55.61a6.741,6.741,0,0,0,.188,1.083c.124.56.271,1.3.327,1.637a23.776,23.776,0,0,0,.611,2.877.875.875,0,0,0,.741.6.808.808,0,0,0,.843-.463c.373-.787-.21-2.761-1.29-4.37-.716-1.066-1.274-1.6-1.42-1.361" fill="#f4a0bd"/>
      <path id="Path_17154" data-name="Path 17154" d="M63.522,32.292a4.41,4.41,0,0,0-3.347,3.948,3.347,3.347,0,0,0,1.313,2.916c.259.16.6.145.7-.031.058-.1.039-.14-.121-.257A2.774,2.774,0,0,1,60.8,36.511a3.531,3.531,0,0,1,3.832-3.2c.112.01.224.025.335.046a2.293,2.293,0,0,1,1.109.57,1.617,1.617,0,0,1,.192,2.277l-.04.045a2.134,2.134,0,0,1-1.138.677,1.286,1.286,0,0,1-1.373-.831.877.877,0,0,1,.127-.734c.121-.146.439-.112.654.069.318.269.7.2.7-.129s-.6-.763-1.079-.756c-.668.01-1.122.565-1.122,1.373a2.023,2.023,0,0,0,2.052,1.995.843.843,0,0,0,.087,0,2.638,2.638,0,0,0,2.61-1.6,1.841,1.841,0,0,0,.2-1.1,1.887,1.887,0,0,0-.207-1.116,3.585,3.585,0,0,0-1.18-1.34,4.149,4.149,0,0,0-3.045-.456" fill="#f4a0bd"/>
      <path id="Path_17155" data-name="Path 17155" d="M49.318,51.9a10.62,10.62,0,0,1-6.189.887c-.94-.156-1.264-.321-1.51-.77a.765.765,0,0,1,.618-1.144,5.6,5.6,0,0,1,.969,0c1.349.093,4.079.192,5.027.182,1.6-.017,1.919,0,2,.116.064.091.038.133-.184.3a5.533,5.533,0,0,1-.73.425" fill="#f4a0bd"/>
      <path id="Path_17156" data-name="Path 17156" d="M71.3,54.834a1.365,1.365,0,1,0,1.328,1.328A1.365,1.365,0,0,0,71.3,54.834" fill="#f4a0bd"/>
      <path id="Path_17157" data-name="Path 17157" d="M53.515,28.438a1.365,1.365,0,1,0,1.328,1.328,1.365,1.365,0,0,0-1.328-1.328" fill="#f4a0bd"/>
      <path id="Path_17158" data-name="Path 17158" d="M62.619,10.411a1.365,1.365,0,1,0,1.328,1.329,1.366,1.366,0,0,0-1.328-1.329" fill="#f4a0bd"/>
      <path id="Path_17159" data-name="Path 17159" d="M35.253,20.967A1.365,1.365,0,1,0,36.581,22.3a1.366,1.366,0,0,0-1.328-1.329" fill="#f4a0bd"/>
      <path id="Path_17160" data-name="Path 17160" d="M69.984,63.974a.546.546,0,1,0,.543.543.546.546,0,0,0-.543-.543" fill="#f4a0bd"/>
      <path id="Path_17161" data-name="Path 17161" d="M82.979,55.61a.546.546,0,1,0,.543.543.548.548,0,0,0-.543-.543" fill="#f4a0bd"/>
      <path id="Path_17162" data-name="Path 17162" d="M99.373,60.486a.546.546,0,1,0,.543.543.547.547,0,0,0-.543-.543" fill="#f4a0bd"/>
      <path id="Path_17163" data-name="Path 17163" d="M38.805,46.483a.683.683,0,1,0,.656.656.682.682,0,0,0-.656-.656" fill="#f4a0bd"/>
      <path id="Path_17164" data-name="Path 17164" d="M53.592,8.757a.683.683,0,1,0,.656.656.682.682,0,0,0-.656-.656" fill="#f4a0bd"/>
      <path id="Path_17165" data-name="Path 17165" d="M86.818,3.077a.684.684,0,1,0,.656.657.684.684,0,0,0-.656-.657" fill="#f4a0bd"/>
      <path id="Path_17166" data-name="Path 17166" d="M67.176,16.3a1.229,1.229,0,1,0,1.178,1.178A1.229,1.229,0,0,0,67.176,16.3" fill="#f4a0bd"/>
      <path id="Path_17167" data-name="Path 17167" d="M30.627,40.185a1.23,1.23,0,1,0,1.178,1.179,1.229,1.229,0,0,0-1.178-1.179" fill="#f4a0bd"/>
      <path id="Path_17168" data-name="Path 17168" d="M141.72,38.587a1.229,1.229,0,1,0,1.178,1.178,1.228,1.228,0,0,0-1.178-1.178" fill="#f4a0bd"/>
      <path id="Path_17169" data-name="Path 17169" d="M35.668,60.115a1.229,1.229,0,1,0,1.178,1.178,1.228,1.228,0,0,0-1.178-1.178" fill="#f4a0bd"/>
      <path id="Path_17170" data-name="Path 17170" d="M54.522,5.364a.547.547,0,1,0,.544.545.547.547,0,0,0-.544-.545" fill="#f4a0bd"/>
      <path id="Path_17171" data-name="Path 17171" d="M133.613,12.83a.683.683,0,1,0,.656.656.683.683,0,0,0-.656-.656" fill="#f4a0bd"/>
      <path id="Path_17172" data-name="Path 17172" d="M131.235,52.893a14.339,14.339,0,0,1,.391,2.329c-.077,1.247-1.431-.187-1.944-.382-.609-.232-1.5-.4-1.821.262a4.133,4.133,0,0,0,.077,2.249c.077.509.387,1.739-.2,2.078-.606.353-1.6-.639-2.143.039a3.216,3.216,0,0,0-.031,2.427c.169.5.738,1.737,1.466,1.415a.936.936,0,0,0,.353-.385.633.633,0,0,0,.091-.259c.08-.618-.979-1.634-.289-2.12s1.53.575,2.276.515c.827-.066.924-1.176.7-1.839-.146-.441-1.067-1.41-.833-1.953.311-.721,1.6.143,2.019.249.653.166,1.645.26,1.841-.57s-.307-1.641-.371-2.462c-.024-.305-.038-.649.245-.839.333-.224.677.118,1,.256.346.148.726.326.991-.045a.734.734,0,0,0-.026-.882c-.686-.927-4.015-2.147-3.8-.086" fill="#f4a0bd"/>
      <path id="Path_17173" data-name="Path 17173" d="M54.33,20.535a11.747,11.747,0,0,1-1.934.227c-1.023-.116.213-1.17.4-1.585.216-.492.391-1.222-.141-1.51a3.409,3.409,0,0,0-1.855-.029c-.422.042-1.448.247-1.7-.247-.266-.513.592-1.294.056-1.766a2.648,2.648,0,0,0-2-.125c-.422.118-1.46.535-1.225,1.149a.781.781,0,0,0,.3.306.507.507,0,0,0,.21.085c.505.091,1.386-.739,1.757-.151s-.536,1.236-.518,1.853c.021.684.93.809,1.485.656.369-.1,1.205-.82,1.642-.606.581.287-.184,1.314-.288,1.652-.163.532-.282,1.344.394,1.54s1.364-.185,2.042-.2c.252-.007.536,0,.681.237.17.283-.125.552-.252.812-.136.278-.3.584,0,.818a.6.6,0,0,0,.727.014c.791-.527,1.933-3.217.227-3.126" fill="#f4a0bd"/>
      <path id="Path_17174" data-name="Path 17174" d="M116.227,43.138l-.138-.1a.137.137,0,0,1,.138.1" fill="#f4a0bd"/>
      <path id="Path_17175" data-name="Path 17175" d="M84.778,10.311a2.209,2.209,0,0,1,1.467-2.473,2.736,2.736,0,0,1,3.034,1.3,2.68,2.68,0,0,1,5.008,1.3A4.126,4.126,0,0,1,96.772,9.23a2.323,2.323,0,0,1,2.3,1.3,2.515,2.515,0,0,1-.514,2.44A7.413,7.413,0,0,1,96.5,14.557l5.617-.009a2.212,2.212,0,0,1,2.763,2.85l-.634,6.793a1.144,1.144,0,0,0,.094.735,1.227,1.227,0,0,0,.555.388A8.517,8.517,0,0,1,109.21,30a10.709,10.709,0,0,1,1.823-4.264,3.656,3.656,0,0,1,4.163-1.24c1.584.756,2.021,2.939,1.4,4.582a10.708,10.708,0,0,1-3.314,4.018l10.626.05a2.166,2.166,0,0,1,2.52,3.11l-3.459,17.426a2.184,2.184,0,0,1-2.564,2.338c-4.739.011-9.479.042-14.217.032a26.8,26.8,0,0,1-3.9-.076c-.918-.139-1.988-.518-2.243-1.521a1.57,1.57,0,0,0-.273-.773,1.054,1.054,0,0,0-.783-.2q-7.164.125-14.329-.015c-.788-.015-2.1.258-2.611-.5a7.01,7.01,0,0,1-.887-3.007l-.24-1.781-.24-1.781-.24-1.781-.24-1.781-.24-1.781-.24-1.781-.24-1.781-.24-1.781-.24-1.781-.24-1.781-.24-1.781-.24-1.781-.24-1.781-.24-1.781-.24-1.781-.24-1.781-.24-1.781c-.08-.591-.158-1.181-.239-1.772a5.517,5.517,0,0,1-.1-1.7,1.627,1.627,0,0,1,.056-.229c.37-1.182,1.846-1.6,3.084-1.543s2.516.4,3.688,0a2.031,2.031,0,0,1,1.335-3.757,1.607,1.607,0,0,1-.128-.362m4.241.013a1.393,1.393,0,0,0-.036-.375,2.033,2.033,0,0,0-.513-.838A2.216,2.216,0,0,0,87.4,8.354a1.915,1.915,0,0,0-1.28.239,1.544,1.544,0,0,0-.614.492,1.161,1.161,0,0,0-.1.993,2.026,2.026,0,0,0,.584.838,8.037,8.037,0,0,0,.827.617,15.952,15.952,0,0,1,1.272.987q.308.265.6.546c.056.054.19.24.271.237.1,0,.158-.182.169-.258a1.018,1.018,0,0,0-.039-.347,4.95,4.95,0,0,1-.164-1.537c.025-.277.088-.557.095-.832m6.779,3.74c.157-.049.313-.1.466-.164A3.935,3.935,0,0,0,98.3,12.228a1.816,1.816,0,0,0,.223-1.333,1.567,1.567,0,0,0-1.335-1.059,2.469,2.469,0,0,0-1.693.506,6.055,6.055,0,0,0-1.242,1.3,23.2,23.2,0,0,0-1.725,2.63.261.261,0,0,0-.044.123c0,.264.993.095,1.158.075a12.239,12.239,0,0,0,2.155-.405M89.588,10.81A5.54,5.54,0,0,0,89.779,13a4.288,4.288,0,0,0,.487,1.109c.077.122.2.37.349.408a2.491,2.491,0,0,0,.679.019.628.628,0,0,0,.292-.063,1.275,1.275,0,0,0,.379-.493c.147-.24.31-.473.464-.709l.947-1.452a1.318,1.318,0,0,0,.273-1.32A2.969,2.969,0,0,0,92.86,8.82a2.1,2.1,0,0,0-1.091-.431,1.8,1.8,0,0,0-.995.1,1.937,1.937,0,0,0-.894,1.12,4.906,4.906,0,0,0-.292,1.2m23.33,21.609.015-.008c.036-.02.073-.039.109-.061l.115-.068.114-.071.112-.073.111-.076.109-.078.107-.081.105-.083.1-.085.1-.088.1-.09.1-.092.1-.094.094-.1.092-.1.09-.1.089-.1.086-.1.084-.105.082-.107.08-.108.078-.11.076-.111.073-.113.071-.114.069-.115.067-.117c.022-.039.043-.079.064-.118s.042-.079.062-.119l.06-.12c.02-.04.038-.08.057-.121l.015-.033c.051-.111.1-.224.144-.338a4.532,4.532,0,0,0,.376-2.084,2.435,2.435,0,0,0-1-1.81,2.492,2.492,0,0,0-2.575.052,5.015,5.015,0,0,0-1.771,2.011,10.48,10.48,0,0,0-1.247,4.345,4.326,4.326,0,0,0,.053,1.153.49.49,0,0,0,.153.3.519.519,0,0,0,.3.075,5.479,5.479,0,0,0,1.488-.151l.151-.039.15-.044.148-.048.146-.052.145-.056.143-.06.141-.064.139-.068c.044-.022.087-.045.131-.069m-11.356-4.566a3.725,3.725,0,0,0,.682,2.9,5.972,5.972,0,0,0,2.634,1.7,9.154,9.154,0,0,0,.882.3,9.878,9.878,0,0,0,3.053.381h.031c.077,0,.166-.014.2-.08a.225.225,0,0,0,.022-.117,7.249,7.249,0,0,0-.5-2.7,9.909,9.909,0,0,0-1.073-1.955,6.032,6.032,0,0,0-2.2-2.113,2.757,2.757,0,0,0-2.909.181,2.5,2.5,0,0,0-.828,1.5m22.5,16.029a.1.1,0,0,0-.018-.06.165.165,0,0,0-.143-.045q-6.334.092-12.657.505a.257.257,0,0,0-.3.213.261.261,0,0,0,.016.138q.242,2.873.693,5.723.227,1.423.5,2.838c.133.676.084,2.072.982,2.072l7.23-.006a2.059,2.059,0,0,0,.98-.162,2.1,2.1,0,0,0,.822-1.547l.463-2.341c.479-2.419.958-4.838,1.416-7.262a.308.308,0,0,0,.007-.068M95.066,15.3h-.272a.361.361,0,0,0-.251.063.4.4,0,0,0-.079.3,1.9,1.9,0,0,1-.989,1.6,1.694,1.694,0,0,1-2.518-1.482c.01-.129.021-.289-.089-.356a.325.325,0,0,0-.15-.033c-3.087-.158-6.19-.136-9.279-.076a.528.528,0,0,0-.315.073.545.545,0,0,0-.156.382,3.885,3.885,0,0,1-.565,1.714,1.712,1.712,0,0,1-1.543.789,2.3,2.3,0,0,0-.838-.092c-1.072.273,1.153,11.018,1.336,12.363l.965,7.109c.105.775.323,5.646,1.148,5.594.255-.016.487-.164.742-.185a1.173,1.173,0,0,1,.97.555,2.57,2.57,0,0,1,.043,2.834,1.423,1.423,0,0,1-.918.635c-.584.111-.674-.177-.627.589.057.942.215,1.873.363,2.8.1.65.121,1.494.681,1.939a2.2,2.2,0,0,0,1.422.311c.993-.011,1.988-.041,2.979-.044a10.213,10.213,0,0,0,2.728.041c.676-.2.375-.208.261-.807a1.515,1.515,0,0,1,.217-1.166,2.524,2.524,0,0,1,.215-.3c.121-.14.253-.27.381-.4.819-.859,2.441-.687,3.45-.266.929.387,2.234,1.556,1.662,2.678-.027.052-.057.117-.025.166a.162.162,0,0,0,.141.05q1.139.017,2.277,0c.292,0,.789.137,1-.132.232-.3-.21-1.222-.293-1.53L98.06,46.99q-1.5-5.577-3.009-11.15a1.875,1.875,0,0,1,.438-2.181c.326-.241.75-.328,1.066-.581s.466-.6.846-.785a2.483,2.483,0,0,1,1.453-.065,1.93,1.93,0,0,1,1.266.536c.4.5,2.286.735,2.574.045.259-.621-.646-1.324-.955-1.767a4.631,4.631,0,0,1-.846-2.3,3.318,3.318,0,0,1,2.133-3.43.571.571,0,0,0,.262-.137.529.529,0,0,0,.1-.308c.228-2.589.475-5.179.709-7.769a2.644,2.644,0,0,0-.017-.865c-.218-.894-1.328-.944-2.073-.942l-6.933.011M111.6,33.9h-1.228a.261.261,0,0,0-.145.028c-.077.05-.081.158-.077.25q.158,3.568.464,7.128.051.587.1,1.174c.011.119-.015.361.071.453s.328.073.446.068l12.9-.5a.23.23,0,0,0,.27-.182.274.274,0,0,0,0-.05l1.273-6.451c.114-.578.189-1.277-.259-1.66a1.69,1.69,0,0,0-1.119-.27q-6.354-.013-12.707,0m-8.767-.007H97.572a3.167,3.167,0,0,0-1.144.141,1.074,1.074,0,0,0-.721.832,1.561,1.561,0,0,0,.077.555c.6,2.3,1.22,4.588,1.844,6.877q.221.812.444,1.622c.042.154.06.385.241.435a2.228,2.228,0,0,0,.761-.1q4.918-.762,9.9-1.039c.194-.011.43-.051.495-.233a.5.5,0,0,0,.013-.2l-.625-8.574a.407.407,0,0,0-.037-.168c-.069-.124-.238-.139-.379-.139Zm3.722,21.375h4.326a.459.459,0,0,0,.231-.041c.167-.1.147-.339.106-.527a77.386,77.386,0,0,1-1.483-9.672c-.018-.2-.056-.437-.234-.532a.607.607,0,0,0-.326-.043,94.057,94.057,0,0,0-10.212,1.086c-.12.02-.258.052-.31.162a.376.376,0,0,0,0,.252q.622,2.515,1.312,5.014.35,1.266.714,2.528c.2.695.3,1.459,1.092,1.691a3.283,3.283,0,0,0,.927.087h3.853M87.466,14.518c.431,0,.862.008,1.293.006A1.034,1.034,0,0,0,89,14.495a.111.111,0,0,0,.038-.1.822.822,0,0,0-.141-.2c-.377-.378-.759-.751-1.136-1.128a8.742,8.742,0,0,0-1.268-1.018,4.269,4.269,0,0,0-1.393-.638c-.068-.017-.136-.031-.2-.045a2.122,2.122,0,0,0-1.194.17.555.555,0,0,0-.235.188,1.423,1.423,0,0,0,.246,2l.037.028a3,3,0,0,0,1.152.562,6.194,6.194,0,0,0,1.579.213c.328-.009.657-.01.985-.009M103.347,32.8c.009.185.11.321.245.323.344.006.688,0,1.032,0,.014,0,.032-.018.04-.032a.068.068,0,0,0-.015-.1.046.046,0,0,0-.015-.009q-.468-.214-.939-.424a.669.669,0,0,0-.118-.025.2.2,0,0,0-.2.108c-.017.058-.024.118-.032.156" fill="#f4a0bd"/>
      <path id="Path_17176" data-name="Path 17176" d="M105.538,31.8a.289.289,0,0,1-.162.129.509.509,0,0,1-.387-.058,5.228,5.228,0,0,1-1.217-.942,4.753,4.753,0,0,1-.854-1.148,3.857,3.857,0,0,1-.428-1.366.668.668,0,0,1,.014-.285.254.254,0,0,1,.2-.182.265.265,0,0,1,.242.154.892.892,0,0,1,.075.292,4.056,4.056,0,0,0,1.542,2.535,5.137,5.137,0,0,0,.6.4,1.072,1.072,0,0,1,.361.284.165.165,0,0,1,.01.183" fill="#f4a0bd"/>
      <path id="Path_17177" data-name="Path 17177" d="M112.853,27.478a4.007,4.007,0,0,0-.28.467,6.806,6.806,0,0,0-.455,1.212.672.672,0,0,1-.157.318.239.239,0,0,1-.329.007.41.41,0,0,1-.046-.4,5.414,5.414,0,0,1,1.482-2.666,4.439,4.439,0,0,1,1.064-.732.688.688,0,0,1,.3-.089.258.258,0,0,1,.249.164.265.265,0,0,1-.083.253.889.889,0,0,1-.236.147,4.08,4.08,0,0,0-1.513,1.323" fill="#f4a0bd"/>
      <path id="Path_17178" data-name="Path 17178" d="M85.712,14.029a.2.2,0,0,1-.2.186,2.477,2.477,0,0,1-1.693-.883.522.522,0,0,1-.129-.273.238.238,0,0,1,.093-.212.232.232,0,0,1,.23.029.887.887,0,0,1,.121.138,1.643,1.643,0,0,0,.932.656c.173.06.351.108.526.164a.221.221,0,0,1,.123.2" fill="#f4a0bd"/>
      <path id="Path_17179" data-name="Path 17179" d="M90.492,11.333a.29.29,0,0,1-.078-.218A2.544,2.544,0,0,1,91,9.344a.5.5,0,0,1,.22-.165.2.2,0,0,1,.242.083.209.209,0,0,1-.008.181.765.765,0,0,1-.107.153,2.27,2.27,0,0,0-.479,1.322.76.76,0,0,1-.053.323.227.227,0,0,1-.256.126.153.153,0,0,1-.064-.034" fill="#f4a0bd"/>
      <path id="Path_17180" data-name="Path 17180" d="M97.214,10.6a.556.556,0,0,1,.108.02.3.3,0,0,1,.163.1.2.2,0,0,1-.063.276.18.18,0,0,1-.055.024.845.845,0,0,1-.2.033,1.982,1.982,0,0,0-1.126.508c-.117.107-.237.264-.4.3-.112.021-.271,0-.261-.151.012-.187.257-.4.387-.522a2.313,2.313,0,0,1,1.168-.569,1.068,1.068,0,0,1,.282-.016" fill="#f4a0bd"/>
      <path id="Path_17181" data-name="Path 17181" d="M86.839,10.858l.01.024a.277.277,0,0,1,0,.229c-.125.243-.389-.034-.468-.161a2.739,2.739,0,0,1-.317-.743,1.359,1.359,0,0,1-.051-.478.362.362,0,0,1,.047-.161.173.173,0,0,1,.138-.085.179.179,0,0,1,.145.094.549.549,0,0,1,.055.172,2.7,2.7,0,0,0,.325.931,1.556,1.556,0,0,1,.111.178" fill="#f4a0bd"/>
      <path id="Path_17182" data-name="Path 17182" d="M90.1,34.047a2.386,2.386,0,0,1-.235,1.083,2.075,2.075,0,0,1-1.2.958,2.1,2.1,0,0,1-2.914-1.94,2.463,2.463,0,0,1,1.054-1.762A2.354,2.354,0,0,1,89,32.043a1.711,1.711,0,0,1,.841.706,2.364,2.364,0,0,1,.269,1.148v.15" fill="#f4a0bd"/>
      <path id="Path_17183" data-name="Path 17183" d="M97.033,19.577a2.122,2.122,0,0,1,1.487.838,2.266,2.266,0,0,1,.488.811c.283.972-.754,1.475-1.472,1.8a3.948,3.948,0,0,1-1.2.391,1.8,1.8,0,0,1-1.857-1.74c0-.047,0-.094,0-.139a1.843,1.843,0,0,1,.267-1.086,2.371,2.371,0,0,1,1.61-.834,2.726,2.726,0,0,1,.675-.042" fill="#f4a0bd"/>
      <path id="Path_17184" data-name="Path 17184" d="M82.81,23.511a2.677,2.677,0,0,1,1.229.386,1.936,1.936,0,0,1,.586.471.9.9,0,0,1,.2.7,1.264,1.264,0,0,1-.45.664,4,4,0,0,1-1.314.814c-.847.3-2.276.251-2.253-.962a2.67,2.67,0,0,1,1.41-1.978,1.467,1.467,0,0,1,.589-.1" fill="#f4a0bd"/>
      <path id="Path_17185" data-name="Path 17185" d="M103.667,15.9a1.229,1.229,0,1,0,1.178,1.178,1.229,1.229,0,0,0-1.178-1.178" fill="#f4a0bd"/>
    </g>
  </g>
</svg>
