<svg id="points" xmlns="http://www.w3.org/2000/svg" width="19" height="19" viewBox="0 0 19 19">
  <rect id="back" width="19" height="19" fill="none"/>
  <path id="points-2" data-name="points" d="M18.994,9.5c0-1.235-.006-2.464,0-3.7a3.93,3.93,0,0,0-.741-2.356,6.655,6.655,0,0,0-2.54-2.084A12.871,12.871,0,0,0,11.178.089C10.6.032,10.026,0,9.456,0A14.972,14.972,0,0,0,5.079.64,9.049,9.049,0,0,0,1.6,2.5,4.329,4.329,0,0,0,0,5.472V13.56a3.807,3.807,0,0,0,.57,1.735,6.375,6.375,0,0,0,2.584,2.28A12.477,12.477,0,0,0,7.48,18.867a16.813,16.813,0,0,0,2.1.133,14.7,14.7,0,0,0,4.516-.7,8.713,8.713,0,0,0,3.477-1.963A4.291,4.291,0,0,0,19,13.148v-.133c-.032-1.172,0-2.343,0-3.515ZM9.912,2.413h1.273v5.44a.2.2,0,0,1-.133.222,4.492,4.492,0,0,0-.494.247A.129.129,0,0,1,10.38,8.3a1.827,1.827,0,0,0-.355-.215.176.176,0,0,1-.12-.2V2.413ZM9.487,8.8a.547.547,0,0,1,.557.545.551.551,0,1,1-1.1.013A.551.551,0,0,1,9.487,8.8ZM7.8,2.413H9.076V7.891a.18.18,0,0,1-.12.2A2.038,2.038,0,0,0,8.6,8.3a.134.134,0,0,1-.171.025c-.184-.1-.374-.184-.551-.285a.164.164,0,0,1-.082-.12v-5.5Zm-2.4.45a.456.456,0,0,1,.323-.45H6.973V7.568a1.366,1.366,0,0,1-.127-.057c-.241-.12-.481-.241-.716-.361a1.212,1.212,0,0,1-.716-1.127c-.006-1.058,0-2.115,0-3.167Zm7.936,9.418c-.507.494-1.007.988-1.514,1.476a.222.222,0,0,0-.076.228c.127.7.241,1.4.361,2.1a.4.4,0,0,1-.165.424.41.41,0,0,1-.469.013c-.6-.317-1.2-.627-1.792-.95a.335.335,0,0,0-.374,0c-.6.323-1.2.64-1.805.956a.421.421,0,0,1-.469-.019.409.409,0,0,1-.152-.456.925.925,0,0,0,.019-.139c.114-.659.228-1.317.336-1.976a.22.22,0,0,0-.063-.158c-.5-.494-1.013-.982-1.507-1.482a.552.552,0,0,1-.152-.279.4.4,0,0,1,.348-.462c.7-.1,1.406-.209,2.109-.3a.239.239,0,0,0,.215-.158c.108-.241.234-.481.355-.722a1.414,1.414,0,0,0,1.919,0c.12.247.247.488.361.741a.218.218,0,0,0,.2.139l2.09.3a.412.412,0,0,1,.361.279.431.431,0,0,1-.12.456Zm.241-6.346a1.281,1.281,0,0,1-.779,1.26c-.215.1-.431.215-.646.323-.038.019-.082.038-.139.063V2.419h1.248a.488.488,0,0,1,.323.532c-.006.994-.006,2,0,2.989Z" fill="#45536d"/>
</svg>
