<svg id="settings" xmlns="http://www.w3.org/2000/svg" width="18" height="18" viewBox="0 0 18 18">
  <rect id="Border" width="18" height="18" fill="none"/>
  <path id="Path_13729" data-name="Path 13729" d="M17.573,7.38a2.1,2.1,0,0,0-1.665-.84c-.094,0-.188,0-.281,0a.275.275,0,0,1-.3-.155c-.062-.139.009-.229.1-.327a4.549,4.549,0,0,0,.513-.619l.04-.069a1.985,1.985,0,0,0,.135-1.685,3.951,3.951,0,0,0-.263-.521,2.056,2.056,0,0,0-.152-.187l-.16-.173-.339-.339c-.109-.1-.221-.2-.339-.287a1.964,1.964,0,0,0-.2-.131,2.127,2.127,0,0,0-.739-.251,2.1,2.1,0,0,0-1.772.582,2.137,2.137,0,0,1-.237.232.247.247,0,0,1-.3.068.255.255,0,0,1-.155-.269c0-.011,0-.021,0-.032-.009-.1,0-.21,0-.315a2.453,2.453,0,0,0-.052-.418c-.008-.037-.018-.074-.028-.111a.006.006,0,0,0,0,0,1.756,1.756,0,0,0-.081-.224A2.086,2.086,0,0,0,9.9.075,2.167,2.167,0,0,0,9.462.008L9.243,0h-.5L8.636,0A2.317,2.317,0,0,0,7.9.143c-.032.012-.064.024-.1.038L7.757.2,7.706.227l-.05.025L7.609.278h0L7.566.3,7.53.324,7.5.342c-.027.017-.054.035-.08.053L7.415.4,7.38.427A2.325,2.325,0,0,0,6.923.9a2.226,2.226,0,0,0-.379,1.214,1.338,1.338,0,0,1-.007.315c0,.009,0,.018-.008.027h0a.339.339,0,0,1-.148.208.345.345,0,0,1-.267-.044.562.562,0,0,1-.122-.1,4.062,4.062,0,0,0-.616-.49,2.327,2.327,0,0,0-.435-.183L4.918,1.84a2.018,2.018,0,0,0-1.078,0l-.06.018-.037.012a2.307,2.307,0,0,0-.258.1l-.021.01a2.291,2.291,0,0,0-.563.4L2.776,2.5l-.449.449a2.489,2.489,0,0,0-.232.307,2.771,2.771,0,0,0-.244.559l0,.015a1.977,1.977,0,0,0-.043.2c0,.018-.005.035-.007.053a.02.02,0,0,0,0,0c0,.033-.007.067-.009.1,0,.016,0,.032,0,.049a2.384,2.384,0,0,0,0,.25c0,.016,0,.031,0,.046,0,.035.005.07.009.1,0,.017,0,.034.007.05s0,.029.006.043.006.038.01.057.007.038.012.057.006.027.009.04.008.032.012.048a.012.012,0,0,0,0,0c.008.031.017.061.027.091l.016.047c.011.031.023.063.035.093s.026.061.039.091.021.045.033.068l.022.043c.013.023.026.047.039.07l.036.059.017.026.028.043c.039.057.082.112.127.167q.034.041.071.081l.037.04.04.043a1.739,1.739,0,0,1,.154.152h0l0,0a.274.274,0,0,1,.105.324c-.052.135-.158.154-.281.162a6.006,6.006,0,0,0-.895.1,2.2,2.2,0,0,0-.659.317l-.024.018a2.079,2.079,0,0,0-.372.365l-.007.009a2.3,2.3,0,0,0-.4.854,2.05,2.05,0,0,0-.04.32C.006,8.6,0,8.686,0,8.769v.474a4.366,4.366,0,0,0,.036.435,2,2,0,0,0,.1.4s0,0,0,0a2.234,2.234,0,0,0,.1.235l.026.051.021.039a2.071,2.071,0,0,0,.755.762l.032.018a2.45,2.45,0,0,0,.371.164c.035.012.07.022.105.032h0a2.091,2.091,0,0,0,.45.072c.14.007.281.006.422.006a.249.249,0,0,1,.264.162.256.256,0,0,1-.081.3,2.457,2.457,0,0,0-.666.893,2.1,2.1,0,0,0,.2,2,1.109,1.109,0,0,1,.054.106l.895.9a2.627,2.627,0,0,0,1,.4,2.1,2.1,0,0,0,1.772-.582A1.8,1.8,0,0,1,6.1,15.38a.348.348,0,0,1,.266-.051.344.344,0,0,1,.158.22,1.491,1.491,0,0,1,.008.332,2.083,2.083,0,0,0,1.723,2.076,2.386,2.386,0,0,0,.367.037L8.8,18h.635a2.433,2.433,0,0,0,.407-.058,3.242,3.242,0,0,0,.4-.143l.006,0a2.114,2.114,0,0,0,1.208-1.859,1.828,1.828,0,0,1,.008-.368.448.448,0,0,1,.019-.06l.008-.019a.3.3,0,0,1,.13-.158.33.33,0,0,1,.267.044.861.861,0,0,1,.13.11,3.913,3.913,0,0,0,.608.483,2.342,2.342,0,0,0,.36.159,2.069,2.069,0,0,0,1.325-.015l.021-.007a2.449,2.449,0,0,0,.28-.125l.019-.01a2.167,2.167,0,0,0,.406-.29q.075-.068.149-.138l0,0,.353-.353.083-.087a2.307,2.307,0,0,0,.457-.706c.006-.015.013-.031.018-.047l.014-.037c.013-.035.024-.07.034-.1a2.037,2.037,0,0,0,.085-.582c0-.017,0-.033,0-.05a2.171,2.171,0,0,0-.625-1.447,1.324,1.324,0,0,1-.217-.228.374.374,0,0,1-.055-.279.347.347,0,0,1,.24-.154,6.756,6.756,0,0,0,.918-.106,2.046,2.046,0,0,0,1.471-1.615c.009-.038.024-.075.037-.113V8.367a2.619,2.619,0,0,0-.427-.987Zm-.98,1.972a.7.7,0,0,1-.707.7c-.129,0-.258,0-.386,0a1.66,1.66,0,0,0-1.179,2.766c.1.111.208.207.307.314a.778.778,0,0,1,.1.14.685.685,0,0,1-.1.829l-.027.029-.03.031-.011.011c-.126.134-.256.264-.39.391l-.064.06-.008.007a.7.7,0,0,1-.957,0c-.095-.087-.18-.185-.275-.272a1.917,1.917,0,0,0-.534-.357l0,0a1.656,1.656,0,0,0-.862-.1,1.9,1.9,0,0,0-.385.114,1.879,1.879,0,0,0-.362.2,1.588,1.588,0,0,0-.592.865,3.31,3.31,0,0,0-.07.765.916.916,0,0,1-.033.223c0,.012-.006.022-.01.034s0,.014-.007.021a.212.212,0,0,1-.009.025c0,.011-.009.022-.014.033s-.018.038-.027.055h0a.649.649,0,0,1-.108.145.311.311,0,0,1-.025.024.522.522,0,0,1-.053.044l-.029.02c-.019.012-.039.024-.059.034l-.04.019-.042.017-.027.009a.768.768,0,0,1-.2.038H9.318c-.188,0-.377,0-.566,0H8.738a1.026,1.026,0,0,1-.129,0,.686.686,0,0,1-.623-.457.777.777,0,0,1-.044-.233c-.006-.147.005-.294,0-.439a1.577,1.577,0,0,0-.9-1.386,1.563,1.563,0,0,0-1.68.108,4.336,4.336,0,0,0-.482.433.7.7,0,0,1-1,0c-.173-.167-.344-.336-.508-.51a.7.7,0,0,1,0-.957c.083-.091.173-.175.259-.262a1.614,1.614,0,0,0,.351-1.816,1.6,1.6,0,0,0-1.51-1.015c-.117,0-.234,0-.352,0A.8.8,0,0,1,1.85,10h0a.673.673,0,0,1-.256-.171l-.009-.009a.594.594,0,0,1-.144-.259l-.006-.021a.8.8,0,0,1-.028-.193Q1.4,9.073,1.4,8.8c0-.026,0-.053,0-.08s0-.064,0-.1a.708.708,0,0,1,.04-.215.7.7,0,0,1,.667-.469c.146,0,.294.007.439,0a2,2,0,0,0,.221-.03L2.812,7.9c.036-.007.071-.015.105-.025l.04-.011.078-.025.04-.015.047-.019.036-.015c.032-.014.064-.03.095-.046l.03-.016.009-.005L3.328,7.7l.035-.021.007,0c.024-.016.049-.033.072-.05L3.477,7.6l.033-.027.007-.006.03-.027.034-.031.033-.032q.033-.033.063-.069l.031-.036a1.675,1.675,0,0,0,.114-.156l.027-.043.021-.036L3.89,7.1c.03-.056.058-.115.084-.176s.045-.114.063-.171c.009-.028.017-.057.025-.085a1.609,1.609,0,0,0,.056-.413c0-.011,0-.022,0-.033a.034.034,0,0,0,0-.006,0,0,0,0,0,0,0,.052.052,0,0,0,0-.007s0-.009,0-.013,0-.016,0-.024,0-.008,0-.013,0-.027,0-.041,0-.031-.005-.046S4.1,6.029,4.1,6.01s0-.018,0-.026,0-.014,0-.02V5.957a1.644,1.644,0,0,0-.218-.526l0,0L3.847,5.4a2.031,2.031,0,0,0-.121-.163l-.006-.007c-.065-.077-.135-.149-.206-.221l0,0c-.044-.043-.088-.086-.13-.131a.691.691,0,0,1-.065-.912.781.781,0,0,1,.07-.084q.242-.254.5-.5h0l.021-.02.011-.009,0,0,0,0h0l.023-.019.017-.013.008-.006L4,3.289l.008-.006.021-.013.021-.012h0l.019-.011.022-.011a.38.38,0,0,1,.045-.019l.023-.008h0L4.182,3.2l.058-.015.027,0,.04-.006h.107l.024,0h.006a.367.367,0,0,1,.051.007l.019,0,.028.006.033.009.028.009h0l.032.012.032.014.031.015.031.017h0a.58.58,0,0,1,.06.039.694.694,0,0,1,.057.046l.028.025c.093.089.179.186.275.272a2.089,2.089,0,0,0,.215.169l.027.019.062.04c.037.022.073.043.111.062l.062.03.032.014L5.694,4l.033.013.06.022.065.02.032.009.064.015.032.007.065.011.053.007.046,0,.037,0c.035,0,.07,0,.105,0h.032l.071,0,.036,0L6.5,4.1l.072-.013.013,0,.1-.023.051-.014h0l.041-.013.048-.016h0L6.864,4,6.9,3.984l.006,0,.061-.025.065-.03.031-.015h0L7.087,3.9l.02-.011.02-.011.014-.008.008,0,.021-.012.01-.006.006,0,.04-.025h0l.01-.006.041-.027h0l.048-.035.036-.028.025-.02a1.566,1.566,0,0,0,.522-.943,4.354,4.354,0,0,0,.034-.647c0-.014,0-.029,0-.043s0-.018,0-.027,0-.021,0-.032,0-.017,0-.025,0-.017.005-.025.006-.026.01-.039a.709.709,0,0,1,.041-.11.564.564,0,0,1,.027-.052,0,0,0,0,1,0,0l.015-.024.012-.019.014-.019c.008-.012.017-.023.026-.034s.028-.032.043-.047.027-.026.041-.038L8.2,1.566a.6.6,0,0,1,.053-.04l.028-.018.029-.017.037-.018.023-.01a.568.568,0,0,1,.059-.021l.03-.009a.762.762,0,0,1,.191-.027H8.7c.194-.006.39-.006.584,0h.086a.71.71,0,0,1,.107.011l.028.006.032.008a.69.69,0,0,1,.517.662c.006.146,0,.293,0,.439a1.635,1.635,0,0,0,.773,1.32l0,0a1.707,1.707,0,0,0,.254.125,1.818,1.818,0,0,0,.571.13h0a1.59,1.59,0,0,0,.842-.21,2.908,2.908,0,0,0,.537-.44c.026-.027.053-.053.081-.079a.7.7,0,0,1,1,0l.026.025q.207.2.406.4l0,0a1.078,1.078,0,0,1,.085.091l.01.012a.685.685,0,0,1,.146.636.775.775,0,0,1-.186.32c-.1.107-.212.2-.307.314a1.576,1.576,0,0,0-.323,1.623,1.564,1.564,0,0,0,1.257,1.1,4.307,4.307,0,0,0,.647.034.7.7,0,0,1,.7.7q.007.351,0,.7Z" fill="#fff"/>
  <path id="Path_13730" data-name="Path 13730" d="M9,5.2A3.8,3.8,0,1,0,12.8,9,3.8,3.8,0,0,0,9,5.2ZM9,11.5A2.5,2.5,0,1,1,11.5,9,2.5,2.5,0,0,1,9,11.5Z" fill="#fff"/>
</svg>
