<svg id="incorrect" xmlns="http://www.w3.org/2000/svg" width="19" height="19" viewBox="0 0 19 19">
  <rect id="back" width="19" height="19" fill="none"/>
  <path id="Path_13784" data-name="Path 13784" d="M18.992,9.49c0,1.178-.025,2.361.006,3.539A4.269,4.269,0,0,1,17.606,16.3,8.7,8.7,0,0,1,14.1,18.3a15.2,15.2,0,0,1-6.616.57,12.576,12.576,0,0,1-4.318-1.291A6.389,6.389,0,0,1,.576,15.3,3.841,3.841,0,0,1,0,13.263V5.717A4.23,4.23,0,0,1,1.6,2.488,9.025,9.025,0,0,1,5.084.633a15.465,15.465,0,0,1,6.09-.544,12.725,12.725,0,0,1,4.533,1.266,6.6,6.6,0,0,1,2.577,2.14,3.883,3.883,0,0,1,.709,2.273c-.006,1.241,0,2.475,0,3.716ZM10.851,9.5c.063-.07.114-.127.171-.184L13.839,6.5a2.343,2.343,0,0,0,.209-.228A.943.943,0,0,0,13.586,4.8a.953.953,0,0,0-1.013.272C11.611,6.04,10.642,7,9.68,7.964c-.057.057-.114.108-.184.171-.063-.057-.12-.108-.171-.158L7.894,6.546c-.506-.506-1-1.013-1.513-1.507a.948.948,0,1,0-1.31,1.367C6.033,7.375,7,8.338,7.964,9.3c.057.057.108.114.177.184-.057.063-.108.12-.158.171L6.552,11.085c-.506.506-1.013,1-1.507,1.513a.939.939,0,0,0,.1,1.456.949.949,0,0,0,1.272-.146Q7.882,12.456,9.332,11c.057-.057.114-.108.2-.184.076.089.127.165.19.228.931.937,1.868,1.868,2.8,2.8a2.343,2.343,0,0,0,.228.209.939.939,0,0,0,1.481-.6.978.978,0,0,0-.317-.9c-.962-.956-1.918-1.918-2.88-2.88-.057-.057-.108-.114-.177-.184Z" transform="translate(0 0.001)" fill="#45536d"/>
</svg>
